<?xml version="1.0" encoding="UTF-8" standalone="no"?>
<!DOCTYPE svg PUBLIC "-//W3C//DTD SVG 1.1//EN"
 "http://www.w3.org/Graphics/SVG/1.1/DTD/svg11.dtd">
<!-- Generated by graphviz version 2.36.0 (20140111.2315)
 -->
<!-- Title: Cell.SharkCell.SharkCell Pages: 1 -->
<svg width="362pt" height="66pt"
 viewBox="0.00 0.00 362.00 66.00" xmlns="http://www.w3.org/2000/svg" xmlns:xlink="http://www.w3.org/1999/xlink">
<g id="graph0" class="graph" transform="scale(1 1) rotate(0) translate(4 62)">
<title>Cell.SharkCell.SharkCell</title>
<polygon fill="white" stroke="none" points="-4,4 -4,-62 358,-62 358,4 -4,4"/>
<!-- Node1 -->
<g id="node1" class="node"><title>Node1</title>
<polygon fill="#bfbfbf" stroke="black" points="0,-19.5 0,-38.5 130,-38.5 130,-19.5 0,-19.5"/>
<text text-anchor="middle" x="65" y="-26.5" font-family="Helvetica,sans-Serif" font-size="10.00">Cell.SharkCell.SharkCell</text>
</g>
<!-- Node2 -->
<g id="node2" class="node"><title>Node2</title>
<g id="a_node2"><a xlink:href="../../df/d99/class_cell_1_1_shark_cell.html#a58041f21c256c90d706e75f4fafb19f8" target="_top" xlink:title="Cell.SharkCell.breed">
<polygon fill="white" stroke="black" points="203.5,-38.5 203.5,-57.5 316.5,-57.5 316.5,-38.5 203.5,-38.5"/>
<text text-anchor="middle" x="260" y="-45.5" font-family="Helvetica,sans-Serif" font-size="10.00">Cell.SharkCell.breed</text>
</a>
</g>
</g>
<!-- Node1&#45;&gt;Node2 -->
<g id="edge1" class="edge"><title>Node1&#45;&gt;Node2</title>
<path fill="none" stroke="midnightblue" d="M140.414,-36.3257C161.362,-38.388 183.779,-40.5948 203.419,-42.5283"/>
<polygon fill="midnightblue" stroke="midnightblue" points="140.561,-32.8234 130.266,-35.3267 139.875,-39.7897 140.561,-32.8234"/>
</g>
<!-- Node3 -->
<g id="node3" class="node"><title>Node3</title>
<g id="a_node3"><a xlink:href="../../df/d99/class_cell_1_1_shark_cell.html#ad392515e1d48584cae2153849ddee8b8" target="_top" xlink:title="Cell.SharkCell.updateStateandMove">
<polygon fill="white" stroke="black" points="166,-0.5 166,-19.5 354,-19.5 354,-0.5 166,-0.5"/>
<text text-anchor="middle" x="260" y="-7.5" font-family="Helvetica,sans-Serif" font-size="10.00">Cell.SharkCell.updateStateandMove</text>
</a>
</g>
</g>
<!-- Node1&#45;&gt;Node3 -->
<g id="edge2" class="edge"><title>Node1&#45;&gt;Node3</title>
<path fill="none" stroke="midnightblue" d="M140.308,-21.6847C148.65,-20.8635 157.226,-20.0192 165.768,-19.1782"/>
<polygon fill="midnightblue" stroke="midnightblue" points="139.875,-18.2103 130.266,-22.6733 140.561,-25.1766 139.875,-18.2103"/>
</g>
</g>
</svg>
