<?xml version="1.0" encoding="UTF-8" standalone="no"?>
<!DOCTYPE svg PUBLIC "-//W3C//DTD SVG 1.1//EN"
 "http://www.w3.org/Graphics/SVG/1.1/DTD/svg11.dtd">
<!-- Generated by graphviz version 2.36.0 (20140111.2315)
 -->
<!-- Title: Cell.SharkCell.breed Pages: 1 -->
<svg width="296pt" height="66pt"
 viewBox="0.00 0.00 296.00 66.00" xmlns="http://www.w3.org/2000/svg" xmlns:xlink="http://www.w3.org/1999/xlink">
<g id="graph0" class="graph" transform="scale(1 1) rotate(0) translate(4 62)">
<title>Cell.SharkCell.breed</title>
<polygon fill="white" stroke="none" points="-4,4 -4,-62 292,-62 292,4 -4,4"/>
<!-- Node1 -->
<g id="node1" class="node"><title>Node1</title>
<polygon fill="#bfbfbf" stroke="black" points="0.5,-19.5 0.5,-38.5 113.5,-38.5 113.5,-19.5 0.5,-19.5"/>
<text text-anchor="middle" x="57" y="-26.5" font-family="Helvetica,sans-Serif" font-size="10.00">Cell.SharkCell.breed</text>
</g>
<!-- Node2 -->
<g id="node2" class="node"><title>Node2</title>
<g id="a_node2"><a xlink:href="../../d0/d0a/class_patch_1_1_patch.html#a798cf940ecaa1d512b2df9c717e4d834" target="_top" xlink:title="Patch.Patch.setFutureCell">
<polygon fill="white" stroke="black" points="150.5,-38.5 150.5,-57.5 287.5,-57.5 287.5,-38.5 150.5,-38.5"/>
<text text-anchor="middle" x="219" y="-45.5" font-family="Helvetica,sans-Serif" font-size="10.00">Patch.Patch.setFutureCell</text>
</a>
</g>
</g>
<!-- Node1&#45;&gt;Node2 -->
<g id="edge1" class="edge"><title>Node1&#45;&gt;Node2</title>
<path fill="none" stroke="midnightblue" d="M113.511,-35.592C122.167,-36.6199 131.247,-37.6981 140.288,-38.7717"/>
<polygon fill="midnightblue" stroke="midnightblue" points="140.111,-42.2751 150.454,-39.9789 140.936,-35.324 140.111,-42.2751"/>
</g>
<!-- Node3 -->
<g id="node3" class="node"><title>Node3</title>
<g id="a_node3"><a xlink:href="../../df/d99/class_cell_1_1_shark_cell.html#a65fb0efdd5ca9b15e7ea976918b7ce2d" target="_top" xlink:title="Cell.SharkCell.SharkCell">
<polygon fill="white" stroke="black" points="154,-0.5 154,-19.5 284,-19.5 284,-0.5 154,-0.5"/>
<text text-anchor="middle" x="219" y="-7.5" font-family="Helvetica,sans-Serif" font-size="10.00">Cell.SharkCell.SharkCell</text>
</a>
</g>
</g>
<!-- Node1&#45;&gt;Node3 -->
<g id="edge2" class="edge"><title>Node1&#45;&gt;Node3</title>
<path fill="none" stroke="midnightblue" d="M113.511,-22.408C123.259,-21.2505 133.544,-20.0292 143.705,-18.8225"/>
<polygon fill="midnightblue" stroke="midnightblue" points="144.283,-22.2786 153.801,-17.6237 143.458,-15.3274 144.283,-22.2786"/>
</g>
</g>
</svg>
