<?xml version="1.0" encoding="UTF-8" standalone="no"?>
<!DOCTYPE svg PUBLIC "-//W3C//DTD SVG 1.1//EN"
 "http://www.w3.org/Graphics/SVG/1.1/DTD/svg11.dtd">
<!-- Generated by graphviz version 2.36.0 (20140111.2315)
 -->
<!-- Title: Cell.SharkCell.updateStateandMove Pages: 1 -->
<!--zoomable 411 -->
<svg id="main" version="1.1" xmlns="http://www.w3.org/2000/svg" xmlns:xlink="http://www.w3.org/1999/xlink" xml:space="preserve" onload="init(evt)">
<style type="text/css"><![CDATA[
.edge:hover path { stroke: red; }
.edge:hover polygon { stroke: red; fill: red; }
]]></style>
<script type="text/javascript"><![CDATA[
var edges = document.getElementsByTagName('g');
if (edges && edges.length) {
  for (var i=0;i<edges.length;i++) {
    if (edges[i].id.substr(0,4)=='edge') {
      edges[i].setAttribute('class','edge');
    }
  }
}
]]></script>
        <defs>
                <circle id="rim" cx="0" cy="0" r="7"/>
                <circle id="rim2" cx="0" cy="0" r="3.5"/>
                <g id="zoomPlus">
                        <use xlink:href="#rim" fill="#404040">
                                <set attributeName="fill" to="#808080" begin="zoomplus.mouseover" end="zoomplus.mouseout"/>
                        </use>
                        <path d="M-4,0h8M0,-4v8" fill="none" stroke="white" stroke-width="1.5" pointer-events="none"/>
                </g>
                <g id="zoomMin">
                        <use xlink:href="#rim" fill="#404040">
                                <set attributeName="fill" to="#808080" begin="zoomminus.mouseover" end="zoomminus.mouseout"/>
                        </use>
                        <path d="M-4,0h8" fill="none" stroke="white" stroke-width="1.5" pointer-events="none"/>
                </g>
                <g id="dirArrow">
                        <path fill="none" stroke="white" stroke-width="1.5" d="M0,-3.0v7 M-2.5,-0.5L0,-3.0L2.5,-0.5"/>
                </g>
               <g id="resetDef">
                       <use xlink:href="#rim2" fill="#404040">
                               <set attributeName="fill" to="#808080" begin="reset.mouseover" end="reset.mouseout"/>
                       </use>
               </g>
        </defs>

<script type="text/javascript">
var viewWidth = 584;
var viewHeight = 411;
var sectionId = 'dynsection-5';
</script>
<script xlink:href="../../svgpan.js"/>
<svg id="graph" class="graph">
<g id="viewport">
<title>Cell.SharkCell.updateStateandMove</title>
<polygon fill="white" stroke="none" points="-4,4 -4,-406.725 580,-406.725 580,4 -4,4"/>
<!-- Node1 -->
<g id="node1" class="node"><title>Node1</title>
<polygon fill="#bfbfbf" stroke="black" points="0,-190.5 0,-209.5 188,-209.5 188,-190.5 0,-190.5"/>
<text text-anchor="middle" x="94" y="-197.5" font-family="Helvetica,sans-Serif" font-size="10.00">Cell.SharkCell.updateStateandMove</text>
</g>
<!-- Node2 -->
<g id="node2" class="node"><title>Node2</title>
<g id="a_node2"><a xlink:href="../../d4/df2/class_cell_1_1_pred_prey_cell.html#a718ac42962d2c125788c85518cc1031e" target="_top" xlink:title="Cell.PredPreyCell.checkBreed">
<polygon fill="white" stroke="black" points="224,-342.5 224,-361.5 380,-361.5 380,-342.5 224,-342.5"/>
<text text-anchor="middle" x="302" y="-349.5" font-family="Helvetica,sans-Serif" font-size="10.00">Cell.PredPreyCell.checkBreed</text>
</a>
</g>
</g>
<!-- Node1&#45;&gt;Node2 -->
<g id="edge1" class="edge"><title>Node1&#45;&gt;Node2</title>
<path fill="none" stroke="midnightblue" d="M101.98,-209.59C119.682,-233.235 168.857,-294.808 224,-328 231.329,-332.412 239.546,-336.084 247.808,-339.12"/>
<polygon fill="midnightblue" stroke="midnightblue" points="246.885,-342.502 257.479,-342.396 249.131,-335.872 246.885,-342.502"/>
</g>
<!-- Node4 -->
<g id="node4" class="node"><title>Node4</title>
<g id="a_node4"><a xlink:href="../../d4/df2/class_cell_1_1_pred_prey_cell.html#a218b10c89861e5cbc826511d9b35b1ae" target="_top" xlink:title="Cell.PredPreyCell.PredPreyCell">
<polygon fill="white" stroke="black" points="416,-380.5 416,-399.5 576,-399.5 576,-380.5 416,-380.5"/>
<text text-anchor="middle" x="496" y="-387.5" font-family="Helvetica,sans-Serif" font-size="10.00">Cell.PredPreyCell.PredPreyCell</text>
</a>
</g>
</g>
<!-- Node1&#45;&gt;Node4 -->
<g id="edge14" class="edge"><title>Node1&#45;&gt;Node4</title>
<path fill="none" stroke="midnightblue" d="M98.8035,-209.655C111.309,-239.928 154.383,-333.216 224,-371 285.394,-404.321 366.457,-405.446 423.881,-400.476"/>
<polygon fill="midnightblue" stroke="midnightblue" points="424.335,-403.949 433.96,-399.52 423.674,-396.98 424.335,-403.949"/>
</g>
<!-- Node5 -->
<g id="node5" class="node"><title>Node5</title>
<g id="a_node5"><a xlink:href="../../d0/d0a/class_patch_1_1_patch.html#a798cf940ecaa1d512b2df9c717e4d834" target="_top" xlink:title="Patch.Patch.setFutureCell">
<polygon fill="white" stroke="black" points="427.5,-304.5 427.5,-323.5 564.5,-323.5 564.5,-304.5 427.5,-304.5"/>
<text text-anchor="middle" x="496" y="-311.5" font-family="Helvetica,sans-Serif" font-size="10.00">Patch.Patch.setFutureCell</text>
</a>
</g>
</g>
<!-- Node1&#45;&gt;Node5 -->
<g id="edge15" class="edge"><title>Node1&#45;&gt;Node5</title>
<path fill="none" stroke="midnightblue" d="M104.203,-209.799C123.905,-230.026 172.574,-276.089 224,-295 286.196,-317.871 361.754,-321.36 417.271,-319.853"/>
<polygon fill="midnightblue" stroke="midnightblue" points="417.518,-323.347 427.396,-319.517 417.286,-316.351 417.518,-323.347"/>
</g>
<!-- Node6 -->
<g id="node6" class="node"><title>Node6</title>
<g id="a_node6"><a xlink:href="../../da/db4/class_cell_1_1_fish_cell.html#a3ea2d853b3e7b8048dff3f5a2c84abcc" target="_top" xlink:title="Cell.FishCell.food">
<polygon fill="white" stroke="black" points="254,-266.5 254,-285.5 350,-285.5 350,-266.5 254,-266.5"/>
<text text-anchor="middle" x="302" y="-273.5" font-family="Helvetica,sans-Serif" font-size="10.00">Cell.FishCell.food</text>
</a>
</g>
</g>
<!-- Node1&#45;&gt;Node6 -->
<g id="edge5" class="edge"><title>Node1&#45;&gt;Node6</title>
<path fill="none" stroke="midnightblue" d="M113.817,-209.561C138.576,-221.849 183.682,-243.235 224,-257 231.33,-259.502 239.156,-261.822 246.906,-263.919"/>
<polygon fill="midnightblue" stroke="midnightblue" points="246.081,-267.321 256.64,-266.453 247.845,-260.547 246.081,-267.321"/>
</g>
<!-- Node7 -->
<g id="node7" class="node"><title>Node7</title>
<g id="a_node7"><a xlink:href="../../d0/d0a/class_patch_1_1_patch.html#ab49e64fb74f1147d834efd81af480fae" target="_top" xlink:title="Patch.Patch.getCurrentCell">
<polygon fill="white" stroke="black" points="230,-228.5 230,-247.5 374,-247.5 374,-228.5 230,-228.5"/>
<text text-anchor="middle" x="302" y="-235.5" font-family="Helvetica,sans-Serif" font-size="10.00">Patch.Patch.getCurrentCell</text>
</a>
</g>
</g>
<!-- Node1&#45;&gt;Node7 -->
<g id="edge6" class="edge"><title>Node1&#45;&gt;Node7</title>
<path fill="none" stroke="midnightblue" d="M146.717,-209.54C174.756,-214.712 209.602,-221.14 239.079,-226.578"/>
<polygon fill="midnightblue" stroke="midnightblue" points="238.793,-230.084 249.262,-228.456 240.063,-223.2 238.793,-230.084"/>
</g>
<!-- Node8 -->
<g id="node8" class="node"><title>Node8</title>
<g id="a_node8"><a xlink:href="../../d0/d0a/class_patch_1_1_patch.html#adda421d6371d6e4f0a48e8975423dfb5" target="_top" xlink:title="Patch.Patch.getCurrentX">
<polygon fill="white" stroke="black" points="429.5,-171.5 429.5,-190.5 562.5,-190.5 562.5,-171.5 429.5,-171.5"/>
<text text-anchor="middle" x="496" y="-178.5" font-family="Helvetica,sans-Serif" font-size="10.00">Patch.Patch.getCurrentX</text>
</a>
</g>
</g>
<!-- Node1&#45;&gt;Node8 -->
<g id="edge7" class="edge"><title>Node1&#45;&gt;Node8</title>
<path fill="none" stroke="midnightblue" d="M188.025,-195.581C258.247,-192.246 353.399,-187.726 419.063,-184.607"/>
<polygon fill="midnightblue" stroke="midnightblue" points="419.517,-188.089 429.34,-184.119 419.185,-181.097 419.517,-188.089"/>
</g>
<!-- Node9 -->
<g id="node9" class="node"><title>Node9</title>
<g id="a_node9"><a xlink:href="../../d0/d0a/class_patch_1_1_patch.html#a23fe4590d9c3466c4479ba3c1b072fdc" target="_top" xlink:title="Patch.Patch.getCurrentY">
<polygon fill="white" stroke="black" points="430,-95.5 430,-114.5 562,-114.5 562,-95.5 430,-95.5"/>
<text text-anchor="middle" x="496" y="-102.5" font-family="Helvetica,sans-Serif" font-size="10.00">Patch.Patch.getCurrentY</text>
</a>
</g>
</g>
<!-- Node1&#45;&gt;Node9 -->
<g id="edge8" class="edge"><title>Node1&#45;&gt;Node9</title>
<path fill="none" stroke="midnightblue" d="M100.406,-190.476C115.733,-164.579 162.382,-93.0756 224,-67 306.651,-32.0233 414.888,-69.358 465.945,-91.3302"/>
<polygon fill="midnightblue" stroke="midnightblue" points="464.808,-94.6542 475.37,-95.4938 467.637,-88.2512 464.808,-94.6542"/>
</g>
<!-- Node10 -->
<g id="node10" class="node"><title>Node10</title>
<g id="a_node10"><a xlink:href="../../d5/d5c/class_cell_1_1_cell.html#aceb5e4da80edd40d3c330807846aa8e6" target="_top" xlink:title="Cell.Cell.getNeighbors">
<polygon fill="white" stroke="black" points="241,-114.5 241,-133.5 363,-133.5 363,-114.5 241,-114.5"/>
<text text-anchor="middle" x="302" y="-121.5" font-family="Helvetica,sans-Serif" font-size="10.00">Cell.Cell.getNeighbors</text>
</a>
</g>
</g>
<!-- Node1&#45;&gt;Node10 -->
<g id="edge9" class="edge"><title>Node1&#45;&gt;Node10</title>
<path fill="none" stroke="midnightblue" d="M113.817,-190.439C138.576,-178.151 183.682,-156.765 224,-143 231.33,-140.498 239.156,-138.178 246.906,-136.081"/>
<polygon fill="midnightblue" stroke="midnightblue" points="247.845,-139.453 256.64,-133.547 246.081,-132.679 247.845,-139.453"/>
</g>
<!-- Node11 -->
<g id="node11" class="node"><title>Node11</title>
<g id="a_node11"><a xlink:href="../../da/db4/class_cell_1_1_fish_cell.html#ab5cd88fb02390d7a60f2786b0c79f664" target="_top" xlink:title="Cell.FishCell.getNewMove">
<polygon fill="white" stroke="black" points="233.5,-76.5 233.5,-95.5 370.5,-95.5 370.5,-76.5 233.5,-76.5"/>
<text text-anchor="middle" x="302" y="-83.5" font-family="Helvetica,sans-Serif" font-size="10.00">Cell.FishCell.getNewMove</text>
</a>
</g>
</g>
<!-- Node1&#45;&gt;Node11 -->
<g id="edge10" class="edge"><title>Node1&#45;&gt;Node11</title>
<path fill="none" stroke="midnightblue" d="M105.118,-190.31C125.749,-171.091 174.891,-128.02 224,-105 229.065,-102.626 234.461,-100.527 239.956,-98.6751"/>
<polygon fill="midnightblue" stroke="midnightblue" points="241.382,-101.898 249.904,-95.6037 239.317,-95.2097 241.382,-101.898"/>
</g>
<!-- Node12 -->
<g id="node12" class="node"><title>Node12</title>
<g id="a_node12"><a xlink:href="../../d4/df2/class_cell_1_1_pred_prey_cell.html#a19b6b02d831c37eca6c6e9f138e6d721" target="_top" xlink:title="Cell.PredPreyCell.pickMove">
<polygon fill="white" stroke="black" points="230,-152.5 230,-171.5 374,-171.5 374,-152.5 230,-152.5"/>
<text text-anchor="middle" x="302" y="-159.5" font-family="Helvetica,sans-Serif" font-size="10.00">Cell.PredPreyCell.pickMove</text>
</a>
</g>
</g>
<!-- Node1&#45;&gt;Node12 -->
<g id="edge11" class="edge"><title>Node1&#45;&gt;Node12</title>
<path fill="none" stroke="midnightblue" d="M146.717,-190.46C174.756,-185.288 209.602,-178.86 239.079,-173.422"/>
<polygon fill="midnightblue" stroke="midnightblue" points="240.063,-176.8 249.262,-171.544 238.793,-169.916 240.063,-176.8"/>
</g>
<!-- Node13 -->
<g id="node13" class="node"><title>Node13</title>
<g id="a_node13"><a xlink:href="../../df/d99/class_cell_1_1_shark_cell.html#a65fb0efdd5ca9b15e7ea976918b7ce2d" target="_top" xlink:title="Cell.SharkCell.SharkCell">
<polygon fill="white" stroke="black" points="237,-0.5 237,-19.5 367,-19.5 367,-0.5 237,-0.5"/>
<text text-anchor="middle" x="302" y="-7.5" font-family="Helvetica,sans-Serif" font-size="10.00">Cell.SharkCell.SharkCell</text>
</a>
</g>
</g>
<!-- Node1&#45;&gt;Node13 -->
<g id="edge16" class="edge"><title>Node1&#45;&gt;Node13</title>
<path fill="none" stroke="midnightblue" d="M99.6897,-190.483C114.115,-162.195 160.709,-77.8746 224,-34 230.392,-29.5688 237.636,-25.9307 245.06,-22.9501"/>
<polygon fill="midnightblue" stroke="midnightblue" points="246.307,-26.2209 254.51,-19.516 243.916,-19.6418 246.307,-26.2209"/>
</g>
<!-- Node3 -->
<g id="node3" class="node"><title>Node3</title>
<g id="a_node3"><a xlink:href="../../d4/df2/class_cell_1_1_pred_prey_cell.html#a4198d71dc9ef01659445f95ae91cf284" target="_top" xlink:title="Cell.PredPreyCell.breed">
<polygon fill="white" stroke="black" points="432,-342.5 432,-361.5 560,-361.5 560,-342.5 432,-342.5"/>
<text text-anchor="middle" x="496" y="-349.5" font-family="Helvetica,sans-Serif" font-size="10.00">Cell.PredPreyCell.breed</text>
</a>
</g>
</g>
<!-- Node2&#45;&gt;Node3 -->
<g id="edge2" class="edge"><title>Node2&#45;&gt;Node3</title>
<path fill="none" stroke="midnightblue" d="M380.264,-352C393.882,-352 408.023,-352 421.533,-352"/>
<polygon fill="midnightblue" stroke="midnightblue" points="421.723,-355.5 431.723,-352 421.723,-348.5 421.723,-355.5"/>
</g>
<!-- Node2&#45;&gt;Node4 -->
<g id="edge3" class="edge"><title>Node2&#45;&gt;Node4</title>
<path fill="none" stroke="midnightblue" d="M351.45,-361.589C377.471,-366.739 409.728,-373.123 437.069,-378.534"/>
<polygon fill="midnightblue" stroke="midnightblue" points="436.409,-381.972 446.899,-380.48 437.769,-375.105 436.409,-381.972"/>
</g>
<!-- Node2&#45;&gt;Node5 -->
<g id="edge4" class="edge"><title>Node2&#45;&gt;Node5</title>
<path fill="none" stroke="midnightblue" d="M351.45,-342.411C377.471,-337.261 409.728,-330.877 437.069,-325.466"/>
<polygon fill="midnightblue" stroke="midnightblue" points="437.769,-328.895 446.899,-323.52 436.409,-322.028 437.769,-328.895"/>
</g>
<!-- Node12&#45;&gt;Node8 -->
<g id="edge12" class="edge"><title>Node12&#45;&gt;Node8</title>
<path fill="none" stroke="midnightblue" d="M374.221,-169.048C388.875,-170.498 404.356,-172.03 419.166,-173.496"/>
<polygon fill="midnightblue" stroke="midnightblue" points="418.998,-176.996 429.294,-174.498 419.688,-170.03 418.998,-176.996"/>
</g>
<!-- Node12&#45;&gt;Node9 -->
<g id="edge13" class="edge"><title>Node12&#45;&gt;Node9</title>
<path fill="none" stroke="midnightblue" d="M344.316,-152.428C355.909,-149.573 368.489,-146.317 380,-143 406.401,-135.393 435.81,-125.652 458.28,-117.937"/>
<polygon fill="midnightblue" stroke="midnightblue" points="459.458,-121.233 467.767,-114.658 457.172,-114.617 459.458,-121.233"/>
</g>
</g>
</svg>
        <g id="navigator" transform="translate(0 0)" fill="#404254">
                <rect fill="#f2f5e9" fill-opacity="0.5" stroke="#606060" stroke-width=".5" x="0" y="0" width="60" height="60"/>
                <use id="zoomplus" xlink:href="#zoomPlus" x="17" y="9" onmousedown="handleZoom(evt,'in')"/>
                <use id="zoomminus" xlink:href="#zoomMin" x="42" y="9" onmousedown="handleZoom(evt,'out')"/>
                <use id="reset" xlink:href="#resetDef" x="30" y="36" onmousedown="handleReset()"/>
                <g id="arrowUp" xlink:href="#dirArrow" transform="translate(30 24)" onmousedown="handlePan(0,-1)">
                  <use xlink:href="#rim" fill="#404040">
                        <set attributeName="fill" to="#808080" begin="arrowUp.mouseover" end="arrowUp.mouseout"/>
                  </use>
                  <path fill="none" stroke="white" stroke-width="1.5" d="M0,-3.0v7 M-2.5,-0.5L0,-3.0L2.5,-0.5"/>
                </g>
                <g id="arrowRight" xlink:href="#dirArrow" transform="rotate(90) translate(36 -43)" onmousedown="handlePan(1,0)">
                  <use xlink:href="#rim" fill="#404040">
                        <set attributeName="fill" to="#808080" begin="arrowRight.mouseover" end="arrowRight.mouseout"/>
                  </use>
                  <path fill="none" stroke="white" stroke-width="1.5" d="M0,-3.0v7 M-2.5,-0.5L0,-3.0L2.5,-0.5"/>
                </g>
                <g id="arrowDown" xlink:href="#dirArrow" transform="rotate(180) translate(-30 -48)" onmousedown="handlePan(0,1)">
                  <use xlink:href="#rim" fill="#404040">
                        <set attributeName="fill" to="#808080" begin="arrowDown.mouseover" end="arrowDown.mouseout"/>
                  </use>
                  <path fill="none" stroke="white" stroke-width="1.5" d="M0,-3.0v7 M-2.5,-0.5L0,-3.0L2.5,-0.5"/>
                </g>
                <g id="arrowLeft" xlink:href="#dirArrow" transform="rotate(270) translate(-36 17)" onmousedown="handlePan(-1,0)">
                  <use xlink:href="#rim" fill="#404040">
                        <set attributeName="fill" to="#808080" begin="arrowLeft.mouseover" end="arrowLeft.mouseout"/>
                  </use>
                  <path fill="none" stroke="white" stroke-width="1.5" d="M0,-3.0v7 M-2.5,-0.5L0,-3.0L2.5,-0.5"/>
                </g>
        </g>
        <svg viewBox="0 0 15 15" width="100%" height="30px" preserveAspectRatio="xMaxYMin meet">
         <g id="arrow_out" transform="scale(0.3 0.3)">
          <a xlink:href="class_cell_1_1_shark_cell_ad392515e1d48584cae2153849ddee8b8_cgraph_org.svg" target="_base">
           <rect id="button" ry="5" rx="5" y="6" x="6" height="38" width="38"
                fill="#f2f5e9" fill-opacity="0.5" stroke="#606060" stroke-width="1.0"/>
           <path id="arrow"
             d="M 11.500037,31.436501 C 11.940474,20.09759 22.043105,11.32322 32.158766,21.979434 L 37.068811,17.246167 C 37.068811,17.246167 37.088388,32 37.088388,32 L 22.160133,31.978069 C 22.160133,31.978069 26.997745,27.140456 26.997745,27.140456 C 18.528582,18.264221 13.291696,25.230495 11.500037,31.436501 z"
             style="fill:#404040;"/>
          </a>
         </g>
        </svg>
</svg>
