<?xml version="1.0" encoding="UTF-8" standalone="no"?>
<!DOCTYPE svg PUBLIC "-//W3C//DTD SVG 1.1//EN"
 "http://www.w3.org/Graphics/SVG/1.1/DTD/svg11.dtd">
<!-- Generated by graphviz version 2.36.0 (20140111.2315)
 -->
<!-- Title: Cell.Cell Pages: 1 -->
<svg width="514pt" height="140pt"
 viewBox="0.00 0.00 514.00 140.00" xmlns="http://www.w3.org/2000/svg" xmlns:xlink="http://www.w3.org/1999/xlink">
<g id="graph0" class="graph" transform="scale(1 1) rotate(0) translate(4 136)">
<title>Cell.Cell</title>
<polygon fill="white" stroke="none" points="-4,4 -4,-136 510,-136 510,4 -4,4"/>
<!-- Node1 -->
<g id="node1" class="node"><title>Node1</title>
<polygon fill="#bfbfbf" stroke="black" points="199,-112.5 199,-131.5 253,-131.5 253,-112.5 199,-112.5"/>
<text text-anchor="middle" x="226" y="-119.5" font-family="Helvetica,sans-Serif" font-size="10.00">Cell.Cell</text>
</g>
<!-- Node2 -->
<g id="node2" class="node"><title>Node2</title>
<g id="a_node2"><a xlink:href="../../d5/de8/class_cell_1_1_fire_cell.html" target="_top" xlink:title="Cell.FireCell">
<polygon fill="white" stroke="black" points="-0.5,-56.5 -0.5,-75.5 70.5,-75.5 70.5,-56.5 -0.5,-56.5"/>
<text text-anchor="middle" x="35" y="-63.5" font-family="Helvetica,sans-Serif" font-size="10.00">Cell.FireCell</text>
</a>
</g>
</g>
<!-- Node1&#45;&gt;Node2 -->
<g id="edge1" class="edge"><title>Node1&#45;&gt;Node2</title>
<path fill="none" stroke="midnightblue" d="M188.968,-110.53C152.881,-100.328 98.6863,-85.0056 65.1509,-75.5243"/>
<polygon fill="midnightblue" stroke="midnightblue" points="188.059,-113.91 198.634,-113.263 189.964,-107.174 188.059,-113.91"/>
</g>
<!-- Node3 -->
<g id="node3" class="node"><title>Node3</title>
<g id="a_node3"><a xlink:href="../../dd/d55/class_cell_1_1_life_cell.html" target="_top" xlink:title="Cell.LifeCell">
<polygon fill="white" stroke="black" points="88.5,-56.5 88.5,-75.5 159.5,-75.5 159.5,-56.5 88.5,-56.5"/>
<text text-anchor="middle" x="124" y="-63.5" font-family="Helvetica,sans-Serif" font-size="10.00">Cell.LifeCell</text>
</a>
</g>
</g>
<!-- Node1&#45;&gt;Node3 -->
<g id="edge2" class="edge"><title>Node1&#45;&gt;Node3</title>
<path fill="none" stroke="midnightblue" d="M200.669,-107.59C181.81,-97.6052 156.616,-84.2672 140.347,-75.6545"/>
<polygon fill="midnightblue" stroke="midnightblue" points="199.136,-110.738 209.612,-112.324 202.412,-104.552 199.136,-110.738"/>
</g>
<!-- Node4 -->
<g id="node4" class="node"><title>Node4</title>
<g id="a_node4"><a xlink:href="../../d4/df2/class_cell_1_1_pred_prey_cell.html" target="_top" xlink:title="Cell.PredPreyCell">
<polygon fill="white" stroke="black" points="177.5,-56.5 177.5,-75.5 274.5,-75.5 274.5,-56.5 177.5,-56.5"/>
<text text-anchor="middle" x="226" y="-63.5" font-family="Helvetica,sans-Serif" font-size="10.00">Cell.PredPreyCell</text>
</a>
</g>
</g>
<!-- Node1&#45;&gt;Node4 -->
<g id="edge3" class="edge"><title>Node1&#45;&gt;Node4</title>
<path fill="none" stroke="midnightblue" d="M226,-101.805C226,-92.9102 226,-82.7798 226,-75.7511"/>
<polygon fill="midnightblue" stroke="midnightblue" points="222.5,-102.083 226,-112.083 229.5,-102.083 222.5,-102.083"/>
</g>
<!-- Node7 -->
<g id="node7" class="node"><title>Node7</title>
<g id="a_node7"><a xlink:href="../../d4/d7a/class_cell_1_1_segregation_cell.html" target="_top" xlink:title="Cell.SegregationCell">
<polygon fill="white" stroke="black" points="292.5,-56.5 292.5,-75.5 405.5,-75.5 405.5,-56.5 292.5,-56.5"/>
<text text-anchor="middle" x="349" y="-63.5" font-family="Helvetica,sans-Serif" font-size="10.00">Cell.SegregationCell</text>
</a>
</g>
</g>
<!-- Node1&#45;&gt;Node7 -->
<g id="edge6" class="edge"><title>Node1&#45;&gt;Node7</title>
<path fill="none" stroke="midnightblue" d="M254.773,-108.368C277.807,-98.2553 309.484,-84.3486 329.601,-75.5164"/>
<polygon fill="midnightblue" stroke="midnightblue" points="253.239,-105.219 245.49,-112.444 256.053,-111.628 253.239,-105.219"/>
</g>
<!-- Node8 -->
<g id="node8" class="node"><title>Node8</title>
<g id="a_node8"><a xlink:href="../../d4/d3e/class_cell_1_1_sugar_cell.html" target="_top" xlink:title="Cell.SugarCell">
<polygon fill="white" stroke="black" points="423.5,-56.5 423.5,-75.5 506.5,-75.5 506.5,-56.5 423.5,-56.5"/>
<text text-anchor="middle" x="465" y="-63.5" font-family="Helvetica,sans-Serif" font-size="10.00">Cell.SugarCell</text>
</a>
</g>
</g>
<!-- Node1&#45;&gt;Node8 -->
<g id="edge7" class="edge"><title>Node1&#45;&gt;Node8</title>
<path fill="none" stroke="midnightblue" d="M263.292,-112.574C307.99,-102.475 382.466,-85.6478 427.332,-75.5108"/>
<polygon fill="midnightblue" stroke="midnightblue" points="262.399,-109.188 253.416,-114.806 263.942,-116.016 262.399,-109.188"/>
</g>
<!-- Node5 -->
<g id="node5" class="node"><title>Node5</title>
<g id="a_node5"><a xlink:href="../../da/db4/class_cell_1_1_fish_cell.html" target="_top" xlink:title="Cell.FishCell">
<polygon fill="white" stroke="black" points="142,-0.5 142,-19.5 214,-19.5 214,-0.5 142,-0.5"/>
<text text-anchor="middle" x="178" y="-7.5" font-family="Helvetica,sans-Serif" font-size="10.00">Cell.FishCell</text>
</a>
</g>
</g>
<!-- Node4&#45;&gt;Node5 -->
<g id="edge4" class="edge"><title>Node4&#45;&gt;Node5</title>
<path fill="none" stroke="midnightblue" d="M211.272,-48.4314C202.86,-38.9673 192.651,-27.4827 185.779,-19.7511"/>
<polygon fill="midnightblue" stroke="midnightblue" points="208.814,-50.9342 218.074,-56.083 214.046,-46.2836 208.814,-50.9342"/>
</g>
<!-- Node6 -->
<g id="node6" class="node"><title>Node6</title>
<g id="a_node6"><a xlink:href="../../df/d99/class_cell_1_1_shark_cell.html" target="_top" xlink:title="Cell.SharkCell">
<polygon fill="white" stroke="black" points="232,-0.5 232,-19.5 314,-19.5 314,-0.5 232,-0.5"/>
<text text-anchor="middle" x="273" y="-7.5" font-family="Helvetica,sans-Serif" font-size="10.00">Cell.SharkCell</text>
</a>
</g>
</g>
<!-- Node4&#45;&gt;Node6 -->
<g id="edge5" class="edge"><title>Node4&#45;&gt;Node6</title>
<path fill="none" stroke="midnightblue" d="M240.421,-48.4314C248.658,-38.9673 258.654,-27.4827 265.383,-19.7511"/>
<polygon fill="midnightblue" stroke="midnightblue" points="237.686,-46.2421 233.761,-56.083 242.966,-50.8378 237.686,-46.2421"/>
</g>
</g>
</svg>
