<?xml version="1.0" encoding="UTF-8" standalone="no"?>
<!DOCTYPE svg PUBLIC "-//W3C//DTD SVG 1.1//EN"
 "http://www.w3.org/Graphics/SVG/1.1/DTD/svg11.dtd">
<!-- Generated by graphviz version 2.36.0 (20140111.2315)
 -->
<!-- Title: cellsociety_team02.GridModel Pages: 1 -->
<svg width="379pt" height="242pt"
 viewBox="0.00 0.00 379.00 242.00" xmlns="http://www.w3.org/2000/svg" xmlns:xlink="http://www.w3.org/1999/xlink">
<g id="graph0" class="graph" transform="scale(1 1) rotate(0) translate(4 238)">
<title>cellsociety_team02.GridModel</title>
<polygon fill="white" stroke="none" points="-4,4 -4,-238 375,-238 375,4 -4,4"/>
<!-- Node1 -->
<g id="node1" class="node"><title>Node1</title>
<polygon fill="#bfbfbf" stroke="black" points="63,-0.5 63,-19.5 223,-19.5 223,-0.5 63,-0.5"/>
<text text-anchor="middle" x="143" y="-7.5" font-family="Helvetica,sans-Serif" font-size="10.00">cellsociety_team02.GridModel</text>
</g>
<!-- Node2 -->
<g id="node2" class="node"><title>Node2</title>
<g id="a_node2"><a xlink:href="../../d0/d0a/class_patch_1_1_patch.html" target="_top" xlink:title="Patch.Patch">
<polygon fill="white" stroke="black" points="20,-68.5 20,-87.5 92,-87.5 92,-68.5 20,-68.5"/>
<text text-anchor="middle" x="56" y="-75.5" font-family="Helvetica,sans-Serif" font-size="10.00">Patch.Patch</text>
</a>
</g>
</g>
<!-- Node2&#45;&gt;Node1 -->
<g id="edge1" class="edge"><title>Node2&#45;&gt;Node1</title>
<path fill="none" stroke="#9a32cd" stroke-dasharray="5,2" d="M60.6391,-58.6681C63.2527,-51.4437 67.1946,-43.5613 73,-38 81.8416,-29.5301 93.628,-23.6399 105.005,-19.577"/>
<polygon fill="#9a32cd" stroke="#9a32cd" points="57.2302,-57.8503 57.698,-68.4348 63.9329,-59.8688 57.2302,-57.8503"/>
<text text-anchor="middle" x="101" y="-41.5" font-family="Helvetica,sans-Serif" font-size="10.00"> myPatches</text>
</g>
<!-- Node3 -->
<g id="node3" class="node"><title>Node3</title>
<polygon fill="white" stroke="#bfbfbf" points="0,-214.5 0,-233.5 122,-233.5 122,-214.5 0,-214.5"/>
<text text-anchor="middle" x="61" y="-221.5" font-family="Helvetica,sans-Serif" font-size="10.00">Map&lt; String, String &gt;</text>
</g>
<!-- Node3&#45;&gt;Node2 -->
<g id="edge2" class="edge"><title>Node3&#45;&gt;Node2</title>
<path fill="none" stroke="#9a32cd" stroke-dasharray="5,2" d="M49.5076,-205.739C42.9612,-194.846 35.4037,-180.196 32,-166 25.059,-137.051 41.6413,-103.15 50.6528,-87.5937"/>
<polygon fill="#9a32cd" stroke="#9a32cd" points="46.5742,-207.649 54.8705,-214.238 52.4942,-203.913 46.5742,-207.649"/>
<text text-anchor="middle" x="69" y="-153.5" font-family="Helvetica,sans-Serif" font-size="10.00"> myParameters</text>
</g>
<!-- Node4 -->
<g id="node4" class="node"><title>Node4</title>
<g id="a_node4"><a xlink:href="../../d5/d5c/class_cell_1_1_cell.html" target="_top" xlink:title="Cell.Cell">
<polygon fill="white" stroke="black" points="115,-146.5 115,-165.5 169,-165.5 169,-146.5 115,-146.5"/>
<text text-anchor="middle" x="142" y="-153.5" font-family="Helvetica,sans-Serif" font-size="10.00">Cell.Cell</text>
</a>
</g>
</g>
<!-- Node3&#45;&gt;Node4 -->
<g id="edge4" class="edge"><title>Node3&#45;&gt;Node4</title>
<path fill="none" stroke="#9a32cd" stroke-dasharray="5,2" d="M79.7352,-207.734C95.7802,-194.661 118.309,-176.304 131.408,-165.63"/>
<polygon fill="#9a32cd" stroke="#9a32cd" points="77.1308,-205.342 71.5893,-214.372 81.5526,-210.768 77.1308,-205.342"/>
<text text-anchor="middle" x="146" y="-187.5" font-family="Helvetica,sans-Serif" font-size="10.00"> myParameters</text>
</g>
<!-- Node4&#45;&gt;Node1 -->
<g id="edge6" class="edge"><title>Node4&#45;&gt;Node1</title>
<path fill="none" stroke="#9a32cd" stroke-dasharray="5,2" d="M142.129,-136.38C142.347,-104.966 142.78,-42.6284 142.939,-19.7137"/>
<polygon fill="#9a32cd" stroke="#9a32cd" points="138.629,-136.399 142.06,-146.423 145.629,-136.448 138.629,-136.399"/>
<text text-anchor="middle" x="163.5" y="-75.5" font-family="Helvetica,sans-Serif" font-size="10.00"> myCells</text>
</g>
<!-- Node4&#45;&gt;Node2 -->
<g id="edge3" class="edge"><title>Node4&#45;&gt;Node2</title>
<path fill="none" stroke="#9a32cd" stroke-dasharray="5,2" d="M105.214,-145.449C83.6929,-139.496 60.1349,-132.195 57,-128 48.2387,-116.277 50.799,-98.1876 53.4225,-87.5783"/>
<polygon fill="#9a32cd" stroke="#9a32cd" points="104.31,-148.83 114.878,-148.073 106.144,-142.075 104.31,-148.83"/>
<text text-anchor="middle" x="93" y="-120" font-family="Helvetica,sans-Serif" font-size="10.00"> myCurrentCell</text>
<text text-anchor="middle" x="93" y="-109" font-family="Helvetica,sans-Serif" font-size="10.00">myFutureCell</text>
</g>
<!-- Node5 -->
<g id="node5" class="node"><title>Node5</title>
<polygon fill="white" stroke="#bfbfbf" points="202.5,-68.5 202.5,-87.5 371.5,-87.5 371.5,-68.5 202.5,-68.5"/>
<text text-anchor="middle" x="287" y="-75.5" font-family="Helvetica,sans-Serif" font-size="10.00">Map&lt; Integer, XYChart.Series &gt;</text>
</g>
<!-- Node5&#45;&gt;Node1 -->
<g id="edge5" class="edge"><title>Node5&#45;&gt;Node1</title>
<path fill="none" stroke="#9a32cd" stroke-dasharray="5,2" d="M258.712,-64.0346C230.05,-50.898 186.519,-30.9463 161.83,-19.6305"/>
<polygon fill="#9a32cd" stroke="#9a32cd" points="257.626,-67.3868 268.175,-68.3717 260.542,-61.0233 257.626,-67.3868"/>
<text text-anchor="middle" x="254" y="-41.5" font-family="Helvetica,sans-Serif" font-size="10.00"> seriesMap</text>
</g>
</g>
</svg>
