<?xml version="1.0" encoding="UTF-8" standalone="no"?>
<!DOCTYPE svg PUBLIC "-//W3C//DTD SVG 1.1//EN"
 "http://www.w3.org/Graphics/SVG/1.1/DTD/svg11.dtd">
<!-- Generated by graphviz version 2.36.0 (20140111.2315)
 -->
<!-- Title: Patch.Patch Pages: 1 -->
<svg width="342pt" height="84pt"
 viewBox="0.00 0.00 342.00 84.00" xmlns="http://www.w3.org/2000/svg" xmlns:xlink="http://www.w3.org/1999/xlink">
<g id="graph0" class="graph" transform="scale(1 1) rotate(0) translate(4 80)">
<title>Patch.Patch</title>
<polygon fill="white" stroke="none" points="-4,4 -4,-80 338,-80 338,4 -4,4"/>
<!-- Node1 -->
<g id="node1" class="node"><title>Node1</title>
<polygon fill="#bfbfbf" stroke="black" points="125,-56.5 125,-75.5 197,-75.5 197,-56.5 125,-56.5"/>
<text text-anchor="middle" x="161" y="-63.5" font-family="Helvetica,sans-Serif" font-size="10.00">Patch.Patch</text>
</g>
<!-- Node2 -->
<g id="node2" class="node"><title>Node2</title>
<g id="a_node2"><a xlink:href="../../d4/d2a/class_patch_1_1_fire_patch.html" target="_top" xlink:title="Patch.FirePatch">
<polygon fill="white" stroke="black" points="-0.5,-0.5 -0.5,-19.5 88.5,-19.5 88.5,-0.5 -0.5,-0.5"/>
<text text-anchor="middle" x="44" y="-7.5" font-family="Helvetica,sans-Serif" font-size="10.00">Patch.FirePatch</text>
</a>
</g>
</g>
<!-- Node1&#45;&gt;Node2 -->
<g id="edge1" class="edge"><title>Node1&#45;&gt;Node2</title>
<path fill="none" stroke="midnightblue" d="M133.336,-52.2321C111.451,-42.1312 81.5032,-28.3091 62.4523,-19.5164"/>
<polygon fill="midnightblue" stroke="midnightblue" points="131.915,-55.4308 142.461,-56.4435 134.848,-49.075 131.915,-55.4308"/>
</g>
<!-- Node3 -->
<g id="node3" class="node"><title>Node3</title>
<g id="a_node3"><a xlink:href="../../d3/d3d/class_patch_1_1_generic_patch.html" target="_top" xlink:title="Patch.GenericPatch">
<polygon fill="white" stroke="black" points="106.5,-0.5 106.5,-19.5 215.5,-19.5 215.5,-0.5 106.5,-0.5"/>
<text text-anchor="middle" x="161" y="-7.5" font-family="Helvetica,sans-Serif" font-size="10.00">Patch.GenericPatch</text>
</a>
</g>
</g>
<!-- Node1&#45;&gt;Node3 -->
<g id="edge2" class="edge"><title>Node1&#45;&gt;Node3</title>
<path fill="none" stroke="midnightblue" d="M161,-45.8045C161,-36.9102 161,-26.7798 161,-19.7511"/>
<polygon fill="midnightblue" stroke="midnightblue" points="157.5,-46.083 161,-56.083 164.5,-46.083 157.5,-46.083"/>
</g>
<!-- Node4 -->
<g id="node4" class="node"><title>Node4</title>
<g id="a_node4"><a xlink:href="../../d0/d3d/class_patch_1_1_sugar_patch.html" target="_top" xlink:title="Patch.SugarPatch">
<polygon fill="white" stroke="black" points="233.5,-0.5 233.5,-19.5 334.5,-19.5 334.5,-0.5 233.5,-0.5"/>
<text text-anchor="middle" x="284" y="-7.5" font-family="Helvetica,sans-Serif" font-size="10.00">Patch.SugarPatch</text>
</a>
</g>
</g>
<!-- Node1&#45;&gt;Node4 -->
<g id="edge3" class="edge"><title>Node1&#45;&gt;Node4</title>
<path fill="none" stroke="midnightblue" d="M189.773,-52.3678C212.807,-42.2553 244.484,-28.3486 264.601,-19.5164"/>
<polygon fill="midnightblue" stroke="midnightblue" points="188.239,-49.2188 180.49,-56.4435 191.053,-55.6283 188.239,-49.2188"/>
</g>
</g>
</svg>
