<?xml version="1.0" encoding="UTF-8" standalone="no"?>
<!DOCTYPE svg PUBLIC "-//W3C//DTD SVG 1.1//EN"
 "http://www.w3.org/Graphics/SVG/1.1/DTD/svg11.dtd">
<!-- Generated by graphviz version 2.36.0 (20140111.2315)
 -->
<!-- Title: Patch.FirePatch Pages: 1 -->
<svg width="195pt" height="232pt"
 viewBox="0.00 0.00 195.00 232.00" xmlns="http://www.w3.org/2000/svg" xmlns:xlink="http://www.w3.org/1999/xlink">
<g id="graph0" class="graph" transform="scale(1 1) rotate(0) translate(4 228)">
<title>Patch.FirePatch</title>
<polygon fill="white" stroke="none" points="-4,4 -4,-228 191,-228 191,4 -4,4"/>
<!-- Node1 -->
<g id="node1" class="node"><title>Node1</title>
<polygon fill="#bfbfbf" stroke="black" points="-0.5,-0.5 -0.5,-19.5 88.5,-19.5 88.5,-0.5 -0.5,-0.5"/>
<text text-anchor="middle" x="44" y="-7.5" font-family="Helvetica,sans-Serif" font-size="10.00">Patch.FirePatch</text>
</g>
<!-- Node2 -->
<g id="node2" class="node"><title>Node2</title>
<g id="a_node2"><a xlink:href="../../d0/d0a/class_patch_1_1_patch.html" target="_top" xlink:title="Patch.Patch">
<polygon fill="white" stroke="black" points="8,-58.5 8,-77.5 80,-77.5 80,-58.5 8,-58.5"/>
<text text-anchor="middle" x="44" y="-65.5" font-family="Helvetica,sans-Serif" font-size="10.00">Patch.Patch</text>
</a>
</g>
</g>
<!-- Node2&#45;&gt;Node1 -->
<g id="edge1" class="edge"><title>Node2&#45;&gt;Node1</title>
<path fill="none" stroke="midnightblue" d="M44,-47.953C44,-38.2875 44,-27.0312 44,-19.5052"/>
<polygon fill="midnightblue" stroke="midnightblue" points="40.5001,-48.25 44,-58.25 47.5001,-48.25 40.5001,-48.25"/>
</g>
<!-- Node3 -->
<g id="node3" class="node"><title>Node3</title>
<polygon fill="white" stroke="#bfbfbf" points="5,-204.5 5,-223.5 127,-223.5 127,-204.5 5,-204.5"/>
<text text-anchor="middle" x="66" y="-211.5" font-family="Helvetica,sans-Serif" font-size="10.00">Map&lt; String, String &gt;</text>
</g>
<!-- Node3&#45;&gt;Node2 -->
<g id="edge2" class="edge"><title>Node3&#45;&gt;Node2</title>
<path fill="none" stroke="#9a32cd" stroke-dasharray="5,2" d="M54.5076,-195.739C47.9612,-184.846 40.4037,-170.196 37,-156 30.252,-127.855 37.4699,-93.2788 41.5702,-77.5348"/>
<polygon fill="#9a32cd" stroke="#9a32cd" points="51.5742,-197.649 59.8705,-204.238 57.4942,-193.913 51.5742,-197.649"/>
<text text-anchor="middle" x="74" y="-143.5" font-family="Helvetica,sans-Serif" font-size="10.00"> myParameters</text>
</g>
<!-- Node4 -->
<g id="node4" class="node"><title>Node4</title>
<g id="a_node4"><a xlink:href="../../d5/d5c/class_cell_1_1_cell.html" target="_top" xlink:title="Cell.Cell">
<polygon fill="white" stroke="black" points="120,-136.5 120,-155.5 174,-155.5 174,-136.5 120,-136.5"/>
<text text-anchor="middle" x="147" y="-143.5" font-family="Helvetica,sans-Serif" font-size="10.00">Cell.Cell</text>
</a>
</g>
</g>
<!-- Node3&#45;&gt;Node4 -->
<g id="edge4" class="edge"><title>Node3&#45;&gt;Node4</title>
<path fill="none" stroke="#9a32cd" stroke-dasharray="5,2" d="M84.7352,-197.734C100.78,-184.661 123.309,-166.304 136.408,-155.63"/>
<polygon fill="#9a32cd" stroke="#9a32cd" points="82.1308,-195.342 76.5893,-204.372 86.5526,-200.768 82.1308,-195.342"/>
<text text-anchor="middle" x="150" y="-177.5" font-family="Helvetica,sans-Serif" font-size="10.00"> myParameters</text>
</g>
<!-- Node4&#45;&gt;Node2 -->
<g id="edge3" class="edge"><title>Node4&#45;&gt;Node2</title>
<path fill="none" stroke="#9a32cd" stroke-dasharray="5,2" d="M126.875,-130.15C105.664,-114.5 72.9811,-90.3841 55.6776,-77.6165"/>
<polygon fill="#9a32cd" stroke="#9a32cd" points="125.06,-133.161 135.185,-136.282 129.216,-127.528 125.06,-133.161"/>
<text text-anchor="middle" x="143" y="-110" font-family="Helvetica,sans-Serif" font-size="10.00"> myCurrentCell</text>
<text text-anchor="middle" x="143" y="-99" font-family="Helvetica,sans-Serif" font-size="10.00">myFutureCell</text>
</g>
</g>
</svg>
