<?xml version="1.0" encoding="UTF-8" standalone="no"?>
<!DOCTYPE svg PUBLIC "-//W3C//DTD SVG 1.1//EN"
 "http://www.w3.org/Graphics/SVG/1.1/DTD/svg11.dtd">
<!-- Generated by graphviz version 2.36.0 (20140111.2315)
 -->
<!-- Title: Cell.SugarCell.updateStateandMove Pages: 1 -->
<svg width="564pt" height="218pt"
 viewBox="0.00 0.00 564.00 218.00" xmlns="http://www.w3.org/2000/svg" xmlns:xlink="http://www.w3.org/1999/xlink">
<g id="graph0" class="graph" transform="scale(1 1) rotate(0) translate(4 214)">
<title>Cell.SugarCell.updateStateandMove</title>
<polygon fill="white" stroke="none" points="-4,4 -4,-214 560,-214 560,4 -4,4"/>
<!-- Node1 -->
<g id="node1" class="node"><title>Node1</title>
<polygon fill="#bfbfbf" stroke="black" points="0.5,-108.5 0.5,-127.5 189.5,-127.5 189.5,-108.5 0.5,-108.5"/>
<text text-anchor="middle" x="95" y="-115.5" font-family="Helvetica,sans-Serif" font-size="10.00">Cell.SugarCell.updateStateandMove</text>
</g>
<!-- Node2 -->
<g id="node2" class="node"><title>Node2</title>
<g id="a_node2"><a xlink:href="../../d4/d3e/class_cell_1_1_sugar_cell.html#a0a6356ace75fea882418321582a8295f" target="_top" xlink:title="Cell.SugarCell.findHighest\lSugar">
<polygon fill="white" stroke="black" points="226,-147 226,-177 366,-177 366,-147 226,-147"/>
<text text-anchor="start" x="234" y="-165" font-family="Helvetica,sans-Serif" font-size="10.00">Cell.SugarCell.findHighest</text>
<text text-anchor="middle" x="296" y="-154" font-family="Helvetica,sans-Serif" font-size="10.00">Sugar</text>
</a>
</g>
</g>
<!-- Node1&#45;&gt;Node2 -->
<g id="edge1" class="edge"><title>Node1&#45;&gt;Node2</title>
<path fill="none" stroke="midnightblue" d="M139.18,-127.547C161.885,-132.568 190.424,-138.878 216.854,-144.721"/>
<polygon fill="midnightblue" stroke="midnightblue" points="216.344,-148.193 226.863,-146.935 217.855,-141.358 216.344,-148.193"/>
</g>
<!-- Node6 -->
<g id="node6" class="node"><title>Node6</title>
<g id="a_node6"><a xlink:href="../../d5/d5c/class_cell_1_1_cell.html#aceb5e4da80edd40d3c330807846aa8e6" target="_top" xlink:title="Cell.Cell.getNeighbors">
<polygon fill="white" stroke="black" points="235,-108.5 235,-127.5 357,-127.5 357,-108.5 235,-108.5"/>
<text text-anchor="middle" x="296" y="-115.5" font-family="Helvetica,sans-Serif" font-size="10.00">Cell.Cell.getNeighbors</text>
</a>
</g>
</g>
<!-- Node1&#45;&gt;Node6 -->
<g id="edge5" class="edge"><title>Node1&#45;&gt;Node6</title>
<path fill="none" stroke="midnightblue" d="M189.673,-118C201.405,-118 213.245,-118 224.538,-118"/>
<polygon fill="midnightblue" stroke="midnightblue" points="224.737,-121.5 234.737,-118 224.736,-114.5 224.737,-121.5"/>
</g>
<!-- Node7 -->
<g id="node7" class="node"><title>Node7</title>
<g id="a_node7"><a xlink:href="../../d4/d3e/class_cell_1_1_sugar_cell.html#aadb2f103956e672b8e384bdd665bb0e4" target="_top" xlink:title="Cell.SugarCell.move">
<polygon fill="white" stroke="black" points="239.5,-70.5 239.5,-89.5 352.5,-89.5 352.5,-70.5 239.5,-70.5"/>
<text text-anchor="middle" x="296" y="-77.5" font-family="Helvetica,sans-Serif" font-size="10.00">Cell.SugarCell.move</text>
</a>
</g>
</g>
<!-- Node1&#45;&gt;Node7 -->
<g id="edge6" class="edge"><title>Node1&#45;&gt;Node7</title>
<path fill="none" stroke="midnightblue" d="M145.959,-108.46C173.045,-103.288 206.708,-96.8599 235.183,-91.4222"/>
<polygon fill="midnightblue" stroke="midnightblue" points="235.854,-94.8575 245.02,-89.5439 234.541,-87.9817 235.854,-94.8575"/>
</g>
<!-- Node3 -->
<g id="node3" class="node"><title>Node3</title>
<g id="a_node3"><a xlink:href="../../d0/d0a/class_patch_1_1_patch.html#a95c5f0d4bc2f3dd4e3f3fb12b93c6cd3" target="_top" xlink:title="Patch.Patch.getCurrentState">
<polygon fill="white" stroke="black" points="402.5,-114.5 402.5,-133.5 555.5,-133.5 555.5,-114.5 402.5,-114.5"/>
<text text-anchor="middle" x="479" y="-121.5" font-family="Helvetica,sans-Serif" font-size="10.00">Patch.Patch.getCurrentState</text>
</a>
</g>
</g>
<!-- Node2&#45;&gt;Node3 -->
<g id="edge2" class="edge"><title>Node2&#45;&gt;Node3</title>
<path fill="none" stroke="midnightblue" d="M366.203,-147.471C384.807,-143.565 404.684,-139.392 422.441,-135.664"/>
<polygon fill="midnightblue" stroke="midnightblue" points="423.557,-139.006 432.625,-133.526 422.119,-132.156 423.557,-139.006"/>
</g>
<!-- Node4 -->
<g id="node4" class="node"><title>Node4</title>
<g id="a_node4"><a xlink:href="../../d0/d0a/class_patch_1_1_patch.html#adda421d6371d6e4f0a48e8975423dfb5" target="_top" xlink:title="Patch.Patch.getCurrentX">
<polygon fill="white" stroke="black" points="412.5,-190.5 412.5,-209.5 545.5,-209.5 545.5,-190.5 412.5,-190.5"/>
<text text-anchor="middle" x="479" y="-197.5" font-family="Helvetica,sans-Serif" font-size="10.00">Patch.Patch.getCurrentX</text>
</a>
</g>
</g>
<!-- Node2&#45;&gt;Node4 -->
<g id="edge3" class="edge"><title>Node2&#45;&gt;Node4</title>
<path fill="none" stroke="midnightblue" d="M366.203,-176.529C384.807,-180.435 404.684,-184.608 422.441,-188.336"/>
<polygon fill="midnightblue" stroke="midnightblue" points="422.119,-191.844 432.625,-190.474 423.557,-184.994 422.119,-191.844"/>
</g>
<!-- Node5 -->
<g id="node5" class="node"><title>Node5</title>
<g id="a_node5"><a xlink:href="../../d0/d0a/class_patch_1_1_patch.html#a23fe4590d9c3466c4479ba3c1b072fdc" target="_top" xlink:title="Patch.Patch.getCurrentY">
<polygon fill="white" stroke="black" points="413,-152.5 413,-171.5 545,-171.5 545,-152.5 413,-152.5"/>
<text text-anchor="middle" x="479" y="-159.5" font-family="Helvetica,sans-Serif" font-size="10.00">Patch.Patch.getCurrentY</text>
</a>
</g>
</g>
<!-- Node2&#45;&gt;Node5 -->
<g id="edge4" class="edge"><title>Node2&#45;&gt;Node5</title>
<path fill="none" stroke="midnightblue" d="M366.203,-162C378.132,-162 390.585,-162 402.666,-162"/>
<polygon fill="midnightblue" stroke="midnightblue" points="402.707,-165.5 412.707,-162 402.707,-158.5 402.707,-165.5"/>
</g>
<!-- Node7&#45;&gt;Node3 -->
<g id="edge7" class="edge"><title>Node7&#45;&gt;Node3</title>
<path fill="none" stroke="midnightblue" d="M336.274,-89.5473C363.432,-96.1492 399.766,-104.982 428.846,-112.051"/>
<polygon fill="midnightblue" stroke="midnightblue" points="428.259,-115.51 438.802,-114.471 429.912,-108.708 428.259,-115.51"/>
</g>
<!-- Node8 -->
<g id="node8" class="node"><title>Node8</title>
<g id="a_node8"><a xlink:href="../../d0/d0a/class_patch_1_1_patch.html#a798cf940ecaa1d512b2df9c717e4d834" target="_top" xlink:title="Patch.Patch.setFutureCell">
<polygon fill="white" stroke="black" points="410.5,-76.5 410.5,-95.5 547.5,-95.5 547.5,-76.5 410.5,-76.5"/>
<text text-anchor="middle" x="479" y="-83.5" font-family="Helvetica,sans-Serif" font-size="10.00">Patch.Patch.setFutureCell</text>
</a>
</g>
</g>
<!-- Node7&#45;&gt;Node8 -->
<g id="edge8" class="edge"><title>Node7&#45;&gt;Node8</title>
<path fill="none" stroke="midnightblue" d="M352.783,-81.8492C367.694,-82.3435 384.087,-82.8869 399.959,-83.413"/>
<polygon fill="midnightblue" stroke="midnightblue" points="400.183,-86.9223 410.294,-83.7556 400.415,-79.9261 400.183,-86.9223"/>
</g>
<!-- Node9 -->
<g id="node9" class="node"><title>Node9</title>
<g id="a_node9"><a xlink:href="../../d0/d0a/class_patch_1_1_patch.html#a270daf81b1e6e4418e0a41cad17a97eb" target="_top" xlink:title="Patch.Patch.setFutureState">
<polygon fill="white" stroke="black" points="406,-38.5 406,-57.5 552,-57.5 552,-38.5 406,-38.5"/>
<text text-anchor="middle" x="479" y="-45.5" font-family="Helvetica,sans-Serif" font-size="10.00">Patch.Patch.setFutureState</text>
</a>
</g>
</g>
<!-- Node7&#45;&gt;Node9 -->
<g id="edge9" class="edge"><title>Node7&#45;&gt;Node9</title>
<path fill="none" stroke="midnightblue" d="M350.816,-70.4856C370.697,-66.9708 393.42,-62.9533 414.108,-59.2958"/>
<polygon fill="midnightblue" stroke="midnightblue" points="414.841,-62.7206 424.079,-57.533 413.622,-55.8275 414.841,-62.7206"/>
</g>
<!-- Node10 -->
<g id="node10" class="node"><title>Node10</title>
<g id="a_node10"><a xlink:href="../../d4/d3e/class_cell_1_1_sugar_cell.html#a52e6d13033e175d26034277fc7ee2722" target="_top" xlink:title="Cell.SugarCell.SugarCell">
<polygon fill="white" stroke="black" points="413.5,-0.5 413.5,-19.5 544.5,-19.5 544.5,-0.5 413.5,-0.5"/>
<text text-anchor="middle" x="479" y="-7.5" font-family="Helvetica,sans-Serif" font-size="10.00">Cell.SugarCell.SugarCell</text>
</a>
</g>
</g>
<!-- Node7&#45;&gt;Node10 -->
<g id="edge10" class="edge"><title>Node7&#45;&gt;Node10</title>
<path fill="none" stroke="midnightblue" d="M313.985,-70.386C334.362,-59.177 369.811,-40.6978 402,-29 408.855,-26.509 416.172,-24.2279 423.458,-22.178"/>
<polygon fill="midnightblue" stroke="midnightblue" points="424.577,-25.5016 433.328,-19.5281 422.762,-18.741 424.577,-25.5016"/>
</g>
</g>
</svg>
