<?xml version="1.0" encoding="UTF-8" standalone="no"?>
<!DOCTYPE svg PUBLIC "-//W3C//DTD SVG 1.1//EN"
 "http://www.w3.org/Graphics/SVG/1.1/DTD/svg11.dtd">
<!-- Generated by graphviz version 2.36.0 (20140111.2315)
 -->
<!-- Title: Cell.SugarCell.findHighestSugar Pages: 1 -->
<svg width="338pt" height="104pt"
 viewBox="0.00 0.00 338.00 104.00" xmlns="http://www.w3.org/2000/svg" xmlns:xlink="http://www.w3.org/1999/xlink">
<g id="graph0" class="graph" transform="scale(1 1) rotate(0) translate(4 100)">
<title>Cell.SugarCell.findHighestSugar</title>
<polygon fill="white" stroke="none" points="-4,4 -4,-100 334,-100 334,4 -4,4"/>
<!-- Node1 -->
<g id="node1" class="node"><title>Node1</title>
<polygon fill="#bfbfbf" stroke="black" points="0,-33 0,-63 140,-63 140,-33 0,-33"/>
<text text-anchor="start" x="8" y="-51" font-family="Helvetica,sans-Serif" font-size="10.00">Cell.SugarCell.findHighest</text>
<text text-anchor="middle" x="70" y="-40" font-family="Helvetica,sans-Serif" font-size="10.00">Sugar</text>
</g>
<!-- Node2 -->
<g id="node2" class="node"><title>Node2</title>
<g id="a_node2"><a xlink:href="../../d0/d0a/class_patch_1_1_patch.html#a95c5f0d4bc2f3dd4e3f3fb12b93c6cd3" target="_top" xlink:title="Patch.Patch.getCurrentState">
<polygon fill="white" stroke="black" points="176.5,-76.5 176.5,-95.5 329.5,-95.5 329.5,-76.5 176.5,-76.5"/>
<text text-anchor="middle" x="253" y="-83.5" font-family="Helvetica,sans-Serif" font-size="10.00">Patch.Patch.getCurrentState</text>
</a>
</g>
</g>
<!-- Node1&#45;&gt;Node2 -->
<g id="edge1" class="edge"><title>Node1&#45;&gt;Node2</title>
<path fill="none" stroke="midnightblue" d="M140.203,-62.5288C158.807,-66.4346 178.684,-70.6077 196.441,-74.3356"/>
<polygon fill="midnightblue" stroke="midnightblue" points="196.119,-77.8443 206.625,-76.4737 197.557,-70.9937 196.119,-77.8443"/>
</g>
<!-- Node3 -->
<g id="node3" class="node"><title>Node3</title>
<g id="a_node3"><a xlink:href="../../d0/d0a/class_patch_1_1_patch.html#adda421d6371d6e4f0a48e8975423dfb5" target="_top" xlink:title="Patch.Patch.getCurrentX">
<polygon fill="white" stroke="black" points="186.5,-38.5 186.5,-57.5 319.5,-57.5 319.5,-38.5 186.5,-38.5"/>
<text text-anchor="middle" x="253" y="-45.5" font-family="Helvetica,sans-Serif" font-size="10.00">Patch.Patch.getCurrentX</text>
</a>
</g>
</g>
<!-- Node1&#45;&gt;Node3 -->
<g id="edge2" class="edge"><title>Node1&#45;&gt;Node3</title>
<path fill="none" stroke="midnightblue" d="M140.203,-48C151.936,-48 164.175,-48 176.069,-48"/>
<polygon fill="midnightblue" stroke="midnightblue" points="176.411,-51.5001 186.411,-48 176.411,-44.5001 176.411,-51.5001"/>
</g>
<!-- Node4 -->
<g id="node4" class="node"><title>Node4</title>
<g id="a_node4"><a xlink:href="../../d0/d0a/class_patch_1_1_patch.html#a23fe4590d9c3466c4479ba3c1b072fdc" target="_top" xlink:title="Patch.Patch.getCurrentY">
<polygon fill="white" stroke="black" points="187,-0.5 187,-19.5 319,-19.5 319,-0.5 187,-0.5"/>
<text text-anchor="middle" x="253" y="-7.5" font-family="Helvetica,sans-Serif" font-size="10.00">Patch.Patch.getCurrentY</text>
</a>
</g>
</g>
<!-- Node1&#45;&gt;Node4 -->
<g id="edge3" class="edge"><title>Node1&#45;&gt;Node4</title>
<path fill="none" stroke="midnightblue" d="M140.203,-33.4712C158.807,-29.5654 178.684,-25.3923 196.441,-21.6644"/>
<polygon fill="midnightblue" stroke="midnightblue" points="197.557,-25.0063 206.625,-19.5263 196.119,-18.1557 197.557,-25.0063"/>
</g>
</g>
</svg>
