<?xml version="1.0" encoding="UTF-8" standalone="no"?>
<!DOCTYPE svg PUBLIC "-//W3C//DTD SVG 1.1//EN"
 "http://www.w3.org/Graphics/SVG/1.1/DTD/svg11.dtd">
<!-- Generated by graphviz version 2.36.0 (20140111.2315)
 -->
<!-- Title: Cell.SugarCell.move Pages: 1 -->
<svg width="312pt" height="142pt"
 viewBox="0.00 0.00 312.00 142.00" xmlns="http://www.w3.org/2000/svg" xmlns:xlink="http://www.w3.org/1999/xlink">
<g id="graph0" class="graph" transform="scale(1 1) rotate(0) translate(4 138)">
<title>Cell.SugarCell.move</title>
<polygon fill="white" stroke="none" points="-4,4 -4,-138 308,-138 308,4 -4,4"/>
<!-- Node1 -->
<g id="node1" class="node"><title>Node1</title>
<polygon fill="#bfbfbf" stroke="black" points="0.5,-57.5 0.5,-76.5 113.5,-76.5 113.5,-57.5 0.5,-57.5"/>
<text text-anchor="middle" x="57" y="-64.5" font-family="Helvetica,sans-Serif" font-size="10.00">Cell.SugarCell.move</text>
</g>
<!-- Node2 -->
<g id="node2" class="node"><title>Node2</title>
<g id="a_node2"><a xlink:href="../../d0/d0a/class_patch_1_1_patch.html#a95c5f0d4bc2f3dd4e3f3fb12b93c6cd3" target="_top" xlink:title="Patch.Patch.getCurrentState">
<polygon fill="white" stroke="black" points="150.5,-114.5 150.5,-133.5 303.5,-133.5 303.5,-114.5 150.5,-114.5"/>
<text text-anchor="middle" x="227" y="-121.5" font-family="Helvetica,sans-Serif" font-size="10.00">Patch.Patch.getCurrentState</text>
</a>
</g>
</g>
<!-- Node1&#45;&gt;Node2 -->
<g id="edge1" class="edge"><title>Node1&#45;&gt;Node2</title>
<path fill="none" stroke="midnightblue" d="M78.8622,-76.6483C97.2966,-84.9237 125.053,-96.7786 150,-105 157.448,-107.454 165.395,-109.767 173.241,-111.877"/>
<polygon fill="midnightblue" stroke="midnightblue" points="172.518,-115.306 183.077,-114.437 174.281,-108.531 172.518,-115.306"/>
</g>
<!-- Node3 -->
<g id="node3" class="node"><title>Node3</title>
<g id="a_node3"><a xlink:href="../../d0/d0a/class_patch_1_1_patch.html#a798cf940ecaa1d512b2df9c717e4d834" target="_top" xlink:title="Patch.Patch.setFutureCell">
<polygon fill="white" stroke="black" points="158.5,-76.5 158.5,-95.5 295.5,-95.5 295.5,-76.5 158.5,-76.5"/>
<text text-anchor="middle" x="227" y="-83.5" font-family="Helvetica,sans-Serif" font-size="10.00">Patch.Patch.setFutureCell</text>
</a>
</g>
</g>
<!-- Node1&#45;&gt;Node3 -->
<g id="edge2" class="edge"><title>Node1&#45;&gt;Node3</title>
<path fill="none" stroke="midnightblue" d="M113.942,-73.3267C124.942,-74.5708 136.667,-75.8969 148.234,-77.205"/>
<polygon fill="midnightblue" stroke="midnightblue" points="148.006,-80.7014 158.336,-78.3475 148.792,-73.7458 148.006,-80.7014"/>
</g>
<!-- Node4 -->
<g id="node4" class="node"><title>Node4</title>
<g id="a_node4"><a xlink:href="../../d0/d0a/class_patch_1_1_patch.html#a270daf81b1e6e4418e0a41cad17a97eb" target="_top" xlink:title="Patch.Patch.setFutureState">
<polygon fill="white" stroke="black" points="154,-38.5 154,-57.5 300,-57.5 300,-38.5 154,-38.5"/>
<text text-anchor="middle" x="227" y="-45.5" font-family="Helvetica,sans-Serif" font-size="10.00">Patch.Patch.setFutureState</text>
</a>
</g>
</g>
<!-- Node1&#45;&gt;Node4 -->
<g id="edge3" class="edge"><title>Node1&#45;&gt;Node4</title>
<path fill="none" stroke="midnightblue" d="M113.942,-60.6733C123.534,-59.5884 133.679,-58.4411 143.789,-57.2977"/>
<polygon fill="midnightblue" stroke="midnightblue" points="144.322,-60.7598 153.866,-56.1581 143.536,-53.8041 144.322,-60.7598"/>
</g>
<!-- Node5 -->
<g id="node5" class="node"><title>Node5</title>
<g id="a_node5"><a xlink:href="../../d4/d3e/class_cell_1_1_sugar_cell.html#a52e6d13033e175d26034277fc7ee2722" target="_top" xlink:title="Cell.SugarCell.SugarCell">
<polygon fill="white" stroke="black" points="161.5,-0.5 161.5,-19.5 292.5,-19.5 292.5,-0.5 161.5,-0.5"/>
<text text-anchor="middle" x="227" y="-7.5" font-family="Helvetica,sans-Serif" font-size="10.00">Cell.SugarCell.SugarCell</text>
</a>
</g>
</g>
<!-- Node1&#45;&gt;Node5 -->
<g id="edge4" class="edge"><title>Node1&#45;&gt;Node5</title>
<path fill="none" stroke="midnightblue" d="M78.8622,-57.3517C97.2966,-49.0763 125.053,-37.2214 150,-29 157.448,-26.5457 165.395,-24.2331 173.241,-22.123"/>
<polygon fill="midnightblue" stroke="midnightblue" points="174.281,-25.4688 183.077,-19.5629 172.518,-18.6945 174.281,-25.4688"/>
</g>
</g>
</svg>
