<?xml version="1.0" encoding="UTF-8" standalone="no"?>
<!DOCTYPE svg PUBLIC "-//W3C//DTD SVG 1.1//EN"
 "http://www.w3.org/Graphics/SVG/1.1/DTD/svg11.dtd">
<!-- Generated by graphviz version 2.36.0 (20140111.2315)
 -->
<!-- Title: cellsociety_team02.XMLParser.getGridType Pages: 1 -->
<svg width="1260pt" height="61pt"
 viewBox="0.00 0.00 1260.00 61.00" xmlns="http://www.w3.org/2000/svg" xmlns:xlink="http://www.w3.org/1999/xlink">
<g id="graph0" class="graph" transform="scale(1 1) rotate(0) translate(4 57)">
<title>cellsociety_team02.XMLParser.getGridType</title>
<polygon fill="white" stroke="none" points="-4,4 -4,-57 1256,-57 1256,4 -4,4"/>
<!-- Node1 -->
<g id="node1" class="node"><title>Node1</title>
<polygon fill="#bfbfbf" stroke="black" points="0.5,-22 0.5,-52 179.5,-52 179.5,-22 0.5,-22"/>
<text text-anchor="start" x="8.5" y="-40" font-family="Helvetica,sans-Serif" font-size="10.00">cellsociety_team02.XMLParser.get</text>
<text text-anchor="middle" x="90" y="-29" font-family="Helvetica,sans-Serif" font-size="10.00">GridType</text>
</g>
<!-- Node2 -->
<g id="node2" class="node"><title>Node2</title>
<g id="a_node2"><a xlink:href="../../df/d71/classcellsociety__team02_1_1_grid_model.html#a3884a4fa7f5f19b71ea5a1c2a54fe817" target="_top" xlink:title="cellsociety_team02.GridModel.load">
<polygon fill="white" stroke="black" points="216.5,-27.5 216.5,-46.5 399.5,-46.5 399.5,-27.5 216.5,-27.5"/>
<text text-anchor="middle" x="308" y="-34.5" font-family="Helvetica,sans-Serif" font-size="10.00">cellsociety_team02.GridModel.load</text>
</a>
</g>
</g>
<!-- Node1&#45;&gt;Node2 -->
<g id="edge1" class="edge"><title>Node1&#45;&gt;Node2</title>
<path fill="none" stroke="midnightblue" d="M190.066,-37C198.862,-37 207.738,-37 216.458,-37"/>
<polygon fill="midnightblue" stroke="midnightblue" points="189.791,-33.5001 179.791,-37 189.791,-40.5001 189.791,-33.5001"/>
</g>
<!-- Node3 -->
<g id="node3" class="node"><title>Node3</title>
<g id="a_node3"><a xlink:href="../../d9/daf/classcellsociety__team02_1_1_grid_view.html#aa0cb15c1acd15c18573648b8df447752" target="_top" xlink:title="cellsociety_team02.GridView.load">
<polygon fill="white" stroke="black" points="436,-27.5 436,-46.5 612,-46.5 612,-27.5 436,-27.5"/>
<text text-anchor="middle" x="524" y="-34.5" font-family="Helvetica,sans-Serif" font-size="10.00">cellsociety_team02.GridView.load</text>
</a>
</g>
</g>
<!-- Node2&#45;&gt;Node3 -->
<g id="edge2" class="edge"><title>Node2&#45;&gt;Node3</title>
<path fill="none" stroke="midnightblue" d="M409.9,-37C418.574,-37 427.302,-37 435.854,-37"/>
<polygon fill="midnightblue" stroke="midnightblue" points="409.755,-33.5001 399.755,-37 409.755,-40.5001 409.755,-33.5001"/>
</g>
<!-- Node4 -->
<g id="node4" class="node"><title>Node4</title>
<g id="a_node4"><a xlink:href="../../d9/daf/classcellsociety__team02_1_1_grid_view.html#ada183e314764db770009f944205490df" target="_top" xlink:title="cellsociety_team02.GridView.\lGridView">
<polygon fill="white" stroke="black" points="1096.5,-23 1096.5,-53 1251.5,-53 1251.5,-23 1096.5,-23"/>
<text text-anchor="start" x="1104.5" y="-41" font-family="Helvetica,sans-Serif" font-size="10.00">cellsociety_team02.GridView.</text>
<text text-anchor="middle" x="1174" y="-30" font-family="Helvetica,sans-Serif" font-size="10.00">GridView</text>
</a>
</g>
</g>
<!-- Node3&#45;&gt;Node4 -->
<g id="edge3" class="edge"><title>Node3&#45;&gt;Node4</title>
<path fill="none" stroke="midnightblue" d="M622.238,-38.7275C630.949,-38.838 639.634,-38.932 648,-39 807.5,-40.2967 994.266,-39.3532 1096.49,-38.6264"/>
<polygon fill="midnightblue" stroke="midnightblue" points="622.063,-35.2249 612.017,-38.5908 621.969,-42.2243 622.063,-35.2249"/>
</g>
<!-- Node5 -->
<g id="node5" class="node"><title>Node5</title>
<g id="a_node5"><a xlink:href="../../d9/daf/classcellsociety__team02_1_1_grid_view.html#afcc7b83f62c116e77ab0843bfd4156b8" target="_top" xlink:title="cellsociety_team02.GridView.make\lButtons">
<polygon fill="white" stroke="black" points="648,-0 648,-30 830,-30 830,-0 648,-0"/>
<text text-anchor="start" x="656" y="-18" font-family="Helvetica,sans-Serif" font-size="10.00">cellsociety_team02.GridView.make</text>
<text text-anchor="middle" x="739" y="-7" font-family="Helvetica,sans-Serif" font-size="10.00">Buttons</text>
</a>
</g>
</g>
<!-- Node3&#45;&gt;Node5 -->
<g id="edge4" class="edge"><title>Node3&#45;&gt;Node5</title>
<path fill="none" stroke="midnightblue" d="M622.201,-26.9605C630.72,-26.0806 639.319,-25.1924 647.777,-24.3188"/>
<polygon fill="midnightblue" stroke="midnightblue" points="621.837,-23.4793 612.25,-27.9883 622.557,-30.4423 621.837,-23.4793"/>
</g>
<!-- Node6 -->
<g id="node6" class="node"><title>Node6</title>
<g id="a_node6"><a xlink:href="../../d9/daf/classcellsociety__team02_1_1_grid_view.html#a4571898657e750f62c2df84cb398e135" target="_top" xlink:title="cellsociety_team02.GridView.initialize">
<polygon fill="white" stroke="black" points="866,-8.5 866,-27.5 1060,-27.5 1060,-8.5 866,-8.5"/>
<text text-anchor="middle" x="963" y="-15.5" font-family="Helvetica,sans-Serif" font-size="10.00">cellsociety_team02.GridView.initialize</text>
</a>
</g>
</g>
<!-- Node5&#45;&gt;Node6 -->
<g id="edge5" class="edge"><title>Node5&#45;&gt;Node6</title>
<path fill="none" stroke="midnightblue" d="M840.565,-16.359C849.028,-16.4733 857.572,-16.5888 865.999,-16.7027"/>
<polygon fill="midnightblue" stroke="midnightblue" points="840.342,-12.8558 830.296,-16.2202 840.248,-19.8551 840.342,-12.8558"/>
</g>
<!-- Node6&#45;&gt;Node4 -->
<g id="edge6" class="edge"><title>Node6&#45;&gt;Node4</title>
<path fill="none" stroke="midnightblue" d="M1070.48,-28.1892C1079.2,-29.024 1087.91,-29.8571 1096.35,-30.6651"/>
<polygon fill="midnightblue" stroke="midnightblue" points="1070.53,-24.6783 1060.24,-27.2097 1069.86,-31.6465 1070.53,-24.6783"/>
</g>
</g>
</svg>
