<?xml version="1.0" encoding="UTF-8" standalone="no"?>
<!DOCTYPE svg PUBLIC "-//W3C//DTD SVG 1.1//EN"
 "http://www.w3.org/Graphics/SVG/1.1/DTD/svg11.dtd">
<!-- Generated by graphviz version 2.36.0 (20140111.2315)
 -->
<!-- Title: cellsociety_team02.XMLParser.initialize Pages: 1 -->
<svg width="902pt" height="61pt"
 viewBox="0.00 0.00 902.00 61.00" xmlns="http://www.w3.org/2000/svg" xmlns:xlink="http://www.w3.org/1999/xlink">
<g id="graph0" class="graph" transform="scale(1 1) rotate(0) translate(4 57)">
<title>cellsociety_team02.XMLParser.initialize</title>
<polygon fill="white" stroke="none" points="-4,4 -4,-57 898,-57 898,4 -4,4"/>
<!-- Node1 -->
<g id="node1" class="node"><title>Node1</title>
<polygon fill="#bfbfbf" stroke="black" points="0,-27.5 0,-46.5 202,-46.5 202,-27.5 0,-27.5"/>
<text text-anchor="middle" x="101" y="-34.5" font-family="Helvetica,sans-Serif" font-size="10.00">cellsociety_team02.XMLParser.initialize</text>
</g>
<!-- Node2 -->
<g id="node2" class="node"><title>Node2</title>
<g id="a_node2"><a xlink:href="../../d9/db5/classcellsociety__team02_1_1_x_m_l_parser.html#af9e2438fd8fa09e5d6b2d252afa13b1a" target="_top" xlink:title="cellsociety_team02.XMLParser.get\lAttribute">
<polygon fill="white" stroke="black" points="714.5,-23 714.5,-53 893.5,-53 893.5,-23 714.5,-23"/>
<text text-anchor="start" x="722.5" y="-41" font-family="Helvetica,sans-Serif" font-size="10.00">cellsociety_team02.XMLParser.get</text>
<text text-anchor="middle" x="804" y="-30" font-family="Helvetica,sans-Serif" font-size="10.00">Attribute</text>
</a>
</g>
</g>
<!-- Node1&#45;&gt;Node2 -->
<g id="edge1" class="edge"><title>Node1&#45;&gt;Node2</title>
<path fill="none" stroke="midnightblue" d="M202.265,-38.6414C214.306,-38.7892 226.43,-38.9149 238,-39 401.366,-40.2012 591.308,-39.4161 704.1,-38.7209"/>
<polygon fill="midnightblue" stroke="midnightblue" points="704.457,-42.2188 714.435,-38.6561 704.413,-35.219 704.457,-42.2188"/>
</g>
<!-- Node3 -->
<g id="node3" class="node"><title>Node3</title>
<g id="a_node3"><a xlink:href="../../d9/db5/classcellsociety__team02_1_1_x_m_l_parser.html#a80db6bc9b1504447995fc08ed6a27527" target="_top" xlink:title="cellsociety_team02.XMLParser.make\lParameterMap">
<polygon fill="white" stroke="black" points="238.5,-0 238.5,-30 429.5,-30 429.5,-0 238.5,-0"/>
<text text-anchor="start" x="246.5" y="-18" font-family="Helvetica,sans-Serif" font-size="10.00">cellsociety_team02.XMLParser.make</text>
<text text-anchor="middle" x="334" y="-7" font-family="Helvetica,sans-Serif" font-size="10.00">ParameterMap</text>
</a>
</g>
</g>
<!-- Node1&#45;&gt;Node3 -->
<g id="edge2" class="edge"><title>Node1&#45;&gt;Node3</title>
<path fill="none" stroke="midnightblue" d="M201.976,-27.4784C210.653,-26.6521 219.448,-25.8144 228.162,-24.9846"/>
<polygon fill="midnightblue" stroke="midnightblue" points="228.719,-28.4475 238.342,-24.0151 228.055,-21.479 228.719,-28.4475"/>
</g>
<!-- Node4 -->
<g id="node4" class="node"><title>Node4</title>
<g id="a_node4"><a xlink:href="../../d9/db5/classcellsociety__team02_1_1_x_m_l_parser.html#a97985012667a5a937c89cf19fa6f20d1" target="_top" xlink:title="cellsociety_team02.XMLParser.makeMap">
<polygon fill="white" stroke="black" points="466.5,-8.5 466.5,-27.5 677.5,-27.5 677.5,-8.5 466.5,-8.5"/>
<text text-anchor="middle" x="572" y="-15.5" font-family="Helvetica,sans-Serif" font-size="10.00">cellsociety_team02.XMLParser.makeMap</text>
</a>
</g>
</g>
<!-- Node3&#45;&gt;Node4 -->
<g id="edge3" class="edge"><title>Node3&#45;&gt;Node4</title>
<path fill="none" stroke="midnightblue" d="M429.63,-16.2029C438.389,-16.3143 447.326,-16.4279 456.238,-16.5412"/>
<polygon fill="midnightblue" stroke="midnightblue" points="456.235,-20.0413 466.279,-16.6688 456.324,-13.0419 456.235,-20.0413"/>
</g>
<!-- Node4&#45;&gt;Node2 -->
<g id="edge4" class="edge"><title>Node4&#45;&gt;Node2</title>
<path fill="none" stroke="midnightblue" d="M677.568,-27.0929C686.354,-27.8568 695.221,-28.6279 703.962,-29.388"/>
<polygon fill="midnightblue" stroke="midnightblue" points="703.888,-32.8947 714.154,-30.2742 704.495,-25.921 703.888,-32.8947"/>
</g>
</g>
</svg>
