<?xml version="1.0" encoding="UTF-8" standalone="no"?>
<!DOCTYPE svg PUBLIC "-//W3C//DTD SVG 1.1//EN"
 "http://www.w3.org/Graphics/SVG/1.1/DTD/svg11.dtd">
<!-- Generated by graphviz version 2.36.0 (20140111.2315)
 -->
<!-- Title: cellsociety_team02.XMLParser.doRandom Pages: 1 -->
<!--zoomable 87 -->
<svg id="main" version="1.1" xmlns="http://www.w3.org/2000/svg" xmlns:xlink="http://www.w3.org/1999/xlink" xml:space="preserve" onload="init(evt)">
<style type="text/css"><![CDATA[
.edge:hover path { stroke: red; }
.edge:hover polygon { stroke: red; fill: red; }
]]></style>
<script type="text/javascript"><![CDATA[
var edges = document.getElementsByTagName('g');
if (edges && edges.length) {
  for (var i=0;i<edges.length;i++) {
    if (edges[i].id.substr(0,4)=='edge') {
      edges[i].setAttribute('class','edge');
    }
  }
}
]]></script>
        <defs>
                <circle id="rim" cx="0" cy="0" r="7"/>
                <circle id="rim2" cx="0" cy="0" r="3.5"/>
                <g id="zoomPlus">
                        <use xlink:href="#rim" fill="#404040">
                                <set attributeName="fill" to="#808080" begin="zoomplus.mouseover" end="zoomplus.mouseout"/>
                        </use>
                        <path d="M-4,0h8M0,-4v8" fill="none" stroke="white" stroke-width="1.5" pointer-events="none"/>
                </g>
                <g id="zoomMin">
                        <use xlink:href="#rim" fill="#404040">
                                <set attributeName="fill" to="#808080" begin="zoomminus.mouseover" end="zoomminus.mouseout"/>
                        </use>
                        <path d="M-4,0h8" fill="none" stroke="white" stroke-width="1.5" pointer-events="none"/>
                </g>
                <g id="dirArrow">
                        <path fill="none" stroke="white" stroke-width="1.5" d="M0,-3.0v7 M-2.5,-0.5L0,-3.0L2.5,-0.5"/>
                </g>
               <g id="resetDef">
                       <use xlink:href="#rim2" fill="#404040">
                               <set attributeName="fill" to="#808080" begin="reset.mouseover" end="reset.mouseout"/>
                       </use>
               </g>
        </defs>

<script type="text/javascript">
var viewWidth = 1000;
var viewHeight = 87;
var sectionId = 'dynsection-7';
</script>
<script xlink:href="../../svgpan.js"/>
<svg id="graph" class="graph">
<g id="viewport">
<title>cellsociety_team02.XMLParser.doRandom</title>
<polygon fill="white" stroke="none" points="-4,4 -4,-83 996,-83 996,4 -4,4"/>
<!-- Node1 -->
<g id="node1" class="node"><title>Node1</title>
<polygon fill="#bfbfbf" stroke="black" points="0,-24 0,-54 176,-54 176,-24 0,-24"/>
<text text-anchor="start" x="8" y="-42" font-family="Helvetica,sans-Serif" font-size="10.00">cellsociety_team02.XMLParser.do</text>
<text text-anchor="middle" x="88" y="-31" font-family="Helvetica,sans-Serif" font-size="10.00">Random</text>
</g>
<!-- Node2 -->
<g id="node2" class="node"><title>Node2</title>
<g id="a_node2"><a xlink:href="../../d8/d83/classcellsociety__team02_1_1_factory.html#a9a3a57b7db2c081b18c27c829e875bf4" target="_top" xlink:title="cellsociety_team02.Factory.make\lRandomCell">
<polygon fill="white" stroke="black" points="212.5,-49 212.5,-79 387.5,-79 387.5,-49 212.5,-49"/>
<text text-anchor="start" x="220.5" y="-67" font-family="Helvetica,sans-Serif" font-size="10.00">cellsociety_team02.Factory.make</text>
<text text-anchor="middle" x="300" y="-56" font-family="Helvetica,sans-Serif" font-size="10.00">RandomCell</text>
</a>
</g>
</g>
<!-- Node1&#45;&gt;Node2 -->
<g id="edge1" class="edge"><title>Node1&#45;&gt;Node2</title>
<path fill="none" stroke="midnightblue" d="M176.235,-49.3851C184.82,-50.4072 193.569,-51.4487 202.242,-52.4812"/>
<polygon fill="midnightblue" stroke="midnightblue" points="202.031,-55.9807 212.375,-53.6875 202.859,-49.0298 202.031,-55.9807"/>
</g>
<!-- Node6 -->
<g id="node6" class="node"><title>Node6</title>
<g id="a_node6"><a xlink:href="../../d8/d83/classcellsociety__team02_1_1_factory.html#a9584d58dc748c1f625ea2cfc66c5387d" target="_top" xlink:title="cellsociety_team02.Factory.make\lRandomPatch">
<polygon fill="white" stroke="black" points="212.5,-0 212.5,-30 387.5,-30 387.5,-0 212.5,-0"/>
<text text-anchor="start" x="220.5" y="-18" font-family="Helvetica,sans-Serif" font-size="10.00">cellsociety_team02.Factory.make</text>
<text text-anchor="middle" x="300" y="-7" font-family="Helvetica,sans-Serif" font-size="10.00">RandomPatch</text>
</a>
</g>
</g>
<!-- Node1&#45;&gt;Node6 -->
<g id="edge5" class="edge"><title>Node1&#45;&gt;Node6</title>
<path fill="none" stroke="midnightblue" d="M176.235,-29.0303C184.82,-28.0491 193.569,-27.0493 202.242,-26.058"/>
<polygon fill="midnightblue" stroke="midnightblue" points="202.837,-29.5129 212.375,-24.9 202.042,-22.5582 202.837,-29.5129"/>
</g>
<!-- Node3 -->
<g id="node3" class="node"><title>Node3</title>
<g id="a_node3"><a xlink:href="../../d8/d83/classcellsociety__team02_1_1_factory.html#a73f7de8ac528a17623c911f59dc28325" target="_top" xlink:title="cellsociety_team02.Factory.makeCell">
<polygon fill="white" stroke="black" points="424,-54.5 424,-73.5 616,-73.5 616,-54.5 424,-54.5"/>
<text text-anchor="middle" x="520" y="-61.5" font-family="Helvetica,sans-Serif" font-size="10.00">cellsociety_team02.Factory.makeCell</text>
</a>
</g>
</g>
<!-- Node2&#45;&gt;Node3 -->
<g id="edge2" class="edge"><title>Node2&#45;&gt;Node3</title>
<path fill="none" stroke="midnightblue" d="M387.786,-64C396.32,-64 405.044,-64 413.736,-64"/>
<polygon fill="midnightblue" stroke="midnightblue" points="413.912,-67.5001 423.912,-64 413.912,-60.5001 413.912,-67.5001"/>
</g>
<!-- Node4 -->
<g id="node4" class="node"><title>Node4</title>
<g id="a_node4"><a xlink:href="../../d4/df2/class_cell_1_1_pred_prey_cell.html#ab682decb39c5e4f952c7c85929411f6f" target="_top" xlink:title="Cell.PredPreyCell.makeCell">
<polygon fill="white" stroke="black" points="652,-54.5 652,-73.5 796,-73.5 796,-54.5 652,-54.5"/>
<text text-anchor="middle" x="724" y="-61.5" font-family="Helvetica,sans-Serif" font-size="10.00">Cell.PredPreyCell.makeCell</text>
</a>
</g>
</g>
<!-- Node3&#45;&gt;Node4 -->
<g id="edge3" class="edge"><title>Node3&#45;&gt;Node4</title>
<path fill="none" stroke="midnightblue" d="M616.085,-64C624.67,-64 633.311,-64 641.761,-64"/>
<polygon fill="midnightblue" stroke="midnightblue" points="641.956,-67.5001 651.955,-64 641.955,-60.5001 641.956,-67.5001"/>
</g>
<!-- Node5 -->
<g id="node5" class="node"><title>Node5</title>
<g id="a_node5"><a xlink:href="../../d4/df2/class_cell_1_1_pred_prey_cell.html#a218b10c89861e5cbc826511d9b35b1ae" target="_top" xlink:title="Cell.PredPreyCell.PredPreyCell">
<polygon fill="white" stroke="black" points="832,-54.5 832,-73.5 992,-73.5 992,-54.5 832,-54.5"/>
<text text-anchor="middle" x="912" y="-61.5" font-family="Helvetica,sans-Serif" font-size="10.00">Cell.PredPreyCell.PredPreyCell</text>
</a>
</g>
</g>
<!-- Node4&#45;&gt;Node5 -->
<g id="edge4" class="edge"><title>Node4&#45;&gt;Node5</title>
<path fill="none" stroke="midnightblue" d="M796.115,-64C804.518,-64 813.174,-64 821.786,-64"/>
<polygon fill="midnightblue" stroke="midnightblue" points="821.859,-67.5001 831.859,-64 821.859,-60.5001 821.859,-67.5001"/>
</g>
<!-- Node7 -->
<g id="node7" class="node"><title>Node7</title>
<g id="a_node7"><a xlink:href="../../d8/d83/classcellsociety__team02_1_1_factory.html#aa3a1a4e218cc6529b3b2e56cd5f8cfff" target="_top" xlink:title="cellsociety_team02.Factory.make\lPatch">
<polygon fill="white" stroke="black" points="432.5,-0 432.5,-30 607.5,-30 607.5,-0 432.5,-0"/>
<text text-anchor="start" x="440.5" y="-18" font-family="Helvetica,sans-Serif" font-size="10.00">cellsociety_team02.Factory.make</text>
<text text-anchor="middle" x="520" y="-7" font-family="Helvetica,sans-Serif" font-size="10.00">Patch</text>
</a>
</g>
</g>
<!-- Node6&#45;&gt;Node7 -->
<g id="edge6" class="edge"><title>Node6&#45;&gt;Node7</title>
<path fill="none" stroke="midnightblue" d="M387.786,-15C398.967,-15 410.475,-15 421.81,-15"/>
<polygon fill="midnightblue" stroke="midnightblue" points="422.157,-18.5001 432.157,-15 422.157,-11.5001 422.157,-18.5001"/>
</g>
</g>
</svg>
        <g id="navigator" transform="translate(0 0)" fill="#404254">
                <rect fill="#f2f5e9" fill-opacity="0.5" stroke="#606060" stroke-width=".5" x="0" y="0" width="60" height="60"/>
                <use id="zoomplus" xlink:href="#zoomPlus" x="17" y="9" onmousedown="handleZoom(evt,'in')"/>
                <use id="zoomminus" xlink:href="#zoomMin" x="42" y="9" onmousedown="handleZoom(evt,'out')"/>
                <use id="reset" xlink:href="#resetDef" x="30" y="36" onmousedown="handleReset()"/>
                <g id="arrowUp" xlink:href="#dirArrow" transform="translate(30 24)" onmousedown="handlePan(0,-1)">
                  <use xlink:href="#rim" fill="#404040">
                        <set attributeName="fill" to="#808080" begin="arrowUp.mouseover" end="arrowUp.mouseout"/>
                  </use>
                  <path fill="none" stroke="white" stroke-width="1.5" d="M0,-3.0v7 M-2.5,-0.5L0,-3.0L2.5,-0.5"/>
                </g>
                <g id="arrowRight" xlink:href="#dirArrow" transform="rotate(90) translate(36 -43)" onmousedown="handlePan(1,0)">
                  <use xlink:href="#rim" fill="#404040">
                        <set attributeName="fill" to="#808080" begin="arrowRight.mouseover" end="arrowRight.mouseout"/>
                  </use>
                  <path fill="none" stroke="white" stroke-width="1.5" d="M0,-3.0v7 M-2.5,-0.5L0,-3.0L2.5,-0.5"/>
                </g>
                <g id="arrowDown" xlink:href="#dirArrow" transform="rotate(180) translate(-30 -48)" onmousedown="handlePan(0,1)">
                  <use xlink:href="#rim" fill="#404040">
                        <set attributeName="fill" to="#808080" begin="arrowDown.mouseover" end="arrowDown.mouseout"/>
                  </use>
                  <path fill="none" stroke="white" stroke-width="1.5" d="M0,-3.0v7 M-2.5,-0.5L0,-3.0L2.5,-0.5"/>
                </g>
                <g id="arrowLeft" xlink:href="#dirArrow" transform="rotate(270) translate(-36 17)" onmousedown="handlePan(-1,0)">
                  <use xlink:href="#rim" fill="#404040">
                        <set attributeName="fill" to="#808080" begin="arrowLeft.mouseover" end="arrowLeft.mouseout"/>
                  </use>
                  <path fill="none" stroke="white" stroke-width="1.5" d="M0,-3.0v7 M-2.5,-0.5L0,-3.0L2.5,-0.5"/>
                </g>
        </g>
        <svg viewBox="0 0 15 15" width="100%" height="30px" preserveAspectRatio="xMaxYMin meet">
         <g id="arrow_out" transform="scale(0.3 0.3)">
          <a xlink:href="classcellsociety__team02_1_1_x_m_l_parser_afd9d58234bf5413d7759421f41f36e71_cgraph_org.svg" target="_base">
           <rect id="button" ry="5" rx="5" y="6" x="6" height="38" width="38"
                fill="#f2f5e9" fill-opacity="0.5" stroke="#606060" stroke-width="1.0"/>
           <path id="arrow"
             d="M 11.500037,31.436501 C 11.940474,20.09759 22.043105,11.32322 32.158766,21.979434 L 37.068811,17.246167 C 37.068811,17.246167 37.088388,32 37.088388,32 L 22.160133,31.978069 C 22.160133,31.978069 26.997745,27.140456 26.997745,27.140456 C 18.528582,18.264221 13.291696,25.230495 11.500037,31.436501 z"
             style="fill:#404040;"/>
          </a>
         </g>
        </svg>
</svg>
