<?xml version="1.0" encoding="UTF-8" standalone="no"?>
<!DOCTYPE svg PUBLIC "-//W3C//DTD SVG 1.1//EN"
 "http://www.w3.org/Graphics/SVG/1.1/DTD/svg11.dtd">
<!-- Generated by graphviz version 2.36.0 (20140111.2315)
 -->
<!-- Title: cellsociety_team02.XMLParser.initialize Pages: 1 -->
<svg width="1282pt" height="61pt"
 viewBox="0.00 0.00 1282.00 61.00" xmlns="http://www.w3.org/2000/svg" xmlns:xlink="http://www.w3.org/1999/xlink">
<g id="graph0" class="graph" transform="scale(1 1) rotate(0) translate(4 57)">
<title>cellsociety_team02.XMLParser.initialize</title>
<polygon fill="white" stroke="none" points="-4,4 -4,-57 1278,-57 1278,4 -4,4"/>
<!-- Node1 -->
<g id="node1" class="node"><title>Node1</title>
<polygon fill="#bfbfbf" stroke="black" points="0,-27.5 0,-46.5 202,-46.5 202,-27.5 0,-27.5"/>
<text text-anchor="middle" x="101" y="-34.5" font-family="Helvetica,sans-Serif" font-size="10.00">cellsociety_team02.XMLParser.initialize</text>
</g>
<!-- Node2 -->
<g id="node2" class="node"><title>Node2</title>
<g id="a_node2"><a xlink:href="../../df/d71/classcellsociety__team02_1_1_grid_model.html#a3884a4fa7f5f19b71ea5a1c2a54fe817" target="_top" xlink:title="cellsociety_team02.GridModel.load">
<polygon fill="white" stroke="black" points="238.5,-27.5 238.5,-46.5 421.5,-46.5 421.5,-27.5 238.5,-27.5"/>
<text text-anchor="middle" x="330" y="-34.5" font-family="Helvetica,sans-Serif" font-size="10.00">cellsociety_team02.GridModel.load</text>
</a>
</g>
</g>
<!-- Node1&#45;&gt;Node2 -->
<g id="edge1" class="edge"><title>Node1&#45;&gt;Node2</title>
<path fill="none" stroke="midnightblue" d="M212.383,-37C221.055,-37 229.751,-37 238.269,-37"/>
<polygon fill="midnightblue" stroke="midnightblue" points="212.226,-33.5001 202.226,-37 212.226,-40.5001 212.226,-33.5001"/>
</g>
<!-- Node3 -->
<g id="node3" class="node"><title>Node3</title>
<g id="a_node3"><a xlink:href="../../d9/daf/classcellsociety__team02_1_1_grid_view.html#aa0cb15c1acd15c18573648b8df447752" target="_top" xlink:title="cellsociety_team02.GridView.load">
<polygon fill="white" stroke="black" points="458,-27.5 458,-46.5 634,-46.5 634,-27.5 458,-27.5"/>
<text text-anchor="middle" x="546" y="-34.5" font-family="Helvetica,sans-Serif" font-size="10.00">cellsociety_team02.GridView.load</text>
</a>
</g>
</g>
<!-- Node2&#45;&gt;Node3 -->
<g id="edge2" class="edge"><title>Node2&#45;&gt;Node3</title>
<path fill="none" stroke="midnightblue" d="M431.9,-37C440.574,-37 449.302,-37 457.854,-37"/>
<polygon fill="midnightblue" stroke="midnightblue" points="431.755,-33.5001 421.755,-37 431.755,-40.5001 431.755,-33.5001"/>
</g>
<!-- Node4 -->
<g id="node4" class="node"><title>Node4</title>
<g id="a_node4"><a xlink:href="../../d9/daf/classcellsociety__team02_1_1_grid_view.html#ada183e314764db770009f944205490df" target="_top" xlink:title="cellsociety_team02.GridView.\lGridView">
<polygon fill="white" stroke="black" points="1118.5,-23 1118.5,-53 1273.5,-53 1273.5,-23 1118.5,-23"/>
<text text-anchor="start" x="1126.5" y="-41" font-family="Helvetica,sans-Serif" font-size="10.00">cellsociety_team02.GridView.</text>
<text text-anchor="middle" x="1196" y="-30" font-family="Helvetica,sans-Serif" font-size="10.00">GridView</text>
</a>
</g>
</g>
<!-- Node3&#45;&gt;Node4 -->
<g id="edge3" class="edge"><title>Node3&#45;&gt;Node4</title>
<path fill="none" stroke="midnightblue" d="M644.238,-38.7275C652.949,-38.838 661.634,-38.932 670,-39 829.5,-40.2967 1016.27,-39.3532 1118.49,-38.6264"/>
<polygon fill="midnightblue" stroke="midnightblue" points="644.063,-35.2249 634.017,-38.5908 643.969,-42.2243 644.063,-35.2249"/>
</g>
<!-- Node5 -->
<g id="node5" class="node"><title>Node5</title>
<g id="a_node5"><a xlink:href="../../d9/daf/classcellsociety__team02_1_1_grid_view.html#afcc7b83f62c116e77ab0843bfd4156b8" target="_top" xlink:title="cellsociety_team02.GridView.make\lButtons">
<polygon fill="white" stroke="black" points="670,-0 670,-30 852,-30 852,-0 670,-0"/>
<text text-anchor="start" x="678" y="-18" font-family="Helvetica,sans-Serif" font-size="10.00">cellsociety_team02.GridView.make</text>
<text text-anchor="middle" x="761" y="-7" font-family="Helvetica,sans-Serif" font-size="10.00">Buttons</text>
</a>
</g>
</g>
<!-- Node3&#45;&gt;Node5 -->
<g id="edge4" class="edge"><title>Node3&#45;&gt;Node5</title>
<path fill="none" stroke="midnightblue" d="M644.201,-26.9605C652.72,-26.0806 661.319,-25.1924 669.777,-24.3188"/>
<polygon fill="midnightblue" stroke="midnightblue" points="643.837,-23.4793 634.25,-27.9883 644.557,-30.4423 643.837,-23.4793"/>
</g>
<!-- Node6 -->
<g id="node6" class="node"><title>Node6</title>
<g id="a_node6"><a xlink:href="../../d9/daf/classcellsociety__team02_1_1_grid_view.html#a4571898657e750f62c2df84cb398e135" target="_top" xlink:title="cellsociety_team02.GridView.initialize">
<polygon fill="white" stroke="black" points="888,-8.5 888,-27.5 1082,-27.5 1082,-8.5 888,-8.5"/>
<text text-anchor="middle" x="985" y="-15.5" font-family="Helvetica,sans-Serif" font-size="10.00">cellsociety_team02.GridView.initialize</text>
</a>
</g>
</g>
<!-- Node5&#45;&gt;Node6 -->
<g id="edge5" class="edge"><title>Node5&#45;&gt;Node6</title>
<path fill="none" stroke="midnightblue" d="M862.565,-16.359C871.028,-16.4733 879.572,-16.5888 887.999,-16.7027"/>
<polygon fill="midnightblue" stroke="midnightblue" points="862.342,-12.8558 852.296,-16.2202 862.248,-19.8551 862.342,-12.8558"/>
</g>
<!-- Node6&#45;&gt;Node4 -->
<g id="edge6" class="edge"><title>Node6&#45;&gt;Node4</title>
<path fill="none" stroke="midnightblue" d="M1092.48,-28.1892C1101.2,-29.024 1109.91,-29.8571 1118.35,-30.6651"/>
<polygon fill="midnightblue" stroke="midnightblue" points="1092.53,-24.6783 1082.24,-27.2097 1091.86,-31.6465 1092.53,-24.6783"/>
</g>
</g>
</svg>
