<?xml version="1.0" encoding="UTF-8" standalone="no"?>
<!DOCTYPE svg PUBLIC "-//W3C//DTD SVG 1.1//EN"
 "http://www.w3.org/Graphics/SVG/1.1/DTD/svg11.dtd">
<!-- Generated by graphviz version 2.36.0 (20140111.2315)
 -->
<!-- Title: cellsociety_team02.XMLParser.makeMap Pages: 1 -->
<svg width="2010pt" height="131pt"
 viewBox="0.00 0.00 2010.00 131.00" xmlns="http://www.w3.org/2000/svg" xmlns:xlink="http://www.w3.org/1999/xlink">
<g id="graph0" class="graph" transform="scale(1 1) rotate(0) translate(4 127)">
<title>cellsociety_team02.XMLParser.makeMap</title>
<polygon fill="white" stroke="none" points="-4,4 -4,-127 2006,-127 2006,4 -4,4"/>
<!-- Node1 -->
<g id="node1" class="node"><title>Node1</title>
<polygon fill="#bfbfbf" stroke="black" points="0.5,-29.5 0.5,-48.5 211.5,-48.5 211.5,-29.5 0.5,-29.5"/>
<text text-anchor="middle" x="106" y="-36.5" font-family="Helvetica,sans-Serif" font-size="10.00">cellsociety_team02.XMLParser.makeMap</text>
</g>
<!-- Node2 -->
<g id="node2" class="node"><title>Node2</title>
<g id="a_node2"><a xlink:href="../../d9/db5/classcellsociety__team02_1_1_x_m_l_parser.html#a14ccb1cf6658b9c38357d5bc4f176444" target="_top" xlink:title="cellsociety_team02.XMLParser.do\lProbability">
<polygon fill="white" stroke="black" points="256,-49 256,-79 432,-79 432,-49 256,-49"/>
<text text-anchor="start" x="264" y="-67" font-family="Helvetica,sans-Serif" font-size="10.00">cellsociety_team02.XMLParser.do</text>
<text text-anchor="middle" x="344" y="-56" font-family="Helvetica,sans-Serif" font-size="10.00">Probability</text>
</a>
</g>
</g>
<!-- Node1&#45;&gt;Node2 -->
<g id="edge1" class="edge"><title>Node1&#45;&gt;Node2</title>
<path fill="none" stroke="midnightblue" d="M206.918,-49.5845C223.131,-51.302 239.811,-53.069 255.693,-54.7514"/>
<polygon fill="midnightblue" stroke="midnightblue" points="207.208,-46.0957 196.895,-48.5227 206.47,-53.0568 207.208,-46.0957"/>
</g>
<!-- Node11 -->
<g id="node11" class="node"><title>Node11</title>
<g id="a_node11"><a xlink:href="../../d9/db5/classcellsociety__team02_1_1_x_m_l_parser.html#a80db6bc9b1504447995fc08ed6a27527" target="_top" xlink:title="cellsociety_team02.XMLParser.make\lParameterMap">
<polygon fill="white" stroke="black" points="248.5,-0 248.5,-30 439.5,-30 439.5,-0 248.5,-0"/>
<text text-anchor="start" x="256.5" y="-18" font-family="Helvetica,sans-Serif" font-size="10.00">cellsociety_team02.XMLParser.make</text>
<text text-anchor="middle" x="344" y="-7" font-family="Helvetica,sans-Serif" font-size="10.00">ParameterMap</text>
</a>
</g>
</g>
<!-- Node1&#45;&gt;Node11 -->
<g id="edge12" class="edge"><title>Node1&#45;&gt;Node11</title>
<path fill="none" stroke="midnightblue" d="M210.617,-28.4627C223.165,-27.1866 235.933,-25.8882 248.342,-24.6263"/>
<polygon fill="midnightblue" stroke="midnightblue" points="210.207,-24.9862 200.612,-29.4801 210.915,-31.9503 210.207,-24.9862"/>
</g>
<!-- Node3 -->
<g id="node3" class="node"><title>Node3</title>
<g id="a_node3"><a xlink:href="../../d9/db5/classcellsociety__team02_1_1_x_m_l_parser.html#adb7ffd2c43825ff504405060ff20178f" target="_top" xlink:title="cellsociety_team02.XMLParser.constructList">
<polygon fill="white" stroke="black" points="476.5,-54.5 476.5,-73.5 701.5,-73.5 701.5,-54.5 476.5,-54.5"/>
<text text-anchor="middle" x="589" y="-61.5" font-family="Helvetica,sans-Serif" font-size="10.00">cellsociety_team02.XMLParser.constructList</text>
</a>
</g>
</g>
<!-- Node2&#45;&gt;Node3 -->
<g id="edge2" class="edge"><title>Node2&#45;&gt;Node3</title>
<path fill="none" stroke="midnightblue" d="M442.199,-64C453.359,-64 464.804,-64 476.137,-64"/>
<polygon fill="midnightblue" stroke="midnightblue" points="442.042,-60.5001 432.042,-64 442.042,-67.5001 442.042,-60.5001"/>
</g>
<!-- Node4 -->
<g id="node4" class="node"><title>Node4</title>
<g id="a_node4"><a xlink:href="../../d9/db5/classcellsociety__team02_1_1_x_m_l_parser.html#aca6776e6016ac742ace5f43d33a03c74" target="_top" xlink:title="cellsociety_team02.XMLParser.make\lCells">
<polygon fill="white" stroke="black" points="738.5,-93 738.5,-123 929.5,-123 929.5,-93 738.5,-93"/>
<text text-anchor="start" x="746.5" y="-111" font-family="Helvetica,sans-Serif" font-size="10.00">cellsociety_team02.XMLParser.make</text>
<text text-anchor="middle" x="834" y="-100" font-family="Helvetica,sans-Serif" font-size="10.00">Cells</text>
</a>
</g>
</g>
<!-- Node3&#45;&gt;Node4 -->
<g id="edge3" class="edge"><title>Node3&#45;&gt;Node4</title>
<path fill="none" stroke="midnightblue" d="M652.907,-75.3905C682.447,-80.7394 718.064,-87.1886 749.798,-92.9346"/>
<polygon fill="midnightblue" stroke="midnightblue" points="653.191,-71.8852 642.727,-73.5473 651.944,-78.7731 653.191,-71.8852"/>
</g>
<!-- Node10 -->
<g id="node10" class="node"><title>Node10</title>
<g id="a_node10"><a xlink:href="../../d9/db5/classcellsociety__team02_1_1_x_m_l_parser.html#a6183c4600a4c3b22a017485f9ae01d4d" target="_top" xlink:title="cellsociety_team02.XMLParser.make\lPatches">
<polygon fill="white" stroke="black" points="738.5,-44 738.5,-74 929.5,-74 929.5,-44 738.5,-44"/>
<text text-anchor="start" x="746.5" y="-62" font-family="Helvetica,sans-Serif" font-size="10.00">cellsociety_team02.XMLParser.make</text>
<text text-anchor="middle" x="834" y="-51" font-family="Helvetica,sans-Serif" font-size="10.00">Patches</text>
</a>
</g>
</g>
<!-- Node3&#45;&gt;Node10 -->
<g id="edge10" class="edge"><title>Node3&#45;&gt;Node10</title>
<path fill="none" stroke="midnightblue" d="M711.696,-61.496C720.697,-61.3108 729.697,-61.1256 738.498,-60.9445"/>
<polygon fill="midnightblue" stroke="midnightblue" points="711.469,-57.9998 701.543,-61.7049 711.613,-64.9983 711.469,-57.9998"/>
</g>
<!-- Node5 -->
<g id="node5" class="node"><title>Node5</title>
<g id="a_node5"><a xlink:href="../../df/d71/classcellsociety__team02_1_1_grid_model.html#a3884a4fa7f5f19b71ea5a1c2a54fe817" target="_top" xlink:title="cellsociety_team02.GridModel.load">
<polygon fill="white" stroke="black" points="966.5,-49.5 966.5,-68.5 1149.5,-68.5 1149.5,-49.5 966.5,-49.5"/>
<text text-anchor="middle" x="1058" y="-56.5" font-family="Helvetica,sans-Serif" font-size="10.00">cellsociety_team02.GridModel.load</text>
</a>
</g>
</g>
<!-- Node4&#45;&gt;Node5 -->
<g id="edge4" class="edge"><title>Node4&#45;&gt;Node5</title>
<path fill="none" stroke="midnightblue" d="M912.997,-90.7844C946.855,-83.3112 985.22,-74.8433 1013.83,-68.528"/>
<polygon fill="midnightblue" stroke="midnightblue" points="912.127,-87.3922 903.116,-92.9654 913.635,-94.2277 912.127,-87.3922"/>
</g>
<!-- Node6 -->
<g id="node6" class="node"><title>Node6</title>
<g id="a_node6"><a xlink:href="../../d9/daf/classcellsociety__team02_1_1_grid_view.html#aa0cb15c1acd15c18573648b8df447752" target="_top" xlink:title="cellsociety_team02.GridView.load">
<polygon fill="white" stroke="black" points="1186,-49.5 1186,-68.5 1362,-68.5 1362,-49.5 1186,-49.5"/>
<text text-anchor="middle" x="1274" y="-56.5" font-family="Helvetica,sans-Serif" font-size="10.00">cellsociety_team02.GridView.load</text>
</a>
</g>
</g>
<!-- Node5&#45;&gt;Node6 -->
<g id="edge5" class="edge"><title>Node5&#45;&gt;Node6</title>
<path fill="none" stroke="midnightblue" d="M1159.9,-59C1168.57,-59 1177.3,-59 1185.85,-59"/>
<polygon fill="midnightblue" stroke="midnightblue" points="1159.76,-55.5001 1149.76,-59 1159.76,-62.5001 1159.76,-55.5001"/>
</g>
<!-- Node7 -->
<g id="node7" class="node"><title>Node7</title>
<g id="a_node7"><a xlink:href="../../d9/daf/classcellsociety__team02_1_1_grid_view.html#ada183e314764db770009f944205490df" target="_top" xlink:title="cellsociety_team02.GridView.\lGridView">
<polygon fill="white" stroke="black" points="1846.5,-45 1846.5,-75 2001.5,-75 2001.5,-45 1846.5,-45"/>
<text text-anchor="start" x="1854.5" y="-63" font-family="Helvetica,sans-Serif" font-size="10.00">cellsociety_team02.GridView.</text>
<text text-anchor="middle" x="1924" y="-52" font-family="Helvetica,sans-Serif" font-size="10.00">GridView</text>
</a>
</g>
</g>
<!-- Node6&#45;&gt;Node7 -->
<g id="edge6" class="edge"><title>Node6&#45;&gt;Node7</title>
<path fill="none" stroke="midnightblue" d="M1372.24,-60.7275C1380.95,-60.838 1389.63,-60.932 1398,-61 1557.5,-62.2967 1744.27,-61.3532 1846.49,-60.6264"/>
<polygon fill="midnightblue" stroke="midnightblue" points="1372.06,-57.2249 1362.02,-60.5908 1371.97,-64.2243 1372.06,-57.2249"/>
</g>
<!-- Node8 -->
<g id="node8" class="node"><title>Node8</title>
<g id="a_node8"><a xlink:href="../../d9/daf/classcellsociety__team02_1_1_grid_view.html#afcc7b83f62c116e77ab0843bfd4156b8" target="_top" xlink:title="cellsociety_team02.GridView.make\lButtons">
<polygon fill="white" stroke="black" points="1398,-22 1398,-52 1580,-52 1580,-22 1398,-22"/>
<text text-anchor="start" x="1406" y="-40" font-family="Helvetica,sans-Serif" font-size="10.00">cellsociety_team02.GridView.make</text>
<text text-anchor="middle" x="1489" y="-29" font-family="Helvetica,sans-Serif" font-size="10.00">Buttons</text>
</a>
</g>
</g>
<!-- Node6&#45;&gt;Node8 -->
<g id="edge7" class="edge"><title>Node6&#45;&gt;Node8</title>
<path fill="none" stroke="midnightblue" d="M1372.2,-48.9605C1380.72,-48.0806 1389.32,-47.1924 1397.78,-46.3188"/>
<polygon fill="midnightblue" stroke="midnightblue" points="1371.84,-45.4793 1362.25,-49.9883 1372.56,-52.4423 1371.84,-45.4793"/>
</g>
<!-- Node9 -->
<g id="node9" class="node"><title>Node9</title>
<g id="a_node9"><a xlink:href="../../d9/daf/classcellsociety__team02_1_1_grid_view.html#a4571898657e750f62c2df84cb398e135" target="_top" xlink:title="cellsociety_team02.GridView.initialize">
<polygon fill="white" stroke="black" points="1616,-30.5 1616,-49.5 1810,-49.5 1810,-30.5 1616,-30.5"/>
<text text-anchor="middle" x="1713" y="-37.5" font-family="Helvetica,sans-Serif" font-size="10.00">cellsociety_team02.GridView.initialize</text>
</a>
</g>
</g>
<!-- Node8&#45;&gt;Node9 -->
<g id="edge8" class="edge"><title>Node8&#45;&gt;Node9</title>
<path fill="none" stroke="midnightblue" d="M1590.56,-38.359C1599.03,-38.4733 1607.57,-38.5888 1616,-38.7027"/>
<polygon fill="midnightblue" stroke="midnightblue" points="1590.34,-34.8558 1580.3,-38.2202 1590.25,-41.8551 1590.34,-34.8558"/>
</g>
<!-- Node9&#45;&gt;Node7 -->
<g id="edge9" class="edge"><title>Node9&#45;&gt;Node7</title>
<path fill="none" stroke="midnightblue" d="M1820.48,-50.1892C1829.2,-51.024 1837.91,-51.8571 1846.35,-52.6651"/>
<polygon fill="midnightblue" stroke="midnightblue" points="1820.53,-46.6783 1810.24,-49.2097 1819.86,-53.6465 1820.53,-46.6783"/>
</g>
<!-- Node10&#45;&gt;Node5 -->
<g id="edge11" class="edge"><title>Node10&#45;&gt;Node5</title>
<path fill="none" stroke="midnightblue" d="M939.796,-59C948.688,-59 957.633,-59 966.403,-59"/>
<polygon fill="midnightblue" stroke="midnightblue" points="939.792,-55.5001 929.792,-59 939.792,-62.5001 939.792,-55.5001"/>
</g>
<!-- Node12 -->
<g id="node12" class="node"><title>Node12</title>
<g id="a_node12"><a xlink:href="../../d9/db5/classcellsociety__team02_1_1_x_m_l_parser.html#ad3832583a0c6236760288a3122d04c3a" target="_top" xlink:title="cellsociety_team02.XMLParser.initialize">
<polygon fill="white" stroke="black" points="488,-5.5 488,-24.5 690,-24.5 690,-5.5 488,-5.5"/>
<text text-anchor="middle" x="589" y="-12.5" font-family="Helvetica,sans-Serif" font-size="10.00">cellsociety_team02.XMLParser.initialize</text>
</a>
</g>
</g>
<!-- Node11&#45;&gt;Node12 -->
<g id="edge13" class="edge"><title>Node11&#45;&gt;Node12</title>
<path fill="none" stroke="midnightblue" d="M449.756,-15C462.443,-15 475.377,-15 487.993,-15"/>
<polygon fill="midnightblue" stroke="midnightblue" points="449.646,-11.5001 439.646,-15 449.646,-18.5001 449.646,-11.5001"/>
</g>
<!-- Node12&#45;&gt;Node5 -->
<g id="edge14" class="edge"><title>Node12&#45;&gt;Node5</title>
<path fill="none" stroke="midnightblue" d="M700.12,-17.2916C766.846,-19.6384 853.563,-24.3879 930,-34 958.985,-37.6449 991.282,-44.0348 1016.05,-49.4419"/>
<polygon fill="midnightblue" stroke="midnightblue" points="700.119,-13.7897 690.007,-16.9489 699.882,-20.7857 700.119,-13.7897"/>
</g>
</g>
</svg>
