<?xml version="1.0" encoding="UTF-8" standalone="no"?>
<!DOCTYPE svg PUBLIC "-//W3C//DTD SVG 1.1//EN"
 "http://www.w3.org/Graphics/SVG/1.1/DTD/svg11.dtd">
<!-- Generated by graphviz version 2.36.0 (20140111.2315)
 -->
<!-- Title: cellsociety_team02.XMLParser.constructList Pages: 1 -->
<!--zoomable 389 -->
<svg id="main" version="1.1" xmlns="http://www.w3.org/2000/svg" xmlns:xlink="http://www.w3.org/1999/xlink" xml:space="preserve" onload="init(evt)">
<style type="text/css"><![CDATA[
.edge:hover path { stroke: red; }
.edge:hover polygon { stroke: red; fill: red; }
]]></style>
<script type="text/javascript"><![CDATA[
var edges = document.getElementsByTagName('g');
if (edges && edges.length) {
  for (var i=0;i<edges.length;i++) {
    if (edges[i].id.substr(0,4)=='edge') {
      edges[i].setAttribute('class','edge');
    }
  }
}
]]></script>
        <defs>
                <circle id="rim" cx="0" cy="0" r="7"/>
                <circle id="rim2" cx="0" cy="0" r="3.5"/>
                <g id="zoomPlus">
                        <use xlink:href="#rim" fill="#404040">
                                <set attributeName="fill" to="#808080" begin="zoomplus.mouseover" end="zoomplus.mouseout"/>
                        </use>
                        <path d="M-4,0h8M0,-4v8" fill="none" stroke="white" stroke-width="1.5" pointer-events="none"/>
                </g>
                <g id="zoomMin">
                        <use xlink:href="#rim" fill="#404040">
                                <set attributeName="fill" to="#808080" begin="zoomminus.mouseover" end="zoomminus.mouseout"/>
                        </use>
                        <path d="M-4,0h8" fill="none" stroke="white" stroke-width="1.5" pointer-events="none"/>
                </g>
                <g id="dirArrow">
                        <path fill="none" stroke="white" stroke-width="1.5" d="M0,-3.0v7 M-2.5,-0.5L0,-3.0L2.5,-0.5"/>
                </g>
               <g id="resetDef">
                       <use xlink:href="#rim2" fill="#404040">
                               <set attributeName="fill" to="#808080" begin="reset.mouseover" end="reset.mouseout"/>
                       </use>
               </g>
        </defs>

<script type="text/javascript">
var viewWidth = 1298;
var viewHeight = 389;
var sectionId = 'dynsection-1';
</script>
<script xlink:href="../../svgpan.js"/>
<svg id="graph" class="graph">
<g id="viewport">
<title>cellsociety_team02.XMLParser.constructList</title>
<polygon fill="white" stroke="none" points="-4,4 -4,-385 1294,-385 1294,4 -4,4"/>
<!-- Node1 -->
<g id="node1" class="node"><title>Node1</title>
<polygon fill="#bfbfbf" stroke="black" points="0.5,-148.5 0.5,-167.5 225.5,-167.5 225.5,-148.5 0.5,-148.5"/>
<text text-anchor="middle" x="113" y="-155.5" font-family="Helvetica,sans-Serif" font-size="10.00">cellsociety_team02.XMLParser.constructList</text>
</g>
<!-- Node2 -->
<g id="node2" class="node"><title>Node2</title>
<g id="a_node2"><a xlink:href="../../d9/db5/classcellsociety__team02_1_1_x_m_l_parser.html#a98df6887ba7b6cd85f33e6943ff58e49" target="_top" xlink:title="cellsociety_team02.XMLParser.do\lGiven">
<polygon fill="white" stroke="black" points="262,-143 262,-173 438,-173 438,-143 262,-143"/>
<text text-anchor="start" x="270" y="-161" font-family="Helvetica,sans-Serif" font-size="10.00">cellsociety_team02.XMLParser.do</text>
<text text-anchor="middle" x="350" y="-150" font-family="Helvetica,sans-Serif" font-size="10.00">Given</text>
</a>
</g>
</g>
<!-- Node1&#45;&gt;Node2 -->
<g id="edge1" class="edge"><title>Node1&#45;&gt;Node2</title>
<path fill="none" stroke="midnightblue" d="M225.65,-158C234.417,-158 243.228,-158 251.886,-158"/>
<polygon fill="midnightblue" stroke="midnightblue" points="251.969,-161.5 261.969,-158 251.969,-154.5 251.969,-161.5"/>
</g>
<!-- Node9 -->
<g id="node9" class="node"><title>Node9</title>
<g id="a_node9"><a xlink:href="../../d9/db5/classcellsociety__team02_1_1_x_m_l_parser.html#a14ccb1cf6658b9c38357d5bc4f176444" target="_top" xlink:title="cellsociety_team02.XMLParser.do\lProbability">
<polygon fill="white" stroke="black" points="262,-78 262,-108 438,-108 438,-78 262,-78"/>
<text text-anchor="start" x="270" y="-96" font-family="Helvetica,sans-Serif" font-size="10.00">cellsociety_team02.XMLParser.do</text>
<text text-anchor="middle" x="350" y="-85" font-family="Helvetica,sans-Serif" font-size="10.00">Probability</text>
</a>
</g>
</g>
<!-- Node1&#45;&gt;Node9 -->
<g id="edge10" class="edge"><title>Node1&#45;&gt;Node9</title>
<path fill="none" stroke="midnightblue" d="M148.423,-148.479C184.098,-138.611 240.693,-122.957 284.684,-110.79"/>
<polygon fill="midnightblue" stroke="midnightblue" points="285.729,-114.132 294.434,-108.093 283.863,-107.385 285.729,-114.132"/>
</g>
<!-- Node13 -->
<g id="node13" class="node"><title>Node13</title>
<g id="a_node13"><a xlink:href="../../d9/db5/classcellsociety__team02_1_1_x_m_l_parser.html#afd9d58234bf5413d7759421f41f36e71" target="_top" xlink:title="cellsociety_team02.XMLParser.do\lRandom">
<polygon fill="white" stroke="black" points="262,-302 262,-332 438,-332 438,-302 262,-302"/>
<text text-anchor="start" x="270" y="-320" font-family="Helvetica,sans-Serif" font-size="10.00">cellsociety_team02.XMLParser.do</text>
<text text-anchor="middle" x="350" y="-309" font-family="Helvetica,sans-Serif" font-size="10.00">Random</text>
</a>
</g>
</g>
<!-- Node1&#45;&gt;Node13 -->
<g id="edge17" class="edge"><title>Node1&#45;&gt;Node13</title>
<path fill="none" stroke="midnightblue" d="M128.347,-167.707C165.745,-193.01 266.869,-261.43 318.205,-296.164"/>
<polygon fill="midnightblue" stroke="midnightblue" points="316.349,-299.134 326.593,-301.839 320.272,-293.337 316.349,-299.134"/>
</g>
<!-- Node3 -->
<g id="node3" class="node"><title>Node3</title>
<g id="a_node3"><a xlink:href="../../d9/db5/classcellsociety__team02_1_1_x_m_l_parser.html#af9e2438fd8fa09e5d6b2d252afa13b1a" target="_top" xlink:title="cellsociety_team02.XMLParser.get\lAttribute">
<polygon fill="white" stroke="black" points="728.5,-36 728.5,-66 907.5,-66 907.5,-36 728.5,-36"/>
<text text-anchor="start" x="736.5" y="-54" font-family="Helvetica,sans-Serif" font-size="10.00">cellsociety_team02.XMLParser.get</text>
<text text-anchor="middle" x="818" y="-43" font-family="Helvetica,sans-Serif" font-size="10.00">Attribute</text>
</a>
</g>
</g>
<!-- Node2&#45;&gt;Node3 -->
<g id="edge2" class="edge"><title>Node2&#45;&gt;Node3</title>
<path fill="none" stroke="midnightblue" d="M416.778,-142.896C502.382,-123.241 651.636,-88.9698 741.685,-68.2932"/>
<polygon fill="midnightblue" stroke="midnightblue" points="742.593,-71.6759 751.557,-66.0267 741.027,-64.8535 742.593,-71.6759"/>
</g>
<!-- Node4 -->
<g id="node4" class="node"><title>Node4</title>
<g id="a_node4"><a xlink:href="../../d8/d83/classcellsociety__team02_1_1_factory.html#a73f7de8ac528a17623c911f59dc28325" target="_top" xlink:title="cellsociety_team02.Factory.makeCell">
<polygon fill="white" stroke="black" points="722,-148.5 722,-167.5 914,-167.5 914,-148.5 722,-148.5"/>
<text text-anchor="middle" x="818" y="-155.5" font-family="Helvetica,sans-Serif" font-size="10.00">cellsociety_team02.Factory.makeCell</text>
</a>
</g>
</g>
<!-- Node2&#45;&gt;Node4 -->
<g id="edge3" class="edge"><title>Node2&#45;&gt;Node4</title>
<path fill="none" stroke="midnightblue" d="M438.014,-155.614C450.1,-155.359 462.359,-155.142 474,-155 568.215,-153.851 591.784,-153.921 686,-155 694.338,-155.095 702.975,-155.225 711.653,-155.377"/>
<polygon fill="midnightblue" stroke="midnightblue" points="711.781,-158.88 721.844,-155.565 711.91,-151.881 711.781,-158.88"/>
</g>
<!-- Node7 -->
<g id="node7" class="node"><title>Node7</title>
<g id="a_node7"><a xlink:href="../../d8/d83/classcellsociety__team02_1_1_factory.html#aa3a1a4e218cc6529b3b2e56cd5f8cfff" target="_top" xlink:title="cellsociety_team02.Factory.make\lPatch">
<polygon fill="white" stroke="black" points="730.5,-236 730.5,-266 905.5,-266 905.5,-236 730.5,-236"/>
<text text-anchor="start" x="738.5" y="-254" font-family="Helvetica,sans-Serif" font-size="10.00">cellsociety_team02.Factory.make</text>
<text text-anchor="middle" x="818" y="-243" font-family="Helvetica,sans-Serif" font-size="10.00">Patch</text>
</a>
</g>
</g>
<!-- Node2&#45;&gt;Node7 -->
<g id="edge6" class="edge"><title>Node2&#45;&gt;Node7</title>
<path fill="none" stroke="midnightblue" d="M364.241,-173.249C384.963,-195.816 427.524,-237.142 474,-253 556.053,-280.998 655.714,-276.504 726.417,-267.419"/>
<polygon fill="midnightblue" stroke="midnightblue" points="727.187,-270.847 736.633,-266.049 726.257,-263.909 727.187,-270.847"/>
</g>
<!-- Node8 -->
<g id="node8" class="node"><title>Node8</title>
<g id="a_node8"><a xlink:href="../../d9/db5/classcellsociety__team02_1_1_x_m_l_parser.html#a405a101ec424944a7032f82f56343d2e" target="_top" xlink:title="cellsociety_team02.XMLParser.set\lNullState">
<polygon fill="white" stroke="black" points="490.5,-165 490.5,-195 669.5,-195 669.5,-165 490.5,-165"/>
<text text-anchor="start" x="498.5" y="-183" font-family="Helvetica,sans-Serif" font-size="10.00">cellsociety_team02.XMLParser.set</text>
<text text-anchor="middle" x="580" y="-172" font-family="Helvetica,sans-Serif" font-size="10.00">NullState</text>
</a>
</g>
</g>
<!-- Node2&#45;&gt;Node8 -->
<g id="edge7" class="edge"><title>Node2&#45;&gt;Node8</title>
<path fill="none" stroke="midnightblue" d="M438.173,-166.411C451.931,-167.739 466.241,-169.12 480.239,-170.47"/>
<polygon fill="midnightblue" stroke="midnightblue" points="480.075,-173.971 490.365,-171.447 480.747,-167.003 480.075,-173.971"/>
</g>
<!-- Node5 -->
<g id="node5" class="node"><title>Node5</title>
<g id="a_node5"><a xlink:href="../../d4/df2/class_cell_1_1_pred_prey_cell.html#ab682decb39c5e4f952c7c85929411f6f" target="_top" xlink:title="Cell.PredPreyCell.makeCell">
<polygon fill="white" stroke="black" points="950,-148.5 950,-167.5 1094,-167.5 1094,-148.5 950,-148.5"/>
<text text-anchor="middle" x="1022" y="-155.5" font-family="Helvetica,sans-Serif" font-size="10.00">Cell.PredPreyCell.makeCell</text>
</a>
</g>
</g>
<!-- Node4&#45;&gt;Node5 -->
<g id="edge4" class="edge"><title>Node4&#45;&gt;Node5</title>
<path fill="none" stroke="midnightblue" d="M914.085,-158C922.67,-158 931.311,-158 939.761,-158"/>
<polygon fill="midnightblue" stroke="midnightblue" points="939.956,-161.5 949.955,-158 939.955,-154.5 939.956,-161.5"/>
</g>
<!-- Node6 -->
<g id="node6" class="node"><title>Node6</title>
<g id="a_node6"><a xlink:href="../../d4/df2/class_cell_1_1_pred_prey_cell.html#a218b10c89861e5cbc826511d9b35b1ae" target="_top" xlink:title="Cell.PredPreyCell.PredPreyCell">
<polygon fill="white" stroke="black" points="1130,-148.5 1130,-167.5 1290,-167.5 1290,-148.5 1130,-148.5"/>
<text text-anchor="middle" x="1210" y="-155.5" font-family="Helvetica,sans-Serif" font-size="10.00">Cell.PredPreyCell.PredPreyCell</text>
</a>
</g>
</g>
<!-- Node5&#45;&gt;Node6 -->
<g id="edge5" class="edge"><title>Node5&#45;&gt;Node6</title>
<path fill="none" stroke="midnightblue" d="M1094.11,-158C1102.52,-158 1111.17,-158 1119.79,-158"/>
<polygon fill="midnightblue" stroke="midnightblue" points="1119.86,-161.5 1129.86,-158 1119.86,-154.5 1119.86,-161.5"/>
</g>
<!-- Node8&#45;&gt;Node4 -->
<g id="edge8" class="edge"><title>Node8&#45;&gt;Node4</title>
<path fill="none" stroke="midnightblue" d="M669.549,-171.745C683.231,-170.47 697.478,-169.142 711.487,-167.836"/>
<polygon fill="midnightblue" stroke="midnightblue" points="712.002,-171.303 721.634,-166.89 711.353,-164.333 712.002,-171.303"/>
</g>
<!-- Node8&#45;&gt;Node7 -->
<g id="edge9" class="edge"><title>Node8&#45;&gt;Node7</title>
<path fill="none" stroke="midnightblue" d="M648.771,-195.042C661.214,-198.113 674.044,-201.488 686,-205 713.461,-213.067 743.63,-223.546 768.087,-232.465"/>
<polygon fill="midnightblue" stroke="midnightblue" points="766.912,-235.762 777.505,-235.925 769.326,-229.192 766.912,-235.762"/>
</g>
<!-- Node10 -->
<g id="node10" class="node"><title>Node10</title>
<g id="a_node10"><a xlink:href="../../d9/db5/classcellsociety__team02_1_1_x_m_l_parser.html#a97985012667a5a937c89cf19fa6f20d1" target="_top" xlink:title="cellsociety_team02.XMLParser.makeMap">
<polygon fill="white" stroke="black" points="474.5,-0.5 474.5,-19.5 685.5,-19.5 685.5,-0.5 474.5,-0.5"/>
<text text-anchor="middle" x="580" y="-7.5" font-family="Helvetica,sans-Serif" font-size="10.00">cellsociety_team02.XMLParser.makeMap</text>
</a>
</g>
</g>
<!-- Node9&#45;&gt;Node10 -->
<g id="edge11" class="edge"><title>Node9&#45;&gt;Node10</title>
<path fill="none" stroke="midnightblue" d="M374.996,-77.7302C399.106,-63.0707 437.783,-41.3806 474,-29 482.215,-26.1918 490.941,-23.775 499.715,-21.7004"/>
<polygon fill="midnightblue" stroke="midnightblue" points="500.615,-25.086 509.618,-19.501 499.097,-18.2526 500.615,-25.086"/>
</g>
<!-- Node11 -->
<g id="node11" class="node"><title>Node11</title>
<g id="a_node11"><a xlink:href="../../d8/d83/classcellsociety__team02_1_1_factory.html#a401a66128090c8dd98191986b9db5536" target="_top" xlink:title="cellsociety_team02.Factory.make\lProbCell">
<polygon fill="white" stroke="black" points="492.5,-39 492.5,-69 667.5,-69 667.5,-39 492.5,-39"/>
<text text-anchor="start" x="500.5" y="-57" font-family="Helvetica,sans-Serif" font-size="10.00">cellsociety_team02.Factory.make</text>
<text text-anchor="middle" x="580" y="-46" font-family="Helvetica,sans-Serif" font-size="10.00">ProbCell</text>
</a>
</g>
</g>
<!-- Node9&#45;&gt;Node11 -->
<g id="edge13" class="edge"><title>Node9&#45;&gt;Node11</title>
<path fill="none" stroke="midnightblue" d="M438.173,-78.0888C452.575,-75.6253 467.583,-73.0582 482.204,-70.5572"/>
<polygon fill="midnightblue" stroke="midnightblue" points="482.986,-73.9744 492.252,-68.8384 481.805,-67.0746 482.986,-73.9744"/>
</g>
<!-- Node12 -->
<g id="node12" class="node"><title>Node12</title>
<g id="a_node12"><a xlink:href="../../d8/d83/classcellsociety__team02_1_1_factory.html#a41025b16b7c31c3e6e4c6fdef34898ae" target="_top" xlink:title="cellsociety_team02.Factory.make\lProbPatch">
<polygon fill="white" stroke="black" points="492.5,-214 492.5,-244 667.5,-244 667.5,-214 492.5,-214"/>
<text text-anchor="start" x="500.5" y="-232" font-family="Helvetica,sans-Serif" font-size="10.00">cellsociety_team02.Factory.make</text>
<text text-anchor="middle" x="580" y="-221" font-family="Helvetica,sans-Serif" font-size="10.00">ProbPatch</text>
</a>
</g>
</g>
<!-- Node9&#45;&gt;Node12 -->
<g id="edge15" class="edge"><title>Node9&#45;&gt;Node12</title>
<path fill="none" stroke="midnightblue" d="M398.8,-108.158C412.645,-114.246 426.98,-122.395 438,-133 463.492,-157.534 446.216,-182.095 474,-204 476.971,-206.342 480.126,-208.47 483.418,-210.404"/>
<polygon fill="midnightblue" stroke="midnightblue" points="481.931,-213.576 492.419,-215.08 485.158,-207.364 481.931,-213.576"/>
</g>
<!-- Node10&#45;&gt;Node3 -->
<g id="edge12" class="edge"><title>Node10&#45;&gt;Node3</title>
<path fill="none" stroke="midnightblue" d="M635.736,-19.5093C660.828,-23.8684 691.338,-29.1689 720.116,-34.1685"/>
<polygon fill="midnightblue" stroke="midnightblue" points="719.76,-37.6589 730.211,-35.9223 720.958,-30.7622 719.76,-37.6589"/>
</g>
<!-- Node11&#45;&gt;Node4 -->
<g id="edge14" class="edge"><title>Node11&#45;&gt;Node4</title>
<path fill="none" stroke="midnightblue" d="M615.064,-69.0114C660.872,-89.1978 741.669,-124.803 785.904,-144.297"/>
<polygon fill="midnightblue" stroke="midnightblue" points="784.72,-147.6 795.282,-148.43 787.543,-141.194 784.72,-147.6"/>
</g>
<!-- Node12&#45;&gt;Node7 -->
<g id="edge16" class="edge"><title>Node12&#45;&gt;Node7</title>
<path fill="none" stroke="midnightblue" d="M667.538,-237.067C684.693,-238.666 702.805,-240.355 720.274,-241.983"/>
<polygon fill="midnightblue" stroke="midnightblue" points="720.191,-245.491 730.473,-242.934 720.841,-238.521 720.191,-245.491"/>
</g>
<!-- Node14 -->
<g id="node14" class="node"><title>Node14</title>
<g id="a_node14"><a xlink:href="../../d8/d83/classcellsociety__team02_1_1_factory.html#a9a3a57b7db2c081b18c27c829e875bf4" target="_top" xlink:title="cellsociety_team02.Factory.make\lRandomCell">
<polygon fill="white" stroke="black" points="492.5,-302 492.5,-332 667.5,-332 667.5,-302 492.5,-302"/>
<text text-anchor="start" x="500.5" y="-320" font-family="Helvetica,sans-Serif" font-size="10.00">cellsociety_team02.Factory.make</text>
<text text-anchor="middle" x="580" y="-309" font-family="Helvetica,sans-Serif" font-size="10.00">RandomCell</text>
</a>
</g>
</g>
<!-- Node13&#45;&gt;Node14 -->
<g id="edge18" class="edge"><title>Node13&#45;&gt;Node14</title>
<path fill="none" stroke="midnightblue" d="M438.173,-317C452.575,-317 467.583,-317 482.204,-317"/>
<polygon fill="midnightblue" stroke="midnightblue" points="482.252,-320.5 492.252,-317 482.252,-313.5 482.252,-320.5"/>
</g>
<!-- Node15 -->
<g id="node15" class="node"><title>Node15</title>
<g id="a_node15"><a xlink:href="../../d8/d83/classcellsociety__team02_1_1_factory.html#a9584d58dc748c1f625ea2cfc66c5387d" target="_top" xlink:title="cellsociety_team02.Factory.make\lRandomPatch">
<polygon fill="white" stroke="black" points="492.5,-351 492.5,-381 667.5,-381 667.5,-351 492.5,-351"/>
<text text-anchor="start" x="500.5" y="-369" font-family="Helvetica,sans-Serif" font-size="10.00">cellsociety_team02.Factory.make</text>
<text text-anchor="middle" x="580" y="-358" font-family="Helvetica,sans-Serif" font-size="10.00">RandomPatch</text>
</a>
</g>
</g>
<!-- Node13&#45;&gt;Node15 -->
<g id="edge20" class="edge"><title>Node13&#45;&gt;Node15</title>
<path fill="none" stroke="midnightblue" d="M420.957,-332.035C445.687,-337.349 473.685,-343.367 499.172,-348.844"/>
<polygon fill="midnightblue" stroke="midnightblue" points="498.663,-352.314 509.175,-350.994 500.134,-345.471 498.663,-352.314"/>
</g>
<!-- Node14&#45;&gt;Node4 -->
<g id="edge19" class="edge"><title>Node14&#45;&gt;Node4</title>
<path fill="none" stroke="midnightblue" d="M607.253,-301.789C628.716,-289.165 659.7,-270.511 686,-253 688.762,-251.161 758.837,-200.265 795.336,-173.744"/>
<polygon fill="midnightblue" stroke="midnightblue" points="797.799,-176.281 803.831,-167.571 793.684,-170.618 797.799,-176.281"/>
</g>
<!-- Node15&#45;&gt;Node7 -->
<g id="edge21" class="edge"><title>Node15&#45;&gt;Node7</title>
<path fill="none" stroke="midnightblue" d="M658.635,-350.958C668.029,-348.138 677.351,-344.84 686,-341 725.878,-323.294 766.472,-293.124 791.683,-272.643"/>
<polygon fill="midnightblue" stroke="midnightblue" points="794.13,-275.162 799.62,-266.1 789.678,-269.76 794.13,-275.162"/>
</g>
</g>
</svg>
        <g id="navigator" transform="translate(0 0)" fill="#404254">
                <rect fill="#f2f5e9" fill-opacity="0.5" stroke="#606060" stroke-width=".5" x="0" y="0" width="60" height="60"/>
                <use id="zoomplus" xlink:href="#zoomPlus" x="17" y="9" onmousedown="handleZoom(evt,'in')"/>
                <use id="zoomminus" xlink:href="#zoomMin" x="42" y="9" onmousedown="handleZoom(evt,'out')"/>
                <use id="reset" xlink:href="#resetDef" x="30" y="36" onmousedown="handleReset()"/>
                <g id="arrowUp" xlink:href="#dirArrow" transform="translate(30 24)" onmousedown="handlePan(0,-1)">
                  <use xlink:href="#rim" fill="#404040">
                        <set attributeName="fill" to="#808080" begin="arrowUp.mouseover" end="arrowUp.mouseout"/>
                  </use>
                  <path fill="none" stroke="white" stroke-width="1.5" d="M0,-3.0v7 M-2.5,-0.5L0,-3.0L2.5,-0.5"/>
                </g>
                <g id="arrowRight" xlink:href="#dirArrow" transform="rotate(90) translate(36 -43)" onmousedown="handlePan(1,0)">
                  <use xlink:href="#rim" fill="#404040">
                        <set attributeName="fill" to="#808080" begin="arrowRight.mouseover" end="arrowRight.mouseout"/>
                  </use>
                  <path fill="none" stroke="white" stroke-width="1.5" d="M0,-3.0v7 M-2.5,-0.5L0,-3.0L2.5,-0.5"/>
                </g>
                <g id="arrowDown" xlink:href="#dirArrow" transform="rotate(180) translate(-30 -48)" onmousedown="handlePan(0,1)">
                  <use xlink:href="#rim" fill="#404040">
                        <set attributeName="fill" to="#808080" begin="arrowDown.mouseover" end="arrowDown.mouseout"/>
                  </use>
                  <path fill="none" stroke="white" stroke-width="1.5" d="M0,-3.0v7 M-2.5,-0.5L0,-3.0L2.5,-0.5"/>
                </g>
                <g id="arrowLeft" xlink:href="#dirArrow" transform="rotate(270) translate(-36 17)" onmousedown="handlePan(-1,0)">
                  <use xlink:href="#rim" fill="#404040">
                        <set attributeName="fill" to="#808080" begin="arrowLeft.mouseover" end="arrowLeft.mouseout"/>
                  </use>
                  <path fill="none" stroke="white" stroke-width="1.5" d="M0,-3.0v7 M-2.5,-0.5L0,-3.0L2.5,-0.5"/>
                </g>
        </g>
        <svg viewBox="0 0 15 15" width="100%" height="30px" preserveAspectRatio="xMaxYMin meet">
         <g id="arrow_out" transform="scale(0.3 0.3)">
          <a xlink:href="classcellsociety__team02_1_1_x_m_l_parser_adb7ffd2c43825ff504405060ff20178f_cgraph_org.svg" target="_base">
           <rect id="button" ry="5" rx="5" y="6" x="6" height="38" width="38"
                fill="#f2f5e9" fill-opacity="0.5" stroke="#606060" stroke-width="1.0"/>
           <path id="arrow"
             d="M 11.500037,31.436501 C 11.940474,20.09759 22.043105,11.32322 32.158766,21.979434 L 37.068811,17.246167 C 37.068811,17.246167 37.088388,32 37.088388,32 L 22.160133,31.978069 C 22.160133,31.978069 26.997745,27.140456 26.997745,27.140456 C 18.528582,18.264221 13.291696,25.230495 11.500037,31.436501 z"
             style="fill:#404040;"/>
          </a>
         </g>
        </svg>
</svg>
