<?xml version="1.0" encoding="UTF-8" standalone="no"?>
<!DOCTYPE svg PUBLIC "-//W3C//DTD SVG 1.1//EN"
 "http://www.w3.org/Graphics/SVG/1.1/DTD/svg11.dtd">
<!-- Generated by graphviz version 2.36.0 (20140111.2315)
 -->
<!-- Title: cellsociety_team02.XMLParser.getAttribute Pages: 1 -->
<svg width="2226pt" height="135pt"
 viewBox="0.00 0.00 2226.00 134.59" xmlns="http://www.w3.org/2000/svg" xmlns:xlink="http://www.w3.org/1999/xlink">
<g id="graph0" class="graph" transform="scale(1 1) rotate(0) translate(4 130.595)">
<title>cellsociety_team02.XMLParser.getAttribute</title>
<polygon fill="white" stroke="none" points="-4,4 -4,-130.595 2222,-130.595 2222,4 -4,4"/>
<!-- Node1 -->
<g id="node1" class="node"><title>Node1</title>
<polygon fill="#bfbfbf" stroke="black" points="0.5,-26.5949 0.5,-56.5949 179.5,-56.5949 179.5,-26.5949 0.5,-26.5949"/>
<text text-anchor="start" x="8.5" y="-44.5949" font-family="Helvetica,sans-Serif" font-size="10.00">cellsociety_team02.XMLParser.get</text>
<text text-anchor="middle" x="90" y="-33.5949" font-family="Helvetica,sans-Serif" font-size="10.00">Attribute</text>
</g>
<!-- Node2 -->
<g id="node2" class="node"><title>Node2</title>
<g id="a_node2"><a xlink:href="../../d9/db5/classcellsociety__team02_1_1_x_m_l_parser.html#a98df6887ba7b6cd85f33e6943ff58e49" target="_top" xlink:title="cellsociety_team02.XMLParser.do\lGiven">
<polygon fill="white" stroke="black" points="234,-94.5949 234,-124.595 410,-124.595 410,-94.5949 234,-94.5949"/>
<text text-anchor="start" x="242" y="-112.595" font-family="Helvetica,sans-Serif" font-size="10.00">cellsociety_team02.XMLParser.do</text>
<text text-anchor="middle" x="322" y="-101.595" font-family="Helvetica,sans-Serif" font-size="10.00">Given</text>
</a>
</g>
</g>
<!-- Node1&#45;&gt;Node2 -->
<g id="edge1" class="edge"><title>Node1&#45;&gt;Node2</title>
<path fill="none" stroke="midnightblue" d="M151.4,-59.4522C188.289,-70.3587 234.94,-84.1511 269.973,-94.5088"/>
<polygon fill="midnightblue" stroke="midnightblue" points="152.341,-56.0809 141.759,-56.602 150.357,-62.7937 152.341,-56.0809"/>
</g>
<!-- Node11 -->
<g id="node11" class="node"><title>Node11</title>
<g id="a_node11"><a xlink:href="../../d9/db5/classcellsociety__team02_1_1_x_m_l_parser.html#ad3832583a0c6236760288a3122d04c3a" target="_top" xlink:title="cellsociety_team02.XMLParser.initialize">
<polygon fill="white" stroke="black" points="704,-9.09492 704,-28.0949 906,-28.0949 906,-9.09492 704,-9.09492"/>
<text text-anchor="middle" x="805" y="-16.0949" font-family="Helvetica,sans-Serif" font-size="10.00">cellsociety_team02.XMLParser.initialize</text>
</a>
</g>
</g>
<!-- Node1&#45;&gt;Node11 -->
<g id="edge12" class="edge"><title>Node1&#45;&gt;Node11</title>
<path fill="none" stroke="midnightblue" d="M189.683,-25.8609C198.57,-24.6662 207.441,-23.5545 216,-22.5949 410.501,-0.788355 460.498,4.63118 656,-4.59492 676.109,-5.54389 697.703,-7.21427 718.011,-9.07834"/>
<polygon fill="midnightblue" stroke="midnightblue" points="189.087,-22.4098 179.658,-27.2413 190.042,-29.3443 189.087,-22.4098"/>
</g>
<!-- Node12 -->
<g id="node12" class="node"><title>Node12</title>
<g id="a_node12"><a xlink:href="../../d9/db5/classcellsociety__team02_1_1_x_m_l_parser.html#a97985012667a5a937c89cf19fa6f20d1" target="_top" xlink:title="cellsociety_team02.XMLParser.makeMap">
<polygon fill="white" stroke="black" points="216.5,-32.0949 216.5,-51.0949 427.5,-51.0949 427.5,-32.0949 216.5,-32.0949"/>
<text text-anchor="middle" x="322" y="-39.0949" font-family="Helvetica,sans-Serif" font-size="10.00">cellsociety_team02.XMLParser.makeMap</text>
</a>
</g>
</g>
<!-- Node1&#45;&gt;Node12 -->
<g id="edge14" class="edge"><title>Node1&#45;&gt;Node12</title>
<path fill="none" stroke="midnightblue" d="M189.823,-41.5949C198.596,-41.5949 207.497,-41.5949 216.317,-41.5949"/>
<polygon fill="midnightblue" stroke="midnightblue" points="189.595,-38.095 179.595,-41.5949 189.595,-45.095 189.595,-38.095"/>
</g>
<!-- Node3 -->
<g id="node3" class="node"><title>Node3</title>
<g id="a_node3"><a xlink:href="../../d9/db5/classcellsociety__team02_1_1_x_m_l_parser.html#adb7ffd2c43825ff504405060ff20178f" target="_top" xlink:title="cellsociety_team02.XMLParser.constructList">
<polygon fill="white" stroke="black" points="692.5,-91.0949 692.5,-110.095 917.5,-110.095 917.5,-91.0949 692.5,-91.0949"/>
<text text-anchor="middle" x="805" y="-98.0949" font-family="Helvetica,sans-Serif" font-size="10.00">cellsociety_team02.XMLParser.constructList</text>
</a>
</g>
</g>
<!-- Node2&#45;&gt;Node3 -->
<g id="edge2" class="edge"><title>Node2&#45;&gt;Node3</title>
<path fill="none" stroke="midnightblue" d="M420.5,-107.771C499.154,-106.299 609.85,-104.228 692.109,-102.689"/>
<polygon fill="midnightblue" stroke="midnightblue" points="420.038,-104.279 410.105,-107.965 420.169,-111.277 420.038,-104.279"/>
</g>
<!-- Node4 -->
<g id="node4" class="node"><title>Node4</title>
<g id="a_node4"><a xlink:href="../../d9/db5/classcellsociety__team02_1_1_x_m_l_parser.html#aca6776e6016ac742ace5f43d33a03c74" target="_top" xlink:title="cellsociety_team02.XMLParser.make\lCells">
<polygon fill="white" stroke="black" points="954.5,-47.5949 954.5,-77.5949 1145.5,-77.5949 1145.5,-47.5949 954.5,-47.5949"/>
<text text-anchor="start" x="962.5" y="-65.5949" font-family="Helvetica,sans-Serif" font-size="10.00">cellsociety_team02.XMLParser.make</text>
<text text-anchor="middle" x="1050" y="-54.5949" font-family="Helvetica,sans-Serif" font-size="10.00">Cells</text>
</a>
</g>
</g>
<!-- Node3&#45;&gt;Node4 -->
<g id="edge3" class="edge"><title>Node3&#45;&gt;Node4</title>
<path fill="none" stroke="midnightblue" d="M877.143,-89.4697C901.291,-85.6934 928.664,-81.4129 954.351,-77.3959"/>
<polygon fill="midnightblue" stroke="midnightblue" points="876.345,-86.0519 867.006,-91.055 877.426,-92.9678 876.345,-86.0519"/>
</g>
<!-- Node10 -->
<g id="node10" class="node"><title>Node10</title>
<g id="a_node10"><a xlink:href="../../d9/db5/classcellsociety__team02_1_1_x_m_l_parser.html#a6183c4600a4c3b22a017485f9ae01d4d" target="_top" xlink:title="cellsociety_team02.XMLParser.make\lPatches">
<polygon fill="white" stroke="black" points="954.5,-96.5949 954.5,-126.595 1145.5,-126.595 1145.5,-96.5949 954.5,-96.5949"/>
<text text-anchor="start" x="962.5" y="-114.595" font-family="Helvetica,sans-Serif" font-size="10.00">cellsociety_team02.XMLParser.make</text>
<text text-anchor="middle" x="1050" y="-103.595" font-family="Helvetica,sans-Serif" font-size="10.00">Patches</text>
</a>
</g>
</g>
<!-- Node3&#45;&gt;Node10 -->
<g id="edge10" class="edge"><title>Node3&#45;&gt;Node10</title>
<path fill="none" stroke="midnightblue" d="M927.696,-106.104C936.697,-106.511 945.697,-106.919 954.498,-107.317"/>
<polygon fill="midnightblue" stroke="midnightblue" points="927.691,-102.6 917.543,-105.644 927.375,-109.593 927.691,-102.6"/>
</g>
<!-- Node5 -->
<g id="node5" class="node"><title>Node5</title>
<g id="a_node5"><a xlink:href="../../df/d71/classcellsociety__team02_1_1_grid_model.html#a3884a4fa7f5f19b71ea5a1c2a54fe817" target="_top" xlink:title="cellsociety_team02.GridModel.load">
<polygon fill="white" stroke="black" points="1182.5,-53.0949 1182.5,-72.0949 1365.5,-72.0949 1365.5,-53.0949 1182.5,-53.0949"/>
<text text-anchor="middle" x="1274" y="-60.0949" font-family="Helvetica,sans-Serif" font-size="10.00">cellsociety_team02.GridModel.load</text>
</a>
</g>
</g>
<!-- Node4&#45;&gt;Node5 -->
<g id="edge4" class="edge"><title>Node4&#45;&gt;Node5</title>
<path fill="none" stroke="midnightblue" d="M1155.8,-62.5949C1164.69,-62.5949 1173.63,-62.5949 1182.4,-62.5949"/>
<polygon fill="midnightblue" stroke="midnightblue" points="1155.79,-59.095 1145.79,-62.5949 1155.79,-66.095 1155.79,-59.095"/>
</g>
<!-- Node6 -->
<g id="node6" class="node"><title>Node6</title>
<g id="a_node6"><a xlink:href="../../d9/daf/classcellsociety__team02_1_1_grid_view.html#aa0cb15c1acd15c18573648b8df447752" target="_top" xlink:title="cellsociety_team02.GridView.load">
<polygon fill="white" stroke="black" points="1402,-53.0949 1402,-72.0949 1578,-72.0949 1578,-53.0949 1402,-53.0949"/>
<text text-anchor="middle" x="1490" y="-60.0949" font-family="Helvetica,sans-Serif" font-size="10.00">cellsociety_team02.GridView.load</text>
</a>
</g>
</g>
<!-- Node5&#45;&gt;Node6 -->
<g id="edge5" class="edge"><title>Node5&#45;&gt;Node6</title>
<path fill="none" stroke="midnightblue" d="M1375.9,-62.5949C1384.57,-62.5949 1393.3,-62.5949 1401.85,-62.5949"/>
<polygon fill="midnightblue" stroke="midnightblue" points="1375.76,-59.095 1365.76,-62.5949 1375.76,-66.095 1375.76,-59.095"/>
</g>
<!-- Node7 -->
<g id="node7" class="node"><title>Node7</title>
<g id="a_node7"><a xlink:href="../../d9/daf/classcellsociety__team02_1_1_grid_view.html#ada183e314764db770009f944205490df" target="_top" xlink:title="cellsociety_team02.GridView.\lGridView">
<polygon fill="white" stroke="black" points="2062.5,-48.5949 2062.5,-78.5949 2217.5,-78.5949 2217.5,-48.5949 2062.5,-48.5949"/>
<text text-anchor="start" x="2070.5" y="-66.5949" font-family="Helvetica,sans-Serif" font-size="10.00">cellsociety_team02.GridView.</text>
<text text-anchor="middle" x="2140" y="-55.5949" font-family="Helvetica,sans-Serif" font-size="10.00">GridView</text>
</a>
</g>
</g>
<!-- Node6&#45;&gt;Node7 -->
<g id="edge6" class="edge"><title>Node6&#45;&gt;Node7</title>
<path fill="none" stroke="midnightblue" d="M1588.24,-64.3224C1596.95,-64.4329 1605.63,-64.5269 1614,-64.5949 1773.5,-65.8916 1960.27,-64.9482 2062.49,-64.2213"/>
<polygon fill="midnightblue" stroke="midnightblue" points="1588.06,-60.8198 1578.02,-64.1857 1587.97,-67.8192 1588.06,-60.8198"/>
</g>
<!-- Node8 -->
<g id="node8" class="node"><title>Node8</title>
<g id="a_node8"><a xlink:href="../../d9/daf/classcellsociety__team02_1_1_grid_view.html#afcc7b83f62c116e77ab0843bfd4156b8" target="_top" xlink:title="cellsociety_team02.GridView.make\lButtons">
<polygon fill="white" stroke="black" points="1614,-25.5949 1614,-55.5949 1796,-55.5949 1796,-25.5949 1614,-25.5949"/>
<text text-anchor="start" x="1622" y="-43.5949" font-family="Helvetica,sans-Serif" font-size="10.00">cellsociety_team02.GridView.make</text>
<text text-anchor="middle" x="1705" y="-32.5949" font-family="Helvetica,sans-Serif" font-size="10.00">Buttons</text>
</a>
</g>
</g>
<!-- Node6&#45;&gt;Node8 -->
<g id="edge7" class="edge"><title>Node6&#45;&gt;Node8</title>
<path fill="none" stroke="midnightblue" d="M1588.2,-52.5554C1596.72,-51.6755 1605.32,-50.7874 1613.78,-49.9137"/>
<polygon fill="midnightblue" stroke="midnightblue" points="1587.84,-49.0742 1578.25,-53.5832 1588.56,-56.0372 1587.84,-49.0742"/>
</g>
<!-- Node9 -->
<g id="node9" class="node"><title>Node9</title>
<g id="a_node9"><a xlink:href="../../d9/daf/classcellsociety__team02_1_1_grid_view.html#a4571898657e750f62c2df84cb398e135" target="_top" xlink:title="cellsociety_team02.GridView.initialize">
<polygon fill="white" stroke="black" points="1832,-34.0949 1832,-53.0949 2026,-53.0949 2026,-34.0949 1832,-34.0949"/>
<text text-anchor="middle" x="1929" y="-41.0949" font-family="Helvetica,sans-Serif" font-size="10.00">cellsociety_team02.GridView.initialize</text>
</a>
</g>
</g>
<!-- Node8&#45;&gt;Node9 -->
<g id="edge8" class="edge"><title>Node8&#45;&gt;Node9</title>
<path fill="none" stroke="midnightblue" d="M1806.56,-41.9539C1815.03,-42.0683 1823.57,-42.1837 1832,-42.2976"/>
<polygon fill="midnightblue" stroke="midnightblue" points="1806.34,-38.4507 1796.3,-41.8151 1806.25,-45.45 1806.34,-38.4507"/>
</g>
<!-- Node9&#45;&gt;Node7 -->
<g id="edge9" class="edge"><title>Node9&#45;&gt;Node7</title>
<path fill="none" stroke="midnightblue" d="M2036.48,-53.7841C2045.2,-54.6189 2053.91,-55.452 2062.35,-56.2601"/>
<polygon fill="midnightblue" stroke="midnightblue" points="2036.53,-50.2732 2026.24,-52.8046 2035.86,-57.2414 2036.53,-50.2732"/>
</g>
<!-- Node10&#45;&gt;Node5 -->
<g id="edge11" class="edge"><title>Node10&#45;&gt;Node5</title>
<path fill="none" stroke="midnightblue" d="M1129,-94.3793C1162.86,-86.9061 1201.22,-78.4382 1229.83,-72.1229"/>
<polygon fill="midnightblue" stroke="midnightblue" points="1128.13,-90.9872 1119.12,-96.5603 1129.64,-97.8226 1128.13,-90.9872"/>
</g>
<!-- Node11&#45;&gt;Node5 -->
<g id="edge13" class="edge"><title>Node11&#45;&gt;Node5</title>
<path fill="none" stroke="midnightblue" d="M916.12,-20.8865C982.846,-23.2333 1069.56,-27.9828 1146,-37.5949 1174.98,-41.2398 1207.28,-47.6297 1232.05,-53.0368"/>
<polygon fill="midnightblue" stroke="midnightblue" points="916.119,-17.3846 906.007,-20.5438 915.882,-24.3806 916.119,-17.3846"/>
</g>
<!-- Node13 -->
<g id="node13" class="node"><title>Node13</title>
<g id="a_node13"><a xlink:href="../../d9/db5/classcellsociety__team02_1_1_x_m_l_parser.html#a80db6bc9b1504447995fc08ed6a27527" target="_top" xlink:title="cellsociety_team02.XMLParser.make\lParameterMap">
<polygon fill="white" stroke="black" points="464.5,-14.5949 464.5,-44.5949 655.5,-44.5949 655.5,-14.5949 464.5,-14.5949"/>
<text text-anchor="start" x="472.5" y="-32.5949" font-family="Helvetica,sans-Serif" font-size="10.00">cellsociety_team02.XMLParser.make</text>
<text text-anchor="middle" x="560" y="-21.5949" font-family="Helvetica,sans-Serif" font-size="10.00">ParameterMap</text>
</a>
</g>
</g>
<!-- Node12&#45;&gt;Node13 -->
<g id="edge15" class="edge"><title>Node12&#45;&gt;Node13</title>
<path fill="none" stroke="midnightblue" d="M437.589,-35.7684C446.506,-35.315 455.449,-34.8602 464.214,-34.4146"/>
<polygon fill="midnightblue" stroke="midnightblue" points="437.353,-32.2757 427.544,-36.2791 437.709,-39.2667 437.353,-32.2757"/>
</g>
<!-- Node14 -->
<g id="node14" class="node"><title>Node14</title>
<g id="a_node14"><a xlink:href="../../d9/db5/classcellsociety__team02_1_1_x_m_l_parser.html#a14ccb1cf6658b9c38357d5bc4f176444" target="_top" xlink:title="cellsociety_team02.XMLParser.do\lProbability">
<polygon fill="white" stroke="black" points="472,-63.5949 472,-93.5949 648,-93.5949 648,-63.5949 472,-63.5949"/>
<text text-anchor="start" x="480" y="-81.5949" font-family="Helvetica,sans-Serif" font-size="10.00">cellsociety_team02.XMLParser.do</text>
<text text-anchor="middle" x="560" y="-70.5949" font-family="Helvetica,sans-Serif" font-size="10.00">Probability</text>
</a>
</g>
</g>
<!-- Node12&#45;&gt;Node14 -->
<g id="edge17" class="edge"><title>Node12&#45;&gt;Node14</title>
<path fill="none" stroke="midnightblue" d="M393.714,-52.6815C418.243,-56.5271 446.037,-60.8847 471.74,-64.9144"/>
<polygon fill="midnightblue" stroke="midnightblue" points="394.197,-49.2145 383.776,-51.1233 393.113,-56.1301 394.197,-49.2145"/>
</g>
<!-- Node13&#45;&gt;Node11 -->
<g id="edge16" class="edge"><title>Node13&#45;&gt;Node11</title>
<path fill="none" stroke="midnightblue" d="M665.756,-24.8529C678.443,-24.2786 691.377,-23.6931 703.993,-23.122"/>
<polygon fill="midnightblue" stroke="midnightblue" points="665.477,-21.3618 655.646,-25.3105 665.794,-28.3547 665.477,-21.3618"/>
</g>
<!-- Node14&#45;&gt;Node3 -->
<g id="edge18" class="edge"><title>Node14&#45;&gt;Node3</title>
<path fill="none" stroke="midnightblue" d="M658.186,-87.3937C671.571,-88.6055 685.367,-89.8545 698.887,-91.0785"/>
<polygon fill="midnightblue" stroke="midnightblue" points="658.317,-83.8913 648.042,-86.4753 657.686,-90.8628 658.317,-83.8913"/>
</g>
</g>
</svg>
