<?xml version="1.0" encoding="UTF-8" standalone="no"?>
<!DOCTYPE svg PUBLIC "-//W3C//DTD SVG 1.1//EN"
 "http://www.w3.org/Graphics/SVG/1.1/DTD/svg11.dtd">
<!-- Generated by graphviz version 2.36.0 (20140111.2315)
 -->
<!-- Title: cellsociety_team02.XMLParser.doProbability Pages: 1 -->
<svg width="1036pt" height="131pt"
 viewBox="0.00 0.00 1036.00 131.00" xmlns="http://www.w3.org/2000/svg" xmlns:xlink="http://www.w3.org/1999/xlink">
<g id="graph0" class="graph" transform="scale(1 1) rotate(0) translate(4 127)">
<title>cellsociety_team02.XMLParser.doProbability</title>
<polygon fill="white" stroke="none" points="-4,4 -4,-127 1032,-127 1032,4 -4,4"/>
<!-- Node1 -->
<g id="node1" class="node"><title>Node1</title>
<polygon fill="#bfbfbf" stroke="black" points="0,-49 0,-79 176,-79 176,-49 0,-49"/>
<text text-anchor="start" x="8" y="-67" font-family="Helvetica,sans-Serif" font-size="10.00">cellsociety_team02.XMLParser.do</text>
<text text-anchor="middle" x="88" y="-56" font-family="Helvetica,sans-Serif" font-size="10.00">Probability</text>
</g>
<!-- Node2 -->
<g id="node2" class="node"><title>Node2</title>
<g id="a_node2"><a xlink:href="../../d9/db5/classcellsociety__team02_1_1_x_m_l_parser.html#a97985012667a5a937c89cf19fa6f20d1" target="_top" xlink:title="cellsociety_team02.XMLParser.makeMap">
<polygon fill="white" stroke="black" points="212.5,-98.5 212.5,-117.5 423.5,-117.5 423.5,-98.5 212.5,-98.5"/>
<text text-anchor="middle" x="318" y="-105.5" font-family="Helvetica,sans-Serif" font-size="10.00">cellsociety_team02.XMLParser.makeMap</text>
</a>
</g>
</g>
<!-- Node1&#45;&gt;Node2 -->
<g id="edge1" class="edge"><title>Node1&#45;&gt;Node2</title>
<path fill="none" stroke="midnightblue" d="M165.757,-79.032C181.073,-82.0159 197.046,-85.1168 212,-88 226.509,-90.7973 242.15,-93.7893 256.816,-96.5843"/>
<polygon fill="midnightblue" stroke="midnightblue" points="256.309,-100.051 266.787,-98.483 257.618,-93.1742 256.309,-100.051"/>
</g>
<!-- Node4 -->
<g id="node4" class="node"><title>Node4</title>
<g id="a_node4"><a xlink:href="../../d8/d83/classcellsociety__team02_1_1_factory.html#a401a66128090c8dd98191986b9db5536" target="_top" xlink:title="cellsociety_team02.Factory.make\lProbCell">
<polygon fill="white" stroke="black" points="230.5,-49 230.5,-79 405.5,-79 405.5,-49 230.5,-49"/>
<text text-anchor="start" x="238.5" y="-67" font-family="Helvetica,sans-Serif" font-size="10.00">cellsociety_team02.Factory.make</text>
<text text-anchor="middle" x="318" y="-56" font-family="Helvetica,sans-Serif" font-size="10.00">ProbCell</text>
</a>
</g>
</g>
<!-- Node1&#45;&gt;Node4 -->
<g id="edge3" class="edge"><title>Node1&#45;&gt;Node4</title>
<path fill="none" stroke="midnightblue" d="M176.173,-64C190.575,-64 205.583,-64 220.204,-64"/>
<polygon fill="midnightblue" stroke="midnightblue" points="220.252,-67.5001 230.252,-64 220.252,-60.5001 220.252,-67.5001"/>
</g>
<!-- Node8 -->
<g id="node8" class="node"><title>Node8</title>
<g id="a_node8"><a xlink:href="../../d8/d83/classcellsociety__team02_1_1_factory.html#a41025b16b7c31c3e6e4c6fdef34898ae" target="_top" xlink:title="cellsociety_team02.Factory.make\lProbPatch">
<polygon fill="white" stroke="black" points="230.5,-0 230.5,-30 405.5,-30 405.5,-0 230.5,-0"/>
<text text-anchor="start" x="238.5" y="-18" font-family="Helvetica,sans-Serif" font-size="10.00">cellsociety_team02.Factory.make</text>
<text text-anchor="middle" x="318" y="-7" font-family="Helvetica,sans-Serif" font-size="10.00">ProbPatch</text>
</a>
</g>
</g>
<!-- Node1&#45;&gt;Node8 -->
<g id="edge7" class="edge"><title>Node1&#45;&gt;Node8</title>
<path fill="none" stroke="midnightblue" d="M158.957,-48.9654C183.687,-43.6506 211.685,-37.6335 237.172,-32.156"/>
<polygon fill="midnightblue" stroke="midnightblue" points="238.134,-35.5293 247.175,-30.0062 236.663,-28.6855 238.134,-35.5293"/>
</g>
<!-- Node3 -->
<g id="node3" class="node"><title>Node3</title>
<g id="a_node3"><a xlink:href="../../d9/db5/classcellsociety__team02_1_1_x_m_l_parser.html#af9e2438fd8fa09e5d6b2d252afa13b1a" target="_top" xlink:title="cellsociety_team02.XMLParser.get\lAttribute">
<polygon fill="white" stroke="black" points="466.5,-93 466.5,-123 645.5,-123 645.5,-93 466.5,-93"/>
<text text-anchor="start" x="474.5" y="-111" font-family="Helvetica,sans-Serif" font-size="10.00">cellsociety_team02.XMLParser.get</text>
<text text-anchor="middle" x="556" y="-100" font-family="Helvetica,sans-Serif" font-size="10.00">Attribute</text>
</a>
</g>
</g>
<!-- Node2&#45;&gt;Node3 -->
<g id="edge2" class="edge"><title>Node2&#45;&gt;Node3</title>
<path fill="none" stroke="midnightblue" d="M423.544,-108C434.382,-108 445.373,-108 456.146,-108"/>
<polygon fill="midnightblue" stroke="midnightblue" points="456.396,-111.5 466.396,-108 456.396,-104.5 456.396,-111.5"/>
</g>
<!-- Node5 -->
<g id="node5" class="node"><title>Node5</title>
<g id="a_node5"><a xlink:href="../../d8/d83/classcellsociety__team02_1_1_factory.html#a73f7de8ac528a17623c911f59dc28325" target="_top" xlink:title="cellsociety_team02.Factory.makeCell">
<polygon fill="white" stroke="black" points="460,-54.5 460,-73.5 652,-73.5 652,-54.5 460,-54.5"/>
<text text-anchor="middle" x="556" y="-61.5" font-family="Helvetica,sans-Serif" font-size="10.00">cellsociety_team02.Factory.makeCell</text>
</a>
</g>
</g>
<!-- Node4&#45;&gt;Node5 -->
<g id="edge4" class="edge"><title>Node4&#45;&gt;Node5</title>
<path fill="none" stroke="midnightblue" d="M405.538,-64C419.86,-64 434.85,-64 449.576,-64"/>
<polygon fill="midnightblue" stroke="midnightblue" points="449.717,-67.5001 459.717,-64 449.717,-60.5001 449.717,-67.5001"/>
</g>
<!-- Node6 -->
<g id="node6" class="node"><title>Node6</title>
<g id="a_node6"><a xlink:href="../../d4/df2/class_cell_1_1_pred_prey_cell.html#ab682decb39c5e4f952c7c85929411f6f" target="_top" xlink:title="Cell.PredPreyCell.makeCell">
<polygon fill="white" stroke="black" points="688,-54.5 688,-73.5 832,-73.5 832,-54.5 688,-54.5"/>
<text text-anchor="middle" x="760" y="-61.5" font-family="Helvetica,sans-Serif" font-size="10.00">Cell.PredPreyCell.makeCell</text>
</a>
</g>
</g>
<!-- Node5&#45;&gt;Node6 -->
<g id="edge5" class="edge"><title>Node5&#45;&gt;Node6</title>
<path fill="none" stroke="midnightblue" d="M652.085,-64C660.67,-64 669.311,-64 677.761,-64"/>
<polygon fill="midnightblue" stroke="midnightblue" points="677.956,-67.5001 687.955,-64 677.955,-60.5001 677.956,-67.5001"/>
</g>
<!-- Node7 -->
<g id="node7" class="node"><title>Node7</title>
<g id="a_node7"><a xlink:href="../../d4/df2/class_cell_1_1_pred_prey_cell.html#a218b10c89861e5cbc826511d9b35b1ae" target="_top" xlink:title="Cell.PredPreyCell.PredPreyCell">
<polygon fill="white" stroke="black" points="868,-54.5 868,-73.5 1028,-73.5 1028,-54.5 868,-54.5"/>
<text text-anchor="middle" x="948" y="-61.5" font-family="Helvetica,sans-Serif" font-size="10.00">Cell.PredPreyCell.PredPreyCell</text>
</a>
</g>
</g>
<!-- Node6&#45;&gt;Node7 -->
<g id="edge6" class="edge"><title>Node6&#45;&gt;Node7</title>
<path fill="none" stroke="midnightblue" d="M832.115,-64C840.518,-64 849.174,-64 857.786,-64"/>
<polygon fill="midnightblue" stroke="midnightblue" points="857.859,-67.5001 867.859,-64 857.859,-60.5001 857.859,-67.5001"/>
</g>
<!-- Node9 -->
<g id="node9" class="node"><title>Node9</title>
<g id="a_node9"><a xlink:href="../../d8/d83/classcellsociety__team02_1_1_factory.html#aa3a1a4e218cc6529b3b2e56cd5f8cfff" target="_top" xlink:title="cellsociety_team02.Factory.make\lPatch">
<polygon fill="white" stroke="black" points="468.5,-0 468.5,-30 643.5,-30 643.5,-0 468.5,-0"/>
<text text-anchor="start" x="476.5" y="-18" font-family="Helvetica,sans-Serif" font-size="10.00">cellsociety_team02.Factory.make</text>
<text text-anchor="middle" x="556" y="-7" font-family="Helvetica,sans-Serif" font-size="10.00">Patch</text>
</a>
</g>
</g>
<!-- Node8&#45;&gt;Node9 -->
<g id="edge8" class="edge"><title>Node8&#45;&gt;Node9</title>
<path fill="none" stroke="midnightblue" d="M405.538,-15C422.693,-15 440.805,-15 458.274,-15"/>
<polygon fill="midnightblue" stroke="midnightblue" points="458.473,-18.5001 468.473,-15 458.473,-11.5001 458.473,-18.5001"/>
</g>
</g>
</svg>
