<?xml version="1.0" encoding="UTF-8" standalone="no"?>
<!DOCTYPE svg PUBLIC "-//W3C//DTD SVG 1.1//EN"
 "http://www.w3.org/Graphics/SVG/1.1/DTD/svg11.dtd">
<!-- Generated by graphviz version 2.36.0 (20140111.2315)
 -->
<!-- Title: cellsociety_team02.XMLParser.doGiven Pages: 1 -->
<svg width="1746pt" height="87pt"
 viewBox="0.00 0.00 1746.00 87.00" xmlns="http://www.w3.org/2000/svg" xmlns:xlink="http://www.w3.org/1999/xlink">
<g id="graph0" class="graph" transform="scale(1 1) rotate(0) translate(4 83)">
<title>cellsociety_team02.XMLParser.doGiven</title>
<polygon fill="white" stroke="none" points="-4,4 -4,-83 1742,-83 1742,4 -4,4"/>
<!-- Node1 -->
<g id="node1" class="node"><title>Node1</title>
<polygon fill="#bfbfbf" stroke="black" points="0,-24 0,-54 176,-54 176,-24 0,-24"/>
<text text-anchor="start" x="8" y="-42" font-family="Helvetica,sans-Serif" font-size="10.00">cellsociety_team02.XMLParser.do</text>
<text text-anchor="middle" x="88" y="-31" font-family="Helvetica,sans-Serif" font-size="10.00">Given</text>
</g>
<!-- Node2 -->
<g id="node2" class="node"><title>Node2</title>
<g id="a_node2"><a xlink:href="../../d9/db5/classcellsociety__team02_1_1_x_m_l_parser.html#adb7ffd2c43825ff504405060ff20178f" target="_top" xlink:title="cellsociety_team02.XMLParser.constructList">
<polygon fill="white" stroke="black" points="212.5,-29.5 212.5,-48.5 437.5,-48.5 437.5,-29.5 212.5,-29.5"/>
<text text-anchor="middle" x="325" y="-36.5" font-family="Helvetica,sans-Serif" font-size="10.00">cellsociety_team02.XMLParser.constructList</text>
</a>
</g>
</g>
<!-- Node1&#45;&gt;Node2 -->
<g id="edge1" class="edge"><title>Node1&#45;&gt;Node2</title>
<path fill="none" stroke="midnightblue" d="M186.182,-39C194.778,-39 203.524,-39 212.228,-39"/>
<polygon fill="midnightblue" stroke="midnightblue" points="186.171,-35.5001 176.171,-39 186.171,-42.5001 186.171,-35.5001"/>
</g>
<!-- Node3 -->
<g id="node3" class="node"><title>Node3</title>
<g id="a_node3"><a xlink:href="../../d9/db5/classcellsociety__team02_1_1_x_m_l_parser.html#aca6776e6016ac742ace5f43d33a03c74" target="_top" xlink:title="cellsociety_team02.XMLParser.make\lCells">
<polygon fill="white" stroke="black" points="474.5,-49 474.5,-79 665.5,-79 665.5,-49 474.5,-49"/>
<text text-anchor="start" x="482.5" y="-67" font-family="Helvetica,sans-Serif" font-size="10.00">cellsociety_team02.XMLParser.make</text>
<text text-anchor="middle" x="570" y="-56" font-family="Helvetica,sans-Serif" font-size="10.00">Cells</text>
</a>
</g>
</g>
<!-- Node2&#45;&gt;Node3 -->
<g id="edge2" class="edge"><title>Node2&#45;&gt;Node3</title>
<path fill="none" stroke="midnightblue" d="M428.907,-49.5872C443.959,-51.1357 459.4,-52.7243 474.278,-54.2549"/>
<polygon fill="midnightblue" stroke="midnightblue" points="428.867,-46.0646 418.561,-48.5227 428.15,-53.0279 428.867,-46.0646"/>
</g>
<!-- Node9 -->
<g id="node9" class="node"><title>Node9</title>
<g id="a_node9"><a xlink:href="../../d9/db5/classcellsociety__team02_1_1_x_m_l_parser.html#a6183c4600a4c3b22a017485f9ae01d4d" target="_top" xlink:title="cellsociety_team02.XMLParser.make\lPatches">
<polygon fill="white" stroke="black" points="474.5,-0 474.5,-30 665.5,-30 665.5,-0 474.5,-0"/>
<text text-anchor="start" x="482.5" y="-18" font-family="Helvetica,sans-Serif" font-size="10.00">cellsociety_team02.XMLParser.make</text>
<text text-anchor="middle" x="570" y="-7" font-family="Helvetica,sans-Serif" font-size="10.00">Patches</text>
</a>
</g>
</g>
<!-- Node2&#45;&gt;Node9 -->
<g id="edge9" class="edge"><title>Node2&#45;&gt;Node9</title>
<path fill="none" stroke="midnightblue" d="M432.473,-28.4841C446.402,-27.1084 460.599,-25.7063 474.315,-24.3516"/>
<polygon fill="midnightblue" stroke="midnightblue" points="431.997,-25.0141 422.389,-29.4801 432.685,-31.9802 431.997,-25.0141"/>
</g>
<!-- Node4 -->
<g id="node4" class="node"><title>Node4</title>
<g id="a_node4"><a xlink:href="../../df/d71/classcellsociety__team02_1_1_grid_model.html#a3884a4fa7f5f19b71ea5a1c2a54fe817" target="_top" xlink:title="cellsociety_team02.GridModel.load">
<polygon fill="white" stroke="black" points="702.5,-29.5 702.5,-48.5 885.5,-48.5 885.5,-29.5 702.5,-29.5"/>
<text text-anchor="middle" x="794" y="-36.5" font-family="Helvetica,sans-Serif" font-size="10.00">cellsociety_team02.GridModel.load</text>
</a>
</g>
</g>
<!-- Node3&#45;&gt;Node4 -->
<g id="edge3" class="edge"><title>Node3&#45;&gt;Node4</title>
<path fill="none" stroke="midnightblue" d="M675.782,-52.2002C686.699,-50.9709 697.696,-49.7325 708.349,-48.5328"/>
<polygon fill="midnightblue" stroke="midnightblue" points="675.337,-48.7281 665.792,-53.3252 676.121,-55.6841 675.337,-48.7281"/>
</g>
<!-- Node5 -->
<g id="node5" class="node"><title>Node5</title>
<g id="a_node5"><a xlink:href="../../d9/daf/classcellsociety__team02_1_1_grid_view.html#aa0cb15c1acd15c18573648b8df447752" target="_top" xlink:title="cellsociety_team02.GridView.load">
<polygon fill="white" stroke="black" points="922,-29.5 922,-48.5 1098,-48.5 1098,-29.5 922,-29.5"/>
<text text-anchor="middle" x="1010" y="-36.5" font-family="Helvetica,sans-Serif" font-size="10.00">cellsociety_team02.GridView.load</text>
</a>
</g>
</g>
<!-- Node4&#45;&gt;Node5 -->
<g id="edge4" class="edge"><title>Node4&#45;&gt;Node5</title>
<path fill="none" stroke="midnightblue" d="M895.9,-39C904.574,-39 913.302,-39 921.854,-39"/>
<polygon fill="midnightblue" stroke="midnightblue" points="895.755,-35.5001 885.755,-39 895.755,-42.5001 895.755,-35.5001"/>
</g>
<!-- Node6 -->
<g id="node6" class="node"><title>Node6</title>
<g id="a_node6"><a xlink:href="../../d9/daf/classcellsociety__team02_1_1_grid_view.html#ada183e314764db770009f944205490df" target="_top" xlink:title="cellsociety_team02.GridView.\lGridView">
<polygon fill="white" stroke="black" points="1582.5,-25 1582.5,-55 1737.5,-55 1737.5,-25 1582.5,-25"/>
<text text-anchor="start" x="1590.5" y="-43" font-family="Helvetica,sans-Serif" font-size="10.00">cellsociety_team02.GridView.</text>
<text text-anchor="middle" x="1660" y="-32" font-family="Helvetica,sans-Serif" font-size="10.00">GridView</text>
</a>
</g>
</g>
<!-- Node5&#45;&gt;Node6 -->
<g id="edge5" class="edge"><title>Node5&#45;&gt;Node6</title>
<path fill="none" stroke="midnightblue" d="M1108.24,-40.7275C1116.95,-40.838 1125.63,-40.932 1134,-41 1293.5,-42.2967 1480.27,-41.3532 1582.49,-40.6264"/>
<polygon fill="midnightblue" stroke="midnightblue" points="1108.06,-37.2249 1098.02,-40.5908 1107.97,-44.2243 1108.06,-37.2249"/>
</g>
<!-- Node7 -->
<g id="node7" class="node"><title>Node7</title>
<g id="a_node7"><a xlink:href="../../d9/daf/classcellsociety__team02_1_1_grid_view.html#afcc7b83f62c116e77ab0843bfd4156b8" target="_top" xlink:title="cellsociety_team02.GridView.make\lButtons">
<polygon fill="white" stroke="black" points="1134,-2 1134,-32 1316,-32 1316,-2 1134,-2"/>
<text text-anchor="start" x="1142" y="-20" font-family="Helvetica,sans-Serif" font-size="10.00">cellsociety_team02.GridView.make</text>
<text text-anchor="middle" x="1225" y="-9" font-family="Helvetica,sans-Serif" font-size="10.00">Buttons</text>
</a>
</g>
</g>
<!-- Node5&#45;&gt;Node7 -->
<g id="edge6" class="edge"><title>Node5&#45;&gt;Node7</title>
<path fill="none" stroke="midnightblue" d="M1108.2,-28.9605C1116.72,-28.0806 1125.32,-27.1924 1133.78,-26.3188"/>
<polygon fill="midnightblue" stroke="midnightblue" points="1107.84,-25.4793 1098.25,-29.9883 1108.56,-32.4423 1107.84,-25.4793"/>
</g>
<!-- Node8 -->
<g id="node8" class="node"><title>Node8</title>
<g id="a_node8"><a xlink:href="../../d9/daf/classcellsociety__team02_1_1_grid_view.html#a4571898657e750f62c2df84cb398e135" target="_top" xlink:title="cellsociety_team02.GridView.initialize">
<polygon fill="white" stroke="black" points="1352,-10.5 1352,-29.5 1546,-29.5 1546,-10.5 1352,-10.5"/>
<text text-anchor="middle" x="1449" y="-17.5" font-family="Helvetica,sans-Serif" font-size="10.00">cellsociety_team02.GridView.initialize</text>
</a>
</g>
</g>
<!-- Node7&#45;&gt;Node8 -->
<g id="edge7" class="edge"><title>Node7&#45;&gt;Node8</title>
<path fill="none" stroke="midnightblue" d="M1326.56,-18.359C1335.03,-18.4733 1343.57,-18.5888 1352,-18.7027"/>
<polygon fill="midnightblue" stroke="midnightblue" points="1326.34,-14.8558 1316.3,-18.2202 1326.25,-21.8551 1326.34,-14.8558"/>
</g>
<!-- Node8&#45;&gt;Node6 -->
<g id="edge8" class="edge"><title>Node8&#45;&gt;Node6</title>
<path fill="none" stroke="midnightblue" d="M1556.48,-30.1892C1565.2,-31.024 1573.91,-31.8571 1582.35,-32.6651"/>
<polygon fill="midnightblue" stroke="midnightblue" points="1556.53,-26.6783 1546.24,-29.2097 1555.86,-33.6465 1556.53,-26.6783"/>
</g>
<!-- Node9&#45;&gt;Node4 -->
<g id="edge10" class="edge"><title>Node9&#45;&gt;Node4</title>
<path fill="none" stroke="midnightblue" d="M675.866,-26.3369C685.567,-27.3856 695.33,-28.4411 704.859,-29.4712"/>
<polygon fill="midnightblue" stroke="midnightblue" points="676.11,-22.843 665.792,-25.2478 675.358,-29.8024 676.11,-22.843"/>
</g>
</g>
</svg>
