<?xml version="1.0" encoding="UTF-8" standalone="no"?>
<!DOCTYPE svg PUBLIC "-//W3C//DTD SVG 1.1//EN"
 "http://www.w3.org/Graphics/SVG/1.1/DTD/svg11.dtd">
<!-- Generated by graphviz version 2.36.0 (20140111.2315)
 -->
<!-- Title: cellsociety_team02.XMLParser.setNullState Pages: 1 -->
<svg width="1962pt" height="87pt"
 viewBox="0.00 0.00 1962.00 87.00" xmlns="http://www.w3.org/2000/svg" xmlns:xlink="http://www.w3.org/1999/xlink">
<g id="graph0" class="graph" transform="scale(1 1) rotate(0) translate(4 83)">
<title>cellsociety_team02.XMLParser.setNullState</title>
<polygon fill="white" stroke="none" points="-4,4 -4,-83 1958,-83 1958,4 -4,4"/>
<!-- Node1 -->
<g id="node1" class="node"><title>Node1</title>
<polygon fill="#bfbfbf" stroke="black" points="0.5,-24 0.5,-54 179.5,-54 179.5,-24 0.5,-24"/>
<text text-anchor="start" x="8.5" y="-42" font-family="Helvetica,sans-Serif" font-size="10.00">cellsociety_team02.XMLParser.set</text>
<text text-anchor="middle" x="90" y="-31" font-family="Helvetica,sans-Serif" font-size="10.00">NullState</text>
</g>
<!-- Node2 -->
<g id="node2" class="node"><title>Node2</title>
<g id="a_node2"><a xlink:href="../../d9/db5/classcellsociety__team02_1_1_x_m_l_parser.html#a98df6887ba7b6cd85f33e6943ff58e49" target="_top" xlink:title="cellsociety_team02.XMLParser.do\lGiven">
<polygon fill="white" stroke="black" points="216,-24 216,-54 392,-54 392,-24 216,-24"/>
<text text-anchor="start" x="224" y="-42" font-family="Helvetica,sans-Serif" font-size="10.00">cellsociety_team02.XMLParser.do</text>
<text text-anchor="middle" x="304" y="-31" font-family="Helvetica,sans-Serif" font-size="10.00">Given</text>
</a>
</g>
</g>
<!-- Node1&#45;&gt;Node2 -->
<g id="edge1" class="edge"><title>Node1&#45;&gt;Node2</title>
<path fill="none" stroke="midnightblue" d="M189.788,-39C198.437,-39 207.15,-39 215.696,-39"/>
<polygon fill="midnightblue" stroke="midnightblue" points="189.679,-35.5001 179.679,-39 189.679,-42.5001 189.679,-35.5001"/>
</g>
<!-- Node3 -->
<g id="node3" class="node"><title>Node3</title>
<g id="a_node3"><a xlink:href="../../d9/db5/classcellsociety__team02_1_1_x_m_l_parser.html#adb7ffd2c43825ff504405060ff20178f" target="_top" xlink:title="cellsociety_team02.XMLParser.constructList">
<polygon fill="white" stroke="black" points="428.5,-29.5 428.5,-48.5 653.5,-48.5 653.5,-29.5 428.5,-29.5"/>
<text text-anchor="middle" x="541" y="-36.5" font-family="Helvetica,sans-Serif" font-size="10.00">cellsociety_team02.XMLParser.constructList</text>
</a>
</g>
</g>
<!-- Node2&#45;&gt;Node3 -->
<g id="edge2" class="edge"><title>Node2&#45;&gt;Node3</title>
<path fill="none" stroke="midnightblue" d="M402.182,-39C410.778,-39 419.524,-39 428.228,-39"/>
<polygon fill="midnightblue" stroke="midnightblue" points="402.171,-35.5001 392.171,-39 402.171,-42.5001 402.171,-35.5001"/>
</g>
<!-- Node4 -->
<g id="node4" class="node"><title>Node4</title>
<g id="a_node4"><a xlink:href="../../d9/db5/classcellsociety__team02_1_1_x_m_l_parser.html#aca6776e6016ac742ace5f43d33a03c74" target="_top" xlink:title="cellsociety_team02.XMLParser.make\lCells">
<polygon fill="white" stroke="black" points="690.5,-49 690.5,-79 881.5,-79 881.5,-49 690.5,-49"/>
<text text-anchor="start" x="698.5" y="-67" font-family="Helvetica,sans-Serif" font-size="10.00">cellsociety_team02.XMLParser.make</text>
<text text-anchor="middle" x="786" y="-56" font-family="Helvetica,sans-Serif" font-size="10.00">Cells</text>
</a>
</g>
</g>
<!-- Node3&#45;&gt;Node4 -->
<g id="edge3" class="edge"><title>Node3&#45;&gt;Node4</title>
<path fill="none" stroke="midnightblue" d="M644.907,-49.5872C659.959,-51.1357 675.4,-52.7243 690.278,-54.2549"/>
<polygon fill="midnightblue" stroke="midnightblue" points="644.867,-46.0646 634.561,-48.5227 644.15,-53.0279 644.867,-46.0646"/>
</g>
<!-- Node10 -->
<g id="node10" class="node"><title>Node10</title>
<g id="a_node10"><a xlink:href="../../d9/db5/classcellsociety__team02_1_1_x_m_l_parser.html#a6183c4600a4c3b22a017485f9ae01d4d" target="_top" xlink:title="cellsociety_team02.XMLParser.make\lPatches">
<polygon fill="white" stroke="black" points="690.5,-0 690.5,-30 881.5,-30 881.5,-0 690.5,-0"/>
<text text-anchor="start" x="698.5" y="-18" font-family="Helvetica,sans-Serif" font-size="10.00">cellsociety_team02.XMLParser.make</text>
<text text-anchor="middle" x="786" y="-7" font-family="Helvetica,sans-Serif" font-size="10.00">Patches</text>
</a>
</g>
</g>
<!-- Node3&#45;&gt;Node10 -->
<g id="edge10" class="edge"><title>Node3&#45;&gt;Node10</title>
<path fill="none" stroke="midnightblue" d="M648.473,-28.4841C662.402,-27.1084 676.599,-25.7063 690.315,-24.3516"/>
<polygon fill="midnightblue" stroke="midnightblue" points="647.997,-25.0141 638.389,-29.4801 648.685,-31.9802 647.997,-25.0141"/>
</g>
<!-- Node5 -->
<g id="node5" class="node"><title>Node5</title>
<g id="a_node5"><a xlink:href="../../df/d71/classcellsociety__team02_1_1_grid_model.html#a3884a4fa7f5f19b71ea5a1c2a54fe817" target="_top" xlink:title="cellsociety_team02.GridModel.load">
<polygon fill="white" stroke="black" points="918.5,-29.5 918.5,-48.5 1101.5,-48.5 1101.5,-29.5 918.5,-29.5"/>
<text text-anchor="middle" x="1010" y="-36.5" font-family="Helvetica,sans-Serif" font-size="10.00">cellsociety_team02.GridModel.load</text>
</a>
</g>
</g>
<!-- Node4&#45;&gt;Node5 -->
<g id="edge4" class="edge"><title>Node4&#45;&gt;Node5</title>
<path fill="none" stroke="midnightblue" d="M891.782,-52.2002C902.699,-50.9709 913.696,-49.7325 924.349,-48.5328"/>
<polygon fill="midnightblue" stroke="midnightblue" points="891.337,-48.7281 881.792,-53.3252 892.121,-55.6841 891.337,-48.7281"/>
</g>
<!-- Node6 -->
<g id="node6" class="node"><title>Node6</title>
<g id="a_node6"><a xlink:href="../../d9/daf/classcellsociety__team02_1_1_grid_view.html#aa0cb15c1acd15c18573648b8df447752" target="_top" xlink:title="cellsociety_team02.GridView.load">
<polygon fill="white" stroke="black" points="1138,-29.5 1138,-48.5 1314,-48.5 1314,-29.5 1138,-29.5"/>
<text text-anchor="middle" x="1226" y="-36.5" font-family="Helvetica,sans-Serif" font-size="10.00">cellsociety_team02.GridView.load</text>
</a>
</g>
</g>
<!-- Node5&#45;&gt;Node6 -->
<g id="edge5" class="edge"><title>Node5&#45;&gt;Node6</title>
<path fill="none" stroke="midnightblue" d="M1111.9,-39C1120.57,-39 1129.3,-39 1137.85,-39"/>
<polygon fill="midnightblue" stroke="midnightblue" points="1111.76,-35.5001 1101.76,-39 1111.76,-42.5001 1111.76,-35.5001"/>
</g>
<!-- Node7 -->
<g id="node7" class="node"><title>Node7</title>
<g id="a_node7"><a xlink:href="../../d9/daf/classcellsociety__team02_1_1_grid_view.html#ada183e314764db770009f944205490df" target="_top" xlink:title="cellsociety_team02.GridView.\lGridView">
<polygon fill="white" stroke="black" points="1798.5,-25 1798.5,-55 1953.5,-55 1953.5,-25 1798.5,-25"/>
<text text-anchor="start" x="1806.5" y="-43" font-family="Helvetica,sans-Serif" font-size="10.00">cellsociety_team02.GridView.</text>
<text text-anchor="middle" x="1876" y="-32" font-family="Helvetica,sans-Serif" font-size="10.00">GridView</text>
</a>
</g>
</g>
<!-- Node6&#45;&gt;Node7 -->
<g id="edge6" class="edge"><title>Node6&#45;&gt;Node7</title>
<path fill="none" stroke="midnightblue" d="M1324.24,-40.7275C1332.95,-40.838 1341.63,-40.932 1350,-41 1509.5,-42.2967 1696.27,-41.3532 1798.49,-40.6264"/>
<polygon fill="midnightblue" stroke="midnightblue" points="1324.06,-37.2249 1314.02,-40.5908 1323.97,-44.2243 1324.06,-37.2249"/>
</g>
<!-- Node8 -->
<g id="node8" class="node"><title>Node8</title>
<g id="a_node8"><a xlink:href="../../d9/daf/classcellsociety__team02_1_1_grid_view.html#afcc7b83f62c116e77ab0843bfd4156b8" target="_top" xlink:title="cellsociety_team02.GridView.make\lButtons">
<polygon fill="white" stroke="black" points="1350,-2 1350,-32 1532,-32 1532,-2 1350,-2"/>
<text text-anchor="start" x="1358" y="-20" font-family="Helvetica,sans-Serif" font-size="10.00">cellsociety_team02.GridView.make</text>
<text text-anchor="middle" x="1441" y="-9" font-family="Helvetica,sans-Serif" font-size="10.00">Buttons</text>
</a>
</g>
</g>
<!-- Node6&#45;&gt;Node8 -->
<g id="edge7" class="edge"><title>Node6&#45;&gt;Node8</title>
<path fill="none" stroke="midnightblue" d="M1324.2,-28.9605C1332.72,-28.0806 1341.32,-27.1924 1349.78,-26.3188"/>
<polygon fill="midnightblue" stroke="midnightblue" points="1323.84,-25.4793 1314.25,-29.9883 1324.56,-32.4423 1323.84,-25.4793"/>
</g>
<!-- Node9 -->
<g id="node9" class="node"><title>Node9</title>
<g id="a_node9"><a xlink:href="../../d9/daf/classcellsociety__team02_1_1_grid_view.html#a4571898657e750f62c2df84cb398e135" target="_top" xlink:title="cellsociety_team02.GridView.initialize">
<polygon fill="white" stroke="black" points="1568,-10.5 1568,-29.5 1762,-29.5 1762,-10.5 1568,-10.5"/>
<text text-anchor="middle" x="1665" y="-17.5" font-family="Helvetica,sans-Serif" font-size="10.00">cellsociety_team02.GridView.initialize</text>
</a>
</g>
</g>
<!-- Node8&#45;&gt;Node9 -->
<g id="edge8" class="edge"><title>Node8&#45;&gt;Node9</title>
<path fill="none" stroke="midnightblue" d="M1542.56,-18.359C1551.03,-18.4733 1559.57,-18.5888 1568,-18.7027"/>
<polygon fill="midnightblue" stroke="midnightblue" points="1542.34,-14.8558 1532.3,-18.2202 1542.25,-21.8551 1542.34,-14.8558"/>
</g>
<!-- Node9&#45;&gt;Node7 -->
<g id="edge9" class="edge"><title>Node9&#45;&gt;Node7</title>
<path fill="none" stroke="midnightblue" d="M1772.48,-30.1892C1781.2,-31.024 1789.91,-31.8571 1798.35,-32.6651"/>
<polygon fill="midnightblue" stroke="midnightblue" points="1772.53,-26.6783 1762.24,-29.2097 1771.86,-33.6465 1772.53,-26.6783"/>
</g>
<!-- Node10&#45;&gt;Node5 -->
<g id="edge11" class="edge"><title>Node10&#45;&gt;Node5</title>
<path fill="none" stroke="midnightblue" d="M891.866,-26.3369C901.567,-27.3856 911.33,-28.4411 920.859,-29.4712"/>
<polygon fill="midnightblue" stroke="midnightblue" points="892.11,-22.843 881.792,-25.2478 891.358,-29.8024 892.11,-22.843"/>
</g>
</g>
</svg>
