<?xml version="1.0" encoding="UTF-8" standalone="no"?>
<!DOCTYPE svg PUBLIC "-//W3C//DTD SVG 1.1//EN"
 "http://www.w3.org/Graphics/SVG/1.1/DTD/svg11.dtd">
<!-- Generated by graphviz version 2.36.0 (20140111.2315)
 -->
<!-- Title: cellsociety_team02.XMLParser.makePatches Pages: 1 -->
<svg width="1272pt" height="61pt"
 viewBox="0.00 0.00 1272.00 61.00" xmlns="http://www.w3.org/2000/svg" xmlns:xlink="http://www.w3.org/1999/xlink">
<g id="graph0" class="graph" transform="scale(1 1) rotate(0) translate(4 57)">
<title>cellsociety_team02.XMLParser.makePatches</title>
<polygon fill="white" stroke="none" points="-4,4 -4,-57 1268,-57 1268,4 -4,4"/>
<!-- Node1 -->
<g id="node1" class="node"><title>Node1</title>
<polygon fill="#bfbfbf" stroke="black" points="0.5,-22 0.5,-52 191.5,-52 191.5,-22 0.5,-22"/>
<text text-anchor="start" x="8.5" y="-40" font-family="Helvetica,sans-Serif" font-size="10.00">cellsociety_team02.XMLParser.make</text>
<text text-anchor="middle" x="96" y="-29" font-family="Helvetica,sans-Serif" font-size="10.00">Patches</text>
</g>
<!-- Node2 -->
<g id="node2" class="node"><title>Node2</title>
<g id="a_node2"><a xlink:href="../../df/d71/classcellsociety__team02_1_1_grid_model.html#a3884a4fa7f5f19b71ea5a1c2a54fe817" target="_top" xlink:title="cellsociety_team02.GridModel.load">
<polygon fill="white" stroke="black" points="228.5,-27.5 228.5,-46.5 411.5,-46.5 411.5,-27.5 228.5,-27.5"/>
<text text-anchor="middle" x="320" y="-34.5" font-family="Helvetica,sans-Serif" font-size="10.00">cellsociety_team02.GridModel.load</text>
</a>
</g>
</g>
<!-- Node1&#45;&gt;Node2 -->
<g id="edge1" class="edge"><title>Node1&#45;&gt;Node2</title>
<path fill="none" stroke="midnightblue" d="M201.796,-37C210.688,-37 219.633,-37 228.403,-37"/>
<polygon fill="midnightblue" stroke="midnightblue" points="201.792,-33.5001 191.792,-37 201.792,-40.5001 201.792,-33.5001"/>
</g>
<!-- Node3 -->
<g id="node3" class="node"><title>Node3</title>
<g id="a_node3"><a xlink:href="../../d9/daf/classcellsociety__team02_1_1_grid_view.html#aa0cb15c1acd15c18573648b8df447752" target="_top" xlink:title="cellsociety_team02.GridView.load">
<polygon fill="white" stroke="black" points="448,-27.5 448,-46.5 624,-46.5 624,-27.5 448,-27.5"/>
<text text-anchor="middle" x="536" y="-34.5" font-family="Helvetica,sans-Serif" font-size="10.00">cellsociety_team02.GridView.load</text>
</a>
</g>
</g>
<!-- Node2&#45;&gt;Node3 -->
<g id="edge2" class="edge"><title>Node2&#45;&gt;Node3</title>
<path fill="none" stroke="midnightblue" d="M421.9,-37C430.574,-37 439.302,-37 447.854,-37"/>
<polygon fill="midnightblue" stroke="midnightblue" points="421.755,-33.5001 411.755,-37 421.755,-40.5001 421.755,-33.5001"/>
</g>
<!-- Node4 -->
<g id="node4" class="node"><title>Node4</title>
<g id="a_node4"><a xlink:href="../../d9/daf/classcellsociety__team02_1_1_grid_view.html#ada183e314764db770009f944205490df" target="_top" xlink:title="cellsociety_team02.GridView.\lGridView">
<polygon fill="white" stroke="black" points="1108.5,-23 1108.5,-53 1263.5,-53 1263.5,-23 1108.5,-23"/>
<text text-anchor="start" x="1116.5" y="-41" font-family="Helvetica,sans-Serif" font-size="10.00">cellsociety_team02.GridView.</text>
<text text-anchor="middle" x="1186" y="-30" font-family="Helvetica,sans-Serif" font-size="10.00">GridView</text>
</a>
</g>
</g>
<!-- Node3&#45;&gt;Node4 -->
<g id="edge3" class="edge"><title>Node3&#45;&gt;Node4</title>
<path fill="none" stroke="midnightblue" d="M634.238,-38.7275C642.949,-38.838 651.634,-38.932 660,-39 819.5,-40.2967 1006.27,-39.3532 1108.49,-38.6264"/>
<polygon fill="midnightblue" stroke="midnightblue" points="634.063,-35.2249 624.017,-38.5908 633.969,-42.2243 634.063,-35.2249"/>
</g>
<!-- Node5 -->
<g id="node5" class="node"><title>Node5</title>
<g id="a_node5"><a xlink:href="../../d9/daf/classcellsociety__team02_1_1_grid_view.html#afcc7b83f62c116e77ab0843bfd4156b8" target="_top" xlink:title="cellsociety_team02.GridView.make\lButtons">
<polygon fill="white" stroke="black" points="660,-0 660,-30 842,-30 842,-0 660,-0"/>
<text text-anchor="start" x="668" y="-18" font-family="Helvetica,sans-Serif" font-size="10.00">cellsociety_team02.GridView.make</text>
<text text-anchor="middle" x="751" y="-7" font-family="Helvetica,sans-Serif" font-size="10.00">Buttons</text>
</a>
</g>
</g>
<!-- Node3&#45;&gt;Node5 -->
<g id="edge4" class="edge"><title>Node3&#45;&gt;Node5</title>
<path fill="none" stroke="midnightblue" d="M634.201,-26.9605C642.72,-26.0806 651.319,-25.1924 659.777,-24.3188"/>
<polygon fill="midnightblue" stroke="midnightblue" points="633.837,-23.4793 624.25,-27.9883 634.557,-30.4423 633.837,-23.4793"/>
</g>
<!-- Node6 -->
<g id="node6" class="node"><title>Node6</title>
<g id="a_node6"><a xlink:href="../../d9/daf/classcellsociety__team02_1_1_grid_view.html#a4571898657e750f62c2df84cb398e135" target="_top" xlink:title="cellsociety_team02.GridView.initialize">
<polygon fill="white" stroke="black" points="878,-8.5 878,-27.5 1072,-27.5 1072,-8.5 878,-8.5"/>
<text text-anchor="middle" x="975" y="-15.5" font-family="Helvetica,sans-Serif" font-size="10.00">cellsociety_team02.GridView.initialize</text>
</a>
</g>
</g>
<!-- Node5&#45;&gt;Node6 -->
<g id="edge5" class="edge"><title>Node5&#45;&gt;Node6</title>
<path fill="none" stroke="midnightblue" d="M852.565,-16.359C861.028,-16.4733 869.572,-16.5888 877.999,-16.7027"/>
<polygon fill="midnightblue" stroke="midnightblue" points="852.342,-12.8558 842.296,-16.2202 852.248,-19.8551 852.342,-12.8558"/>
</g>
<!-- Node6&#45;&gt;Node4 -->
<g id="edge6" class="edge"><title>Node6&#45;&gt;Node4</title>
<path fill="none" stroke="midnightblue" d="M1082.48,-28.1892C1091.2,-29.024 1099.91,-29.8571 1108.35,-30.6651"/>
<polygon fill="midnightblue" stroke="midnightblue" points="1082.53,-24.6783 1072.24,-27.2097 1081.86,-31.6465 1082.53,-24.6783"/>
</g>
</g>
</svg>
