<?xml version="1.0" encoding="UTF-8" standalone="no"?>
<!DOCTYPE svg PUBLIC "-//W3C//DTD SVG 1.1//EN"
 "http://www.w3.org/Graphics/SVG/1.1/DTD/svg11.dtd">
<!-- Generated by graphviz version 2.36.0 (20140111.2315)
 -->
<!-- Title: cellsociety_team02.XMLParser.constructList Pages: 1 -->
<svg width="1534pt" height="87pt"
 viewBox="0.00 0.00 1534.00 87.00" xmlns="http://www.w3.org/2000/svg" xmlns:xlink="http://www.w3.org/1999/xlink">
<g id="graph0" class="graph" transform="scale(1 1) rotate(0) translate(4 83)">
<title>cellsociety_team02.XMLParser.constructList</title>
<polygon fill="white" stroke="none" points="-4,4 -4,-83 1530,-83 1530,4 -4,4"/>
<!-- Node1 -->
<g id="node1" class="node"><title>Node1</title>
<polygon fill="#bfbfbf" stroke="black" points="0.5,-29.5 0.5,-48.5 225.5,-48.5 225.5,-29.5 0.5,-29.5"/>
<text text-anchor="middle" x="113" y="-36.5" font-family="Helvetica,sans-Serif" font-size="10.00">cellsociety_team02.XMLParser.constructList</text>
</g>
<!-- Node2 -->
<g id="node2" class="node"><title>Node2</title>
<g id="a_node2"><a xlink:href="../../d9/db5/classcellsociety__team02_1_1_x_m_l_parser.html#aca6776e6016ac742ace5f43d33a03c74" target="_top" xlink:title="cellsociety_team02.XMLParser.make\lCells">
<polygon fill="white" stroke="black" points="262.5,-49 262.5,-79 453.5,-79 453.5,-49 262.5,-49"/>
<text text-anchor="start" x="270.5" y="-67" font-family="Helvetica,sans-Serif" font-size="10.00">cellsociety_team02.XMLParser.make</text>
<text text-anchor="middle" x="358" y="-56" font-family="Helvetica,sans-Serif" font-size="10.00">Cells</text>
</a>
</g>
</g>
<!-- Node1&#45;&gt;Node2 -->
<g id="edge1" class="edge"><title>Node1&#45;&gt;Node2</title>
<path fill="none" stroke="midnightblue" d="M216.907,-49.5872C231.959,-51.1357 247.4,-52.7243 262.278,-54.2549"/>
<polygon fill="midnightblue" stroke="midnightblue" points="216.867,-46.0646 206.561,-48.5227 216.15,-53.0279 216.867,-46.0646"/>
</g>
<!-- Node8 -->
<g id="node8" class="node"><title>Node8</title>
<g id="a_node8"><a xlink:href="../../d9/db5/classcellsociety__team02_1_1_x_m_l_parser.html#a6183c4600a4c3b22a017485f9ae01d4d" target="_top" xlink:title="cellsociety_team02.XMLParser.make\lPatches">
<polygon fill="white" stroke="black" points="262.5,-0 262.5,-30 453.5,-30 453.5,-0 262.5,-0"/>
<text text-anchor="start" x="270.5" y="-18" font-family="Helvetica,sans-Serif" font-size="10.00">cellsociety_team02.XMLParser.make</text>
<text text-anchor="middle" x="358" y="-7" font-family="Helvetica,sans-Serif" font-size="10.00">Patches</text>
</a>
</g>
</g>
<!-- Node1&#45;&gt;Node8 -->
<g id="edge8" class="edge"><title>Node1&#45;&gt;Node8</title>
<path fill="none" stroke="midnightblue" d="M220.473,-28.4841C234.402,-27.1084 248.599,-25.7063 262.315,-24.3516"/>
<polygon fill="midnightblue" stroke="midnightblue" points="219.997,-25.0141 210.389,-29.4801 220.685,-31.9802 219.997,-25.0141"/>
</g>
<!-- Node3 -->
<g id="node3" class="node"><title>Node3</title>
<g id="a_node3"><a xlink:href="../../df/d71/classcellsociety__team02_1_1_grid_model.html#a3884a4fa7f5f19b71ea5a1c2a54fe817" target="_top" xlink:title="cellsociety_team02.GridModel.load">
<polygon fill="white" stroke="black" points="490.5,-29.5 490.5,-48.5 673.5,-48.5 673.5,-29.5 490.5,-29.5"/>
<text text-anchor="middle" x="582" y="-36.5" font-family="Helvetica,sans-Serif" font-size="10.00">cellsociety_team02.GridModel.load</text>
</a>
</g>
</g>
<!-- Node2&#45;&gt;Node3 -->
<g id="edge2" class="edge"><title>Node2&#45;&gt;Node3</title>
<path fill="none" stroke="midnightblue" d="M463.782,-52.2002C474.699,-50.9709 485.696,-49.7325 496.349,-48.5328"/>
<polygon fill="midnightblue" stroke="midnightblue" points="463.337,-48.7281 453.792,-53.3252 464.121,-55.6841 463.337,-48.7281"/>
</g>
<!-- Node4 -->
<g id="node4" class="node"><title>Node4</title>
<g id="a_node4"><a xlink:href="../../d9/daf/classcellsociety__team02_1_1_grid_view.html#aa0cb15c1acd15c18573648b8df447752" target="_top" xlink:title="cellsociety_team02.GridView.load">
<polygon fill="white" stroke="black" points="710,-29.5 710,-48.5 886,-48.5 886,-29.5 710,-29.5"/>
<text text-anchor="middle" x="798" y="-36.5" font-family="Helvetica,sans-Serif" font-size="10.00">cellsociety_team02.GridView.load</text>
</a>
</g>
</g>
<!-- Node3&#45;&gt;Node4 -->
<g id="edge3" class="edge"><title>Node3&#45;&gt;Node4</title>
<path fill="none" stroke="midnightblue" d="M683.9,-39C692.574,-39 701.302,-39 709.854,-39"/>
<polygon fill="midnightblue" stroke="midnightblue" points="683.755,-35.5001 673.755,-39 683.755,-42.5001 683.755,-35.5001"/>
</g>
<!-- Node5 -->
<g id="node5" class="node"><title>Node5</title>
<g id="a_node5"><a xlink:href="../../d9/daf/classcellsociety__team02_1_1_grid_view.html#ada183e314764db770009f944205490df" target="_top" xlink:title="cellsociety_team02.GridView.\lGridView">
<polygon fill="white" stroke="black" points="1370.5,-25 1370.5,-55 1525.5,-55 1525.5,-25 1370.5,-25"/>
<text text-anchor="start" x="1378.5" y="-43" font-family="Helvetica,sans-Serif" font-size="10.00">cellsociety_team02.GridView.</text>
<text text-anchor="middle" x="1448" y="-32" font-family="Helvetica,sans-Serif" font-size="10.00">GridView</text>
</a>
</g>
</g>
<!-- Node4&#45;&gt;Node5 -->
<g id="edge4" class="edge"><title>Node4&#45;&gt;Node5</title>
<path fill="none" stroke="midnightblue" d="M896.238,-40.7275C904.949,-40.838 913.634,-40.932 922,-41 1081.5,-42.2967 1268.27,-41.3532 1370.49,-40.6264"/>
<polygon fill="midnightblue" stroke="midnightblue" points="896.063,-37.2249 886.017,-40.5908 895.969,-44.2243 896.063,-37.2249"/>
</g>
<!-- Node6 -->
<g id="node6" class="node"><title>Node6</title>
<g id="a_node6"><a xlink:href="../../d9/daf/classcellsociety__team02_1_1_grid_view.html#afcc7b83f62c116e77ab0843bfd4156b8" target="_top" xlink:title="cellsociety_team02.GridView.make\lButtons">
<polygon fill="white" stroke="black" points="922,-2 922,-32 1104,-32 1104,-2 922,-2"/>
<text text-anchor="start" x="930" y="-20" font-family="Helvetica,sans-Serif" font-size="10.00">cellsociety_team02.GridView.make</text>
<text text-anchor="middle" x="1013" y="-9" font-family="Helvetica,sans-Serif" font-size="10.00">Buttons</text>
</a>
</g>
</g>
<!-- Node4&#45;&gt;Node6 -->
<g id="edge5" class="edge"><title>Node4&#45;&gt;Node6</title>
<path fill="none" stroke="midnightblue" d="M896.201,-28.9605C904.72,-28.0806 913.319,-27.1924 921.777,-26.3188"/>
<polygon fill="midnightblue" stroke="midnightblue" points="895.837,-25.4793 886.25,-29.9883 896.557,-32.4423 895.837,-25.4793"/>
</g>
<!-- Node7 -->
<g id="node7" class="node"><title>Node7</title>
<g id="a_node7"><a xlink:href="../../d9/daf/classcellsociety__team02_1_1_grid_view.html#a4571898657e750f62c2df84cb398e135" target="_top" xlink:title="cellsociety_team02.GridView.initialize">
<polygon fill="white" stroke="black" points="1140,-10.5 1140,-29.5 1334,-29.5 1334,-10.5 1140,-10.5"/>
<text text-anchor="middle" x="1237" y="-17.5" font-family="Helvetica,sans-Serif" font-size="10.00">cellsociety_team02.GridView.initialize</text>
</a>
</g>
</g>
<!-- Node6&#45;&gt;Node7 -->
<g id="edge6" class="edge"><title>Node6&#45;&gt;Node7</title>
<path fill="none" stroke="midnightblue" d="M1114.56,-18.359C1123.03,-18.4733 1131.57,-18.5888 1140,-18.7027"/>
<polygon fill="midnightblue" stroke="midnightblue" points="1114.34,-14.8558 1104.3,-18.2202 1114.25,-21.8551 1114.34,-14.8558"/>
</g>
<!-- Node7&#45;&gt;Node5 -->
<g id="edge7" class="edge"><title>Node7&#45;&gt;Node5</title>
<path fill="none" stroke="midnightblue" d="M1344.48,-30.1892C1353.2,-31.024 1361.91,-31.8571 1370.35,-32.6651"/>
<polygon fill="midnightblue" stroke="midnightblue" points="1344.53,-26.6783 1334.24,-29.2097 1343.86,-33.6465 1344.53,-26.6783"/>
</g>
<!-- Node8&#45;&gt;Node3 -->
<g id="edge9" class="edge"><title>Node8&#45;&gt;Node3</title>
<path fill="none" stroke="midnightblue" d="M463.866,-26.3369C473.567,-27.3856 483.33,-28.4411 492.859,-29.4712"/>
<polygon fill="midnightblue" stroke="midnightblue" points="464.11,-22.843 453.792,-25.2478 463.358,-29.8024 464.11,-22.843"/>
</g>
</g>
</svg>
