<?xml version="1.0" encoding="UTF-8" standalone="no"?>
<!DOCTYPE svg PUBLIC "-//W3C//DTD SVG 1.1//EN"
 "http://www.w3.org/Graphics/SVG/1.1/DTD/svg11.dtd">
<!-- Generated by graphviz version 2.36.0 (20140111.2315)
 -->
<!-- Title: cellsociety_team02.XMLParser.makeParameterMap Pages: 1 -->
<svg width="1510pt" height="61pt"
 viewBox="0.00 0.00 1510.00 61.00" xmlns="http://www.w3.org/2000/svg" xmlns:xlink="http://www.w3.org/1999/xlink">
<g id="graph0" class="graph" transform="scale(1 1) rotate(0) translate(4 57)">
<title>cellsociety_team02.XMLParser.makeParameterMap</title>
<polygon fill="white" stroke="none" points="-4,4 -4,-57 1506,-57 1506,4 -4,4"/>
<!-- Node1 -->
<g id="node1" class="node"><title>Node1</title>
<polygon fill="#bfbfbf" stroke="black" points="0.5,-22 0.5,-52 191.5,-52 191.5,-22 0.5,-22"/>
<text text-anchor="start" x="8.5" y="-40" font-family="Helvetica,sans-Serif" font-size="10.00">cellsociety_team02.XMLParser.make</text>
<text text-anchor="middle" x="96" y="-29" font-family="Helvetica,sans-Serif" font-size="10.00">ParameterMap</text>
</g>
<!-- Node2 -->
<g id="node2" class="node"><title>Node2</title>
<g id="a_node2"><a xlink:href="../../d9/db5/classcellsociety__team02_1_1_x_m_l_parser.html#ad3832583a0c6236760288a3122d04c3a" target="_top" xlink:title="cellsociety_team02.XMLParser.initialize">
<polygon fill="white" stroke="black" points="228,-27.5 228,-46.5 430,-46.5 430,-27.5 228,-27.5"/>
<text text-anchor="middle" x="329" y="-34.5" font-family="Helvetica,sans-Serif" font-size="10.00">cellsociety_team02.XMLParser.initialize</text>
</a>
</g>
</g>
<!-- Node1&#45;&gt;Node2 -->
<g id="edge1" class="edge"><title>Node1&#45;&gt;Node2</title>
<path fill="none" stroke="midnightblue" d="M201.777,-37C210.468,-37 219.242,-37 227.898,-37"/>
<polygon fill="midnightblue" stroke="midnightblue" points="201.623,-33.5001 191.623,-37 201.623,-40.5001 201.623,-33.5001"/>
</g>
<!-- Node3 -->
<g id="node3" class="node"><title>Node3</title>
<g id="a_node3"><a xlink:href="../../df/d71/classcellsociety__team02_1_1_grid_model.html#a3884a4fa7f5f19b71ea5a1c2a54fe817" target="_top" xlink:title="cellsociety_team02.GridModel.load">
<polygon fill="white" stroke="black" points="466.5,-27.5 466.5,-46.5 649.5,-46.5 649.5,-27.5 466.5,-27.5"/>
<text text-anchor="middle" x="558" y="-34.5" font-family="Helvetica,sans-Serif" font-size="10.00">cellsociety_team02.GridModel.load</text>
</a>
</g>
</g>
<!-- Node2&#45;&gt;Node3 -->
<g id="edge2" class="edge"><title>Node2&#45;&gt;Node3</title>
<path fill="none" stroke="midnightblue" d="M440.383,-37C449.055,-37 457.751,-37 466.269,-37"/>
<polygon fill="midnightblue" stroke="midnightblue" points="440.226,-33.5001 430.226,-37 440.226,-40.5001 440.226,-33.5001"/>
</g>
<!-- Node4 -->
<g id="node4" class="node"><title>Node4</title>
<g id="a_node4"><a xlink:href="../../d9/daf/classcellsociety__team02_1_1_grid_view.html#aa0cb15c1acd15c18573648b8df447752" target="_top" xlink:title="cellsociety_team02.GridView.load">
<polygon fill="white" stroke="black" points="686,-27.5 686,-46.5 862,-46.5 862,-27.5 686,-27.5"/>
<text text-anchor="middle" x="774" y="-34.5" font-family="Helvetica,sans-Serif" font-size="10.00">cellsociety_team02.GridView.load</text>
</a>
</g>
</g>
<!-- Node3&#45;&gt;Node4 -->
<g id="edge3" class="edge"><title>Node3&#45;&gt;Node4</title>
<path fill="none" stroke="midnightblue" d="M659.9,-37C668.574,-37 677.302,-37 685.854,-37"/>
<polygon fill="midnightblue" stroke="midnightblue" points="659.755,-33.5001 649.755,-37 659.755,-40.5001 659.755,-33.5001"/>
</g>
<!-- Node5 -->
<g id="node5" class="node"><title>Node5</title>
<g id="a_node5"><a xlink:href="../../d9/daf/classcellsociety__team02_1_1_grid_view.html#ada183e314764db770009f944205490df" target="_top" xlink:title="cellsociety_team02.GridView.\lGridView">
<polygon fill="white" stroke="black" points="1346.5,-23 1346.5,-53 1501.5,-53 1501.5,-23 1346.5,-23"/>
<text text-anchor="start" x="1354.5" y="-41" font-family="Helvetica,sans-Serif" font-size="10.00">cellsociety_team02.GridView.</text>
<text text-anchor="middle" x="1424" y="-30" font-family="Helvetica,sans-Serif" font-size="10.00">GridView</text>
</a>
</g>
</g>
<!-- Node4&#45;&gt;Node5 -->
<g id="edge4" class="edge"><title>Node4&#45;&gt;Node5</title>
<path fill="none" stroke="midnightblue" d="M872.238,-38.7275C880.949,-38.838 889.634,-38.932 898,-39 1057.5,-40.2967 1244.27,-39.3532 1346.49,-38.6264"/>
<polygon fill="midnightblue" stroke="midnightblue" points="872.063,-35.2249 862.017,-38.5908 871.969,-42.2243 872.063,-35.2249"/>
</g>
<!-- Node6 -->
<g id="node6" class="node"><title>Node6</title>
<g id="a_node6"><a xlink:href="../../d9/daf/classcellsociety__team02_1_1_grid_view.html#afcc7b83f62c116e77ab0843bfd4156b8" target="_top" xlink:title="cellsociety_team02.GridView.make\lButtons">
<polygon fill="white" stroke="black" points="898,-0 898,-30 1080,-30 1080,-0 898,-0"/>
<text text-anchor="start" x="906" y="-18" font-family="Helvetica,sans-Serif" font-size="10.00">cellsociety_team02.GridView.make</text>
<text text-anchor="middle" x="989" y="-7" font-family="Helvetica,sans-Serif" font-size="10.00">Buttons</text>
</a>
</g>
</g>
<!-- Node4&#45;&gt;Node6 -->
<g id="edge5" class="edge"><title>Node4&#45;&gt;Node6</title>
<path fill="none" stroke="midnightblue" d="M872.201,-26.9605C880.72,-26.0806 889.319,-25.1924 897.777,-24.3188"/>
<polygon fill="midnightblue" stroke="midnightblue" points="871.837,-23.4793 862.25,-27.9883 872.557,-30.4423 871.837,-23.4793"/>
</g>
<!-- Node7 -->
<g id="node7" class="node"><title>Node7</title>
<g id="a_node7"><a xlink:href="../../d9/daf/classcellsociety__team02_1_1_grid_view.html#a4571898657e750f62c2df84cb398e135" target="_top" xlink:title="cellsociety_team02.GridView.initialize">
<polygon fill="white" stroke="black" points="1116,-8.5 1116,-27.5 1310,-27.5 1310,-8.5 1116,-8.5"/>
<text text-anchor="middle" x="1213" y="-15.5" font-family="Helvetica,sans-Serif" font-size="10.00">cellsociety_team02.GridView.initialize</text>
</a>
</g>
</g>
<!-- Node6&#45;&gt;Node7 -->
<g id="edge6" class="edge"><title>Node6&#45;&gt;Node7</title>
<path fill="none" stroke="midnightblue" d="M1090.56,-16.359C1099.03,-16.4733 1107.57,-16.5888 1116,-16.7027"/>
<polygon fill="midnightblue" stroke="midnightblue" points="1090.34,-12.8558 1080.3,-16.2202 1090.25,-19.8551 1090.34,-12.8558"/>
</g>
<!-- Node7&#45;&gt;Node5 -->
<g id="edge7" class="edge"><title>Node7&#45;&gt;Node5</title>
<path fill="none" stroke="midnightblue" d="M1320.48,-28.1892C1329.2,-29.024 1337.91,-29.8571 1346.35,-30.6651"/>
<polygon fill="midnightblue" stroke="midnightblue" points="1320.53,-24.6783 1310.24,-27.2097 1319.86,-31.6465 1320.53,-24.6783"/>
</g>
</g>
</svg>
