<?xml version="1.0" encoding="UTF-8" standalone="no"?>
<!DOCTYPE svg PUBLIC "-//W3C//DTD SVG 1.1//EN"
 "http://www.w3.org/Graphics/SVG/1.1/DTD/svg11.dtd">
<!-- Generated by graphviz version 2.36.0 (20140111.2315)
 -->
<!-- Title: cellsociety_team02.XMLParser.makeParameterMap Pages: 1 -->
<svg width="664pt" height="38pt"
 viewBox="0.00 0.00 664.00 38.00" xmlns="http://www.w3.org/2000/svg" xmlns:xlink="http://www.w3.org/1999/xlink">
<g id="graph0" class="graph" transform="scale(1 1) rotate(0) translate(4 34)">
<title>cellsociety_team02.XMLParser.makeParameterMap</title>
<polygon fill="white" stroke="none" points="-4,4 -4,-34 660,-34 660,4 -4,4"/>
<!-- Node1 -->
<g id="node1" class="node"><title>Node1</title>
<polygon fill="#bfbfbf" stroke="black" points="0.5,-0 0.5,-30 191.5,-30 191.5,-0 0.5,-0"/>
<text text-anchor="start" x="8.5" y="-18" font-family="Helvetica,sans-Serif" font-size="10.00">cellsociety_team02.XMLParser.make</text>
<text text-anchor="middle" x="96" y="-7" font-family="Helvetica,sans-Serif" font-size="10.00">ParameterMap</text>
</g>
<!-- Node2 -->
<g id="node2" class="node"><title>Node2</title>
<g id="a_node2"><a xlink:href="../../d9/db5/classcellsociety__team02_1_1_x_m_l_parser.html#a97985012667a5a937c89cf19fa6f20d1" target="_top" xlink:title="cellsociety_team02.XMLParser.makeMap">
<polygon fill="white" stroke="black" points="228.5,-5.5 228.5,-24.5 439.5,-24.5 439.5,-5.5 228.5,-5.5"/>
<text text-anchor="middle" x="334" y="-12.5" font-family="Helvetica,sans-Serif" font-size="10.00">cellsociety_team02.XMLParser.makeMap</text>
</a>
</g>
</g>
<!-- Node1&#45;&gt;Node2 -->
<g id="edge1" class="edge"><title>Node1&#45;&gt;Node2</title>
<path fill="none" stroke="midnightblue" d="M191.63,-15C200.389,-15 209.326,-15 218.238,-15"/>
<polygon fill="midnightblue" stroke="midnightblue" points="218.279,-18.5001 228.279,-15 218.279,-11.5001 218.279,-18.5001"/>
</g>
<!-- Node3 -->
<g id="node3" class="node"><title>Node3</title>
<g id="a_node3"><a xlink:href="../../d9/db5/classcellsociety__team02_1_1_x_m_l_parser.html#af9e2438fd8fa09e5d6b2d252afa13b1a" target="_top" xlink:title="cellsociety_team02.XMLParser.get\lAttribute">
<polygon fill="white" stroke="black" points="476.5,-0 476.5,-30 655.5,-30 655.5,-0 476.5,-0"/>
<text text-anchor="start" x="484.5" y="-18" font-family="Helvetica,sans-Serif" font-size="10.00">cellsociety_team02.XMLParser.get</text>
<text text-anchor="middle" x="566" y="-7" font-family="Helvetica,sans-Serif" font-size="10.00">Attribute</text>
</a>
</g>
</g>
<!-- Node2&#45;&gt;Node3 -->
<g id="edge2" class="edge"><title>Node2&#45;&gt;Node3</title>
<path fill="none" stroke="midnightblue" d="M439.568,-15C448.354,-15 457.221,-15 465.962,-15"/>
<polygon fill="midnightblue" stroke="midnightblue" points="466.154,-18.5001 476.154,-15 466.154,-11.5001 466.154,-18.5001"/>
</g>
</g>
</svg>
