<?xml version="1.0" encoding="UTF-8" standalone="no"?>
<!DOCTYPE svg PUBLIC "-//W3C//DTD SVG 1.1//EN"
 "http://www.w3.org/Graphics/SVG/1.1/DTD/svg11.dtd">
<!-- Generated by graphviz version 2.36.0 (20140111.2315)
 -->
<!-- Title: cellsociety_team02.XMLParser.setNullState Pages: 1 -->
<svg width="792pt" height="77pt"
 viewBox="0.00 0.00 792.00 77.00" xmlns="http://www.w3.org/2000/svg" xmlns:xlink="http://www.w3.org/1999/xlink">
<g id="graph0" class="graph" transform="scale(1 1) rotate(0) translate(4 73)">
<title>cellsociety_team02.XMLParser.setNullState</title>
<polygon fill="white" stroke="none" points="-4,4 -4,-73 788,-73 788,4 -4,4"/>
<!-- Node1 -->
<g id="node1" class="node"><title>Node1</title>
<polygon fill="#bfbfbf" stroke="black" points="0.5,-22 0.5,-52 179.5,-52 179.5,-22 0.5,-22"/>
<text text-anchor="start" x="8.5" y="-40" font-family="Helvetica,sans-Serif" font-size="10.00">cellsociety_team02.XMLParser.set</text>
<text text-anchor="middle" x="90" y="-29" font-family="Helvetica,sans-Serif" font-size="10.00">NullState</text>
</g>
<!-- Node2 -->
<g id="node2" class="node"><title>Node2</title>
<g id="a_node2"><a xlink:href="../../d8/d83/classcellsociety__team02_1_1_factory.html#a73f7de8ac528a17623c911f59dc28325" target="_top" xlink:title="cellsociety_team02.Factory.makeCell">
<polygon fill="white" stroke="black" points="216,-49.5 216,-68.5 408,-68.5 408,-49.5 216,-49.5"/>
<text text-anchor="middle" x="312" y="-56.5" font-family="Helvetica,sans-Serif" font-size="10.00">cellsociety_team02.Factory.makeCell</text>
</a>
</g>
</g>
<!-- Node1&#45;&gt;Node2 -->
<g id="edge1" class="edge"><title>Node1&#45;&gt;Node2</title>
<path fill="none" stroke="midnightblue" d="M179.531,-45.8531C188.113,-46.7113 196.876,-47.5876 205.601,-48.4601"/>
<polygon fill="midnightblue" stroke="midnightblue" points="205.513,-51.9687 215.812,-49.4812 206.21,-45.0034 205.513,-51.9687"/>
</g>
<!-- Node5 -->
<g id="node5" class="node"><title>Node5</title>
<g id="a_node5"><a xlink:href="../../d8/d83/classcellsociety__team02_1_1_factory.html#aa3a1a4e218cc6529b3b2e56cd5f8cfff" target="_top" xlink:title="cellsociety_team02.Factory.make\lPatch">
<polygon fill="white" stroke="black" points="224.5,-0 224.5,-30 399.5,-30 399.5,-0 224.5,-0"/>
<text text-anchor="start" x="232.5" y="-18" font-family="Helvetica,sans-Serif" font-size="10.00">cellsociety_team02.Factory.make</text>
<text text-anchor="middle" x="312" y="-7" font-family="Helvetica,sans-Serif" font-size="10.00">Patch</text>
</a>
</g>
</g>
<!-- Node1&#45;&gt;Node5 -->
<g id="edge4" class="edge"><title>Node1&#45;&gt;Node5</title>
<path fill="none" stroke="midnightblue" d="M179.531,-28.1469C190.983,-27.0017 202.757,-25.8243 214.331,-24.6669"/>
<polygon fill="midnightblue" stroke="midnightblue" points="214.835,-28.134 224.438,-23.6562 214.139,-21.1687 214.835,-28.134"/>
</g>
<!-- Node3 -->
<g id="node3" class="node"><title>Node3</title>
<g id="a_node3"><a xlink:href="../../d4/df2/class_cell_1_1_pred_prey_cell.html#ab682decb39c5e4f952c7c85929411f6f" target="_top" xlink:title="Cell.PredPreyCell.makeCell">
<polygon fill="white" stroke="black" points="444,-49.5 444,-68.5 588,-68.5 588,-49.5 444,-49.5"/>
<text text-anchor="middle" x="516" y="-56.5" font-family="Helvetica,sans-Serif" font-size="10.00">Cell.PredPreyCell.makeCell</text>
</a>
</g>
</g>
<!-- Node2&#45;&gt;Node3 -->
<g id="edge2" class="edge"><title>Node2&#45;&gt;Node3</title>
<path fill="none" stroke="midnightblue" d="M408.085,-59C416.67,-59 425.311,-59 433.761,-59"/>
<polygon fill="midnightblue" stroke="midnightblue" points="433.956,-62.5001 443.955,-59 433.955,-55.5001 433.956,-62.5001"/>
</g>
<!-- Node4 -->
<g id="node4" class="node"><title>Node4</title>
<g id="a_node4"><a xlink:href="../../d4/df2/class_cell_1_1_pred_prey_cell.html#a218b10c89861e5cbc826511d9b35b1ae" target="_top" xlink:title="Cell.PredPreyCell.PredPreyCell">
<polygon fill="white" stroke="black" points="624,-49.5 624,-68.5 784,-68.5 784,-49.5 624,-49.5"/>
<text text-anchor="middle" x="704" y="-56.5" font-family="Helvetica,sans-Serif" font-size="10.00">Cell.PredPreyCell.PredPreyCell</text>
</a>
</g>
</g>
<!-- Node3&#45;&gt;Node4 -->
<g id="edge3" class="edge"><title>Node3&#45;&gt;Node4</title>
<path fill="none" stroke="midnightblue" d="M588.115,-59C596.518,-59 605.174,-59 613.786,-59"/>
<polygon fill="midnightblue" stroke="midnightblue" points="613.859,-62.5001 623.859,-59 613.859,-55.5001 613.859,-62.5001"/>
</g>
</g>
</svg>
