<?xml version="1.0" encoding="UTF-8" standalone="no"?>
<!DOCTYPE svg PUBLIC "-//W3C//DTD SVG 1.1//EN"
 "http://www.w3.org/Graphics/SVG/1.1/DTD/svg11.dtd">
<!-- Generated by graphviz version 2.36.0 (20140111.2315)
 -->
<!-- Title: cellsociety_team02.XMLParser.makeCells Pages: 1 -->
<svg width="1526pt" height="389pt"
 viewBox="0.00 0.00 1526.00 389.00" xmlns="http://www.w3.org/2000/svg" xmlns:xlink="http://www.w3.org/1999/xlink">
<g id="graph0" class="graph" transform="scale(1 1) rotate(0) translate(4 385)">
<title>cellsociety_team02.XMLParser.makeCells</title>
<polygon fill="white" stroke="none" points="-4,4 -4,-385 1522,-385 1522,4 -4,4"/>
<!-- Node1 -->
<g id="node1" class="node"><title>Node1</title>
<polygon fill="#bfbfbf" stroke="black" points="0.5,-143 0.5,-173 191.5,-173 191.5,-143 0.5,-143"/>
<text text-anchor="start" x="8.5" y="-161" font-family="Helvetica,sans-Serif" font-size="10.00">cellsociety_team02.XMLParser.make</text>
<text text-anchor="middle" x="96" y="-150" font-family="Helvetica,sans-Serif" font-size="10.00">Cells</text>
</g>
<!-- Node2 -->
<g id="node2" class="node"><title>Node2</title>
<g id="a_node2"><a xlink:href="../../d9/db5/classcellsociety__team02_1_1_x_m_l_parser.html#adb7ffd2c43825ff504405060ff20178f" target="_top" xlink:title="cellsociety_team02.XMLParser.constructList">
<polygon fill="white" stroke="black" points="228.5,-148.5 228.5,-167.5 453.5,-167.5 453.5,-148.5 228.5,-148.5"/>
<text text-anchor="middle" x="341" y="-155.5" font-family="Helvetica,sans-Serif" font-size="10.00">cellsociety_team02.XMLParser.constructList</text>
</a>
</g>
</g>
<!-- Node1&#45;&gt;Node2 -->
<g id="edge1" class="edge"><title>Node1&#45;&gt;Node2</title>
<path fill="none" stroke="midnightblue" d="M191.646,-158C200.36,-158 209.268,-158 218.179,-158"/>
<polygon fill="midnightblue" stroke="midnightblue" points="218.23,-161.5 228.229,-158 218.229,-154.5 218.23,-161.5"/>
</g>
<!-- Node3 -->
<g id="node3" class="node"><title>Node3</title>
<g id="a_node3"><a xlink:href="../../d9/db5/classcellsociety__team02_1_1_x_m_l_parser.html#a98df6887ba7b6cd85f33e6943ff58e49" target="_top" xlink:title="cellsociety_team02.XMLParser.do\lGiven">
<polygon fill="white" stroke="black" points="490,-143 490,-173 666,-173 666,-143 490,-143"/>
<text text-anchor="start" x="498" y="-161" font-family="Helvetica,sans-Serif" font-size="10.00">cellsociety_team02.XMLParser.do</text>
<text text-anchor="middle" x="578" y="-150" font-family="Helvetica,sans-Serif" font-size="10.00">Given</text>
</a>
</g>
</g>
<!-- Node2&#45;&gt;Node3 -->
<g id="edge2" class="edge"><title>Node2&#45;&gt;Node3</title>
<path fill="none" stroke="midnightblue" d="M453.65,-158C462.417,-158 471.228,-158 479.886,-158"/>
<polygon fill="midnightblue" stroke="midnightblue" points="479.969,-161.5 489.969,-158 479.969,-154.5 479.969,-161.5"/>
</g>
<!-- Node10 -->
<g id="node10" class="node"><title>Node10</title>
<g id="a_node10"><a xlink:href="../../d9/db5/classcellsociety__team02_1_1_x_m_l_parser.html#a14ccb1cf6658b9c38357d5bc4f176444" target="_top" xlink:title="cellsociety_team02.XMLParser.do\lProbability">
<polygon fill="white" stroke="black" points="490,-78 490,-108 666,-108 666,-78 490,-78"/>
<text text-anchor="start" x="498" y="-96" font-family="Helvetica,sans-Serif" font-size="10.00">cellsociety_team02.XMLParser.do</text>
<text text-anchor="middle" x="578" y="-85" font-family="Helvetica,sans-Serif" font-size="10.00">Probability</text>
</a>
</g>
</g>
<!-- Node2&#45;&gt;Node10 -->
<g id="edge11" class="edge"><title>Node2&#45;&gt;Node10</title>
<path fill="none" stroke="midnightblue" d="M376.423,-148.479C412.098,-138.611 468.693,-122.957 512.684,-110.79"/>
<polygon fill="midnightblue" stroke="midnightblue" points="513.729,-114.132 522.434,-108.093 511.863,-107.385 513.729,-114.132"/>
</g>
<!-- Node14 -->
<g id="node14" class="node"><title>Node14</title>
<g id="a_node14"><a xlink:href="../../d9/db5/classcellsociety__team02_1_1_x_m_l_parser.html#afd9d58234bf5413d7759421f41f36e71" target="_top" xlink:title="cellsociety_team02.XMLParser.do\lRandom">
<polygon fill="white" stroke="black" points="490,-302 490,-332 666,-332 666,-302 490,-302"/>
<text text-anchor="start" x="498" y="-320" font-family="Helvetica,sans-Serif" font-size="10.00">cellsociety_team02.XMLParser.do</text>
<text text-anchor="middle" x="578" y="-309" font-family="Helvetica,sans-Serif" font-size="10.00">Random</text>
</a>
</g>
</g>
<!-- Node2&#45;&gt;Node14 -->
<g id="edge18" class="edge"><title>Node2&#45;&gt;Node14</title>
<path fill="none" stroke="midnightblue" d="M356.347,-167.707C393.745,-193.01 494.869,-261.43 546.205,-296.164"/>
<polygon fill="midnightblue" stroke="midnightblue" points="544.349,-299.134 554.593,-301.839 548.272,-293.337 544.349,-299.134"/>
</g>
<!-- Node4 -->
<g id="node4" class="node"><title>Node4</title>
<g id="a_node4"><a xlink:href="../../d9/db5/classcellsociety__team02_1_1_x_m_l_parser.html#af9e2438fd8fa09e5d6b2d252afa13b1a" target="_top" xlink:title="cellsociety_team02.XMLParser.get\lAttribute">
<polygon fill="white" stroke="black" points="956.5,-36 956.5,-66 1135.5,-66 1135.5,-36 956.5,-36"/>
<text text-anchor="start" x="964.5" y="-54" font-family="Helvetica,sans-Serif" font-size="10.00">cellsociety_team02.XMLParser.get</text>
<text text-anchor="middle" x="1046" y="-43" font-family="Helvetica,sans-Serif" font-size="10.00">Attribute</text>
</a>
</g>
</g>
<!-- Node3&#45;&gt;Node4 -->
<g id="edge3" class="edge"><title>Node3&#45;&gt;Node4</title>
<path fill="none" stroke="midnightblue" d="M644.778,-142.896C730.382,-123.241 879.636,-88.9698 969.685,-68.2932"/>
<polygon fill="midnightblue" stroke="midnightblue" points="970.593,-71.6759 979.557,-66.0267 969.027,-64.8535 970.593,-71.6759"/>
</g>
<!-- Node5 -->
<g id="node5" class="node"><title>Node5</title>
<g id="a_node5"><a xlink:href="../../d8/d83/classcellsociety__team02_1_1_factory.html#a73f7de8ac528a17623c911f59dc28325" target="_top" xlink:title="cellsociety_team02.Factory.makeCell">
<polygon fill="white" stroke="black" points="950,-148.5 950,-167.5 1142,-167.5 1142,-148.5 950,-148.5"/>
<text text-anchor="middle" x="1046" y="-155.5" font-family="Helvetica,sans-Serif" font-size="10.00">cellsociety_team02.Factory.makeCell</text>
</a>
</g>
</g>
<!-- Node3&#45;&gt;Node5 -->
<g id="edge4" class="edge"><title>Node3&#45;&gt;Node5</title>
<path fill="none" stroke="midnightblue" d="M666.014,-155.614C678.1,-155.359 690.359,-155.142 702,-155 796.215,-153.851 819.784,-153.921 914,-155 922.338,-155.095 930.975,-155.225 939.653,-155.377"/>
<polygon fill="midnightblue" stroke="midnightblue" points="939.781,-158.88 949.844,-155.565 939.91,-151.881 939.781,-158.88"/>
</g>
<!-- Node8 -->
<g id="node8" class="node"><title>Node8</title>
<g id="a_node8"><a xlink:href="../../d8/d83/classcellsociety__team02_1_1_factory.html#aa3a1a4e218cc6529b3b2e56cd5f8cfff" target="_top" xlink:title="cellsociety_team02.Factory.make\lPatch">
<polygon fill="white" stroke="black" points="958.5,-236 958.5,-266 1133.5,-266 1133.5,-236 958.5,-236"/>
<text text-anchor="start" x="966.5" y="-254" font-family="Helvetica,sans-Serif" font-size="10.00">cellsociety_team02.Factory.make</text>
<text text-anchor="middle" x="1046" y="-243" font-family="Helvetica,sans-Serif" font-size="10.00">Patch</text>
</a>
</g>
</g>
<!-- Node3&#45;&gt;Node8 -->
<g id="edge7" class="edge"><title>Node3&#45;&gt;Node8</title>
<path fill="none" stroke="midnightblue" d="M592.241,-173.249C612.963,-195.816 655.524,-237.142 702,-253 784.053,-280.998 883.714,-276.504 954.417,-267.419"/>
<polygon fill="midnightblue" stroke="midnightblue" points="955.187,-270.847 964.633,-266.049 954.257,-263.909 955.187,-270.847"/>
</g>
<!-- Node9 -->
<g id="node9" class="node"><title>Node9</title>
<g id="a_node9"><a xlink:href="../../d9/db5/classcellsociety__team02_1_1_x_m_l_parser.html#a405a101ec424944a7032f82f56343d2e" target="_top" xlink:title="cellsociety_team02.XMLParser.set\lNullState">
<polygon fill="white" stroke="black" points="718.5,-165 718.5,-195 897.5,-195 897.5,-165 718.5,-165"/>
<text text-anchor="start" x="726.5" y="-183" font-family="Helvetica,sans-Serif" font-size="10.00">cellsociety_team02.XMLParser.set</text>
<text text-anchor="middle" x="808" y="-172" font-family="Helvetica,sans-Serif" font-size="10.00">NullState</text>
</a>
</g>
</g>
<!-- Node3&#45;&gt;Node9 -->
<g id="edge8" class="edge"><title>Node3&#45;&gt;Node9</title>
<path fill="none" stroke="midnightblue" d="M666.173,-166.411C679.931,-167.739 694.241,-169.12 708.239,-170.47"/>
<polygon fill="midnightblue" stroke="midnightblue" points="708.075,-173.971 718.365,-171.447 708.747,-167.003 708.075,-173.971"/>
</g>
<!-- Node6 -->
<g id="node6" class="node"><title>Node6</title>
<g id="a_node6"><a xlink:href="../../d4/df2/class_cell_1_1_pred_prey_cell.html#ab682decb39c5e4f952c7c85929411f6f" target="_top" xlink:title="Cell.PredPreyCell.makeCell">
<polygon fill="white" stroke="black" points="1178,-148.5 1178,-167.5 1322,-167.5 1322,-148.5 1178,-148.5"/>
<text text-anchor="middle" x="1250" y="-155.5" font-family="Helvetica,sans-Serif" font-size="10.00">Cell.PredPreyCell.makeCell</text>
</a>
</g>
</g>
<!-- Node5&#45;&gt;Node6 -->
<g id="edge5" class="edge"><title>Node5&#45;&gt;Node6</title>
<path fill="none" stroke="midnightblue" d="M1142.09,-158C1150.67,-158 1159.31,-158 1167.76,-158"/>
<polygon fill="midnightblue" stroke="midnightblue" points="1167.96,-161.5 1177.96,-158 1167.96,-154.5 1167.96,-161.5"/>
</g>
<!-- Node7 -->
<g id="node7" class="node"><title>Node7</title>
<g id="a_node7"><a xlink:href="../../d4/df2/class_cell_1_1_pred_prey_cell.html#a218b10c89861e5cbc826511d9b35b1ae" target="_top" xlink:title="Cell.PredPreyCell.PredPreyCell">
<polygon fill="white" stroke="black" points="1358,-148.5 1358,-167.5 1518,-167.5 1518,-148.5 1358,-148.5"/>
<text text-anchor="middle" x="1438" y="-155.5" font-family="Helvetica,sans-Serif" font-size="10.00">Cell.PredPreyCell.PredPreyCell</text>
</a>
</g>
</g>
<!-- Node6&#45;&gt;Node7 -->
<g id="edge6" class="edge"><title>Node6&#45;&gt;Node7</title>
<path fill="none" stroke="midnightblue" d="M1322.11,-158C1330.52,-158 1339.17,-158 1347.79,-158"/>
<polygon fill="midnightblue" stroke="midnightblue" points="1347.86,-161.5 1357.86,-158 1347.86,-154.5 1347.86,-161.5"/>
</g>
<!-- Node9&#45;&gt;Node5 -->
<g id="edge9" class="edge"><title>Node9&#45;&gt;Node5</title>
<path fill="none" stroke="midnightblue" d="M897.549,-171.745C911.231,-170.47 925.478,-169.142 939.487,-167.836"/>
<polygon fill="midnightblue" stroke="midnightblue" points="940.002,-171.303 949.634,-166.89 939.353,-164.333 940.002,-171.303"/>
</g>
<!-- Node9&#45;&gt;Node8 -->
<g id="edge10" class="edge"><title>Node9&#45;&gt;Node8</title>
<path fill="none" stroke="midnightblue" d="M876.771,-195.042C889.214,-198.113 902.044,-201.488 914,-205 941.461,-213.067 971.63,-223.546 996.087,-232.465"/>
<polygon fill="midnightblue" stroke="midnightblue" points="994.912,-235.762 1005.51,-235.925 997.326,-229.192 994.912,-235.762"/>
</g>
<!-- Node11 -->
<g id="node11" class="node"><title>Node11</title>
<g id="a_node11"><a xlink:href="../../d9/db5/classcellsociety__team02_1_1_x_m_l_parser.html#a97985012667a5a937c89cf19fa6f20d1" target="_top" xlink:title="cellsociety_team02.XMLParser.makeMap">
<polygon fill="white" stroke="black" points="702.5,-0.5 702.5,-19.5 913.5,-19.5 913.5,-0.5 702.5,-0.5"/>
<text text-anchor="middle" x="808" y="-7.5" font-family="Helvetica,sans-Serif" font-size="10.00">cellsociety_team02.XMLParser.makeMap</text>
</a>
</g>
</g>
<!-- Node10&#45;&gt;Node11 -->
<g id="edge12" class="edge"><title>Node10&#45;&gt;Node11</title>
<path fill="none" stroke="midnightblue" d="M602.996,-77.7302C627.106,-63.0707 665.783,-41.3806 702,-29 710.215,-26.1918 718.941,-23.775 727.715,-21.7004"/>
<polygon fill="midnightblue" stroke="midnightblue" points="728.615,-25.086 737.618,-19.501 727.097,-18.2526 728.615,-25.086"/>
</g>
<!-- Node12 -->
<g id="node12" class="node"><title>Node12</title>
<g id="a_node12"><a xlink:href="../../d8/d83/classcellsociety__team02_1_1_factory.html#a401a66128090c8dd98191986b9db5536" target="_top" xlink:title="cellsociety_team02.Factory.make\lProbCell">
<polygon fill="white" stroke="black" points="720.5,-39 720.5,-69 895.5,-69 895.5,-39 720.5,-39"/>
<text text-anchor="start" x="728.5" y="-57" font-family="Helvetica,sans-Serif" font-size="10.00">cellsociety_team02.Factory.make</text>
<text text-anchor="middle" x="808" y="-46" font-family="Helvetica,sans-Serif" font-size="10.00">ProbCell</text>
</a>
</g>
</g>
<!-- Node10&#45;&gt;Node12 -->
<g id="edge14" class="edge"><title>Node10&#45;&gt;Node12</title>
<path fill="none" stroke="midnightblue" d="M666.173,-78.0888C680.575,-75.6253 695.583,-73.0582 710.204,-70.5572"/>
<polygon fill="midnightblue" stroke="midnightblue" points="710.986,-73.9744 720.252,-68.8384 709.805,-67.0746 710.986,-73.9744"/>
</g>
<!-- Node13 -->
<g id="node13" class="node"><title>Node13</title>
<g id="a_node13"><a xlink:href="../../d8/d83/classcellsociety__team02_1_1_factory.html#a41025b16b7c31c3e6e4c6fdef34898ae" target="_top" xlink:title="cellsociety_team02.Factory.make\lProbPatch">
<polygon fill="white" stroke="black" points="720.5,-214 720.5,-244 895.5,-244 895.5,-214 720.5,-214"/>
<text text-anchor="start" x="728.5" y="-232" font-family="Helvetica,sans-Serif" font-size="10.00">cellsociety_team02.Factory.make</text>
<text text-anchor="middle" x="808" y="-221" font-family="Helvetica,sans-Serif" font-size="10.00">ProbPatch</text>
</a>
</g>
</g>
<!-- Node10&#45;&gt;Node13 -->
<g id="edge16" class="edge"><title>Node10&#45;&gt;Node13</title>
<path fill="none" stroke="midnightblue" d="M626.8,-108.158C640.645,-114.246 654.98,-122.395 666,-133 691.492,-157.534 674.216,-182.095 702,-204 704.971,-206.342 708.126,-208.47 711.418,-210.404"/>
<polygon fill="midnightblue" stroke="midnightblue" points="709.931,-213.576 720.419,-215.08 713.158,-207.364 709.931,-213.576"/>
</g>
<!-- Node11&#45;&gt;Node4 -->
<g id="edge13" class="edge"><title>Node11&#45;&gt;Node4</title>
<path fill="none" stroke="midnightblue" d="M863.736,-19.5093C888.828,-23.8684 919.338,-29.1689 948.116,-34.1685"/>
<polygon fill="midnightblue" stroke="midnightblue" points="947.76,-37.6589 958.211,-35.9223 948.958,-30.7622 947.76,-37.6589"/>
</g>
<!-- Node12&#45;&gt;Node5 -->
<g id="edge15" class="edge"><title>Node12&#45;&gt;Node5</title>
<path fill="none" stroke="midnightblue" d="M843.064,-69.0114C888.872,-89.1978 969.669,-124.803 1013.9,-144.297"/>
<polygon fill="midnightblue" stroke="midnightblue" points="1012.72,-147.6 1023.28,-148.43 1015.54,-141.194 1012.72,-147.6"/>
</g>
<!-- Node13&#45;&gt;Node8 -->
<g id="edge17" class="edge"><title>Node13&#45;&gt;Node8</title>
<path fill="none" stroke="midnightblue" d="M895.538,-237.067C912.693,-238.666 930.805,-240.355 948.274,-241.983"/>
<polygon fill="midnightblue" stroke="midnightblue" points="948.191,-245.491 958.473,-242.934 948.841,-238.521 948.191,-245.491"/>
</g>
<!-- Node15 -->
<g id="node15" class="node"><title>Node15</title>
<g id="a_node15"><a xlink:href="../../d8/d83/classcellsociety__team02_1_1_factory.html#a9a3a57b7db2c081b18c27c829e875bf4" target="_top" xlink:title="cellsociety_team02.Factory.make\lRandomCell">
<polygon fill="white" stroke="black" points="720.5,-302 720.5,-332 895.5,-332 895.5,-302 720.5,-302"/>
<text text-anchor="start" x="728.5" y="-320" font-family="Helvetica,sans-Serif" font-size="10.00">cellsociety_team02.Factory.make</text>
<text text-anchor="middle" x="808" y="-309" font-family="Helvetica,sans-Serif" font-size="10.00">RandomCell</text>
</a>
</g>
</g>
<!-- Node14&#45;&gt;Node15 -->
<g id="edge19" class="edge"><title>Node14&#45;&gt;Node15</title>
<path fill="none" stroke="midnightblue" d="M666.173,-317C680.575,-317 695.583,-317 710.204,-317"/>
<polygon fill="midnightblue" stroke="midnightblue" points="710.252,-320.5 720.252,-317 710.252,-313.5 710.252,-320.5"/>
</g>
<!-- Node16 -->
<g id="node16" class="node"><title>Node16</title>
<g id="a_node16"><a xlink:href="../../d8/d83/classcellsociety__team02_1_1_factory.html#a9584d58dc748c1f625ea2cfc66c5387d" target="_top" xlink:title="cellsociety_team02.Factory.make\lRandomPatch">
<polygon fill="white" stroke="black" points="720.5,-351 720.5,-381 895.5,-381 895.5,-351 720.5,-351"/>
<text text-anchor="start" x="728.5" y="-369" font-family="Helvetica,sans-Serif" font-size="10.00">cellsociety_team02.Factory.make</text>
<text text-anchor="middle" x="808" y="-358" font-family="Helvetica,sans-Serif" font-size="10.00">RandomPatch</text>
</a>
</g>
</g>
<!-- Node14&#45;&gt;Node16 -->
<g id="edge21" class="edge"><title>Node14&#45;&gt;Node16</title>
<path fill="none" stroke="midnightblue" d="M648.957,-332.035C673.687,-337.349 701.685,-343.367 727.172,-348.844"/>
<polygon fill="midnightblue" stroke="midnightblue" points="726.663,-352.314 737.175,-350.994 728.134,-345.471 726.663,-352.314"/>
</g>
<!-- Node15&#45;&gt;Node5 -->
<g id="edge20" class="edge"><title>Node15&#45;&gt;Node5</title>
<path fill="none" stroke="midnightblue" d="M835.253,-301.789C856.716,-289.165 887.7,-270.511 914,-253 916.762,-251.161 986.837,-200.265 1023.34,-173.744"/>
<polygon fill="midnightblue" stroke="midnightblue" points="1025.8,-176.281 1031.83,-167.571 1021.68,-170.618 1025.8,-176.281"/>
</g>
<!-- Node16&#45;&gt;Node8 -->
<g id="edge22" class="edge"><title>Node16&#45;&gt;Node8</title>
<path fill="none" stroke="midnightblue" d="M886.635,-350.958C896.029,-348.138 905.351,-344.84 914,-341 953.878,-323.294 994.472,-293.124 1019.68,-272.643"/>
<polygon fill="midnightblue" stroke="midnightblue" points="1022.13,-275.162 1027.62,-266.1 1017.68,-269.76 1022.13,-275.162"/>
</g>
</g>
</svg>
