<?xml version="1.0" encoding="UTF-8" standalone="no"?>
<!DOCTYPE svg PUBLIC "-//W3C//DTD SVG 1.1//EN"
 "http://www.w3.org/Graphics/SVG/1.1/DTD/svg11.dtd">
<!-- Generated by graphviz version 2.36.0 (20140111.2315)
 -->
<!-- Title: cellsociety_team02.XMLParser.doGiven Pages: 1 -->
<svg width="1004pt" height="159pt"
 viewBox="0.00 0.00 1004.00 159.00" xmlns="http://www.w3.org/2000/svg" xmlns:xlink="http://www.w3.org/1999/xlink">
<g id="graph0" class="graph" transform="scale(1 1) rotate(0) translate(4 155)">
<title>cellsociety_team02.XMLParser.doGiven</title>
<polygon fill="white" stroke="none" points="-4,4 -4,-155 1000,-155 1000,4 -4,4"/>
<!-- Node1 -->
<g id="node1" class="node"><title>Node1</title>
<polygon fill="#bfbfbf" stroke="black" points="0,-55 0,-85 176,-85 176,-55 0,-55"/>
<text text-anchor="start" x="8" y="-73" font-family="Helvetica,sans-Serif" font-size="10.00">cellsociety_team02.XMLParser.do</text>
<text text-anchor="middle" x="88" y="-62" font-family="Helvetica,sans-Serif" font-size="10.00">Given</text>
</g>
<!-- Node2 -->
<g id="node2" class="node"><title>Node2</title>
<g id="a_node2"><a xlink:href="../../d9/db5/classcellsociety__team02_1_1_x_m_l_parser.html#af9e2438fd8fa09e5d6b2d252afa13b1a" target="_top" xlink:title="cellsociety_team02.XMLParser.get\lAttribute">
<polygon fill="white" stroke="black" points="212.5,-121 212.5,-151 391.5,-151 391.5,-121 212.5,-121"/>
<text text-anchor="start" x="220.5" y="-139" font-family="Helvetica,sans-Serif" font-size="10.00">cellsociety_team02.XMLParser.get</text>
<text text-anchor="middle" x="302" y="-128" font-family="Helvetica,sans-Serif" font-size="10.00">Attribute</text>
</a>
</g>
</g>
<!-- Node1&#45;&gt;Node2 -->
<g id="edge1" class="edge"><title>Node1&#45;&gt;Node2</title>
<path fill="none" stroke="midnightblue" d="M137.371,-85.059C168.737,-94.8239 209.776,-107.6 242.907,-117.914"/>
<polygon fill="midnightblue" stroke="midnightblue" points="241.881,-121.261 252.47,-120.892 243.962,-114.577 241.881,-121.261"/>
</g>
<!-- Node3 -->
<g id="node3" class="node"><title>Node3</title>
<g id="a_node3"><a xlink:href="../../d8/d83/classcellsociety__team02_1_1_factory.html#a73f7de8ac528a17623c911f59dc28325" target="_top" xlink:title="cellsociety_team02.Factory.makeCell">
<polygon fill="white" stroke="black" points="428,-60.5 428,-79.5 620,-79.5 620,-60.5 428,-60.5"/>
<text text-anchor="middle" x="524" y="-67.5" font-family="Helvetica,sans-Serif" font-size="10.00">cellsociety_team02.Factory.makeCell</text>
</a>
</g>
</g>
<!-- Node1&#45;&gt;Node3 -->
<g id="edge2" class="edge"><title>Node1&#45;&gt;Node3</title>
<path fill="none" stroke="midnightblue" d="M176.017,-71.5908C188.103,-71.7604 200.361,-71.9054 212,-72 291.997,-72.6503 312.002,-72.6106 392,-72 400.337,-71.9364 408.973,-71.8499 417.651,-71.7486"/>
<polygon fill="midnightblue" stroke="midnightblue" points="417.885,-75.246 427.841,-71.6232 417.799,-68.2466 417.885,-75.246"/>
</g>
<!-- Node6 -->
<g id="node6" class="node"><title>Node6</title>
<g id="a_node6"><a xlink:href="../../d8/d83/classcellsociety__team02_1_1_factory.html#aa3a1a4e218cc6529b3b2e56cd5f8cfff" target="_top" xlink:title="cellsociety_team02.Factory.make\lPatch">
<polygon fill="white" stroke="black" points="436.5,-0 436.5,-30 611.5,-30 611.5,-0 436.5,-0"/>
<text text-anchor="start" x="444.5" y="-18" font-family="Helvetica,sans-Serif" font-size="10.00">cellsociety_team02.Factory.make</text>
<text text-anchor="middle" x="524" y="-7" font-family="Helvetica,sans-Serif" font-size="10.00">Patch</text>
</a>
</g>
</g>
<!-- Node1&#45;&gt;Node6 -->
<g id="edge5" class="edge"><title>Node1&#45;&gt;Node6</title>
<path fill="none" stroke="midnightblue" d="M119.729,-54.8981C144.099,-43.7563 179.371,-29.4565 212,-23 282.767,-8.99666 364.348,-7.42775 426.195,-9.13011"/>
<polygon fill="midnightblue" stroke="midnightblue" points="426.232,-12.6328 436.335,-9.44326 426.448,-5.63616 426.232,-12.6328"/>
</g>
<!-- Node7 -->
<g id="node7" class="node"><title>Node7</title>
<g id="a_node7"><a xlink:href="../../d9/db5/classcellsociety__team02_1_1_x_m_l_parser.html#a405a101ec424944a7032f82f56343d2e" target="_top" xlink:title="cellsociety_team02.XMLParser.set\lNullState">
<polygon fill="white" stroke="black" points="212.5,-33 212.5,-63 391.5,-63 391.5,-33 212.5,-33"/>
<text text-anchor="start" x="220.5" y="-51" font-family="Helvetica,sans-Serif" font-size="10.00">cellsociety_team02.XMLParser.set</text>
<text text-anchor="middle" x="302" y="-40" font-family="Helvetica,sans-Serif" font-size="10.00">NullState</text>
</a>
</g>
</g>
<!-- Node1&#45;&gt;Node7 -->
<g id="edge6" class="edge"><title>Node1&#45;&gt;Node7</title>
<path fill="none" stroke="midnightblue" d="M176.146,-60.9565C184.765,-60.0621 193.556,-59.1499 202.28,-58.2445"/>
<polygon fill="midnightblue" stroke="midnightblue" points="202.892,-61.6999 212.478,-57.1863 202.17,-54.7373 202.892,-61.6999"/>
</g>
<!-- Node4 -->
<g id="node4" class="node"><title>Node4</title>
<g id="a_node4"><a xlink:href="../../d4/df2/class_cell_1_1_pred_prey_cell.html#ab682decb39c5e4f952c7c85929411f6f" target="_top" xlink:title="Cell.PredPreyCell.makeCell">
<polygon fill="white" stroke="black" points="656,-60.5 656,-79.5 800,-79.5 800,-60.5 656,-60.5"/>
<text text-anchor="middle" x="728" y="-67.5" font-family="Helvetica,sans-Serif" font-size="10.00">Cell.PredPreyCell.makeCell</text>
</a>
</g>
</g>
<!-- Node3&#45;&gt;Node4 -->
<g id="edge3" class="edge"><title>Node3&#45;&gt;Node4</title>
<path fill="none" stroke="midnightblue" d="M620.085,-70C628.67,-70 637.311,-70 645.761,-70"/>
<polygon fill="midnightblue" stroke="midnightblue" points="645.956,-73.5001 655.955,-70 645.955,-66.5001 645.956,-73.5001"/>
</g>
<!-- Node5 -->
<g id="node5" class="node"><title>Node5</title>
<g id="a_node5"><a xlink:href="../../d4/df2/class_cell_1_1_pred_prey_cell.html#a218b10c89861e5cbc826511d9b35b1ae" target="_top" xlink:title="Cell.PredPreyCell.PredPreyCell">
<polygon fill="white" stroke="black" points="836,-60.5 836,-79.5 996,-79.5 996,-60.5 836,-60.5"/>
<text text-anchor="middle" x="916" y="-67.5" font-family="Helvetica,sans-Serif" font-size="10.00">Cell.PredPreyCell.PredPreyCell</text>
</a>
</g>
</g>
<!-- Node4&#45;&gt;Node5 -->
<g id="edge4" class="edge"><title>Node4&#45;&gt;Node5</title>
<path fill="none" stroke="midnightblue" d="M800.115,-70C808.518,-70 817.174,-70 825.786,-70"/>
<polygon fill="midnightblue" stroke="midnightblue" points="825.859,-73.5001 835.859,-70 825.859,-66.5001 825.859,-73.5001"/>
</g>
<!-- Node7&#45;&gt;Node3 -->
<g id="edge7" class="edge"><title>Node7&#45;&gt;Node3</title>
<path fill="none" stroke="midnightblue" d="M391.531,-56.8531C400.113,-57.7113 408.876,-58.5876 417.601,-59.4601"/>
<polygon fill="midnightblue" stroke="midnightblue" points="417.513,-62.9687 427.812,-60.4812 418.21,-56.0034 417.513,-62.9687"/>
</g>
<!-- Node7&#45;&gt;Node6 -->
<g id="edge8" class="edge"><title>Node7&#45;&gt;Node6</title>
<path fill="none" stroke="midnightblue" d="M391.531,-34.7203C402.983,-33.0026 414.757,-31.2365 426.331,-29.5004"/>
<polygon fill="midnightblue" stroke="midnightblue" points="427.067,-32.9291 436.438,-27.9844 426.029,-26.0066 427.067,-32.9291"/>
</g>
</g>
</svg>
