<?xml version="1.0" encoding="UTF-8" standalone="no"?>
<!DOCTYPE svg PUBLIC "-//W3C//DTD SVG 1.1//EN"
 "http://www.w3.org/Graphics/SVG/1.1/DTD/svg11.dtd">
<!-- Generated by graphviz version 2.36.0 (20140111.2315)
 -->
<!-- Title: cellsociety_team02.XMLParser.makePatches Pages: 1 -->
<!--zoomable 61 -->
<svg id="main" version="1.1" xmlns="http://www.w3.org/2000/svg" xmlns:xlink="http://www.w3.org/1999/xlink" xml:space="preserve" onload="init(evt)">
<style type="text/css"><![CDATA[
.edge:hover path { stroke: red; }
.edge:hover polygon { stroke: red; fill: red; }
]]></style>
<script type="text/javascript"><![CDATA[
var edges = document.getElementsByTagName('g');
if (edges && edges.length) {
  for (var i=0;i<edges.length;i++) {
    if (edges[i].id.substr(0,4)=='edge') {
      edges[i].setAttribute('class','edge');
    }
  }
}
]]></script>
        <defs>
                <circle id="rim" cx="0" cy="0" r="7"/>
                <circle id="rim2" cx="0" cy="0" r="3.5"/>
                <g id="zoomPlus">
                        <use xlink:href="#rim" fill="#404040">
                                <set attributeName="fill" to="#808080" begin="zoomplus.mouseover" end="zoomplus.mouseout"/>
                        </use>
                        <path d="M-4,0h8M0,-4v8" fill="none" stroke="white" stroke-width="1.5" pointer-events="none"/>
                </g>
                <g id="zoomMin">
                        <use xlink:href="#rim" fill="#404040">
                                <set attributeName="fill" to="#808080" begin="zoomminus.mouseover" end="zoomminus.mouseout"/>
                        </use>
                        <path d="M-4,0h8" fill="none" stroke="white" stroke-width="1.5" pointer-events="none"/>
                </g>
                <g id="dirArrow">
                        <path fill="none" stroke="white" stroke-width="1.5" d="M0,-3.0v7 M-2.5,-0.5L0,-3.0L2.5,-0.5"/>
                </g>
               <g id="resetDef">
                       <use xlink:href="#rim2" fill="#404040">
                               <set attributeName="fill" to="#808080" begin="reset.mouseover" end="reset.mouseout"/>
                       </use>
               </g>
        </defs>

<script type="text/javascript">
var viewWidth = 1272;
var viewHeight = 61;
var sectionId = 'dynsection-21';
</script>
<script xlink:href="../../svgpan.js"/>
<svg id="graph" class="graph">
<g id="viewport">
<title>cellsociety_team02.XMLParser.makePatches</title>
<polygon fill="white" stroke="none" points="-4,4 -4,-57 1268,-57 1268,4 -4,4"/>
<!-- Node1 -->
<g id="node1" class="node"><title>Node1</title>
<polygon fill="#bfbfbf" stroke="black" points="0.5,-22 0.5,-52 191.5,-52 191.5,-22 0.5,-22"/>
<text text-anchor="start" x="8.5" y="-40" font-family="Helvetica,sans-Serif" font-size="10.00">cellsociety_team02.XMLParser.make</text>
<text text-anchor="middle" x="96" y="-29" font-family="Helvetica,sans-Serif" font-size="10.00">Patches</text>
</g>
<!-- Node2 -->
<g id="node2" class="node"><title>Node2</title>
<g id="a_node2"><a xlink:href="../../df/d71/classcellsociety__team02_1_1_grid_model.html#a3884a4fa7f5f19b71ea5a1c2a54fe817" target="_top" xlink:title="cellsociety_team02.GridModel.load">
<polygon fill="white" stroke="black" points="228.5,-27.5 228.5,-46.5 411.5,-46.5 411.5,-27.5 228.5,-27.5"/>
<text text-anchor="middle" x="320" y="-34.5" font-family="Helvetica,sans-Serif" font-size="10.00">cellsociety_team02.GridModel.load</text>
</a>
</g>
</g>
<!-- Node1&#45;&gt;Node2 -->
<g id="edge1" class="edge"><title>Node1&#45;&gt;Node2</title>
<path fill="none" stroke="midnightblue" d="M201.796,-37C210.688,-37 219.633,-37 228.403,-37"/>
<polygon fill="midnightblue" stroke="midnightblue" points="201.792,-33.5001 191.792,-37 201.792,-40.5001 201.792,-33.5001"/>
</g>
<!-- Node3 -->
<g id="node3" class="node"><title>Node3</title>
<g id="a_node3"><a xlink:href="../../d9/daf/classcellsociety__team02_1_1_grid_view.html#aa0cb15c1acd15c18573648b8df447752" target="_top" xlink:title="cellsociety_team02.GridView.load">
<polygon fill="white" stroke="black" points="448,-27.5 448,-46.5 624,-46.5 624,-27.5 448,-27.5"/>
<text text-anchor="middle" x="536" y="-34.5" font-family="Helvetica,sans-Serif" font-size="10.00">cellsociety_team02.GridView.load</text>
</a>
</g>
</g>
<!-- Node2&#45;&gt;Node3 -->
<g id="edge2" class="edge"><title>Node2&#45;&gt;Node3</title>
<path fill="none" stroke="midnightblue" d="M421.9,-37C430.574,-37 439.302,-37 447.854,-37"/>
<polygon fill="midnightblue" stroke="midnightblue" points="421.755,-33.5001 411.755,-37 421.755,-40.5001 421.755,-33.5001"/>
</g>
<!-- Node4 -->
<g id="node4" class="node"><title>Node4</title>
<g id="a_node4"><a xlink:href="../../d9/daf/classcellsociety__team02_1_1_grid_view.html#ada183e314764db770009f944205490df" target="_top" xlink:title="cellsociety_team02.GridView.\lGridView">
<polygon fill="white" stroke="black" points="1108.5,-23 1108.5,-53 1263.5,-53 1263.5,-23 1108.5,-23"/>
<text text-anchor="start" x="1116.5" y="-41" font-family="Helvetica,sans-Serif" font-size="10.00">cellsociety_team02.GridView.</text>
<text text-anchor="middle" x="1186" y="-30" font-family="Helvetica,sans-Serif" font-size="10.00">GridView</text>
</a>
</g>
</g>
<!-- Node3&#45;&gt;Node4 -->
<g id="edge3" class="edge"><title>Node3&#45;&gt;Node4</title>
<path fill="none" stroke="midnightblue" d="M634.238,-38.7275C642.949,-38.838 651.634,-38.932 660,-39 819.5,-40.2967 1006.27,-39.3532 1108.49,-38.6264"/>
<polygon fill="midnightblue" stroke="midnightblue" points="634.063,-35.2249 624.017,-38.5908 633.969,-42.2243 634.063,-35.2249"/>
</g>
<!-- Node5 -->
<g id="node5" class="node"><title>Node5</title>
<g id="a_node5"><a xlink:href="../../d9/daf/classcellsociety__team02_1_1_grid_view.html#afcc7b83f62c116e77ab0843bfd4156b8" target="_top" xlink:title="cellsociety_team02.GridView.make\lButtons">
<polygon fill="white" stroke="black" points="660,-0 660,-30 842,-30 842,-0 660,-0"/>
<text text-anchor="start" x="668" y="-18" font-family="Helvetica,sans-Serif" font-size="10.00">cellsociety_team02.GridView.make</text>
<text text-anchor="middle" x="751" y="-7" font-family="Helvetica,sans-Serif" font-size="10.00">Buttons</text>
</a>
</g>
</g>
<!-- Node3&#45;&gt;Node5 -->
<g id="edge4" class="edge"><title>Node3&#45;&gt;Node5</title>
<path fill="none" stroke="midnightblue" d="M634.201,-26.9605C642.72,-26.0806 651.319,-25.1924 659.777,-24.3188"/>
<polygon fill="midnightblue" stroke="midnightblue" points="633.837,-23.4793 624.25,-27.9883 634.557,-30.4423 633.837,-23.4793"/>
</g>
<!-- Node6 -->
<g id="node6" class="node"><title>Node6</title>
<g id="a_node6"><a xlink:href="../../d9/daf/classcellsociety__team02_1_1_grid_view.html#a4571898657e750f62c2df84cb398e135" target="_top" xlink:title="cellsociety_team02.GridView.initialize">
<polygon fill="white" stroke="black" points="878,-8.5 878,-27.5 1072,-27.5 1072,-8.5 878,-8.5"/>
<text text-anchor="middle" x="975" y="-15.5" font-family="Helvetica,sans-Serif" font-size="10.00">cellsociety_team02.GridView.initialize</text>
</a>
</g>
</g>
<!-- Node5&#45;&gt;Node6 -->
<g id="edge5" class="edge"><title>Node5&#45;&gt;Node6</title>
<path fill="none" stroke="midnightblue" d="M852.565,-16.359C861.028,-16.4733 869.572,-16.5888 877.999,-16.7027"/>
<polygon fill="midnightblue" stroke="midnightblue" points="852.342,-12.8558 842.296,-16.2202 852.248,-19.8551 852.342,-12.8558"/>
</g>
<!-- Node6&#45;&gt;Node4 -->
<g id="edge6" class="edge"><title>Node6&#45;&gt;Node4</title>
<path fill="none" stroke="midnightblue" d="M1082.48,-28.1892C1091.2,-29.024 1099.91,-29.8571 1108.35,-30.6651"/>
<polygon fill="midnightblue" stroke="midnightblue" points="1082.53,-24.6783 1072.24,-27.2097 1081.86,-31.6465 1082.53,-24.6783"/>
</g>
</g>
</svg>
        <g id="navigator" transform="translate(0 0)" fill="#404254">
                <rect fill="#f2f5e9" fill-opacity="0.5" stroke="#606060" stroke-width=".5" x="0" y="0" width="60" height="60"/>
                <use id="zoomplus" xlink:href="#zoomPlus" x="17" y="9" onmousedown="handleZoom(evt,'in')"/>
                <use id="zoomminus" xlink:href="#zoomMin" x="42" y="9" onmousedown="handleZoom(evt,'out')"/>
                <use id="reset" xlink:href="#resetDef" x="30" y="36" onmousedown="handleReset()"/>
                <g id="arrowUp" xlink:href="#dirArrow" transform="translate(30 24)" onmousedown="handlePan(0,-1)">
                  <use xlink:href="#rim" fill="#404040">
                        <set attributeName="fill" to="#808080" begin="arrowUp.mouseover" end="arrowUp.mouseout"/>
                  </use>
                  <path fill="none" stroke="white" stroke-width="1.5" d="M0,-3.0v7 M-2.5,-0.5L0,-3.0L2.5,-0.5"/>
                </g>
                <g id="arrowRight" xlink:href="#dirArrow" transform="rotate(90) translate(36 -43)" onmousedown="handlePan(1,0)">
                  <use xlink:href="#rim" fill="#404040">
                        <set attributeName="fill" to="#808080" begin="arrowRight.mouseover" end="arrowRight.mouseout"/>
                  </use>
                  <path fill="none" stroke="white" stroke-width="1.5" d="M0,-3.0v7 M-2.5,-0.5L0,-3.0L2.5,-0.5"/>
                </g>
                <g id="arrowDown" xlink:href="#dirArrow" transform="rotate(180) translate(-30 -48)" onmousedown="handlePan(0,1)">
                  <use xlink:href="#rim" fill="#404040">
                        <set attributeName="fill" to="#808080" begin="arrowDown.mouseover" end="arrowDown.mouseout"/>
                  </use>
                  <path fill="none" stroke="white" stroke-width="1.5" d="M0,-3.0v7 M-2.5,-0.5L0,-3.0L2.5,-0.5"/>
                </g>
                <g id="arrowLeft" xlink:href="#dirArrow" transform="rotate(270) translate(-36 17)" onmousedown="handlePan(-1,0)">
                  <use xlink:href="#rim" fill="#404040">
                        <set attributeName="fill" to="#808080" begin="arrowLeft.mouseover" end="arrowLeft.mouseout"/>
                  </use>
                  <path fill="none" stroke="white" stroke-width="1.5" d="M0,-3.0v7 M-2.5,-0.5L0,-3.0L2.5,-0.5"/>
                </g>
        </g>
        <svg viewBox="0 0 15 15" width="100%" height="30px" preserveAspectRatio="xMaxYMin meet">
         <g id="arrow_out" transform="scale(0.3 0.3)">
          <a xlink:href="classcellsociety__team02_1_1_x_m_l_parser_a6183c4600a4c3b22a017485f9ae01d4d_icgraph_org.svg" target="_base">
           <rect id="button" ry="5" rx="5" y="6" x="6" height="38" width="38"
                fill="#f2f5e9" fill-opacity="0.5" stroke="#606060" stroke-width="1.0"/>
           <path id="arrow"
             d="M 11.500037,31.436501 C 11.940474,20.09759 22.043105,11.32322 32.158766,21.979434 L 37.068811,17.246167 C 37.068811,17.246167 37.088388,32 37.088388,32 L 22.160133,31.978069 C 22.160133,31.978069 26.997745,27.140456 26.997745,27.140456 C 18.528582,18.264221 13.291696,25.230495 11.500037,31.436501 z"
             style="fill:#404040;"/>
          </a>
         </g>
        </svg>
</svg>
