<?xml version="1.0" encoding="UTF-8" standalone="no"?>
<!DOCTYPE svg PUBLIC "-//W3C//DTD SVG 1.1//EN"
 "http://www.w3.org/Graphics/SVG/1.1/DTD/svg11.dtd">
<!-- Generated by graphviz version 2.36.0 (20140111.2315)
 -->
<!-- Title: Cell.PredPreyCell.checkBreed Pages: 1 -->
<svg width="360pt" height="104pt"
 viewBox="0.00 0.00 360.00 104.00" xmlns="http://www.w3.org/2000/svg" xmlns:xlink="http://www.w3.org/1999/xlink">
<g id="graph0" class="graph" transform="scale(1 1) rotate(0) translate(4 100)">
<title>Cell.PredPreyCell.checkBreed</title>
<polygon fill="white" stroke="none" points="-4,4 -4,-100 356,-100 356,4 -4,4"/>
<!-- Node1 -->
<g id="node1" class="node"><title>Node1</title>
<polygon fill="#bfbfbf" stroke="black" points="0,-38.5 0,-57.5 156,-57.5 156,-38.5 0,-38.5"/>
<text text-anchor="middle" x="78" y="-45.5" font-family="Helvetica,sans-Serif" font-size="10.00">Cell.PredPreyCell.checkBreed</text>
</g>
<!-- Node2 -->
<g id="node2" class="node"><title>Node2</title>
<g id="a_node2"><a xlink:href="../../d4/df2/class_cell_1_1_pred_prey_cell.html#a4198d71dc9ef01659445f95ae91cf284" target="_top" xlink:title="Cell.PredPreyCell.breed">
<polygon fill="white" stroke="black" points="208,-76.5 208,-95.5 336,-95.5 336,-76.5 208,-76.5"/>
<text text-anchor="middle" x="272" y="-83.5" font-family="Helvetica,sans-Serif" font-size="10.00">Cell.PredPreyCell.breed</text>
</a>
</g>
</g>
<!-- Node1&#45;&gt;Node2 -->
<g id="edge1" class="edge"><title>Node1&#45;&gt;Node2</title>
<path fill="none" stroke="midnightblue" d="M127.45,-57.589C153.471,-62.739 185.728,-69.1232 213.069,-74.5344"/>
<polygon fill="midnightblue" stroke="midnightblue" points="212.409,-77.9718 222.899,-76.4799 213.769,-71.105 212.409,-77.9718"/>
</g>
<!-- Node3 -->
<g id="node3" class="node"><title>Node3</title>
<g id="a_node3"><a xlink:href="../../d4/df2/class_cell_1_1_pred_prey_cell.html#a218b10c89861e5cbc826511d9b35b1ae" target="_top" xlink:title="Cell.PredPreyCell.PredPreyCell">
<polygon fill="white" stroke="black" points="192,-38.5 192,-57.5 352,-57.5 352,-38.5 192,-38.5"/>
<text text-anchor="middle" x="272" y="-45.5" font-family="Helvetica,sans-Serif" font-size="10.00">Cell.PredPreyCell.PredPreyCell</text>
</a>
</g>
</g>
<!-- Node1&#45;&gt;Node3 -->
<g id="edge2" class="edge"><title>Node1&#45;&gt;Node3</title>
<path fill="none" stroke="midnightblue" d="M156.264,-48C164.561,-48 173.052,-48 181.477,-48"/>
<polygon fill="midnightblue" stroke="midnightblue" points="181.702,-51.5001 191.702,-48 181.702,-44.5001 181.702,-51.5001"/>
</g>
<!-- Node4 -->
<g id="node4" class="node"><title>Node4</title>
<g id="a_node4"><a xlink:href="../../d0/d0a/class_patch_1_1_patch.html#a798cf940ecaa1d512b2df9c717e4d834" target="_top" xlink:title="Patch.Patch.setFutureCell">
<polygon fill="white" stroke="black" points="203.5,-0.5 203.5,-19.5 340.5,-19.5 340.5,-0.5 203.5,-0.5"/>
<text text-anchor="middle" x="272" y="-7.5" font-family="Helvetica,sans-Serif" font-size="10.00">Patch.Patch.setFutureCell</text>
</a>
</g>
</g>
<!-- Node1&#45;&gt;Node4 -->
<g id="edge3" class="edge"><title>Node1&#45;&gt;Node4</title>
<path fill="none" stroke="midnightblue" d="M127.45,-38.411C153.471,-33.261 185.728,-26.8768 213.069,-21.4656"/>
<polygon fill="midnightblue" stroke="midnightblue" points="213.769,-24.895 222.899,-19.5201 212.409,-18.0282 213.769,-24.895"/>
</g>
</g>
</svg>
