<?xml version="1.0" encoding="UTF-8" standalone="no"?>
<!DOCTYPE svg PUBLIC "-//W3C//DTD SVG 1.1//EN"
 "http://www.w3.org/Graphics/SVG/1.1/DTD/svg11.dtd">
<!-- Generated by graphviz version 2.36.0 (20140111.2315)
 -->
<!-- Title: Cell.PredPreyCell.pickMove Pages: 1 -->
<svg width="322pt" height="66pt"
 viewBox="0.00 0.00 322.00 66.00" xmlns="http://www.w3.org/2000/svg" xmlns:xlink="http://www.w3.org/1999/xlink">
<g id="graph0" class="graph" transform="scale(1 1) rotate(0) translate(4 62)">
<title>Cell.PredPreyCell.pickMove</title>
<polygon fill="white" stroke="none" points="-4,4 -4,-62 318,-62 318,4 -4,4"/>
<!-- Node1 -->
<g id="node1" class="node"><title>Node1</title>
<polygon fill="#bfbfbf" stroke="black" points="0,-19.5 0,-38.5 144,-38.5 144,-19.5 0,-19.5"/>
<text text-anchor="middle" x="72" y="-26.5" font-family="Helvetica,sans-Serif" font-size="10.00">Cell.PredPreyCell.pickMove</text>
</g>
<!-- Node2 -->
<g id="node2" class="node"><title>Node2</title>
<g id="a_node2"><a xlink:href="../../d0/d0a/class_patch_1_1_patch.html#adda421d6371d6e4f0a48e8975423dfb5" target="_top" xlink:title="Patch.Patch.getCurrentX">
<polygon fill="white" stroke="black" points="180.5,-38.5 180.5,-57.5 313.5,-57.5 313.5,-38.5 180.5,-38.5"/>
<text text-anchor="middle" x="247" y="-45.5" font-family="Helvetica,sans-Serif" font-size="10.00">Patch.Patch.getCurrentX</text>
</a>
</g>
</g>
<!-- Node1&#45;&gt;Node2 -->
<g id="edge1" class="edge"><title>Node1&#45;&gt;Node2</title>
<path fill="none" stroke="midnightblue" d="M144.365,-36.8377C152.927,-37.7782 161.695,-38.741 170.316,-39.6879"/>
<polygon fill="midnightblue" stroke="midnightblue" points="170.027,-43.1771 180.349,-40.7898 170.791,-36.219 170.027,-43.1771"/>
</g>
<!-- Node3 -->
<g id="node3" class="node"><title>Node3</title>
<g id="a_node3"><a xlink:href="../../d0/d0a/class_patch_1_1_patch.html#a23fe4590d9c3466c4479ba3c1b072fdc" target="_top" xlink:title="Patch.Patch.getCurrentY">
<polygon fill="white" stroke="black" points="181,-0.5 181,-19.5 313,-19.5 313,-0.5 181,-0.5"/>
<text text-anchor="middle" x="247" y="-7.5" font-family="Helvetica,sans-Serif" font-size="10.00">Patch.Patch.getCurrentY</text>
</a>
</g>
</g>
<!-- Node1&#45;&gt;Node3 -->
<g id="edge2" class="edge"><title>Node1&#45;&gt;Node3</title>
<path fill="none" stroke="midnightblue" d="M144.365,-21.1623C153.061,-20.2071 161.969,-19.2289 170.72,-18.2677"/>
<polygon fill="midnightblue" stroke="midnightblue" points="171.342,-21.7205 180.9,-17.1497 170.578,-14.7624 171.342,-21.7205"/>
</g>
</g>
</svg>
