<?xml version="1.0" encoding="UTF-8" standalone="no"?>
<!DOCTYPE svg PUBLIC "-//W3C//DTD SVG 1.1//EN"
 "http://www.w3.org/Graphics/SVG/1.1/DTD/svg11.dtd">
<!-- Generated by graphviz version 2.36.0 (20140111.2315)
 -->
<!-- Title: Cell.PredPreyCell.pickMove Pages: 1 -->
<svg width="376pt" height="66pt"
 viewBox="0.00 0.00 376.00 66.00" xmlns="http://www.w3.org/2000/svg" xmlns:xlink="http://www.w3.org/1999/xlink">
<g id="graph0" class="graph" transform="scale(1 1) rotate(0) translate(4 62)">
<title>Cell.PredPreyCell.pickMove</title>
<polygon fill="white" stroke="none" points="-4,4 -4,-62 372,-62 372,4 -4,4"/>
<!-- Node1 -->
<g id="node1" class="node"><title>Node1</title>
<polygon fill="#bfbfbf" stroke="black" points="0,-19.5 0,-38.5 144,-38.5 144,-19.5 0,-19.5"/>
<text text-anchor="middle" x="72" y="-26.5" font-family="Helvetica,sans-Serif" font-size="10.00">Cell.PredPreyCell.pickMove</text>
</g>
<!-- Node2 -->
<g id="node2" class="node"><title>Node2</title>
<g id="a_node2"><a xlink:href="../../df/d99/class_cell_1_1_shark_cell.html#ad392515e1d48584cae2153849ddee8b8" target="_top" xlink:title="Cell.SharkCell.updateStateandMove">
<polygon fill="white" stroke="black" points="180,-38.5 180,-57.5 368,-57.5 368,-38.5 180,-38.5"/>
<text text-anchor="middle" x="274" y="-45.5" font-family="Helvetica,sans-Serif" font-size="10.00">Cell.SharkCell.updateStateandMove</text>
</a>
</g>
</g>
<!-- Node1&#45;&gt;Node2 -->
<g id="edge1" class="edge"><title>Node1&#45;&gt;Node2</title>
<path fill="none" stroke="midnightblue" d="M154.229,-36.7168C162.641,-37.5159 171.238,-38.3326 179.768,-39.143"/>
<polygon fill="midnightblue" stroke="midnightblue" points="154.362,-33.2137 144.076,-35.7522 153.7,-40.1823 154.362,-33.2137"/>
</g>
<!-- Node3 -->
<g id="node3" class="node"><title>Node3</title>
<g id="a_node3"><a xlink:href="../../da/db4/class_cell_1_1_fish_cell.html#a99dbc3ff08c9c6f28c41d2f873b9a3c4" target="_top" xlink:title="Cell.FishCell.updateStateandMove">
<polygon fill="white" stroke="black" points="184.5,-0.5 184.5,-19.5 363.5,-19.5 363.5,-0.5 184.5,-0.5"/>
<text text-anchor="middle" x="274" y="-7.5" font-family="Helvetica,sans-Serif" font-size="10.00">Cell.FishCell.updateStateandMove</text>
</a>
</g>
</g>
<!-- Node1&#45;&gt;Node3 -->
<g id="edge2" class="edge"><title>Node1&#45;&gt;Node3</title>
<path fill="none" stroke="midnightblue" d="M154.275,-21.2789C164.166,-20.3392 174.311,-19.3754 184.304,-18.4262"/>
<polygon fill="midnightblue" stroke="midnightblue" points="153.7,-17.8177 144.076,-22.2478 154.362,-24.7863 153.7,-17.8177"/>
</g>
</g>
</svg>
