<?xml version="1.0" encoding="UTF-8" standalone="no"?>
<!DOCTYPE svg PUBLIC "-//W3C//DTD SVG 1.1//EN"
 "http://www.w3.org/Graphics/SVG/1.1/DTD/svg11.dtd">
<!-- Generated by graphviz version 2.36.0 (20140111.2315)
 -->
<!-- Title: Cell.PredPreyCell.makeCell Pages: 1 -->
<svg width="2370pt" height="175pt"
 viewBox="0.00 0.00 2370.00 175.00" xmlns="http://www.w3.org/2000/svg" xmlns:xlink="http://www.w3.org/1999/xlink">
<g id="graph0" class="graph" transform="scale(1 1) rotate(0) translate(4 171)">
<title>Cell.PredPreyCell.makeCell</title>
<polygon fill="white" stroke="none" points="-4,4 -4,-171 2366,-171 2366,4 -4,4"/>
<!-- Node1 -->
<g id="node1" class="node"><title>Node1</title>
<polygon fill="#bfbfbf" stroke="black" points="0,-71.5 0,-90.5 144,-90.5 144,-71.5 0,-71.5"/>
<text text-anchor="middle" x="72" y="-78.5" font-family="Helvetica,sans-Serif" font-size="10.00">Cell.PredPreyCell.makeCell</text>
</g>
<!-- Node2 -->
<g id="node2" class="node"><title>Node2</title>
<g id="a_node2"><a xlink:href="../../d8/d83/classcellsociety__team02_1_1_factory.html#a73f7de8ac528a17623c911f59dc28325" target="_top" xlink:title="cellsociety_team02.Factory.makeCell">
<polygon fill="white" stroke="black" points="180,-71.5 180,-90.5 372,-90.5 372,-71.5 180,-71.5"/>
<text text-anchor="middle" x="276" y="-78.5" font-family="Helvetica,sans-Serif" font-size="10.00">cellsociety_team02.Factory.makeCell</text>
</a>
</g>
</g>
<!-- Node1&#45;&gt;Node2 -->
<g id="edge1" class="edge"><title>Node1&#45;&gt;Node2</title>
<path fill="none" stroke="midnightblue" d="M154.291,-81C162.639,-81 171.174,-81 179.655,-81"/>
<polygon fill="midnightblue" stroke="midnightblue" points="154.218,-77.5001 144.218,-81 154.218,-84.5001 154.218,-77.5001"/>
</g>
<!-- Node3 -->
<g id="node3" class="node"><title>Node3</title>
<g id="a_node3"><a xlink:href="../../d8/d83/classcellsociety__team02_1_1_factory.html#a9a3a57b7db2c081b18c27c829e875bf4" target="_top" xlink:title="cellsociety_team02.Factory.make\lRandomCell">
<polygon fill="white" stroke="black" points="410.5,-137 410.5,-167 585.5,-167 585.5,-137 410.5,-137"/>
<text text-anchor="start" x="418.5" y="-155" font-family="Helvetica,sans-Serif" font-size="10.00">cellsociety_team02.Factory.make</text>
<text text-anchor="middle" x="498" y="-144" font-family="Helvetica,sans-Serif" font-size="10.00">RandomCell</text>
</a>
</g>
</g>
<!-- Node2&#45;&gt;Node3 -->
<g id="edge2" class="edge"><title>Node2&#45;&gt;Node3</title>
<path fill="none" stroke="midnightblue" d="M312.448,-94.1371C338.688,-103.693 375.388,-116.705 408,-127 418.713,-130.382 430.222,-133.784 441.291,-136.941"/>
<polygon fill="midnightblue" stroke="midnightblue" points="313.527,-90.8052 302.933,-90.6568 311.122,-97.3792 313.527,-90.8052"/>
</g>
<!-- Node13 -->
<g id="node13" class="node"><title>Node13</title>
<g id="a_node13"><a xlink:href="../../d8/d83/classcellsociety__team02_1_1_factory.html#a401a66128090c8dd98191986b9db5536" target="_top" xlink:title="cellsociety_team02.Factory.make\lProbCell">
<polygon fill="white" stroke="black" points="410.5,-88 410.5,-118 585.5,-118 585.5,-88 410.5,-88"/>
<text text-anchor="start" x="418.5" y="-106" font-family="Helvetica,sans-Serif" font-size="10.00">cellsociety_team02.Factory.make</text>
<text text-anchor="middle" x="498" y="-95" font-family="Helvetica,sans-Serif" font-size="10.00">ProbCell</text>
</a>
</g>
</g>
<!-- Node2&#45;&gt;Node13 -->
<g id="edge14" class="edge"><title>Node2&#45;&gt;Node13</title>
<path fill="none" stroke="midnightblue" d="M382.346,-91.5346C391.71,-92.471 401.119,-93.4119 410.301,-94.3301"/>
<polygon fill="midnightblue" stroke="midnightblue" points="382.514,-88.0341 372.216,-90.5216 381.818,-94.9993 382.514,-88.0341"/>
</g>
<!-- Node15 -->
<g id="node15" class="node"><title>Node15</title>
<g id="a_node15"><a xlink:href="../../d9/db5/classcellsociety__team02_1_1_x_m_l_parser.html#a98df6887ba7b6cd85f33e6943ff58e49" target="_top" xlink:title="cellsociety_team02.XMLParser.do\lGiven">
<polygon fill="white" stroke="black" points="624,-39 624,-69 800,-69 800,-39 624,-39"/>
<text text-anchor="start" x="632" y="-57" font-family="Helvetica,sans-Serif" font-size="10.00">cellsociety_team02.XMLParser.do</text>
<text text-anchor="middle" x="712" y="-46" font-family="Helvetica,sans-Serif" font-size="10.00">Given</text>
</a>
</g>
</g>
<!-- Node2&#45;&gt;Node15 -->
<g id="edge17" class="edge"><title>Node2&#45;&gt;Node15</title>
<path fill="none" stroke="midnightblue" d="M382.516,-74.4356C456.475,-69.8345 554.154,-63.7577 623.725,-59.4295"/>
<polygon fill="midnightblue" stroke="midnightblue" points="382.006,-70.9605 372.243,-75.0747 382.441,-77.947 382.006,-70.9605"/>
</g>
<!-- Node16 -->
<g id="node16" class="node"><title>Node16</title>
<g id="a_node16"><a xlink:href="../../d9/db5/classcellsociety__team02_1_1_x_m_l_parser.html#a405a101ec424944a7032f82f56343d2e" target="_top" xlink:title="cellsociety_team02.XMLParser.set\lNullState">
<polygon fill="white" stroke="black" points="408.5,-0 408.5,-30 587.5,-30 587.5,-0 408.5,-0"/>
<text text-anchor="start" x="416.5" y="-18" font-family="Helvetica,sans-Serif" font-size="10.00">cellsociety_team02.XMLParser.set</text>
<text text-anchor="middle" x="498" y="-7" font-family="Helvetica,sans-Serif" font-size="10.00">NullState</text>
</a>
</g>
</g>
<!-- Node2&#45;&gt;Node16 -->
<g id="edge19" class="edge"><title>Node2&#45;&gt;Node16</title>
<path fill="none" stroke="midnightblue" d="M318.786,-68.4642C355.152,-57.5543 407.953,-41.7141 446.643,-30.1071"/>
<polygon fill="midnightblue" stroke="midnightblue" points="317.562,-65.1771 308.99,-71.403 319.574,-71.8819 317.562,-65.1771"/>
</g>
<!-- Node4 -->
<g id="node4" class="node"><title>Node4</title>
<g id="a_node4"><a xlink:href="../../d9/db5/classcellsociety__team02_1_1_x_m_l_parser.html#afd9d58234bf5413d7759421f41f36e71" target="_top" xlink:title="cellsociety_team02.XMLParser.do\lRandom">
<polygon fill="white" stroke="black" points="624,-137 624,-167 800,-167 800,-137 624,-137"/>
<text text-anchor="start" x="632" y="-155" font-family="Helvetica,sans-Serif" font-size="10.00">cellsociety_team02.XMLParser.do</text>
<text text-anchor="middle" x="712" y="-144" font-family="Helvetica,sans-Serif" font-size="10.00">Random</text>
</a>
</g>
</g>
<!-- Node3&#45;&gt;Node4 -->
<g id="edge3" class="edge"><title>Node3&#45;&gt;Node4</title>
<path fill="none" stroke="midnightblue" d="M595.637,-152C604.995,-152 614.452,-152 623.711,-152"/>
<polygon fill="midnightblue" stroke="midnightblue" points="595.534,-148.5 585.534,-152 595.534,-155.5 595.534,-148.5"/>
</g>
<!-- Node5 -->
<g id="node5" class="node"><title>Node5</title>
<g id="a_node5"><a xlink:href="../../d9/db5/classcellsociety__team02_1_1_x_m_l_parser.html#adb7ffd2c43825ff504405060ff20178f" target="_top" xlink:title="cellsociety_team02.XMLParser.constructList">
<polygon fill="white" stroke="black" points="836.5,-93.5 836.5,-112.5 1061.5,-112.5 1061.5,-93.5 836.5,-93.5"/>
<text text-anchor="middle" x="949" y="-100.5" font-family="Helvetica,sans-Serif" font-size="10.00">cellsociety_team02.XMLParser.constructList</text>
</a>
</g>
</g>
<!-- Node4&#45;&gt;Node5 -->
<g id="edge4" class="edge"><title>Node4&#45;&gt;Node5</title>
<path fill="none" stroke="midnightblue" d="M795.103,-134.881C831.057,-127.384 871.887,-118.87 902.305,-112.528"/>
<polygon fill="midnightblue" stroke="midnightblue" points="794.18,-131.498 785.105,-136.965 795.609,-138.35 794.18,-131.498"/>
</g>
<!-- Node6 -->
<g id="node6" class="node"><title>Node6</title>
<g id="a_node6"><a xlink:href="../../d9/db5/classcellsociety__team02_1_1_x_m_l_parser.html#aca6776e6016ac742ace5f43d33a03c74" target="_top" xlink:title="cellsociety_team02.XMLParser.make\lCells">
<polygon fill="white" stroke="black" points="1098.5,-113 1098.5,-143 1289.5,-143 1289.5,-113 1098.5,-113"/>
<text text-anchor="start" x="1106.5" y="-131" font-family="Helvetica,sans-Serif" font-size="10.00">cellsociety_team02.XMLParser.make</text>
<text text-anchor="middle" x="1194" y="-120" font-family="Helvetica,sans-Serif" font-size="10.00">Cells</text>
</a>
</g>
</g>
<!-- Node5&#45;&gt;Node6 -->
<g id="edge5" class="edge"><title>Node5&#45;&gt;Node6</title>
<path fill="none" stroke="midnightblue" d="M1052.91,-113.587C1067.96,-115.136 1083.4,-116.724 1098.28,-118.255"/>
<polygon fill="midnightblue" stroke="midnightblue" points="1052.87,-110.065 1042.56,-112.523 1052.15,-117.028 1052.87,-110.065"/>
</g>
<!-- Node12 -->
<g id="node12" class="node"><title>Node12</title>
<g id="a_node12"><a xlink:href="../../d9/db5/classcellsociety__team02_1_1_x_m_l_parser.html#a6183c4600a4c3b22a017485f9ae01d4d" target="_top" xlink:title="cellsociety_team02.XMLParser.make\lPatches">
<polygon fill="white" stroke="black" points="1098.5,-64 1098.5,-94 1289.5,-94 1289.5,-64 1098.5,-64"/>
<text text-anchor="start" x="1106.5" y="-82" font-family="Helvetica,sans-Serif" font-size="10.00">cellsociety_team02.XMLParser.make</text>
<text text-anchor="middle" x="1194" y="-71" font-family="Helvetica,sans-Serif" font-size="10.00">Patches</text>
</a>
</g>
</g>
<!-- Node5&#45;&gt;Node12 -->
<g id="edge12" class="edge"><title>Node5&#45;&gt;Node12</title>
<path fill="none" stroke="midnightblue" d="M1056.47,-92.4841C1070.4,-91.1084 1084.6,-89.7063 1098.32,-88.3516"/>
<polygon fill="midnightblue" stroke="midnightblue" points="1056,-89.0141 1046.39,-93.4801 1056.68,-95.9802 1056,-89.0141"/>
</g>
<!-- Node7 -->
<g id="node7" class="node"><title>Node7</title>
<g id="a_node7"><a xlink:href="../../df/d71/classcellsociety__team02_1_1_grid_model.html#a3884a4fa7f5f19b71ea5a1c2a54fe817" target="_top" xlink:title="cellsociety_team02.GridModel.load">
<polygon fill="white" stroke="black" points="1326.5,-93.5 1326.5,-112.5 1509.5,-112.5 1509.5,-93.5 1326.5,-93.5"/>
<text text-anchor="middle" x="1418" y="-100.5" font-family="Helvetica,sans-Serif" font-size="10.00">cellsociety_team02.GridModel.load</text>
</a>
</g>
</g>
<!-- Node6&#45;&gt;Node7 -->
<g id="edge6" class="edge"><title>Node6&#45;&gt;Node7</title>
<path fill="none" stroke="midnightblue" d="M1299.78,-116.2C1310.7,-114.971 1321.7,-113.732 1332.35,-112.533"/>
<polygon fill="midnightblue" stroke="midnightblue" points="1299.34,-112.728 1289.79,-117.325 1300.12,-119.684 1299.34,-112.728"/>
</g>
<!-- Node8 -->
<g id="node8" class="node"><title>Node8</title>
<g id="a_node8"><a xlink:href="../../d9/daf/classcellsociety__team02_1_1_grid_view.html#aa0cb15c1acd15c18573648b8df447752" target="_top" xlink:title="cellsociety_team02.GridView.load">
<polygon fill="white" stroke="black" points="1546,-93.5 1546,-112.5 1722,-112.5 1722,-93.5 1546,-93.5"/>
<text text-anchor="middle" x="1634" y="-100.5" font-family="Helvetica,sans-Serif" font-size="10.00">cellsociety_team02.GridView.load</text>
</a>
</g>
</g>
<!-- Node7&#45;&gt;Node8 -->
<g id="edge7" class="edge"><title>Node7&#45;&gt;Node8</title>
<path fill="none" stroke="midnightblue" d="M1519.9,-103C1528.57,-103 1537.3,-103 1545.85,-103"/>
<polygon fill="midnightblue" stroke="midnightblue" points="1519.76,-99.5001 1509.76,-103 1519.76,-106.5 1519.76,-99.5001"/>
</g>
<!-- Node9 -->
<g id="node9" class="node"><title>Node9</title>
<g id="a_node9"><a xlink:href="../../d9/daf/classcellsociety__team02_1_1_grid_view.html#ada183e314764db770009f944205490df" target="_top" xlink:title="cellsociety_team02.GridView.\lGridView">
<polygon fill="white" stroke="black" points="2206.5,-89 2206.5,-119 2361.5,-119 2361.5,-89 2206.5,-89"/>
<text text-anchor="start" x="2214.5" y="-107" font-family="Helvetica,sans-Serif" font-size="10.00">cellsociety_team02.GridView.</text>
<text text-anchor="middle" x="2284" y="-96" font-family="Helvetica,sans-Serif" font-size="10.00">GridView</text>
</a>
</g>
</g>
<!-- Node8&#45;&gt;Node9 -->
<g id="edge8" class="edge"><title>Node8&#45;&gt;Node9</title>
<path fill="none" stroke="midnightblue" d="M1732.24,-104.727C1740.95,-104.838 1749.63,-104.932 1758,-105 1917.5,-106.297 2104.27,-105.353 2206.49,-104.626"/>
<polygon fill="midnightblue" stroke="midnightblue" points="1732.06,-101.225 1722.02,-104.591 1731.97,-108.224 1732.06,-101.225"/>
</g>
<!-- Node10 -->
<g id="node10" class="node"><title>Node10</title>
<g id="a_node10"><a xlink:href="../../d9/daf/classcellsociety__team02_1_1_grid_view.html#afcc7b83f62c116e77ab0843bfd4156b8" target="_top" xlink:title="cellsociety_team02.GridView.make\lButtons">
<polygon fill="white" stroke="black" points="1758,-66 1758,-96 1940,-96 1940,-66 1758,-66"/>
<text text-anchor="start" x="1766" y="-84" font-family="Helvetica,sans-Serif" font-size="10.00">cellsociety_team02.GridView.make</text>
<text text-anchor="middle" x="1849" y="-73" font-family="Helvetica,sans-Serif" font-size="10.00">Buttons</text>
</a>
</g>
</g>
<!-- Node8&#45;&gt;Node10 -->
<g id="edge9" class="edge"><title>Node8&#45;&gt;Node10</title>
<path fill="none" stroke="midnightblue" d="M1732.2,-92.9605C1740.72,-92.0806 1749.32,-91.1924 1757.78,-90.3188"/>
<polygon fill="midnightblue" stroke="midnightblue" points="1731.84,-89.4793 1722.25,-93.9883 1732.56,-96.4423 1731.84,-89.4793"/>
</g>
<!-- Node11 -->
<g id="node11" class="node"><title>Node11</title>
<g id="a_node11"><a xlink:href="../../d9/daf/classcellsociety__team02_1_1_grid_view.html#a4571898657e750f62c2df84cb398e135" target="_top" xlink:title="cellsociety_team02.GridView.initialize">
<polygon fill="white" stroke="black" points="1976,-74.5 1976,-93.5 2170,-93.5 2170,-74.5 1976,-74.5"/>
<text text-anchor="middle" x="2073" y="-81.5" font-family="Helvetica,sans-Serif" font-size="10.00">cellsociety_team02.GridView.initialize</text>
</a>
</g>
</g>
<!-- Node10&#45;&gt;Node11 -->
<g id="edge10" class="edge"><title>Node10&#45;&gt;Node11</title>
<path fill="none" stroke="midnightblue" d="M1950.56,-82.359C1959.03,-82.4733 1967.57,-82.5888 1976,-82.7027"/>
<polygon fill="midnightblue" stroke="midnightblue" points="1950.34,-78.8558 1940.3,-82.2202 1950.25,-85.8551 1950.34,-78.8558"/>
</g>
<!-- Node11&#45;&gt;Node9 -->
<g id="edge11" class="edge"><title>Node11&#45;&gt;Node9</title>
<path fill="none" stroke="midnightblue" d="M2180.48,-94.1892C2189.2,-95.024 2197.91,-95.8571 2206.35,-96.6651"/>
<polygon fill="midnightblue" stroke="midnightblue" points="2180.53,-90.6783 2170.24,-93.2097 2179.86,-97.6465 2180.53,-90.6783"/>
</g>
<!-- Node12&#45;&gt;Node7 -->
<g id="edge13" class="edge"><title>Node12&#45;&gt;Node7</title>
<path fill="none" stroke="midnightblue" d="M1299.87,-90.3369C1309.57,-91.3856 1319.33,-92.4411 1328.86,-93.4712"/>
<polygon fill="midnightblue" stroke="midnightblue" points="1300.11,-86.843 1289.79,-89.2478 1299.36,-93.8024 1300.11,-86.843"/>
</g>
<!-- Node14 -->
<g id="node14" class="node"><title>Node14</title>
<g id="a_node14"><a xlink:href="../../d9/db5/classcellsociety__team02_1_1_x_m_l_parser.html#a14ccb1cf6658b9c38357d5bc4f176444" target="_top" xlink:title="cellsociety_team02.XMLParser.do\lProbability">
<polygon fill="white" stroke="black" points="624,-88 624,-118 800,-118 800,-88 624,-88"/>
<text text-anchor="start" x="632" y="-106" font-family="Helvetica,sans-Serif" font-size="10.00">cellsociety_team02.XMLParser.do</text>
<text text-anchor="middle" x="712" y="-95" font-family="Helvetica,sans-Serif" font-size="10.00">Probability</text>
</a>
</g>
</g>
<!-- Node13&#45;&gt;Node14 -->
<g id="edge15" class="edge"><title>Node13&#45;&gt;Node14</title>
<path fill="none" stroke="midnightblue" d="M595.637,-103C604.995,-103 614.452,-103 623.711,-103"/>
<polygon fill="midnightblue" stroke="midnightblue" points="595.534,-99.5001 585.534,-103 595.534,-106.5 595.534,-99.5001"/>
</g>
<!-- Node14&#45;&gt;Node5 -->
<g id="edge16" class="edge"><title>Node14&#45;&gt;Node5</title>
<path fill="none" stroke="midnightblue" d="M810.182,-103C818.778,-103 827.524,-103 836.228,-103"/>
<polygon fill="midnightblue" stroke="midnightblue" points="810.171,-99.5001 800.171,-103 810.171,-106.5 810.171,-99.5001"/>
</g>
<!-- Node15&#45;&gt;Node5 -->
<g id="edge18" class="edge"><title>Node15&#45;&gt;Node5</title>
<path fill="none" stroke="midnightblue" d="M795.103,-71.1194C831.057,-78.6161 871.887,-87.1296 902.305,-93.472"/>
<polygon fill="midnightblue" stroke="midnightblue" points="795.609,-67.6496 785.105,-69.0346 794.18,-74.5022 795.609,-67.6496"/>
</g>
<!-- Node16&#45;&gt;Node15 -->
<g id="edge20" class="edge"><title>Node16&#45;&gt;Node15</title>
<path fill="none" stroke="midnightblue" d="M590.863,-31.8994C603.678,-34.2567 616.772,-36.6657 629.381,-38.9851"/>
<polygon fill="midnightblue" stroke="midnightblue" points="591.13,-28.3897 580.661,-30.0226 589.863,-35.2742 591.13,-28.3897"/>
</g>
</g>
</svg>
