<?xml version="1.0" encoding="UTF-8" standalone="no"?>
<!DOCTYPE svg PUBLIC "-//W3C//DTD SVG 1.1//EN"
 "http://www.w3.org/Graphics/SVG/1.1/DTD/svg11.dtd">
<!-- Generated by graphviz version 2.36.0 (20140111.2315)
 -->
<!-- Title: Cell.PredPreyCell.breed Pages: 1 -->
<svg width="552pt" height="66pt"
 viewBox="0.00 0.00 552.00 66.00" xmlns="http://www.w3.org/2000/svg" xmlns:xlink="http://www.w3.org/1999/xlink">
<g id="graph0" class="graph" transform="scale(1 1) rotate(0) translate(4 62)">
<title>Cell.PredPreyCell.breed</title>
<polygon fill="white" stroke="none" points="-4,4 -4,-62 548,-62 548,4 -4,4"/>
<!-- Node1 -->
<g id="node1" class="node"><title>Node1</title>
<polygon fill="#bfbfbf" stroke="black" points="0,-19.5 0,-38.5 128,-38.5 128,-19.5 0,-19.5"/>
<text text-anchor="middle" x="64" y="-26.5" font-family="Helvetica,sans-Serif" font-size="10.00">Cell.PredPreyCell.breed</text>
</g>
<!-- Node2 -->
<g id="node2" class="node"><title>Node2</title>
<g id="a_node2"><a xlink:href="../../d4/df2/class_cell_1_1_pred_prey_cell.html#a718ac42962d2c125788c85518cc1031e" target="_top" xlink:title="Cell.PredPreyCell.checkBreed">
<polygon fill="white" stroke="black" points="164,-19.5 164,-38.5 320,-38.5 320,-19.5 164,-19.5"/>
<text text-anchor="middle" x="242" y="-26.5" font-family="Helvetica,sans-Serif" font-size="10.00">Cell.PredPreyCell.checkBreed</text>
</a>
</g>
</g>
<!-- Node1&#45;&gt;Node2 -->
<g id="edge1" class="edge"><title>Node1&#45;&gt;Node2</title>
<path fill="none" stroke="midnightblue" d="M138.273,-29C146.755,-29 155.424,-29 163.954,-29"/>
<polygon fill="midnightblue" stroke="midnightblue" points="138.043,-25.5001 128.043,-29 138.043,-32.5001 138.043,-25.5001"/>
</g>
<!-- Node3 -->
<g id="node3" class="node"><title>Node3</title>
<g id="a_node3"><a xlink:href="../../da/db4/class_cell_1_1_fish_cell.html#a99dbc3ff08c9c6f28c41d2f873b9a3c4" target="_top" xlink:title="Cell.FishCell.updateStateandMove">
<polygon fill="white" stroke="black" points="360.5,-38.5 360.5,-57.5 539.5,-57.5 539.5,-38.5 360.5,-38.5"/>
<text text-anchor="middle" x="450" y="-45.5" font-family="Helvetica,sans-Serif" font-size="10.00">Cell.FishCell.updateStateandMove</text>
</a>
</g>
</g>
<!-- Node2&#45;&gt;Node3 -->
<g id="edge2" class="edge"><title>Node2&#45;&gt;Node3</title>
<path fill="none" stroke="midnightblue" d="M330.46,-37.0667C340.299,-37.9742 350.331,-38.8995 360.187,-39.8085"/>
<polygon fill="midnightblue" stroke="midnightblue" points="330.572,-33.5623 320.293,-36.129 329.929,-40.5327 330.572,-33.5623"/>
</g>
<!-- Node4 -->
<g id="node4" class="node"><title>Node4</title>
<g id="a_node4"><a xlink:href="../../df/d99/class_cell_1_1_shark_cell.html#ad392515e1d48584cae2153849ddee8b8" target="_top" xlink:title="Cell.SharkCell.updateStateandMove">
<polygon fill="white" stroke="black" points="356,-0.5 356,-19.5 544,-19.5 544,-0.5 356,-0.5"/>
<text text-anchor="middle" x="450" y="-7.5" font-family="Helvetica,sans-Serif" font-size="10.00">Cell.SharkCell.updateStateandMove</text>
</a>
</g>
</g>
<!-- Node2&#45;&gt;Node4 -->
<g id="edge3" class="edge"><title>Node2&#45;&gt;Node4</title>
<path fill="none" stroke="midnightblue" d="M330.493,-20.9303C338.926,-20.1525 347.501,-19.3616 355.984,-18.5791"/>
<polygon fill="midnightblue" stroke="midnightblue" points="329.929,-17.4673 320.293,-21.871 330.572,-24.4377 329.929,-17.4673"/>
</g>
</g>
</svg>
