<?xml version="1.0" encoding="UTF-8" standalone="no"?>
<!DOCTYPE svg PUBLIC "-//W3C//DTD SVG 1.1//EN"
 "http://www.w3.org/Graphics/SVG/1.1/DTD/svg11.dtd">
<!-- Generated by graphviz version 2.36.0 (20140111.2315)
 -->
<!-- Title: Patch.Patch Pages: 1 -->
<svg width="190pt" height="174pt"
 viewBox="0.00 0.00 190.00 174.00" xmlns="http://www.w3.org/2000/svg" xmlns:xlink="http://www.w3.org/1999/xlink">
<g id="graph0" class="graph" transform="scale(1 1) rotate(0) translate(4 170)">
<title>Patch.Patch</title>
<polygon fill="white" stroke="none" points="-4,4 -4,-170 186,-170 186,4 -4,4"/>
<!-- Node1 -->
<g id="node1" class="node"><title>Node1</title>
<polygon fill="#bfbfbf" stroke="black" points="3,-0.5 3,-19.5 75,-19.5 75,-0.5 3,-0.5"/>
<text text-anchor="middle" x="39" y="-7.5" font-family="Helvetica,sans-Serif" font-size="10.00">Patch.Patch</text>
</g>
<!-- Node2 -->
<g id="node2" class="node"><title>Node2</title>
<polygon fill="white" stroke="#bfbfbf" points="0,-146.5 0,-165.5 122,-165.5 122,-146.5 0,-146.5"/>
<text text-anchor="middle" x="61" y="-153.5" font-family="Helvetica,sans-Serif" font-size="10.00">Map&lt; String, String &gt;</text>
</g>
<!-- Node2&#45;&gt;Node1 -->
<g id="edge1" class="edge"><title>Node2&#45;&gt;Node1</title>
<path fill="none" stroke="#9a32cd" stroke-dasharray="5,2" d="M49.5076,-137.739C42.9612,-126.846 35.4037,-112.196 32,-98 25.252,-69.8555 32.4699,-35.2788 36.5702,-19.5348"/>
<polygon fill="#9a32cd" stroke="#9a32cd" points="46.5742,-139.649 54.8705,-146.238 52.4942,-135.913 46.5742,-139.649"/>
<text text-anchor="middle" x="69" y="-85.5" font-family="Helvetica,sans-Serif" font-size="10.00"> myParameters</text>
</g>
<!-- Node3 -->
<g id="node3" class="node"><title>Node3</title>
<g id="a_node3"><a xlink:href="../../d5/d5c/class_cell_1_1_cell.html" target="_top" xlink:title="Cell.Cell">
<polygon fill="white" stroke="black" points="115,-78.5 115,-97.5 169,-97.5 169,-78.5 115,-78.5"/>
<text text-anchor="middle" x="142" y="-85.5" font-family="Helvetica,sans-Serif" font-size="10.00">Cell.Cell</text>
</a>
</g>
</g>
<!-- Node2&#45;&gt;Node3 -->
<g id="edge3" class="edge"><title>Node2&#45;&gt;Node3</title>
<path fill="none" stroke="#9a32cd" stroke-dasharray="5,2" d="M79.7352,-139.734C95.7802,-126.661 118.309,-108.304 131.408,-97.6305"/>
<polygon fill="#9a32cd" stroke="#9a32cd" points="77.1308,-137.342 71.5893,-146.372 81.5526,-142.768 77.1308,-137.342"/>
<text text-anchor="middle" x="145" y="-119.5" font-family="Helvetica,sans-Serif" font-size="10.00"> myParameters</text>
</g>
<!-- Node3&#45;&gt;Node1 -->
<g id="edge2" class="edge"><title>Node3&#45;&gt;Node1</title>
<path fill="none" stroke="#9a32cd" stroke-dasharray="5,2" d="M121.875,-72.1505C100.664,-56.4999 67.9811,-32.3841 50.6776,-19.6165"/>
<polygon fill="#9a32cd" stroke="#9a32cd" points="120.06,-75.1608 130.185,-78.2818 124.216,-69.5281 120.06,-75.1608"/>
<text text-anchor="middle" x="138" y="-52" font-family="Helvetica,sans-Serif" font-size="10.00"> myCurrentCell</text>
<text text-anchor="middle" x="138" y="-41" font-family="Helvetica,sans-Serif" font-size="10.00">myFutureCell</text>
</g>
</g>
</svg>
