<?xml version="1.0" encoding="UTF-8" standalone="no"?>
<!DOCTYPE svg PUBLIC "-//W3C//DTD SVG 1.1//EN"
 "http://www.w3.org/Graphics/SVG/1.1/DTD/svg11.dtd">
<!-- Generated by graphviz version 2.36.0 (20140111.2315)
 -->
<!-- Title: cellsociety_team02.GridModel.numState Pages: 1 -->
<!--zoomable 164 -->
<svg id="main" version="1.1" xmlns="http://www.w3.org/2000/svg" xmlns:xlink="http://www.w3.org/1999/xlink" xml:space="preserve" onload="init(evt)">
<style type="text/css"><![CDATA[
.edge:hover path { stroke: red; }
.edge:hover polygon { stroke: red; fill: red; }
]]></style>
<script type="text/javascript"><![CDATA[
var edges = document.getElementsByTagName('g');
if (edges && edges.length) {
  for (var i=0;i<edges.length;i++) {
    if (edges[i].id.substr(0,4)=='edge') {
      edges[i].setAttribute('class','edge');
    }
  }
}
]]></script>
        <defs>
                <circle id="rim" cx="0" cy="0" r="7"/>
                <circle id="rim2" cx="0" cy="0" r="3.5"/>
                <g id="zoomPlus">
                        <use xlink:href="#rim" fill="#404040">
                                <set attributeName="fill" to="#808080" begin="zoomplus.mouseover" end="zoomplus.mouseout"/>
                        </use>
                        <path d="M-4,0h8M0,-4v8" fill="none" stroke="white" stroke-width="1.5" pointer-events="none"/>
                </g>
                <g id="zoomMin">
                        <use xlink:href="#rim" fill="#404040">
                                <set attributeName="fill" to="#808080" begin="zoomminus.mouseover" end="zoomminus.mouseout"/>
                        </use>
                        <path d="M-4,0h8" fill="none" stroke="white" stroke-width="1.5" pointer-events="none"/>
                </g>
                <g id="dirArrow">
                        <path fill="none" stroke="white" stroke-width="1.5" d="M0,-3.0v7 M-2.5,-0.5L0,-3.0L2.5,-0.5"/>
                </g>
               <g id="resetDef">
                       <use xlink:href="#rim2" fill="#404040">
                               <set attributeName="fill" to="#808080" begin="reset.mouseover" end="reset.mouseout"/>
                       </use>
               </g>
        </defs>

<script type="text/javascript">
var viewWidth = 2370;
var viewHeight = 164;
var sectionId = 'dynsection-11';
</script>
<script xlink:href="../../svgpan.js"/>
<svg id="graph" class="graph">
<g id="viewport">
<title>cellsociety_team02.GridModel.numState</title>
<polygon fill="white" stroke="none" points="-4,4 -4,-160 2366,-160 2366,4 -4,4"/>
<!-- Node1 -->
<g id="node1" class="node"><title>Node1</title>
<polygon fill="#bfbfbf" stroke="black" points="0.5,-112 0.5,-142 185.5,-142 185.5,-112 0.5,-112"/>
<text text-anchor="start" x="8.5" y="-130" font-family="Helvetica,sans-Serif" font-size="10.00">cellsociety_team02.GridModel.num</text>
<text text-anchor="middle" x="93" y="-119" font-family="Helvetica,sans-Serif" font-size="10.00">State</text>
</g>
<!-- Node2 -->
<g id="node2" class="node"><title>Node2</title>
<g id="a_node2"><a xlink:href="../../df/d71/classcellsociety__team02_1_1_grid_model.html#aaa16e9ad7b7de321cfc772caf45dcc89" target="_top" xlink:title="cellsociety_team02.GridModel.addData">
<polygon fill="white" stroke="black" points="222,-117.5 222,-136.5 426,-136.5 426,-117.5 222,-117.5"/>
<text text-anchor="middle" x="324" y="-124.5" font-family="Helvetica,sans-Serif" font-size="10.00">cellsociety_team02.GridModel.addData</text>
</a>
</g>
</g>
<!-- Node1&#45;&gt;Node2 -->
<g id="edge1" class="edge"><title>Node1&#45;&gt;Node2</title>
<path fill="none" stroke="midnightblue" d="M195.866,-127C204.468,-127 213.166,-127 221.763,-127"/>
<polygon fill="midnightblue" stroke="midnightblue" points="195.824,-123.5 185.824,-127 195.824,-130.5 195.824,-123.5"/>
</g>
<!-- Node3 -->
<g id="node3" class="node"><title>Node3</title>
<g id="a_node3"><a xlink:href="../../d9/daf/classcellsociety__team02_1_1_grid_view.html#acf332ae230af02cadc77649e0b6fc0ff" target="_top" xlink:title="cellsociety_team02.GridView.make\lGraph">
<polygon fill="white" stroke="black" points="462,-112 462,-142 644,-142 644,-112 462,-112"/>
<text text-anchor="start" x="470" y="-130" font-family="Helvetica,sans-Serif" font-size="10.00">cellsociety_team02.GridView.make</text>
<text text-anchor="middle" x="553" y="-119" font-family="Helvetica,sans-Serif" font-size="10.00">Graph</text>
</a>
</g>
</g>
<!-- Node2&#45;&gt;Node3 -->
<g id="edge2" class="edge"><title>Node2&#45;&gt;Node3</title>
<path fill="none" stroke="midnightblue" d="M436.225,-127C444.766,-127 453.324,-127 461.705,-127"/>
<polygon fill="midnightblue" stroke="midnightblue" points="436.218,-123.5 426.218,-127 436.218,-130.5 436.218,-123.5"/>
</g>
<!-- Node4 -->
<g id="node4" class="node"><title>Node4</title>
<g id="a_node4"><a xlink:href="../../d9/daf/classcellsociety__team02_1_1_grid_view.html#aa0cb15c1acd15c18573648b8df447752" target="_top" xlink:title="cellsociety_team02.GridView.load">
<polygon fill="white" stroke="black" points="1546,-136.5 1546,-155.5 1722,-155.5 1722,-136.5 1546,-136.5"/>
<text text-anchor="middle" x="1634" y="-143.5" font-family="Helvetica,sans-Serif" font-size="10.00">cellsociety_team02.GridView.load</text>
</a>
</g>
</g>
<!-- Node3&#45;&gt;Node4 -->
<g id="edge3" class="edge"><title>Node3&#45;&gt;Node4</title>
<path fill="none" stroke="midnightblue" d="M654.167,-133.991C740.46,-139.409 868.375,-146 980,-146 980,-146 980,-146 1196,-146 1317.39,-146 1457.74,-146 1545.94,-146"/>
<polygon fill="midnightblue" stroke="midnightblue" points="654.318,-130.493 644.117,-133.353 653.875,-137.479 654.318,-130.493"/>
</g>
<!-- Node8 -->
<g id="node8" class="node"><title>Node8</title>
<g id="a_node8"><a xlink:href="../../d9/daf/classcellsociety__team02_1_1_grid_view.html#a27a105e1810531f4958f9fc192c3cef1" target="_top" xlink:title="cellsociety_team02.GridView.step">
<polygon fill="white" stroke="black" points="680,-98.5 680,-117.5 856,-117.5 856,-98.5 680,-98.5"/>
<text text-anchor="middle" x="768" y="-105.5" font-family="Helvetica,sans-Serif" font-size="10.00">cellsociety_team02.GridView.step</text>
</a>
</g>
</g>
<!-- Node3&#45;&gt;Node8 -->
<g id="edge8" class="edge"><title>Node3&#45;&gt;Node8</title>
<path fill="none" stroke="midnightblue" d="M654.038,-118.076C662.603,-117.312 671.224,-116.543 679.678,-115.789"/>
<polygon fill="midnightblue" stroke="midnightblue" points="653.672,-114.595 644.022,-118.97 654.294,-121.567 653.672,-114.595"/>
</g>
<!-- Node5 -->
<g id="node5" class="node"><title>Node5</title>
<g id="a_node5"><a xlink:href="../../d9/daf/classcellsociety__team02_1_1_grid_view.html#ada183e314764db770009f944205490df" target="_top" xlink:title="cellsociety_team02.GridView.\lGridView">
<polygon fill="white" stroke="black" points="2206.5,-110 2206.5,-140 2361.5,-140 2361.5,-110 2206.5,-110"/>
<text text-anchor="start" x="2214.5" y="-128" font-family="Helvetica,sans-Serif" font-size="10.00">cellsociety_team02.GridView.</text>
<text text-anchor="middle" x="2284" y="-117" font-family="Helvetica,sans-Serif" font-size="10.00">GridView</text>
</a>
</g>
</g>
<!-- Node4&#45;&gt;Node5 -->
<g id="edge4" class="edge"><title>Node4&#45;&gt;Node5</title>
<path fill="none" stroke="midnightblue" d="M1732.37,-142.845C1861.94,-138.645 2088.4,-131.307 2206.47,-127.48"/>
<polygon fill="midnightblue" stroke="midnightblue" points="1731.94,-139.357 1722.06,-143.179 1732.16,-146.353 1731.94,-139.357"/>
</g>
<!-- Node6 -->
<g id="node6" class="node"><title>Node6</title>
<g id="a_node6"><a xlink:href="../../d9/daf/classcellsociety__team02_1_1_grid_view.html#afcc7b83f62c116e77ab0843bfd4156b8" target="_top" xlink:title="cellsociety_team02.GridView.make\lButtons">
<polygon fill="white" stroke="black" points="1758,-87 1758,-117 1940,-117 1940,-87 1758,-87"/>
<text text-anchor="start" x="1766" y="-105" font-family="Helvetica,sans-Serif" font-size="10.00">cellsociety_team02.GridView.make</text>
<text text-anchor="middle" x="1849" y="-94" font-family="Helvetica,sans-Serif" font-size="10.00">Buttons</text>
</a>
</g>
</g>
<!-- Node4&#45;&gt;Node6 -->
<g id="edge5" class="edge"><title>Node4&#45;&gt;Node6</title>
<path fill="none" stroke="midnightblue" d="M1691.16,-134.399C1716.85,-129.092 1747.62,-122.736 1775.07,-117.065"/>
<polygon fill="midnightblue" stroke="midnightblue" points="1690.3,-131.002 1681.22,-136.453 1691.72,-137.857 1690.3,-131.002"/>
</g>
<!-- Node7 -->
<g id="node7" class="node"><title>Node7</title>
<g id="a_node7"><a xlink:href="../../d9/daf/classcellsociety__team02_1_1_grid_view.html#a4571898657e750f62c2df84cb398e135" target="_top" xlink:title="cellsociety_team02.GridView.initialize">
<polygon fill="white" stroke="black" points="1976,-95.5 1976,-114.5 2170,-114.5 2170,-95.5 1976,-95.5"/>
<text text-anchor="middle" x="2073" y="-102.5" font-family="Helvetica,sans-Serif" font-size="10.00">cellsociety_team02.GridView.initialize</text>
</a>
</g>
</g>
<!-- Node6&#45;&gt;Node7 -->
<g id="edge6" class="edge"><title>Node6&#45;&gt;Node7</title>
<path fill="none" stroke="midnightblue" d="M1950.56,-103.359C1959.03,-103.473 1967.57,-103.589 1976,-103.703"/>
<polygon fill="midnightblue" stroke="midnightblue" points="1950.34,-99.8558 1940.3,-103.22 1950.25,-106.855 1950.34,-99.8558"/>
</g>
<!-- Node7&#45;&gt;Node5 -->
<g id="edge7" class="edge"><title>Node7&#45;&gt;Node5</title>
<path fill="none" stroke="midnightblue" d="M2180.48,-115.189C2189.2,-116.024 2197.91,-116.857 2206.35,-117.665"/>
<polygon fill="midnightblue" stroke="midnightblue" points="2180.53,-111.678 2170.24,-114.21 2179.86,-118.646 2180.53,-111.678"/>
</g>
<!-- Node8&#45;&gt;Node6 -->
<g id="edge9" class="edge"><title>Node8&#45;&gt;Node6</title>
<path fill="none" stroke="midnightblue" d="M866.119,-108C952.261,-108 1081.51,-108 1194,-108 1194,-108 1194,-108 1416,-108 1534.14,-108 1670.43,-105.729 1757.82,-103.981"/>
<polygon fill="midnightblue" stroke="midnightblue" points="866.094,-104.5 856.094,-108 866.094,-111.5 866.094,-104.5"/>
</g>
<!-- Node9 -->
<g id="node9" class="node"><title>Node9</title>
<g id="a_node9"><a xlink:href="../../d9/daf/classcellsociety__team02_1_1_grid_view.html#aa1d09688b48a4a95513e15eea18ec0e6" target="_top" xlink:title="cellsociety_team02.GridView.start\lHandler">
<polygon fill="white" stroke="black" points="892,-49 892,-79 1070,-79 1070,-49 892,-49"/>
<text text-anchor="start" x="900" y="-67" font-family="Helvetica,sans-Serif" font-size="10.00">cellsociety_team02.GridView.start</text>
<text text-anchor="middle" x="981" y="-56" font-family="Helvetica,sans-Serif" font-size="10.00">Handler</text>
</a>
</g>
</g>
<!-- Node8&#45;&gt;Node9 -->
<g id="edge10" class="edge"><title>Node8&#45;&gt;Node9</title>
<path fill="none" stroke="midnightblue" d="M824.633,-96.3987C850.083,-91.0917 880.561,-84.7362 907.755,-79.0654"/>
<polygon fill="midnightblue" stroke="midnightblue" points="823.859,-92.9849 814.784,-98.4527 825.288,-99.8375 823.859,-92.9849"/>
</g>
<!-- Node10 -->
<g id="node10" class="node"><title>Node10</title>
<g id="a_node10"><a xlink:href="../../d9/daf/classcellsociety__team02_1_1_grid_view.html#a27ed5fc9bbf44efab6d23cb07096c36a" target="_top" xlink:title="cellsociety_team02.GridView.start\lAnimation">
<polygon fill="white" stroke="black" points="1106,-49 1106,-79 1284,-79 1284,-49 1106,-49"/>
<text text-anchor="start" x="1114" y="-67" font-family="Helvetica,sans-Serif" font-size="10.00">cellsociety_team02.GridView.start</text>
<text text-anchor="middle" x="1195" y="-56" font-family="Helvetica,sans-Serif" font-size="10.00">Animation</text>
</a>
</g>
</g>
<!-- Node9&#45;&gt;Node10 -->
<g id="edge11" class="edge"><title>Node9&#45;&gt;Node10</title>
<path fill="none" stroke="midnightblue" d="M1080.11,-64C1088.7,-64 1097.36,-64 1105.87,-64"/>
<polygon fill="midnightblue" stroke="midnightblue" points="1080.07,-60.5001 1070.07,-64 1080.07,-67.5001 1080.07,-60.5001"/>
</g>
<!-- Node11 -->
<g id="node11" class="node"><title>Node11</title>
<g id="a_node11"><a xlink:href="../../d9/daf/classcellsociety__team02_1_1_grid_view.html#a7b94250b9b4e419eb3b97394e3b86052" target="_top" xlink:title="cellsociety_team02.GridView.play\lPause">
<polygon fill="white" stroke="black" points="1327.5,-49 1327.5,-79 1502.5,-79 1502.5,-49 1327.5,-49"/>
<text text-anchor="start" x="1335.5" y="-67" font-family="Helvetica,sans-Serif" font-size="10.00">cellsociety_team02.GridView.play</text>
<text text-anchor="middle" x="1415" y="-56" font-family="Helvetica,sans-Serif" font-size="10.00">Pause</text>
</a>
</g>
</g>
<!-- Node10&#45;&gt;Node11 -->
<g id="edge12" class="edge"><title>Node10&#45;&gt;Node11</title>
<path fill="none" stroke="midnightblue" d="M1294.16,-64C1305.25,-64 1316.48,-64 1327.4,-64"/>
<polygon fill="midnightblue" stroke="midnightblue" points="1294.04,-60.5001 1284.04,-64 1294.04,-67.5001 1294.04,-60.5001"/>
</g>
<!-- Node12 -->
<g id="node12" class="node"><title>Node12</title>
<g id="a_node12"><a xlink:href="../../d9/daf/classcellsociety__team02_1_1_grid_view.html#a21d8f68b9be54d2f23f17af421c78b12" target="_top" xlink:title="cellsociety_team02.GridView.update\lSpeed">
<polygon fill="white" stroke="black" points="1320.5,-0 1320.5,-30 1509.5,-30 1509.5,-0 1320.5,-0"/>
<text text-anchor="start" x="1328.5" y="-18" font-family="Helvetica,sans-Serif" font-size="10.00">cellsociety_team02.GridView.update</text>
<text text-anchor="middle" x="1415" y="-7" font-family="Helvetica,sans-Serif" font-size="10.00">Speed</text>
</a>
</g>
</g>
<!-- Node10&#45;&gt;Node12 -->
<g id="edge14" class="edge"><title>Node10&#45;&gt;Node12</title>
<path fill="none" stroke="midnightblue" d="M1272.78,-46.7419C1297.07,-41.282 1323.71,-35.295 1347.24,-30.0062"/>
<polygon fill="midnightblue" stroke="midnightblue" points="1271.88,-43.3575 1262.89,-48.9654 1273.41,-50.1871 1271.88,-43.3575"/>
</g>
<!-- Node11&#45;&gt;Node6 -->
<g id="edge13" class="edge"><title>Node11&#45;&gt;Node6</title>
<path fill="none" stroke="midnightblue" d="M1512.81,-72.5153C1586.13,-78.965 1686.13,-87.7612 1757.78,-94.0642"/>
<polygon fill="midnightblue" stroke="midnightblue" points="1512.91,-69.0111 1502.64,-71.6213 1512.3,-75.9842 1512.91,-69.0111"/>
</g>
<!-- Node13 -->
<g id="node13" class="node"><title>Node13</title>
<g id="a_node13"><a xlink:href="../../d9/daf/classcellsociety__team02_1_1_grid_view.html#a08ac9f0ccad1d9db92c9d92a127d77bc" target="_top" xlink:title="cellsociety_team02.GridView.set\lUpSpeedSlider">
<polygon fill="white" stroke="black" points="1549,-3 1549,-33 1719,-33 1719,-3 1549,-3"/>
<text text-anchor="start" x="1557" y="-21" font-family="Helvetica,sans-Serif" font-size="10.00">cellsociety_team02.GridView.set</text>
<text text-anchor="middle" x="1634" y="-10" font-family="Helvetica,sans-Serif" font-size="10.00">UpSpeedSlider</text>
</a>
</g>
</g>
<!-- Node12&#45;&gt;Node13 -->
<g id="edge15" class="edge"><title>Node12&#45;&gt;Node13</title>
<path fill="none" stroke="midnightblue" d="M1519.76,-16.4345C1529.54,-16.5697 1539.37,-16.7056 1548.94,-16.8378"/>
<polygon fill="midnightblue" stroke="midnightblue" points="1519.65,-12.9327 1509.6,-16.294 1519.55,-19.932 1519.65,-12.9327"/>
</g>
<!-- Node13&#45;&gt;Node6 -->
<g id="edge16" class="edge"><title>Node13&#45;&gt;Node6</title>
<path fill="none" stroke="midnightblue" d="M1682.5,-36.7327C1720.9,-51.8761 1774.25,-72.9157 1809.89,-86.9711"/>
<polygon fill="midnightblue" stroke="midnightblue" points="1683.67,-33.4303 1673.08,-33.0175 1681.1,-39.9422 1683.67,-33.4303"/>
</g>
</g>
</svg>
        <g id="navigator" transform="translate(0 0)" fill="#404254">
                <rect fill="#f2f5e9" fill-opacity="0.5" stroke="#606060" stroke-width=".5" x="0" y="0" width="60" height="60"/>
                <use id="zoomplus" xlink:href="#zoomPlus" x="17" y="9" onmousedown="handleZoom(evt,'in')"/>
                <use id="zoomminus" xlink:href="#zoomMin" x="42" y="9" onmousedown="handleZoom(evt,'out')"/>
                <use id="reset" xlink:href="#resetDef" x="30" y="36" onmousedown="handleReset()"/>
                <g id="arrowUp" xlink:href="#dirArrow" transform="translate(30 24)" onmousedown="handlePan(0,-1)">
                  <use xlink:href="#rim" fill="#404040">
                        <set attributeName="fill" to="#808080" begin="arrowUp.mouseover" end="arrowUp.mouseout"/>
                  </use>
                  <path fill="none" stroke="white" stroke-width="1.5" d="M0,-3.0v7 M-2.5,-0.5L0,-3.0L2.5,-0.5"/>
                </g>
                <g id="arrowRight" xlink:href="#dirArrow" transform="rotate(90) translate(36 -43)" onmousedown="handlePan(1,0)">
                  <use xlink:href="#rim" fill="#404040">
                        <set attributeName="fill" to="#808080" begin="arrowRight.mouseover" end="arrowRight.mouseout"/>
                  </use>
                  <path fill="none" stroke="white" stroke-width="1.5" d="M0,-3.0v7 M-2.5,-0.5L0,-3.0L2.5,-0.5"/>
                </g>
                <g id="arrowDown" xlink:href="#dirArrow" transform="rotate(180) translate(-30 -48)" onmousedown="handlePan(0,1)">
                  <use xlink:href="#rim" fill="#404040">
                        <set attributeName="fill" to="#808080" begin="arrowDown.mouseover" end="arrowDown.mouseout"/>
                  </use>
                  <path fill="none" stroke="white" stroke-width="1.5" d="M0,-3.0v7 M-2.5,-0.5L0,-3.0L2.5,-0.5"/>
                </g>
                <g id="arrowLeft" xlink:href="#dirArrow" transform="rotate(270) translate(-36 17)" onmousedown="handlePan(-1,0)">
                  <use xlink:href="#rim" fill="#404040">
                        <set attributeName="fill" to="#808080" begin="arrowLeft.mouseover" end="arrowLeft.mouseout"/>
                  </use>
                  <path fill="none" stroke="white" stroke-width="1.5" d="M0,-3.0v7 M-2.5,-0.5L0,-3.0L2.5,-0.5"/>
                </g>
        </g>
        <svg viewBox="0 0 15 15" width="100%" height="30px" preserveAspectRatio="xMaxYMin meet">
         <g id="arrow_out" transform="scale(0.3 0.3)">
          <a xlink:href="classcellsociety__team02_1_1_grid_model_abf618b18bf0b7c25d5717317c00b9269_icgraph_org.svg" target="_base">
           <rect id="button" ry="5" rx="5" y="6" x="6" height="38" width="38"
                fill="#f2f5e9" fill-opacity="0.5" stroke="#606060" stroke-width="1.0"/>
           <path id="arrow"
             d="M 11.500037,31.436501 C 11.940474,20.09759 22.043105,11.32322 32.158766,21.979434 L 37.068811,17.246167 C 37.068811,17.246167 37.088388,32 37.088388,32 L 22.160133,31.978069 C 22.160133,31.978069 26.997745,27.140456 26.997745,27.140456 C 18.528582,18.264221 13.291696,25.230495 11.500037,31.436501 z"
             style="fill:#404040;"/>
          </a>
         </g>
        </svg>
</svg>
