<?xml version="1.0" encoding="UTF-8" standalone="no"?>
<!DOCTYPE svg PUBLIC "-//W3C//DTD SVG 1.1//EN"
 "http://www.w3.org/Graphics/SVG/1.1/DTD/svg11.dtd">
<!-- Generated by graphviz version 2.36.0 (20140111.2315)
 -->
<!-- Title: cellsociety_team02.GridModel.load Pages: 1 -->
<svg width="1044pt" height="61pt"
 viewBox="0.00 0.00 1044.00 61.00" xmlns="http://www.w3.org/2000/svg" xmlns:xlink="http://www.w3.org/1999/xlink">
<g id="graph0" class="graph" transform="scale(1 1) rotate(0) translate(4 57)">
<title>cellsociety_team02.GridModel.load</title>
<polygon fill="white" stroke="none" points="-4,4 -4,-57 1040,-57 1040,4 -4,4"/>
<!-- Node1 -->
<g id="node1" class="node"><title>Node1</title>
<polygon fill="#bfbfbf" stroke="black" points="0.5,-27.5 0.5,-46.5 183.5,-46.5 183.5,-27.5 0.5,-27.5"/>
<text text-anchor="middle" x="92" y="-34.5" font-family="Helvetica,sans-Serif" font-size="10.00">cellsociety_team02.GridModel.load</text>
</g>
<!-- Node2 -->
<g id="node2" class="node"><title>Node2</title>
<g id="a_node2"><a xlink:href="../../d9/daf/classcellsociety__team02_1_1_grid_view.html#aa0cb15c1acd15c18573648b8df447752" target="_top" xlink:title="cellsociety_team02.GridView.load">
<polygon fill="white" stroke="black" points="220,-27.5 220,-46.5 396,-46.5 396,-27.5 220,-27.5"/>
<text text-anchor="middle" x="308" y="-34.5" font-family="Helvetica,sans-Serif" font-size="10.00">cellsociety_team02.GridView.load</text>
</a>
</g>
</g>
<!-- Node1&#45;&gt;Node2 -->
<g id="edge1" class="edge"><title>Node1&#45;&gt;Node2</title>
<path fill="none" stroke="midnightblue" d="M193.9,-37C202.574,-37 211.302,-37 219.854,-37"/>
<polygon fill="midnightblue" stroke="midnightblue" points="193.755,-33.5001 183.755,-37 193.755,-40.5001 193.755,-33.5001"/>
</g>
<!-- Node3 -->
<g id="node3" class="node"><title>Node3</title>
<g id="a_node3"><a xlink:href="../../d9/daf/classcellsociety__team02_1_1_grid_view.html#ada183e314764db770009f944205490df" target="_top" xlink:title="cellsociety_team02.GridView.\lGridView">
<polygon fill="white" stroke="black" points="880.5,-23 880.5,-53 1035.5,-53 1035.5,-23 880.5,-23"/>
<text text-anchor="start" x="888.5" y="-41" font-family="Helvetica,sans-Serif" font-size="10.00">cellsociety_team02.GridView.</text>
<text text-anchor="middle" x="958" y="-30" font-family="Helvetica,sans-Serif" font-size="10.00">GridView</text>
</a>
</g>
</g>
<!-- Node2&#45;&gt;Node3 -->
<g id="edge2" class="edge"><title>Node2&#45;&gt;Node3</title>
<path fill="none" stroke="midnightblue" d="M406.238,-38.7275C414.949,-38.838 423.634,-38.932 432,-39 591.5,-40.2967 778.266,-39.3532 880.486,-38.6264"/>
<polygon fill="midnightblue" stroke="midnightblue" points="406.063,-35.2249 396.017,-38.5908 405.969,-42.2243 406.063,-35.2249"/>
</g>
<!-- Node4 -->
<g id="node4" class="node"><title>Node4</title>
<g id="a_node4"><a xlink:href="../../d9/daf/classcellsociety__team02_1_1_grid_view.html#afcc7b83f62c116e77ab0843bfd4156b8" target="_top" xlink:title="cellsociety_team02.GridView.make\lButtons">
<polygon fill="white" stroke="black" points="432,-0 432,-30 614,-30 614,-0 432,-0"/>
<text text-anchor="start" x="440" y="-18" font-family="Helvetica,sans-Serif" font-size="10.00">cellsociety_team02.GridView.make</text>
<text text-anchor="middle" x="523" y="-7" font-family="Helvetica,sans-Serif" font-size="10.00">Buttons</text>
</a>
</g>
</g>
<!-- Node2&#45;&gt;Node4 -->
<g id="edge3" class="edge"><title>Node2&#45;&gt;Node4</title>
<path fill="none" stroke="midnightblue" d="M406.201,-26.9605C414.72,-26.0806 423.319,-25.1924 431.777,-24.3188"/>
<polygon fill="midnightblue" stroke="midnightblue" points="405.837,-23.4793 396.25,-27.9883 406.557,-30.4423 405.837,-23.4793"/>
</g>
<!-- Node5 -->
<g id="node5" class="node"><title>Node5</title>
<g id="a_node5"><a xlink:href="../../d9/daf/classcellsociety__team02_1_1_grid_view.html#a4571898657e750f62c2df84cb398e135" target="_top" xlink:title="cellsociety_team02.GridView.initialize">
<polygon fill="white" stroke="black" points="650,-8.5 650,-27.5 844,-27.5 844,-8.5 650,-8.5"/>
<text text-anchor="middle" x="747" y="-15.5" font-family="Helvetica,sans-Serif" font-size="10.00">cellsociety_team02.GridView.initialize</text>
</a>
</g>
</g>
<!-- Node4&#45;&gt;Node5 -->
<g id="edge4" class="edge"><title>Node4&#45;&gt;Node5</title>
<path fill="none" stroke="midnightblue" d="M624.565,-16.359C633.028,-16.4733 641.572,-16.5888 649.999,-16.7027"/>
<polygon fill="midnightblue" stroke="midnightblue" points="624.342,-12.8558 614.296,-16.2202 624.248,-19.8551 624.342,-12.8558"/>
</g>
<!-- Node5&#45;&gt;Node3 -->
<g id="edge5" class="edge"><title>Node5&#45;&gt;Node3</title>
<path fill="none" stroke="midnightblue" d="M854.477,-28.1892C863.201,-29.024 871.907,-29.8571 880.351,-30.6651"/>
<polygon fill="midnightblue" stroke="midnightblue" points="854.53,-24.6783 844.242,-27.2097 853.863,-31.6465 854.53,-24.6783"/>
</g>
</g>
</svg>
