<?xml version="1.0" encoding="UTF-8" standalone="no"?>
<!DOCTYPE svg PUBLIC "-//W3C//DTD SVG 1.1//EN"
 "http://www.w3.org/Graphics/SVG/1.1/DTD/svg11.dtd">
<!-- Generated by graphviz version 2.36.0 (20140111.2315)
 -->
<!-- Title: cellsociety_team02.GridModel.changeState Pages: 1 -->
<svg width="386pt" height="142pt"
 viewBox="0.00 0.00 386.00 142.00" xmlns="http://www.w3.org/2000/svg" xmlns:xlink="http://www.w3.org/1999/xlink">
<g id="graph0" class="graph" transform="scale(1 1) rotate(0) translate(4 138)">
<title>cellsociety_team02.GridModel.changeState</title>
<polygon fill="white" stroke="none" points="-4,4 -4,-138 382,-138 382,4 -4,4"/>
<!-- Node1 -->
<g id="node1" class="node"><title>Node1</title>
<polygon fill="#bfbfbf" stroke="black" points="0,-52 0,-82 198,-82 198,-52 0,-52"/>
<text text-anchor="start" x="8" y="-70" font-family="Helvetica,sans-Serif" font-size="10.00">cellsociety_team02.GridModel.change</text>
<text text-anchor="middle" x="99" y="-59" font-family="Helvetica,sans-Serif" font-size="10.00">State</text>
</g>
<!-- Node2 -->
<g id="node2" class="node"><title>Node2</title>
<g id="a_node2"><a xlink:href="../../d0/d0a/class_patch_1_1_patch.html#ab49e64fb74f1147d834efd81af480fae" target="_top" xlink:title="Patch.Patch.getCurrentCell">
<polygon fill="white" stroke="black" points="234,-114.5 234,-133.5 378,-133.5 378,-114.5 234,-114.5"/>
<text text-anchor="middle" x="306" y="-121.5" font-family="Helvetica,sans-Serif" font-size="10.00">Patch.Patch.getCurrentCell</text>
</a>
</g>
</g>
<!-- Node1&#45;&gt;Node2 -->
<g id="edge1" class="edge"><title>Node1&#45;&gt;Node2</title>
<path fill="none" stroke="midnightblue" d="M152.452,-82.0693C177.168,-89.1202 207.074,-97.5799 234,-105 242.134,-107.242 250.804,-109.593 259.189,-111.848"/>
<polygon fill="midnightblue" stroke="midnightblue" points="258.287,-115.229 268.852,-114.438 260.099,-108.468 258.287,-115.229"/>
</g>
<!-- Node3 -->
<g id="node3" class="node"><title>Node3</title>
<g id="a_node3"><a xlink:href="../../d5/d5c/class_cell_1_1_cell.html#a04d500ffc9f19932a4ff0738f2f1dbc6" target="_top" xlink:title="Cell.Cell.getCurrentState">
<polygon fill="white" stroke="black" points="238.5,-76.5 238.5,-95.5 373.5,-95.5 373.5,-76.5 238.5,-76.5"/>
<text text-anchor="middle" x="306" y="-83.5" font-family="Helvetica,sans-Serif" font-size="10.00">Cell.Cell.getCurrentState</text>
</a>
</g>
</g>
<!-- Node1&#45;&gt;Node3 -->
<g id="edge2" class="edge"><title>Node1&#45;&gt;Node3</title>
<path fill="none" stroke="midnightblue" d="M198.297,-76.1104C208.364,-77.0435 218.485,-77.9816 228.271,-78.8886"/>
<polygon fill="midnightblue" stroke="midnightblue" points="228.051,-82.3831 238.332,-79.821 228.697,-75.413 228.051,-82.3831"/>
</g>
<!-- Node4 -->
<g id="node4" class="node"><title>Node4</title>
<g id="a_node4"><a xlink:href="../../d5/d5c/class_cell_1_1_cell.html#add0f546a4e0a3a341c7265de89c3f173" target="_top" xlink:title="Cell.Cell.setCurrentState">
<polygon fill="white" stroke="black" points="239,-38.5 239,-57.5 373,-57.5 373,-38.5 239,-38.5"/>
<text text-anchor="middle" x="306" y="-45.5" font-family="Helvetica,sans-Serif" font-size="10.00">Cell.Cell.setCurrentState</text>
</a>
</g>
</g>
<!-- Node1&#45;&gt;Node4 -->
<g id="edge3" class="edge"><title>Node1&#45;&gt;Node4</title>
<path fill="none" stroke="midnightblue" d="M198.297,-57.8896C208.517,-56.9424 218.792,-55.99 228.716,-55.0702"/>
<polygon fill="midnightblue" stroke="midnightblue" points="229.279,-58.5331 238.913,-54.1251 228.633,-51.563 229.279,-58.5331"/>
</g>
<!-- Node5 -->
<g id="node5" class="node"><title>Node5</title>
<g id="a_node5"><a xlink:href="../../d5/d5c/class_cell_1_1_cell.html#ac892366c1fbbf3a930396fb88f3538a9" target="_top" xlink:title="Cell.Cell.setFutureState">
<polygon fill="white" stroke="black" points="242,-0.5 242,-19.5 370,-19.5 370,-0.5 242,-0.5"/>
<text text-anchor="middle" x="306" y="-7.5" font-family="Helvetica,sans-Serif" font-size="10.00">Cell.Cell.setFutureState</text>
</a>
</g>
</g>
<!-- Node1&#45;&gt;Node5 -->
<g id="edge4" class="edge"><title>Node1&#45;&gt;Node5</title>
<path fill="none" stroke="midnightblue" d="M152.452,-51.9307C177.168,-44.8798 207.074,-36.4201 234,-29 242.134,-26.7583 250.804,-24.4071 259.189,-22.1523"/>
<polygon fill="midnightblue" stroke="midnightblue" points="260.099,-25.5319 268.852,-19.5622 258.287,-18.7705 260.099,-25.5319"/>
</g>
</g>
</svg>
