<?xml version="1.0" encoding="UTF-8" standalone="no"?>
<!DOCTYPE svg PUBLIC "-//W3C//DTD SVG 1.1//EN"
 "http://www.w3.org/Graphics/SVG/1.1/DTD/svg11.dtd">
<!-- Generated by graphviz version 2.36.0 (20140111.2315)
 -->
<!-- Title: cellsociety_team02.GridModel.update Pages: 1 -->
<svg width="1924pt" height="116pt"
 viewBox="0.00 0.00 1924.00 116.00" xmlns="http://www.w3.org/2000/svg" xmlns:xlink="http://www.w3.org/1999/xlink">
<g id="graph0" class="graph" transform="scale(1 1) rotate(0) translate(4 112)">
<title>cellsociety_team02.GridModel.update</title>
<polygon fill="white" stroke="none" points="-4,4 -4,-112 1920,-112 1920,4 -4,4"/>
<!-- Node1 -->
<g id="node1" class="node"><title>Node1</title>
<polygon fill="#bfbfbf" stroke="black" points="0.5,-76.5 0.5,-95.5 197.5,-95.5 197.5,-76.5 0.5,-76.5"/>
<text text-anchor="middle" x="99" y="-83.5" font-family="Helvetica,sans-Serif" font-size="10.00">cellsociety_team02.GridModel.update</text>
</g>
<!-- Node2 -->
<g id="node2" class="node"><title>Node2</title>
<g id="a_node2"><a xlink:href="../../d9/daf/classcellsociety__team02_1_1_grid_view.html#a27a105e1810531f4958f9fc192c3cef1" target="_top" xlink:title="cellsociety_team02.GridView.step">
<polygon fill="white" stroke="black" points="234,-76.5 234,-95.5 410,-95.5 410,-76.5 234,-76.5"/>
<text text-anchor="middle" x="322" y="-83.5" font-family="Helvetica,sans-Serif" font-size="10.00">cellsociety_team02.GridView.step</text>
</a>
</g>
</g>
<!-- Node1&#45;&gt;Node2 -->
<g id="edge1" class="edge"><title>Node1&#45;&gt;Node2</title>
<path fill="none" stroke="midnightblue" d="M207.76,-86C216.454,-86 225.171,-86 233.695,-86"/>
<polygon fill="midnightblue" stroke="midnightblue" points="207.577,-82.5001 197.577,-86 207.577,-89.5001 207.577,-82.5001"/>
</g>
<!-- Node3 -->
<g id="node3" class="node"><title>Node3</title>
<g id="a_node3"><a xlink:href="../../d9/daf/classcellsociety__team02_1_1_grid_view.html#afcc7b83f62c116e77ab0843bfd4156b8" target="_top" xlink:title="cellsociety_team02.GridView.make\lButtons">
<polygon fill="white" stroke="black" points="1312,-49 1312,-79 1494,-79 1494,-49 1312,-49"/>
<text text-anchor="start" x="1320" y="-67" font-family="Helvetica,sans-Serif" font-size="10.00">cellsociety_team02.GridView.make</text>
<text text-anchor="middle" x="1403" y="-56" font-family="Helvetica,sans-Serif" font-size="10.00">Buttons</text>
</a>
</g>
</g>
<!-- Node2&#45;&gt;Node3 -->
<g id="edge2" class="edge"><title>Node2&#45;&gt;Node3</title>
<path fill="none" stroke="midnightblue" d="M420.045,-93.8849C506.139,-100.197 635.355,-108 748,-108 748,-108 748,-108 970,-108 1106.29,-108 1140.8,-105.228 1276,-88 1294,-85.7059 1313.31,-82.4401 1331.27,-79.0537"/>
<polygon fill="midnightblue" stroke="midnightblue" points="420.257,-90.3911 410.026,-93.1428 419.74,-97.3719 420.257,-90.3911"/>
</g>
<!-- Node6 -->
<g id="node6" class="node"><title>Node6</title>
<g id="a_node6"><a xlink:href="../../d9/daf/classcellsociety__team02_1_1_grid_view.html#aa1d09688b48a4a95513e15eea18ec0e6" target="_top" xlink:title="cellsociety_team02.GridView.start\lHandler">
<polygon fill="white" stroke="black" points="446,-49 446,-79 624,-79 624,-49 446,-49"/>
<text text-anchor="start" x="454" y="-67" font-family="Helvetica,sans-Serif" font-size="10.00">cellsociety_team02.GridView.start</text>
<text text-anchor="middle" x="535" y="-56" font-family="Helvetica,sans-Serif" font-size="10.00">Handler</text>
</a>
</g>
</g>
<!-- Node2&#45;&gt;Node6 -->
<g id="edge5" class="edge"><title>Node2&#45;&gt;Node6</title>
<path fill="none" stroke="midnightblue" d="M420.063,-75.8797C428.642,-74.9851 437.297,-74.0828 445.797,-73.1965"/>
<polygon fill="midnightblue" stroke="midnightblue" points="419.623,-72.4065 410.04,-76.9247 420.349,-79.3688 419.623,-72.4065"/>
</g>
<!-- Node4 -->
<g id="node4" class="node"><title>Node4</title>
<g id="a_node4"><a xlink:href="../../d9/daf/classcellsociety__team02_1_1_grid_view.html#a4571898657e750f62c2df84cb398e135" target="_top" xlink:title="cellsociety_team02.GridView.initialize">
<polygon fill="white" stroke="black" points="1530,-54.5 1530,-73.5 1724,-73.5 1724,-54.5 1530,-54.5"/>
<text text-anchor="middle" x="1627" y="-61.5" font-family="Helvetica,sans-Serif" font-size="10.00">cellsociety_team02.GridView.initialize</text>
</a>
</g>
</g>
<!-- Node3&#45;&gt;Node4 -->
<g id="edge3" class="edge"><title>Node3&#45;&gt;Node4</title>
<path fill="none" stroke="midnightblue" d="M1504.56,-64C1513.03,-64 1521.57,-64 1530,-64"/>
<polygon fill="midnightblue" stroke="midnightblue" points="1504.3,-60.5001 1494.3,-64 1504.3,-67.5001 1504.3,-60.5001"/>
</g>
<!-- Node5 -->
<g id="node5" class="node"><title>Node5</title>
<g id="a_node5"><a xlink:href="../../d9/daf/classcellsociety__team02_1_1_grid_view.html#ada183e314764db770009f944205490df" target="_top" xlink:title="cellsociety_team02.GridView.\lGridView">
<polygon fill="white" stroke="black" points="1760.5,-49 1760.5,-79 1915.5,-79 1915.5,-49 1760.5,-49"/>
<text text-anchor="start" x="1768.5" y="-67" font-family="Helvetica,sans-Serif" font-size="10.00">cellsociety_team02.GridView.</text>
<text text-anchor="middle" x="1838" y="-56" font-family="Helvetica,sans-Serif" font-size="10.00">GridView</text>
</a>
</g>
</g>
<!-- Node4&#45;&gt;Node5 -->
<g id="edge4" class="edge"><title>Node4&#45;&gt;Node5</title>
<path fill="none" stroke="midnightblue" d="M1734.48,-64C1743.2,-64 1751.91,-64 1760.35,-64"/>
<polygon fill="midnightblue" stroke="midnightblue" points="1734.24,-60.5001 1724.24,-64 1734.24,-67.5001 1734.24,-60.5001"/>
</g>
<!-- Node7 -->
<g id="node7" class="node"><title>Node7</title>
<g id="a_node7"><a xlink:href="../../d9/daf/classcellsociety__team02_1_1_grid_view.html#a27ed5fc9bbf44efab6d23cb07096c36a" target="_top" xlink:title="cellsociety_team02.GridView.start\lAnimation">
<polygon fill="white" stroke="black" points="660,-49 660,-79 838,-79 838,-49 660,-49"/>
<text text-anchor="start" x="668" y="-67" font-family="Helvetica,sans-Serif" font-size="10.00">cellsociety_team02.GridView.start</text>
<text text-anchor="middle" x="749" y="-56" font-family="Helvetica,sans-Serif" font-size="10.00">Animation</text>
</a>
</g>
</g>
<!-- Node6&#45;&gt;Node7 -->
<g id="edge6" class="edge"><title>Node6&#45;&gt;Node7</title>
<path fill="none" stroke="midnightblue" d="M634.107,-64C642.7,-64 651.363,-64 659.868,-64"/>
<polygon fill="midnightblue" stroke="midnightblue" points="634.065,-60.5001 624.065,-64 634.065,-67.5001 634.065,-60.5001"/>
</g>
<!-- Node8 -->
<g id="node8" class="node"><title>Node8</title>
<g id="a_node8"><a xlink:href="../../d9/daf/classcellsociety__team02_1_1_grid_view.html#a7b94250b9b4e419eb3b97394e3b86052" target="_top" xlink:title="cellsociety_team02.GridView.play\lPause">
<polygon fill="white" stroke="black" points="1100.5,-49 1100.5,-79 1275.5,-79 1275.5,-49 1100.5,-49"/>
<text text-anchor="start" x="1108.5" y="-67" font-family="Helvetica,sans-Serif" font-size="10.00">cellsociety_team02.GridView.play</text>
<text text-anchor="middle" x="1188" y="-56" font-family="Helvetica,sans-Serif" font-size="10.00">Pause</text>
</a>
</g>
</g>
<!-- Node7&#45;&gt;Node8 -->
<g id="edge7" class="edge"><title>Node7&#45;&gt;Node8</title>
<path fill="none" stroke="midnightblue" d="M848.201,-64C923.972,-64 1027.78,-64 1100.46,-64"/>
<polygon fill="midnightblue" stroke="midnightblue" points="848.171,-60.5001 838.17,-64 848.17,-67.5001 848.171,-60.5001"/>
</g>
<!-- Node9 -->
<g id="node9" class="node"><title>Node9</title>
<g id="a_node9"><a xlink:href="../../d9/daf/classcellsociety__team02_1_1_grid_view.html#a21d8f68b9be54d2f23f17af421c78b12" target="_top" xlink:title="cellsociety_team02.GridView.update\lSpeed">
<polygon fill="white" stroke="black" points="874.5,-2 874.5,-32 1063.5,-32 1063.5,-2 874.5,-2"/>
<text text-anchor="start" x="882.5" y="-20" font-family="Helvetica,sans-Serif" font-size="10.00">cellsociety_team02.GridView.update</text>
<text text-anchor="middle" x="969" y="-9" font-family="Helvetica,sans-Serif" font-size="10.00">Speed</text>
</a>
</g>
</g>
<!-- Node7&#45;&gt;Node9 -->
<g id="edge9" class="edge"><title>Node7&#45;&gt;Node9</title>
<path fill="none" stroke="midnightblue" d="M829.458,-46.8692C852.018,-42.0053 876.405,-36.7476 898.337,-32.019"/>
<polygon fill="midnightblue" stroke="midnightblue" points="828.614,-43.4707 819.576,-48.9997 830.089,-50.3135 828.614,-43.4707"/>
</g>
<!-- Node8&#45;&gt;Node3 -->
<g id="edge8" class="edge"><title>Node8&#45;&gt;Node3</title>
<path fill="none" stroke="midnightblue" d="M1285.81,-64C1294.52,-64 1303.33,-64 1311.98,-64"/>
<polygon fill="midnightblue" stroke="midnightblue" points="1285.64,-60.5001 1275.64,-64 1285.64,-67.5001 1285.64,-60.5001"/>
</g>
<!-- Node10 -->
<g id="node10" class="node"><title>Node10</title>
<g id="a_node10"><a xlink:href="../../d9/daf/classcellsociety__team02_1_1_grid_view.html#a08ac9f0ccad1d9db92c9d92a127d77bc" target="_top" xlink:title="cellsociety_team02.GridView.set\lUpSpeedSlider">
<polygon fill="white" stroke="black" points="1103,-0 1103,-30 1273,-30 1273,-0 1103,-0"/>
<text text-anchor="start" x="1111" y="-18" font-family="Helvetica,sans-Serif" font-size="10.00">cellsociety_team02.GridView.set</text>
<text text-anchor="middle" x="1188" y="-7" font-family="Helvetica,sans-Serif" font-size="10.00">UpSpeedSlider</text>
</a>
</g>
</g>
<!-- Node9&#45;&gt;Node10 -->
<g id="edge10" class="edge"><title>Node9&#45;&gt;Node10</title>
<path fill="none" stroke="midnightblue" d="M1073.76,-16.0437C1083.54,-15.9535 1093.37,-15.8629 1102.94,-15.7748"/>
<polygon fill="midnightblue" stroke="midnightblue" points="1073.57,-12.5452 1063.6,-16.1373 1073.63,-19.5449 1073.57,-12.5452"/>
</g>
<!-- Node10&#45;&gt;Node3 -->
<g id="edge11" class="edge"><title>Node10&#45;&gt;Node3</title>
<path fill="none" stroke="midnightblue" d="M1264.34,-32.3309C1287.98,-37.7712 1313.88,-43.7285 1336.77,-48.9938"/>
<polygon fill="midnightblue" stroke="midnightblue" points="1264.88,-28.8657 1254.35,-30.0346 1263.32,-35.6875 1264.88,-28.8657"/>
</g>
</g>
</svg>
