<?xml version="1.0" encoding="UTF-8" standalone="no"?>
<!DOCTYPE svg PUBLIC "-//W3C//DTD SVG 1.1//EN"
 "http://www.w3.org/Graphics/SVG/1.1/DTD/svg11.dtd">
<!-- Generated by graphviz version 2.36.0 (20140111.2315)
 -->
<!-- Title: cellsociety_team02.GridModel.load Pages: 1 -->
<svg width="1762pt" height="445pt"
 viewBox="0.00 0.00 1762.00 445.00" xmlns="http://www.w3.org/2000/svg" xmlns:xlink="http://www.w3.org/1999/xlink">
<g id="graph0" class="graph" transform="scale(1 1) rotate(0) translate(4 441)">
<title>cellsociety_team02.GridModel.load</title>
<polygon fill="white" stroke="none" points="-4,4 -4,-441 1758,-441 1758,4 -4,4"/>
<!-- Node1 -->
<g id="node1" class="node"><title>Node1</title>
<polygon fill="#bfbfbf" stroke="black" points="0.5,-275.5 0.5,-294.5 183.5,-294.5 183.5,-275.5 0.5,-275.5"/>
<text text-anchor="middle" x="92" y="-282.5" font-family="Helvetica,sans-Serif" font-size="10.00">cellsociety_team02.GridModel.load</text>
</g>
<!-- Node2 -->
<g id="node2" class="node"><title>Node2</title>
<g id="a_node2"><a xlink:href="../../d9/db5/classcellsociety__team02_1_1_x_m_l_parser.html#ad621bbe1f6d08774bed0611b83ad1874" target="_top" xlink:title="cellsociety_team02.XMLParser.get\lGridType">
<polygon fill="white" stroke="black" points="226.5,-407 226.5,-437 405.5,-437 405.5,-407 226.5,-407"/>
<text text-anchor="start" x="234.5" y="-425" font-family="Helvetica,sans-Serif" font-size="10.00">cellsociety_team02.XMLParser.get</text>
<text text-anchor="middle" x="316" y="-414" font-family="Helvetica,sans-Serif" font-size="10.00">GridType</text>
</a>
</g>
</g>
<!-- Node1&#45;&gt;Node2 -->
<g id="edge1" class="edge"><title>Node1&#45;&gt;Node2</title>
<path fill="none" stroke="midnightblue" d="M101.126,-294.761C119.789,-316.534 168.123,-369.328 220,-397 224.289,-399.288 228.8,-401.376 233.431,-403.28"/>
<polygon fill="midnightblue" stroke="midnightblue" points="232.48,-406.663 243.072,-406.937 234.963,-400.118 232.48,-406.663"/>
</g>
<!-- Node3 -->
<g id="node3" class="node"><title>Node3</title>
<g id="a_node3"><a xlink:href="../../d9/db5/classcellsociety__team02_1_1_x_m_l_parser.html#a9fa6b92d804ff8b4e944657885db04ef" target="_top" xlink:title="cellsociety_team02.XMLParser.get\lNumStates">
<polygon fill="white" stroke="black" points="226.5,-358 226.5,-388 405.5,-388 405.5,-358 226.5,-358"/>
<text text-anchor="start" x="234.5" y="-376" font-family="Helvetica,sans-Serif" font-size="10.00">cellsociety_team02.XMLParser.get</text>
<text text-anchor="middle" x="316" y="-365" font-family="Helvetica,sans-Serif" font-size="10.00">NumStates</text>
</a>
</g>
</g>
<!-- Node1&#45;&gt;Node3 -->
<g id="edge2" class="edge"><title>Node1&#45;&gt;Node3</title>
<path fill="none" stroke="midnightblue" d="M112.051,-294.59C136.622,-306.752 180.861,-327.948 220,-343 230.738,-347.13 242.309,-351.138 253.556,-354.811"/>
<polygon fill="midnightblue" stroke="midnightblue" points="252.736,-358.223 263.327,-357.946 254.874,-351.558 252.736,-358.223"/>
</g>
<!-- Node4 -->
<g id="node4" class="node"><title>Node4</title>
<g id="a_node4"><a xlink:href="../../d9/db5/classcellsociety__team02_1_1_x_m_l_parser.html#ad3832583a0c6236760288a3122d04c3a" target="_top" xlink:title="cellsociety_team02.XMLParser.initialize">
<polygon fill="white" stroke="black" points="460,-356.5 460,-375.5 662,-375.5 662,-356.5 460,-356.5"/>
<text text-anchor="middle" x="561" y="-363.5" font-family="Helvetica,sans-Serif" font-size="10.00">cellsociety_team02.XMLParser.initialize</text>
</a>
</g>
</g>
<!-- Node1&#45;&gt;Node4 -->
<g id="edge3" class="edge"><title>Node1&#45;&gt;Node4</title>
<path fill="none" stroke="midnightblue" d="M142.109,-294.525C165.651,-299.029 194.265,-304.412 220,-309 313.596,-325.687 421.944,-343.612 490.702,-354.813"/>
<polygon fill="midnightblue" stroke="midnightblue" points="490.538,-358.332 500.97,-356.484 491.662,-351.423 490.538,-358.332"/>
</g>
<!-- Node8 -->
<g id="node8" class="node"><title>Node8</title>
<g id="a_node8"><a xlink:href="../../df/d71/classcellsociety__team02_1_1_grid_model.html#ab80b7cb68a71e992da82ff2dfd3bb850" target="_top" xlink:title="cellsociety_team02.GridModel.init\lSeries">
<polygon fill="white" stroke="black" points="227.5,-172 227.5,-202 404.5,-202 404.5,-172 227.5,-172"/>
<text text-anchor="start" x="235.5" y="-190" font-family="Helvetica,sans-Serif" font-size="10.00">cellsociety_team02.GridModel.init</text>
<text text-anchor="middle" x="316" y="-179" font-family="Helvetica,sans-Serif" font-size="10.00">Series</text>
</a>
</g>
</g>
<!-- Node1&#45;&gt;Node8 -->
<g id="edge8" class="edge"><title>Node1&#45;&gt;Node8</title>
<path fill="none" stroke="midnightblue" d="M106.844,-275.392C129.534,-260.033 176.476,-229.866 220,-212 226.095,-209.498 232.514,-207.182 239.021,-205.053"/>
<polygon fill="midnightblue" stroke="midnightblue" points="240.085,-208.387 248.588,-202.066 237.999,-201.705 240.085,-208.387"/>
</g>
<!-- Node9 -->
<g id="node9" class="node"><title>Node9</title>
<g id="a_node9"><a xlink:href="../../df/d71/classcellsociety__team02_1_1_grid_model.html#aab4f67e82399c3340022527823b424e9" target="_top" xlink:title="cellsociety_team02.GridModel.load\lFileToParser">
<polygon fill="white" stroke="black" points="224.5,-123 224.5,-153 407.5,-153 407.5,-123 224.5,-123"/>
<text text-anchor="start" x="232.5" y="-141" font-family="Helvetica,sans-Serif" font-size="10.00">cellsociety_team02.GridModel.load</text>
<text text-anchor="middle" x="316" y="-130" font-family="Helvetica,sans-Serif" font-size="10.00">FileToParser</text>
</a>
</g>
</g>
<!-- Node1&#45;&gt;Node9 -->
<g id="edge9" class="edge"><title>Node1&#45;&gt;Node9</title>
<path fill="none" stroke="midnightblue" d="M100.117,-275.383C117.731,-252.289 165.873,-193.37 220,-163 223.955,-160.781 228.114,-158.753 232.391,-156.9"/>
<polygon fill="midnightblue" stroke="midnightblue" points="233.91,-160.063 241.911,-153.119 231.326,-153.558 233.91,-160.063"/>
</g>
<!-- Node10 -->
<g id="node10" class="node"><title>Node10</title>
<g id="a_node10"><a xlink:href="../../d9/db5/classcellsociety__team02_1_1_x_m_l_parser.html#aca6776e6016ac742ace5f43d33a03c74" target="_top" xlink:title="cellsociety_team02.XMLParser.make\lCells">
<polygon fill="white" stroke="black" points="220.5,-221 220.5,-251 411.5,-251 411.5,-221 220.5,-221"/>
<text text-anchor="start" x="228.5" y="-239" font-family="Helvetica,sans-Serif" font-size="10.00">cellsociety_team02.XMLParser.make</text>
<text text-anchor="middle" x="316" y="-228" font-family="Helvetica,sans-Serif" font-size="10.00">Cells</text>
</a>
</g>
</g>
<!-- Node1&#45;&gt;Node10 -->
<g id="edge10" class="edge"><title>Node1&#45;&gt;Node10</title>
<path fill="none" stroke="midnightblue" d="M136.067,-275.494C164.643,-269.187 202.979,-260.725 236.836,-253.252"/>
<polygon fill="midnightblue" stroke="midnightblue" points="237.707,-256.644 246.718,-251.071 236.199,-249.809 237.707,-256.644"/>
</g>
<!-- Node24 -->
<g id="node24" class="node"><title>Node24</title>
<g id="a_node24"><a xlink:href="../../d9/db5/classcellsociety__team02_1_1_x_m_l_parser.html#a6183c4600a4c3b22a017485f9ae01d4d" target="_top" xlink:title="cellsociety_team02.XMLParser.make\lPatches">
<polygon fill="white" stroke="black" points="220.5,-270 220.5,-300 411.5,-300 411.5,-270 220.5,-270"/>
<text text-anchor="start" x="228.5" y="-288" font-family="Helvetica,sans-Serif" font-size="10.00">cellsociety_team02.XMLParser.make</text>
<text text-anchor="middle" x="316" y="-277" font-family="Helvetica,sans-Serif" font-size="10.00">Patches</text>
</a>
</g>
</g>
<!-- Node1&#45;&gt;Node24 -->
<g id="edge32" class="edge"><title>Node1&#45;&gt;Node24</title>
<path fill="none" stroke="midnightblue" d="M183.616,-285C192.414,-285 201.389,-285 210.31,-285"/>
<polygon fill="midnightblue" stroke="midnightblue" points="210.346,-288.5 220.346,-285 210.346,-281.5 210.346,-288.5"/>
</g>
<!-- Node5 -->
<g id="node5" class="node"><title>Node5</title>
<g id="a_node5"><a xlink:href="../../d9/db5/classcellsociety__team02_1_1_x_m_l_parser.html#af9e2438fd8fa09e5d6b2d252afa13b1a" target="_top" xlink:title="cellsociety_team02.XMLParser.get\lAttribute">
<polygon fill="white" stroke="black" points="1192.5,-357 1192.5,-387 1371.5,-387 1371.5,-357 1192.5,-357"/>
<text text-anchor="start" x="1200.5" y="-375" font-family="Helvetica,sans-Serif" font-size="10.00">cellsociety_team02.XMLParser.get</text>
<text text-anchor="middle" x="1282" y="-364" font-family="Helvetica,sans-Serif" font-size="10.00">Attribute</text>
</a>
</g>
</g>
<!-- Node4&#45;&gt;Node5 -->
<g id="edge4" class="edge"><title>Node4&#45;&gt;Node5</title>
<path fill="none" stroke="midnightblue" d="M608.761,-375.505C637.769,-380.921 675.887,-387.177 710,-390 904.89,-406.13 954.951,-405.071 1150,-391 1160.53,-390.24 1171.5,-389.142 1182.41,-387.85"/>
<polygon fill="midnightblue" stroke="midnightblue" points="1182.91,-391.315 1192.4,-386.613 1182.05,-384.368 1182.91,-391.315"/>
</g>
<!-- Node6 -->
<g id="node6" class="node"><title>Node6</title>
<g id="a_node6"><a xlink:href="../../d9/db5/classcellsociety__team02_1_1_x_m_l_parser.html#a80db6bc9b1504447995fc08ed6a27527" target="_top" xlink:title="cellsociety_team02.XMLParser.make\lParameterMap">
<polygon fill="white" stroke="black" points="710.5,-351 710.5,-381 901.5,-381 901.5,-351 710.5,-351"/>
<text text-anchor="start" x="718.5" y="-369" font-family="Helvetica,sans-Serif" font-size="10.00">cellsociety_team02.XMLParser.make</text>
<text text-anchor="middle" x="806" y="-358" font-family="Helvetica,sans-Serif" font-size="10.00">ParameterMap</text>
</a>
</g>
</g>
<!-- Node4&#45;&gt;Node6 -->
<g id="edge5" class="edge"><title>Node4&#45;&gt;Node6</title>
<path fill="none" stroke="midnightblue" d="M662.24,-366C674.826,-366 687.725,-366 700.376,-366"/>
<polygon fill="midnightblue" stroke="midnightblue" points="700.457,-369.5 710.457,-366 700.457,-362.5 700.457,-369.5"/>
</g>
<!-- Node7 -->
<g id="node7" class="node"><title>Node7</title>
<g id="a_node7"><a xlink:href="../../d9/db5/classcellsociety__team02_1_1_x_m_l_parser.html#a97985012667a5a937c89cf19fa6f20d1" target="_top" xlink:title="cellsociety_team02.XMLParser.makeMap">
<polygon fill="white" stroke="black" points="938.5,-362.5 938.5,-381.5 1149.5,-381.5 1149.5,-362.5 938.5,-362.5"/>
<text text-anchor="middle" x="1044" y="-369.5" font-family="Helvetica,sans-Serif" font-size="10.00">cellsociety_team02.XMLParser.makeMap</text>
</a>
</g>
</g>
<!-- Node6&#45;&gt;Node7 -->
<g id="edge6" class="edge"><title>Node6&#45;&gt;Node7</title>
<path fill="none" stroke="midnightblue" d="M901.63,-368.406C910.389,-368.629 919.326,-368.856 928.238,-369.082"/>
<polygon fill="midnightblue" stroke="midnightblue" points="928.193,-372.582 938.279,-369.338 928.371,-365.584 928.193,-372.582"/>
</g>
<!-- Node7&#45;&gt;Node5 -->
<g id="edge7" class="edge"><title>Node7&#45;&gt;Node5</title>
<path fill="none" stroke="midnightblue" d="M1149.54,-372C1160.38,-372 1171.37,-372 1182.15,-372"/>
<polygon fill="midnightblue" stroke="midnightblue" points="1182.4,-375.5 1192.4,-372 1182.4,-368.5 1182.4,-375.5"/>
</g>
<!-- Node11 -->
<g id="node11" class="node"><title>Node11</title>
<g id="a_node11"><a xlink:href="../../d9/db5/classcellsociety__team02_1_1_x_m_l_parser.html#adb7ffd2c43825ff504405060ff20178f" target="_top" xlink:title="cellsociety_team02.XMLParser.constructList">
<polygon fill="white" stroke="black" points="448.5,-226.5 448.5,-245.5 673.5,-245.5 673.5,-226.5 448.5,-226.5"/>
<text text-anchor="middle" x="561" y="-233.5" font-family="Helvetica,sans-Serif" font-size="10.00">cellsociety_team02.XMLParser.constructList</text>
</a>
</g>
</g>
<!-- Node10&#45;&gt;Node11 -->
<g id="edge11" class="edge"><title>Node10&#45;&gt;Node11</title>
<path fill="none" stroke="midnightblue" d="M411.646,-236C420.36,-236 429.268,-236 438.179,-236"/>
<polygon fill="midnightblue" stroke="midnightblue" points="438.23,-239.5 448.229,-236 438.229,-232.5 438.23,-239.5"/>
</g>
<!-- Node12 -->
<g id="node12" class="node"><title>Node12</title>
<g id="a_node12"><a xlink:href="../../d9/db5/classcellsociety__team02_1_1_x_m_l_parser.html#a98df6887ba7b6cd85f33e6943ff58e49" target="_top" xlink:title="cellsociety_team02.XMLParser.do\lGiven">
<polygon fill="white" stroke="black" points="718,-184 718,-214 894,-214 894,-184 718,-184"/>
<text text-anchor="start" x="726" y="-202" font-family="Helvetica,sans-Serif" font-size="10.00">cellsociety_team02.XMLParser.do</text>
<text text-anchor="middle" x="806" y="-191" font-family="Helvetica,sans-Serif" font-size="10.00">Given</text>
</a>
</g>
</g>
<!-- Node11&#45;&gt;Node12 -->
<g id="edge12" class="edge"><title>Node11&#45;&gt;Node12</title>
<path fill="none" stroke="midnightblue" d="M624.579,-226.472C649.878,-222.619 679.674,-218.083 707.683,-213.818"/>
<polygon fill="midnightblue" stroke="midnightblue" points="708.55,-217.226 717.91,-212.261 707.497,-210.306 708.55,-217.226"/>
</g>
<!-- Node18 -->
<g id="node18" class="node"><title>Node18</title>
<g id="a_node18"><a xlink:href="../../d9/db5/classcellsociety__team02_1_1_x_m_l_parser.html#afd9d58234bf5413d7759421f41f36e71" target="_top" xlink:title="cellsociety_team02.XMLParser.do\lRandom">
<polygon fill="white" stroke="black" points="718,-135 718,-165 894,-165 894,-135 718,-135"/>
<text text-anchor="start" x="726" y="-153" font-family="Helvetica,sans-Serif" font-size="10.00">cellsociety_team02.XMLParser.do</text>
<text text-anchor="middle" x="806" y="-142" font-family="Helvetica,sans-Serif" font-size="10.00">Random</text>
</a>
</g>
</g>
<!-- Node11&#45;&gt;Node18 -->
<g id="edge21" class="edge"><title>Node11&#45;&gt;Node18</title>
<path fill="none" stroke="midnightblue" d="M582.742,-226.416C611.068,-213.568 663.634,-190.578 710,-175 717.528,-172.471 725.461,-170.034 733.402,-167.741"/>
<polygon fill="midnightblue" stroke="midnightblue" points="734.39,-171.099 743.066,-165.017 732.491,-164.361 734.39,-171.099"/>
</g>
<!-- Node21 -->
<g id="node21" class="node"><title>Node21</title>
<g id="a_node21"><a xlink:href="../../d9/db5/classcellsociety__team02_1_1_x_m_l_parser.html#a14ccb1cf6658b9c38357d5bc4f176444" target="_top" xlink:title="cellsociety_team02.XMLParser.do\lProbability">
<polygon fill="white" stroke="black" points="718,-269 718,-299 894,-299 894,-269 718,-269"/>
<text text-anchor="start" x="726" y="-287" font-family="Helvetica,sans-Serif" font-size="10.00">cellsociety_team02.XMLParser.do</text>
<text text-anchor="middle" x="806" y="-276" font-family="Helvetica,sans-Serif" font-size="10.00">Probability</text>
</a>
</g>
</g>
<!-- Node11&#45;&gt;Node21 -->
<g id="edge26" class="edge"><title>Node11&#45;&gt;Node21</title>
<path fill="none" stroke="midnightblue" d="M610.3,-245.541C641.296,-251.663 682.426,-259.788 718.894,-266.991"/>
<polygon fill="midnightblue" stroke="midnightblue" points="718.556,-270.492 729.045,-268.996 719.912,-263.625 718.556,-270.492"/>
</g>
<!-- Node12&#45;&gt;Node5 -->
<g id="edge13" class="edge"><title>Node12&#45;&gt;Node5</title>
<path fill="none" stroke="midnightblue" d="M832.201,-214.118C857.942,-228.923 899.486,-251.085 938,-264 1028.91,-294.484 1059.37,-272.69 1150,-304 1185.31,-316.201 1222.9,-336.563 1248.71,-351.831"/>
<polygon fill="midnightblue" stroke="midnightblue" points="1246.95,-354.857 1257.33,-356.998 1250.55,-348.853 1246.95,-354.857"/>
</g>
<!-- Node13 -->
<g id="node13" class="node"><title>Node13</title>
<g id="a_node13"><a xlink:href="../../d8/d83/classcellsociety__team02_1_1_factory.html#a73f7de8ac528a17623c911f59dc28325" target="_top" xlink:title="cellsociety_team02.Factory.makeCell">
<polygon fill="white" stroke="black" points="1186,-71.5 1186,-90.5 1378,-90.5 1378,-71.5 1186,-71.5"/>
<text text-anchor="middle" x="1282" y="-78.5" font-family="Helvetica,sans-Serif" font-size="10.00">cellsociety_team02.Factory.makeCell</text>
</a>
</g>
</g>
<!-- Node12&#45;&gt;Node13 -->
<g id="edge14" class="edge"><title>Node12&#45;&gt;Node13</title>
<path fill="none" stroke="midnightblue" d="M887.695,-183.958C892.85,-181.17 897.69,-177.88 902,-174 935.557,-143.79 900.844,-104.654 938,-79 1031.92,-14.1524 1177.47,-47.5255 1244.69,-68.3965"/>
<polygon fill="midnightblue" stroke="midnightblue" points="1243.82,-71.7912 1254.41,-71.4969 1245.95,-65.1225 1243.82,-71.7912"/>
</g>
<!-- Node16 -->
<g id="node16" class="node"><title>Node16</title>
<g id="a_node16"><a xlink:href="../../d8/d83/classcellsociety__team02_1_1_factory.html#aa3a1a4e218cc6529b3b2e56cd5f8cfff" target="_top" xlink:title="cellsociety_team02.Factory.make\lPatch">
<polygon fill="white" stroke="black" points="1194.5,-159 1194.5,-189 1369.5,-189 1369.5,-159 1194.5,-159"/>
<text text-anchor="start" x="1202.5" y="-177" font-family="Helvetica,sans-Serif" font-size="10.00">cellsociety_team02.Factory.make</text>
<text text-anchor="middle" x="1282" y="-166" font-family="Helvetica,sans-Serif" font-size="10.00">Patch</text>
</a>
</g>
</g>
<!-- Node12&#45;&gt;Node16 -->
<g id="edge17" class="edge"><title>Node12&#45;&gt;Node16</title>
<path fill="none" stroke="midnightblue" d="M894.215,-194.4C976.307,-190.07 1099.03,-183.598 1184.13,-179.109"/>
<polygon fill="midnightblue" stroke="midnightblue" points="1184.51,-182.594 1194.32,-178.572 1184.15,-175.604 1184.51,-182.594"/>
</g>
<!-- Node17 -->
<g id="node17" class="node"><title>Node17</title>
<g id="a_node17"><a xlink:href="../../d9/db5/classcellsociety__team02_1_1_x_m_l_parser.html#a405a101ec424944a7032f82f56343d2e" target="_top" xlink:title="cellsociety_team02.XMLParser.set\lNullState">
<polygon fill="white" stroke="black" points="954.5,-88 954.5,-118 1133.5,-118 1133.5,-88 954.5,-88"/>
<text text-anchor="start" x="962.5" y="-106" font-family="Helvetica,sans-Serif" font-size="10.00">cellsociety_team02.XMLParser.set</text>
<text text-anchor="middle" x="1044" y="-95" font-family="Helvetica,sans-Serif" font-size="10.00">NullState</text>
</a>
</g>
</g>
<!-- Node12&#45;&gt;Node17 -->
<g id="edge18" class="edge"><title>Node12&#45;&gt;Node17</title>
<path fill="none" stroke="midnightblue" d="M883.111,-183.852C889.752,-181.098 896.159,-177.844 902,-174 923.686,-159.729 916.147,-142.015 938,-128 941.321,-125.87 944.806,-123.921 948.406,-122.139"/>
<polygon fill="midnightblue" stroke="midnightblue" points="949.864,-125.321 957.561,-118.04 947.004,-118.932 949.864,-125.321"/>
</g>
<!-- Node14 -->
<g id="node14" class="node"><title>Node14</title>
<g id="a_node14"><a xlink:href="../../d4/df2/class_cell_1_1_pred_prey_cell.html#ab682decb39c5e4f952c7c85929411f6f" target="_top" xlink:title="Cell.PredPreyCell.makeCell">
<polygon fill="white" stroke="black" points="1414,-71.5 1414,-90.5 1558,-90.5 1558,-71.5 1414,-71.5"/>
<text text-anchor="middle" x="1486" y="-78.5" font-family="Helvetica,sans-Serif" font-size="10.00">Cell.PredPreyCell.makeCell</text>
</a>
</g>
</g>
<!-- Node13&#45;&gt;Node14 -->
<g id="edge15" class="edge"><title>Node13&#45;&gt;Node14</title>
<path fill="none" stroke="midnightblue" d="M1378.09,-81C1386.67,-81 1395.31,-81 1403.76,-81"/>
<polygon fill="midnightblue" stroke="midnightblue" points="1403.96,-84.5001 1413.96,-81 1403.96,-77.5001 1403.96,-84.5001"/>
</g>
<!-- Node15 -->
<g id="node15" class="node"><title>Node15</title>
<g id="a_node15"><a xlink:href="../../d4/df2/class_cell_1_1_pred_prey_cell.html#a218b10c89861e5cbc826511d9b35b1ae" target="_top" xlink:title="Cell.PredPreyCell.PredPreyCell">
<polygon fill="white" stroke="black" points="1594,-71.5 1594,-90.5 1754,-90.5 1754,-71.5 1594,-71.5"/>
<text text-anchor="middle" x="1674" y="-78.5" font-family="Helvetica,sans-Serif" font-size="10.00">Cell.PredPreyCell.PredPreyCell</text>
</a>
</g>
</g>
<!-- Node14&#45;&gt;Node15 -->
<g id="edge16" class="edge"><title>Node14&#45;&gt;Node15</title>
<path fill="none" stroke="midnightblue" d="M1558.11,-81C1566.52,-81 1575.17,-81 1583.79,-81"/>
<polygon fill="midnightblue" stroke="midnightblue" points="1583.86,-84.5001 1593.86,-81 1583.86,-77.5001 1583.86,-84.5001"/>
</g>
<!-- Node17&#45;&gt;Node13 -->
<g id="edge19" class="edge"><title>Node17&#45;&gt;Node13</title>
<path fill="none" stroke="midnightblue" d="M1133.55,-94.7454C1147.23,-93.47 1161.48,-92.1419 1175.49,-90.836"/>
<polygon fill="midnightblue" stroke="midnightblue" points="1176,-94.3032 1185.63,-89.89 1175.35,-87.3334 1176,-94.3032"/>
</g>
<!-- Node17&#45;&gt;Node16 -->
<g id="edge20" class="edge"><title>Node17&#45;&gt;Node16</title>
<path fill="none" stroke="midnightblue" d="M1112.77,-118.042C1125.21,-121.113 1138.04,-124.488 1150,-128 1177.46,-136.067 1207.63,-146.546 1232.09,-155.465"/>
<polygon fill="midnightblue" stroke="midnightblue" points="1230.91,-158.762 1241.51,-158.925 1233.33,-152.192 1230.91,-158.762"/>
</g>
<!-- Node19 -->
<g id="node19" class="node"><title>Node19</title>
<g id="a_node19"><a xlink:href="../../d8/d83/classcellsociety__team02_1_1_factory.html#a9a3a57b7db2c081b18c27c829e875bf4" target="_top" xlink:title="cellsociety_team02.Factory.make\lRandomCell">
<polygon fill="white" stroke="black" points="956.5,-0 956.5,-30 1131.5,-30 1131.5,-0 956.5,-0"/>
<text text-anchor="start" x="964.5" y="-18" font-family="Helvetica,sans-Serif" font-size="10.00">cellsociety_team02.Factory.make</text>
<text text-anchor="middle" x="1044" y="-7" font-family="Helvetica,sans-Serif" font-size="10.00">RandomCell</text>
</a>
</g>
</g>
<!-- Node18&#45;&gt;Node19 -->
<g id="edge22" class="edge"><title>Node18&#45;&gt;Node19</title>
<path fill="none" stroke="midnightblue" d="M821.697,-134.857C844.543,-112.15 890.873,-69.3543 938,-45 946.716,-40.4957 956.199,-36.5866 965.782,-33.216"/>
<polygon fill="midnightblue" stroke="midnightblue" points="966.992,-36.5022 975.375,-30.0229 964.781,-29.8605 966.992,-36.5022"/>
</g>
<!-- Node20 -->
<g id="node20" class="node"><title>Node20</title>
<g id="a_node20"><a xlink:href="../../d8/d83/classcellsociety__team02_1_1_factory.html#a9584d58dc748c1f625ea2cfc66c5387d" target="_top" xlink:title="cellsociety_team02.Factory.make\lRandomPatch">
<polygon fill="white" stroke="black" points="956.5,-137 956.5,-167 1131.5,-167 1131.5,-137 956.5,-137"/>
<text text-anchor="start" x="964.5" y="-155" font-family="Helvetica,sans-Serif" font-size="10.00">cellsociety_team02.Factory.make</text>
<text text-anchor="middle" x="1044" y="-144" font-family="Helvetica,sans-Serif" font-size="10.00">RandomPatch</text>
</a>
</g>
</g>
<!-- Node18&#45;&gt;Node20 -->
<g id="edge24" class="edge"><title>Node18&#45;&gt;Node20</title>
<path fill="none" stroke="midnightblue" d="M894.207,-150.739C911.111,-150.882 928.92,-151.033 946.112,-151.179"/>
<polygon fill="midnightblue" stroke="midnightblue" points="946.122,-154.679 956.151,-151.264 946.181,-147.679 946.122,-154.679"/>
</g>
<!-- Node19&#45;&gt;Node13 -->
<g id="edge23" class="edge"><title>Node19&#45;&gt;Node13</title>
<path fill="none" stroke="midnightblue" d="M1098.85,-30.059C1140.56,-41.7238 1197.63,-57.6855 1236.71,-68.6149"/>
<polygon fill="midnightblue" stroke="midnightblue" points="1236.16,-72.095 1246.74,-71.4176 1238.05,-65.3536 1236.16,-72.095"/>
</g>
<!-- Node20&#45;&gt;Node16 -->
<g id="edge25" class="edge"><title>Node20&#45;&gt;Node16</title>
<path fill="none" stroke="midnightblue" d="M1131.54,-160.067C1148.69,-161.666 1166.8,-163.355 1184.27,-164.983"/>
<polygon fill="midnightblue" stroke="midnightblue" points="1184.19,-168.491 1194.47,-165.934 1184.84,-161.521 1184.19,-168.491"/>
</g>
<!-- Node21&#45;&gt;Node7 -->
<g id="edge27" class="edge"><title>Node21&#45;&gt;Node7</title>
<path fill="none" stroke="midnightblue" d="M831.151,-299.275C856.735,-314.79 898.776,-338.411 938,-352 947.271,-355.212 957.192,-357.95 967.099,-360.274"/>
<polygon fill="midnightblue" stroke="midnightblue" points="966.455,-363.716 976.976,-362.461 967.969,-356.882 966.455,-363.716"/>
</g>
<!-- Node22 -->
<g id="node22" class="node"><title>Node22</title>
<g id="a_node22"><a xlink:href="../../d8/d83/classcellsociety__team02_1_1_factory.html#a401a66128090c8dd98191986b9db5536" target="_top" xlink:title="cellsociety_team02.Factory.make\lProbCell">
<polygon fill="white" stroke="black" points="956.5,-225 956.5,-255 1131.5,-255 1131.5,-225 956.5,-225"/>
<text text-anchor="start" x="964.5" y="-243" font-family="Helvetica,sans-Serif" font-size="10.00">cellsociety_team02.Factory.make</text>
<text text-anchor="middle" x="1044" y="-232" font-family="Helvetica,sans-Serif" font-size="10.00">ProbCell</text>
</a>
</g>
</g>
<!-- Node21&#45;&gt;Node22 -->
<g id="edge28" class="edge"><title>Node21&#45;&gt;Node22</title>
<path fill="none" stroke="midnightblue" d="M887.558,-268.981C908.422,-265.091 931.029,-260.876 952.372,-256.897"/>
<polygon fill="midnightblue" stroke="midnightblue" points="953.216,-260.3 962.405,-255.026 951.933,-253.418 953.216,-260.3"/>
</g>
<!-- Node23 -->
<g id="node23" class="node"><title>Node23</title>
<g id="a_node23"><a xlink:href="../../d8/d83/classcellsociety__team02_1_1_factory.html#a41025b16b7c31c3e6e4c6fdef34898ae" target="_top" xlink:title="cellsociety_team02.Factory.make\lProbPatch">
<polygon fill="white" stroke="black" points="956.5,-313 956.5,-343 1131.5,-343 1131.5,-313 956.5,-313"/>
<text text-anchor="start" x="964.5" y="-331" font-family="Helvetica,sans-Serif" font-size="10.00">cellsociety_team02.Factory.make</text>
<text text-anchor="middle" x="1044" y="-320" font-family="Helvetica,sans-Serif" font-size="10.00">ProbPatch</text>
</a>
</g>
</g>
<!-- Node21&#45;&gt;Node23 -->
<g id="edge30" class="edge"><title>Node21&#45;&gt;Node23</title>
<path fill="none" stroke="midnightblue" d="M887.558,-299.019C908.422,-302.909 931.029,-307.124 952.372,-311.103"/>
<polygon fill="midnightblue" stroke="midnightblue" points="951.933,-314.582 962.405,-312.974 953.216,-307.7 951.933,-314.582"/>
</g>
<!-- Node22&#45;&gt;Node13 -->
<g id="edge29" class="edge"><title>Node22&#45;&gt;Node13</title>
<path fill="none" stroke="midnightblue" d="M1071.25,-224.789C1092.72,-212.165 1123.7,-193.511 1150,-176 1152.76,-174.161 1222.84,-123.265 1259.34,-96.7441"/>
<polygon fill="midnightblue" stroke="midnightblue" points="1261.8,-99.2813 1267.83,-90.5713 1257.68,-93.6185 1261.8,-99.2813"/>
</g>
<!-- Node23&#45;&gt;Node16 -->
<g id="edge31" class="edge"><title>Node23&#45;&gt;Node16</title>
<path fill="none" stroke="midnightblue" d="M1070.7,-312.866C1092.11,-300.134 1123.3,-281.29 1150,-264 1185.37,-241.092 1225.17,-213.483 1251.52,-194.936"/>
<polygon fill="midnightblue" stroke="midnightblue" points="1253.76,-197.639 1259.91,-189.014 1249.72,-191.919 1253.76,-197.639"/>
</g>
<!-- Node24&#45;&gt;Node11 -->
<g id="edge33" class="edge"><title>Node24&#45;&gt;Node11</title>
<path fill="none" stroke="midnightblue" d="M391.559,-269.965C427.34,-262.75 469.539,-254.241 502.748,-247.545"/>
<polygon fill="midnightblue" stroke="midnightblue" points="503.638,-250.936 512.749,-245.528 502.255,-244.074 503.638,-250.936"/>
</g>
</g>
</svg>
