<?xml version="1.0" encoding="UTF-8" standalone="no"?>
<!DOCTYPE svg PUBLIC "-//W3C//DTD SVG 1.1//EN"
 "http://www.w3.org/Graphics/SVG/1.1/DTD/svg11.dtd">
<!-- Generated by graphviz version 2.36.0 (20140111.2315)
 -->
<!-- Title: cellsociety_team02.GridModel.addData Pages: 1 -->
<svg width="2148pt" height="164pt"
 viewBox="0.00 0.00 2148.00 164.00" xmlns="http://www.w3.org/2000/svg" xmlns:xlink="http://www.w3.org/1999/xlink">
<g id="graph0" class="graph" transform="scale(1 1) rotate(0) translate(4 160)">
<title>cellsociety_team02.GridModel.addData</title>
<polygon fill="white" stroke="none" points="-4,4 -4,-160 2144,-160 2144,4 -4,4"/>
<!-- Node1 -->
<g id="node1" class="node"><title>Node1</title>
<polygon fill="#bfbfbf" stroke="black" points="0,-117.5 0,-136.5 204,-136.5 204,-117.5 0,-117.5"/>
<text text-anchor="middle" x="102" y="-124.5" font-family="Helvetica,sans-Serif" font-size="10.00">cellsociety_team02.GridModel.addData</text>
</g>
<!-- Node2 -->
<g id="node2" class="node"><title>Node2</title>
<g id="a_node2"><a xlink:href="../../d9/daf/classcellsociety__team02_1_1_grid_view.html#acf332ae230af02cadc77649e0b6fc0ff" target="_top" xlink:title="cellsociety_team02.GridView.make\lGraph">
<polygon fill="white" stroke="black" points="240,-112 240,-142 422,-142 422,-112 240,-112"/>
<text text-anchor="start" x="248" y="-130" font-family="Helvetica,sans-Serif" font-size="10.00">cellsociety_team02.GridView.make</text>
<text text-anchor="middle" x="331" y="-119" font-family="Helvetica,sans-Serif" font-size="10.00">Graph</text>
</a>
</g>
</g>
<!-- Node1&#45;&gt;Node2 -->
<g id="edge1" class="edge"><title>Node1&#45;&gt;Node2</title>
<path fill="none" stroke="midnightblue" d="M214.225,-127C222.766,-127 231.324,-127 239.705,-127"/>
<polygon fill="midnightblue" stroke="midnightblue" points="214.218,-123.5 204.218,-127 214.218,-130.5 214.218,-123.5"/>
</g>
<!-- Node3 -->
<g id="node3" class="node"><title>Node3</title>
<g id="a_node3"><a xlink:href="../../d9/daf/classcellsociety__team02_1_1_grid_view.html#aa0cb15c1acd15c18573648b8df447752" target="_top" xlink:title="cellsociety_team02.GridView.load">
<polygon fill="white" stroke="black" points="1324,-136.5 1324,-155.5 1500,-155.5 1500,-136.5 1324,-136.5"/>
<text text-anchor="middle" x="1412" y="-143.5" font-family="Helvetica,sans-Serif" font-size="10.00">cellsociety_team02.GridView.load</text>
</a>
</g>
</g>
<!-- Node2&#45;&gt;Node3 -->
<g id="edge2" class="edge"><title>Node2&#45;&gt;Node3</title>
<path fill="none" stroke="midnightblue" d="M432.167,-133.991C518.46,-139.409 646.375,-146 758,-146 758,-146 758,-146 974,-146 1095.39,-146 1235.74,-146 1323.94,-146"/>
<polygon fill="midnightblue" stroke="midnightblue" points="432.318,-130.493 422.117,-133.353 431.875,-137.479 432.318,-130.493"/>
</g>
<!-- Node7 -->
<g id="node7" class="node"><title>Node7</title>
<g id="a_node7"><a xlink:href="../../d9/daf/classcellsociety__team02_1_1_grid_view.html#a27a105e1810531f4958f9fc192c3cef1" target="_top" xlink:title="cellsociety_team02.GridView.step">
<polygon fill="white" stroke="black" points="458,-98.5 458,-117.5 634,-117.5 634,-98.5 458,-98.5"/>
<text text-anchor="middle" x="546" y="-105.5" font-family="Helvetica,sans-Serif" font-size="10.00">cellsociety_team02.GridView.step</text>
</a>
</g>
</g>
<!-- Node2&#45;&gt;Node7 -->
<g id="edge7" class="edge"><title>Node2&#45;&gt;Node7</title>
<path fill="none" stroke="midnightblue" d="M432.038,-118.076C440.603,-117.312 449.224,-116.543 457.678,-115.789"/>
<polygon fill="midnightblue" stroke="midnightblue" points="431.672,-114.595 422.022,-118.97 432.294,-121.567 431.672,-114.595"/>
</g>
<!-- Node4 -->
<g id="node4" class="node"><title>Node4</title>
<g id="a_node4"><a xlink:href="../../d9/daf/classcellsociety__team02_1_1_grid_view.html#ada183e314764db770009f944205490df" target="_top" xlink:title="cellsociety_team02.GridView.\lGridView">
<polygon fill="white" stroke="black" points="1984.5,-110 1984.5,-140 2139.5,-140 2139.5,-110 1984.5,-110"/>
<text text-anchor="start" x="1992.5" y="-128" font-family="Helvetica,sans-Serif" font-size="10.00">cellsociety_team02.GridView.</text>
<text text-anchor="middle" x="2062" y="-117" font-family="Helvetica,sans-Serif" font-size="10.00">GridView</text>
</a>
</g>
</g>
<!-- Node3&#45;&gt;Node4 -->
<g id="edge3" class="edge"><title>Node3&#45;&gt;Node4</title>
<path fill="none" stroke="midnightblue" d="M1510.37,-142.845C1639.94,-138.645 1866.4,-131.307 1984.47,-127.48"/>
<polygon fill="midnightblue" stroke="midnightblue" points="1509.94,-139.357 1500.06,-143.179 1510.16,-146.353 1509.94,-139.357"/>
</g>
<!-- Node5 -->
<g id="node5" class="node"><title>Node5</title>
<g id="a_node5"><a xlink:href="../../d9/daf/classcellsociety__team02_1_1_grid_view.html#afcc7b83f62c116e77ab0843bfd4156b8" target="_top" xlink:title="cellsociety_team02.GridView.make\lButtons">
<polygon fill="white" stroke="black" points="1536,-87 1536,-117 1718,-117 1718,-87 1536,-87"/>
<text text-anchor="start" x="1544" y="-105" font-family="Helvetica,sans-Serif" font-size="10.00">cellsociety_team02.GridView.make</text>
<text text-anchor="middle" x="1627" y="-94" font-family="Helvetica,sans-Serif" font-size="10.00">Buttons</text>
</a>
</g>
</g>
<!-- Node3&#45;&gt;Node5 -->
<g id="edge4" class="edge"><title>Node3&#45;&gt;Node5</title>
<path fill="none" stroke="midnightblue" d="M1469.16,-134.399C1494.85,-129.092 1525.62,-122.736 1553.07,-117.065"/>
<polygon fill="midnightblue" stroke="midnightblue" points="1468.3,-131.002 1459.22,-136.453 1469.72,-137.857 1468.3,-131.002"/>
</g>
<!-- Node6 -->
<g id="node6" class="node"><title>Node6</title>
<g id="a_node6"><a xlink:href="../../d9/daf/classcellsociety__team02_1_1_grid_view.html#a4571898657e750f62c2df84cb398e135" target="_top" xlink:title="cellsociety_team02.GridView.initialize">
<polygon fill="white" stroke="black" points="1754,-95.5 1754,-114.5 1948,-114.5 1948,-95.5 1754,-95.5"/>
<text text-anchor="middle" x="1851" y="-102.5" font-family="Helvetica,sans-Serif" font-size="10.00">cellsociety_team02.GridView.initialize</text>
</a>
</g>
</g>
<!-- Node5&#45;&gt;Node6 -->
<g id="edge5" class="edge"><title>Node5&#45;&gt;Node6</title>
<path fill="none" stroke="midnightblue" d="M1728.56,-103.359C1737.03,-103.473 1745.57,-103.589 1754,-103.703"/>
<polygon fill="midnightblue" stroke="midnightblue" points="1728.34,-99.8558 1718.3,-103.22 1728.25,-106.855 1728.34,-99.8558"/>
</g>
<!-- Node6&#45;&gt;Node4 -->
<g id="edge6" class="edge"><title>Node6&#45;&gt;Node4</title>
<path fill="none" stroke="midnightblue" d="M1958.48,-115.189C1967.2,-116.024 1975.91,-116.857 1984.35,-117.665"/>
<polygon fill="midnightblue" stroke="midnightblue" points="1958.53,-111.678 1948.24,-114.21 1957.86,-118.646 1958.53,-111.678"/>
</g>
<!-- Node7&#45;&gt;Node5 -->
<g id="edge8" class="edge"><title>Node7&#45;&gt;Node5</title>
<path fill="none" stroke="midnightblue" d="M644.119,-108C730.261,-108 859.505,-108 972,-108 972,-108 972,-108 1194,-108 1312.14,-108 1448.43,-105.729 1535.82,-103.981"/>
<polygon fill="midnightblue" stroke="midnightblue" points="644.094,-104.5 634.094,-108 644.094,-111.5 644.094,-104.5"/>
</g>
<!-- Node8 -->
<g id="node8" class="node"><title>Node8</title>
<g id="a_node8"><a xlink:href="../../d9/daf/classcellsociety__team02_1_1_grid_view.html#aa1d09688b48a4a95513e15eea18ec0e6" target="_top" xlink:title="cellsociety_team02.GridView.start\lHandler">
<polygon fill="white" stroke="black" points="670,-49 670,-79 848,-79 848,-49 670,-49"/>
<text text-anchor="start" x="678" y="-67" font-family="Helvetica,sans-Serif" font-size="10.00">cellsociety_team02.GridView.start</text>
<text text-anchor="middle" x="759" y="-56" font-family="Helvetica,sans-Serif" font-size="10.00">Handler</text>
</a>
</g>
</g>
<!-- Node7&#45;&gt;Node8 -->
<g id="edge9" class="edge"><title>Node7&#45;&gt;Node8</title>
<path fill="none" stroke="midnightblue" d="M602.633,-96.3987C628.083,-91.0917 658.561,-84.7362 685.755,-79.0654"/>
<polygon fill="midnightblue" stroke="midnightblue" points="601.859,-92.9849 592.784,-98.4527 603.288,-99.8375 601.859,-92.9849"/>
</g>
<!-- Node9 -->
<g id="node9" class="node"><title>Node9</title>
<g id="a_node9"><a xlink:href="../../d9/daf/classcellsociety__team02_1_1_grid_view.html#a27ed5fc9bbf44efab6d23cb07096c36a" target="_top" xlink:title="cellsociety_team02.GridView.start\lAnimation">
<polygon fill="white" stroke="black" points="884,-49 884,-79 1062,-79 1062,-49 884,-49"/>
<text text-anchor="start" x="892" y="-67" font-family="Helvetica,sans-Serif" font-size="10.00">cellsociety_team02.GridView.start</text>
<text text-anchor="middle" x="973" y="-56" font-family="Helvetica,sans-Serif" font-size="10.00">Animation</text>
</a>
</g>
</g>
<!-- Node8&#45;&gt;Node9 -->
<g id="edge10" class="edge"><title>Node8&#45;&gt;Node9</title>
<path fill="none" stroke="midnightblue" d="M858.107,-64C866.7,-64 875.363,-64 883.868,-64"/>
<polygon fill="midnightblue" stroke="midnightblue" points="858.065,-60.5001 848.065,-64 858.065,-67.5001 858.065,-60.5001"/>
</g>
<!-- Node10 -->
<g id="node10" class="node"><title>Node10</title>
<g id="a_node10"><a xlink:href="../../d9/daf/classcellsociety__team02_1_1_grid_view.html#a7b94250b9b4e419eb3b97394e3b86052" target="_top" xlink:title="cellsociety_team02.GridView.play\lPause">
<polygon fill="white" stroke="black" points="1105.5,-49 1105.5,-79 1280.5,-79 1280.5,-49 1105.5,-49"/>
<text text-anchor="start" x="1113.5" y="-67" font-family="Helvetica,sans-Serif" font-size="10.00">cellsociety_team02.GridView.play</text>
<text text-anchor="middle" x="1193" y="-56" font-family="Helvetica,sans-Serif" font-size="10.00">Pause</text>
</a>
</g>
</g>
<!-- Node9&#45;&gt;Node10 -->
<g id="edge11" class="edge"><title>Node9&#45;&gt;Node10</title>
<path fill="none" stroke="midnightblue" d="M1072.16,-64C1083.25,-64 1094.48,-64 1105.4,-64"/>
<polygon fill="midnightblue" stroke="midnightblue" points="1072.04,-60.5001 1062.04,-64 1072.04,-67.5001 1072.04,-60.5001"/>
</g>
<!-- Node11 -->
<g id="node11" class="node"><title>Node11</title>
<g id="a_node11"><a xlink:href="../../d9/daf/classcellsociety__team02_1_1_grid_view.html#a21d8f68b9be54d2f23f17af421c78b12" target="_top" xlink:title="cellsociety_team02.GridView.update\lSpeed">
<polygon fill="white" stroke="black" points="1098.5,-0 1098.5,-30 1287.5,-30 1287.5,-0 1098.5,-0"/>
<text text-anchor="start" x="1106.5" y="-18" font-family="Helvetica,sans-Serif" font-size="10.00">cellsociety_team02.GridView.update</text>
<text text-anchor="middle" x="1193" y="-7" font-family="Helvetica,sans-Serif" font-size="10.00">Speed</text>
</a>
</g>
</g>
<!-- Node9&#45;&gt;Node11 -->
<g id="edge13" class="edge"><title>Node9&#45;&gt;Node11</title>
<path fill="none" stroke="midnightblue" d="M1050.78,-46.7419C1075.07,-41.282 1101.71,-35.295 1125.24,-30.0062"/>
<polygon fill="midnightblue" stroke="midnightblue" points="1049.88,-43.3575 1040.89,-48.9654 1051.41,-50.1871 1049.88,-43.3575"/>
</g>
<!-- Node10&#45;&gt;Node5 -->
<g id="edge12" class="edge"><title>Node10&#45;&gt;Node5</title>
<path fill="none" stroke="midnightblue" d="M1290.81,-72.5153C1364.13,-78.965 1464.13,-87.7612 1535.78,-94.0642"/>
<polygon fill="midnightblue" stroke="midnightblue" points="1290.91,-69.0111 1280.64,-71.6213 1290.3,-75.9842 1290.91,-69.0111"/>
</g>
<!-- Node12 -->
<g id="node12" class="node"><title>Node12</title>
<g id="a_node12"><a xlink:href="../../d9/daf/classcellsociety__team02_1_1_grid_view.html#a08ac9f0ccad1d9db92c9d92a127d77bc" target="_top" xlink:title="cellsociety_team02.GridView.set\lUpSpeedSlider">
<polygon fill="white" stroke="black" points="1327,-3 1327,-33 1497,-33 1497,-3 1327,-3"/>
<text text-anchor="start" x="1335" y="-21" font-family="Helvetica,sans-Serif" font-size="10.00">cellsociety_team02.GridView.set</text>
<text text-anchor="middle" x="1412" y="-10" font-family="Helvetica,sans-Serif" font-size="10.00">UpSpeedSlider</text>
</a>
</g>
</g>
<!-- Node11&#45;&gt;Node12 -->
<g id="edge14" class="edge"><title>Node11&#45;&gt;Node12</title>
<path fill="none" stroke="midnightblue" d="M1297.76,-16.4345C1307.54,-16.5697 1317.37,-16.7056 1326.94,-16.8378"/>
<polygon fill="midnightblue" stroke="midnightblue" points="1297.65,-12.9327 1287.6,-16.294 1297.55,-19.932 1297.65,-12.9327"/>
</g>
<!-- Node12&#45;&gt;Node5 -->
<g id="edge15" class="edge"><title>Node12&#45;&gt;Node5</title>
<path fill="none" stroke="midnightblue" d="M1460.5,-36.7327C1498.9,-51.8761 1552.25,-72.9157 1587.89,-86.9711"/>
<polygon fill="midnightblue" stroke="midnightblue" points="1461.67,-33.4303 1451.08,-33.0175 1459.1,-39.9422 1461.67,-33.4303"/>
</g>
</g>
</svg>
