<?xml version="1.0" encoding="UTF-8" standalone="no"?>
<!DOCTYPE svg PUBLIC "-//W3C//DTD SVG 1.1//EN"
 "http://www.w3.org/Graphics/SVG/1.1/DTD/svg11.dtd">
<!-- Generated by graphviz version 2.36.0 (20140111.2315)
 -->
<!-- Title: cellsociety_team02.GridModel.updatePatchesAndCells Pages: 1 -->
<svg width="2158pt" height="116pt"
 viewBox="0.00 0.00 2158.00 116.00" xmlns="http://www.w3.org/2000/svg" xmlns:xlink="http://www.w3.org/1999/xlink">
<g id="graph0" class="graph" transform="scale(1 1) rotate(0) translate(4 112)">
<title>cellsociety_team02.GridModel.updatePatchesAndCells</title>
<polygon fill="white" stroke="none" points="-4,4 -4,-112 2154,-112 2154,4 -4,4"/>
<!-- Node1 -->
<g id="node1" class="node"><title>Node1</title>
<polygon fill="#bfbfbf" stroke="black" points="0.5,-71 0.5,-101 197.5,-101 197.5,-71 0.5,-71"/>
<text text-anchor="start" x="8.5" y="-89" font-family="Helvetica,sans-Serif" font-size="10.00">cellsociety_team02.GridModel.update</text>
<text text-anchor="middle" x="99" y="-78" font-family="Helvetica,sans-Serif" font-size="10.00">PatchesAndCells</text>
</g>
<!-- Node2 -->
<g id="node2" class="node"><title>Node2</title>
<g id="a_node2"><a xlink:href="../../df/d71/classcellsociety__team02_1_1_grid_model.html#a866f20a5152d615d686b4412ed6d4e46" target="_top" xlink:title="cellsociety_team02.GridModel.update">
<polygon fill="white" stroke="black" points="234.5,-76.5 234.5,-95.5 431.5,-95.5 431.5,-76.5 234.5,-76.5"/>
<text text-anchor="middle" x="333" y="-83.5" font-family="Helvetica,sans-Serif" font-size="10.00">cellsociety_team02.GridModel.update</text>
</a>
</g>
</g>
<!-- Node1&#45;&gt;Node2 -->
<g id="edge1" class="edge"><title>Node1&#45;&gt;Node2</title>
<path fill="none" stroke="midnightblue" d="M207.722,-86C216.618,-86 225.58,-86 234.396,-86"/>
<polygon fill="midnightblue" stroke="midnightblue" points="207.717,-82.5001 197.716,-86 207.716,-89.5001 207.717,-82.5001"/>
</g>
<!-- Node3 -->
<g id="node3" class="node"><title>Node3</title>
<g id="a_node3"><a xlink:href="../../d9/daf/classcellsociety__team02_1_1_grid_view.html#a27a105e1810531f4958f9fc192c3cef1" target="_top" xlink:title="cellsociety_team02.GridView.step">
<polygon fill="white" stroke="black" points="468,-76.5 468,-95.5 644,-95.5 644,-76.5 468,-76.5"/>
<text text-anchor="middle" x="556" y="-83.5" font-family="Helvetica,sans-Serif" font-size="10.00">cellsociety_team02.GridView.step</text>
</a>
</g>
</g>
<!-- Node2&#45;&gt;Node3 -->
<g id="edge2" class="edge"><title>Node2&#45;&gt;Node3</title>
<path fill="none" stroke="midnightblue" d="M441.76,-86C450.454,-86 459.171,-86 467.695,-86"/>
<polygon fill="midnightblue" stroke="midnightblue" points="441.577,-82.5001 431.577,-86 441.577,-89.5001 441.577,-82.5001"/>
</g>
<!-- Node4 -->
<g id="node4" class="node"><title>Node4</title>
<g id="a_node4"><a xlink:href="../../d9/daf/classcellsociety__team02_1_1_grid_view.html#afcc7b83f62c116e77ab0843bfd4156b8" target="_top" xlink:title="cellsociety_team02.GridView.make\lButtons">
<polygon fill="white" stroke="black" points="1546,-49 1546,-79 1728,-79 1728,-49 1546,-49"/>
<text text-anchor="start" x="1554" y="-67" font-family="Helvetica,sans-Serif" font-size="10.00">cellsociety_team02.GridView.make</text>
<text text-anchor="middle" x="1637" y="-56" font-family="Helvetica,sans-Serif" font-size="10.00">Buttons</text>
</a>
</g>
</g>
<!-- Node3&#45;&gt;Node4 -->
<g id="edge3" class="edge"><title>Node3&#45;&gt;Node4</title>
<path fill="none" stroke="midnightblue" d="M654.045,-93.8849C740.139,-100.197 869.355,-108 982,-108 982,-108 982,-108 1204,-108 1340.29,-108 1374.8,-105.228 1510,-88 1528,-85.7059 1547.31,-82.4401 1565.27,-79.0537"/>
<polygon fill="midnightblue" stroke="midnightblue" points="654.257,-90.3911 644.026,-93.1428 653.74,-97.3719 654.257,-90.3911"/>
</g>
<!-- Node7 -->
<g id="node7" class="node"><title>Node7</title>
<g id="a_node7"><a xlink:href="../../d9/daf/classcellsociety__team02_1_1_grid_view.html#aa1d09688b48a4a95513e15eea18ec0e6" target="_top" xlink:title="cellsociety_team02.GridView.start\lHandler">
<polygon fill="white" stroke="black" points="680,-49 680,-79 858,-79 858,-49 680,-49"/>
<text text-anchor="start" x="688" y="-67" font-family="Helvetica,sans-Serif" font-size="10.00">cellsociety_team02.GridView.start</text>
<text text-anchor="middle" x="769" y="-56" font-family="Helvetica,sans-Serif" font-size="10.00">Handler</text>
</a>
</g>
</g>
<!-- Node3&#45;&gt;Node7 -->
<g id="edge6" class="edge"><title>Node3&#45;&gt;Node7</title>
<path fill="none" stroke="midnightblue" d="M654.063,-75.8797C662.642,-74.9851 671.297,-74.0828 679.797,-73.1965"/>
<polygon fill="midnightblue" stroke="midnightblue" points="653.623,-72.4065 644.04,-76.9247 654.349,-79.3688 653.623,-72.4065"/>
</g>
<!-- Node5 -->
<g id="node5" class="node"><title>Node5</title>
<g id="a_node5"><a xlink:href="../../d9/daf/classcellsociety__team02_1_1_grid_view.html#a4571898657e750f62c2df84cb398e135" target="_top" xlink:title="cellsociety_team02.GridView.initialize">
<polygon fill="white" stroke="black" points="1764,-54.5 1764,-73.5 1958,-73.5 1958,-54.5 1764,-54.5"/>
<text text-anchor="middle" x="1861" y="-61.5" font-family="Helvetica,sans-Serif" font-size="10.00">cellsociety_team02.GridView.initialize</text>
</a>
</g>
</g>
<!-- Node4&#45;&gt;Node5 -->
<g id="edge4" class="edge"><title>Node4&#45;&gt;Node5</title>
<path fill="none" stroke="midnightblue" d="M1738.56,-64C1747.03,-64 1755.57,-64 1764,-64"/>
<polygon fill="midnightblue" stroke="midnightblue" points="1738.3,-60.5001 1728.3,-64 1738.3,-67.5001 1738.3,-60.5001"/>
</g>
<!-- Node6 -->
<g id="node6" class="node"><title>Node6</title>
<g id="a_node6"><a xlink:href="../../d9/daf/classcellsociety__team02_1_1_grid_view.html#ada183e314764db770009f944205490df" target="_top" xlink:title="cellsociety_team02.GridView.\lGridView">
<polygon fill="white" stroke="black" points="1994.5,-49 1994.5,-79 2149.5,-79 2149.5,-49 1994.5,-49"/>
<text text-anchor="start" x="2002.5" y="-67" font-family="Helvetica,sans-Serif" font-size="10.00">cellsociety_team02.GridView.</text>
<text text-anchor="middle" x="2072" y="-56" font-family="Helvetica,sans-Serif" font-size="10.00">GridView</text>
</a>
</g>
</g>
<!-- Node5&#45;&gt;Node6 -->
<g id="edge5" class="edge"><title>Node5&#45;&gt;Node6</title>
<path fill="none" stroke="midnightblue" d="M1968.48,-64C1977.2,-64 1985.91,-64 1994.35,-64"/>
<polygon fill="midnightblue" stroke="midnightblue" points="1968.24,-60.5001 1958.24,-64 1968.24,-67.5001 1968.24,-60.5001"/>
</g>
<!-- Node8 -->
<g id="node8" class="node"><title>Node8</title>
<g id="a_node8"><a xlink:href="../../d9/daf/classcellsociety__team02_1_1_grid_view.html#a27ed5fc9bbf44efab6d23cb07096c36a" target="_top" xlink:title="cellsociety_team02.GridView.start\lAnimation">
<polygon fill="white" stroke="black" points="894,-49 894,-79 1072,-79 1072,-49 894,-49"/>
<text text-anchor="start" x="902" y="-67" font-family="Helvetica,sans-Serif" font-size="10.00">cellsociety_team02.GridView.start</text>
<text text-anchor="middle" x="983" y="-56" font-family="Helvetica,sans-Serif" font-size="10.00">Animation</text>
</a>
</g>
</g>
<!-- Node7&#45;&gt;Node8 -->
<g id="edge7" class="edge"><title>Node7&#45;&gt;Node8</title>
<path fill="none" stroke="midnightblue" d="M868.107,-64C876.7,-64 885.363,-64 893.868,-64"/>
<polygon fill="midnightblue" stroke="midnightblue" points="868.065,-60.5001 858.065,-64 868.065,-67.5001 868.065,-60.5001"/>
</g>
<!-- Node9 -->
<g id="node9" class="node"><title>Node9</title>
<g id="a_node9"><a xlink:href="../../d9/daf/classcellsociety__team02_1_1_grid_view.html#a7b94250b9b4e419eb3b97394e3b86052" target="_top" xlink:title="cellsociety_team02.GridView.play\lPause">
<polygon fill="white" stroke="black" points="1334.5,-49 1334.5,-79 1509.5,-79 1509.5,-49 1334.5,-49"/>
<text text-anchor="start" x="1342.5" y="-67" font-family="Helvetica,sans-Serif" font-size="10.00">cellsociety_team02.GridView.play</text>
<text text-anchor="middle" x="1422" y="-56" font-family="Helvetica,sans-Serif" font-size="10.00">Pause</text>
</a>
</g>
</g>
<!-- Node8&#45;&gt;Node9 -->
<g id="edge8" class="edge"><title>Node8&#45;&gt;Node9</title>
<path fill="none" stroke="midnightblue" d="M1082.2,-64C1157.97,-64 1261.78,-64 1334.46,-64"/>
<polygon fill="midnightblue" stroke="midnightblue" points="1082.17,-60.5001 1072.17,-64 1082.17,-67.5001 1082.17,-60.5001"/>
</g>
<!-- Node10 -->
<g id="node10" class="node"><title>Node10</title>
<g id="a_node10"><a xlink:href="../../d9/daf/classcellsociety__team02_1_1_grid_view.html#a21d8f68b9be54d2f23f17af421c78b12" target="_top" xlink:title="cellsociety_team02.GridView.update\lSpeed">
<polygon fill="white" stroke="black" points="1108.5,-2 1108.5,-32 1297.5,-32 1297.5,-2 1108.5,-2"/>
<text text-anchor="start" x="1116.5" y="-20" font-family="Helvetica,sans-Serif" font-size="10.00">cellsociety_team02.GridView.update</text>
<text text-anchor="middle" x="1203" y="-9" font-family="Helvetica,sans-Serif" font-size="10.00">Speed</text>
</a>
</g>
</g>
<!-- Node8&#45;&gt;Node10 -->
<g id="edge10" class="edge"><title>Node8&#45;&gt;Node10</title>
<path fill="none" stroke="midnightblue" d="M1063.46,-46.8692C1086.02,-42.0053 1110.4,-36.7476 1132.34,-32.019"/>
<polygon fill="midnightblue" stroke="midnightblue" points="1062.61,-43.4707 1053.58,-48.9997 1064.09,-50.3135 1062.61,-43.4707"/>
</g>
<!-- Node9&#45;&gt;Node4 -->
<g id="edge9" class="edge"><title>Node9&#45;&gt;Node4</title>
<path fill="none" stroke="midnightblue" d="M1519.81,-64C1528.52,-64 1537.33,-64 1545.98,-64"/>
<polygon fill="midnightblue" stroke="midnightblue" points="1519.64,-60.5001 1509.64,-64 1519.64,-67.5001 1519.64,-60.5001"/>
</g>
<!-- Node11 -->
<g id="node11" class="node"><title>Node11</title>
<g id="a_node11"><a xlink:href="../../d9/daf/classcellsociety__team02_1_1_grid_view.html#a08ac9f0ccad1d9db92c9d92a127d77bc" target="_top" xlink:title="cellsociety_team02.GridView.set\lUpSpeedSlider">
<polygon fill="white" stroke="black" points="1337,-0 1337,-30 1507,-30 1507,-0 1337,-0"/>
<text text-anchor="start" x="1345" y="-18" font-family="Helvetica,sans-Serif" font-size="10.00">cellsociety_team02.GridView.set</text>
<text text-anchor="middle" x="1422" y="-7" font-family="Helvetica,sans-Serif" font-size="10.00">UpSpeedSlider</text>
</a>
</g>
</g>
<!-- Node10&#45;&gt;Node11 -->
<g id="edge11" class="edge"><title>Node10&#45;&gt;Node11</title>
<path fill="none" stroke="midnightblue" d="M1307.76,-16.0437C1317.54,-15.9535 1327.37,-15.8629 1336.94,-15.7748"/>
<polygon fill="midnightblue" stroke="midnightblue" points="1307.57,-12.5452 1297.6,-16.1373 1307.63,-19.5449 1307.57,-12.5452"/>
</g>
<!-- Node11&#45;&gt;Node4 -->
<g id="edge12" class="edge"><title>Node11&#45;&gt;Node4</title>
<path fill="none" stroke="midnightblue" d="M1498.34,-32.3309C1521.98,-37.7712 1547.88,-43.7285 1570.77,-48.9938"/>
<polygon fill="midnightblue" stroke="midnightblue" points="1498.88,-28.8657 1488.35,-30.0346 1497.32,-35.6875 1498.88,-28.8657"/>
</g>
</g>
</svg>
