<?xml version="1.0" encoding="UTF-8" standalone="no"?>
<!DOCTYPE svg PUBLIC "-//W3C//DTD SVG 1.1//EN"
 "http://www.w3.org/Graphics/SVG/1.1/DTD/svg11.dtd">
<!-- Generated by graphviz version 2.36.0 (20140111.2315)
 -->
<!-- Title: cellsociety_team02.GridModel.update Pages: 1 -->
<!--zoomable 87 -->
<svg id="main" version="1.1" xmlns="http://www.w3.org/2000/svg" xmlns:xlink="http://www.w3.org/1999/xlink" xml:space="preserve" onload="init(evt)">
<style type="text/css"><![CDATA[
.edge:hover path { stroke: red; }
.edge:hover polygon { stroke: red; fill: red; }
]]></style>
<script type="text/javascript"><![CDATA[
var edges = document.getElementsByTagName('g');
if (edges && edges.length) {
  for (var i=0;i<edges.length;i++) {
    if (edges[i].id.substr(0,4)=='edge') {
      edges[i].setAttribute('class','edge');
    }
  }
}
]]></script>
        <defs>
                <circle id="rim" cx="0" cy="0" r="7"/>
                <circle id="rim2" cx="0" cy="0" r="3.5"/>
                <g id="zoomPlus">
                        <use xlink:href="#rim" fill="#404040">
                                <set attributeName="fill" to="#808080" begin="zoomplus.mouseover" end="zoomplus.mouseout"/>
                        </use>
                        <path d="M-4,0h8M0,-4v8" fill="none" stroke="white" stroke-width="1.5" pointer-events="none"/>
                </g>
                <g id="zoomMin">
                        <use xlink:href="#rim" fill="#404040">
                                <set attributeName="fill" to="#808080" begin="zoomminus.mouseover" end="zoomminus.mouseout"/>
                        </use>
                        <path d="M-4,0h8" fill="none" stroke="white" stroke-width="1.5" pointer-events="none"/>
                </g>
                <g id="dirArrow">
                        <path fill="none" stroke="white" stroke-width="1.5" d="M0,-3.0v7 M-2.5,-0.5L0,-3.0L2.5,-0.5"/>
                </g>
               <g id="resetDef">
                       <use xlink:href="#rim2" fill="#404040">
                               <set attributeName="fill" to="#808080" begin="reset.mouseover" end="reset.mouseout"/>
                       </use>
               </g>
        </defs>

<script type="text/javascript">
var viewWidth = 626;
var viewHeight = 87;
var sectionId = 'dynsection-14';
</script>
<script xlink:href="../../svgpan.js"/>
<svg id="graph" class="graph">
<g id="viewport">
<title>cellsociety_team02.GridModel.update</title>
<polygon fill="white" stroke="none" points="-4,4 -4,-83 622,-83 622,4 -4,4"/>
<!-- Node1 -->
<g id="node1" class="node"><title>Node1</title>
<polygon fill="#bfbfbf" stroke="black" points="0.5,-29.5 0.5,-48.5 197.5,-48.5 197.5,-29.5 0.5,-29.5"/>
<text text-anchor="middle" x="99" y="-36.5" font-family="Helvetica,sans-Serif" font-size="10.00">cellsociety_team02.GridModel.update</text>
</g>
<!-- Node2 -->
<g id="node2" class="node"><title>Node2</title>
<g id="a_node2"><a xlink:href="../../df/d71/classcellsociety__team02_1_1_grid_model.html#ab59dfb960d9ac9cc5b875ae9cda15f92" target="_top" xlink:title="cellsociety_team02.GridModel.set\lCurrentToFuture">
<polygon fill="white" stroke="black" points="244,-49 244,-79 422,-79 422,-49 244,-49"/>
<text text-anchor="start" x="252" y="-67" font-family="Helvetica,sans-Serif" font-size="10.00">cellsociety_team02.GridModel.set</text>
<text text-anchor="middle" x="333" y="-56" font-family="Helvetica,sans-Serif" font-size="10.00">CurrentToFuture</text>
</a>
</g>
</g>
<!-- Node1&#45;&gt;Node2 -->
<g id="edge1" class="edge"><title>Node1&#45;&gt;Node2</title>
<path fill="none" stroke="midnightblue" d="M188.371,-48.5227C203.145,-50.1148 218.554,-51.7752 233.562,-53.3924"/>
<polygon fill="midnightblue" stroke="midnightblue" points="233.557,-56.9121 243.875,-54.5037 234.307,-49.9524 233.557,-56.9121"/>
</g>
<!-- Node4 -->
<g id="node4" class="node"><title>Node4</title>
<g id="a_node4"><a xlink:href="../../df/d71/classcellsociety__team02_1_1_grid_model.html#aefe267680baa28646953d3fc833c9430" target="_top" xlink:title="cellsociety_team02.GridModel.update\lPatchesAndCells">
<polygon fill="white" stroke="black" points="234.5,-0 234.5,-30 431.5,-30 431.5,-0 234.5,-0"/>
<text text-anchor="start" x="242.5" y="-18" font-family="Helvetica,sans-Serif" font-size="10.00">cellsociety_team02.GridModel.update</text>
<text text-anchor="middle" x="333" y="-7" font-family="Helvetica,sans-Serif" font-size="10.00">PatchesAndCells</text>
</a>
</g>
</g>
<!-- Node1&#45;&gt;Node4 -->
<g id="edge3" class="edge"><title>Node1&#45;&gt;Node4</title>
<path fill="none" stroke="midnightblue" d="M192.026,-29.4801C202.572,-28.3892 213.394,-27.2696 224.123,-26.1597"/>
<polygon fill="midnightblue" stroke="midnightblue" points="224.782,-29.6103 234.369,-25.0998 224.062,-22.6474 224.782,-29.6103"/>
</g>
<!-- Node3 -->
<g id="node3" class="node"><title>Node3</title>
<g id="a_node3"><a xlink:href="../../d0/d0a/class_patch_1_1_patch.html#a5e6d56a2d8b59b7cffec33cc1b76019c" target="_top" xlink:title="Patch.Patch.currentToFuture">
<polygon fill="white" stroke="black" points="468.5,-54.5 468.5,-73.5 617.5,-73.5 617.5,-54.5 468.5,-54.5"/>
<text text-anchor="middle" x="543" y="-61.5" font-family="Helvetica,sans-Serif" font-size="10.00">Patch.Patch.currentToFuture</text>
</a>
</g>
</g>
<!-- Node2&#45;&gt;Node3 -->
<g id="edge2" class="edge"><title>Node2&#45;&gt;Node3</title>
<path fill="none" stroke="midnightblue" d="M422.211,-64C434.114,-64 446.301,-64 458.126,-64"/>
<polygon fill="midnightblue" stroke="midnightblue" points="458.409,-67.5001 468.409,-64 458.409,-60.5001 458.409,-67.5001"/>
</g>
<!-- Node5 -->
<g id="node5" class="node"><title>Node5</title>
<g id="a_node5"><a xlink:href="../../d0/d0a/class_patch_1_1_patch.html#a6b354b20c05532df4f8fea4878cf0027" target="_top" xlink:title="Patch.Patch.updateState">
<polygon fill="white" stroke="black" points="475.5,-5.5 475.5,-24.5 610.5,-24.5 610.5,-5.5 475.5,-5.5"/>
<text text-anchor="middle" x="543" y="-12.5" font-family="Helvetica,sans-Serif" font-size="10.00">Patch.Patch.updateState</text>
</a>
</g>
</g>
<!-- Node4&#45;&gt;Node5 -->
<g id="edge4" class="edge"><title>Node4&#45;&gt;Node5</title>
<path fill="none" stroke="midnightblue" d="M431.605,-15C442.803,-15 454.101,-15 464.976,-15"/>
<polygon fill="midnightblue" stroke="midnightblue" points="465.255,-18.5001 475.255,-15 465.255,-11.5001 465.255,-18.5001"/>
</g>
</g>
</svg>
        <g id="navigator" transform="translate(0 0)" fill="#404254">
                <rect fill="#f2f5e9" fill-opacity="0.5" stroke="#606060" stroke-width=".5" x="0" y="0" width="60" height="60"/>
                <use id="zoomplus" xlink:href="#zoomPlus" x="17" y="9" onmousedown="handleZoom(evt,'in')"/>
                <use id="zoomminus" xlink:href="#zoomMin" x="42" y="9" onmousedown="handleZoom(evt,'out')"/>
                <use id="reset" xlink:href="#resetDef" x="30" y="36" onmousedown="handleReset()"/>
                <g id="arrowUp" xlink:href="#dirArrow" transform="translate(30 24)" onmousedown="handlePan(0,-1)">
                  <use xlink:href="#rim" fill="#404040">
                        <set attributeName="fill" to="#808080" begin="arrowUp.mouseover" end="arrowUp.mouseout"/>
                  </use>
                  <path fill="none" stroke="white" stroke-width="1.5" d="M0,-3.0v7 M-2.5,-0.5L0,-3.0L2.5,-0.5"/>
                </g>
                <g id="arrowRight" xlink:href="#dirArrow" transform="rotate(90) translate(36 -43)" onmousedown="handlePan(1,0)">
                  <use xlink:href="#rim" fill="#404040">
                        <set attributeName="fill" to="#808080" begin="arrowRight.mouseover" end="arrowRight.mouseout"/>
                  </use>
                  <path fill="none" stroke="white" stroke-width="1.5" d="M0,-3.0v7 M-2.5,-0.5L0,-3.0L2.5,-0.5"/>
                </g>
                <g id="arrowDown" xlink:href="#dirArrow" transform="rotate(180) translate(-30 -48)" onmousedown="handlePan(0,1)">
                  <use xlink:href="#rim" fill="#404040">
                        <set attributeName="fill" to="#808080" begin="arrowDown.mouseover" end="arrowDown.mouseout"/>
                  </use>
                  <path fill="none" stroke="white" stroke-width="1.5" d="M0,-3.0v7 M-2.5,-0.5L0,-3.0L2.5,-0.5"/>
                </g>
                <g id="arrowLeft" xlink:href="#dirArrow" transform="rotate(270) translate(-36 17)" onmousedown="handlePan(-1,0)">
                  <use xlink:href="#rim" fill="#404040">
                        <set attributeName="fill" to="#808080" begin="arrowLeft.mouseover" end="arrowLeft.mouseout"/>
                  </use>
                  <path fill="none" stroke="white" stroke-width="1.5" d="M0,-3.0v7 M-2.5,-0.5L0,-3.0L2.5,-0.5"/>
                </g>
        </g>
        <svg viewBox="0 0 15 15" width="100%" height="30px" preserveAspectRatio="xMaxYMin meet">
         <g id="arrow_out" transform="scale(0.3 0.3)">
          <a xlink:href="classcellsociety__team02_1_1_grid_model_a866f20a5152d615d686b4412ed6d4e46_cgraph_org.svg" target="_base">
           <rect id="button" ry="5" rx="5" y="6" x="6" height="38" width="38"
                fill="#f2f5e9" fill-opacity="0.5" stroke="#606060" stroke-width="1.0"/>
           <path id="arrow"
             d="M 11.500037,31.436501 C 11.940474,20.09759 22.043105,11.32322 32.158766,21.979434 L 37.068811,17.246167 C 37.068811,17.246167 37.088388,32 37.088388,32 L 22.160133,31.978069 C 22.160133,31.978069 26.997745,27.140456 26.997745,27.140456 C 18.528582,18.264221 13.291696,25.230495 11.500037,31.436501 z"
             style="fill:#404040;"/>
          </a>
         </g>
        </svg>
</svg>
