<?xml version="1.0" encoding="UTF-8" standalone="no"?>
<!DOCTYPE svg PUBLIC "-//W3C//DTD SVG 1.1//EN"
 "http://www.w3.org/Graphics/SVG/1.1/DTD/svg11.dtd">
<!-- Generated by graphviz version 2.36.0 (20140111.2315)
 -->
<!-- Title: cellsociety_team02.GridModel.getPatches Pages: 1 -->
<svg width="2144pt" height="164pt"
 viewBox="0.00 0.00 2144.00 164.00" xmlns="http://www.w3.org/2000/svg" xmlns:xlink="http://www.w3.org/1999/xlink">
<g id="graph0" class="graph" transform="scale(1 1) rotate(0) translate(4 160)">
<title>cellsociety_team02.GridModel.getPatches</title>
<polygon fill="white" stroke="none" points="-4,4 -4,-160 2140,-160 2140,4 -4,4"/>
<!-- Node1 -->
<g id="node1" class="node"><title>Node1</title>
<polygon fill="#bfbfbf" stroke="black" points="0.5,-112 0.5,-142 179.5,-142 179.5,-112 0.5,-112"/>
<text text-anchor="start" x="8.5" y="-130" font-family="Helvetica,sans-Serif" font-size="10.00">cellsociety_team02.GridModel.get</text>
<text text-anchor="middle" x="90" y="-119" font-family="Helvetica,sans-Serif" font-size="10.00">Patches</text>
</g>
<!-- Node2 -->
<g id="node2" class="node"><title>Node2</title>
<g id="a_node2"><a xlink:href="../../d9/daf/classcellsociety__team02_1_1_grid_view.html#ad4fe99d3b1bf9b7ed1cd8d65145f5d90" target="_top" xlink:title="cellsociety_team02.GridView.makeGrid">
<polygon fill="white" stroke="black" points="216,-117.5 216,-136.5 418,-136.5 418,-117.5 216,-117.5"/>
<text text-anchor="middle" x="317" y="-124.5" font-family="Helvetica,sans-Serif" font-size="10.00">cellsociety_team02.GridView.makeGrid</text>
</a>
</g>
</g>
<!-- Node1&#45;&gt;Node2 -->
<g id="edge1" class="edge"><title>Node1&#45;&gt;Node2</title>
<path fill="none" stroke="midnightblue" d="M189.744,-127C198.437,-127 207.242,-127 215.946,-127"/>
<polygon fill="midnightblue" stroke="midnightblue" points="189.603,-123.5 179.603,-127 189.603,-130.5 189.603,-123.5"/>
</g>
<!-- Node3 -->
<g id="node3" class="node"><title>Node3</title>
<g id="a_node3"><a xlink:href="../../d9/daf/classcellsociety__team02_1_1_grid_view.html#aa0cb15c1acd15c18573648b8df447752" target="_top" xlink:title="cellsociety_team02.GridView.load">
<polygon fill="white" stroke="black" points="1320,-136.5 1320,-155.5 1496,-155.5 1496,-136.5 1320,-136.5"/>
<text text-anchor="middle" x="1408" y="-143.5" font-family="Helvetica,sans-Serif" font-size="10.00">cellsociety_team02.GridView.load</text>
</a>
</g>
</g>
<!-- Node2&#45;&gt;Node3 -->
<g id="edge2" class="edge"><title>Node2&#45;&gt;Node3</title>
<path fill="none" stroke="midnightblue" d="M428.398,-134.47C516.504,-139.79 643.109,-146 754,-146 754,-146 754,-146 970,-146 1091.39,-146 1231.74,-146 1319.94,-146"/>
<polygon fill="midnightblue" stroke="midnightblue" points="428.581,-130.975 418.386,-133.859 428.154,-137.962 428.581,-130.975"/>
</g>
<!-- Node7 -->
<g id="node7" class="node"><title>Node7</title>
<g id="a_node7"><a xlink:href="../../d9/daf/classcellsociety__team02_1_1_grid_view.html#a27a105e1810531f4958f9fc192c3cef1" target="_top" xlink:title="cellsociety_team02.GridView.step">
<polygon fill="white" stroke="black" points="454,-98.5 454,-117.5 630,-117.5 630,-98.5 454,-98.5"/>
<text text-anchor="middle" x="542" y="-105.5" font-family="Helvetica,sans-Serif" font-size="10.00">cellsociety_team02.GridView.step</text>
</a>
</g>
</g>
<!-- Node2&#45;&gt;Node7 -->
<g id="edge7" class="edge"><title>Node2&#45;&gt;Node7</title>
<path fill="none" stroke="midnightblue" d="M428.177,-117.613C436.788,-116.879 445.41,-116.144 453.837,-115.426"/>
<polygon fill="midnightblue" stroke="midnightblue" points="427.751,-114.136 418.085,-118.473 428.346,-121.111 427.751,-114.136"/>
</g>
<!-- Node4 -->
<g id="node4" class="node"><title>Node4</title>
<g id="a_node4"><a xlink:href="../../d9/daf/classcellsociety__team02_1_1_grid_view.html#ada183e314764db770009f944205490df" target="_top" xlink:title="cellsociety_team02.GridView.\lGridView">
<polygon fill="white" stroke="black" points="1980.5,-110 1980.5,-140 2135.5,-140 2135.5,-110 1980.5,-110"/>
<text text-anchor="start" x="1988.5" y="-128" font-family="Helvetica,sans-Serif" font-size="10.00">cellsociety_team02.GridView.</text>
<text text-anchor="middle" x="2058" y="-117" font-family="Helvetica,sans-Serif" font-size="10.00">GridView</text>
</a>
</g>
</g>
<!-- Node3&#45;&gt;Node4 -->
<g id="edge3" class="edge"><title>Node3&#45;&gt;Node4</title>
<path fill="none" stroke="midnightblue" d="M1506.37,-142.845C1635.94,-138.645 1862.4,-131.307 1980.47,-127.48"/>
<polygon fill="midnightblue" stroke="midnightblue" points="1505.94,-139.357 1496.06,-143.179 1506.16,-146.353 1505.94,-139.357"/>
</g>
<!-- Node5 -->
<g id="node5" class="node"><title>Node5</title>
<g id="a_node5"><a xlink:href="../../d9/daf/classcellsociety__team02_1_1_grid_view.html#afcc7b83f62c116e77ab0843bfd4156b8" target="_top" xlink:title="cellsociety_team02.GridView.make\lButtons">
<polygon fill="white" stroke="black" points="1532,-87 1532,-117 1714,-117 1714,-87 1532,-87"/>
<text text-anchor="start" x="1540" y="-105" font-family="Helvetica,sans-Serif" font-size="10.00">cellsociety_team02.GridView.make</text>
<text text-anchor="middle" x="1623" y="-94" font-family="Helvetica,sans-Serif" font-size="10.00">Buttons</text>
</a>
</g>
</g>
<!-- Node3&#45;&gt;Node5 -->
<g id="edge4" class="edge"><title>Node3&#45;&gt;Node5</title>
<path fill="none" stroke="midnightblue" d="M1465.16,-134.399C1490.85,-129.092 1521.62,-122.736 1549.07,-117.065"/>
<polygon fill="midnightblue" stroke="midnightblue" points="1464.3,-131.002 1455.22,-136.453 1465.72,-137.857 1464.3,-131.002"/>
</g>
<!-- Node6 -->
<g id="node6" class="node"><title>Node6</title>
<g id="a_node6"><a xlink:href="../../d9/daf/classcellsociety__team02_1_1_grid_view.html#a4571898657e750f62c2df84cb398e135" target="_top" xlink:title="cellsociety_team02.GridView.initialize">
<polygon fill="white" stroke="black" points="1750,-95.5 1750,-114.5 1944,-114.5 1944,-95.5 1750,-95.5"/>
<text text-anchor="middle" x="1847" y="-102.5" font-family="Helvetica,sans-Serif" font-size="10.00">cellsociety_team02.GridView.initialize</text>
</a>
</g>
</g>
<!-- Node5&#45;&gt;Node6 -->
<g id="edge5" class="edge"><title>Node5&#45;&gt;Node6</title>
<path fill="none" stroke="midnightblue" d="M1724.56,-103.359C1733.03,-103.473 1741.57,-103.589 1750,-103.703"/>
<polygon fill="midnightblue" stroke="midnightblue" points="1724.34,-99.8558 1714.3,-103.22 1724.25,-106.855 1724.34,-99.8558"/>
</g>
<!-- Node6&#45;&gt;Node4 -->
<g id="edge6" class="edge"><title>Node6&#45;&gt;Node4</title>
<path fill="none" stroke="midnightblue" d="M1954.48,-115.189C1963.2,-116.024 1971.91,-116.857 1980.35,-117.665"/>
<polygon fill="midnightblue" stroke="midnightblue" points="1954.53,-111.678 1944.24,-114.21 1953.86,-118.646 1954.53,-111.678"/>
</g>
<!-- Node7&#45;&gt;Node5 -->
<g id="edge8" class="edge"><title>Node7&#45;&gt;Node5</title>
<path fill="none" stroke="midnightblue" d="M640.119,-108C726.261,-108 855.505,-108 968,-108 968,-108 968,-108 1190,-108 1308.14,-108 1444.43,-105.729 1531.82,-103.981"/>
<polygon fill="midnightblue" stroke="midnightblue" points="640.094,-104.5 630.094,-108 640.094,-111.5 640.094,-104.5"/>
</g>
<!-- Node8 -->
<g id="node8" class="node"><title>Node8</title>
<g id="a_node8"><a xlink:href="../../d9/daf/classcellsociety__team02_1_1_grid_view.html#aa1d09688b48a4a95513e15eea18ec0e6" target="_top" xlink:title="cellsociety_team02.GridView.start\lHandler">
<polygon fill="white" stroke="black" points="666,-49 666,-79 844,-79 844,-49 666,-49"/>
<text text-anchor="start" x="674" y="-67" font-family="Helvetica,sans-Serif" font-size="10.00">cellsociety_team02.GridView.start</text>
<text text-anchor="middle" x="755" y="-56" font-family="Helvetica,sans-Serif" font-size="10.00">Handler</text>
</a>
</g>
</g>
<!-- Node7&#45;&gt;Node8 -->
<g id="edge9" class="edge"><title>Node7&#45;&gt;Node8</title>
<path fill="none" stroke="midnightblue" d="M598.633,-96.3987C624.083,-91.0917 654.561,-84.7362 681.755,-79.0654"/>
<polygon fill="midnightblue" stroke="midnightblue" points="597.859,-92.9849 588.784,-98.4527 599.288,-99.8375 597.859,-92.9849"/>
</g>
<!-- Node9 -->
<g id="node9" class="node"><title>Node9</title>
<g id="a_node9"><a xlink:href="../../d9/daf/classcellsociety__team02_1_1_grid_view.html#a27ed5fc9bbf44efab6d23cb07096c36a" target="_top" xlink:title="cellsociety_team02.GridView.start\lAnimation">
<polygon fill="white" stroke="black" points="880,-49 880,-79 1058,-79 1058,-49 880,-49"/>
<text text-anchor="start" x="888" y="-67" font-family="Helvetica,sans-Serif" font-size="10.00">cellsociety_team02.GridView.start</text>
<text text-anchor="middle" x="969" y="-56" font-family="Helvetica,sans-Serif" font-size="10.00">Animation</text>
</a>
</g>
</g>
<!-- Node8&#45;&gt;Node9 -->
<g id="edge10" class="edge"><title>Node8&#45;&gt;Node9</title>
<path fill="none" stroke="midnightblue" d="M854.107,-64C862.7,-64 871.363,-64 879.868,-64"/>
<polygon fill="midnightblue" stroke="midnightblue" points="854.065,-60.5001 844.065,-64 854.065,-67.5001 854.065,-60.5001"/>
</g>
<!-- Node10 -->
<g id="node10" class="node"><title>Node10</title>
<g id="a_node10"><a xlink:href="../../d9/daf/classcellsociety__team02_1_1_grid_view.html#a7b94250b9b4e419eb3b97394e3b86052" target="_top" xlink:title="cellsociety_team02.GridView.play\lPause">
<polygon fill="white" stroke="black" points="1101.5,-49 1101.5,-79 1276.5,-79 1276.5,-49 1101.5,-49"/>
<text text-anchor="start" x="1109.5" y="-67" font-family="Helvetica,sans-Serif" font-size="10.00">cellsociety_team02.GridView.play</text>
<text text-anchor="middle" x="1189" y="-56" font-family="Helvetica,sans-Serif" font-size="10.00">Pause</text>
</a>
</g>
</g>
<!-- Node9&#45;&gt;Node10 -->
<g id="edge11" class="edge"><title>Node9&#45;&gt;Node10</title>
<path fill="none" stroke="midnightblue" d="M1068.16,-64C1079.25,-64 1090.48,-64 1101.4,-64"/>
<polygon fill="midnightblue" stroke="midnightblue" points="1068.04,-60.5001 1058.04,-64 1068.04,-67.5001 1068.04,-60.5001"/>
</g>
<!-- Node11 -->
<g id="node11" class="node"><title>Node11</title>
<g id="a_node11"><a xlink:href="../../d9/daf/classcellsociety__team02_1_1_grid_view.html#a21d8f68b9be54d2f23f17af421c78b12" target="_top" xlink:title="cellsociety_team02.GridView.update\lSpeed">
<polygon fill="white" stroke="black" points="1094.5,-0 1094.5,-30 1283.5,-30 1283.5,-0 1094.5,-0"/>
<text text-anchor="start" x="1102.5" y="-18" font-family="Helvetica,sans-Serif" font-size="10.00">cellsociety_team02.GridView.update</text>
<text text-anchor="middle" x="1189" y="-7" font-family="Helvetica,sans-Serif" font-size="10.00">Speed</text>
</a>
</g>
</g>
<!-- Node9&#45;&gt;Node11 -->
<g id="edge13" class="edge"><title>Node9&#45;&gt;Node11</title>
<path fill="none" stroke="midnightblue" d="M1046.78,-46.7419C1071.07,-41.282 1097.71,-35.295 1121.24,-30.0062"/>
<polygon fill="midnightblue" stroke="midnightblue" points="1045.88,-43.3575 1036.89,-48.9654 1047.41,-50.1871 1045.88,-43.3575"/>
</g>
<!-- Node10&#45;&gt;Node5 -->
<g id="edge12" class="edge"><title>Node10&#45;&gt;Node5</title>
<path fill="none" stroke="midnightblue" d="M1286.81,-72.5153C1360.13,-78.965 1460.13,-87.7612 1531.78,-94.0642"/>
<polygon fill="midnightblue" stroke="midnightblue" points="1286.91,-69.0111 1276.64,-71.6213 1286.3,-75.9842 1286.91,-69.0111"/>
</g>
<!-- Node12 -->
<g id="node12" class="node"><title>Node12</title>
<g id="a_node12"><a xlink:href="../../d9/daf/classcellsociety__team02_1_1_grid_view.html#a08ac9f0ccad1d9db92c9d92a127d77bc" target="_top" xlink:title="cellsociety_team02.GridView.set\lUpSpeedSlider">
<polygon fill="white" stroke="black" points="1323,-3 1323,-33 1493,-33 1493,-3 1323,-3"/>
<text text-anchor="start" x="1331" y="-21" font-family="Helvetica,sans-Serif" font-size="10.00">cellsociety_team02.GridView.set</text>
<text text-anchor="middle" x="1408" y="-10" font-family="Helvetica,sans-Serif" font-size="10.00">UpSpeedSlider</text>
</a>
</g>
</g>
<!-- Node11&#45;&gt;Node12 -->
<g id="edge14" class="edge"><title>Node11&#45;&gt;Node12</title>
<path fill="none" stroke="midnightblue" d="M1293.76,-16.4345C1303.54,-16.5697 1313.37,-16.7056 1322.94,-16.8378"/>
<polygon fill="midnightblue" stroke="midnightblue" points="1293.65,-12.9327 1283.6,-16.294 1293.55,-19.932 1293.65,-12.9327"/>
</g>
<!-- Node12&#45;&gt;Node5 -->
<g id="edge15" class="edge"><title>Node12&#45;&gt;Node5</title>
<path fill="none" stroke="midnightblue" d="M1456.5,-36.7327C1494.9,-51.8761 1548.25,-72.9157 1583.89,-86.9711"/>
<polygon fill="midnightblue" stroke="midnightblue" points="1457.67,-33.4303 1447.08,-33.0175 1455.1,-39.9422 1457.67,-33.4303"/>
</g>
</g>
</svg>
