<?xml version="1.0" encoding="UTF-8" standalone="no"?>
<!DOCTYPE svg PUBLIC "-//W3C//DTD SVG 1.1//EN"
 "http://www.w3.org/Graphics/SVG/1.1/DTD/svg11.dtd">
<!-- Generated by graphviz version 2.36.0 (20140111.2315)
 -->
<!-- Title: cellsociety_team02.GridModel.getGridType Pages: 1 -->
<svg width="1040pt" height="61pt"
 viewBox="0.00 0.00 1040.00 61.00" xmlns="http://www.w3.org/2000/svg" xmlns:xlink="http://www.w3.org/1999/xlink">
<g id="graph0" class="graph" transform="scale(1 1) rotate(0) translate(4 57)">
<title>cellsociety_team02.GridModel.getGridType</title>
<polygon fill="white" stroke="none" points="-4,4 -4,-57 1036,-57 1036,4 -4,4"/>
<!-- Node1 -->
<g id="node1" class="node"><title>Node1</title>
<polygon fill="#bfbfbf" stroke="black" points="0.5,-22 0.5,-52 179.5,-52 179.5,-22 0.5,-22"/>
<text text-anchor="start" x="8.5" y="-40" font-family="Helvetica,sans-Serif" font-size="10.00">cellsociety_team02.GridModel.get</text>
<text text-anchor="middle" x="90" y="-29" font-family="Helvetica,sans-Serif" font-size="10.00">GridType</text>
</g>
<!-- Node2 -->
<g id="node2" class="node"><title>Node2</title>
<g id="a_node2"><a xlink:href="../../d9/daf/classcellsociety__team02_1_1_grid_view.html#aa0cb15c1acd15c18573648b8df447752" target="_top" xlink:title="cellsociety_team02.GridView.load">
<polygon fill="white" stroke="black" points="216,-27.5 216,-46.5 392,-46.5 392,-27.5 216,-27.5"/>
<text text-anchor="middle" x="304" y="-34.5" font-family="Helvetica,sans-Serif" font-size="10.00">cellsociety_team02.GridView.load</text>
</a>
</g>
</g>
<!-- Node1&#45;&gt;Node2 -->
<g id="edge1" class="edge"><title>Node1&#45;&gt;Node2</title>
<path fill="none" stroke="midnightblue" d="M189.788,-37C198.437,-37 207.15,-37 215.696,-37"/>
<polygon fill="midnightblue" stroke="midnightblue" points="189.679,-33.5001 179.679,-37 189.679,-40.5001 189.679,-33.5001"/>
</g>
<!-- Node3 -->
<g id="node3" class="node"><title>Node3</title>
<g id="a_node3"><a xlink:href="../../d9/daf/classcellsociety__team02_1_1_grid_view.html#ada183e314764db770009f944205490df" target="_top" xlink:title="cellsociety_team02.GridView.\lGridView">
<polygon fill="white" stroke="black" points="876.5,-23 876.5,-53 1031.5,-53 1031.5,-23 876.5,-23"/>
<text text-anchor="start" x="884.5" y="-41" font-family="Helvetica,sans-Serif" font-size="10.00">cellsociety_team02.GridView.</text>
<text text-anchor="middle" x="954" y="-30" font-family="Helvetica,sans-Serif" font-size="10.00">GridView</text>
</a>
</g>
</g>
<!-- Node2&#45;&gt;Node3 -->
<g id="edge2" class="edge"><title>Node2&#45;&gt;Node3</title>
<path fill="none" stroke="midnightblue" d="M402.238,-38.7275C410.949,-38.838 419.634,-38.932 428,-39 587.5,-40.2967 774.266,-39.3532 876.486,-38.6264"/>
<polygon fill="midnightblue" stroke="midnightblue" points="402.063,-35.2249 392.017,-38.5908 401.969,-42.2243 402.063,-35.2249"/>
</g>
<!-- Node4 -->
<g id="node4" class="node"><title>Node4</title>
<g id="a_node4"><a xlink:href="../../d9/daf/classcellsociety__team02_1_1_grid_view.html#afcc7b83f62c116e77ab0843bfd4156b8" target="_top" xlink:title="cellsociety_team02.GridView.make\lButtons">
<polygon fill="white" stroke="black" points="428,-0 428,-30 610,-30 610,-0 428,-0"/>
<text text-anchor="start" x="436" y="-18" font-family="Helvetica,sans-Serif" font-size="10.00">cellsociety_team02.GridView.make</text>
<text text-anchor="middle" x="519" y="-7" font-family="Helvetica,sans-Serif" font-size="10.00">Buttons</text>
</a>
</g>
</g>
<!-- Node2&#45;&gt;Node4 -->
<g id="edge3" class="edge"><title>Node2&#45;&gt;Node4</title>
<path fill="none" stroke="midnightblue" d="M402.201,-26.9605C410.72,-26.0806 419.319,-25.1924 427.777,-24.3188"/>
<polygon fill="midnightblue" stroke="midnightblue" points="401.837,-23.4793 392.25,-27.9883 402.557,-30.4423 401.837,-23.4793"/>
</g>
<!-- Node5 -->
<g id="node5" class="node"><title>Node5</title>
<g id="a_node5"><a xlink:href="../../d9/daf/classcellsociety__team02_1_1_grid_view.html#a4571898657e750f62c2df84cb398e135" target="_top" xlink:title="cellsociety_team02.GridView.initialize">
<polygon fill="white" stroke="black" points="646,-8.5 646,-27.5 840,-27.5 840,-8.5 646,-8.5"/>
<text text-anchor="middle" x="743" y="-15.5" font-family="Helvetica,sans-Serif" font-size="10.00">cellsociety_team02.GridView.initialize</text>
</a>
</g>
</g>
<!-- Node4&#45;&gt;Node5 -->
<g id="edge4" class="edge"><title>Node4&#45;&gt;Node5</title>
<path fill="none" stroke="midnightblue" d="M620.565,-16.359C629.028,-16.4733 637.572,-16.5888 645.999,-16.7027"/>
<polygon fill="midnightblue" stroke="midnightblue" points="620.342,-12.8558 610.296,-16.2202 620.248,-19.8551 620.342,-12.8558"/>
</g>
<!-- Node5&#45;&gt;Node3 -->
<g id="edge5" class="edge"><title>Node5&#45;&gt;Node3</title>
<path fill="none" stroke="midnightblue" d="M850.477,-28.1892C859.201,-29.024 867.907,-29.8571 876.351,-30.6651"/>
<polygon fill="midnightblue" stroke="midnightblue" points="850.53,-24.6783 840.242,-27.2097 849.863,-31.6465 850.53,-24.6783"/>
</g>
</g>
</svg>
