<?xml version="1.0" encoding="UTF-8" standalone="no"?>
<!DOCTYPE svg PUBLIC "-//W3C//DTD SVG 1.1//EN"
 "http://www.w3.org/Graphics/SVG/1.1/DTD/svg11.dtd">
<!-- Generated by graphviz version 2.36.0 (20140111.2315)
 -->
<!-- Title: cellsociety_team02.GridModel.setCurrentToFuture Pages: 1 -->
<!--zoomable 116 -->
<svg id="main" version="1.1" xmlns="http://www.w3.org/2000/svg" xmlns:xlink="http://www.w3.org/1999/xlink" xml:space="preserve" onload="init(evt)">
<style type="text/css"><![CDATA[
.edge:hover path { stroke: red; }
.edge:hover polygon { stroke: red; fill: red; }
]]></style>
<script type="text/javascript"><![CDATA[
var edges = document.getElementsByTagName('g');
if (edges && edges.length) {
  for (var i=0;i<edges.length;i++) {
    if (edges[i].id.substr(0,4)=='edge') {
      edges[i].setAttribute('class','edge');
    }
  }
}
]]></script>
        <defs>
                <circle id="rim" cx="0" cy="0" r="7"/>
                <circle id="rim2" cx="0" cy="0" r="3.5"/>
                <g id="zoomPlus">
                        <use xlink:href="#rim" fill="#404040">
                                <set attributeName="fill" to="#808080" begin="zoomplus.mouseover" end="zoomplus.mouseout"/>
                        </use>
                        <path d="M-4,0h8M0,-4v8" fill="none" stroke="white" stroke-width="1.5" pointer-events="none"/>
                </g>
                <g id="zoomMin">
                        <use xlink:href="#rim" fill="#404040">
                                <set attributeName="fill" to="#808080" begin="zoomminus.mouseover" end="zoomminus.mouseout"/>
                        </use>
                        <path d="M-4,0h8" fill="none" stroke="white" stroke-width="1.5" pointer-events="none"/>
                </g>
                <g id="dirArrow">
                        <path fill="none" stroke="white" stroke-width="1.5" d="M0,-3.0v7 M-2.5,-0.5L0,-3.0L2.5,-0.5"/>
                </g>
               <g id="resetDef">
                       <use xlink:href="#rim2" fill="#404040">
                               <set attributeName="fill" to="#808080" begin="reset.mouseover" end="reset.mouseout"/>
                       </use>
               </g>
        </defs>

<script type="text/javascript">
var viewWidth = 2138;
var viewHeight = 116;
var sectionId = 'dynsection-13';
</script>
<script xlink:href="../../svgpan.js"/>
<svg id="graph" class="graph">
<g id="viewport">
<title>cellsociety_team02.GridModel.setCurrentToFuture</title>
<polygon fill="white" stroke="none" points="-4,4 -4,-112 2134,-112 2134,4 -4,4"/>
<!-- Node1 -->
<g id="node1" class="node"><title>Node1</title>
<polygon fill="#bfbfbf" stroke="black" points="0,-71 0,-101 178,-101 178,-71 0,-71"/>
<text text-anchor="start" x="8" y="-89" font-family="Helvetica,sans-Serif" font-size="10.00">cellsociety_team02.GridModel.set</text>
<text text-anchor="middle" x="89" y="-78" font-family="Helvetica,sans-Serif" font-size="10.00">CurrentToFuture</text>
</g>
<!-- Node2 -->
<g id="node2" class="node"><title>Node2</title>
<g id="a_node2"><a xlink:href="../../df/d71/classcellsociety__team02_1_1_grid_model.html#a866f20a5152d615d686b4412ed6d4e46" target="_top" xlink:title="cellsociety_team02.GridModel.update">
<polygon fill="white" stroke="black" points="214.5,-76.5 214.5,-95.5 411.5,-95.5 411.5,-76.5 214.5,-76.5"/>
<text text-anchor="middle" x="313" y="-83.5" font-family="Helvetica,sans-Serif" font-size="10.00">cellsociety_team02.GridModel.update</text>
</a>
</g>
</g>
<!-- Node1&#45;&gt;Node2 -->
<g id="edge1" class="edge"><title>Node1&#45;&gt;Node2</title>
<path fill="none" stroke="midnightblue" d="M188.143,-86C196.785,-86 205.532,-86 214.172,-86"/>
<polygon fill="midnightblue" stroke="midnightblue" points="188.059,-82.5001 178.059,-86 188.059,-89.5001 188.059,-82.5001"/>
</g>
<!-- Node3 -->
<g id="node3" class="node"><title>Node3</title>
<g id="a_node3"><a xlink:href="../../d9/daf/classcellsociety__team02_1_1_grid_view.html#a27a105e1810531f4958f9fc192c3cef1" target="_top" xlink:title="cellsociety_team02.GridView.step">
<polygon fill="white" stroke="black" points="448,-76.5 448,-95.5 624,-95.5 624,-76.5 448,-76.5"/>
<text text-anchor="middle" x="536" y="-83.5" font-family="Helvetica,sans-Serif" font-size="10.00">cellsociety_team02.GridView.step</text>
</a>
</g>
</g>
<!-- Node2&#45;&gt;Node3 -->
<g id="edge2" class="edge"><title>Node2&#45;&gt;Node3</title>
<path fill="none" stroke="midnightblue" d="M421.76,-86C430.454,-86 439.171,-86 447.695,-86"/>
<polygon fill="midnightblue" stroke="midnightblue" points="421.577,-82.5001 411.577,-86 421.577,-89.5001 421.577,-82.5001"/>
</g>
<!-- Node4 -->
<g id="node4" class="node"><title>Node4</title>
<g id="a_node4"><a xlink:href="../../d9/daf/classcellsociety__team02_1_1_grid_view.html#afcc7b83f62c116e77ab0843bfd4156b8" target="_top" xlink:title="cellsociety_team02.GridView.make\lButtons">
<polygon fill="white" stroke="black" points="1526,-49 1526,-79 1708,-79 1708,-49 1526,-49"/>
<text text-anchor="start" x="1534" y="-67" font-family="Helvetica,sans-Serif" font-size="10.00">cellsociety_team02.GridView.make</text>
<text text-anchor="middle" x="1617" y="-56" font-family="Helvetica,sans-Serif" font-size="10.00">Buttons</text>
</a>
</g>
</g>
<!-- Node3&#45;&gt;Node4 -->
<g id="edge3" class="edge"><title>Node3&#45;&gt;Node4</title>
<path fill="none" stroke="midnightblue" d="M634.045,-93.8849C720.139,-100.197 849.355,-108 962,-108 962,-108 962,-108 1184,-108 1320.29,-108 1354.8,-105.228 1490,-88 1508,-85.7059 1527.31,-82.4401 1545.27,-79.0537"/>
<polygon fill="midnightblue" stroke="midnightblue" points="634.257,-90.3911 624.026,-93.1428 633.74,-97.3719 634.257,-90.3911"/>
</g>
<!-- Node7 -->
<g id="node7" class="node"><title>Node7</title>
<g id="a_node7"><a xlink:href="../../d9/daf/classcellsociety__team02_1_1_grid_view.html#aa1d09688b48a4a95513e15eea18ec0e6" target="_top" xlink:title="cellsociety_team02.GridView.start\lHandler">
<polygon fill="white" stroke="black" points="660,-49 660,-79 838,-79 838,-49 660,-49"/>
<text text-anchor="start" x="668" y="-67" font-family="Helvetica,sans-Serif" font-size="10.00">cellsociety_team02.GridView.start</text>
<text text-anchor="middle" x="749" y="-56" font-family="Helvetica,sans-Serif" font-size="10.00">Handler</text>
</a>
</g>
</g>
<!-- Node3&#45;&gt;Node7 -->
<g id="edge6" class="edge"><title>Node3&#45;&gt;Node7</title>
<path fill="none" stroke="midnightblue" d="M634.063,-75.8797C642.642,-74.9851 651.297,-74.0828 659.797,-73.1965"/>
<polygon fill="midnightblue" stroke="midnightblue" points="633.623,-72.4065 624.04,-76.9247 634.349,-79.3688 633.623,-72.4065"/>
</g>
<!-- Node5 -->
<g id="node5" class="node"><title>Node5</title>
<g id="a_node5"><a xlink:href="../../d9/daf/classcellsociety__team02_1_1_grid_view.html#a4571898657e750f62c2df84cb398e135" target="_top" xlink:title="cellsociety_team02.GridView.initialize">
<polygon fill="white" stroke="black" points="1744,-54.5 1744,-73.5 1938,-73.5 1938,-54.5 1744,-54.5"/>
<text text-anchor="middle" x="1841" y="-61.5" font-family="Helvetica,sans-Serif" font-size="10.00">cellsociety_team02.GridView.initialize</text>
</a>
</g>
</g>
<!-- Node4&#45;&gt;Node5 -->
<g id="edge4" class="edge"><title>Node4&#45;&gt;Node5</title>
<path fill="none" stroke="midnightblue" d="M1718.56,-64C1727.03,-64 1735.57,-64 1744,-64"/>
<polygon fill="midnightblue" stroke="midnightblue" points="1718.3,-60.5001 1708.3,-64 1718.3,-67.5001 1718.3,-60.5001"/>
</g>
<!-- Node6 -->
<g id="node6" class="node"><title>Node6</title>
<g id="a_node6"><a xlink:href="../../d9/daf/classcellsociety__team02_1_1_grid_view.html#ada183e314764db770009f944205490df" target="_top" xlink:title="cellsociety_team02.GridView.\lGridView">
<polygon fill="white" stroke="black" points="1974.5,-49 1974.5,-79 2129.5,-79 2129.5,-49 1974.5,-49"/>
<text text-anchor="start" x="1982.5" y="-67" font-family="Helvetica,sans-Serif" font-size="10.00">cellsociety_team02.GridView.</text>
<text text-anchor="middle" x="2052" y="-56" font-family="Helvetica,sans-Serif" font-size="10.00">GridView</text>
</a>
</g>
</g>
<!-- Node5&#45;&gt;Node6 -->
<g id="edge5" class="edge"><title>Node5&#45;&gt;Node6</title>
<path fill="none" stroke="midnightblue" d="M1948.48,-64C1957.2,-64 1965.91,-64 1974.35,-64"/>
<polygon fill="midnightblue" stroke="midnightblue" points="1948.24,-60.5001 1938.24,-64 1948.24,-67.5001 1948.24,-60.5001"/>
</g>
<!-- Node8 -->
<g id="node8" class="node"><title>Node8</title>
<g id="a_node8"><a xlink:href="../../d9/daf/classcellsociety__team02_1_1_grid_view.html#a27ed5fc9bbf44efab6d23cb07096c36a" target="_top" xlink:title="cellsociety_team02.GridView.start\lAnimation">
<polygon fill="white" stroke="black" points="874,-49 874,-79 1052,-79 1052,-49 874,-49"/>
<text text-anchor="start" x="882" y="-67" font-family="Helvetica,sans-Serif" font-size="10.00">cellsociety_team02.GridView.start</text>
<text text-anchor="middle" x="963" y="-56" font-family="Helvetica,sans-Serif" font-size="10.00">Animation</text>
</a>
</g>
</g>
<!-- Node7&#45;&gt;Node8 -->
<g id="edge7" class="edge"><title>Node7&#45;&gt;Node8</title>
<path fill="none" stroke="midnightblue" d="M848.107,-64C856.7,-64 865.363,-64 873.868,-64"/>
<polygon fill="midnightblue" stroke="midnightblue" points="848.065,-60.5001 838.065,-64 848.065,-67.5001 848.065,-60.5001"/>
</g>
<!-- Node9 -->
<g id="node9" class="node"><title>Node9</title>
<g id="a_node9"><a xlink:href="../../d9/daf/classcellsociety__team02_1_1_grid_view.html#a7b94250b9b4e419eb3b97394e3b86052" target="_top" xlink:title="cellsociety_team02.GridView.play\lPause">
<polygon fill="white" stroke="black" points="1314.5,-49 1314.5,-79 1489.5,-79 1489.5,-49 1314.5,-49"/>
<text text-anchor="start" x="1322.5" y="-67" font-family="Helvetica,sans-Serif" font-size="10.00">cellsociety_team02.GridView.play</text>
<text text-anchor="middle" x="1402" y="-56" font-family="Helvetica,sans-Serif" font-size="10.00">Pause</text>
</a>
</g>
</g>
<!-- Node8&#45;&gt;Node9 -->
<g id="edge8" class="edge"><title>Node8&#45;&gt;Node9</title>
<path fill="none" stroke="midnightblue" d="M1062.2,-64C1137.97,-64 1241.78,-64 1314.46,-64"/>
<polygon fill="midnightblue" stroke="midnightblue" points="1062.17,-60.5001 1052.17,-64 1062.17,-67.5001 1062.17,-60.5001"/>
</g>
<!-- Node10 -->
<g id="node10" class="node"><title>Node10</title>
<g id="a_node10"><a xlink:href="../../d9/daf/classcellsociety__team02_1_1_grid_view.html#a21d8f68b9be54d2f23f17af421c78b12" target="_top" xlink:title="cellsociety_team02.GridView.update\lSpeed">
<polygon fill="white" stroke="black" points="1088.5,-2 1088.5,-32 1277.5,-32 1277.5,-2 1088.5,-2"/>
<text text-anchor="start" x="1096.5" y="-20" font-family="Helvetica,sans-Serif" font-size="10.00">cellsociety_team02.GridView.update</text>
<text text-anchor="middle" x="1183" y="-9" font-family="Helvetica,sans-Serif" font-size="10.00">Speed</text>
</a>
</g>
</g>
<!-- Node8&#45;&gt;Node10 -->
<g id="edge10" class="edge"><title>Node8&#45;&gt;Node10</title>
<path fill="none" stroke="midnightblue" d="M1043.46,-46.8692C1066.02,-42.0053 1090.4,-36.7476 1112.34,-32.019"/>
<polygon fill="midnightblue" stroke="midnightblue" points="1042.61,-43.4707 1033.58,-48.9997 1044.09,-50.3135 1042.61,-43.4707"/>
</g>
<!-- Node9&#45;&gt;Node4 -->
<g id="edge9" class="edge"><title>Node9&#45;&gt;Node4</title>
<path fill="none" stroke="midnightblue" d="M1499.81,-64C1508.52,-64 1517.33,-64 1525.98,-64"/>
<polygon fill="midnightblue" stroke="midnightblue" points="1499.64,-60.5001 1489.64,-64 1499.64,-67.5001 1499.64,-60.5001"/>
</g>
<!-- Node11 -->
<g id="node11" class="node"><title>Node11</title>
<g id="a_node11"><a xlink:href="../../d9/daf/classcellsociety__team02_1_1_grid_view.html#a08ac9f0ccad1d9db92c9d92a127d77bc" target="_top" xlink:title="cellsociety_team02.GridView.set\lUpSpeedSlider">
<polygon fill="white" stroke="black" points="1317,-0 1317,-30 1487,-30 1487,-0 1317,-0"/>
<text text-anchor="start" x="1325" y="-18" font-family="Helvetica,sans-Serif" font-size="10.00">cellsociety_team02.GridView.set</text>
<text text-anchor="middle" x="1402" y="-7" font-family="Helvetica,sans-Serif" font-size="10.00">UpSpeedSlider</text>
</a>
</g>
</g>
<!-- Node10&#45;&gt;Node11 -->
<g id="edge11" class="edge"><title>Node10&#45;&gt;Node11</title>
<path fill="none" stroke="midnightblue" d="M1287.76,-16.0437C1297.54,-15.9535 1307.37,-15.8629 1316.94,-15.7748"/>
<polygon fill="midnightblue" stroke="midnightblue" points="1287.57,-12.5452 1277.6,-16.1373 1287.63,-19.5449 1287.57,-12.5452"/>
</g>
<!-- Node11&#45;&gt;Node4 -->
<g id="edge12" class="edge"><title>Node11&#45;&gt;Node4</title>
<path fill="none" stroke="midnightblue" d="M1478.34,-32.3309C1501.98,-37.7712 1527.88,-43.7285 1550.77,-48.9938"/>
<polygon fill="midnightblue" stroke="midnightblue" points="1478.88,-28.8657 1468.35,-30.0346 1477.32,-35.6875 1478.88,-28.8657"/>
</g>
</g>
</svg>
        <g id="navigator" transform="translate(0 0)" fill="#404254">
                <rect fill="#f2f5e9" fill-opacity="0.5" stroke="#606060" stroke-width=".5" x="0" y="0" width="60" height="60"/>
                <use id="zoomplus" xlink:href="#zoomPlus" x="17" y="9" onmousedown="handleZoom(evt,'in')"/>
                <use id="zoomminus" xlink:href="#zoomMin" x="42" y="9" onmousedown="handleZoom(evt,'out')"/>
                <use id="reset" xlink:href="#resetDef" x="30" y="36" onmousedown="handleReset()"/>
                <g id="arrowUp" xlink:href="#dirArrow" transform="translate(30 24)" onmousedown="handlePan(0,-1)">
                  <use xlink:href="#rim" fill="#404040">
                        <set attributeName="fill" to="#808080" begin="arrowUp.mouseover" end="arrowUp.mouseout"/>
                  </use>
                  <path fill="none" stroke="white" stroke-width="1.5" d="M0,-3.0v7 M-2.5,-0.5L0,-3.0L2.5,-0.5"/>
                </g>
                <g id="arrowRight" xlink:href="#dirArrow" transform="rotate(90) translate(36 -43)" onmousedown="handlePan(1,0)">
                  <use xlink:href="#rim" fill="#404040">
                        <set attributeName="fill" to="#808080" begin="arrowRight.mouseover" end="arrowRight.mouseout"/>
                  </use>
                  <path fill="none" stroke="white" stroke-width="1.5" d="M0,-3.0v7 M-2.5,-0.5L0,-3.0L2.5,-0.5"/>
                </g>
                <g id="arrowDown" xlink:href="#dirArrow" transform="rotate(180) translate(-30 -48)" onmousedown="handlePan(0,1)">
                  <use xlink:href="#rim" fill="#404040">
                        <set attributeName="fill" to="#808080" begin="arrowDown.mouseover" end="arrowDown.mouseout"/>
                  </use>
                  <path fill="none" stroke="white" stroke-width="1.5" d="M0,-3.0v7 M-2.5,-0.5L0,-3.0L2.5,-0.5"/>
                </g>
                <g id="arrowLeft" xlink:href="#dirArrow" transform="rotate(270) translate(-36 17)" onmousedown="handlePan(-1,0)">
                  <use xlink:href="#rim" fill="#404040">
                        <set attributeName="fill" to="#808080" begin="arrowLeft.mouseover" end="arrowLeft.mouseout"/>
                  </use>
                  <path fill="none" stroke="white" stroke-width="1.5" d="M0,-3.0v7 M-2.5,-0.5L0,-3.0L2.5,-0.5"/>
                </g>
        </g>
        <svg viewBox="0 0 15 15" width="100%" height="30px" preserveAspectRatio="xMaxYMin meet">
         <g id="arrow_out" transform="scale(0.3 0.3)">
          <a xlink:href="classcellsociety__team02_1_1_grid_model_ab59dfb960d9ac9cc5b875ae9cda15f92_icgraph_org.svg" target="_base">
           <rect id="button" ry="5" rx="5" y="6" x="6" height="38" width="38"
                fill="#f2f5e9" fill-opacity="0.5" stroke="#606060" stroke-width="1.0"/>
           <path id="arrow"
             d="M 11.500037,31.436501 C 11.940474,20.09759 22.043105,11.32322 32.158766,21.979434 L 37.068811,17.246167 C 37.068811,17.246167 37.088388,32 37.088388,32 L 22.160133,31.978069 C 22.160133,31.978069 26.997745,27.140456 26.997745,27.140456 C 18.528582,18.264221 13.291696,25.230495 11.500037,31.436501 z"
             style="fill:#404040;"/>
          </a>
         </g>
        </svg>
</svg>
