<?xml version="1.0" encoding="UTF-8" standalone="no"?>
<!DOCTYPE svg PUBLIC "-//W3C//DTD SVG 1.1//EN"
 "http://www.w3.org/Graphics/SVG/1.1/DTD/svg11.dtd">
<!-- Generated by graphviz version 2.36.0 (20140111.2315)
 -->
<!-- Title: Cell.Cell.getNeighbors Pages: 1 -->
<svg width="356pt" height="230pt"
 viewBox="0.00 0.00 356.00 230.00" xmlns="http://www.w3.org/2000/svg" xmlns:xlink="http://www.w3.org/1999/xlink">
<g id="graph0" class="graph" transform="scale(1 1) rotate(0) translate(4 226)">
<title>Cell.Cell.getNeighbors</title>
<polygon fill="white" stroke="none" points="-4,4 -4,-226 352,-226 352,4 -4,4"/>
<!-- Node1 -->
<g id="node1" class="node"><title>Node1</title>
<polygon fill="#bfbfbf" stroke="black" points="0,-98.5 0,-117.5 122,-117.5 122,-98.5 0,-98.5"/>
<text text-anchor="middle" x="61" y="-105.5" font-family="Helvetica,sans-Serif" font-size="10.00">Cell.Cell.getNeighbors</text>
</g>
<!-- Node2 -->
<g id="node2" class="node"><title>Node2</title>
<g id="a_node2"><a xlink:href="../../dd/d55/class_cell_1_1_life_cell.html#aaa3aa3dc1544e13365c117d6da267ea1" target="_top" xlink:title="Cell.LifeCell.updateStateandMove">
<polygon fill="white" stroke="black" points="164.5,-202.5 164.5,-221.5 341.5,-221.5 341.5,-202.5 164.5,-202.5"/>
<text text-anchor="middle" x="253" y="-209.5" font-family="Helvetica,sans-Serif" font-size="10.00">Cell.LifeCell.updateStateandMove</text>
</a>
</g>
</g>
<!-- Node1&#45;&gt;Node2 -->
<g id="edge1" class="edge"><title>Node1&#45;&gt;Node2</title>
<path fill="none" stroke="midnightblue" d="M76.3653,-125.316C93.6413,-144.931 124.524,-176.328 158,-193 165.75,-196.86 174.23,-199.935 182.823,-202.386"/>
<polygon fill="midnightblue" stroke="midnightblue" points="78.999,-123.011 69.8265,-117.709 73.6904,-127.574 78.999,-123.011"/>
</g>
<!-- Node3 -->
<g id="node3" class="node"><title>Node3</title>
<g id="a_node3"><a xlink:href="../../d5/de8/class_cell_1_1_fire_cell.html#a27714bd4a70a2da01d469668d46ef827" target="_top" xlink:title="Cell.FireCell.updateStateandMove">
<polygon fill="white" stroke="black" points="164.5,-164.5 164.5,-183.5 341.5,-183.5 341.5,-164.5 164.5,-164.5"/>
<text text-anchor="middle" x="253" y="-171.5" font-family="Helvetica,sans-Serif" font-size="10.00">Cell.FireCell.updateStateandMove</text>
</a>
</g>
</g>
<!-- Node1&#45;&gt;Node3 -->
<g id="edge2" class="edge"><title>Node1&#45;&gt;Node3</title>
<path fill="none" stroke="midnightblue" d="M87.7179,-122.39C106.658,-132.47 133.306,-145.59 158,-154 170.161,-158.142 183.511,-161.601 196.234,-164.414"/>
<polygon fill="midnightblue" stroke="midnightblue" points="89.2856,-119.259 78.8248,-117.579 85.9548,-125.415 89.2856,-119.259"/>
</g>
<!-- Node4 -->
<g id="node4" class="node"><title>Node4</title>
<g id="a_node4"><a xlink:href="../../d4/d7a/class_cell_1_1_segregation_cell.html#a77fa4d67f3332475bf4d5207757682cf" target="_top" xlink:title="Cell.SegregationCell.update\lStateandMove">
<polygon fill="white" stroke="black" points="178.5,-115 178.5,-145 327.5,-145 327.5,-115 178.5,-115"/>
<text text-anchor="start" x="186.5" y="-133" font-family="Helvetica,sans-Serif" font-size="10.00">Cell.SegregationCell.update</text>
<text text-anchor="middle" x="253" y="-122" font-family="Helvetica,sans-Serif" font-size="10.00">StateandMove</text>
</a>
</g>
</g>
<!-- Node1&#45;&gt;Node4 -->
<g id="edge3" class="edge"><title>Node1&#45;&gt;Node4</title>
<path fill="none" stroke="midnightblue" d="M132.327,-116.143C147.307,-117.878 163.166,-119.714 178.269,-121.463"/>
<polygon fill="midnightblue" stroke="midnightblue" points="132.453,-112.634 122.117,-114.961 131.648,-119.588 132.453,-112.634"/>
</g>
<!-- Node5 -->
<g id="node5" class="node"><title>Node5</title>
<g id="a_node5"><a xlink:href="../../d4/d3e/class_cell_1_1_sugar_cell.html#a9f02e4354c6e886bda998ff19e6589df" target="_top" xlink:title="Cell.SugarCell.updateStateandMove">
<polygon fill="white" stroke="black" points="158.5,-76.5 158.5,-95.5 347.5,-95.5 347.5,-76.5 158.5,-76.5"/>
<text text-anchor="middle" x="253" y="-83.5" font-family="Helvetica,sans-Serif" font-size="10.00">Cell.SugarCell.updateStateandMove</text>
</a>
</g>
</g>
<!-- Node1&#45;&gt;Node5 -->
<g id="edge4" class="edge"><title>Node1&#45;&gt;Node5</title>
<path fill="none" stroke="midnightblue" d="M132.211,-99.8703C144.415,-98.4572 157.207,-96.9761 169.699,-95.5296"/>
<polygon fill="midnightblue" stroke="midnightblue" points="131.648,-96.412 122.117,-101.039 132.453,-103.366 131.648,-96.412"/>
</g>
<!-- Node6 -->
<g id="node6" class="node"><title>Node6</title>
<g id="a_node6"><a xlink:href="../../df/d99/class_cell_1_1_shark_cell.html#ad392515e1d48584cae2153849ddee8b8" target="_top" xlink:title="Cell.SharkCell.updateStateandMove">
<polygon fill="white" stroke="black" points="159,-38.5 159,-57.5 347,-57.5 347,-38.5 159,-38.5"/>
<text text-anchor="middle" x="253" y="-45.5" font-family="Helvetica,sans-Serif" font-size="10.00">Cell.SharkCell.updateStateandMove</text>
</a>
</g>
</g>
<!-- Node1&#45;&gt;Node6 -->
<g id="edge5" class="edge"><title>Node1&#45;&gt;Node6</title>
<path fill="none" stroke="midnightblue" d="M90.2424,-94.1275C109.069,-85.3355 134.569,-74.2876 158,-67 169.924,-63.2915 182.929,-60.1251 195.359,-57.5016"/>
<polygon fill="midnightblue" stroke="midnightblue" points="88.5867,-91.039 81.0522,-98.4876 91.5873,-97.3634 88.5867,-91.039"/>
</g>
<!-- Node7 -->
<g id="node7" class="node"><title>Node7</title>
<g id="a_node7"><a xlink:href="../../da/db4/class_cell_1_1_fish_cell.html#a99dbc3ff08c9c6f28c41d2f873b9a3c4" target="_top" xlink:title="Cell.FishCell.updateStateandMove">
<polygon fill="white" stroke="black" points="163.5,-0.5 163.5,-19.5 342.5,-19.5 342.5,-0.5 163.5,-0.5"/>
<text text-anchor="middle" x="253" y="-7.5" font-family="Helvetica,sans-Serif" font-size="10.00">Cell.FishCell.updateStateandMove</text>
</a>
</g>
</g>
<!-- Node1&#45;&gt;Node7 -->
<g id="edge6" class="edge"><title>Node1&#45;&gt;Node7</title>
<path fill="none" stroke="midnightblue" d="M77.6511,-90.8713C95.342,-72.6137 125.885,-44.2766 158,-29 166.119,-25.138 174.995,-22.0599 183.948,-19.6068"/>
<polygon fill="midnightblue" stroke="midnightblue" points="74.7957,-88.7969 70.4678,-98.4675 79.8817,-93.6065 74.7957,-88.7969"/>
</g>
</g>
</svg>
