<?xml version="1.0" encoding="UTF-8" standalone="no"?>
<!DOCTYPE svg PUBLIC "-//W3C//DTD SVG 1.1//EN"
 "http://www.w3.org/Graphics/SVG/1.1/DTD/svg11.dtd">
<!-- Generated by graphviz version 2.36.0 (20140111.2315)
 -->
<!-- Title: Cell.Cell.getColor Pages: 1 -->
<!--zoomable 189 -->
<svg id="main" version="1.1" xmlns="http://www.w3.org/2000/svg" xmlns:xlink="http://www.w3.org/1999/xlink" xml:space="preserve" onload="init(evt)">
<style type="text/css"><![CDATA[
.edge:hover path { stroke: red; }
.edge:hover polygon { stroke: red; fill: red; }
]]></style>
<script type="text/javascript"><![CDATA[
var edges = document.getElementsByTagName('g');
if (edges && edges.length) {
  for (var i=0;i<edges.length;i++) {
    if (edges[i].id.substr(0,4)=='edge') {
      edges[i].setAttribute('class','edge');
    }
  }
}
]]></script>
        <defs>
                <circle id="rim" cx="0" cy="0" r="7"/>
                <circle id="rim2" cx="0" cy="0" r="3.5"/>
                <g id="zoomPlus">
                        <use xlink:href="#rim" fill="#404040">
                                <set attributeName="fill" to="#808080" begin="zoomplus.mouseover" end="zoomplus.mouseout"/>
                        </use>
                        <path d="M-4,0h8M0,-4v8" fill="none" stroke="white" stroke-width="1.5" pointer-events="none"/>
                </g>
                <g id="zoomMin">
                        <use xlink:href="#rim" fill="#404040">
                                <set attributeName="fill" to="#808080" begin="zoomminus.mouseover" end="zoomminus.mouseout"/>
                        </use>
                        <path d="M-4,0h8" fill="none" stroke="white" stroke-width="1.5" pointer-events="none"/>
                </g>
                <g id="dirArrow">
                        <path fill="none" stroke="white" stroke-width="1.5" d="M0,-3.0v7 M-2.5,-0.5L0,-3.0L2.5,-0.5"/>
                </g>
               <g id="resetDef">
                       <use xlink:href="#rim2" fill="#404040">
                               <set attributeName="fill" to="#808080" begin="reset.mouseover" end="reset.mouseout"/>
                       </use>
               </g>
        </defs>

<script type="text/javascript">
var viewWidth = 2270;
var viewHeight = 189;
var sectionId = 'dynsection-4';
</script>
<script xlink:href="../../svgpan.js"/>
<svg id="graph" class="graph">
<g id="viewport">
<title>Cell.Cell.getColor</title>
<polygon fill="white" stroke="none" points="-4,4 -4,-185 2266,-185 2266,4 -4,4"/>
<!-- Node1 -->
<g id="node1" class="node"><title>Node1</title>
<polygon fill="#bfbfbf" stroke="black" points="0,-139.5 0,-158.5 98,-158.5 98,-139.5 0,-139.5"/>
<text text-anchor="middle" x="49" y="-146.5" font-family="Helvetica,sans-Serif" font-size="10.00">Cell.Cell.getColor</text>
</g>
<!-- Node2 -->
<g id="node2" class="node"><title>Node2</title>
<g id="a_node2"><a xlink:href="../../d3/d3d/class_patch_1_1_generic_patch.html#aa6e1356d27606ba2a306d95b18549399" target="_top" xlink:title="Patch.GenericPatch.getColor">
<polygon fill="white" stroke="black" points="144,-161.5 144,-180.5 296,-180.5 296,-161.5 144,-161.5"/>
<text text-anchor="middle" x="220" y="-168.5" font-family="Helvetica,sans-Serif" font-size="10.00">Patch.GenericPatch.getColor</text>
</a>
</g>
</g>
<!-- Node1&#45;&gt;Node2 -->
<g id="edge1" class="edge"><title>Node1&#45;&gt;Node2</title>
<path fill="none" stroke="midnightblue" d="M108.395,-156.602C120.511,-158.179 133.422,-159.86 145.987,-161.495"/>
<polygon fill="midnightblue" stroke="midnightblue" points="108.797,-153.125 98.4286,-155.304 107.893,-160.066 108.797,-153.125"/>
</g>
<!-- Node3 -->
<g id="node3" class="node"><title>Node3</title>
<g id="a_node3"><a xlink:href="../../d9/daf/classcellsociety__team02_1_1_grid_view.html#a5ef1c1816231c667f8f68bc466d20495" target="_top" xlink:title="cellsociety_team02.GridView.get\lLocationColor">
<polygon fill="white" stroke="black" points="134.5,-112 134.5,-142 305.5,-142 305.5,-112 134.5,-112"/>
<text text-anchor="start" x="142.5" y="-130" font-family="Helvetica,sans-Serif" font-size="10.00">cellsociety_team02.GridView.get</text>
<text text-anchor="middle" x="220" y="-119" font-family="Helvetica,sans-Serif" font-size="10.00">LocationColor</text>
</a>
</g>
</g>
<!-- Node1&#45;&gt;Node3 -->
<g id="edge2" class="edge"><title>Node1&#45;&gt;Node3</title>
<path fill="none" stroke="midnightblue" d="M108.481,-141.387C116.898,-140.291 125.697,-139.146 134.496,-138.001"/>
<polygon fill="midnightblue" stroke="midnightblue" points="107.893,-137.934 98.4286,-142.696 108.797,-144.875 107.893,-137.934"/>
</g>
<!-- Node4 -->
<g id="node4" class="node"><title>Node4</title>
<g id="a_node4"><a xlink:href="../../d9/daf/classcellsociety__team02_1_1_grid_view.html#ad4fe99d3b1bf9b7ed1cd8d65145f5d90" target="_top" xlink:title="cellsociety_team02.GridView.makeGrid">
<polygon fill="white" stroke="black" points="342,-117.5 342,-136.5 544,-136.5 544,-117.5 342,-117.5"/>
<text text-anchor="middle" x="443" y="-124.5" font-family="Helvetica,sans-Serif" font-size="10.00">cellsociety_team02.GridView.makeGrid</text>
</a>
</g>
</g>
<!-- Node3&#45;&gt;Node4 -->
<g id="edge3" class="edge"><title>Node3&#45;&gt;Node4</title>
<path fill="none" stroke="midnightblue" d="M315.86,-127C324.481,-127 333.232,-127 341.896,-127"/>
<polygon fill="midnightblue" stroke="midnightblue" points="315.812,-123.5 305.812,-127 315.812,-130.5 315.812,-123.5"/>
</g>
<!-- Node5 -->
<g id="node5" class="node"><title>Node5</title>
<g id="a_node5"><a xlink:href="../../d9/daf/classcellsociety__team02_1_1_grid_view.html#aa0cb15c1acd15c18573648b8df447752" target="_top" xlink:title="cellsociety_team02.GridView.load">
<polygon fill="white" stroke="black" points="1446,-136.5 1446,-155.5 1622,-155.5 1622,-136.5 1446,-136.5"/>
<text text-anchor="middle" x="1534" y="-143.5" font-family="Helvetica,sans-Serif" font-size="10.00">cellsociety_team02.GridView.load</text>
</a>
</g>
</g>
<!-- Node4&#45;&gt;Node5 -->
<g id="edge4" class="edge"><title>Node4&#45;&gt;Node5</title>
<path fill="none" stroke="midnightblue" d="M554.398,-134.47C642.504,-139.79 769.109,-146 880,-146 880,-146 880,-146 1096,-146 1217.39,-146 1357.74,-146 1445.94,-146"/>
<polygon fill="midnightblue" stroke="midnightblue" points="554.581,-130.975 544.386,-133.859 554.154,-137.962 554.581,-130.975"/>
</g>
<!-- Node9 -->
<g id="node9" class="node"><title>Node9</title>
<g id="a_node9"><a xlink:href="../../d9/daf/classcellsociety__team02_1_1_grid_view.html#a27a105e1810531f4958f9fc192c3cef1" target="_top" xlink:title="cellsociety_team02.GridView.step">
<polygon fill="white" stroke="black" points="580,-98.5 580,-117.5 756,-117.5 756,-98.5 580,-98.5"/>
<text text-anchor="middle" x="668" y="-105.5" font-family="Helvetica,sans-Serif" font-size="10.00">cellsociety_team02.GridView.step</text>
</a>
</g>
</g>
<!-- Node4&#45;&gt;Node9 -->
<g id="edge9" class="edge"><title>Node4&#45;&gt;Node9</title>
<path fill="none" stroke="midnightblue" d="M554.177,-117.613C562.788,-116.879 571.41,-116.144 579.837,-115.426"/>
<polygon fill="midnightblue" stroke="midnightblue" points="553.751,-114.136 544.085,-118.473 554.346,-121.111 553.751,-114.136"/>
</g>
<!-- Node6 -->
<g id="node6" class="node"><title>Node6</title>
<g id="a_node6"><a xlink:href="../../d9/daf/classcellsociety__team02_1_1_grid_view.html#ada183e314764db770009f944205490df" target="_top" xlink:title="cellsociety_team02.GridView.\lGridView">
<polygon fill="white" stroke="black" points="2106.5,-110 2106.5,-140 2261.5,-140 2261.5,-110 2106.5,-110"/>
<text text-anchor="start" x="2114.5" y="-128" font-family="Helvetica,sans-Serif" font-size="10.00">cellsociety_team02.GridView.</text>
<text text-anchor="middle" x="2184" y="-117" font-family="Helvetica,sans-Serif" font-size="10.00">GridView</text>
</a>
</g>
</g>
<!-- Node5&#45;&gt;Node6 -->
<g id="edge5" class="edge"><title>Node5&#45;&gt;Node6</title>
<path fill="none" stroke="midnightblue" d="M1632.37,-142.845C1761.94,-138.645 1988.4,-131.307 2106.47,-127.48"/>
<polygon fill="midnightblue" stroke="midnightblue" points="1631.94,-139.357 1622.06,-143.179 1632.16,-146.353 1631.94,-139.357"/>
</g>
<!-- Node7 -->
<g id="node7" class="node"><title>Node7</title>
<g id="a_node7"><a xlink:href="../../d9/daf/classcellsociety__team02_1_1_grid_view.html#afcc7b83f62c116e77ab0843bfd4156b8" target="_top" xlink:title="cellsociety_team02.GridView.make\lButtons">
<polygon fill="white" stroke="black" points="1658,-87 1658,-117 1840,-117 1840,-87 1658,-87"/>
<text text-anchor="start" x="1666" y="-105" font-family="Helvetica,sans-Serif" font-size="10.00">cellsociety_team02.GridView.make</text>
<text text-anchor="middle" x="1749" y="-94" font-family="Helvetica,sans-Serif" font-size="10.00">Buttons</text>
</a>
</g>
</g>
<!-- Node5&#45;&gt;Node7 -->
<g id="edge6" class="edge"><title>Node5&#45;&gt;Node7</title>
<path fill="none" stroke="midnightblue" d="M1591.16,-134.399C1616.85,-129.092 1647.62,-122.736 1675.07,-117.065"/>
<polygon fill="midnightblue" stroke="midnightblue" points="1590.3,-131.002 1581.22,-136.453 1591.72,-137.857 1590.3,-131.002"/>
</g>
<!-- Node8 -->
<g id="node8" class="node"><title>Node8</title>
<g id="a_node8"><a xlink:href="../../d9/daf/classcellsociety__team02_1_1_grid_view.html#a4571898657e750f62c2df84cb398e135" target="_top" xlink:title="cellsociety_team02.GridView.initialize">
<polygon fill="white" stroke="black" points="1876,-95.5 1876,-114.5 2070,-114.5 2070,-95.5 1876,-95.5"/>
<text text-anchor="middle" x="1973" y="-102.5" font-family="Helvetica,sans-Serif" font-size="10.00">cellsociety_team02.GridView.initialize</text>
</a>
</g>
</g>
<!-- Node7&#45;&gt;Node8 -->
<g id="edge7" class="edge"><title>Node7&#45;&gt;Node8</title>
<path fill="none" stroke="midnightblue" d="M1850.56,-103.359C1859.03,-103.473 1867.57,-103.589 1876,-103.703"/>
<polygon fill="midnightblue" stroke="midnightblue" points="1850.34,-99.8558 1840.3,-103.22 1850.25,-106.855 1850.34,-99.8558"/>
</g>
<!-- Node8&#45;&gt;Node6 -->
<g id="edge8" class="edge"><title>Node8&#45;&gt;Node6</title>
<path fill="none" stroke="midnightblue" d="M2080.48,-115.189C2089.2,-116.024 2097.91,-116.857 2106.35,-117.665"/>
<polygon fill="midnightblue" stroke="midnightblue" points="2080.53,-111.678 2070.24,-114.21 2079.86,-118.646 2080.53,-111.678"/>
</g>
<!-- Node9&#45;&gt;Node7 -->
<g id="edge10" class="edge"><title>Node9&#45;&gt;Node7</title>
<path fill="none" stroke="midnightblue" d="M766.119,-108C852.261,-108 981.505,-108 1094,-108 1094,-108 1094,-108 1316,-108 1434.14,-108 1570.43,-105.729 1657.82,-103.981"/>
<polygon fill="midnightblue" stroke="midnightblue" points="766.094,-104.5 756.094,-108 766.094,-111.5 766.094,-104.5"/>
</g>
<!-- Node10 -->
<g id="node10" class="node"><title>Node10</title>
<g id="a_node10"><a xlink:href="../../d9/daf/classcellsociety__team02_1_1_grid_view.html#aa1d09688b48a4a95513e15eea18ec0e6" target="_top" xlink:title="cellsociety_team02.GridView.start\lHandler">
<polygon fill="white" stroke="black" points="792,-49 792,-79 970,-79 970,-49 792,-49"/>
<text text-anchor="start" x="800" y="-67" font-family="Helvetica,sans-Serif" font-size="10.00">cellsociety_team02.GridView.start</text>
<text text-anchor="middle" x="881" y="-56" font-family="Helvetica,sans-Serif" font-size="10.00">Handler</text>
</a>
</g>
</g>
<!-- Node9&#45;&gt;Node10 -->
<g id="edge11" class="edge"><title>Node9&#45;&gt;Node10</title>
<path fill="none" stroke="midnightblue" d="M724.633,-96.3987C750.083,-91.0917 780.561,-84.7362 807.755,-79.0654"/>
<polygon fill="midnightblue" stroke="midnightblue" points="723.859,-92.9849 714.784,-98.4527 725.288,-99.8375 723.859,-92.9849"/>
</g>
<!-- Node11 -->
<g id="node11" class="node"><title>Node11</title>
<g id="a_node11"><a xlink:href="../../d9/daf/classcellsociety__team02_1_1_grid_view.html#a27ed5fc9bbf44efab6d23cb07096c36a" target="_top" xlink:title="cellsociety_team02.GridView.start\lAnimation">
<polygon fill="white" stroke="black" points="1006,-49 1006,-79 1184,-79 1184,-49 1006,-49"/>
<text text-anchor="start" x="1014" y="-67" font-family="Helvetica,sans-Serif" font-size="10.00">cellsociety_team02.GridView.start</text>
<text text-anchor="middle" x="1095" y="-56" font-family="Helvetica,sans-Serif" font-size="10.00">Animation</text>
</a>
</g>
</g>
<!-- Node10&#45;&gt;Node11 -->
<g id="edge12" class="edge"><title>Node10&#45;&gt;Node11</title>
<path fill="none" stroke="midnightblue" d="M980.107,-64C988.7,-64 997.363,-64 1005.87,-64"/>
<polygon fill="midnightblue" stroke="midnightblue" points="980.065,-60.5001 970.065,-64 980.065,-67.5001 980.065,-60.5001"/>
</g>
<!-- Node12 -->
<g id="node12" class="node"><title>Node12</title>
<g id="a_node12"><a xlink:href="../../d9/daf/classcellsociety__team02_1_1_grid_view.html#a7b94250b9b4e419eb3b97394e3b86052" target="_top" xlink:title="cellsociety_team02.GridView.play\lPause">
<polygon fill="white" stroke="black" points="1227.5,-49 1227.5,-79 1402.5,-79 1402.5,-49 1227.5,-49"/>
<text text-anchor="start" x="1235.5" y="-67" font-family="Helvetica,sans-Serif" font-size="10.00">cellsociety_team02.GridView.play</text>
<text text-anchor="middle" x="1315" y="-56" font-family="Helvetica,sans-Serif" font-size="10.00">Pause</text>
</a>
</g>
</g>
<!-- Node11&#45;&gt;Node12 -->
<g id="edge13" class="edge"><title>Node11&#45;&gt;Node12</title>
<path fill="none" stroke="midnightblue" d="M1194.16,-64C1205.25,-64 1216.48,-64 1227.4,-64"/>
<polygon fill="midnightblue" stroke="midnightblue" points="1194.04,-60.5001 1184.04,-64 1194.04,-67.5001 1194.04,-60.5001"/>
</g>
<!-- Node13 -->
<g id="node13" class="node"><title>Node13</title>
<g id="a_node13"><a xlink:href="../../d9/daf/classcellsociety__team02_1_1_grid_view.html#a21d8f68b9be54d2f23f17af421c78b12" target="_top" xlink:title="cellsociety_team02.GridView.update\lSpeed">
<polygon fill="white" stroke="black" points="1220.5,-0 1220.5,-30 1409.5,-30 1409.5,-0 1220.5,-0"/>
<text text-anchor="start" x="1228.5" y="-18" font-family="Helvetica,sans-Serif" font-size="10.00">cellsociety_team02.GridView.update</text>
<text text-anchor="middle" x="1315" y="-7" font-family="Helvetica,sans-Serif" font-size="10.00">Speed</text>
</a>
</g>
</g>
<!-- Node11&#45;&gt;Node13 -->
<g id="edge15" class="edge"><title>Node11&#45;&gt;Node13</title>
<path fill="none" stroke="midnightblue" d="M1172.78,-46.7419C1197.07,-41.282 1223.71,-35.295 1247.24,-30.0062"/>
<polygon fill="midnightblue" stroke="midnightblue" points="1171.88,-43.3575 1162.89,-48.9654 1173.41,-50.1871 1171.88,-43.3575"/>
</g>
<!-- Node12&#45;&gt;Node7 -->
<g id="edge14" class="edge"><title>Node12&#45;&gt;Node7</title>
<path fill="none" stroke="midnightblue" d="M1412.81,-72.5153C1486.13,-78.965 1586.13,-87.7612 1657.78,-94.0642"/>
<polygon fill="midnightblue" stroke="midnightblue" points="1412.91,-69.0111 1402.64,-71.6213 1412.3,-75.9842 1412.91,-69.0111"/>
</g>
<!-- Node14 -->
<g id="node14" class="node"><title>Node14</title>
<g id="a_node14"><a xlink:href="../../d9/daf/classcellsociety__team02_1_1_grid_view.html#a08ac9f0ccad1d9db92c9d92a127d77bc" target="_top" xlink:title="cellsociety_team02.GridView.set\lUpSpeedSlider">
<polygon fill="white" stroke="black" points="1449,-3 1449,-33 1619,-33 1619,-3 1449,-3"/>
<text text-anchor="start" x="1457" y="-21" font-family="Helvetica,sans-Serif" font-size="10.00">cellsociety_team02.GridView.set</text>
<text text-anchor="middle" x="1534" y="-10" font-family="Helvetica,sans-Serif" font-size="10.00">UpSpeedSlider</text>
</a>
</g>
</g>
<!-- Node13&#45;&gt;Node14 -->
<g id="edge16" class="edge"><title>Node13&#45;&gt;Node14</title>
<path fill="none" stroke="midnightblue" d="M1419.76,-16.4345C1429.54,-16.5697 1439.37,-16.7056 1448.94,-16.8378"/>
<polygon fill="midnightblue" stroke="midnightblue" points="1419.65,-12.9327 1409.6,-16.294 1419.55,-19.932 1419.65,-12.9327"/>
</g>
<!-- Node14&#45;&gt;Node7 -->
<g id="edge17" class="edge"><title>Node14&#45;&gt;Node7</title>
<path fill="none" stroke="midnightblue" d="M1582.5,-36.7327C1620.9,-51.8761 1674.25,-72.9157 1709.89,-86.9711"/>
<polygon fill="midnightblue" stroke="midnightblue" points="1583.67,-33.4303 1573.08,-33.0175 1581.1,-39.9422 1583.67,-33.4303"/>
</g>
</g>
</svg>
        <g id="navigator" transform="translate(0 0)" fill="#404254">
                <rect fill="#f2f5e9" fill-opacity="0.5" stroke="#606060" stroke-width=".5" x="0" y="0" width="60" height="60"/>
                <use id="zoomplus" xlink:href="#zoomPlus" x="17" y="9" onmousedown="handleZoom(evt,'in')"/>
                <use id="zoomminus" xlink:href="#zoomMin" x="42" y="9" onmousedown="handleZoom(evt,'out')"/>
                <use id="reset" xlink:href="#resetDef" x="30" y="36" onmousedown="handleReset()"/>
                <g id="arrowUp" xlink:href="#dirArrow" transform="translate(30 24)" onmousedown="handlePan(0,-1)">
                  <use xlink:href="#rim" fill="#404040">
                        <set attributeName="fill" to="#808080" begin="arrowUp.mouseover" end="arrowUp.mouseout"/>
                  </use>
                  <path fill="none" stroke="white" stroke-width="1.5" d="M0,-3.0v7 M-2.5,-0.5L0,-3.0L2.5,-0.5"/>
                </g>
                <g id="arrowRight" xlink:href="#dirArrow" transform="rotate(90) translate(36 -43)" onmousedown="handlePan(1,0)">
                  <use xlink:href="#rim" fill="#404040">
                        <set attributeName="fill" to="#808080" begin="arrowRight.mouseover" end="arrowRight.mouseout"/>
                  </use>
                  <path fill="none" stroke="white" stroke-width="1.5" d="M0,-3.0v7 M-2.5,-0.5L0,-3.0L2.5,-0.5"/>
                </g>
                <g id="arrowDown" xlink:href="#dirArrow" transform="rotate(180) translate(-30 -48)" onmousedown="handlePan(0,1)">
                  <use xlink:href="#rim" fill="#404040">
                        <set attributeName="fill" to="#808080" begin="arrowDown.mouseover" end="arrowDown.mouseout"/>
                  </use>
                  <path fill="none" stroke="white" stroke-width="1.5" d="M0,-3.0v7 M-2.5,-0.5L0,-3.0L2.5,-0.5"/>
                </g>
                <g id="arrowLeft" xlink:href="#dirArrow" transform="rotate(270) translate(-36 17)" onmousedown="handlePan(-1,0)">
                  <use xlink:href="#rim" fill="#404040">
                        <set attributeName="fill" to="#808080" begin="arrowLeft.mouseover" end="arrowLeft.mouseout"/>
                  </use>
                  <path fill="none" stroke="white" stroke-width="1.5" d="M0,-3.0v7 M-2.5,-0.5L0,-3.0L2.5,-0.5"/>
                </g>
        </g>
        <svg viewBox="0 0 15 15" width="100%" height="30px" preserveAspectRatio="xMaxYMin meet">
         <g id="arrow_out" transform="scale(0.3 0.3)">
          <a xlink:href="class_cell_1_1_cell_adfe2be1b83b37c210944b70eabb3b485_icgraph_org.svg" target="_base">
           <rect id="button" ry="5" rx="5" y="6" x="6" height="38" width="38"
                fill="#f2f5e9" fill-opacity="0.5" stroke="#606060" stroke-width="1.0"/>
           <path id="arrow"
             d="M 11.500037,31.436501 C 11.940474,20.09759 22.043105,11.32322 32.158766,21.979434 L 37.068811,17.246167 C 37.068811,17.246167 37.088388,32 37.088388,32 L 22.160133,31.978069 C 22.160133,31.978069 26.997745,27.140456 26.997745,27.140456 C 18.528582,18.264221 13.291696,25.230495 11.500037,31.436501 z"
             style="fill:#404040;"/>
          </a>
         </g>
        </svg>
</svg>
