<?xml version="1.0" encoding="UTF-8" standalone="no"?>
<!DOCTYPE svg PUBLIC "-//W3C//DTD SVG 1.1//EN"
 "http://www.w3.org/Graphics/SVG/1.1/DTD/svg11.dtd">
<!-- Generated by graphviz version 2.36.0 (20140111.2315)
 -->
<!-- Title: Cell.Cell.Cell Pages: 1 -->
<svg width="248pt" height="142pt"
 viewBox="0.00 0.00 248.00 142.00" xmlns="http://www.w3.org/2000/svg" xmlns:xlink="http://www.w3.org/1999/xlink">
<g id="graph0" class="graph" transform="scale(1 1) rotate(0) translate(4 138)">
<title>Cell.Cell.Cell</title>
<polygon fill="white" stroke="none" points="-4,4 -4,-138 244,-138 244,4 -4,4"/>
<!-- Node1 -->
<g id="node1" class="node"><title>Node1</title>
<polygon fill="#bfbfbf" stroke="black" points="0,-57.5 0,-76.5 74,-76.5 74,-57.5 0,-57.5"/>
<text text-anchor="middle" x="37" y="-64.5" font-family="Helvetica,sans-Serif" font-size="10.00">Cell.Cell.Cell</text>
</g>
<!-- Node2 -->
<g id="node2" class="node"><title>Node2</title>
<g id="a_node2"><a xlink:href="../../d5/d5c/class_cell_1_1_cell.html#abd986290e650c039351a78d668073791" target="_top" xlink:title="Cell.Cell.getFutureState">
<polygon fill="white" stroke="black" points="110.5,-114.5 110.5,-133.5 239.5,-133.5 239.5,-114.5 110.5,-114.5"/>
<text text-anchor="middle" x="175" y="-121.5" font-family="Helvetica,sans-Serif" font-size="10.00">Cell.Cell.getFutureState</text>
</a>
</g>
</g>
<!-- Node1&#45;&gt;Node2 -->
<g id="edge1" class="edge"><title>Node1&#45;&gt;Node2</title>
<path fill="none" stroke="midnightblue" d="M53.8622,-76.5397C68.1682,-84.8574 89.9749,-96.8363 110,-105 115.569,-107.27 121.51,-109.401 127.444,-111.355"/>
<polygon fill="midnightblue" stroke="midnightblue" points="126.765,-114.811 137.355,-114.471 128.865,-108.133 126.765,-114.811"/>
</g>
<!-- Node3 -->
<g id="node3" class="node"><title>Node3</title>
<g id="a_node3"><a xlink:href="../../d5/d5c/class_cell_1_1_cell.html#a753d58af1a912e9b52ac9d16ee4bf18c" target="_top" xlink:title="Cell.Cell.getFutureX">
<polygon fill="white" stroke="black" points="120.5,-76.5 120.5,-95.5 229.5,-95.5 229.5,-76.5 120.5,-76.5"/>
<text text-anchor="middle" x="175" y="-83.5" font-family="Helvetica,sans-Serif" font-size="10.00">Cell.Cell.getFutureX</text>
</a>
</g>
</g>
<!-- Node1&#45;&gt;Node3 -->
<g id="edge2" class="edge"><title>Node1&#45;&gt;Node3</title>
<path fill="none" stroke="midnightblue" d="M74.0884,-72.0418C85.2653,-73.6032 97.9296,-75.3725 110.396,-77.1142"/>
<polygon fill="midnightblue" stroke="midnightblue" points="109.931,-80.5831 120.319,-78.5005 110.9,-73.6505 109.931,-80.5831"/>
</g>
<!-- Node4 -->
<g id="node4" class="node"><title>Node4</title>
<g id="a_node4"><a xlink:href="../../d5/d5c/class_cell_1_1_cell.html#ab69087ad00b63fe606c68db275369b04" target="_top" xlink:title="Cell.Cell.getFutureY">
<polygon fill="white" stroke="black" points="121,-38.5 121,-57.5 229,-57.5 229,-38.5 121,-38.5"/>
<text text-anchor="middle" x="175" y="-45.5" font-family="Helvetica,sans-Serif" font-size="10.00">Cell.Cell.getFutureY</text>
</a>
</g>
</g>
<!-- Node1&#45;&gt;Node4 -->
<g id="edge3" class="edge"><title>Node1&#45;&gt;Node4</title>
<path fill="none" stroke="midnightblue" d="M74.0884,-61.9582C85.3895,-60.3794 98.2112,-58.5881 110.812,-56.8278"/>
<polygon fill="midnightblue" stroke="midnightblue" points="111.417,-60.2774 120.836,-55.4273 110.448,-53.3447 111.417,-60.2774"/>
</g>
<!-- Node5 -->
<g id="node5" class="node"><title>Node5</title>
<g id="a_node5"><a xlink:href="../../d5/d5c/class_cell_1_1_cell.html#aaf89091fe481b7d5aa62d010e66fcfdd" target="_top" xlink:title="Cell.Cell.getParameters">
<polygon fill="white" stroke="black" points="111,-0.5 111,-19.5 239,-19.5 239,-0.5 111,-0.5"/>
<text text-anchor="middle" x="175" y="-7.5" font-family="Helvetica,sans-Serif" font-size="10.00">Cell.Cell.getParameters</text>
</a>
</g>
</g>
<!-- Node1&#45;&gt;Node5 -->
<g id="edge4" class="edge"><title>Node1&#45;&gt;Node5</title>
<path fill="none" stroke="midnightblue" d="M53.8622,-57.4603C68.1682,-49.1426 89.9749,-37.1637 110,-29 115.569,-26.7295 121.51,-24.5989 127.444,-22.6446"/>
<polygon fill="midnightblue" stroke="midnightblue" points="128.865,-25.8668 137.355,-19.5287 126.765,-19.1891 128.865,-25.8668"/>
</g>
</g>
</svg>
