<?xml version="1.0" encoding="UTF-8" standalone="no"?>
<!DOCTYPE svg PUBLIC "-//W3C//DTD SVG 1.1//EN"
 "http://www.w3.org/Graphics/SVG/1.1/DTD/svg11.dtd">
<!-- Generated by graphviz version 2.36.0 (20140111.2315)
 -->
<!-- Title: Cell.Cell.updateStateandMove Pages: 1 -->
<svg width="370pt" height="115pt"
 viewBox="0.00 0.00 370.00 115.00" xmlns="http://www.w3.org/2000/svg" xmlns:xlink="http://www.w3.org/1999/xlink">
<g id="graph0" class="graph" transform="scale(1 1) rotate(0) translate(4 111)">
<title>Cell.Cell.updateStateandMove</title>
<polygon fill="white" stroke="none" points="-4,4 -4,-111 366,-111 366,4 -4,4"/>
<!-- Node1 -->
<g id="node1" class="node"><title>Node1</title>
<polygon fill="#bfbfbf" stroke="black" points="0.5,-38.5 0.5,-57.5 161.5,-57.5 161.5,-38.5 0.5,-38.5"/>
<text text-anchor="middle" x="81" y="-45.5" font-family="Helvetica,sans-Serif" font-size="10.00">Cell.Cell.updateStateandMove</text>
</g>
<!-- Node2 -->
<g id="node2" class="node"><title>Node2</title>
<g id="a_node2"><a xlink:href="../../d3/d3d/class_patch_1_1_generic_patch.html#afa6da13244f0669234df3e8b9bbb8f26" target="_top" xlink:title="Patch.GenericPatch.update\lState">
<polygon fill="white" stroke="black" points="207,-77 207,-107 353,-107 353,-77 207,-77"/>
<text text-anchor="start" x="215" y="-95" font-family="Helvetica,sans-Serif" font-size="10.00">Patch.GenericPatch.update</text>
<text text-anchor="middle" x="280" y="-84" font-family="Helvetica,sans-Serif" font-size="10.00">State</text>
</a>
</g>
</g>
<!-- Node1&#45;&gt;Node2 -->
<g id="edge1" class="edge"><title>Node1&#45;&gt;Node2</title>
<path fill="none" stroke="midnightblue" d="M134.574,-59.7424C158.206,-65.0207 186.383,-71.314 211.548,-76.9346"/>
<polygon fill="midnightblue" stroke="midnightblue" points="135.269,-56.3114 124.746,-57.5473 133.743,-63.1431 135.269,-56.3114"/>
</g>
<!-- Node3 -->
<g id="node3" class="node"><title>Node3</title>
<g id="a_node3"><a xlink:href="../../d4/d2a/class_patch_1_1_fire_patch.html#aa52670f1eaf13f05f15b0b0c2cf8c491" target="_top" xlink:title="Patch.FirePatch.updateState">
<polygon fill="white" stroke="black" points="204,-38.5 204,-57.5 356,-57.5 356,-38.5 204,-38.5"/>
<text text-anchor="middle" x="280" y="-45.5" font-family="Helvetica,sans-Serif" font-size="10.00">Patch.FirePatch.updateState</text>
</a>
</g>
</g>
<!-- Node1&#45;&gt;Node3 -->
<g id="edge2" class="edge"><title>Node1&#45;&gt;Node3</title>
<path fill="none" stroke="midnightblue" d="M171.8,-48C182.543,-48 193.424,-48 203.929,-48"/>
<polygon fill="midnightblue" stroke="midnightblue" points="171.56,-44.5001 161.56,-48 171.56,-51.5001 171.56,-44.5001"/>
</g>
<!-- Node4 -->
<g id="node4" class="node"><title>Node4</title>
<g id="a_node4"><a xlink:href="../../d0/d3d/class_patch_1_1_sugar_patch.html#abfbb5bd8116d080f585553c08f80473f" target="_top" xlink:title="Patch.SugarPatch.updateState">
<polygon fill="white" stroke="black" points="198,-0.5 198,-19.5 362,-19.5 362,-0.5 198,-0.5"/>
<text text-anchor="middle" x="280" y="-7.5" font-family="Helvetica,sans-Serif" font-size="10.00">Patch.SugarPatch.updateState</text>
</a>
</g>
</g>
<!-- Node1&#45;&gt;Node4 -->
<g id="edge3" class="edge"><title>Node1&#45;&gt;Node4</title>
<path fill="none" stroke="midnightblue" d="M141.564,-36.5106C169.672,-31.0886 202.822,-24.6942 229.523,-19.5439"/>
<polygon fill="midnightblue" stroke="midnightblue" points="140.613,-33.1293 131.457,-38.46 141.939,-40.0026 140.613,-33.1293"/>
</g>
</g>
</svg>
