<?xml version="1.0" encoding="UTF-8" standalone="no"?>
<!DOCTYPE svg PUBLIC "-//W3C//DTD SVG 1.1//EN"
 "http://www.w3.org/Graphics/SVG/1.1/DTD/svg11.dtd">
<!-- Generated by graphviz version 2.36.0 (20140111.2315)
 -->
<!-- Title: Cell.Cell.errorCheck Pages: 1 -->
<svg width="308pt" height="180pt"
 viewBox="0.00 0.00 308.00 180.00" xmlns="http://www.w3.org/2000/svg" xmlns:xlink="http://www.w3.org/1999/xlink">
<g id="graph0" class="graph" transform="scale(1 1) rotate(0) translate(4 176)">
<title>Cell.Cell.errorCheck</title>
<polygon fill="white" stroke="none" points="-4,4 -4,-176 304,-176 304,4 -4,4"/>
<!-- Node1 -->
<g id="node1" class="node"><title>Node1</title>
<polygon fill="#bfbfbf" stroke="black" points="0,-76.5 0,-95.5 110,-95.5 110,-76.5 0,-76.5"/>
<text text-anchor="middle" x="55" y="-83.5" font-family="Helvetica,sans-Serif" font-size="10.00">Cell.Cell.errorCheck</text>
</g>
<!-- Node2 -->
<g id="node2" class="node"><title>Node2</title>
<g id="a_node2"><a xlink:href="../../d5/de8/class_cell_1_1_fire_cell.html#aa40cf878b6335e51b9092dd5566f1828" target="_top" xlink:title="Cell.FireCell.initialize">
<polygon fill="white" stroke="black" points="167,-152.5 167,-171.5 279,-171.5 279,-152.5 167,-152.5"/>
<text text-anchor="middle" x="223" y="-159.5" font-family="Helvetica,sans-Serif" font-size="10.00">Cell.FireCell.initialize</text>
</a>
</g>
</g>
<!-- Node1&#45;&gt;Node2 -->
<g id="edge1" class="edge"><title>Node1&#45;&gt;Node2</title>
<path fill="none" stroke="midnightblue" d="M76.7411,-101.856C94.3283,-114.613 120.665,-132.146 146,-143 154.751,-146.749 164.399,-149.869 173.798,-152.422"/>
<polygon fill="midnightblue" stroke="midnightblue" points="78.5142,-98.8136 68.3934,-95.68 74.3511,-104.441 78.5142,-98.8136"/>
</g>
<!-- Node3 -->
<g id="node3" class="node"><title>Node3</title>
<g id="a_node3"><a xlink:href="../../d4/d7a/class_cell_1_1_segregation_cell.html#a60c52b07f348a79520814003724d2189" target="_top" xlink:title="Cell.SegregationCell.initialize">
<polygon fill="white" stroke="black" points="146,-114.5 146,-133.5 300,-133.5 300,-114.5 146,-114.5"/>
<text text-anchor="middle" x="223" y="-121.5" font-family="Helvetica,sans-Serif" font-size="10.00">Cell.SegregationCell.initialize</text>
</a>
</g>
</g>
<!-- Node1&#45;&gt;Node3 -->
<g id="edge2" class="edge"><title>Node1&#45;&gt;Node3</title>
<path fill="none" stroke="midnightblue" d="M107.653,-97.8243C131.056,-103.182 158.357,-109.431 180.412,-114.48"/>
<polygon fill="midnightblue" stroke="midnightblue" points="108.418,-94.4088 97.8888,-95.589 106.856,-101.232 108.418,-94.4088"/>
</g>
<!-- Node4 -->
<g id="node4" class="node"><title>Node4</title>
<g id="a_node4"><a xlink:href="../../df/d99/class_cell_1_1_shark_cell.html#a58d2fb8128659557e49c9f0e67673d5d" target="_top" xlink:title="Cell.SharkCell.initialize">
<polygon fill="white" stroke="black" points="161.5,-76.5 161.5,-95.5 284.5,-95.5 284.5,-76.5 161.5,-76.5"/>
<text text-anchor="middle" x="223" y="-83.5" font-family="Helvetica,sans-Serif" font-size="10.00">Cell.SharkCell.initialize</text>
</a>
</g>
</g>
<!-- Node1&#45;&gt;Node4 -->
<g id="edge3" class="edge"><title>Node1&#45;&gt;Node4</title>
<path fill="none" stroke="midnightblue" d="M120.507,-86C133.991,-86 148.161,-86 161.494,-86"/>
<polygon fill="midnightblue" stroke="midnightblue" points="120.355,-82.5001 110.355,-86 120.355,-89.5001 120.355,-82.5001"/>
</g>
<!-- Node5 -->
<g id="node5" class="node"><title>Node5</title>
<g id="a_node5"><a xlink:href="../../da/db4/class_cell_1_1_fish_cell.html#ab99cd1b63609c78bb53c3a400db56a8d" target="_top" xlink:title="Cell.FishCell.initialize">
<polygon fill="white" stroke="black" points="166.5,-38.5 166.5,-57.5 279.5,-57.5 279.5,-38.5 166.5,-38.5"/>
<text text-anchor="middle" x="223" y="-45.5" font-family="Helvetica,sans-Serif" font-size="10.00">Cell.FishCell.initialize</text>
</a>
</g>
</g>
<!-- Node1&#45;&gt;Node5 -->
<g id="edge4" class="edge"><title>Node1&#45;&gt;Node5</title>
<path fill="none" stroke="midnightblue" d="M107.653,-74.1757C131.056,-68.8184 158.357,-62.5689 180.412,-57.5201"/>
<polygon fill="midnightblue" stroke="midnightblue" points="106.856,-70.7677 97.8888,-76.411 108.418,-77.5912 106.856,-70.7677"/>
</g>
<!-- Node6 -->
<g id="node6" class="node"><title>Node6</title>
<g id="a_node6"><a xlink:href="../../d4/d3e/class_cell_1_1_sugar_cell.html#a7a570f19d9f92eecff41ddea0f9b26f9" target="_top" xlink:title="Cell.SugarCell.initialize">
<polygon fill="white" stroke="black" points="161,-0.5 161,-19.5 285,-19.5 285,-0.5 161,-0.5"/>
<text text-anchor="middle" x="223" y="-7.5" font-family="Helvetica,sans-Serif" font-size="10.00">Cell.SugarCell.initialize</text>
</a>
</g>
</g>
<!-- Node1&#45;&gt;Node6 -->
<g id="edge5" class="edge"><title>Node1&#45;&gt;Node6</title>
<path fill="none" stroke="midnightblue" d="M76.7411,-70.1445C94.3283,-57.3869 120.665,-39.8542 146,-29 154.751,-25.2508 164.399,-22.1313 173.798,-19.5775"/>
<polygon fill="midnightblue" stroke="midnightblue" points="74.3511,-67.5589 68.3934,-76.32 78.5142,-73.1864 74.3511,-67.5589"/>
</g>
</g>
</svg>
