<?xml version="1.0" encoding="UTF-8" standalone="no"?>
<!DOCTYPE svg PUBLIC "-//W3C//DTD SVG 1.1//EN"
 "http://www.w3.org/Graphics/SVG/1.1/DTD/svg11.dtd">
<!-- Generated by graphviz version 2.36.0 (20140111.2315)
 -->
<!-- Title: Cell.Cell.getCurrentState Pages: 1 -->
<!--zoomable 239 -->
<svg id="main" version="1.1" xmlns="http://www.w3.org/2000/svg" xmlns:xlink="http://www.w3.org/1999/xlink" xml:space="preserve" onload="init(evt)">
<style type="text/css"><![CDATA[
.edge:hover path { stroke: red; }
.edge:hover polygon { stroke: red; fill: red; }
]]></style>
<script type="text/javascript"><![CDATA[
var edges = document.getElementsByTagName('g');
if (edges && edges.length) {
  for (var i=0;i<edges.length;i++) {
    if (edges[i].id.substr(0,4)=='edge') {
      edges[i].setAttribute('class','edge');
    }
  }
}
]]></script>
        <defs>
                <circle id="rim" cx="0" cy="0" r="7"/>
                <circle id="rim2" cx="0" cy="0" r="3.5"/>
                <g id="zoomPlus">
                        <use xlink:href="#rim" fill="#404040">
                                <set attributeName="fill" to="#808080" begin="zoomplus.mouseover" end="zoomplus.mouseout"/>
                        </use>
                        <path d="M-4,0h8M0,-4v8" fill="none" stroke="white" stroke-width="1.5" pointer-events="none"/>
                </g>
                <g id="zoomMin">
                        <use xlink:href="#rim" fill="#404040">
                                <set attributeName="fill" to="#808080" begin="zoomminus.mouseover" end="zoomminus.mouseout"/>
                        </use>
                        <path d="M-4,0h8" fill="none" stroke="white" stroke-width="1.5" pointer-events="none"/>
                </g>
                <g id="dirArrow">
                        <path fill="none" stroke="white" stroke-width="1.5" d="M0,-3.0v7 M-2.5,-0.5L0,-3.0L2.5,-0.5"/>
                </g>
               <g id="resetDef">
                       <use xlink:href="#rim2" fill="#404040">
                               <set attributeName="fill" to="#808080" begin="reset.mouseover" end="reset.mouseout"/>
                       </use>
               </g>
        </defs>

<script type="text/javascript">
var viewWidth = 2554;
var viewHeight = 239;
var sectionId = 'dynsection-5';
</script>
<script xlink:href="../../svgpan.js"/>
<svg id="graph" class="graph">
<g id="viewport">
<title>Cell.Cell.getCurrentState</title>
<polygon fill="white" stroke="none" points="-4,4 -4,-235 2550,-235 2550,4 -4,4"/>
<!-- Node1 -->
<g id="node1" class="node"><title>Node1</title>
<polygon fill="#bfbfbf" stroke="black" points="0.5,-140.5 0.5,-159.5 135.5,-159.5 135.5,-140.5 0.5,-140.5"/>
<text text-anchor="middle" x="68" y="-147.5" font-family="Helvetica,sans-Serif" font-size="10.00">Cell.Cell.getCurrentState</text>
</g>
<!-- Node2 -->
<g id="node2" class="node"><title>Node2</title>
<g id="a_node2"><a xlink:href="../../df/d71/classcellsociety__team02_1_1_grid_model.html#a72e35e48408df9bf1242c357b6b1d873" target="_top" xlink:title="cellsociety_team02.GridModel.change\lState">
<polygon fill="white" stroke="black" points="172,-201 172,-231 370,-231 370,-201 172,-201"/>
<text text-anchor="start" x="180" y="-219" font-family="Helvetica,sans-Serif" font-size="10.00">cellsociety_team02.GridModel.change</text>
<text text-anchor="middle" x="271" y="-208" font-family="Helvetica,sans-Serif" font-size="10.00">State</text>
</a>
</g>
</g>
<!-- Node1&#45;&gt;Node2 -->
<g id="edge1" class="edge"><title>Node1&#45;&gt;Node2</title>
<path fill="none" stroke="midnightblue" d="M100.142,-163.615C120.377,-172.157 147.462,-183.023 172,-191 182.938,-194.556 194.694,-197.928 206.133,-200.979"/>
<polygon fill="midnightblue" stroke="midnightblue" points="101.372,-160.335 90.8002,-159.632 98.6259,-166.774 101.372,-160.335"/>
</g>
<!-- Node3 -->
<g id="node3" class="node"><title>Node3</title>
<g id="a_node3"><a xlink:href="../../d4/d7a/class_cell_1_1_segregation_cell.html#a3b3a8464c961fb23c378c280aebcc49c" target="_top" xlink:title="Cell.SegregationCell.move">
<polygon fill="white" stroke="black" points="199.5,-162.5 199.5,-181.5 342.5,-181.5 342.5,-162.5 199.5,-162.5"/>
<text text-anchor="middle" x="271" y="-169.5" font-family="Helvetica,sans-Serif" font-size="10.00">Cell.SegregationCell.move</text>
</a>
</g>
</g>
<!-- Node1&#45;&gt;Node3 -->
<g id="edge2" class="edge"><title>Node1&#45;&gt;Node3</title>
<path fill="none" stroke="midnightblue" d="M145.872,-158.414C163.463,-160.339 182.078,-162.377 199.391,-164.272"/>
<polygon fill="midnightblue" stroke="midnightblue" points="145.972,-154.904 135.651,-157.295 145.211,-161.862 145.972,-154.904"/>
</g>
<!-- Node5 -->
<g id="node5" class="node"><title>Node5</title>
<g id="a_node5"><a xlink:href="../../df/d71/classcellsociety__team02_1_1_grid_model.html#abf618b18bf0b7c25d5717317c00b9269" target="_top" xlink:title="cellsociety_team02.GridModel.num\lState">
<polygon fill="white" stroke="black" points="178.5,-113 178.5,-143 363.5,-143 363.5,-113 178.5,-113"/>
<text text-anchor="start" x="186.5" y="-131" font-family="Helvetica,sans-Serif" font-size="10.00">cellsociety_team02.GridModel.num</text>
<text text-anchor="middle" x="271" y="-120" font-family="Helvetica,sans-Serif" font-size="10.00">State</text>
</a>
</g>
</g>
<!-- Node1&#45;&gt;Node5 -->
<g id="edge4" class="edge"><title>Node1&#45;&gt;Node5</title>
<path fill="none" stroke="midnightblue" d="M145.765,-141.598C156.453,-140.428 167.521,-139.217 178.447,-138.021"/>
<polygon fill="midnightblue" stroke="midnightblue" points="145.211,-138.138 135.651,-142.705 145.972,-145.096 145.211,-138.138"/>
</g>
<!-- Node18 -->
<g id="node18" class="node"><title>Node18</title>
<g id="a_node18"><a xlink:href="../../d4/d2a/class_patch_1_1_fire_patch.html#aa52670f1eaf13f05f15b0b0c2cf8c491" target="_top" xlink:title="Patch.FirePatch.updateState">
<polygon fill="white" stroke="black" points="195,-74.5 195,-93.5 347,-93.5 347,-74.5 195,-74.5"/>
<text text-anchor="middle" x="271" y="-81.5" font-family="Helvetica,sans-Serif" font-size="10.00">Patch.FirePatch.updateState</text>
</a>
</g>
</g>
<!-- Node1&#45;&gt;Node18 -->
<g id="edge21" class="edge"><title>Node1&#45;&gt;Node18</title>
<path fill="none" stroke="midnightblue" d="M96.1423,-135.91C116.548,-125.807 145.439,-112.528 172,-104 184.979,-99.833 199.213,-96.3409 212.711,-93.5018"/>
<polygon fill="midnightblue" stroke="midnightblue" points="94.4925,-132.822 87.1289,-140.44 97.6357,-139.077 94.4925,-132.822"/>
</g>
<!-- Node4 -->
<g id="node4" class="node"><title>Node4</title>
<g id="a_node4"><a xlink:href="../../d4/d7a/class_cell_1_1_segregation_cell.html#a77fa4d67f3332475bf4d5207757682cf" target="_top" xlink:title="Cell.SegregationCell.update\lStateandMove">
<polygon fill="white" stroke="black" points="433.5,-157 433.5,-187 582.5,-187 582.5,-157 433.5,-157"/>
<text text-anchor="start" x="441.5" y="-175" font-family="Helvetica,sans-Serif" font-size="10.00">Cell.SegregationCell.update</text>
<text text-anchor="middle" x="508" y="-164" font-family="Helvetica,sans-Serif" font-size="10.00">StateandMove</text>
</a>
</g>
</g>
<!-- Node3&#45;&gt;Node4 -->
<g id="edge3" class="edge"><title>Node3&#45;&gt;Node4</title>
<path fill="none" stroke="midnightblue" d="M352.754,-172C378.877,-172 407.694,-172 433.279,-172"/>
<polygon fill="midnightblue" stroke="midnightblue" points="352.508,-168.5 342.508,-172 352.508,-175.5 352.508,-168.5"/>
</g>
<!-- Node6 -->
<g id="node6" class="node"><title>Node6</title>
<g id="a_node6"><a xlink:href="../../df/d71/classcellsociety__team02_1_1_grid_model.html#aaa16e9ad7b7de321cfc772caf45dcc89" target="_top" xlink:title="cellsociety_team02.GridModel.addData">
<polygon fill="white" stroke="black" points="406,-118.5 406,-137.5 610,-137.5 610,-118.5 406,-118.5"/>
<text text-anchor="middle" x="508" y="-125.5" font-family="Helvetica,sans-Serif" font-size="10.00">cellsociety_team02.GridModel.addData</text>
</a>
</g>
</g>
<!-- Node5&#45;&gt;Node6 -->
<g id="edge5" class="edge"><title>Node5&#45;&gt;Node6</title>
<path fill="none" stroke="midnightblue" d="M373.721,-128C384.419,-128 395.295,-128 405.986,-128"/>
<polygon fill="midnightblue" stroke="midnightblue" points="373.53,-124.5 363.53,-128 373.53,-131.5 373.53,-124.5"/>
</g>
<!-- Node7 -->
<g id="node7" class="node"><title>Node7</title>
<g id="a_node7"><a xlink:href="../../d9/daf/classcellsociety__team02_1_1_grid_view.html#acf332ae230af02cadc77649e0b6fc0ff" target="_top" xlink:title="cellsociety_team02.GridView.make\lGraph">
<polygon fill="white" stroke="black" points="646,-113 646,-143 828,-143 828,-113 646,-113"/>
<text text-anchor="start" x="654" y="-131" font-family="Helvetica,sans-Serif" font-size="10.00">cellsociety_team02.GridView.make</text>
<text text-anchor="middle" x="737" y="-120" font-family="Helvetica,sans-Serif" font-size="10.00">Graph</text>
</a>
</g>
</g>
<!-- Node6&#45;&gt;Node7 -->
<g id="edge6" class="edge"><title>Node6&#45;&gt;Node7</title>
<path fill="none" stroke="midnightblue" d="M620.225,-128C628.766,-128 637.324,-128 645.705,-128"/>
<polygon fill="midnightblue" stroke="midnightblue" points="620.218,-124.5 610.218,-128 620.218,-131.5 620.218,-124.5"/>
</g>
<!-- Node8 -->
<g id="node8" class="node"><title>Node8</title>
<g id="a_node8"><a xlink:href="../../d9/daf/classcellsociety__team02_1_1_grid_view.html#aa0cb15c1acd15c18573648b8df447752" target="_top" xlink:title="cellsociety_team02.GridView.load">
<polygon fill="white" stroke="black" points="1730,-137.5 1730,-156.5 1906,-156.5 1906,-137.5 1730,-137.5"/>
<text text-anchor="middle" x="1818" y="-144.5" font-family="Helvetica,sans-Serif" font-size="10.00">cellsociety_team02.GridView.load</text>
</a>
</g>
</g>
<!-- Node7&#45;&gt;Node8 -->
<g id="edge7" class="edge"><title>Node7&#45;&gt;Node8</title>
<path fill="none" stroke="midnightblue" d="M838.167,-134.991C924.46,-140.409 1052.37,-147 1164,-147 1164,-147 1164,-147 1380,-147 1501.39,-147 1641.74,-147 1729.94,-147"/>
<polygon fill="midnightblue" stroke="midnightblue" points="838.318,-131.493 828.117,-134.353 837.875,-138.479 838.318,-131.493"/>
</g>
<!-- Node12 -->
<g id="node12" class="node"><title>Node12</title>
<g id="a_node12"><a xlink:href="../../d9/daf/classcellsociety__team02_1_1_grid_view.html#a27a105e1810531f4958f9fc192c3cef1" target="_top" xlink:title="cellsociety_team02.GridView.step">
<polygon fill="white" stroke="black" points="864,-99.5 864,-118.5 1040,-118.5 1040,-99.5 864,-99.5"/>
<text text-anchor="middle" x="952" y="-106.5" font-family="Helvetica,sans-Serif" font-size="10.00">cellsociety_team02.GridView.step</text>
</a>
</g>
</g>
<!-- Node7&#45;&gt;Node12 -->
<g id="edge12" class="edge"><title>Node7&#45;&gt;Node12</title>
<path fill="none" stroke="midnightblue" d="M838.038,-119.076C846.603,-118.312 855.224,-117.543 863.678,-116.789"/>
<polygon fill="midnightblue" stroke="midnightblue" points="837.672,-115.595 828.022,-119.97 838.294,-122.567 837.672,-115.595"/>
</g>
<!-- Node9 -->
<g id="node9" class="node"><title>Node9</title>
<g id="a_node9"><a xlink:href="../../d9/daf/classcellsociety__team02_1_1_grid_view.html#ada183e314764db770009f944205490df" target="_top" xlink:title="cellsociety_team02.GridView.\lGridView">
<polygon fill="white" stroke="black" points="2390.5,-111 2390.5,-141 2545.5,-141 2545.5,-111 2390.5,-111"/>
<text text-anchor="start" x="2398.5" y="-129" font-family="Helvetica,sans-Serif" font-size="10.00">cellsociety_team02.GridView.</text>
<text text-anchor="middle" x="2468" y="-118" font-family="Helvetica,sans-Serif" font-size="10.00">GridView</text>
</a>
</g>
</g>
<!-- Node8&#45;&gt;Node9 -->
<g id="edge8" class="edge"><title>Node8&#45;&gt;Node9</title>
<path fill="none" stroke="midnightblue" d="M1916.37,-143.845C2045.94,-139.645 2272.4,-132.307 2390.47,-128.48"/>
<polygon fill="midnightblue" stroke="midnightblue" points="1915.94,-140.357 1906.06,-144.179 1916.16,-147.353 1915.94,-140.357"/>
</g>
<!-- Node10 -->
<g id="node10" class="node"><title>Node10</title>
<g id="a_node10"><a xlink:href="../../d9/daf/classcellsociety__team02_1_1_grid_view.html#afcc7b83f62c116e77ab0843bfd4156b8" target="_top" xlink:title="cellsociety_team02.GridView.make\lButtons">
<polygon fill="white" stroke="black" points="1942,-88 1942,-118 2124,-118 2124,-88 1942,-88"/>
<text text-anchor="start" x="1950" y="-106" font-family="Helvetica,sans-Serif" font-size="10.00">cellsociety_team02.GridView.make</text>
<text text-anchor="middle" x="2033" y="-95" font-family="Helvetica,sans-Serif" font-size="10.00">Buttons</text>
</a>
</g>
</g>
<!-- Node8&#45;&gt;Node10 -->
<g id="edge9" class="edge"><title>Node8&#45;&gt;Node10</title>
<path fill="none" stroke="midnightblue" d="M1875.16,-135.399C1900.85,-130.092 1931.62,-123.736 1959.07,-118.065"/>
<polygon fill="midnightblue" stroke="midnightblue" points="1874.3,-132.002 1865.22,-137.453 1875.72,-138.857 1874.3,-132.002"/>
</g>
<!-- Node11 -->
<g id="node11" class="node"><title>Node11</title>
<g id="a_node11"><a xlink:href="../../d9/daf/classcellsociety__team02_1_1_grid_view.html#a4571898657e750f62c2df84cb398e135" target="_top" xlink:title="cellsociety_team02.GridView.initialize">
<polygon fill="white" stroke="black" points="2160,-96.5 2160,-115.5 2354,-115.5 2354,-96.5 2160,-96.5"/>
<text text-anchor="middle" x="2257" y="-103.5" font-family="Helvetica,sans-Serif" font-size="10.00">cellsociety_team02.GridView.initialize</text>
</a>
</g>
</g>
<!-- Node10&#45;&gt;Node11 -->
<g id="edge10" class="edge"><title>Node10&#45;&gt;Node11</title>
<path fill="none" stroke="midnightblue" d="M2134.56,-104.359C2143.03,-104.473 2151.57,-104.589 2160,-104.703"/>
<polygon fill="midnightblue" stroke="midnightblue" points="2134.34,-100.856 2124.3,-104.22 2134.25,-107.855 2134.34,-100.856"/>
</g>
<!-- Node11&#45;&gt;Node9 -->
<g id="edge11" class="edge"><title>Node11&#45;&gt;Node9</title>
<path fill="none" stroke="midnightblue" d="M2364.48,-116.189C2373.2,-117.024 2381.91,-117.857 2390.35,-118.665"/>
<polygon fill="midnightblue" stroke="midnightblue" points="2364.53,-112.678 2354.24,-115.21 2363.86,-119.646 2364.53,-112.678"/>
</g>
<!-- Node12&#45;&gt;Node10 -->
<g id="edge13" class="edge"><title>Node12&#45;&gt;Node10</title>
<path fill="none" stroke="midnightblue" d="M1050.12,-109C1136.26,-109 1265.51,-109 1378,-109 1378,-109 1378,-109 1600,-109 1718.14,-109 1854.43,-106.729 1941.82,-104.981"/>
<polygon fill="midnightblue" stroke="midnightblue" points="1050.09,-105.5 1040.09,-109 1050.09,-112.5 1050.09,-105.5"/>
</g>
<!-- Node13 -->
<g id="node13" class="node"><title>Node13</title>
<g id="a_node13"><a xlink:href="../../d9/daf/classcellsociety__team02_1_1_grid_view.html#aa1d09688b48a4a95513e15eea18ec0e6" target="_top" xlink:title="cellsociety_team02.GridView.start\lHandler">
<polygon fill="white" stroke="black" points="1076,-50 1076,-80 1254,-80 1254,-50 1076,-50"/>
<text text-anchor="start" x="1084" y="-68" font-family="Helvetica,sans-Serif" font-size="10.00">cellsociety_team02.GridView.start</text>
<text text-anchor="middle" x="1165" y="-57" font-family="Helvetica,sans-Serif" font-size="10.00">Handler</text>
</a>
</g>
</g>
<!-- Node12&#45;&gt;Node13 -->
<g id="edge14" class="edge"><title>Node12&#45;&gt;Node13</title>
<path fill="none" stroke="midnightblue" d="M1008.63,-97.3987C1034.08,-92.0917 1064.56,-85.7362 1091.75,-80.0654"/>
<polygon fill="midnightblue" stroke="midnightblue" points="1007.86,-93.9849 998.784,-99.4527 1009.29,-100.837 1007.86,-93.9849"/>
</g>
<!-- Node14 -->
<g id="node14" class="node"><title>Node14</title>
<g id="a_node14"><a xlink:href="../../d9/daf/classcellsociety__team02_1_1_grid_view.html#a27ed5fc9bbf44efab6d23cb07096c36a" target="_top" xlink:title="cellsociety_team02.GridView.start\lAnimation">
<polygon fill="white" stroke="black" points="1290,-50 1290,-80 1468,-80 1468,-50 1290,-50"/>
<text text-anchor="start" x="1298" y="-68" font-family="Helvetica,sans-Serif" font-size="10.00">cellsociety_team02.GridView.start</text>
<text text-anchor="middle" x="1379" y="-57" font-family="Helvetica,sans-Serif" font-size="10.00">Animation</text>
</a>
</g>
</g>
<!-- Node13&#45;&gt;Node14 -->
<g id="edge15" class="edge"><title>Node13&#45;&gt;Node14</title>
<path fill="none" stroke="midnightblue" d="M1264.11,-65C1272.7,-65 1281.36,-65 1289.87,-65"/>
<polygon fill="midnightblue" stroke="midnightblue" points="1264.07,-61.5001 1254.07,-65 1264.07,-68.5001 1264.07,-61.5001"/>
</g>
<!-- Node15 -->
<g id="node15" class="node"><title>Node15</title>
<g id="a_node15"><a xlink:href="../../d9/daf/classcellsociety__team02_1_1_grid_view.html#a7b94250b9b4e419eb3b97394e3b86052" target="_top" xlink:title="cellsociety_team02.GridView.play\lPause">
<polygon fill="white" stroke="black" points="1511.5,-50 1511.5,-80 1686.5,-80 1686.5,-50 1511.5,-50"/>
<text text-anchor="start" x="1519.5" y="-68" font-family="Helvetica,sans-Serif" font-size="10.00">cellsociety_team02.GridView.play</text>
<text text-anchor="middle" x="1599" y="-57" font-family="Helvetica,sans-Serif" font-size="10.00">Pause</text>
</a>
</g>
</g>
<!-- Node14&#45;&gt;Node15 -->
<g id="edge16" class="edge"><title>Node14&#45;&gt;Node15</title>
<path fill="none" stroke="midnightblue" d="M1478.16,-65C1489.25,-65 1500.48,-65 1511.4,-65"/>
<polygon fill="midnightblue" stroke="midnightblue" points="1478.04,-61.5001 1468.04,-65 1478.04,-68.5001 1478.04,-61.5001"/>
</g>
<!-- Node16 -->
<g id="node16" class="node"><title>Node16</title>
<g id="a_node16"><a xlink:href="../../d9/daf/classcellsociety__team02_1_1_grid_view.html#a21d8f68b9be54d2f23f17af421c78b12" target="_top" xlink:title="cellsociety_team02.GridView.update\lSpeed">
<polygon fill="white" stroke="black" points="1504.5,-1 1504.5,-31 1693.5,-31 1693.5,-1 1504.5,-1"/>
<text text-anchor="start" x="1512.5" y="-19" font-family="Helvetica,sans-Serif" font-size="10.00">cellsociety_team02.GridView.update</text>
<text text-anchor="middle" x="1599" y="-8" font-family="Helvetica,sans-Serif" font-size="10.00">Speed</text>
</a>
</g>
</g>
<!-- Node14&#45;&gt;Node16 -->
<g id="edge18" class="edge"><title>Node14&#45;&gt;Node16</title>
<path fill="none" stroke="midnightblue" d="M1456.78,-47.7419C1481.07,-42.282 1507.71,-36.295 1531.24,-31.0062"/>
<polygon fill="midnightblue" stroke="midnightblue" points="1455.88,-44.3575 1446.89,-49.9654 1457.41,-51.1871 1455.88,-44.3575"/>
</g>
<!-- Node15&#45;&gt;Node10 -->
<g id="edge17" class="edge"><title>Node15&#45;&gt;Node10</title>
<path fill="none" stroke="midnightblue" d="M1696.81,-73.5153C1770.13,-79.965 1870.13,-88.7612 1941.78,-95.0642"/>
<polygon fill="midnightblue" stroke="midnightblue" points="1696.91,-70.0111 1686.64,-72.6213 1696.3,-76.9842 1696.91,-70.0111"/>
</g>
<!-- Node17 -->
<g id="node17" class="node"><title>Node17</title>
<g id="a_node17"><a xlink:href="../../d9/daf/classcellsociety__team02_1_1_grid_view.html#a08ac9f0ccad1d9db92c9d92a127d77bc" target="_top" xlink:title="cellsociety_team02.GridView.set\lUpSpeedSlider">
<polygon fill="white" stroke="black" points="1733,-4 1733,-34 1903,-34 1903,-4 1733,-4"/>
<text text-anchor="start" x="1741" y="-22" font-family="Helvetica,sans-Serif" font-size="10.00">cellsociety_team02.GridView.set</text>
<text text-anchor="middle" x="1818" y="-11" font-family="Helvetica,sans-Serif" font-size="10.00">UpSpeedSlider</text>
</a>
</g>
</g>
<!-- Node16&#45;&gt;Node17 -->
<g id="edge19" class="edge"><title>Node16&#45;&gt;Node17</title>
<path fill="none" stroke="midnightblue" d="M1703.76,-17.4345C1713.54,-17.5697 1723.37,-17.7056 1732.94,-17.8378"/>
<polygon fill="midnightblue" stroke="midnightblue" points="1703.65,-13.9327 1693.6,-17.294 1703.55,-20.932 1703.65,-13.9327"/>
</g>
<!-- Node17&#45;&gt;Node10 -->
<g id="edge20" class="edge"><title>Node17&#45;&gt;Node10</title>
<path fill="none" stroke="midnightblue" d="M1866.5,-37.7327C1904.9,-52.8761 1958.25,-73.9157 1993.89,-87.9711"/>
<polygon fill="midnightblue" stroke="midnightblue" points="1867.67,-34.4303 1857.08,-34.0175 1865.1,-40.9422 1867.67,-34.4303"/>
</g>
</g>
</svg>
        <g id="navigator" transform="translate(0 0)" fill="#404254">
                <rect fill="#f2f5e9" fill-opacity="0.5" stroke="#606060" stroke-width=".5" x="0" y="0" width="60" height="60"/>
                <use id="zoomplus" xlink:href="#zoomPlus" x="17" y="9" onmousedown="handleZoom(evt,'in')"/>
                <use id="zoomminus" xlink:href="#zoomMin" x="42" y="9" onmousedown="handleZoom(evt,'out')"/>
                <use id="reset" xlink:href="#resetDef" x="30" y="36" onmousedown="handleReset()"/>
                <g id="arrowUp" xlink:href="#dirArrow" transform="translate(30 24)" onmousedown="handlePan(0,-1)">
                  <use xlink:href="#rim" fill="#404040">
                        <set attributeName="fill" to="#808080" begin="arrowUp.mouseover" end="arrowUp.mouseout"/>
                  </use>
                  <path fill="none" stroke="white" stroke-width="1.5" d="M0,-3.0v7 M-2.5,-0.5L0,-3.0L2.5,-0.5"/>
                </g>
                <g id="arrowRight" xlink:href="#dirArrow" transform="rotate(90) translate(36 -43)" onmousedown="handlePan(1,0)">
                  <use xlink:href="#rim" fill="#404040">
                        <set attributeName="fill" to="#808080" begin="arrowRight.mouseover" end="arrowRight.mouseout"/>
                  </use>
                  <path fill="none" stroke="white" stroke-width="1.5" d="M0,-3.0v7 M-2.5,-0.5L0,-3.0L2.5,-0.5"/>
                </g>
                <g id="arrowDown" xlink:href="#dirArrow" transform="rotate(180) translate(-30 -48)" onmousedown="handlePan(0,1)">
                  <use xlink:href="#rim" fill="#404040">
                        <set attributeName="fill" to="#808080" begin="arrowDown.mouseover" end="arrowDown.mouseout"/>
                  </use>
                  <path fill="none" stroke="white" stroke-width="1.5" d="M0,-3.0v7 M-2.5,-0.5L0,-3.0L2.5,-0.5"/>
                </g>
                <g id="arrowLeft" xlink:href="#dirArrow" transform="rotate(270) translate(-36 17)" onmousedown="handlePan(-1,0)">
                  <use xlink:href="#rim" fill="#404040">
                        <set attributeName="fill" to="#808080" begin="arrowLeft.mouseover" end="arrowLeft.mouseout"/>
                  </use>
                  <path fill="none" stroke="white" stroke-width="1.5" d="M0,-3.0v7 M-2.5,-0.5L0,-3.0L2.5,-0.5"/>
                </g>
        </g>
        <svg viewBox="0 0 15 15" width="100%" height="30px" preserveAspectRatio="xMaxYMin meet">
         <g id="arrow_out" transform="scale(0.3 0.3)">
          <a xlink:href="class_cell_1_1_cell_a04d500ffc9f19932a4ff0738f2f1dbc6_icgraph_org.svg" target="_base">
           <rect id="button" ry="5" rx="5" y="6" x="6" height="38" width="38"
                fill="#f2f5e9" fill-opacity="0.5" stroke="#606060" stroke-width="1.0"/>
           <path id="arrow"
             d="M 11.500037,31.436501 C 11.940474,20.09759 22.043105,11.32322 32.158766,21.979434 L 37.068811,17.246167 C 37.068811,17.246167 37.088388,32 37.088388,32 L 22.160133,31.978069 C 22.160133,31.978069 26.997745,27.140456 26.997745,27.140456 C 18.528582,18.264221 13.291696,25.230495 11.500037,31.436501 z"
             style="fill:#404040;"/>
          </a>
         </g>
        </svg>
</svg>
