<?xml version="1.0" encoding="UTF-8" standalone="no"?>
<!DOCTYPE svg PUBLIC "-//W3C//DTD SVG 1.1//EN"
 "http://www.w3.org/Graphics/SVG/1.1/DTD/svg11.dtd">
<!-- Generated by graphviz version 2.36.0 (20140111.2315)
 -->
<!-- Title: Patch.GenericPatch Pages: 1 -->
<svg width="205pt" height="232pt"
 viewBox="0.00 0.00 205.00 232.00" xmlns="http://www.w3.org/2000/svg" xmlns:xlink="http://www.w3.org/1999/xlink">
<g id="graph0" class="graph" transform="scale(1 1) rotate(0) translate(4 228)">
<title>Patch.GenericPatch</title>
<polygon fill="white" stroke="none" points="-4,4 -4,-228 201,-228 201,4 -4,4"/>
<!-- Node1 -->
<g id="node1" class="node"><title>Node1</title>
<polygon fill="#bfbfbf" stroke="black" points="-0.5,-0.5 -0.5,-19.5 108.5,-19.5 108.5,-0.5 -0.5,-0.5"/>
<text text-anchor="middle" x="54" y="-7.5" font-family="Helvetica,sans-Serif" font-size="10.00">Patch.GenericPatch</text>
</g>
<!-- Node2 -->
<g id="node2" class="node"><title>Node2</title>
<g id="a_node2"><a xlink:href="../../d0/d0a/class_patch_1_1_patch.html" target="_top" xlink:title="Patch.Patch">
<polygon fill="white" stroke="black" points="18,-58.5 18,-77.5 90,-77.5 90,-58.5 18,-58.5"/>
<text text-anchor="middle" x="54" y="-65.5" font-family="Helvetica,sans-Serif" font-size="10.00">Patch.Patch</text>
</a>
</g>
</g>
<!-- Node2&#45;&gt;Node1 -->
<g id="edge1" class="edge"><title>Node2&#45;&gt;Node1</title>
<path fill="none" stroke="midnightblue" d="M54,-47.953C54,-38.2875 54,-27.0312 54,-19.5052"/>
<polygon fill="midnightblue" stroke="midnightblue" points="50.5001,-48.25 54,-58.25 57.5001,-48.25 50.5001,-48.25"/>
</g>
<!-- Node3 -->
<g id="node3" class="node"><title>Node3</title>
<polygon fill="white" stroke="#bfbfbf" points="15,-204.5 15,-223.5 137,-223.5 137,-204.5 15,-204.5"/>
<text text-anchor="middle" x="76" y="-211.5" font-family="Helvetica,sans-Serif" font-size="10.00">Map&lt; String, String &gt;</text>
</g>
<!-- Node3&#45;&gt;Node2 -->
<g id="edge2" class="edge"><title>Node3&#45;&gt;Node2</title>
<path fill="none" stroke="#9a32cd" stroke-dasharray="5,2" d="M64.5076,-195.739C57.9612,-184.846 50.4037,-170.196 47,-156 40.252,-127.855 47.4699,-93.2788 51.5702,-77.5348"/>
<polygon fill="#9a32cd" stroke="#9a32cd" points="61.5742,-197.649 69.8705,-204.238 67.4942,-193.913 61.5742,-197.649"/>
<text text-anchor="middle" x="84" y="-143.5" font-family="Helvetica,sans-Serif" font-size="10.00"> myParameters</text>
</g>
<!-- Node4 -->
<g id="node4" class="node"><title>Node4</title>
<g id="a_node4"><a xlink:href="../../d5/d5c/class_cell_1_1_cell.html" target="_top" xlink:title="Cell.Cell">
<polygon fill="white" stroke="black" points="130,-136.5 130,-155.5 184,-155.5 184,-136.5 130,-136.5"/>
<text text-anchor="middle" x="157" y="-143.5" font-family="Helvetica,sans-Serif" font-size="10.00">Cell.Cell</text>
</a>
</g>
</g>
<!-- Node3&#45;&gt;Node4 -->
<g id="edge4" class="edge"><title>Node3&#45;&gt;Node4</title>
<path fill="none" stroke="#9a32cd" stroke-dasharray="5,2" d="M94.7352,-197.734C110.78,-184.661 133.309,-166.304 146.408,-155.63"/>
<polygon fill="#9a32cd" stroke="#9a32cd" points="92.1308,-195.342 86.5893,-204.372 96.5526,-200.768 92.1308,-195.342"/>
<text text-anchor="middle" x="160" y="-177.5" font-family="Helvetica,sans-Serif" font-size="10.00"> myParameters</text>
</g>
<!-- Node4&#45;&gt;Node2 -->
<g id="edge3" class="edge"><title>Node4&#45;&gt;Node2</title>
<path fill="none" stroke="#9a32cd" stroke-dasharray="5,2" d="M136.875,-130.15C115.664,-114.5 82.9811,-90.3841 65.6776,-77.6165"/>
<polygon fill="#9a32cd" stroke="#9a32cd" points="135.06,-133.161 145.185,-136.282 139.216,-127.528 135.06,-133.161"/>
<text text-anchor="middle" x="153" y="-110" font-family="Helvetica,sans-Serif" font-size="10.00"> myCurrentCell</text>
<text text-anchor="middle" x="153" y="-99" font-family="Helvetica,sans-Serif" font-size="10.00">myFutureCell</text>
</g>
</g>
</svg>
