<?xml version="1.0" encoding="UTF-8" standalone="no"?>
<!DOCTYPE svg PUBLIC "-//W3C//DTD SVG 1.1//EN"
 "http://www.w3.org/Graphics/SVG/1.1/DTD/svg11.dtd">
<!-- Generated by graphviz version 2.36.0 (20140111.2315)
 -->
<!-- Title: cellsociety_team02.Factory.makeProbCell Pages: 1 -->
<svg width="1958pt" height="87pt"
 viewBox="0.00 0.00 1958.00 87.00" xmlns="http://www.w3.org/2000/svg" xmlns:xlink="http://www.w3.org/1999/xlink">
<g id="graph0" class="graph" transform="scale(1 1) rotate(0) translate(4 83)">
<title>cellsociety_team02.Factory.makeProbCell</title>
<polygon fill="white" stroke="none" points="-4,4 -4,-83 1954,-83 1954,4 -4,4"/>
<!-- Node1 -->
<g id="node1" class="node"><title>Node1</title>
<polygon fill="#bfbfbf" stroke="black" points="0.5,-24 0.5,-54 175.5,-54 175.5,-24 0.5,-24"/>
<text text-anchor="start" x="8.5" y="-42" font-family="Helvetica,sans-Serif" font-size="10.00">cellsociety_team02.Factory.make</text>
<text text-anchor="middle" x="88" y="-31" font-family="Helvetica,sans-Serif" font-size="10.00">ProbCell</text>
</g>
<!-- Node2 -->
<g id="node2" class="node"><title>Node2</title>
<g id="a_node2"><a xlink:href="../../d9/db5/classcellsociety__team02_1_1_x_m_l_parser.html#a14ccb1cf6658b9c38357d5bc4f176444" target="_top" xlink:title="cellsociety_team02.XMLParser.do\lProbability">
<polygon fill="white" stroke="black" points="212,-24 212,-54 388,-54 388,-24 212,-24"/>
<text text-anchor="start" x="220" y="-42" font-family="Helvetica,sans-Serif" font-size="10.00">cellsociety_team02.XMLParser.do</text>
<text text-anchor="middle" x="300" y="-31" font-family="Helvetica,sans-Serif" font-size="10.00">Probability</text>
</a>
</g>
</g>
<!-- Node1&#45;&gt;Node2 -->
<g id="edge1" class="edge"><title>Node1&#45;&gt;Node2</title>
<path fill="none" stroke="midnightblue" d="M185.796,-39C194.5,-39 203.28,-39 211.894,-39"/>
<polygon fill="midnightblue" stroke="midnightblue" points="185.627,-35.5001 175.627,-39 185.627,-42.5001 185.627,-35.5001"/>
</g>
<!-- Node3 -->
<g id="node3" class="node"><title>Node3</title>
<g id="a_node3"><a xlink:href="../../d9/db5/classcellsociety__team02_1_1_x_m_l_parser.html#adb7ffd2c43825ff504405060ff20178f" target="_top" xlink:title="cellsociety_team02.XMLParser.constructList">
<polygon fill="white" stroke="black" points="424.5,-29.5 424.5,-48.5 649.5,-48.5 649.5,-29.5 424.5,-29.5"/>
<text text-anchor="middle" x="537" y="-36.5" font-family="Helvetica,sans-Serif" font-size="10.00">cellsociety_team02.XMLParser.constructList</text>
</a>
</g>
</g>
<!-- Node2&#45;&gt;Node3 -->
<g id="edge2" class="edge"><title>Node2&#45;&gt;Node3</title>
<path fill="none" stroke="midnightblue" d="M398.182,-39C406.778,-39 415.524,-39 424.228,-39"/>
<polygon fill="midnightblue" stroke="midnightblue" points="398.171,-35.5001 388.171,-39 398.171,-42.5001 398.171,-35.5001"/>
</g>
<!-- Node4 -->
<g id="node4" class="node"><title>Node4</title>
<g id="a_node4"><a xlink:href="../../d9/db5/classcellsociety__team02_1_1_x_m_l_parser.html#aca6776e6016ac742ace5f43d33a03c74" target="_top" xlink:title="cellsociety_team02.XMLParser.make\lCells">
<polygon fill="white" stroke="black" points="686.5,-49 686.5,-79 877.5,-79 877.5,-49 686.5,-49"/>
<text text-anchor="start" x="694.5" y="-67" font-family="Helvetica,sans-Serif" font-size="10.00">cellsociety_team02.XMLParser.make</text>
<text text-anchor="middle" x="782" y="-56" font-family="Helvetica,sans-Serif" font-size="10.00">Cells</text>
</a>
</g>
</g>
<!-- Node3&#45;&gt;Node4 -->
<g id="edge3" class="edge"><title>Node3&#45;&gt;Node4</title>
<path fill="none" stroke="midnightblue" d="M640.907,-49.5872C655.959,-51.1357 671.4,-52.7243 686.278,-54.2549"/>
<polygon fill="midnightblue" stroke="midnightblue" points="640.867,-46.0646 630.561,-48.5227 640.15,-53.0279 640.867,-46.0646"/>
</g>
<!-- Node10 -->
<g id="node10" class="node"><title>Node10</title>
<g id="a_node10"><a xlink:href="../../d9/db5/classcellsociety__team02_1_1_x_m_l_parser.html#a6183c4600a4c3b22a017485f9ae01d4d" target="_top" xlink:title="cellsociety_team02.XMLParser.make\lPatches">
<polygon fill="white" stroke="black" points="686.5,-0 686.5,-30 877.5,-30 877.5,-0 686.5,-0"/>
<text text-anchor="start" x="694.5" y="-18" font-family="Helvetica,sans-Serif" font-size="10.00">cellsociety_team02.XMLParser.make</text>
<text text-anchor="middle" x="782" y="-7" font-family="Helvetica,sans-Serif" font-size="10.00">Patches</text>
</a>
</g>
</g>
<!-- Node3&#45;&gt;Node10 -->
<g id="edge10" class="edge"><title>Node3&#45;&gt;Node10</title>
<path fill="none" stroke="midnightblue" d="M644.473,-28.4841C658.402,-27.1084 672.599,-25.7063 686.315,-24.3516"/>
<polygon fill="midnightblue" stroke="midnightblue" points="643.997,-25.0141 634.389,-29.4801 644.685,-31.9802 643.997,-25.0141"/>
</g>
<!-- Node5 -->
<g id="node5" class="node"><title>Node5</title>
<g id="a_node5"><a xlink:href="../../df/d71/classcellsociety__team02_1_1_grid_model.html#a3884a4fa7f5f19b71ea5a1c2a54fe817" target="_top" xlink:title="cellsociety_team02.GridModel.load">
<polygon fill="white" stroke="black" points="914.5,-29.5 914.5,-48.5 1097.5,-48.5 1097.5,-29.5 914.5,-29.5"/>
<text text-anchor="middle" x="1006" y="-36.5" font-family="Helvetica,sans-Serif" font-size="10.00">cellsociety_team02.GridModel.load</text>
</a>
</g>
</g>
<!-- Node4&#45;&gt;Node5 -->
<g id="edge4" class="edge"><title>Node4&#45;&gt;Node5</title>
<path fill="none" stroke="midnightblue" d="M887.782,-52.2002C898.699,-50.9709 909.696,-49.7325 920.349,-48.5328"/>
<polygon fill="midnightblue" stroke="midnightblue" points="887.337,-48.7281 877.792,-53.3252 888.121,-55.6841 887.337,-48.7281"/>
</g>
<!-- Node6 -->
<g id="node6" class="node"><title>Node6</title>
<g id="a_node6"><a xlink:href="../../d9/daf/classcellsociety__team02_1_1_grid_view.html#aa0cb15c1acd15c18573648b8df447752" target="_top" xlink:title="cellsociety_team02.GridView.load">
<polygon fill="white" stroke="black" points="1134,-29.5 1134,-48.5 1310,-48.5 1310,-29.5 1134,-29.5"/>
<text text-anchor="middle" x="1222" y="-36.5" font-family="Helvetica,sans-Serif" font-size="10.00">cellsociety_team02.GridView.load</text>
</a>
</g>
</g>
<!-- Node5&#45;&gt;Node6 -->
<g id="edge5" class="edge"><title>Node5&#45;&gt;Node6</title>
<path fill="none" stroke="midnightblue" d="M1107.9,-39C1116.57,-39 1125.3,-39 1133.85,-39"/>
<polygon fill="midnightblue" stroke="midnightblue" points="1107.76,-35.5001 1097.76,-39 1107.76,-42.5001 1107.76,-35.5001"/>
</g>
<!-- Node7 -->
<g id="node7" class="node"><title>Node7</title>
<g id="a_node7"><a xlink:href="../../d9/daf/classcellsociety__team02_1_1_grid_view.html#ada183e314764db770009f944205490df" target="_top" xlink:title="cellsociety_team02.GridView.\lGridView">
<polygon fill="white" stroke="black" points="1794.5,-25 1794.5,-55 1949.5,-55 1949.5,-25 1794.5,-25"/>
<text text-anchor="start" x="1802.5" y="-43" font-family="Helvetica,sans-Serif" font-size="10.00">cellsociety_team02.GridView.</text>
<text text-anchor="middle" x="1872" y="-32" font-family="Helvetica,sans-Serif" font-size="10.00">GridView</text>
</a>
</g>
</g>
<!-- Node6&#45;&gt;Node7 -->
<g id="edge6" class="edge"><title>Node6&#45;&gt;Node7</title>
<path fill="none" stroke="midnightblue" d="M1320.24,-40.7275C1328.95,-40.838 1337.63,-40.932 1346,-41 1505.5,-42.2967 1692.27,-41.3532 1794.49,-40.6264"/>
<polygon fill="midnightblue" stroke="midnightblue" points="1320.06,-37.2249 1310.02,-40.5908 1319.97,-44.2243 1320.06,-37.2249"/>
</g>
<!-- Node8 -->
<g id="node8" class="node"><title>Node8</title>
<g id="a_node8"><a xlink:href="../../d9/daf/classcellsociety__team02_1_1_grid_view.html#afcc7b83f62c116e77ab0843bfd4156b8" target="_top" xlink:title="cellsociety_team02.GridView.make\lButtons">
<polygon fill="white" stroke="black" points="1346,-2 1346,-32 1528,-32 1528,-2 1346,-2"/>
<text text-anchor="start" x="1354" y="-20" font-family="Helvetica,sans-Serif" font-size="10.00">cellsociety_team02.GridView.make</text>
<text text-anchor="middle" x="1437" y="-9" font-family="Helvetica,sans-Serif" font-size="10.00">Buttons</text>
</a>
</g>
</g>
<!-- Node6&#45;&gt;Node8 -->
<g id="edge7" class="edge"><title>Node6&#45;&gt;Node8</title>
<path fill="none" stroke="midnightblue" d="M1320.2,-28.9605C1328.72,-28.0806 1337.32,-27.1924 1345.78,-26.3188"/>
<polygon fill="midnightblue" stroke="midnightblue" points="1319.84,-25.4793 1310.25,-29.9883 1320.56,-32.4423 1319.84,-25.4793"/>
</g>
<!-- Node9 -->
<g id="node9" class="node"><title>Node9</title>
<g id="a_node9"><a xlink:href="../../d9/daf/classcellsociety__team02_1_1_grid_view.html#a4571898657e750f62c2df84cb398e135" target="_top" xlink:title="cellsociety_team02.GridView.initialize">
<polygon fill="white" stroke="black" points="1564,-10.5 1564,-29.5 1758,-29.5 1758,-10.5 1564,-10.5"/>
<text text-anchor="middle" x="1661" y="-17.5" font-family="Helvetica,sans-Serif" font-size="10.00">cellsociety_team02.GridView.initialize</text>
</a>
</g>
</g>
<!-- Node8&#45;&gt;Node9 -->
<g id="edge8" class="edge"><title>Node8&#45;&gt;Node9</title>
<path fill="none" stroke="midnightblue" d="M1538.56,-18.359C1547.03,-18.4733 1555.57,-18.5888 1564,-18.7027"/>
<polygon fill="midnightblue" stroke="midnightblue" points="1538.34,-14.8558 1528.3,-18.2202 1538.25,-21.8551 1538.34,-14.8558"/>
</g>
<!-- Node9&#45;&gt;Node7 -->
<g id="edge9" class="edge"><title>Node9&#45;&gt;Node7</title>
<path fill="none" stroke="midnightblue" d="M1768.48,-30.1892C1777.2,-31.024 1785.91,-31.8571 1794.35,-32.6651"/>
<polygon fill="midnightblue" stroke="midnightblue" points="1768.53,-26.6783 1758.24,-29.2097 1767.86,-33.6465 1768.53,-26.6783"/>
</g>
<!-- Node10&#45;&gt;Node5 -->
<g id="edge11" class="edge"><title>Node10&#45;&gt;Node5</title>
<path fill="none" stroke="midnightblue" d="M887.866,-26.3369C897.567,-27.3856 907.33,-28.4411 916.859,-29.4712"/>
<polygon fill="midnightblue" stroke="midnightblue" points="888.11,-22.843 877.792,-25.2478 887.358,-29.8024 888.11,-22.843"/>
</g>
</g>
</svg>
