<?xml version="1.0" encoding="UTF-8" standalone="no"?>
<!DOCTYPE svg PUBLIC "-//W3C//DTD SVG 1.1//EN"
 "http://www.w3.org/Graphics/SVG/1.1/DTD/svg11.dtd">
<!-- Generated by graphviz version 2.36.0 (20140111.2315)
 -->
<!-- Title: cellsociety_team02.Factory.makePatch Pages: 1 -->
<svg width="2174pt" height="153pt"
 viewBox="0.00 0.00 2174.00 152.70" xmlns="http://www.w3.org/2000/svg" xmlns:xlink="http://www.w3.org/1999/xlink">
<g id="graph0" class="graph" transform="scale(1 1) rotate(0) translate(4 148.701)">
<title>cellsociety_team02.Factory.makePatch</title>
<polygon fill="white" stroke="none" points="-4,4 -4,-148.701 2170,-148.701 2170,4 -4,4"/>
<!-- Node1 -->
<g id="node1" class="node"><title>Node1</title>
<polygon fill="#bfbfbf" stroke="black" points="0.5,-73 0.5,-103 175.5,-103 175.5,-73 0.5,-73"/>
<text text-anchor="start" x="8.5" y="-91" font-family="Helvetica,sans-Serif" font-size="10.00">cellsociety_team02.Factory.make</text>
<text text-anchor="middle" x="88" y="-80" font-family="Helvetica,sans-Serif" font-size="10.00">Patch</text>
</g>
<!-- Node2 -->
<g id="node2" class="node"><title>Node2</title>
<g id="a_node2"><a xlink:href="../../d9/db5/classcellsociety__team02_1_1_x_m_l_parser.html#a98df6887ba7b6cd85f33e6943ff58e49" target="_top" xlink:title="cellsociety_team02.XMLParser.do\lGiven">
<polygon fill="white" stroke="black" points="428,-98 428,-128 604,-128 604,-98 428,-98"/>
<text text-anchor="start" x="436" y="-116" font-family="Helvetica,sans-Serif" font-size="10.00">cellsociety_team02.XMLParser.do</text>
<text text-anchor="middle" x="516" y="-105" font-family="Helvetica,sans-Serif" font-size="10.00">Given</text>
</a>
</g>
</g>
<!-- Node1&#45;&gt;Node2 -->
<g id="edge1" class="edge"><title>Node1&#45;&gt;Node2</title>
<path fill="none" stroke="midnightblue" d="M127.21,-107.592C150.933,-118.637 182.437,-131.328 212,-137 293.234,-152.585 388.588,-140.087 450.314,-128.053"/>
<polygon fill="midnightblue" stroke="midnightblue" points="128.406,-104.285 117.873,-103.143 125.395,-110.604 128.406,-104.285"/>
</g>
<!-- Node11 -->
<g id="node11" class="node"><title>Node11</title>
<g id="a_node11"><a xlink:href="../../d8/d83/classcellsociety__team02_1_1_factory.html#a41025b16b7c31c3e6e4c6fdef34898ae" target="_top" xlink:title="cellsociety_team02.Factory.make\lProbPatch">
<polygon fill="white" stroke="black" points="214.5,-49 214.5,-79 389.5,-79 389.5,-49 214.5,-49"/>
<text text-anchor="start" x="222.5" y="-67" font-family="Helvetica,sans-Serif" font-size="10.00">cellsociety_team02.Factory.make</text>
<text text-anchor="middle" x="302" y="-56" font-family="Helvetica,sans-Serif" font-size="10.00">ProbPatch</text>
</a>
</g>
</g>
<!-- Node1&#45;&gt;Node11 -->
<g id="edge12" class="edge"><title>Node1&#45;&gt;Node11</title>
<path fill="none" stroke="midnightblue" d="M185.517,-77.0735C195.146,-75.9834 204.881,-74.8814 214.399,-73.8039"/>
<polygon fill="midnightblue" stroke="midnightblue" points="185.077,-73.6009 175.534,-78.2037 185.865,-80.5565 185.077,-73.6009"/>
</g>
<!-- Node13 -->
<g id="node13" class="node"><title>Node13</title>
<g id="a_node13"><a xlink:href="../../d8/d83/classcellsociety__team02_1_1_factory.html#a9584d58dc748c1f625ea2cfc66c5387d" target="_top" xlink:title="cellsociety_team02.Factory.make\lRandomPatch">
<polygon fill="white" stroke="black" points="214.5,-0 214.5,-30 389.5,-30 389.5,-0 214.5,-0"/>
<text text-anchor="start" x="222.5" y="-18" font-family="Helvetica,sans-Serif" font-size="10.00">cellsociety_team02.Factory.make</text>
<text text-anchor="middle" x="302" y="-7" font-family="Helvetica,sans-Serif" font-size="10.00">RandomPatch</text>
</a>
</g>
</g>
<!-- Node1&#45;&gt;Node13 -->
<g id="edge15" class="edge"><title>Node1&#45;&gt;Node13</title>
<path fill="none" stroke="midnightblue" d="M132.854,-69.0967C156.129,-59.4301 185.355,-47.8669 212,-39 221.414,-35.8671 231.489,-32.8439 241.352,-30.0612"/>
<polygon fill="midnightblue" stroke="midnightblue" points="131.468,-65.8826 123.595,-72.9723 134.171,-72.3398 131.468,-65.8826"/>
</g>
<!-- Node15 -->
<g id="node15" class="node"><title>Node15</title>
<g id="a_node15"><a xlink:href="../../d9/db5/classcellsociety__team02_1_1_x_m_l_parser.html#a405a101ec424944a7032f82f56343d2e" target="_top" xlink:title="cellsociety_team02.XMLParser.set\lNullState">
<polygon fill="white" stroke="black" points="212.5,-98 212.5,-128 391.5,-128 391.5,-98 212.5,-98"/>
<text text-anchor="start" x="220.5" y="-116" font-family="Helvetica,sans-Serif" font-size="10.00">cellsociety_team02.XMLParser.set</text>
<text text-anchor="middle" x="302" y="-105" font-family="Helvetica,sans-Serif" font-size="10.00">NullState</text>
</a>
</g>
</g>
<!-- Node1&#45;&gt;Node15 -->
<g id="edge18" class="edge"><title>Node1&#45;&gt;Node15</title>
<path fill="none" stroke="midnightblue" d="M185.555,-99.3862C194.477,-100.438 203.488,-101.501 212.334,-102.544"/>
<polygon fill="midnightblue" stroke="midnightblue" points="185.875,-95.8998 175.534,-98.2045 185.056,-102.852 185.875,-95.8998"/>
</g>
<!-- Node3 -->
<g id="node3" class="node"><title>Node3</title>
<g id="a_node3"><a xlink:href="../../d9/db5/classcellsociety__team02_1_1_x_m_l_parser.html#adb7ffd2c43825ff504405060ff20178f" target="_top" xlink:title="cellsociety_team02.XMLParser.constructList">
<polygon fill="white" stroke="black" points="640.5,-54.5 640.5,-73.5 865.5,-73.5 865.5,-54.5 640.5,-54.5"/>
<text text-anchor="middle" x="753" y="-61.5" font-family="Helvetica,sans-Serif" font-size="10.00">cellsociety_team02.XMLParser.constructList</text>
</a>
</g>
</g>
<!-- Node2&#45;&gt;Node3 -->
<g id="edge2" class="edge"><title>Node2&#45;&gt;Node3</title>
<path fill="none" stroke="midnightblue" d="M599.103,-95.8806C635.057,-88.3839 675.887,-79.8704 706.305,-73.528"/>
<polygon fill="midnightblue" stroke="midnightblue" points="598.18,-92.4978 589.105,-97.9654 599.609,-99.3504 598.18,-92.4978"/>
</g>
<!-- Node4 -->
<g id="node4" class="node"><title>Node4</title>
<g id="a_node4"><a xlink:href="../../d9/db5/classcellsociety__team02_1_1_x_m_l_parser.html#aca6776e6016ac742ace5f43d33a03c74" target="_top" xlink:title="cellsociety_team02.XMLParser.make\lCells">
<polygon fill="white" stroke="black" points="902.5,-74 902.5,-104 1093.5,-104 1093.5,-74 902.5,-74"/>
<text text-anchor="start" x="910.5" y="-92" font-family="Helvetica,sans-Serif" font-size="10.00">cellsociety_team02.XMLParser.make</text>
<text text-anchor="middle" x="998" y="-81" font-family="Helvetica,sans-Serif" font-size="10.00">Cells</text>
</a>
</g>
</g>
<!-- Node3&#45;&gt;Node4 -->
<g id="edge3" class="edge"><title>Node3&#45;&gt;Node4</title>
<path fill="none" stroke="midnightblue" d="M856.907,-74.5872C871.959,-76.1357 887.4,-77.7243 902.278,-79.2549"/>
<polygon fill="midnightblue" stroke="midnightblue" points="856.867,-71.0646 846.561,-73.5227 856.15,-78.0279 856.867,-71.0646"/>
</g>
<!-- Node10 -->
<g id="node10" class="node"><title>Node10</title>
<g id="a_node10"><a xlink:href="../../d9/db5/classcellsociety__team02_1_1_x_m_l_parser.html#a6183c4600a4c3b22a017485f9ae01d4d" target="_top" xlink:title="cellsociety_team02.XMLParser.make\lPatches">
<polygon fill="white" stroke="black" points="902.5,-25 902.5,-55 1093.5,-55 1093.5,-25 902.5,-25"/>
<text text-anchor="start" x="910.5" y="-43" font-family="Helvetica,sans-Serif" font-size="10.00">cellsociety_team02.XMLParser.make</text>
<text text-anchor="middle" x="998" y="-32" font-family="Helvetica,sans-Serif" font-size="10.00">Patches</text>
</a>
</g>
</g>
<!-- Node3&#45;&gt;Node10 -->
<g id="edge10" class="edge"><title>Node3&#45;&gt;Node10</title>
<path fill="none" stroke="midnightblue" d="M860.473,-53.4841C874.402,-52.1084 888.599,-50.7063 902.315,-49.3516"/>
<polygon fill="midnightblue" stroke="midnightblue" points="859.997,-50.0141 850.389,-54.4801 860.685,-56.9802 859.997,-50.0141"/>
</g>
<!-- Node5 -->
<g id="node5" class="node"><title>Node5</title>
<g id="a_node5"><a xlink:href="../../df/d71/classcellsociety__team02_1_1_grid_model.html#a3884a4fa7f5f19b71ea5a1c2a54fe817" target="_top" xlink:title="cellsociety_team02.GridModel.load">
<polygon fill="white" stroke="black" points="1130.5,-54.5 1130.5,-73.5 1313.5,-73.5 1313.5,-54.5 1130.5,-54.5"/>
<text text-anchor="middle" x="1222" y="-61.5" font-family="Helvetica,sans-Serif" font-size="10.00">cellsociety_team02.GridModel.load</text>
</a>
</g>
</g>
<!-- Node4&#45;&gt;Node5 -->
<g id="edge4" class="edge"><title>Node4&#45;&gt;Node5</title>
<path fill="none" stroke="midnightblue" d="M1103.78,-77.2002C1114.7,-75.9709 1125.7,-74.7325 1136.35,-73.5328"/>
<polygon fill="midnightblue" stroke="midnightblue" points="1103.34,-73.7281 1093.79,-78.3252 1104.12,-80.6841 1103.34,-73.7281"/>
</g>
<!-- Node6 -->
<g id="node6" class="node"><title>Node6</title>
<g id="a_node6"><a xlink:href="../../d9/daf/classcellsociety__team02_1_1_grid_view.html#aa0cb15c1acd15c18573648b8df447752" target="_top" xlink:title="cellsociety_team02.GridView.load">
<polygon fill="white" stroke="black" points="1350,-54.5 1350,-73.5 1526,-73.5 1526,-54.5 1350,-54.5"/>
<text text-anchor="middle" x="1438" y="-61.5" font-family="Helvetica,sans-Serif" font-size="10.00">cellsociety_team02.GridView.load</text>
</a>
</g>
</g>
<!-- Node5&#45;&gt;Node6 -->
<g id="edge5" class="edge"><title>Node5&#45;&gt;Node6</title>
<path fill="none" stroke="midnightblue" d="M1323.9,-64C1332.57,-64 1341.3,-64 1349.85,-64"/>
<polygon fill="midnightblue" stroke="midnightblue" points="1323.76,-60.5001 1313.76,-64 1323.76,-67.5001 1323.76,-60.5001"/>
</g>
<!-- Node7 -->
<g id="node7" class="node"><title>Node7</title>
<g id="a_node7"><a xlink:href="../../d9/daf/classcellsociety__team02_1_1_grid_view.html#ada183e314764db770009f944205490df" target="_top" xlink:title="cellsociety_team02.GridView.\lGridView">
<polygon fill="white" stroke="black" points="2010.5,-50 2010.5,-80 2165.5,-80 2165.5,-50 2010.5,-50"/>
<text text-anchor="start" x="2018.5" y="-68" font-family="Helvetica,sans-Serif" font-size="10.00">cellsociety_team02.GridView.</text>
<text text-anchor="middle" x="2088" y="-57" font-family="Helvetica,sans-Serif" font-size="10.00">GridView</text>
</a>
</g>
</g>
<!-- Node6&#45;&gt;Node7 -->
<g id="edge6" class="edge"><title>Node6&#45;&gt;Node7</title>
<path fill="none" stroke="midnightblue" d="M1536.24,-65.7275C1544.95,-65.838 1553.63,-65.932 1562,-66 1721.5,-67.2967 1908.27,-66.3532 2010.49,-65.6264"/>
<polygon fill="midnightblue" stroke="midnightblue" points="1536.06,-62.2249 1526.02,-65.5908 1535.97,-69.2243 1536.06,-62.2249"/>
</g>
<!-- Node8 -->
<g id="node8" class="node"><title>Node8</title>
<g id="a_node8"><a xlink:href="../../d9/daf/classcellsociety__team02_1_1_grid_view.html#afcc7b83f62c116e77ab0843bfd4156b8" target="_top" xlink:title="cellsociety_team02.GridView.make\lButtons">
<polygon fill="white" stroke="black" points="1562,-27 1562,-57 1744,-57 1744,-27 1562,-27"/>
<text text-anchor="start" x="1570" y="-45" font-family="Helvetica,sans-Serif" font-size="10.00">cellsociety_team02.GridView.make</text>
<text text-anchor="middle" x="1653" y="-34" font-family="Helvetica,sans-Serif" font-size="10.00">Buttons</text>
</a>
</g>
</g>
<!-- Node6&#45;&gt;Node8 -->
<g id="edge7" class="edge"><title>Node6&#45;&gt;Node8</title>
<path fill="none" stroke="midnightblue" d="M1536.2,-53.9605C1544.72,-53.0806 1553.32,-52.1924 1561.78,-51.3188"/>
<polygon fill="midnightblue" stroke="midnightblue" points="1535.84,-50.4793 1526.25,-54.9883 1536.56,-57.4423 1535.84,-50.4793"/>
</g>
<!-- Node9 -->
<g id="node9" class="node"><title>Node9</title>
<g id="a_node9"><a xlink:href="../../d9/daf/classcellsociety__team02_1_1_grid_view.html#a4571898657e750f62c2df84cb398e135" target="_top" xlink:title="cellsociety_team02.GridView.initialize">
<polygon fill="white" stroke="black" points="1780,-35.5 1780,-54.5 1974,-54.5 1974,-35.5 1780,-35.5"/>
<text text-anchor="middle" x="1877" y="-42.5" font-family="Helvetica,sans-Serif" font-size="10.00">cellsociety_team02.GridView.initialize</text>
</a>
</g>
</g>
<!-- Node8&#45;&gt;Node9 -->
<g id="edge8" class="edge"><title>Node8&#45;&gt;Node9</title>
<path fill="none" stroke="midnightblue" d="M1754.56,-43.359C1763.03,-43.4733 1771.57,-43.5888 1780,-43.7027"/>
<polygon fill="midnightblue" stroke="midnightblue" points="1754.34,-39.8558 1744.3,-43.2202 1754.25,-46.8551 1754.34,-39.8558"/>
</g>
<!-- Node9&#45;&gt;Node7 -->
<g id="edge9" class="edge"><title>Node9&#45;&gt;Node7</title>
<path fill="none" stroke="midnightblue" d="M1984.48,-55.1892C1993.2,-56.024 2001.91,-56.8571 2010.35,-57.6651"/>
<polygon fill="midnightblue" stroke="midnightblue" points="1984.53,-51.6783 1974.24,-54.2097 1983.86,-58.6465 1984.53,-51.6783"/>
</g>
<!-- Node10&#45;&gt;Node5 -->
<g id="edge11" class="edge"><title>Node10&#45;&gt;Node5</title>
<path fill="none" stroke="midnightblue" d="M1103.87,-51.3369C1113.57,-52.3856 1123.33,-53.4411 1132.86,-54.4712"/>
<polygon fill="midnightblue" stroke="midnightblue" points="1104.11,-47.843 1093.79,-50.2478 1103.36,-54.8024 1104.11,-47.843"/>
</g>
<!-- Node12 -->
<g id="node12" class="node"><title>Node12</title>
<g id="a_node12"><a xlink:href="../../d9/db5/classcellsociety__team02_1_1_x_m_l_parser.html#a14ccb1cf6658b9c38357d5bc4f176444" target="_top" xlink:title="cellsociety_team02.XMLParser.do\lProbability">
<polygon fill="white" stroke="black" points="428,-49 428,-79 604,-79 604,-49 428,-49"/>
<text text-anchor="start" x="436" y="-67" font-family="Helvetica,sans-Serif" font-size="10.00">cellsociety_team02.XMLParser.do</text>
<text text-anchor="middle" x="516" y="-56" font-family="Helvetica,sans-Serif" font-size="10.00">Probability</text>
</a>
</g>
</g>
<!-- Node11&#45;&gt;Node12 -->
<g id="edge13" class="edge"><title>Node11&#45;&gt;Node12</title>
<path fill="none" stroke="midnightblue" d="M399.637,-64C408.995,-64 418.452,-64 427.711,-64"/>
<polygon fill="midnightblue" stroke="midnightblue" points="399.534,-60.5001 389.534,-64 399.534,-67.5001 399.534,-60.5001"/>
</g>
<!-- Node12&#45;&gt;Node3 -->
<g id="edge14" class="edge"><title>Node12&#45;&gt;Node3</title>
<path fill="none" stroke="midnightblue" d="M614.182,-64C622.778,-64 631.524,-64 640.228,-64"/>
<polygon fill="midnightblue" stroke="midnightblue" points="614.171,-60.5001 604.171,-64 614.171,-67.5001 614.171,-60.5001"/>
</g>
<!-- Node14 -->
<g id="node14" class="node"><title>Node14</title>
<g id="a_node14"><a xlink:href="../../d9/db5/classcellsociety__team02_1_1_x_m_l_parser.html#afd9d58234bf5413d7759421f41f36e71" target="_top" xlink:title="cellsociety_team02.XMLParser.do\lRandom">
<polygon fill="white" stroke="black" points="428,-0 428,-30 604,-30 604,-0 428,-0"/>
<text text-anchor="start" x="436" y="-18" font-family="Helvetica,sans-Serif" font-size="10.00">cellsociety_team02.XMLParser.do</text>
<text text-anchor="middle" x="516" y="-7" font-family="Helvetica,sans-Serif" font-size="10.00">Random</text>
</a>
</g>
</g>
<!-- Node13&#45;&gt;Node14 -->
<g id="edge16" class="edge"><title>Node13&#45;&gt;Node14</title>
<path fill="none" stroke="midnightblue" d="M399.637,-15C408.995,-15 418.452,-15 427.711,-15"/>
<polygon fill="midnightblue" stroke="midnightblue" points="399.534,-11.5001 389.534,-15 399.534,-18.5001 399.534,-11.5001"/>
</g>
<!-- Node14&#45;&gt;Node3 -->
<g id="edge17" class="edge"><title>Node14&#45;&gt;Node3</title>
<path fill="none" stroke="midnightblue" d="M599.103,-32.1194C635.057,-39.6161 675.887,-48.1296 706.305,-54.472"/>
<polygon fill="midnightblue" stroke="midnightblue" points="599.609,-28.6496 589.105,-30.0346 598.18,-35.5022 599.609,-28.6496"/>
</g>
<!-- Node15&#45;&gt;Node2 -->
<g id="edge19" class="edge"><title>Node15&#45;&gt;Node2</title>
<path fill="none" stroke="midnightblue" d="M401.788,-113C410.437,-113 419.15,-113 427.696,-113"/>
<polygon fill="midnightblue" stroke="midnightblue" points="401.679,-109.5 391.679,-113 401.679,-116.5 401.679,-109.5"/>
</g>
</g>
</svg>
