<?xml version="1.0" encoding="UTF-8" standalone="no"?>
<!DOCTYPE svg PUBLIC "-//W3C//DTD SVG 1.1//EN"
 "http://www.w3.org/Graphics/SVG/1.1/DTD/svg11.dtd">
<!-- Generated by graphviz version 2.36.0 (20140111.2315)
 -->
<!-- Title: Cell.FishCell Pages: 1 -->
<svg width="245pt" height="242pt"
 viewBox="0.00 0.00 245.00 242.00" xmlns="http://www.w3.org/2000/svg" xmlns:xlink="http://www.w3.org/1999/xlink">
<g id="graph0" class="graph" transform="scale(1 1) rotate(0) translate(4 238)">
<title>Cell.FishCell</title>
<polygon fill="white" stroke="none" points="-4,4 -4,-238 241,-238 241,4 -4,4"/>
<!-- Node1 -->
<g id="node1" class="node"><title>Node1</title>
<polygon fill="#bfbfbf" stroke="black" points="72,-0.5 72,-19.5 144,-19.5 144,-0.5 72,-0.5"/>
<text text-anchor="middle" x="108" y="-7.5" font-family="Helvetica,sans-Serif" font-size="10.00">Cell.FishCell</text>
</g>
<!-- Node2 -->
<g id="node2" class="node"><title>Node2</title>
<g id="a_node2"><a xlink:href="../../d4/df2/class_cell_1_1_pred_prey_cell.html" target="_top" xlink:title="Cell.PredPreyCell">
<polygon fill="white" stroke="black" points="-0.5,-68.5 -0.5,-87.5 96.5,-87.5 96.5,-68.5 -0.5,-68.5"/>
<text text-anchor="middle" x="48" y="-75.5" font-family="Helvetica,sans-Serif" font-size="10.00">Cell.PredPreyCell</text>
</a>
</g>
</g>
<!-- Node2&#45;&gt;Node1 -->
<g id="edge1" class="edge"><title>Node2&#45;&gt;Node1</title>
<path fill="none" stroke="midnightblue" d="M62.8364,-60.68C74.5666,-47.7768 90.4932,-30.2575 99.9626,-19.8411"/>
<polygon fill="midnightblue" stroke="midnightblue" points="59.9809,-58.6179 55.844,-68.3717 65.1605,-63.3266 59.9809,-58.6179"/>
</g>
<!-- Node3 -->
<g id="node3" class="node"><title>Node3</title>
<g id="a_node3"><a xlink:href="../../d5/d5c/class_cell_1_1_cell.html" target="_top" xlink:title="Cell.Cell">
<polygon fill="white" stroke="black" points="52,-146.5 52,-165.5 106,-165.5 106,-146.5 52,-146.5"/>
<text text-anchor="middle" x="79" y="-153.5" font-family="Helvetica,sans-Serif" font-size="10.00">Cell.Cell</text>
</a>
</g>
</g>
<!-- Node3&#45;&gt;Node2 -->
<g id="edge2" class="edge"><title>Node3&#45;&gt;Node2</title>
<path fill="none" stroke="midnightblue" d="M67.0962,-137.681C65.2314,-134.543 63.4459,-131.237 62,-128 55.9377,-114.429 51.8029,-97.5673 49.6765,-87.5786"/>
<polygon fill="midnightblue" stroke="midnightblue" points="64.3191,-139.834 72.6689,-146.355 70.2085,-136.05 64.3191,-139.834"/>
</g>
<!-- Node5 -->
<g id="node5" class="node"><title>Node5</title>
<g id="a_node5"><a xlink:href="../../d0/d0a/class_patch_1_1_patch.html" target="_top" xlink:title="Patch.Patch">
<polygon fill="white" stroke="black" points="115,-68.5 115,-87.5 187,-87.5 187,-68.5 115,-68.5"/>
<text text-anchor="middle" x="151" y="-75.5" font-family="Helvetica,sans-Serif" font-size="10.00">Patch.Patch</text>
</a>
</g>
</g>
<!-- Node3&#45;&gt;Node5 -->
<g id="edge6" class="edge"><title>Node3&#45;&gt;Node5</title>
<path fill="none" stroke="#9a32cd" stroke-dasharray="5,2" d="M75.6251,-136.396C74.8662,-126.49 75.7296,-114.61 82,-106 89.8003,-95.2899 102.494,-88.8274 114.88,-84.9281"/>
<polygon fill="#9a32cd" stroke="#9a32cd" points="72.1764,-137.014 76.9695,-146.463 79.1148,-136.087 72.1764,-137.014"/>
<text text-anchor="middle" x="118" y="-120" font-family="Helvetica,sans-Serif" font-size="10.00"> myCurrentCell</text>
<text text-anchor="middle" x="118" y="-109" font-family="Helvetica,sans-Serif" font-size="10.00">myFutureCell</text>
</g>
<!-- Node4 -->
<g id="node4" class="node"><title>Node4</title>
<polygon fill="white" stroke="#bfbfbf" points="62,-214.5 62,-233.5 184,-233.5 184,-214.5 62,-214.5"/>
<text text-anchor="middle" x="123" y="-221.5" font-family="Helvetica,sans-Serif" font-size="10.00">Map&lt; String, String &gt;</text>
</g>
<!-- Node4&#45;&gt;Node3 -->
<g id="edge3" class="edge"><title>Node4&#45;&gt;Node3</title>
<path fill="none" stroke="#9a32cd" stroke-dasharray="5,2" d="M92.2706,-209.115C87.38,-205.543 82.9632,-201.201 80,-196 74.7024,-186.702 75.5631,-174.025 76.9984,-165.682"/>
<polygon fill="#9a32cd" stroke="#9a32cd" points="90.4378,-212.096 100.776,-214.416 94.1405,-206.156 90.4378,-212.096"/>
<text text-anchor="middle" x="117" y="-187.5" font-family="Helvetica,sans-Serif" font-size="10.00"> myParameters</text>
</g>
<!-- Node4&#45;&gt;Node5 -->
<g id="edge5" class="edge"><title>Node4&#45;&gt;Node5</title>
<path fill="none" stroke="#9a32cd" stroke-dasharray="5,2" d="M145.492,-207.706C148.946,-204.283 152.017,-200.356 154,-196 170.919,-158.828 159.42,-107.9 153.699,-87.7335"/>
<polygon fill="#9a32cd" stroke="#9a32cd" points="142.983,-205.245 137.596,-214.368 147.496,-210.595 142.983,-205.245"/>
<text text-anchor="middle" x="200" y="-153.5" font-family="Helvetica,sans-Serif" font-size="10.00"> myParameters</text>
</g>
<!-- Node5&#45;&gt;Node1 -->
<g id="edge4" class="edge"><title>Node5&#45;&gt;Node1</title>
<path fill="none" stroke="#9a32cd" stroke-dasharray="5,2" d="M139.884,-59.9377C131.527,-47.112 120.417,-30.0591 113.76,-19.8411"/>
<polygon fill="#9a32cd" stroke="#9a32cd" points="136.987,-61.9036 145.379,-68.3717 142.852,-58.0824 136.987,-61.9036"/>
<text text-anchor="middle" x="158" y="-41.5" font-family="Helvetica,sans-Serif" font-size="10.00"> newMove</text>
</g>
</g>
</svg>
