<?xml version="1.0" encoding="UTF-8" standalone="no"?>
<!DOCTYPE svg PUBLIC "-//W3C//DTD SVG 1.1//EN"
 "http://www.w3.org/Graphics/SVG/1.1/DTD/svg11.dtd">
<!-- Generated by graphviz version 2.36.0 (20140111.2315)
 -->
<!-- Title: Cell.SharkCell Pages: 1 -->
<svg width="143pt" height="212pt"
 viewBox="0.00 0.00 143.00 212.00" xmlns="http://www.w3.org/2000/svg" xmlns:xlink="http://www.w3.org/1999/xlink">
<g id="graph0" class="graph" transform="scale(1 1) rotate(0) translate(4 208)">
<title>Cell.SharkCell</title>
<polygon fill="white" stroke="none" points="-4,4 -4,-208 139,-208 139,4 -4,4"/>
<!-- Node1 -->
<g id="node1" class="node"><title>Node1</title>
<polygon fill="#bfbfbf" stroke="black" points="20,-0.5 20,-19.5 102,-19.5 102,-0.5 20,-0.5"/>
<text text-anchor="middle" x="61" y="-7.5" font-family="Helvetica,sans-Serif" font-size="10.00">Cell.SharkCell</text>
</g>
<!-- Node2 -->
<g id="node2" class="node"><title>Node2</title>
<g id="a_node2"><a xlink:href="../../d4/df2/class_cell_1_1_pred_prey_cell.html" target="_top" xlink:title="Cell.PredPreyCell">
<polygon fill="white" stroke="black" points="12.5,-58.5 12.5,-77.5 109.5,-77.5 109.5,-58.5 12.5,-58.5"/>
<text text-anchor="middle" x="61" y="-65.5" font-family="Helvetica,sans-Serif" font-size="10.00">Cell.PredPreyCell</text>
</a>
</g>
</g>
<!-- Node2&#45;&gt;Node1 -->
<g id="edge1" class="edge"><title>Node2&#45;&gt;Node1</title>
<path fill="none" stroke="midnightblue" d="M61,-47.953C61,-38.2875 61,-27.0312 61,-19.5052"/>
<polygon fill="midnightblue" stroke="midnightblue" points="57.5001,-48.25 61,-58.25 64.5001,-48.25 57.5001,-48.25"/>
</g>
<!-- Node3 -->
<g id="node3" class="node"><title>Node3</title>
<g id="a_node3"><a xlink:href="../../d5/d5c/class_cell_1_1_cell.html" target="_top" xlink:title="Cell.Cell">
<polygon fill="white" stroke="black" points="34,-116.5 34,-135.5 88,-135.5 88,-116.5 34,-116.5"/>
<text text-anchor="middle" x="61" y="-123.5" font-family="Helvetica,sans-Serif" font-size="10.00">Cell.Cell</text>
</a>
</g>
</g>
<!-- Node3&#45;&gt;Node2 -->
<g id="edge2" class="edge"><title>Node3&#45;&gt;Node2</title>
<path fill="none" stroke="midnightblue" d="M61,-105.953C61,-96.2875 61,-85.0312 61,-77.5052"/>
<polygon fill="midnightblue" stroke="midnightblue" points="57.5001,-106.25 61,-116.25 64.5001,-106.25 57.5001,-106.25"/>
</g>
<!-- Node4 -->
<g id="node4" class="node"><title>Node4</title>
<polygon fill="white" stroke="#bfbfbf" points="0,-184.5 0,-203.5 122,-203.5 122,-184.5 0,-184.5"/>
<text text-anchor="middle" x="61" y="-191.5" font-family="Helvetica,sans-Serif" font-size="10.00">Map&lt; String, String &gt;</text>
</g>
<!-- Node4&#45;&gt;Node3 -->
<g id="edge3" class="edge"><title>Node4&#45;&gt;Node3</title>
<path fill="none" stroke="#9a32cd" stroke-dasharray="5,2" d="M61,-174.041C61,-161.472 61,-145.563 61,-135.841"/>
<polygon fill="#9a32cd" stroke="#9a32cd" points="57.5001,-174.372 61,-184.372 64.5001,-174.372 57.5001,-174.372"/>
<text text-anchor="middle" x="98" y="-157.5" font-family="Helvetica,sans-Serif" font-size="10.00"> myParameters</text>
</g>
</g>
</svg>
