<?xml version="1.0" encoding="UTF-8" standalone="no"?>
<!DOCTYPE svg PUBLIC "-//W3C//DTD SVG 1.1//EN"
 "http://www.w3.org/Graphics/SVG/1.1/DTD/svg11.dtd">
<!-- Generated by graphviz version 2.36.0 (20140111.2315)
 -->
<!-- Title: /tmp/git/duke&#45;compsci308&#45;fall2014/cellsociety_team02/repository/src Pages: 1 -->
<svg width="382pt" height="111pt"
 viewBox="0.00 0.00 382.00 111.00" xmlns="http://www.w3.org/2000/svg" xmlns:xlink="http://www.w3.org/1999/xlink">
<g id="graph0" class="graph" transform="scale(1 1) rotate(0) translate(4 107)">
<title>/tmp/git/duke&#45;compsci308&#45;fall2014/cellsociety_team02/repository/src</title>
<polygon fill="white" stroke="none" points="-4,4 -4,-107 378,-107 378,4 -4,4"/>
<g id="clust1" class="cluster"><title>clusterdir_65ca35833c11da6a0f506d2c6bea2424</title>
<g id="a_clust1"><a xlink:href="dir_65ca35833c11da6a0f506d2c6bea2424.html" target="_top" xlink:title="repository">
<polygon fill="#ddddee" stroke="black" points="8,-8 8,-95 366,-95 366,-8 8,-8"/>
<text text-anchor="middle" x="187" y="-83" font-family="Helvetica,sans-Serif" font-size="10.00">repository</text>
</a>
</g>
</g>
<g id="clust2" class="cluster"><title>clusterdir_d60803310bfc3b01ede1db744d0d32c9</title>
<g id="a_clust2"><a xlink:href="dir_d60803310bfc3b01ede1db744d0d32c9.html" target="_top">
<polygon fill="#eeeeff" stroke="black" points="16,-16 16,-68 358,-68 358,-16 16,-16"/>
</a>
</g>
</g>
<!-- dir_d60803310bfc3b01ede1db744d0d32c9 -->
<g id="node1" class="node"><title>dir_d60803310bfc3b01ede1db744d0d32c9</title>
<text text-anchor="middle" x="323" y="-39.5" font-family="Helvetica,sans-Serif" font-size="10.00">src</text>
</g>
<!-- dir_7304963417c58adb85e8c30468a40710 -->
<g id="node2" class="node"><title>dir_7304963417c58adb85e8c30468a40710</title>
<g id="a_node2"><a xlink:href="dir_7304963417c58adb85e8c30468a40710.html" target="_top" xlink:title="Cell">
<polygon fill="white" stroke="black" points="278,-60 224,-60 224,-24 278,-24 278,-60"/>
<text text-anchor="middle" x="251" y="-39.5" font-family="Helvetica,sans-Serif" font-size="10.00">Cell</text>
</a>
</g>
</g>
<!-- dir_5a6931efe0e08c4d98e10ed3ac14cb02 -->
<g id="node3" class="node"><title>dir_5a6931efe0e08c4d98e10ed3ac14cb02</title>
<g id="a_node3"><a xlink:href="dir_5a6931efe0e08c4d98e10ed3ac14cb02.html" target="_top" xlink:title="cellsociety_team02">
<polygon fill="white" stroke="black" points="205.25,-60 96.75,-60 96.75,-24 205.25,-24 205.25,-60"/>
<text text-anchor="middle" x="151" y="-39.5" font-family="Helvetica,sans-Serif" font-size="10.00">cellsociety_team02</text>
</a>
</g>
</g>
<!-- dir_7691a5ba02e1e0a73a45ef3615e9c88b -->
<g id="node4" class="node"><title>dir_7691a5ba02e1e0a73a45ef3615e9c88b</title>
<g id="a_node4"><a xlink:href="dir_7691a5ba02e1e0a73a45ef3615e9c88b.html" target="_top" xlink:title="Patch">
<polygon fill="white" stroke="black" points="78,-60 24,-60 24,-24 78,-24 78,-60"/>
<text text-anchor="middle" x="51" y="-39.5" font-family="Helvetica,sans-Serif" font-size="10.00">Patch</text>
</a>
</g>
</g>
</g>
</svg>
