<?xml version="1.0" encoding="UTF-8" standalone="no"?>
<!DOCTYPE svg PUBLIC "-//W3C//DTD SVG 1.1//EN"
 "http://www.w3.org/Graphics/SVG/1.1/DTD/svg11.dtd">
<!-- Generated by graphviz version 2.36.0 (20140111.2315)
 -->
<!-- Title: Graphical Class Hierarchy Pages: 1 -->
<svg width="226pt" height="104pt"
 viewBox="0.00 0.00 226.00 104.00" xmlns="http://www.w3.org/2000/svg" xmlns:xlink="http://www.w3.org/1999/xlink">
<g id="graph0" class="graph" transform="scale(1 1) rotate(0) translate(4 100)">
<title>Graphical Class Hierarchy</title>
<polygon fill="white" stroke="none" points="-4,4 -4,-100 222,-100 222,4 -4,4"/>
<!-- Node1 -->
<g id="node1" class="node"><title>Node1</title>
<g id="a_node1"><a xlink:href="d0/d0a/class_patch_1_1_patch.html" target="_top" xlink:title="Patch.Patch">
<polygon fill="white" stroke="black" points="0,-38.5 0,-57.5 72,-57.5 72,-38.5 0,-38.5"/>
<text text-anchor="middle" x="36" y="-45.5" font-family="Helvetica,sans-Serif" font-size="10.00">Patch.Patch</text>
</a>
</g>
</g>
<!-- Node2 -->
<g id="node2" class="node"><title>Node2</title>
<g id="a_node2"><a xlink:href="d4/d2a/class_patch_1_1_fire_patch.html" target="_top" xlink:title="Patch.FirePatch">
<polygon fill="white" stroke="black" points="118.5,-76.5 118.5,-95.5 207.5,-95.5 207.5,-76.5 118.5,-76.5"/>
<text text-anchor="middle" x="163" y="-83.5" font-family="Helvetica,sans-Serif" font-size="10.00">Patch.FirePatch</text>
</a>
</g>
</g>
<!-- Node1&#45;&gt;Node2 -->
<g id="edge1" class="edge"><title>Node1&#45;&gt;Node2</title>
<path fill="none" stroke="midnightblue" d="M78.2345,-60.5353C95.2393,-65.7048 114.629,-71.5991 130.467,-76.4141"/>
<polygon fill="midnightblue" stroke="midnightblue" points="79.1285,-57.149 68.5428,-57.589 77.0924,-63.8463 79.1285,-57.149"/>
</g>
<!-- Node3 -->
<g id="node3" class="node"><title>Node3</title>
<g id="a_node3"><a xlink:href="d3/d3d/class_patch_1_1_generic_patch.html" target="_top" xlink:title="Patch.GenericPatch">
<polygon fill="white" stroke="black" points="108.5,-38.5 108.5,-57.5 217.5,-57.5 217.5,-38.5 108.5,-38.5"/>
<text text-anchor="middle" x="163" y="-45.5" font-family="Helvetica,sans-Serif" font-size="10.00">Patch.GenericPatch</text>
</a>
</g>
</g>
<!-- Node1&#45;&gt;Node3 -->
<g id="edge2" class="edge"><title>Node1&#45;&gt;Node3</title>
<path fill="none" stroke="midnightblue" d="M82.244,-48C90.7439,-48 99.7058,-48 108.431,-48"/>
<polygon fill="midnightblue" stroke="midnightblue" points="82.1522,-44.5001 72.1521,-48 82.1521,-51.5001 82.1522,-44.5001"/>
</g>
<!-- Node4 -->
<g id="node4" class="node"><title>Node4</title>
<g id="a_node4"><a xlink:href="d0/d3d/class_patch_1_1_sugar_patch.html" target="_top" xlink:title="Patch.SugarPatch">
<polygon fill="white" stroke="black" points="112.5,-0.5 112.5,-19.5 213.5,-19.5 213.5,-0.5 112.5,-0.5"/>
<text text-anchor="middle" x="163" y="-7.5" font-family="Helvetica,sans-Serif" font-size="10.00">Patch.SugarPatch</text>
</a>
</g>
</g>
<!-- Node1&#45;&gt;Node4 -->
<g id="edge3" class="edge"><title>Node1&#45;&gt;Node4</title>
<path fill="none" stroke="midnightblue" d="M78.2345,-35.4647C95.2393,-30.2952 114.629,-24.4009 130.467,-19.5859"/>
<polygon fill="midnightblue" stroke="midnightblue" points="77.0924,-32.1537 68.5428,-38.411 79.1285,-38.851 77.0924,-32.1537"/>
</g>
</g>
</svg>
