<?xml version="1.0" encoding="UTF-8" standalone="no"?>
<!DOCTYPE svg PUBLIC "-//W3C//DTD SVG 1.1//EN"
 "http://www.w3.org/Graphics/SVG/1.1/DTD/svg11.dtd">
<!-- Generated by graphviz version 2.36.0 (20140111.2315)
 -->
<!-- Title: Graphical Class Hierarchy Pages: 1 -->
<svg width="330pt" height="180pt"
 viewBox="0.00 0.00 330.00 180.00" xmlns="http://www.w3.org/2000/svg" xmlns:xlink="http://www.w3.org/1999/xlink">
<g id="graph0" class="graph" transform="scale(1 1) rotate(0) translate(4 176)">
<title>Graphical Class Hierarchy</title>
<polygon fill="white" stroke="none" points="-4,4 -4,-176 326,-176 326,4 -4,4"/>
<!-- Node1 -->
<g id="node1" class="node"><title>Node1</title>
<g id="a_node1"><a xlink:href="d5/d5c/class_cell_1_1_cell.html" target="_top" xlink:title="Cell.Cell">
<polygon fill="white" stroke="black" points="0,-76.5 0,-95.5 54,-95.5 54,-76.5 0,-76.5"/>
<text text-anchor="middle" x="27" y="-83.5" font-family="Helvetica,sans-Serif" font-size="10.00">Cell.Cell</text>
</a>
</g>
</g>
<!-- Node2 -->
<g id="node2" class="node"><title>Node2</title>
<g id="a_node2"><a xlink:href="d5/de8/class_cell_1_1_fire_cell.html" target="_top" xlink:title="Cell.FireCell">
<polygon fill="white" stroke="black" points="111.5,-152.5 111.5,-171.5 182.5,-171.5 182.5,-152.5 111.5,-152.5"/>
<text text-anchor="middle" x="147" y="-159.5" font-family="Helvetica,sans-Serif" font-size="10.00">Cell.FireCell</text>
</a>
</g>
</g>
<!-- Node1&#45;&gt;Node2 -->
<g id="edge1" class="edge"><title>Node1&#45;&gt;Node2</title>
<path fill="none" stroke="midnightblue" d="M43.1288,-103.349C54.8415,-115.861 72.0489,-132.355 90,-143 96.5347,-146.875 103.971,-150.097 111.241,-152.721"/>
<polygon fill="midnightblue" stroke="midnightblue" points="45.5881,-100.851 36.2728,-95.8039 40.4073,-105.559 45.5881,-100.851"/>
</g>
<!-- Node3 -->
<g id="node3" class="node"><title>Node3</title>
<g id="a_node3"><a xlink:href="dd/d55/class_cell_1_1_life_cell.html" target="_top" xlink:title="Cell.LifeCell">
<polygon fill="white" stroke="black" points="111.5,-114.5 111.5,-133.5 182.5,-133.5 182.5,-114.5 111.5,-114.5"/>
<text text-anchor="middle" x="147" y="-121.5" font-family="Helvetica,sans-Serif" font-size="10.00">Cell.LifeCell</text>
</a>
</g>
</g>
<!-- Node1&#45;&gt;Node3 -->
<g id="edge2" class="edge"><title>Node1&#45;&gt;Node3</title>
<path fill="none" stroke="midnightblue" d="M64.1308,-97.6354C80.7919,-103.001 100.332,-109.293 116.143,-114.385"/>
<polygon fill="midnightblue" stroke="midnightblue" points="64.7795,-94.1673 54.188,-94.4334 62.6338,-100.83 64.7795,-94.1673"/>
</g>
<!-- Node4 -->
<g id="node4" class="node"><title>Node4</title>
<g id="a_node4"><a xlink:href="d4/df2/class_cell_1_1_pred_prey_cell.html" target="_top" xlink:title="Cell.PredPreyCell">
<polygon fill="white" stroke="black" points="98.5,-76.5 98.5,-95.5 195.5,-95.5 195.5,-76.5 98.5,-76.5"/>
<text text-anchor="middle" x="147" y="-83.5" font-family="Helvetica,sans-Serif" font-size="10.00">Cell.PredPreyCell</text>
</a>
</g>
</g>
<!-- Node1&#45;&gt;Node4 -->
<g id="edge3" class="edge"><title>Node1&#45;&gt;Node4</title>
<path fill="none" stroke="midnightblue" d="M64.3755,-86C75.0118,-86 86.8041,-86 98.0421,-86"/>
<polygon fill="midnightblue" stroke="midnightblue" points="64.1881,-82.5001 54.188,-86 64.188,-89.5001 64.1881,-82.5001"/>
</g>
<!-- Node7 -->
<g id="node7" class="node"><title>Node7</title>
<g id="a_node7"><a xlink:href="d4/d7a/class_cell_1_1_segregation_cell.html" target="_top" xlink:title="Cell.SegregationCell">
<polygon fill="white" stroke="black" points="90.5,-38.5 90.5,-57.5 203.5,-57.5 203.5,-38.5 90.5,-38.5"/>
<text text-anchor="middle" x="147" y="-45.5" font-family="Helvetica,sans-Serif" font-size="10.00">Cell.SegregationCell</text>
</a>
</g>
</g>
<!-- Node1&#45;&gt;Node7 -->
<g id="edge6" class="edge"><title>Node1&#45;&gt;Node7</title>
<path fill="none" stroke="midnightblue" d="M64.1308,-74.3646C80.7919,-68.9992 100.332,-62.7068 116.143,-57.6151"/>
<polygon fill="midnightblue" stroke="midnightblue" points="62.6338,-71.1697 54.188,-77.5666 64.7795,-77.8327 62.6338,-71.1697"/>
</g>
<!-- Node8 -->
<g id="node8" class="node"><title>Node8</title>
<g id="a_node8"><a xlink:href="d4/d3e/class_cell_1_1_sugar_cell.html" target="_top" xlink:title="Cell.SugarCell">
<polygon fill="white" stroke="black" points="105.5,-0.5 105.5,-19.5 188.5,-19.5 188.5,-0.5 105.5,-0.5"/>
<text text-anchor="middle" x="147" y="-7.5" font-family="Helvetica,sans-Serif" font-size="10.00">Cell.SugarCell</text>
</a>
</g>
</g>
<!-- Node1&#45;&gt;Node8 -->
<g id="edge7" class="edge"><title>Node1&#45;&gt;Node8</title>
<path fill="none" stroke="midnightblue" d="M43.1288,-68.6507C54.8415,-56.139 72.0489,-39.6449 90,-29 96.2698,-25.2821 103.369,-22.1649 110.356,-19.6014"/>
<polygon fill="midnightblue" stroke="midnightblue" points="40.4073,-66.4413 36.2728,-76.1961 45.5881,-71.1487 40.4073,-66.4413"/>
</g>
<!-- Node5 -->
<g id="node5" class="node"><title>Node5</title>
<g id="a_node5"><a xlink:href="da/db4/class_cell_1_1_fish_cell.html" target="_top" xlink:title="Cell.FishCell">
<polygon fill="white" stroke="black" points="245,-95.5 245,-114.5 317,-114.5 317,-95.5 245,-95.5"/>
<text text-anchor="middle" x="281" y="-102.5" font-family="Helvetica,sans-Serif" font-size="10.00">Cell.FishCell</text>
</a>
</g>
</g>
<!-- Node4&#45;&gt;Node5 -->
<g id="edge4" class="edge"><title>Node4&#45;&gt;Node5</title>
<path fill="none" stroke="midnightblue" d="M205.718,-94.3079C219.042,-96.2257 232.823,-98.2093 244.843,-99.9395"/>
<polygon fill="midnightblue" stroke="midnightblue" points="206.052,-90.8199 195.655,-92.8594 205.054,-97.7485 206.052,-90.8199"/>
</g>
<!-- Node6 -->
<g id="node6" class="node"><title>Node6</title>
<g id="a_node6"><a xlink:href="df/d99/class_cell_1_1_shark_cell.html" target="_top" xlink:title="Cell.SharkCell">
<polygon fill="white" stroke="black" points="240,-57.5 240,-76.5 322,-76.5 322,-57.5 240,-57.5"/>
<text text-anchor="middle" x="281" y="-64.5" font-family="Helvetica,sans-Serif" font-size="10.00">Cell.SharkCell</text>
</a>
</g>
</g>
<!-- Node4&#45;&gt;Node6 -->
<g id="edge5" class="edge"><title>Node4&#45;&gt;Node6</title>
<path fill="none" stroke="midnightblue" d="M205.654,-77.7014C217.174,-76.0432 229.038,-74.3354 239.813,-72.7845"/>
<polygon fill="midnightblue" stroke="midnightblue" points="205.054,-74.2515 195.655,-79.1406 206.052,-81.1801 205.054,-74.2515"/>
</g>
</g>
</svg>
