<?xml version="1.0" encoding="UTF-8" standalone="no"?>
<!DOCTYPE svg PUBLIC "-//W3C//DTD SVG 1.1//EN"
 "http://www.w3.org/Graphics/SVG/1.1/DTD/svg11.dtd">
<!-- Generated by graphviz version 2.36.0 (20140111.2315)
 -->
<!-- Title: Patch.Patch.updateState Pages: 1 -->
<svg width="2330pt" height="116pt"
 viewBox="0.00 0.00 2330.00 116.00" xmlns="http://www.w3.org/2000/svg" xmlns:xlink="http://www.w3.org/1999/xlink">
<g id="graph0" class="graph" transform="scale(1 1) rotate(0) translate(4 112)">
<title>Patch.Patch.updateState</title>
<polygon fill="white" stroke="none" points="-4,4 -4,-112 2326,-112 2326,4 -4,4"/>
<!-- Node1 -->
<g id="node1" class="node"><title>Node1</title>
<polygon fill="#bfbfbf" stroke="black" points="0.5,-76.5 0.5,-95.5 135.5,-95.5 135.5,-76.5 0.5,-76.5"/>
<text text-anchor="middle" x="68" y="-83.5" font-family="Helvetica,sans-Serif" font-size="10.00">Patch.Patch.updateState</text>
</g>
<!-- Node2 -->
<g id="node2" class="node"><title>Node2</title>
<g id="a_node2"><a xlink:href="../../df/d71/classcellsociety__team02_1_1_grid_model.html#aefe267680baa28646953d3fc833c9430" target="_top" xlink:title="cellsociety_team02.GridModel.update\lPatchesAndCells">
<polygon fill="white" stroke="black" points="172.5,-71 172.5,-101 369.5,-101 369.5,-71 172.5,-71"/>
<text text-anchor="start" x="180.5" y="-89" font-family="Helvetica,sans-Serif" font-size="10.00">cellsociety_team02.GridModel.update</text>
<text text-anchor="middle" x="271" y="-78" font-family="Helvetica,sans-Serif" font-size="10.00">PatchesAndCells</text>
</a>
</g>
</g>
<!-- Node1&#45;&gt;Node2 -->
<g id="edge1" class="edge"><title>Node1&#45;&gt;Node2</title>
<path fill="none" stroke="midnightblue" d="M145.732,-86C154.432,-86 163.385,-86 172.308,-86"/>
<polygon fill="midnightblue" stroke="midnightblue" points="145.651,-82.5001 135.651,-86 145.651,-89.5001 145.651,-82.5001"/>
</g>
<!-- Node3 -->
<g id="node3" class="node"><title>Node3</title>
<g id="a_node3"><a xlink:href="../../df/d71/classcellsociety__team02_1_1_grid_model.html#a866f20a5152d615d686b4412ed6d4e46" target="_top" xlink:title="cellsociety_team02.GridModel.update">
<polygon fill="white" stroke="black" points="406.5,-76.5 406.5,-95.5 603.5,-95.5 603.5,-76.5 406.5,-76.5"/>
<text text-anchor="middle" x="505" y="-83.5" font-family="Helvetica,sans-Serif" font-size="10.00">cellsociety_team02.GridModel.update</text>
</a>
</g>
</g>
<!-- Node2&#45;&gt;Node3 -->
<g id="edge2" class="edge"><title>Node2&#45;&gt;Node3</title>
<path fill="none" stroke="midnightblue" d="M379.722,-86C388.618,-86 397.58,-86 406.396,-86"/>
<polygon fill="midnightblue" stroke="midnightblue" points="379.717,-82.5001 369.716,-86 379.716,-89.5001 379.717,-82.5001"/>
</g>
<!-- Node4 -->
<g id="node4" class="node"><title>Node4</title>
<g id="a_node4"><a xlink:href="../../d9/daf/classcellsociety__team02_1_1_grid_view.html#a27a105e1810531f4958f9fc192c3cef1" target="_top" xlink:title="cellsociety_team02.GridView.step">
<polygon fill="white" stroke="black" points="640,-76.5 640,-95.5 816,-95.5 816,-76.5 640,-76.5"/>
<text text-anchor="middle" x="728" y="-83.5" font-family="Helvetica,sans-Serif" font-size="10.00">cellsociety_team02.GridView.step</text>
</a>
</g>
</g>
<!-- Node3&#45;&gt;Node4 -->
<g id="edge3" class="edge"><title>Node3&#45;&gt;Node4</title>
<path fill="none" stroke="midnightblue" d="M613.76,-86C622.454,-86 631.171,-86 639.695,-86"/>
<polygon fill="midnightblue" stroke="midnightblue" points="613.577,-82.5001 603.577,-86 613.577,-89.5001 613.577,-82.5001"/>
</g>
<!-- Node5 -->
<g id="node5" class="node"><title>Node5</title>
<g id="a_node5"><a xlink:href="../../d9/daf/classcellsociety__team02_1_1_grid_view.html#afcc7b83f62c116e77ab0843bfd4156b8" target="_top" xlink:title="cellsociety_team02.GridView.make\lButtons">
<polygon fill="white" stroke="black" points="1718,-49 1718,-79 1900,-79 1900,-49 1718,-49"/>
<text text-anchor="start" x="1726" y="-67" font-family="Helvetica,sans-Serif" font-size="10.00">cellsociety_team02.GridView.make</text>
<text text-anchor="middle" x="1809" y="-56" font-family="Helvetica,sans-Serif" font-size="10.00">Buttons</text>
</a>
</g>
</g>
<!-- Node4&#45;&gt;Node5 -->
<g id="edge4" class="edge"><title>Node4&#45;&gt;Node5</title>
<path fill="none" stroke="midnightblue" d="M826.045,-93.8849C912.139,-100.197 1041.35,-108 1154,-108 1154,-108 1154,-108 1376,-108 1512.29,-108 1546.8,-105.228 1682,-88 1700,-85.7059 1719.31,-82.4401 1737.27,-79.0537"/>
<polygon fill="midnightblue" stroke="midnightblue" points="826.257,-90.3911 816.026,-93.1428 825.74,-97.3719 826.257,-90.3911"/>
</g>
<!-- Node8 -->
<g id="node8" class="node"><title>Node8</title>
<g id="a_node8"><a xlink:href="../../d9/daf/classcellsociety__team02_1_1_grid_view.html#aa1d09688b48a4a95513e15eea18ec0e6" target="_top" xlink:title="cellsociety_team02.GridView.start\lHandler">
<polygon fill="white" stroke="black" points="852,-49 852,-79 1030,-79 1030,-49 852,-49"/>
<text text-anchor="start" x="860" y="-67" font-family="Helvetica,sans-Serif" font-size="10.00">cellsociety_team02.GridView.start</text>
<text text-anchor="middle" x="941" y="-56" font-family="Helvetica,sans-Serif" font-size="10.00">Handler</text>
</a>
</g>
</g>
<!-- Node4&#45;&gt;Node8 -->
<g id="edge7" class="edge"><title>Node4&#45;&gt;Node8</title>
<path fill="none" stroke="midnightblue" d="M826.063,-75.8797C834.642,-74.9851 843.297,-74.0828 851.797,-73.1965"/>
<polygon fill="midnightblue" stroke="midnightblue" points="825.623,-72.4065 816.04,-76.9247 826.349,-79.3688 825.623,-72.4065"/>
</g>
<!-- Node6 -->
<g id="node6" class="node"><title>Node6</title>
<g id="a_node6"><a xlink:href="../../d9/daf/classcellsociety__team02_1_1_grid_view.html#a4571898657e750f62c2df84cb398e135" target="_top" xlink:title="cellsociety_team02.GridView.initialize">
<polygon fill="white" stroke="black" points="1936,-54.5 1936,-73.5 2130,-73.5 2130,-54.5 1936,-54.5"/>
<text text-anchor="middle" x="2033" y="-61.5" font-family="Helvetica,sans-Serif" font-size="10.00">cellsociety_team02.GridView.initialize</text>
</a>
</g>
</g>
<!-- Node5&#45;&gt;Node6 -->
<g id="edge5" class="edge"><title>Node5&#45;&gt;Node6</title>
<path fill="none" stroke="midnightblue" d="M1910.56,-64C1919.03,-64 1927.57,-64 1936,-64"/>
<polygon fill="midnightblue" stroke="midnightblue" points="1910.3,-60.5001 1900.3,-64 1910.3,-67.5001 1910.3,-60.5001"/>
</g>
<!-- Node7 -->
<g id="node7" class="node"><title>Node7</title>
<g id="a_node7"><a xlink:href="../../d9/daf/classcellsociety__team02_1_1_grid_view.html#ada183e314764db770009f944205490df" target="_top" xlink:title="cellsociety_team02.GridView.\lGridView">
<polygon fill="white" stroke="black" points="2166.5,-49 2166.5,-79 2321.5,-79 2321.5,-49 2166.5,-49"/>
<text text-anchor="start" x="2174.5" y="-67" font-family="Helvetica,sans-Serif" font-size="10.00">cellsociety_team02.GridView.</text>
<text text-anchor="middle" x="2244" y="-56" font-family="Helvetica,sans-Serif" font-size="10.00">GridView</text>
</a>
</g>
</g>
<!-- Node6&#45;&gt;Node7 -->
<g id="edge6" class="edge"><title>Node6&#45;&gt;Node7</title>
<path fill="none" stroke="midnightblue" d="M2140.48,-64C2149.2,-64 2157.91,-64 2166.35,-64"/>
<polygon fill="midnightblue" stroke="midnightblue" points="2140.24,-60.5001 2130.24,-64 2140.24,-67.5001 2140.24,-60.5001"/>
</g>
<!-- Node9 -->
<g id="node9" class="node"><title>Node9</title>
<g id="a_node9"><a xlink:href="../../d9/daf/classcellsociety__team02_1_1_grid_view.html#a27ed5fc9bbf44efab6d23cb07096c36a" target="_top" xlink:title="cellsociety_team02.GridView.start\lAnimation">
<polygon fill="white" stroke="black" points="1066,-49 1066,-79 1244,-79 1244,-49 1066,-49"/>
<text text-anchor="start" x="1074" y="-67" font-family="Helvetica,sans-Serif" font-size="10.00">cellsociety_team02.GridView.start</text>
<text text-anchor="middle" x="1155" y="-56" font-family="Helvetica,sans-Serif" font-size="10.00">Animation</text>
</a>
</g>
</g>
<!-- Node8&#45;&gt;Node9 -->
<g id="edge8" class="edge"><title>Node8&#45;&gt;Node9</title>
<path fill="none" stroke="midnightblue" d="M1040.11,-64C1048.7,-64 1057.36,-64 1065.87,-64"/>
<polygon fill="midnightblue" stroke="midnightblue" points="1040.07,-60.5001 1030.07,-64 1040.07,-67.5001 1040.07,-60.5001"/>
</g>
<!-- Node10 -->
<g id="node10" class="node"><title>Node10</title>
<g id="a_node10"><a xlink:href="../../d9/daf/classcellsociety__team02_1_1_grid_view.html#a7b94250b9b4e419eb3b97394e3b86052" target="_top" xlink:title="cellsociety_team02.GridView.play\lPause">
<polygon fill="white" stroke="black" points="1506.5,-49 1506.5,-79 1681.5,-79 1681.5,-49 1506.5,-49"/>
<text text-anchor="start" x="1514.5" y="-67" font-family="Helvetica,sans-Serif" font-size="10.00">cellsociety_team02.GridView.play</text>
<text text-anchor="middle" x="1594" y="-56" font-family="Helvetica,sans-Serif" font-size="10.00">Pause</text>
</a>
</g>
</g>
<!-- Node9&#45;&gt;Node10 -->
<g id="edge9" class="edge"><title>Node9&#45;&gt;Node10</title>
<path fill="none" stroke="midnightblue" d="M1254.2,-64C1329.97,-64 1433.78,-64 1506.46,-64"/>
<polygon fill="midnightblue" stroke="midnightblue" points="1254.17,-60.5001 1244.17,-64 1254.17,-67.5001 1254.17,-60.5001"/>
</g>
<!-- Node11 -->
<g id="node11" class="node"><title>Node11</title>
<g id="a_node11"><a xlink:href="../../d9/daf/classcellsociety__team02_1_1_grid_view.html#a21d8f68b9be54d2f23f17af421c78b12" target="_top" xlink:title="cellsociety_team02.GridView.update\lSpeed">
<polygon fill="white" stroke="black" points="1280.5,-2 1280.5,-32 1469.5,-32 1469.5,-2 1280.5,-2"/>
<text text-anchor="start" x="1288.5" y="-20" font-family="Helvetica,sans-Serif" font-size="10.00">cellsociety_team02.GridView.update</text>
<text text-anchor="middle" x="1375" y="-9" font-family="Helvetica,sans-Serif" font-size="10.00">Speed</text>
</a>
</g>
</g>
<!-- Node9&#45;&gt;Node11 -->
<g id="edge11" class="edge"><title>Node9&#45;&gt;Node11</title>
<path fill="none" stroke="midnightblue" d="M1235.46,-46.8692C1258.02,-42.0053 1282.4,-36.7476 1304.34,-32.019"/>
<polygon fill="midnightblue" stroke="midnightblue" points="1234.61,-43.4707 1225.58,-48.9997 1236.09,-50.3135 1234.61,-43.4707"/>
</g>
<!-- Node10&#45;&gt;Node5 -->
<g id="edge10" class="edge"><title>Node10&#45;&gt;Node5</title>
<path fill="none" stroke="midnightblue" d="M1691.81,-64C1700.52,-64 1709.33,-64 1717.98,-64"/>
<polygon fill="midnightblue" stroke="midnightblue" points="1691.64,-60.5001 1681.64,-64 1691.64,-67.5001 1691.64,-60.5001"/>
</g>
<!-- Node12 -->
<g id="node12" class="node"><title>Node12</title>
<g id="a_node12"><a xlink:href="../../d9/daf/classcellsociety__team02_1_1_grid_view.html#a08ac9f0ccad1d9db92c9d92a127d77bc" target="_top" xlink:title="cellsociety_team02.GridView.set\lUpSpeedSlider">
<polygon fill="white" stroke="black" points="1509,-0 1509,-30 1679,-30 1679,-0 1509,-0"/>
<text text-anchor="start" x="1517" y="-18" font-family="Helvetica,sans-Serif" font-size="10.00">cellsociety_team02.GridView.set</text>
<text text-anchor="middle" x="1594" y="-7" font-family="Helvetica,sans-Serif" font-size="10.00">UpSpeedSlider</text>
</a>
</g>
</g>
<!-- Node11&#45;&gt;Node12 -->
<g id="edge12" class="edge"><title>Node11&#45;&gt;Node12</title>
<path fill="none" stroke="midnightblue" d="M1479.76,-16.0437C1489.54,-15.9535 1499.37,-15.8629 1508.94,-15.7748"/>
<polygon fill="midnightblue" stroke="midnightblue" points="1479.57,-12.5452 1469.6,-16.1373 1479.63,-19.5449 1479.57,-12.5452"/>
</g>
<!-- Node12&#45;&gt;Node5 -->
<g id="edge13" class="edge"><title>Node12&#45;&gt;Node5</title>
<path fill="none" stroke="midnightblue" d="M1670.34,-32.3309C1693.98,-37.7712 1719.88,-43.7285 1742.77,-48.9938"/>
<polygon fill="midnightblue" stroke="midnightblue" points="1670.88,-28.8657 1660.35,-30.0346 1669.32,-35.6875 1670.88,-28.8657"/>
</g>
</g>
</svg>
