<?xml version="1.0" encoding="UTF-8" standalone="no"?>
<!DOCTYPE svg PUBLIC "-//W3C//DTD SVG 1.1//EN"
 "http://www.w3.org/Graphics/SVG/1.1/DTD/svg11.dtd">
<!-- Generated by graphviz version 2.36.0 (20140111.2315)
 -->
<!-- Title: Patch.Patch.getColor Pages: 1 -->
<svg width="2288pt" height="164pt"
 viewBox="0.00 0.00 2288.00 164.00" xmlns="http://www.w3.org/2000/svg" xmlns:xlink="http://www.w3.org/1999/xlink">
<g id="graph0" class="graph" transform="scale(1 1) rotate(0) translate(4 160)">
<title>Patch.Patch.getColor</title>
<polygon fill="white" stroke="none" points="-4,4 -4,-160 2284,-160 2284,4 -4,4"/>
<!-- Node1 -->
<g id="node1" class="node"><title>Node1</title>
<polygon fill="#bfbfbf" stroke="black" points="0,-117.5 0,-136.5 116,-136.5 116,-117.5 0,-117.5"/>
<text text-anchor="middle" x="58" y="-124.5" font-family="Helvetica,sans-Serif" font-size="10.00">Patch.Patch.getColor</text>
</g>
<!-- Node2 -->
<g id="node2" class="node"><title>Node2</title>
<g id="a_node2"><a xlink:href="../../d9/daf/classcellsociety__team02_1_1_grid_view.html#a5ef1c1816231c667f8f68bc466d20495" target="_top" xlink:title="cellsociety_team02.GridView.get\lLocationColor">
<polygon fill="white" stroke="black" points="152.5,-112 152.5,-142 323.5,-142 323.5,-112 152.5,-112"/>
<text text-anchor="start" x="160.5" y="-130" font-family="Helvetica,sans-Serif" font-size="10.00">cellsociety_team02.GridView.get</text>
<text text-anchor="middle" x="238" y="-119" font-family="Helvetica,sans-Serif" font-size="10.00">LocationColor</text>
</a>
</g>
</g>
<!-- Node1&#45;&gt;Node2 -->
<g id="edge1" class="edge"><title>Node1&#45;&gt;Node2</title>
<path fill="none" stroke="midnightblue" d="M126.44,-127C134.883,-127 143.602,-127 152.266,-127"/>
<polygon fill="midnightblue" stroke="midnightblue" points="126.3,-123.5 116.3,-127 126.3,-130.5 126.3,-123.5"/>
</g>
<!-- Node3 -->
<g id="node3" class="node"><title>Node3</title>
<g id="a_node3"><a xlink:href="../../d9/daf/classcellsociety__team02_1_1_grid_view.html#ad4fe99d3b1bf9b7ed1cd8d65145f5d90" target="_top" xlink:title="cellsociety_team02.GridView.makeGrid">
<polygon fill="white" stroke="black" points="360,-117.5 360,-136.5 562,-136.5 562,-117.5 360,-117.5"/>
<text text-anchor="middle" x="461" y="-124.5" font-family="Helvetica,sans-Serif" font-size="10.00">cellsociety_team02.GridView.makeGrid</text>
</a>
</g>
</g>
<!-- Node2&#45;&gt;Node3 -->
<g id="edge2" class="edge"><title>Node2&#45;&gt;Node3</title>
<path fill="none" stroke="midnightblue" d="M333.86,-127C342.481,-127 351.232,-127 359.896,-127"/>
<polygon fill="midnightblue" stroke="midnightblue" points="333.812,-123.5 323.812,-127 333.812,-130.5 333.812,-123.5"/>
</g>
<!-- Node4 -->
<g id="node4" class="node"><title>Node4</title>
<g id="a_node4"><a xlink:href="../../d9/daf/classcellsociety__team02_1_1_grid_view.html#aa0cb15c1acd15c18573648b8df447752" target="_top" xlink:title="cellsociety_team02.GridView.load">
<polygon fill="white" stroke="black" points="1464,-136.5 1464,-155.5 1640,-155.5 1640,-136.5 1464,-136.5"/>
<text text-anchor="middle" x="1552" y="-143.5" font-family="Helvetica,sans-Serif" font-size="10.00">cellsociety_team02.GridView.load</text>
</a>
</g>
</g>
<!-- Node3&#45;&gt;Node4 -->
<g id="edge3" class="edge"><title>Node3&#45;&gt;Node4</title>
<path fill="none" stroke="midnightblue" d="M572.398,-134.47C660.504,-139.79 787.109,-146 898,-146 898,-146 898,-146 1114,-146 1235.39,-146 1375.74,-146 1463.94,-146"/>
<polygon fill="midnightblue" stroke="midnightblue" points="572.581,-130.975 562.386,-133.859 572.154,-137.962 572.581,-130.975"/>
</g>
<!-- Node8 -->
<g id="node8" class="node"><title>Node8</title>
<g id="a_node8"><a xlink:href="../../d9/daf/classcellsociety__team02_1_1_grid_view.html#a27a105e1810531f4958f9fc192c3cef1" target="_top" xlink:title="cellsociety_team02.GridView.step">
<polygon fill="white" stroke="black" points="598,-98.5 598,-117.5 774,-117.5 774,-98.5 598,-98.5"/>
<text text-anchor="middle" x="686" y="-105.5" font-family="Helvetica,sans-Serif" font-size="10.00">cellsociety_team02.GridView.step</text>
</a>
</g>
</g>
<!-- Node3&#45;&gt;Node8 -->
<g id="edge8" class="edge"><title>Node3&#45;&gt;Node8</title>
<path fill="none" stroke="midnightblue" d="M572.177,-117.613C580.788,-116.879 589.41,-116.144 597.837,-115.426"/>
<polygon fill="midnightblue" stroke="midnightblue" points="571.751,-114.136 562.085,-118.473 572.346,-121.111 571.751,-114.136"/>
</g>
<!-- Node5 -->
<g id="node5" class="node"><title>Node5</title>
<g id="a_node5"><a xlink:href="../../d9/daf/classcellsociety__team02_1_1_grid_view.html#ada183e314764db770009f944205490df" target="_top" xlink:title="cellsociety_team02.GridView.\lGridView">
<polygon fill="white" stroke="black" points="2124.5,-110 2124.5,-140 2279.5,-140 2279.5,-110 2124.5,-110"/>
<text text-anchor="start" x="2132.5" y="-128" font-family="Helvetica,sans-Serif" font-size="10.00">cellsociety_team02.GridView.</text>
<text text-anchor="middle" x="2202" y="-117" font-family="Helvetica,sans-Serif" font-size="10.00">GridView</text>
</a>
</g>
</g>
<!-- Node4&#45;&gt;Node5 -->
<g id="edge4" class="edge"><title>Node4&#45;&gt;Node5</title>
<path fill="none" stroke="midnightblue" d="M1650.37,-142.845C1779.94,-138.645 2006.4,-131.307 2124.47,-127.48"/>
<polygon fill="midnightblue" stroke="midnightblue" points="1649.94,-139.357 1640.06,-143.179 1650.16,-146.353 1649.94,-139.357"/>
</g>
<!-- Node6 -->
<g id="node6" class="node"><title>Node6</title>
<g id="a_node6"><a xlink:href="../../d9/daf/classcellsociety__team02_1_1_grid_view.html#afcc7b83f62c116e77ab0843bfd4156b8" target="_top" xlink:title="cellsociety_team02.GridView.make\lButtons">
<polygon fill="white" stroke="black" points="1676,-87 1676,-117 1858,-117 1858,-87 1676,-87"/>
<text text-anchor="start" x="1684" y="-105" font-family="Helvetica,sans-Serif" font-size="10.00">cellsociety_team02.GridView.make</text>
<text text-anchor="middle" x="1767" y="-94" font-family="Helvetica,sans-Serif" font-size="10.00">Buttons</text>
</a>
</g>
</g>
<!-- Node4&#45;&gt;Node6 -->
<g id="edge5" class="edge"><title>Node4&#45;&gt;Node6</title>
<path fill="none" stroke="midnightblue" d="M1609.16,-134.399C1634.85,-129.092 1665.62,-122.736 1693.07,-117.065"/>
<polygon fill="midnightblue" stroke="midnightblue" points="1608.3,-131.002 1599.22,-136.453 1609.72,-137.857 1608.3,-131.002"/>
</g>
<!-- Node7 -->
<g id="node7" class="node"><title>Node7</title>
<g id="a_node7"><a xlink:href="../../d9/daf/classcellsociety__team02_1_1_grid_view.html#a4571898657e750f62c2df84cb398e135" target="_top" xlink:title="cellsociety_team02.GridView.initialize">
<polygon fill="white" stroke="black" points="1894,-95.5 1894,-114.5 2088,-114.5 2088,-95.5 1894,-95.5"/>
<text text-anchor="middle" x="1991" y="-102.5" font-family="Helvetica,sans-Serif" font-size="10.00">cellsociety_team02.GridView.initialize</text>
</a>
</g>
</g>
<!-- Node6&#45;&gt;Node7 -->
<g id="edge6" class="edge"><title>Node6&#45;&gt;Node7</title>
<path fill="none" stroke="midnightblue" d="M1868.56,-103.359C1877.03,-103.473 1885.57,-103.589 1894,-103.703"/>
<polygon fill="midnightblue" stroke="midnightblue" points="1868.34,-99.8558 1858.3,-103.22 1868.25,-106.855 1868.34,-99.8558"/>
</g>
<!-- Node7&#45;&gt;Node5 -->
<g id="edge7" class="edge"><title>Node7&#45;&gt;Node5</title>
<path fill="none" stroke="midnightblue" d="M2098.48,-115.189C2107.2,-116.024 2115.91,-116.857 2124.35,-117.665"/>
<polygon fill="midnightblue" stroke="midnightblue" points="2098.53,-111.678 2088.24,-114.21 2097.86,-118.646 2098.53,-111.678"/>
</g>
<!-- Node8&#45;&gt;Node6 -->
<g id="edge9" class="edge"><title>Node8&#45;&gt;Node6</title>
<path fill="none" stroke="midnightblue" d="M784.119,-108C870.261,-108 999.505,-108 1112,-108 1112,-108 1112,-108 1334,-108 1452.14,-108 1588.43,-105.729 1675.82,-103.981"/>
<polygon fill="midnightblue" stroke="midnightblue" points="784.094,-104.5 774.094,-108 784.094,-111.5 784.094,-104.5"/>
</g>
<!-- Node9 -->
<g id="node9" class="node"><title>Node9</title>
<g id="a_node9"><a xlink:href="../../d9/daf/classcellsociety__team02_1_1_grid_view.html#aa1d09688b48a4a95513e15eea18ec0e6" target="_top" xlink:title="cellsociety_team02.GridView.start\lHandler">
<polygon fill="white" stroke="black" points="810,-49 810,-79 988,-79 988,-49 810,-49"/>
<text text-anchor="start" x="818" y="-67" font-family="Helvetica,sans-Serif" font-size="10.00">cellsociety_team02.GridView.start</text>
<text text-anchor="middle" x="899" y="-56" font-family="Helvetica,sans-Serif" font-size="10.00">Handler</text>
</a>
</g>
</g>
<!-- Node8&#45;&gt;Node9 -->
<g id="edge10" class="edge"><title>Node8&#45;&gt;Node9</title>
<path fill="none" stroke="midnightblue" d="M742.633,-96.3987C768.083,-91.0917 798.561,-84.7362 825.755,-79.0654"/>
<polygon fill="midnightblue" stroke="midnightblue" points="741.859,-92.9849 732.784,-98.4527 743.288,-99.8375 741.859,-92.9849"/>
</g>
<!-- Node10 -->
<g id="node10" class="node"><title>Node10</title>
<g id="a_node10"><a xlink:href="../../d9/daf/classcellsociety__team02_1_1_grid_view.html#a27ed5fc9bbf44efab6d23cb07096c36a" target="_top" xlink:title="cellsociety_team02.GridView.start\lAnimation">
<polygon fill="white" stroke="black" points="1024,-49 1024,-79 1202,-79 1202,-49 1024,-49"/>
<text text-anchor="start" x="1032" y="-67" font-family="Helvetica,sans-Serif" font-size="10.00">cellsociety_team02.GridView.start</text>
<text text-anchor="middle" x="1113" y="-56" font-family="Helvetica,sans-Serif" font-size="10.00">Animation</text>
</a>
</g>
</g>
<!-- Node9&#45;&gt;Node10 -->
<g id="edge11" class="edge"><title>Node9&#45;&gt;Node10</title>
<path fill="none" stroke="midnightblue" d="M998.107,-64C1006.7,-64 1015.36,-64 1023.87,-64"/>
<polygon fill="midnightblue" stroke="midnightblue" points="998.065,-60.5001 988.065,-64 998.065,-67.5001 998.065,-60.5001"/>
</g>
<!-- Node11 -->
<g id="node11" class="node"><title>Node11</title>
<g id="a_node11"><a xlink:href="../../d9/daf/classcellsociety__team02_1_1_grid_view.html#a7b94250b9b4e419eb3b97394e3b86052" target="_top" xlink:title="cellsociety_team02.GridView.play\lPause">
<polygon fill="white" stroke="black" points="1245.5,-49 1245.5,-79 1420.5,-79 1420.5,-49 1245.5,-49"/>
<text text-anchor="start" x="1253.5" y="-67" font-family="Helvetica,sans-Serif" font-size="10.00">cellsociety_team02.GridView.play</text>
<text text-anchor="middle" x="1333" y="-56" font-family="Helvetica,sans-Serif" font-size="10.00">Pause</text>
</a>
</g>
</g>
<!-- Node10&#45;&gt;Node11 -->
<g id="edge12" class="edge"><title>Node10&#45;&gt;Node11</title>
<path fill="none" stroke="midnightblue" d="M1212.16,-64C1223.25,-64 1234.48,-64 1245.4,-64"/>
<polygon fill="midnightblue" stroke="midnightblue" points="1212.04,-60.5001 1202.04,-64 1212.04,-67.5001 1212.04,-60.5001"/>
</g>
<!-- Node12 -->
<g id="node12" class="node"><title>Node12</title>
<g id="a_node12"><a xlink:href="../../d9/daf/classcellsociety__team02_1_1_grid_view.html#a21d8f68b9be54d2f23f17af421c78b12" target="_top" xlink:title="cellsociety_team02.GridView.update\lSpeed">
<polygon fill="white" stroke="black" points="1238.5,-0 1238.5,-30 1427.5,-30 1427.5,-0 1238.5,-0"/>
<text text-anchor="start" x="1246.5" y="-18" font-family="Helvetica,sans-Serif" font-size="10.00">cellsociety_team02.GridView.update</text>
<text text-anchor="middle" x="1333" y="-7" font-family="Helvetica,sans-Serif" font-size="10.00">Speed</text>
</a>
</g>
</g>
<!-- Node10&#45;&gt;Node12 -->
<g id="edge14" class="edge"><title>Node10&#45;&gt;Node12</title>
<path fill="none" stroke="midnightblue" d="M1190.78,-46.7419C1215.07,-41.282 1241.71,-35.295 1265.24,-30.0062"/>
<polygon fill="midnightblue" stroke="midnightblue" points="1189.88,-43.3575 1180.89,-48.9654 1191.41,-50.1871 1189.88,-43.3575"/>
</g>
<!-- Node11&#45;&gt;Node6 -->
<g id="edge13" class="edge"><title>Node11&#45;&gt;Node6</title>
<path fill="none" stroke="midnightblue" d="M1430.81,-72.5153C1504.13,-78.965 1604.13,-87.7612 1675.78,-94.0642"/>
<polygon fill="midnightblue" stroke="midnightblue" points="1430.91,-69.0111 1420.64,-71.6213 1430.3,-75.9842 1430.91,-69.0111"/>
</g>
<!-- Node13 -->
<g id="node13" class="node"><title>Node13</title>
<g id="a_node13"><a xlink:href="../../d9/daf/classcellsociety__team02_1_1_grid_view.html#a08ac9f0ccad1d9db92c9d92a127d77bc" target="_top" xlink:title="cellsociety_team02.GridView.set\lUpSpeedSlider">
<polygon fill="white" stroke="black" points="1467,-3 1467,-33 1637,-33 1637,-3 1467,-3"/>
<text text-anchor="start" x="1475" y="-21" font-family="Helvetica,sans-Serif" font-size="10.00">cellsociety_team02.GridView.set</text>
<text text-anchor="middle" x="1552" y="-10" font-family="Helvetica,sans-Serif" font-size="10.00">UpSpeedSlider</text>
</a>
</g>
</g>
<!-- Node12&#45;&gt;Node13 -->
<g id="edge15" class="edge"><title>Node12&#45;&gt;Node13</title>
<path fill="none" stroke="midnightblue" d="M1437.76,-16.4345C1447.54,-16.5697 1457.37,-16.7056 1466.94,-16.8378"/>
<polygon fill="midnightblue" stroke="midnightblue" points="1437.65,-12.9327 1427.6,-16.294 1437.55,-19.932 1437.65,-12.9327"/>
</g>
<!-- Node13&#45;&gt;Node6 -->
<g id="edge16" class="edge"><title>Node13&#45;&gt;Node6</title>
<path fill="none" stroke="midnightblue" d="M1600.5,-36.7327C1638.9,-51.8761 1692.25,-72.9157 1727.89,-86.9711"/>
<polygon fill="midnightblue" stroke="midnightblue" points="1601.67,-33.4303 1591.08,-33.0175 1599.1,-39.9422 1601.67,-33.4303"/>
</g>
</g>
</svg>
