<?xml version="1.0" encoding="UTF-8" standalone="no"?>
<!DOCTYPE svg PUBLIC "-//W3C//DTD SVG 1.1//EN"
 "http://www.w3.org/Graphics/SVG/1.1/DTD/svg11.dtd">
<!-- Generated by graphviz version 2.36.0 (20140111.2315)
 -->
<!-- Title: Patch.Patch.getCurrentState Pages: 1 -->
<svg width="602pt" height="115pt"
 viewBox="0.00 0.00 602.00 115.00" xmlns="http://www.w3.org/2000/svg" xmlns:xlink="http://www.w3.org/1999/xlink">
<g id="graph0" class="graph" transform="scale(1 1) rotate(0) translate(4 111)">
<title>Patch.Patch.getCurrentState</title>
<polygon fill="white" stroke="none" points="-4,4 -4,-111 598,-111 598,4 -4,4"/>
<!-- Node1 -->
<g id="node1" class="node"><title>Node1</title>
<polygon fill="#bfbfbf" stroke="black" points="0.5,-38.5 0.5,-57.5 153.5,-57.5 153.5,-38.5 0.5,-38.5"/>
<text text-anchor="middle" x="77" y="-45.5" font-family="Helvetica,sans-Serif" font-size="10.00">Patch.Patch.getCurrentState</text>
</g>
<!-- Node2 -->
<g id="node2" class="node"><title>Node2</title>
<g id="a_node2"><a xlink:href="../../d4/d3e/class_cell_1_1_sugar_cell.html#a0a6356ace75fea882418321582a8295f" target="_top" xlink:title="Cell.SugarCell.findHighest\lSugar">
<polygon fill="white" stroke="black" points="209,-77 209,-107 349,-107 349,-77 209,-77"/>
<text text-anchor="start" x="217" y="-95" font-family="Helvetica,sans-Serif" font-size="10.00">Cell.SugarCell.findHighest</text>
<text text-anchor="middle" x="279" y="-84" font-family="Helvetica,sans-Serif" font-size="10.00">Sugar</text>
</a>
</g>
</g>
<!-- Node1&#45;&gt;Node2 -->
<g id="edge1" class="edge"><title>Node1&#45;&gt;Node2</title>
<path fill="none" stroke="midnightblue" d="M131.375,-59.7424C155.367,-65.0207 183.973,-71.314 209.521,-76.9346"/>
<polygon fill="midnightblue" stroke="midnightblue" points="131.916,-56.2778 121.397,-57.5473 130.411,-63.1143 131.916,-56.2778"/>
</g>
<!-- Node4 -->
<g id="node4" class="node"><title>Node4</title>
<g id="a_node4"><a xlink:href="../../d4/d3e/class_cell_1_1_sugar_cell.html#aadb2f103956e672b8e384bdd665bb0e4" target="_top" xlink:title="Cell.SugarCell.move">
<polygon fill="white" stroke="black" points="222.5,-38.5 222.5,-57.5 335.5,-57.5 335.5,-38.5 222.5,-38.5"/>
<text text-anchor="middle" x="279" y="-45.5" font-family="Helvetica,sans-Serif" font-size="10.00">Cell.SugarCell.move</text>
</a>
</g>
</g>
<!-- Node1&#45;&gt;Node4 -->
<g id="edge3" class="edge"><title>Node1&#45;&gt;Node4</title>
<path fill="none" stroke="midnightblue" d="M163.861,-48C183.624,-48 204.14,-48 222.235,-48"/>
<polygon fill="midnightblue" stroke="midnightblue" points="163.611,-44.5001 153.611,-48 163.611,-51.5001 163.611,-44.5001"/>
</g>
<!-- Node5 -->
<g id="node5" class="node"><title>Node5</title>
<g id="a_node5"><a xlink:href="../../d5/de8/class_cell_1_1_fire_cell.html#a27714bd4a70a2da01d469668d46ef827" target="_top" xlink:title="Cell.FireCell.updateStateandMove">
<polygon fill="white" stroke="black" points="190.5,-0.5 190.5,-19.5 367.5,-19.5 367.5,-0.5 190.5,-0.5"/>
<text text-anchor="middle" x="279" y="-7.5" font-family="Helvetica,sans-Serif" font-size="10.00">Cell.FireCell.updateStateandMove</text>
</a>
</g>
</g>
<!-- Node1&#45;&gt;Node5 -->
<g id="edge5" class="edge"><title>Node1&#45;&gt;Node5</title>
<path fill="none" stroke="midnightblue" d="M138.095,-36.5819C166.712,-31.1448 200.543,-24.7168 227.769,-19.5439"/>
<polygon fill="midnightblue" stroke="midnightblue" points="137.381,-33.1549 128.21,-38.46 138.688,-40.0318 137.381,-33.1549"/>
</g>
<!-- Node3 -->
<g id="node3" class="node"><title>Node3</title>
<g id="a_node3"><a xlink:href="../../d4/d3e/class_cell_1_1_sugar_cell.html#a9f02e4354c6e886bda998ff19e6589df" target="_top" xlink:title="Cell.SugarCell.updateStateandMove">
<polygon fill="white" stroke="black" points="404.5,-60.5 404.5,-79.5 593.5,-79.5 593.5,-60.5 404.5,-60.5"/>
<text text-anchor="middle" x="499" y="-67.5" font-family="Helvetica,sans-Serif" font-size="10.00">Cell.SugarCell.updateStateandMove</text>
</a>
</g>
</g>
<!-- Node2&#45;&gt;Node3 -->
<g id="edge2" class="edge"><title>Node2&#45;&gt;Node3</title>
<path fill="none" stroke="midnightblue" d="M359.246,-84.0027C373.846,-82.5293 389.216,-80.9782 404.197,-79.4664"/>
<polygon fill="midnightblue" stroke="midnightblue" points="358.874,-80.5224 349.276,-85.0088 359.577,-87.487 358.874,-80.5224"/>
</g>
<!-- Node4&#45;&gt;Node3 -->
<g id="edge4" class="edge"><title>Node4&#45;&gt;Node3</title>
<path fill="none" stroke="midnightblue" d="M345.63,-54.6232C364.128,-56.49 384.617,-58.5577 404.414,-60.5556"/>
<polygon fill="midnightblue" stroke="midnightblue" points="345.876,-51.1303 335.575,-53.6085 345.173,-58.0949 345.876,-51.1303"/>
</g>
</g>
</svg>
