<?xml version="1.0" encoding="UTF-8" standalone="no"?>
<!DOCTYPE svg PUBLIC "-//W3C//DTD SVG 1.1//EN"
 "http://www.w3.org/Graphics/SVG/1.1/DTD/svg11.dtd">
<!-- Generated by graphviz version 2.36.0 (20140111.2315)
 -->
<!-- Title: Patch.Patch.getCurrentCell Pages: 1 -->
<svg width="2582pt" height="193pt"
 viewBox="0.00 0.00 2582.00 192.89" xmlns="http://www.w3.org/2000/svg" xmlns:xlink="http://www.w3.org/1999/xlink">
<g id="graph0" class="graph" transform="scale(1 1) rotate(0) translate(4 188.89)">
<title>Patch.Patch.getCurrentCell</title>
<polygon fill="white" stroke="none" points="-4,4 -4,-188.89 2578,-188.89 2578,4 -4,4"/>
<!-- Node1 -->
<g id="node1" class="node"><title>Node1</title>
<polygon fill="#bfbfbf" stroke="black" points="0,-94.3905 0,-113.39 144,-113.39 144,-94.3905 0,-94.3905"/>
<text text-anchor="middle" x="72" y="-101.39" font-family="Helvetica,sans-Serif" font-size="10.00">Patch.Patch.getCurrentCell</text>
</g>
<!-- Node2 -->
<g id="node2" class="node"><title>Node2</title>
<g id="a_node2"><a xlink:href="../../df/d71/classcellsociety__team02_1_1_grid_model.html#a72e35e48408df9bf1242c357b6b1d873" target="_top" xlink:title="cellsociety_team02.GridModel.change\lState">
<polygon fill="white" stroke="black" points="180,-154.89 180,-184.89 378,-184.89 378,-154.89 180,-154.89"/>
<text text-anchor="start" x="188" y="-172.89" font-family="Helvetica,sans-Serif" font-size="10.00">cellsociety_team02.GridModel.change</text>
<text text-anchor="middle" x="279" y="-161.89" font-family="Helvetica,sans-Serif" font-size="10.00">State</text>
</a>
</g>
</g>
<!-- Node1&#45;&gt;Node2 -->
<g id="edge1" class="edge"><title>Node1&#45;&gt;Node2</title>
<path fill="none" stroke="midnightblue" d="M110.25,-116.703C130.78,-123.694 156.747,-132.421 180,-139.89 195.501,-144.87 212.44,-150.122 227.81,-154.816"/>
<polygon fill="midnightblue" stroke="midnightblue" points="111.238,-113.342 100.644,-113.424 108.977,-119.967 111.238,-113.342"/>
</g>
<!-- Node3 -->
<g id="node3" class="node"><title>Node3</title>
<g id="a_node3"><a xlink:href="../../d9/daf/classcellsociety__team02_1_1_grid_view.html#ad4fe99d3b1bf9b7ed1cd8d65145f5d90" target="_top" xlink:title="cellsociety_team02.GridView.makeGrid">
<polygon fill="white" stroke="black" points="654,-116.39 654,-135.39 856,-135.39 856,-116.39 654,-116.39"/>
<text text-anchor="middle" x="755" y="-123.39" font-family="Helvetica,sans-Serif" font-size="10.00">cellsociety_team02.GridView.makeGrid</text>
</a>
</g>
</g>
<!-- Node1&#45;&gt;Node3 -->
<g id="edge2" class="edge"><title>Node1&#45;&gt;Node3</title>
<path fill="none" stroke="midnightblue" d="M154.547,-106.525C279.639,-110.566 518.588,-118.285 653.964,-122.659"/>
<polygon fill="midnightblue" stroke="midnightblue" points="154.379,-103.018 144.271,-106.193 154.153,-110.014 154.379,-103.018"/>
</g>
<!-- Node14 -->
<g id="node14" class="node"><title>Node14</title>
<g id="a_node14"><a xlink:href="../../df/d71/classcellsociety__team02_1_1_grid_model.html#abf618b18bf0b7c25d5717317c00b9269" target="_top" xlink:title="cellsociety_team02.GridModel.num\lState">
<polygon fill="white" stroke="black" points="186.5,-66.8905 186.5,-96.8905 371.5,-96.8905 371.5,-66.8905 186.5,-66.8905"/>
<text text-anchor="start" x="194.5" y="-84.8905" font-family="Helvetica,sans-Serif" font-size="10.00">cellsociety_team02.GridModel.num</text>
<text text-anchor="middle" x="279" y="-73.8905" font-family="Helvetica,sans-Serif" font-size="10.00">State</text>
</a>
</g>
</g>
<!-- Node1&#45;&gt;Node14 -->
<g id="edge17" class="edge"><title>Node1&#45;&gt;Node14</title>
<path fill="none" stroke="midnightblue" d="M154.167,-95.1798C164.76,-94.043 175.672,-92.872 186.421,-91.7184"/>
<polygon fill="midnightblue" stroke="midnightblue" points="153.693,-91.7105 144.124,-96.2577 154.44,-98.6705 153.693,-91.7105"/>
</g>
<!-- Node17 -->
<g id="node17" class="node"><title>Node17</title>
<g id="a_node17"><a xlink:href="../../df/d99/class_cell_1_1_shark_cell.html#ad392515e1d48584cae2153849ddee8b8" target="_top" xlink:title="Cell.SharkCell.updateStateandMove">
<polygon fill="white" stroke="black" points="185,-28.3905 185,-47.3905 373,-47.3905 373,-28.3905 185,-28.3905"/>
<text text-anchor="middle" x="279" y="-35.3905" font-family="Helvetica,sans-Serif" font-size="10.00">Cell.SharkCell.updateStateandMove</text>
</a>
</g>
</g>
<!-- Node1&#45;&gt;Node17 -->
<g id="edge22" class="edge"><title>Node1&#45;&gt;Node17</title>
<path fill="none" stroke="midnightblue" d="M100.972,-89.987C122.218,-79.8927 152.391,-66.5419 180,-57.8905 193.173,-53.7625 207.616,-50.2696 221.269,-47.4154"/>
<polygon fill="midnightblue" stroke="midnightblue" points="99.3703,-86.8738 91.8803,-94.3672 102.408,-93.1801 99.3703,-86.8738"/>
</g>
<!-- Node4 -->
<g id="node4" class="node"><title>Node4</title>
<g id="a_node4"><a xlink:href="../../d9/daf/classcellsociety__team02_1_1_grid_view.html#aa0cb15c1acd15c18573648b8df447752" target="_top" xlink:title="cellsociety_team02.GridView.load">
<polygon fill="white" stroke="black" points="1105,-132.39 1105,-151.39 1281,-151.39 1281,-132.39 1105,-132.39"/>
<text text-anchor="middle" x="1193" y="-139.39" font-family="Helvetica,sans-Serif" font-size="10.00">cellsociety_team02.GridView.load</text>
</a>
</g>
</g>
<!-- Node3&#45;&gt;Node4 -->
<g id="edge3" class="edge"><title>Node3&#45;&gt;Node4</title>
<path fill="none" stroke="midnightblue" d="M866.315,-129.939C940.298,-132.654 1036.38,-136.18 1104.97,-138.697"/>
<polygon fill="midnightblue" stroke="midnightblue" points="866.149,-126.43 856.027,-129.561 865.892,-133.426 866.149,-126.43"/>
</g>
<!-- Node8 -->
<g id="node8" class="node"><title>Node8</title>
<g id="a_node8"><a xlink:href="../../d9/daf/classcellsociety__team02_1_1_grid_view.html#a27a105e1810531f4958f9fc192c3cef1" target="_top" xlink:title="cellsociety_team02.GridView.step">
<polygon fill="white" stroke="black" points="892,-56.3905 892,-75.3905 1068,-75.3905 1068,-56.3905 892,-56.3905"/>
<text text-anchor="middle" x="980" y="-63.3905" font-family="Helvetica,sans-Serif" font-size="10.00">cellsociety_team02.GridView.step</text>
</a>
</g>
</g>
<!-- Node3&#45;&gt;Node8 -->
<g id="edge8" class="edge"><title>Node3&#45;&gt;Node8</title>
<path fill="none" stroke="midnightblue" d="M819.754,-114.301C831.849,-111.775 844.358,-108.936 856,-105.89 889.672,-97.0805 927.66,-84.2752 952.394,-75.5422"/>
<polygon fill="midnightblue" stroke="midnightblue" points="818.818,-110.92 809.719,-116.348 820.217,-117.779 818.818,-110.92"/>
</g>
<!-- Node5 -->
<g id="node5" class="node"><title>Node5</title>
<g id="a_node5"><a xlink:href="../../d9/daf/classcellsociety__team02_1_1_grid_view.html#ada183e314764db770009f944205490df" target="_top" xlink:title="cellsociety_team02.GridView.\lGridView">
<polygon fill="white" stroke="black" points="2418.5,-134.89 2418.5,-164.89 2573.5,-164.89 2573.5,-134.89 2418.5,-134.89"/>
<text text-anchor="start" x="2426.5" y="-152.89" font-family="Helvetica,sans-Serif" font-size="10.00">cellsociety_team02.GridView.</text>
<text text-anchor="middle" x="2496" y="-141.89" font-family="Helvetica,sans-Serif" font-size="10.00">GridView</text>
</a>
</g>
</g>
<!-- Node4&#45;&gt;Node5 -->
<g id="edge4" class="edge"><title>Node4&#45;&gt;Node5</title>
<path fill="none" stroke="midnightblue" d="M1267.49,-152.807C1284.07,-155.037 1301.62,-157.211 1318,-158.89 1454.49,-172.883 1488.79,-179.89 1626,-179.89 1626,-179.89 1626,-179.89 2062,-179.89 2187.09,-179.89 2332.02,-167.276 2418.46,-158.407"/>
<polygon fill="midnightblue" stroke="midnightblue" points="1267.68,-149.302 1257.3,-151.416 1266.73,-156.237 1267.68,-149.302"/>
</g>
<!-- Node6 -->
<g id="node6" class="node"><title>Node6</title>
<g id="a_node6"><a xlink:href="../../d9/daf/classcellsociety__team02_1_1_grid_view.html#afcc7b83f62c116e77ab0843bfd4156b8" target="_top" xlink:title="cellsociety_team02.GridView.make\lButtons">
<polygon fill="white" stroke="black" points="1970,-82.8905 1970,-112.89 2152,-112.89 2152,-82.8905 1970,-82.8905"/>
<text text-anchor="start" x="1978" y="-100.89" font-family="Helvetica,sans-Serif" font-size="10.00">cellsociety_team02.GridView.make</text>
<text text-anchor="middle" x="2061" y="-89.8905" font-family="Helvetica,sans-Serif" font-size="10.00">Buttons</text>
</a>
</g>
</g>
<!-- Node4&#45;&gt;Node6 -->
<g id="edge5" class="edge"><title>Node4&#45;&gt;Node6</title>
<path fill="none" stroke="midnightblue" d="M1291.58,-144.243C1433.45,-146.533 1704.79,-146.654 1934,-121.89 1952.93,-119.845 1973.27,-116.489 1991.97,-112.926"/>
<polygon fill="midnightblue" stroke="midnightblue" points="1291.23,-140.736 1281.17,-144.067 1291.11,-147.735 1291.23,-140.736"/>
</g>
<!-- Node7 -->
<g id="node7" class="node"><title>Node7</title>
<g id="a_node7"><a xlink:href="../../d9/daf/classcellsociety__team02_1_1_grid_view.html#a4571898657e750f62c2df84cb398e135" target="_top" xlink:title="cellsociety_team02.GridView.initialize">
<polygon fill="white" stroke="black" points="2188,-110.39 2188,-129.39 2382,-129.39 2382,-110.39 2188,-110.39"/>
<text text-anchor="middle" x="2285" y="-117.39" font-family="Helvetica,sans-Serif" font-size="10.00">cellsociety_team02.GridView.initialize</text>
</a>
</g>
</g>
<!-- Node6&#45;&gt;Node7 -->
<g id="edge6" class="edge"><title>Node6&#45;&gt;Node7</title>
<path fill="none" stroke="midnightblue" d="M2162.29,-107.829C2170.84,-108.676 2179.48,-109.533 2188,-110.377"/>
<polygon fill="midnightblue" stroke="midnightblue" points="2162.59,-104.342 2152.3,-106.839 2161.9,-111.308 2162.59,-104.342"/>
</g>
<!-- Node7&#45;&gt;Node5 -->
<g id="edge7" class="edge"><title>Node7&#45;&gt;Node5</title>
<path fill="none" stroke="midnightblue" d="M2362.38,-130.854C2380.57,-133.464 2399.98,-136.251 2418.19,-138.865"/>
<polygon fill="midnightblue" stroke="midnightblue" points="2362.81,-127.38 2352.42,-129.424 2361.82,-134.309 2362.81,-127.38"/>
</g>
<!-- Node8&#45;&gt;Node6 -->
<g id="edge9" class="edge"><title>Node8&#45;&gt;Node6</title>
<path fill="none" stroke="midnightblue" d="M1030.72,-54.0567C1109.73,-36.3176 1269.03,-4.89045 1406,-4.89045 1406,-4.89045 1406,-4.89045 1628,-4.89045 1764.29,-4.89045 1803.6,14.759 1934,-24.8905 1974.88,-37.32 2016.7,-65.1525 2040.4,-82.6344"/>
<polygon fill="midnightblue" stroke="midnightblue" points="1029.55,-50.7331 1020.57,-56.3592 1031.1,-57.5595 1029.55,-50.7331"/>
</g>
<!-- Node9 -->
<g id="node9" class="node"><title>Node9</title>
<g id="a_node9"><a xlink:href="../../d9/daf/classcellsociety__team02_1_1_grid_view.html#aa1d09688b48a4a95513e15eea18ec0e6" target="_top" xlink:title="cellsociety_team02.GridView.start\lHandler">
<polygon fill="white" stroke="black" points="1104,-50.8905 1104,-80.8905 1282,-80.8905 1282,-50.8905 1104,-50.8905"/>
<text text-anchor="start" x="1112" y="-68.8905" font-family="Helvetica,sans-Serif" font-size="10.00">cellsociety_team02.GridView.start</text>
<text text-anchor="middle" x="1193" y="-57.8905" font-family="Helvetica,sans-Serif" font-size="10.00">Handler</text>
</a>
</g>
</g>
<!-- Node8&#45;&gt;Node9 -->
<g id="edge10" class="edge"><title>Node8&#45;&gt;Node9</title>
<path fill="none" stroke="midnightblue" d="M1078.06,-65.8905C1086.64,-65.8905 1095.3,-65.8905 1103.8,-65.8905"/>
<polygon fill="midnightblue" stroke="midnightblue" points="1078.04,-62.3906 1068.04,-65.8905 1078.04,-69.3906 1078.04,-62.3906"/>
</g>
<!-- Node10 -->
<g id="node10" class="node"><title>Node10</title>
<g id="a_node10"><a xlink:href="../../d9/daf/classcellsociety__team02_1_1_grid_view.html#a27ed5fc9bbf44efab6d23cb07096c36a" target="_top" xlink:title="cellsociety_team02.GridView.start\lAnimation">
<polygon fill="white" stroke="black" points="1318,-50.8905 1318,-80.8905 1496,-80.8905 1496,-50.8905 1318,-50.8905"/>
<text text-anchor="start" x="1326" y="-68.8905" font-family="Helvetica,sans-Serif" font-size="10.00">cellsociety_team02.GridView.start</text>
<text text-anchor="middle" x="1407" y="-57.8905" font-family="Helvetica,sans-Serif" font-size="10.00">Animation</text>
</a>
</g>
</g>
<!-- Node9&#45;&gt;Node10 -->
<g id="edge11" class="edge"><title>Node9&#45;&gt;Node10</title>
<path fill="none" stroke="midnightblue" d="M1292.11,-65.8905C1300.7,-65.8905 1309.36,-65.8905 1317.87,-65.8905"/>
<polygon fill="midnightblue" stroke="midnightblue" points="1292.07,-62.3906 1282.07,-65.8905 1292.07,-69.3906 1292.07,-62.3906"/>
</g>
<!-- Node11 -->
<g id="node11" class="node"><title>Node11</title>
<g id="a_node11"><a xlink:href="../../d9/daf/classcellsociety__team02_1_1_grid_view.html#a7b94250b9b4e419eb3b97394e3b86052" target="_top" xlink:title="cellsociety_team02.GridView.play\lPause">
<polygon fill="white" stroke="black" points="1758.5,-33.8905 1758.5,-63.8905 1933.5,-63.8905 1933.5,-33.8905 1758.5,-33.8905"/>
<text text-anchor="start" x="1766.5" y="-51.8905" font-family="Helvetica,sans-Serif" font-size="10.00">cellsociety_team02.GridView.play</text>
<text text-anchor="middle" x="1846" y="-40.8905" font-family="Helvetica,sans-Serif" font-size="10.00">Pause</text>
</a>
</g>
</g>
<!-- Node10&#45;&gt;Node11 -->
<g id="edge12" class="edge"><title>Node10&#45;&gt;Node11</title>
<path fill="none" stroke="midnightblue" d="M1506.2,-62.0703C1581.97,-59.1227 1685.78,-55.0843 1758.46,-52.2571"/>
<polygon fill="midnightblue" stroke="midnightblue" points="1506.03,-58.5743 1496.17,-62.4605 1506.3,-65.569 1506.03,-58.5743"/>
</g>
<!-- Node12 -->
<g id="node12" class="node"><title>Node12</title>
<g id="a_node12"><a xlink:href="../../d9/daf/classcellsociety__team02_1_1_grid_view.html#a21d8f68b9be54d2f23f17af421c78b12" target="_top" xlink:title="cellsociety_team02.GridView.update\lSpeed">
<polygon fill="white" stroke="black" points="1532.5,-80.8905 1532.5,-110.89 1721.5,-110.89 1721.5,-80.8905 1532.5,-80.8905"/>
<text text-anchor="start" x="1540.5" y="-98.8905" font-family="Helvetica,sans-Serif" font-size="10.00">cellsociety_team02.GridView.update</text>
<text text-anchor="middle" x="1627" y="-87.8905" font-family="Helvetica,sans-Serif" font-size="10.00">Speed</text>
</a>
</g>
</g>
<!-- Node10&#45;&gt;Node12 -->
<g id="edge14" class="edge"><title>Node10&#45;&gt;Node12</title>
<path fill="none" stroke="midnightblue" d="M1506.18,-79.4015C1514.87,-80.5967 1523.64,-81.8046 1532.29,-82.9945"/>
<polygon fill="midnightblue" stroke="midnightblue" points="1506.42,-75.9022 1496.04,-78.0061 1505.47,-82.8368 1506.42,-75.9022"/>
</g>
<!-- Node11&#45;&gt;Node6 -->
<g id="edge13" class="edge"><title>Node11&#45;&gt;Node6</title>
<path fill="none" stroke="midnightblue" d="M1922.34,-66.2214C1945.98,-71.6616 1971.88,-77.619 1994.77,-82.8843"/>
<polygon fill="midnightblue" stroke="midnightblue" points="1922.88,-62.7561 1912.35,-63.9251 1921.32,-69.578 1922.88,-62.7561"/>
</g>
<!-- Node13 -->
<g id="node13" class="node"><title>Node13</title>
<g id="a_node13"><a xlink:href="../../d9/daf/classcellsociety__team02_1_1_grid_view.html#a08ac9f0ccad1d9db92c9d92a127d77bc" target="_top" xlink:title="cellsociety_team02.GridView.set\lUpSpeedSlider">
<polygon fill="white" stroke="black" points="1761,-82.8905 1761,-112.89 1931,-112.89 1931,-82.8905 1761,-82.8905"/>
<text text-anchor="start" x="1769" y="-100.89" font-family="Helvetica,sans-Serif" font-size="10.00">cellsociety_team02.GridView.set</text>
<text text-anchor="middle" x="1846" y="-89.8905" font-family="Helvetica,sans-Serif" font-size="10.00">UpSpeedSlider</text>
</a>
</g>
</g>
<!-- Node12&#45;&gt;Node13 -->
<g id="edge15" class="edge"><title>Node12&#45;&gt;Node13</title>
<path fill="none" stroke="midnightblue" d="M1731.76,-96.8468C1741.54,-96.9369 1751.37,-97.0275 1760.94,-97.1157"/>
<polygon fill="midnightblue" stroke="midnightblue" points="1731.63,-93.3456 1721.6,-96.7531 1731.57,-100.345 1731.63,-93.3456"/>
</g>
<!-- Node13&#45;&gt;Node6 -->
<g id="edge16" class="edge"><title>Node13&#45;&gt;Node6</title>
<path fill="none" stroke="midnightblue" d="M1941.36,-97.8905C1950.8,-97.8905 1960.37,-97.8905 1969.77,-97.8905"/>
<polygon fill="midnightblue" stroke="midnightblue" points="1941.18,-94.3906 1931.18,-97.8905 1941.18,-101.391 1941.18,-94.3906"/>
</g>
<!-- Node15 -->
<g id="node15" class="node"><title>Node15</title>
<g id="a_node15"><a xlink:href="../../df/d71/classcellsociety__team02_1_1_grid_model.html#aaa16e9ad7b7de321cfc772caf45dcc89" target="_top" xlink:title="cellsociety_team02.GridModel.addData">
<polygon fill="white" stroke="black" points="414,-72.3905 414,-91.3905 618,-91.3905 618,-72.3905 414,-72.3905"/>
<text text-anchor="middle" x="516" y="-79.3905" font-family="Helvetica,sans-Serif" font-size="10.00">cellsociety_team02.GridModel.addData</text>
</a>
</g>
</g>
<!-- Node14&#45;&gt;Node15 -->
<g id="edge18" class="edge"><title>Node14&#45;&gt;Node15</title>
<path fill="none" stroke="midnightblue" d="M381.721,-81.8905C392.419,-81.8905 403.295,-81.8905 413.986,-81.8905"/>
<polygon fill="midnightblue" stroke="midnightblue" points="381.53,-78.3906 371.53,-81.8905 381.53,-85.3906 381.53,-78.3906"/>
</g>
<!-- Node16 -->
<g id="node16" class="node"><title>Node16</title>
<g id="a_node16"><a xlink:href="../../d9/daf/classcellsociety__team02_1_1_grid_view.html#acf332ae230af02cadc77649e0b6fc0ff" target="_top" xlink:title="cellsociety_team02.GridView.make\lGraph">
<polygon fill="white" stroke="black" points="664,-66.8905 664,-96.8905 846,-96.8905 846,-66.8905 664,-66.8905"/>
<text text-anchor="start" x="672" y="-84.8905" font-family="Helvetica,sans-Serif" font-size="10.00">cellsociety_team02.GridView.make</text>
<text text-anchor="middle" x="755" y="-73.8905" font-family="Helvetica,sans-Serif" font-size="10.00">Graph</text>
</a>
</g>
</g>
<!-- Node15&#45;&gt;Node16 -->
<g id="edge19" class="edge"><title>Node15&#45;&gt;Node16</title>
<path fill="none" stroke="midnightblue" d="M628.506,-81.8905C640.277,-81.8905 652.14,-81.8905 663.629,-81.8905"/>
<polygon fill="midnightblue" stroke="midnightblue" points="628.197,-78.3905 618.197,-81.8905 628.197,-85.3905 628.197,-78.3905"/>
</g>
<!-- Node16&#45;&gt;Node4 -->
<g id="edge20" class="edge"><title>Node16&#45;&gt;Node4</title>
<path fill="none" stroke="midnightblue" d="M856.369,-95.7026C937.98,-106.934 1050.99,-122.485 1122.8,-132.367"/>
<polygon fill="midnightblue" stroke="midnightblue" points="856.459,-92.1822 846.075,-94.2861 855.504,-99.1168 856.459,-92.1822"/>
</g>
<!-- Node16&#45;&gt;Node8 -->
<g id="edge21" class="edge"><title>Node16&#45;&gt;Node8</title>
<path fill="none" stroke="midnightblue" d="M856.042,-74.7126C867.99,-73.8553 880.115,-72.9854 891.86,-72.1426"/>
<polygon fill="midnightblue" stroke="midnightblue" points="855.784,-71.222 846.06,-75.4288 856.285,-78.204 855.784,-71.222"/>
</g>
</g>
</svg>
