<?xml version="1.0" encoding="UTF-8" standalone="no"?>
<!DOCTYPE svg PUBLIC "-//W3C//DTD SVG 1.1//EN"
 "http://www.w3.org/Graphics/SVG/1.1/DTD/svg11.dtd">
<!-- Generated by graphviz version 2.36.0 (20140111.2315)
 -->
<!-- Title: Patch.Patch.setFutureCell Pages: 1 -->
<!--zoomable 332 -->
<svg id="main" version="1.1" xmlns="http://www.w3.org/2000/svg" xmlns:xlink="http://www.w3.org/1999/xlink" xml:space="preserve" onload="init(evt)">
<style type="text/css"><![CDATA[
.edge:hover path { stroke: red; }
.edge:hover polygon { stroke: red; fill: red; }
]]></style>
<script type="text/javascript"><![CDATA[
var edges = document.getElementsByTagName('g');
if (edges && edges.length) {
  for (var i=0;i<edges.length;i++) {
    if (edges[i].id.substr(0,4)=='edge') {
      edges[i].setAttribute('class','edge');
    }
  }
}
]]></script>
        <defs>
                <circle id="rim" cx="0" cy="0" r="7"/>
                <circle id="rim2" cx="0" cy="0" r="3.5"/>
                <g id="zoomPlus">
                        <use xlink:href="#rim" fill="#404040">
                                <set attributeName="fill" to="#808080" begin="zoomplus.mouseover" end="zoomplus.mouseout"/>
                        </use>
                        <path d="M-4,0h8M0,-4v8" fill="none" stroke="white" stroke-width="1.5" pointer-events="none"/>
                </g>
                <g id="zoomMin">
                        <use xlink:href="#rim" fill="#404040">
                                <set attributeName="fill" to="#808080" begin="zoomminus.mouseover" end="zoomminus.mouseout"/>
                        </use>
                        <path d="M-4,0h8" fill="none" stroke="white" stroke-width="1.5" pointer-events="none"/>
                </g>
                <g id="dirArrow">
                        <path fill="none" stroke="white" stroke-width="1.5" d="M0,-3.0v7 M-2.5,-0.5L0,-3.0L2.5,-0.5"/>
                </g>
               <g id="resetDef">
                       <use xlink:href="#rim2" fill="#404040">
                               <set attributeName="fill" to="#808080" begin="reset.mouseover" end="reset.mouseout"/>
                       </use>
               </g>
        </defs>

<script type="text/javascript">
var viewWidth = 586;
var viewHeight = 332;
var sectionId = 'dynsection-8';
</script>
<script xlink:href="../../svgpan.js"/>
<svg id="graph" class="graph">
<g id="viewport">
<title>Patch.Patch.setFutureCell</title>
<polygon fill="white" stroke="none" points="-4,4 -4,-328 582,-328 582,4 -4,4"/>
<!-- Node1 -->
<g id="node1" class="node"><title>Node1</title>
<polygon fill="#bfbfbf" stroke="black" points="0.5,-152.5 0.5,-171.5 137.5,-171.5 137.5,-152.5 0.5,-152.5"/>
<text text-anchor="middle" x="69" y="-159.5" font-family="Helvetica,sans-Serif" font-size="10.00">Patch.Patch.setFutureCell</text>
</g>
<!-- Node2 -->
<g id="node2" class="node"><title>Node2</title>
<g id="a_node2"><a xlink:href="../../df/d99/class_cell_1_1_shark_cell.html#a58041f21c256c90d706e75f4fafb19f8" target="_top" xlink:title="Cell.SharkCell.breed">
<polygon fill="white" stroke="black" points="206.5,-304.5 206.5,-323.5 319.5,-323.5 319.5,-304.5 206.5,-304.5"/>
<text text-anchor="middle" x="263" y="-311.5" font-family="Helvetica,sans-Serif" font-size="10.00">Cell.SharkCell.breed</text>
</a>
</g>
</g>
<!-- Node1&#45;&gt;Node2 -->
<g id="edge1" class="edge"><title>Node1&#45;&gt;Node2</title>
<path fill="none" stroke="midnightblue" d="M79.1395,-180.716C94.4681,-210.013 128.234,-266.313 174,-295 183.668,-301.06 194.977,-305.209 206.206,-308.043"/>
<polygon fill="midnightblue" stroke="midnightblue" points="82.144,-178.902 74.4971,-171.569 75.9019,-182.07 82.144,-178.902"/>
</g>
<!-- Node3 -->
<g id="node3" class="node"><title>Node3</title>
<g id="a_node3"><a xlink:href="../../da/db4/class_cell_1_1_fish_cell.html#ade022d22002913983dd3f491903d0617" target="_top" xlink:title="Cell.FishCell.breed">
<polygon fill="white" stroke="black" points="211.5,-266.5 211.5,-285.5 314.5,-285.5 314.5,-266.5 211.5,-266.5"/>
<text text-anchor="middle" x="263" y="-273.5" font-family="Helvetica,sans-Serif" font-size="10.00">Cell.FishCell.breed</text>
</a>
</g>
</g>
<!-- Node1&#45;&gt;Node3 -->
<g id="edge2" class="edge"><title>Node1&#45;&gt;Node3</title>
<path fill="none" stroke="midnightblue" d="M85.3215,-179.314C104.221,-199.627 138.259,-232.945 174,-252 185.598,-258.183 198.926,-262.88 211.643,-266.404"/>
<polygon fill="midnightblue" stroke="midnightblue" points="87.7308,-176.762 78.407,-171.73 82.5579,-181.478 87.7308,-176.762"/>
</g>
<!-- Node4 -->
<g id="node4" class="node"><title>Node4</title>
<g id="a_node4"><a xlink:href="../../d4/df2/class_cell_1_1_pred_prey_cell.html#a718ac42962d2c125788c85518cc1031e" target="_top" xlink:title="Cell.PredPreyCell.checkBreed">
<polygon fill="white" stroke="black" points="185,-190.5 185,-209.5 341,-209.5 341,-190.5 185,-190.5"/>
<text text-anchor="middle" x="263" y="-197.5" font-family="Helvetica,sans-Serif" font-size="10.00">Cell.PredPreyCell.checkBreed</text>
</a>
</g>
</g>
<!-- Node1&#45;&gt;Node4 -->
<g id="edge3" class="edge"><title>Node1&#45;&gt;Node4</title>
<path fill="none" stroke="midnightblue" d="M128.298,-173.538C155.683,-178.958 187.933,-185.341 213.899,-190.48"/>
<polygon fill="midnightblue" stroke="midnightblue" points="128.939,-170.097 118.45,-171.589 127.58,-176.964 128.939,-170.097"/>
</g>
<!-- Node5 -->
<g id="node5" class="node"><title>Node5</title>
<g id="a_node5"><a xlink:href="../../df/d99/class_cell_1_1_shark_cell.html#ad392515e1d48584cae2153849ddee8b8" target="_top" xlink:title="Cell.SharkCell.updateStateandMove">
<polygon fill="white" stroke="black" points="389,-223.5 389,-242.5 577,-242.5 577,-223.5 389,-223.5"/>
<text text-anchor="middle" x="483" y="-230.5" font-family="Helvetica,sans-Serif" font-size="10.00">Cell.SharkCell.updateStateandMove</text>
</a>
</g>
</g>
<!-- Node1&#45;&gt;Node5 -->
<g id="edge12" class="edge"><title>Node1&#45;&gt;Node5</title>
<path fill="none" stroke="midnightblue" d="M91.3533,-177.532C111.535,-191.249 143.227,-210.371 174,-219 244.222,-238.692 326.942,-241.388 388.965,-239.602"/>
<polygon fill="midnightblue" stroke="midnightblue" points="93.1409,-174.512 82.9351,-171.667 89.1394,-180.256 93.1409,-174.512"/>
</g>
<!-- Node6 -->
<g id="node6" class="node"><title>Node6</title>
<g id="a_node6"><a xlink:href="../../da/db4/class_cell_1_1_fish_cell.html#a99dbc3ff08c9c6f28c41d2f873b9a3c4" target="_top" xlink:title="Cell.FishCell.updateStateandMove">
<polygon fill="white" stroke="black" points="393.5,-177.5 393.5,-196.5 572.5,-196.5 572.5,-177.5 393.5,-177.5"/>
<text text-anchor="middle" x="483" y="-184.5" font-family="Helvetica,sans-Serif" font-size="10.00">Cell.FishCell.updateStateandMove</text>
</a>
</g>
</g>
<!-- Node1&#45;&gt;Node6 -->
<g id="edge13" class="edge"><title>Node1&#45;&gt;Node6</title>
<path fill="none" stroke="midnightblue" d="M147.632,-166.711C217.475,-170.949 320.049,-177.173 393.146,-181.608"/>
<polygon fill="midnightblue" stroke="midnightblue" points="147.766,-163.212 137.572,-166.1 147.342,-170.2 147.766,-163.212"/>
</g>
<!-- Node7 -->
<g id="node7" class="node"><title>Node7</title>
<g id="a_node7"><a xlink:href="../../d4/d7a/class_cell_1_1_segregation_cell.html#a3b3a8464c961fb23c378c280aebcc49c" target="_top" xlink:title="Cell.SegregationCell.move">
<polygon fill="white" stroke="black" points="191.5,-114.5 191.5,-133.5 334.5,-133.5 334.5,-114.5 191.5,-114.5"/>
<text text-anchor="middle" x="263" y="-121.5" font-family="Helvetica,sans-Serif" font-size="10.00">Cell.SegregationCell.move</text>
</a>
</g>
</g>
<!-- Node1&#45;&gt;Node7 -->
<g id="edge6" class="edge"><title>Node1&#45;&gt;Node7</title>
<path fill="none" stroke="midnightblue" d="M128.298,-150.462C155.683,-145.042 187.933,-138.659 213.899,-133.52"/>
<polygon fill="midnightblue" stroke="midnightblue" points="127.58,-147.036 118.45,-152.411 128.939,-153.903 127.58,-147.036"/>
</g>
<!-- Node9 -->
<g id="node9" class="node"><title>Node9</title>
<g id="a_node9"><a xlink:href="../../d4/d3e/class_cell_1_1_sugar_cell.html#aadb2f103956e672b8e384bdd665bb0e4" target="_top" xlink:title="Cell.SugarCell.move">
<polygon fill="white" stroke="black" points="206.5,-76.5 206.5,-95.5 319.5,-95.5 319.5,-76.5 206.5,-76.5"/>
<text text-anchor="middle" x="263" y="-83.5" font-family="Helvetica,sans-Serif" font-size="10.00">Cell.SugarCell.move</text>
</a>
</g>
</g>
<!-- Node1&#45;&gt;Node9 -->
<g id="edge8" class="edge"><title>Node1&#45;&gt;Node9</title>
<path fill="none" stroke="midnightblue" d="M92.776,-146.995C113.255,-134.13 144.557,-115.982 174,-105 184.251,-101.176 195.476,-98.0234 206.375,-95.4599"/>
<polygon fill="midnightblue" stroke="midnightblue" points="90.7172,-144.157 84.174,-152.49 94.4855,-150.056 90.7172,-144.157"/>
</g>
<!-- Node11 -->
<g id="node11" class="node"><title>Node11</title>
<g id="a_node11"><a xlink:href="../../dd/d55/class_cell_1_1_life_cell.html#aaa3aa3dc1544e13365c117d6da267ea1" target="_top" xlink:title="Cell.LifeCell.updateStateandMove">
<polygon fill="white" stroke="black" points="174.5,-38.5 174.5,-57.5 351.5,-57.5 351.5,-38.5 174.5,-38.5"/>
<text text-anchor="middle" x="263" y="-45.5" font-family="Helvetica,sans-Serif" font-size="10.00">Cell.LifeCell.updateStateandMove</text>
</a>
</g>
</g>
<!-- Node1&#45;&gt;Node11 -->
<g id="edge10" class="edge"><title>Node1&#45;&gt;Node11</title>
<path fill="none" stroke="midnightblue" d="M83.8422,-144.647C102.115,-122.979 136.398,-86.4054 174,-67 181.5,-63.1293 189.752,-60.0462 198.104,-57.5906"/>
<polygon fill="midnightblue" stroke="midnightblue" points="81.1008,-142.47 77.4416,-152.413 86.5026,-146.922 81.1008,-142.47"/>
</g>
<!-- Node12 -->
<g id="node12" class="node"><title>Node12</title>
<g id="a_node12"><a xlink:href="../../d5/de8/class_cell_1_1_fire_cell.html#a27714bd4a70a2da01d469668d46ef827" target="_top" xlink:title="Cell.FireCell.updateStateandMove">
<polygon fill="white" stroke="black" points="174.5,-0.5 174.5,-19.5 351.5,-19.5 351.5,-0.5 174.5,-0.5"/>
<text text-anchor="middle" x="263" y="-7.5" font-family="Helvetica,sans-Serif" font-size="10.00">Cell.FireCell.updateStateandMove</text>
</a>
</g>
</g>
<!-- Node1&#45;&gt;Node12 -->
<g id="edge11" class="edge"><title>Node1&#45;&gt;Node12</title>
<path fill="none" stroke="midnightblue" d="M79.1395,-143.284C94.4681,-113.987 128.234,-57.6866 174,-29 180.224,-25.0985 187.129,-21.9892 194.255,-19.5126"/>
<polygon fill="midnightblue" stroke="midnightblue" points="75.9019,-141.93 74.4971,-152.431 82.144,-145.098 75.9019,-141.93"/>
</g>
<!-- Node4&#45;&gt;Node5 -->
<g id="edge4" class="edge"><title>Node4&#45;&gt;Node5</title>
<path fill="none" stroke="midnightblue" d="M336.784,-211.018C363.388,-215.045 393.239,-219.564 418.926,-223.452"/>
<polygon fill="midnightblue" stroke="midnightblue" points="337.173,-207.537 326.762,-209.501 336.126,-214.458 337.173,-207.537"/>
</g>
<!-- Node4&#45;&gt;Node6 -->
<g id="edge5" class="edge"><title>Node4&#45;&gt;Node6</title>
<path fill="none" stroke="midnightblue" d="M351.184,-194.801C365.081,-193.972 379.472,-193.114 393.401,-192.283"/>
<polygon fill="midnightblue" stroke="midnightblue" points="350.939,-191.309 341.165,-195.398 351.356,-198.297 350.939,-191.309"/>
</g>
<!-- Node8 -->
<g id="node8" class="node"><title>Node8</title>
<g id="a_node8"><a xlink:href="../../d4/d7a/class_cell_1_1_segregation_cell.html#a77fa4d67f3332475bf4d5207757682cf" target="_top" xlink:title="Cell.SegregationCell.update\lStateandMove">
<polygon fill="white" stroke="black" points="408.5,-112 408.5,-142 557.5,-142 557.5,-112 408.5,-112"/>
<text text-anchor="start" x="416.5" y="-130" font-family="Helvetica,sans-Serif" font-size="10.00">Cell.SegregationCell.update</text>
<text text-anchor="middle" x="483" y="-119" font-family="Helvetica,sans-Serif" font-size="10.00">StateandMove</text>
</a>
</g>
</g>
<!-- Node7&#45;&gt;Node8 -->
<g id="edge7" class="edge"><title>Node7&#45;&gt;Node8</title>
<path fill="none" stroke="midnightblue" d="M344.838,-125.112C365.598,-125.398 387.822,-125.704 408.206,-125.984"/>
<polygon fill="midnightblue" stroke="midnightblue" points="344.826,-121.612 334.778,-124.974 344.729,-128.611 344.826,-121.612"/>
</g>
<!-- Node10 -->
<g id="node10" class="node"><title>Node10</title>
<g id="a_node10"><a xlink:href="../../d4/d3e/class_cell_1_1_sugar_cell.html#a9f02e4354c6e886bda998ff19e6589df" target="_top" xlink:title="Cell.SugarCell.updateStateandMove">
<polygon fill="white" stroke="black" points="388.5,-73.5 388.5,-92.5 577.5,-92.5 577.5,-73.5 388.5,-73.5"/>
<text text-anchor="middle" x="483" y="-80.5" font-family="Helvetica,sans-Serif" font-size="10.00">Cell.SugarCell.updateStateandMove</text>
</a>
</g>
</g>
<!-- Node9&#45;&gt;Node10 -->
<g id="edge9" class="edge"><title>Node9&#45;&gt;Node10</title>
<path fill="none" stroke="midnightblue" d="M329.63,-85.0968C348.128,-84.8423 368.617,-84.5603 388.414,-84.2879"/>
<polygon fill="midnightblue" stroke="midnightblue" points="329.526,-81.5978 319.575,-85.2352 329.622,-88.5972 329.526,-81.5978"/>
</g>
</g>
</svg>
        <g id="navigator" transform="translate(0 0)" fill="#404254">
                <rect fill="#f2f5e9" fill-opacity="0.5" stroke="#606060" stroke-width=".5" x="0" y="0" width="60" height="60"/>
                <use id="zoomplus" xlink:href="#zoomPlus" x="17" y="9" onmousedown="handleZoom(evt,'in')"/>
                <use id="zoomminus" xlink:href="#zoomMin" x="42" y="9" onmousedown="handleZoom(evt,'out')"/>
                <use id="reset" xlink:href="#resetDef" x="30" y="36" onmousedown="handleReset()"/>
                <g id="arrowUp" xlink:href="#dirArrow" transform="translate(30 24)" onmousedown="handlePan(0,-1)">
                  <use xlink:href="#rim" fill="#404040">
                        <set attributeName="fill" to="#808080" begin="arrowUp.mouseover" end="arrowUp.mouseout"/>
                  </use>
                  <path fill="none" stroke="white" stroke-width="1.5" d="M0,-3.0v7 M-2.5,-0.5L0,-3.0L2.5,-0.5"/>
                </g>
                <g id="arrowRight" xlink:href="#dirArrow" transform="rotate(90) translate(36 -43)" onmousedown="handlePan(1,0)">
                  <use xlink:href="#rim" fill="#404040">
                        <set attributeName="fill" to="#808080" begin="arrowRight.mouseover" end="arrowRight.mouseout"/>
                  </use>
                  <path fill="none" stroke="white" stroke-width="1.5" d="M0,-3.0v7 M-2.5,-0.5L0,-3.0L2.5,-0.5"/>
                </g>
                <g id="arrowDown" xlink:href="#dirArrow" transform="rotate(180) translate(-30 -48)" onmousedown="handlePan(0,1)">
                  <use xlink:href="#rim" fill="#404040">
                        <set attributeName="fill" to="#808080" begin="arrowDown.mouseover" end="arrowDown.mouseout"/>
                  </use>
                  <path fill="none" stroke="white" stroke-width="1.5" d="M0,-3.0v7 M-2.5,-0.5L0,-3.0L2.5,-0.5"/>
                </g>
                <g id="arrowLeft" xlink:href="#dirArrow" transform="rotate(270) translate(-36 17)" onmousedown="handlePan(-1,0)">
                  <use xlink:href="#rim" fill="#404040">
                        <set attributeName="fill" to="#808080" begin="arrowLeft.mouseover" end="arrowLeft.mouseout"/>
                  </use>
                  <path fill="none" stroke="white" stroke-width="1.5" d="M0,-3.0v7 M-2.5,-0.5L0,-3.0L2.5,-0.5"/>
                </g>
        </g>
        <svg viewBox="0 0 15 15" width="100%" height="30px" preserveAspectRatio="xMaxYMin meet">
         <g id="arrow_out" transform="scale(0.3 0.3)">
          <a xlink:href="class_patch_1_1_patch_a798cf940ecaa1d512b2df9c717e4d834_icgraph_org.svg" target="_base">
           <rect id="button" ry="5" rx="5" y="6" x="6" height="38" width="38"
                fill="#f2f5e9" fill-opacity="0.5" stroke="#606060" stroke-width="1.0"/>
           <path id="arrow"
             d="M 11.500037,31.436501 C 11.940474,20.09759 22.043105,11.32322 32.158766,21.979434 L 37.068811,17.246167 C 37.068811,17.246167 37.088388,32 37.088388,32 L 22.160133,31.978069 C 22.160133,31.978069 26.997745,27.140456 26.997745,27.140456 C 18.528582,18.264221 13.291696,25.230495 11.500037,31.436501 z"
             style="fill:#404040;"/>
          </a>
         </g>
        </svg>
</svg>
