<?xml version="1.0" encoding="UTF-8" standalone="no"?>
<!DOCTYPE svg PUBLIC "-//W3C//DTD SVG 1.1//EN"
 "http://www.w3.org/Graphics/SVG/1.1/DTD/svg11.dtd">
<!-- Generated by graphviz version 2.36.0 (20140111.2315)
 -->
<!-- Title: Patch.Patch.getCurrentX Pages: 1 -->
<svg width="548pt" height="115pt"
 viewBox="0.00 0.00 548.00 115.00" xmlns="http://www.w3.org/2000/svg" xmlns:xlink="http://www.w3.org/1999/xlink">
<g id="graph0" class="graph" transform="scale(1 1) rotate(0) translate(4 111)">
<title>Patch.Patch.getCurrentX</title>
<polygon fill="white" stroke="none" points="-4,4 -4,-111 544,-111 544,4 -4,4"/>
<!-- Node1 -->
<g id="node1" class="node"><title>Node1</title>
<polygon fill="#bfbfbf" stroke="black" points="0.5,-38.5 0.5,-57.5 133.5,-57.5 133.5,-38.5 0.5,-38.5"/>
<text text-anchor="middle" x="67" y="-45.5" font-family="Helvetica,sans-Serif" font-size="10.00">Patch.Patch.getCurrentX</text>
</g>
<!-- Node2 -->
<g id="node2" class="node"><title>Node2</title>
<g id="a_node2"><a xlink:href="../../d4/d3e/class_cell_1_1_sugar_cell.html#a0a6356ace75fea882418321582a8295f" target="_top" xlink:title="Cell.SugarCell.findHighest\lSugar">
<polygon fill="white" stroke="black" points="172,-77 172,-107 312,-107 312,-77 172,-77"/>
<text text-anchor="start" x="180" y="-95" font-family="Helvetica,sans-Serif" font-size="10.00">Cell.SugarCell.findHighest</text>
<text text-anchor="middle" x="242" y="-84" font-family="Helvetica,sans-Serif" font-size="10.00">Sugar</text>
</a>
</g>
</g>
<!-- Node1&#45;&gt;Node2 -->
<g id="edge1" class="edge"><title>Node1&#45;&gt;Node2</title>
<path fill="none" stroke="midnightblue" d="M115.285,-60.0261C135.805,-65.2453 160.061,-71.4144 181.766,-76.9346"/>
<polygon fill="midnightblue" stroke="midnightblue" points="116.093,-56.6203 105.538,-57.5473 114.367,-63.4043 116.093,-56.6203"/>
</g>
<!-- Node4 -->
<g id="node4" class="node"><title>Node4</title>
<g id="a_node4"><a xlink:href="../../d4/df2/class_cell_1_1_pred_prey_cell.html#a19b6b02d831c37eca6c6e9f138e6d721" target="_top" xlink:title="Cell.PredPreyCell.pickMove">
<polygon fill="white" stroke="black" points="170,-0.5 170,-19.5 314,-19.5 314,-0.5 170,-0.5"/>
<text text-anchor="middle" x="242" y="-7.5" font-family="Helvetica,sans-Serif" font-size="10.00">Cell.PredPreyCell.pickMove</text>
</a>
</g>
</g>
<!-- Node1&#45;&gt;Node4 -->
<g id="edge3" class="edge"><title>Node1&#45;&gt;Node4</title>
<path fill="none" stroke="midnightblue" d="M121.505,-36.2474C145.967,-30.8742 174.571,-24.5914 197.659,-19.5201"/>
<polygon fill="midnightblue" stroke="midnightblue" points="120.671,-32.847 111.655,-38.411 122.173,-39.684 120.671,-32.847"/>
</g>
<!-- Node5 -->
<g id="node5" class="node"><title>Node5</title>
<g id="a_node5"><a xlink:href="../../df/d99/class_cell_1_1_shark_cell.html#ad392515e1d48584cae2153849ddee8b8" target="_top" xlink:title="Cell.SharkCell.updateStateandMove">
<polygon fill="white" stroke="black" points="351,-38.5 351,-57.5 539,-57.5 539,-38.5 351,-38.5"/>
<text text-anchor="middle" x="445" y="-45.5" font-family="Helvetica,sans-Serif" font-size="10.00">Cell.SharkCell.updateStateandMove</text>
</a>
</g>
</g>
<!-- Node1&#45;&gt;Node5 -->
<g id="edge6" class="edge"><title>Node1&#45;&gt;Node5</title>
<path fill="none" stroke="midnightblue" d="M144.045,-48C203.777,-48 287.226,-48 350.945,-48"/>
<polygon fill="midnightblue" stroke="midnightblue" points="143.924,-44.5001 133.924,-48 143.924,-51.5001 143.924,-44.5001"/>
</g>
<!-- Node3 -->
<g id="node3" class="node"><title>Node3</title>
<g id="a_node3"><a xlink:href="../../d4/d3e/class_cell_1_1_sugar_cell.html#a9f02e4354c6e886bda998ff19e6589df" target="_top" xlink:title="Cell.SugarCell.updateStateandMove">
<polygon fill="white" stroke="black" points="350.5,-82.5 350.5,-101.5 539.5,-101.5 539.5,-82.5 350.5,-82.5"/>
<text text-anchor="middle" x="445" y="-89.5" font-family="Helvetica,sans-Serif" font-size="10.00">Cell.SugarCell.updateStateandMove</text>
</a>
</g>
</g>
<!-- Node2&#45;&gt;Node3 -->
<g id="edge2" class="edge"><title>Node2&#45;&gt;Node3</title>
<path fill="none" stroke="midnightblue" d="M322.371,-92C331.512,-92 340.896,-92 350.203,-92"/>
<polygon fill="midnightblue" stroke="midnightblue" points="322.173,-88.5001 312.173,-92 322.173,-95.5001 322.173,-88.5001"/>
</g>
<!-- Node4&#45;&gt;Node5 -->
<g id="edge4" class="edge"><title>Node4&#45;&gt;Node5</title>
<path fill="none" stroke="midnightblue" d="M303.396,-21.4181C332.155,-26.8552 366.156,-33.2832 393.518,-38.4561"/>
<polygon fill="midnightblue" stroke="midnightblue" points="303.937,-17.9586 293.461,-19.54 302.637,-24.8368 303.937,-17.9586"/>
</g>
<!-- Node6 -->
<g id="node6" class="node"><title>Node6</title>
<g id="a_node6"><a xlink:href="../../da/db4/class_cell_1_1_fish_cell.html#a99dbc3ff08c9c6f28c41d2f873b9a3c4" target="_top" xlink:title="Cell.FishCell.updateStateandMove">
<polygon fill="white" stroke="black" points="355.5,-0.5 355.5,-19.5 534.5,-19.5 534.5,-0.5 355.5,-0.5"/>
<text text-anchor="middle" x="445" y="-7.5" font-family="Helvetica,sans-Serif" font-size="10.00">Cell.FishCell.updateStateandMove</text>
</a>
</g>
</g>
<!-- Node4&#45;&gt;Node6 -->
<g id="edge5" class="edge"><title>Node4&#45;&gt;Node6</title>
<path fill="none" stroke="midnightblue" d="M324.267,-10C334.496,-10 345,-10 355.335,-10"/>
<polygon fill="midnightblue" stroke="midnightblue" points="324.148,-6.5001 314.148,-10 324.148,-13.5001 324.148,-6.5001"/>
</g>
</g>
</svg>
