<?xml version="1.0" encoding="UTF-8" standalone="no"?>
<!DOCTYPE svg PUBLIC "-//W3C//DTD SVG 1.1//EN"
 "http://www.w3.org/Graphics/SVG/1.1/DTD/svg11.dtd">
<!-- Generated by graphviz version 2.36.0 (20140111.2315)
 -->
<!-- Title: Patch.Patch.setFutureState Pages: 1 -->
<svg width="530pt" height="28pt"
 viewBox="0.00 0.00 530.00 28.00" xmlns="http://www.w3.org/2000/svg" xmlns:xlink="http://www.w3.org/1999/xlink">
<g id="graph0" class="graph" transform="scale(1 1) rotate(0) translate(4 24)">
<title>Patch.Patch.setFutureState</title>
<polygon fill="white" stroke="none" points="-4,4 -4,-24 526,-24 526,4 -4,4"/>
<!-- Node1 -->
<g id="node1" class="node"><title>Node1</title>
<polygon fill="#bfbfbf" stroke="black" points="0,-0.5 0,-19.5 146,-19.5 146,-0.5 0,-0.5"/>
<text text-anchor="middle" x="73" y="-7.5" font-family="Helvetica,sans-Serif" font-size="10.00">Patch.Patch.setFutureState</text>
</g>
<!-- Node2 -->
<g id="node2" class="node"><title>Node2</title>
<g id="a_node2"><a xlink:href="../../d4/d3e/class_cell_1_1_sugar_cell.html#aadb2f103956e672b8e384bdd665bb0e4" target="_top" xlink:title="Cell.SugarCell.move">
<polygon fill="white" stroke="black" points="182.5,-0.5 182.5,-19.5 295.5,-19.5 295.5,-0.5 182.5,-0.5"/>
<text text-anchor="middle" x="239" y="-7.5" font-family="Helvetica,sans-Serif" font-size="10.00">Cell.SugarCell.move</text>
</a>
</g>
</g>
<!-- Node1&#45;&gt;Node2 -->
<g id="edge1" class="edge"><title>Node1&#45;&gt;Node2</title>
<path fill="none" stroke="midnightblue" d="M156.589,-10C165.276,-10 173.954,-10 182.234,-10"/>
<polygon fill="midnightblue" stroke="midnightblue" points="156.41,-6.5001 146.41,-10 156.41,-13.5001 156.41,-6.5001"/>
</g>
<!-- Node3 -->
<g id="node3" class="node"><title>Node3</title>
<g id="a_node3"><a xlink:href="../../d4/d3e/class_cell_1_1_sugar_cell.html#a9f02e4354c6e886bda998ff19e6589df" target="_top" xlink:title="Cell.SugarCell.updateStateandMove">
<polygon fill="white" stroke="black" points="332.5,-0.5 332.5,-19.5 521.5,-19.5 521.5,-0.5 332.5,-0.5"/>
<text text-anchor="middle" x="427" y="-7.5" font-family="Helvetica,sans-Serif" font-size="10.00">Cell.SugarCell.updateStateandMove</text>
</a>
</g>
</g>
<!-- Node2&#45;&gt;Node3 -->
<g id="edge2" class="edge"><title>Node2&#45;&gt;Node3</title>
<path fill="none" stroke="midnightblue" d="M305.602,-10C314.318,-10 323.385,-10 332.46,-10"/>
<polygon fill="midnightblue" stroke="midnightblue" points="305.554,-6.5001 295.554,-10 305.554,-13.5001 305.554,-6.5001"/>
</g>
</g>
</svg>
