<?xml version="1.0" encoding="UTF-8" standalone="no"?>
<!DOCTYPE svg PUBLIC "-//W3C//DTD SVG 1.1//EN"
 "http://www.w3.org/Graphics/SVG/1.1/DTD/svg11.dtd">
<!-- Generated by graphviz version 2.36.0 (20140111.2315)
 -->
<!-- Title: Patch.Patch.getCurrentY Pages: 1 -->
<svg width="546pt" height="115pt"
 viewBox="0.00 0.00 546.00 115.00" xmlns="http://www.w3.org/2000/svg" xmlns:xlink="http://www.w3.org/1999/xlink">
<g id="graph0" class="graph" transform="scale(1 1) rotate(0) translate(4 111)">
<title>Patch.Patch.getCurrentY</title>
<polygon fill="white" stroke="none" points="-4,4 -4,-111 542,-111 542,4 -4,4"/>
<!-- Node1 -->
<g id="node1" class="node"><title>Node1</title>
<polygon fill="#bfbfbf" stroke="black" points="0,-38.5 0,-57.5 132,-57.5 132,-38.5 0,-38.5"/>
<text text-anchor="middle" x="66" y="-45.5" font-family="Helvetica,sans-Serif" font-size="10.00">Patch.Patch.getCurrentY</text>
</g>
<!-- Node2 -->
<g id="node2" class="node"><title>Node2</title>
<g id="a_node2"><a xlink:href="../../d4/d3e/class_cell_1_1_sugar_cell.html#a0a6356ace75fea882418321582a8295f" target="_top" xlink:title="Cell.SugarCell.findHighest\lSugar">
<polygon fill="white" stroke="black" points="170,-77 170,-107 310,-107 310,-77 170,-77"/>
<text text-anchor="start" x="178" y="-95" font-family="Helvetica,sans-Serif" font-size="10.00">Cell.SugarCell.findHighest</text>
<text text-anchor="middle" x="240" y="-84" font-family="Helvetica,sans-Serif" font-size="10.00">Sugar</text>
</a>
</g>
</g>
<!-- Node1&#45;&gt;Node2 -->
<g id="edge1" class="edge"><title>Node1&#45;&gt;Node2</title>
<path fill="none" stroke="midnightblue" d="M114.011,-60.0261C134.413,-65.2453 158.529,-71.4144 180.108,-76.9346"/>
<polygon fill="midnightblue" stroke="midnightblue" points="114.877,-56.6349 104.321,-57.5473 113.142,-63.4166 114.877,-56.6349"/>
</g>
<!-- Node4 -->
<g id="node4" class="node"><title>Node4</title>
<g id="a_node4"><a xlink:href="../../d4/df2/class_cell_1_1_pred_prey_cell.html#a19b6b02d831c37eca6c6e9f138e6d721" target="_top" xlink:title="Cell.PredPreyCell.pickMove">
<polygon fill="white" stroke="black" points="168,-0.5 168,-19.5 312,-19.5 312,-0.5 168,-0.5"/>
<text text-anchor="middle" x="240" y="-7.5" font-family="Helvetica,sans-Serif" font-size="10.00">Cell.PredPreyCell.pickMove</text>
</a>
</g>
</g>
<!-- Node1&#45;&gt;Node4 -->
<g id="edge3" class="edge"><title>Node1&#45;&gt;Node4</title>
<path fill="none" stroke="midnightblue" d="M120.196,-36.2474C144.517,-30.8742 172.955,-24.5914 195.909,-19.5201"/>
<polygon fill="midnightblue" stroke="midnightblue" points="119.412,-32.836 110.403,-38.411 120.922,-39.6712 119.412,-32.836"/>
</g>
<!-- Node5 -->
<g id="node5" class="node"><title>Node5</title>
<g id="a_node5"><a xlink:href="../../df/d99/class_cell_1_1_shark_cell.html#ad392515e1d48584cae2153849ddee8b8" target="_top" xlink:title="Cell.SharkCell.updateStateandMove">
<polygon fill="white" stroke="black" points="349,-38.5 349,-57.5 537,-57.5 537,-38.5 349,-38.5"/>
<text text-anchor="middle" x="443" y="-45.5" font-family="Helvetica,sans-Serif" font-size="10.00">Cell.SharkCell.updateStateandMove</text>
</a>
</g>
</g>
<!-- Node1&#45;&gt;Node5 -->
<g id="edge6" class="edge"><title>Node1&#45;&gt;Node5</title>
<path fill="none" stroke="midnightblue" d="M142.405,-48C201.941,-48 285.301,-48 348.98,-48"/>
<polygon fill="midnightblue" stroke="midnightblue" points="142.32,-44.5001 132.32,-48 142.32,-51.5001 142.32,-44.5001"/>
</g>
<!-- Node3 -->
<g id="node3" class="node"><title>Node3</title>
<g id="a_node3"><a xlink:href="../../d4/d3e/class_cell_1_1_sugar_cell.html#a9f02e4354c6e886bda998ff19e6589df" target="_top" xlink:title="Cell.SugarCell.updateStateandMove">
<polygon fill="white" stroke="black" points="348.5,-82.5 348.5,-101.5 537.5,-101.5 537.5,-82.5 348.5,-82.5"/>
<text text-anchor="middle" x="443" y="-89.5" font-family="Helvetica,sans-Serif" font-size="10.00">Cell.SugarCell.updateStateandMove</text>
</a>
</g>
</g>
<!-- Node2&#45;&gt;Node3 -->
<g id="edge2" class="edge"><title>Node2&#45;&gt;Node3</title>
<path fill="none" stroke="midnightblue" d="M320.371,-92C329.512,-92 338.896,-92 348.203,-92"/>
<polygon fill="midnightblue" stroke="midnightblue" points="320.173,-88.5001 310.173,-92 320.173,-95.5001 320.173,-88.5001"/>
</g>
<!-- Node4&#45;&gt;Node5 -->
<g id="edge4" class="edge"><title>Node4&#45;&gt;Node5</title>
<path fill="none" stroke="midnightblue" d="M301.396,-21.4181C330.155,-26.8552 364.156,-33.2832 391.518,-38.4561"/>
<polygon fill="midnightblue" stroke="midnightblue" points="301.937,-17.9586 291.461,-19.54 300.637,-24.8368 301.937,-17.9586"/>
</g>
<!-- Node6 -->
<g id="node6" class="node"><title>Node6</title>
<g id="a_node6"><a xlink:href="../../da/db4/class_cell_1_1_fish_cell.html#a99dbc3ff08c9c6f28c41d2f873b9a3c4" target="_top" xlink:title="Cell.FishCell.updateStateandMove">
<polygon fill="white" stroke="black" points="353.5,-0.5 353.5,-19.5 532.5,-19.5 532.5,-0.5 353.5,-0.5"/>
<text text-anchor="middle" x="443" y="-7.5" font-family="Helvetica,sans-Serif" font-size="10.00">Cell.FishCell.updateStateandMove</text>
</a>
</g>
</g>
<!-- Node4&#45;&gt;Node6 -->
<g id="edge5" class="edge"><title>Node4&#45;&gt;Node6</title>
<path fill="none" stroke="midnightblue" d="M322.267,-10C332.496,-10 343,-10 353.335,-10"/>
<polygon fill="midnightblue" stroke="midnightblue" points="322.148,-6.5001 312.148,-10 322.148,-13.5001 322.148,-6.5001"/>
</g>
</g>
</svg>
