<?xml version="1.0" encoding="UTF-8" standalone="no"?>
<!DOCTYPE svg PUBLIC "-//W3C//DTD SVG 1.1//EN"
 "http://www.w3.org/Graphics/SVG/1.1/DTD/svg11.dtd">
<!-- Generated by graphviz version 2.36.0 (20140111.2315)
 -->
<!-- Title: Patch.Patch.currentToFuture Pages: 1 -->
<svg width="2324pt" height="116pt"
 viewBox="0.00 0.00 2324.00 116.00" xmlns="http://www.w3.org/2000/svg" xmlns:xlink="http://www.w3.org/1999/xlink">
<g id="graph0" class="graph" transform="scale(1 1) rotate(0) translate(4 112)">
<title>Patch.Patch.currentToFuture</title>
<polygon fill="white" stroke="none" points="-4,4 -4,-112 2320,-112 2320,4 -4,4"/>
<!-- Node1 -->
<g id="node1" class="node"><title>Node1</title>
<polygon fill="#bfbfbf" stroke="black" points="0.5,-76.5 0.5,-95.5 149.5,-95.5 149.5,-76.5 0.5,-76.5"/>
<text text-anchor="middle" x="75" y="-83.5" font-family="Helvetica,sans-Serif" font-size="10.00">Patch.Patch.currentToFuture</text>
</g>
<!-- Node2 -->
<g id="node2" class="node"><title>Node2</title>
<g id="a_node2"><a xlink:href="../../df/d71/classcellsociety__team02_1_1_grid_model.html#ab59dfb960d9ac9cc5b875ae9cda15f92" target="_top" xlink:title="cellsociety_team02.GridModel.set\lCurrentToFuture">
<polygon fill="white" stroke="black" points="186,-71 186,-101 364,-101 364,-71 186,-71"/>
<text text-anchor="start" x="194" y="-89" font-family="Helvetica,sans-Serif" font-size="10.00">cellsociety_team02.GridModel.set</text>
<text text-anchor="middle" x="275" y="-78" font-family="Helvetica,sans-Serif" font-size="10.00">CurrentToFuture</text>
</a>
</g>
</g>
<!-- Node1&#45;&gt;Node2 -->
<g id="edge1" class="edge"><title>Node1&#45;&gt;Node2</title>
<path fill="none" stroke="midnightblue" d="M159.759,-86C168.38,-86 177.159,-86 185.825,-86"/>
<polygon fill="midnightblue" stroke="midnightblue" points="159.728,-82.5001 149.728,-86 159.728,-89.5001 159.728,-82.5001"/>
</g>
<!-- Node3 -->
<g id="node3" class="node"><title>Node3</title>
<g id="a_node3"><a xlink:href="../../df/d71/classcellsociety__team02_1_1_grid_model.html#a866f20a5152d615d686b4412ed6d4e46" target="_top" xlink:title="cellsociety_team02.GridModel.update">
<polygon fill="white" stroke="black" points="400.5,-76.5 400.5,-95.5 597.5,-95.5 597.5,-76.5 400.5,-76.5"/>
<text text-anchor="middle" x="499" y="-83.5" font-family="Helvetica,sans-Serif" font-size="10.00">cellsociety_team02.GridModel.update</text>
</a>
</g>
</g>
<!-- Node2&#45;&gt;Node3 -->
<g id="edge2" class="edge"><title>Node2&#45;&gt;Node3</title>
<path fill="none" stroke="midnightblue" d="M374.143,-86C382.785,-86 391.532,-86 400.172,-86"/>
<polygon fill="midnightblue" stroke="midnightblue" points="374.059,-82.5001 364.059,-86 374.059,-89.5001 374.059,-82.5001"/>
</g>
<!-- Node4 -->
<g id="node4" class="node"><title>Node4</title>
<g id="a_node4"><a xlink:href="../../d9/daf/classcellsociety__team02_1_1_grid_view.html#a27a105e1810531f4958f9fc192c3cef1" target="_top" xlink:title="cellsociety_team02.GridView.step">
<polygon fill="white" stroke="black" points="634,-76.5 634,-95.5 810,-95.5 810,-76.5 634,-76.5"/>
<text text-anchor="middle" x="722" y="-83.5" font-family="Helvetica,sans-Serif" font-size="10.00">cellsociety_team02.GridView.step</text>
</a>
</g>
</g>
<!-- Node3&#45;&gt;Node4 -->
<g id="edge3" class="edge"><title>Node3&#45;&gt;Node4</title>
<path fill="none" stroke="midnightblue" d="M607.76,-86C616.454,-86 625.171,-86 633.695,-86"/>
<polygon fill="midnightblue" stroke="midnightblue" points="607.577,-82.5001 597.577,-86 607.577,-89.5001 607.577,-82.5001"/>
</g>
<!-- Node5 -->
<g id="node5" class="node"><title>Node5</title>
<g id="a_node5"><a xlink:href="../../d9/daf/classcellsociety__team02_1_1_grid_view.html#afcc7b83f62c116e77ab0843bfd4156b8" target="_top" xlink:title="cellsociety_team02.GridView.make\lButtons">
<polygon fill="white" stroke="black" points="1712,-49 1712,-79 1894,-79 1894,-49 1712,-49"/>
<text text-anchor="start" x="1720" y="-67" font-family="Helvetica,sans-Serif" font-size="10.00">cellsociety_team02.GridView.make</text>
<text text-anchor="middle" x="1803" y="-56" font-family="Helvetica,sans-Serif" font-size="10.00">Buttons</text>
</a>
</g>
</g>
<!-- Node4&#45;&gt;Node5 -->
<g id="edge4" class="edge"><title>Node4&#45;&gt;Node5</title>
<path fill="none" stroke="midnightblue" d="M820.045,-93.8849C906.139,-100.197 1035.35,-108 1148,-108 1148,-108 1148,-108 1370,-108 1506.29,-108 1540.8,-105.228 1676,-88 1694,-85.7059 1713.31,-82.4401 1731.27,-79.0537"/>
<polygon fill="midnightblue" stroke="midnightblue" points="820.257,-90.3911 810.026,-93.1428 819.74,-97.3719 820.257,-90.3911"/>
</g>
<!-- Node8 -->
<g id="node8" class="node"><title>Node8</title>
<g id="a_node8"><a xlink:href="../../d9/daf/classcellsociety__team02_1_1_grid_view.html#aa1d09688b48a4a95513e15eea18ec0e6" target="_top" xlink:title="cellsociety_team02.GridView.start\lHandler">
<polygon fill="white" stroke="black" points="846,-49 846,-79 1024,-79 1024,-49 846,-49"/>
<text text-anchor="start" x="854" y="-67" font-family="Helvetica,sans-Serif" font-size="10.00">cellsociety_team02.GridView.start</text>
<text text-anchor="middle" x="935" y="-56" font-family="Helvetica,sans-Serif" font-size="10.00">Handler</text>
</a>
</g>
</g>
<!-- Node4&#45;&gt;Node8 -->
<g id="edge7" class="edge"><title>Node4&#45;&gt;Node8</title>
<path fill="none" stroke="midnightblue" d="M820.063,-75.8797C828.642,-74.9851 837.297,-74.0828 845.797,-73.1965"/>
<polygon fill="midnightblue" stroke="midnightblue" points="819.623,-72.4065 810.04,-76.9247 820.349,-79.3688 819.623,-72.4065"/>
</g>
<!-- Node6 -->
<g id="node6" class="node"><title>Node6</title>
<g id="a_node6"><a xlink:href="../../d9/daf/classcellsociety__team02_1_1_grid_view.html#a4571898657e750f62c2df84cb398e135" target="_top" xlink:title="cellsociety_team02.GridView.initialize">
<polygon fill="white" stroke="black" points="1930,-54.5 1930,-73.5 2124,-73.5 2124,-54.5 1930,-54.5"/>
<text text-anchor="middle" x="2027" y="-61.5" font-family="Helvetica,sans-Serif" font-size="10.00">cellsociety_team02.GridView.initialize</text>
</a>
</g>
</g>
<!-- Node5&#45;&gt;Node6 -->
<g id="edge5" class="edge"><title>Node5&#45;&gt;Node6</title>
<path fill="none" stroke="midnightblue" d="M1904.56,-64C1913.03,-64 1921.57,-64 1930,-64"/>
<polygon fill="midnightblue" stroke="midnightblue" points="1904.3,-60.5001 1894.3,-64 1904.3,-67.5001 1904.3,-60.5001"/>
</g>
<!-- Node7 -->
<g id="node7" class="node"><title>Node7</title>
<g id="a_node7"><a xlink:href="../../d9/daf/classcellsociety__team02_1_1_grid_view.html#ada183e314764db770009f944205490df" target="_top" xlink:title="cellsociety_team02.GridView.\lGridView">
<polygon fill="white" stroke="black" points="2160.5,-49 2160.5,-79 2315.5,-79 2315.5,-49 2160.5,-49"/>
<text text-anchor="start" x="2168.5" y="-67" font-family="Helvetica,sans-Serif" font-size="10.00">cellsociety_team02.GridView.</text>
<text text-anchor="middle" x="2238" y="-56" font-family="Helvetica,sans-Serif" font-size="10.00">GridView</text>
</a>
</g>
</g>
<!-- Node6&#45;&gt;Node7 -->
<g id="edge6" class="edge"><title>Node6&#45;&gt;Node7</title>
<path fill="none" stroke="midnightblue" d="M2134.48,-64C2143.2,-64 2151.91,-64 2160.35,-64"/>
<polygon fill="midnightblue" stroke="midnightblue" points="2134.24,-60.5001 2124.24,-64 2134.24,-67.5001 2134.24,-60.5001"/>
</g>
<!-- Node9 -->
<g id="node9" class="node"><title>Node9</title>
<g id="a_node9"><a xlink:href="../../d9/daf/classcellsociety__team02_1_1_grid_view.html#a27ed5fc9bbf44efab6d23cb07096c36a" target="_top" xlink:title="cellsociety_team02.GridView.start\lAnimation">
<polygon fill="white" stroke="black" points="1060,-49 1060,-79 1238,-79 1238,-49 1060,-49"/>
<text text-anchor="start" x="1068" y="-67" font-family="Helvetica,sans-Serif" font-size="10.00">cellsociety_team02.GridView.start</text>
<text text-anchor="middle" x="1149" y="-56" font-family="Helvetica,sans-Serif" font-size="10.00">Animation</text>
</a>
</g>
</g>
<!-- Node8&#45;&gt;Node9 -->
<g id="edge8" class="edge"><title>Node8&#45;&gt;Node9</title>
<path fill="none" stroke="midnightblue" d="M1034.11,-64C1042.7,-64 1051.36,-64 1059.87,-64"/>
<polygon fill="midnightblue" stroke="midnightblue" points="1034.07,-60.5001 1024.07,-64 1034.07,-67.5001 1034.07,-60.5001"/>
</g>
<!-- Node10 -->
<g id="node10" class="node"><title>Node10</title>
<g id="a_node10"><a xlink:href="../../d9/daf/classcellsociety__team02_1_1_grid_view.html#a7b94250b9b4e419eb3b97394e3b86052" target="_top" xlink:title="cellsociety_team02.GridView.play\lPause">
<polygon fill="white" stroke="black" points="1500.5,-49 1500.5,-79 1675.5,-79 1675.5,-49 1500.5,-49"/>
<text text-anchor="start" x="1508.5" y="-67" font-family="Helvetica,sans-Serif" font-size="10.00">cellsociety_team02.GridView.play</text>
<text text-anchor="middle" x="1588" y="-56" font-family="Helvetica,sans-Serif" font-size="10.00">Pause</text>
</a>
</g>
</g>
<!-- Node9&#45;&gt;Node10 -->
<g id="edge9" class="edge"><title>Node9&#45;&gt;Node10</title>
<path fill="none" stroke="midnightblue" d="M1248.2,-64C1323.97,-64 1427.78,-64 1500.46,-64"/>
<polygon fill="midnightblue" stroke="midnightblue" points="1248.17,-60.5001 1238.17,-64 1248.17,-67.5001 1248.17,-60.5001"/>
</g>
<!-- Node11 -->
<g id="node11" class="node"><title>Node11</title>
<g id="a_node11"><a xlink:href="../../d9/daf/classcellsociety__team02_1_1_grid_view.html#a21d8f68b9be54d2f23f17af421c78b12" target="_top" xlink:title="cellsociety_team02.GridView.update\lSpeed">
<polygon fill="white" stroke="black" points="1274.5,-2 1274.5,-32 1463.5,-32 1463.5,-2 1274.5,-2"/>
<text text-anchor="start" x="1282.5" y="-20" font-family="Helvetica,sans-Serif" font-size="10.00">cellsociety_team02.GridView.update</text>
<text text-anchor="middle" x="1369" y="-9" font-family="Helvetica,sans-Serif" font-size="10.00">Speed</text>
</a>
</g>
</g>
<!-- Node9&#45;&gt;Node11 -->
<g id="edge11" class="edge"><title>Node9&#45;&gt;Node11</title>
<path fill="none" stroke="midnightblue" d="M1229.46,-46.8692C1252.02,-42.0053 1276.4,-36.7476 1298.34,-32.019"/>
<polygon fill="midnightblue" stroke="midnightblue" points="1228.61,-43.4707 1219.58,-48.9997 1230.09,-50.3135 1228.61,-43.4707"/>
</g>
<!-- Node10&#45;&gt;Node5 -->
<g id="edge10" class="edge"><title>Node10&#45;&gt;Node5</title>
<path fill="none" stroke="midnightblue" d="M1685.81,-64C1694.52,-64 1703.33,-64 1711.98,-64"/>
<polygon fill="midnightblue" stroke="midnightblue" points="1685.64,-60.5001 1675.64,-64 1685.64,-67.5001 1685.64,-60.5001"/>
</g>
<!-- Node12 -->
<g id="node12" class="node"><title>Node12</title>
<g id="a_node12"><a xlink:href="../../d9/daf/classcellsociety__team02_1_1_grid_view.html#a08ac9f0ccad1d9db92c9d92a127d77bc" target="_top" xlink:title="cellsociety_team02.GridView.set\lUpSpeedSlider">
<polygon fill="white" stroke="black" points="1503,-0 1503,-30 1673,-30 1673,-0 1503,-0"/>
<text text-anchor="start" x="1511" y="-18" font-family="Helvetica,sans-Serif" font-size="10.00">cellsociety_team02.GridView.set</text>
<text text-anchor="middle" x="1588" y="-7" font-family="Helvetica,sans-Serif" font-size="10.00">UpSpeedSlider</text>
</a>
</g>
</g>
<!-- Node11&#45;&gt;Node12 -->
<g id="edge12" class="edge"><title>Node11&#45;&gt;Node12</title>
<path fill="none" stroke="midnightblue" d="M1473.76,-16.0437C1483.54,-15.9535 1493.37,-15.8629 1502.94,-15.7748"/>
<polygon fill="midnightblue" stroke="midnightblue" points="1473.57,-12.5452 1463.6,-16.1373 1473.63,-19.5449 1473.57,-12.5452"/>
</g>
<!-- Node12&#45;&gt;Node5 -->
<g id="edge13" class="edge"><title>Node12&#45;&gt;Node5</title>
<path fill="none" stroke="midnightblue" d="M1664.34,-32.3309C1687.98,-37.7712 1713.88,-43.7285 1736.77,-48.9938"/>
<polygon fill="midnightblue" stroke="midnightblue" points="1664.88,-28.8657 1654.35,-30.0346 1663.32,-35.6875 1664.88,-28.8657"/>
</g>
</g>
</svg>
