<?xml version="1.0" encoding="UTF-8" standalone="no"?>
<!DOCTYPE svg PUBLIC "-//W3C//DTD SVG 1.1//EN"
 "http://www.w3.org/Graphics/SVG/1.1/DTD/svg11.dtd">
<!-- Generated by graphviz version 2.36.0 (20140111.2315)
 -->
<!-- Title: cellsociety_team02.XMLParser Pages: 1 -->
<svg width="499pt" height="242pt"
 viewBox="0.00 0.00 499.00 242.00" xmlns="http://www.w3.org/2000/svg" xmlns:xlink="http://www.w3.org/1999/xlink">
<g id="graph0" class="graph" transform="scale(1 1) rotate(0) translate(4 238)">
<title>cellsociety_team02.XMLParser</title>
<polygon fill="white" stroke="none" points="-4,4 -4,-238 495,-238 495,4 -4,4"/>
<!-- Node1 -->
<g id="node1" class="node"><title>Node1</title>
<polygon fill="#bfbfbf" stroke="black" points="179.5,-0.5 179.5,-19.5 340.5,-19.5 340.5,-0.5 179.5,-0.5"/>
<text text-anchor="middle" x="260" y="-7.5" font-family="Helvetica,sans-Serif" font-size="10.00">cellsociety_team02.XMLParser</text>
</g>
<!-- Node2 -->
<g id="node2" class="node"><title>Node2</title>
<g id="a_node2"><a xlink:href="../../d8/d83/classcellsociety__team02_1_1_factory.html" target="_top" xlink:title="cellsociety_team02.Factory">
<polygon fill="white" stroke="black" points="0,-68.5 0,-87.5 146,-87.5 146,-68.5 0,-68.5"/>
<text text-anchor="middle" x="73" y="-75.5" font-family="Helvetica,sans-Serif" font-size="10.00">cellsociety_team02.Factory</text>
</a>
</g>
</g>
<!-- Node2&#45;&gt;Node1 -->
<g id="edge1" class="edge"><title>Node2&#45;&gt;Node1</title>
<path fill="none" stroke="#9a32cd" stroke-dasharray="5,2" d="M88.9215,-61.4164C98.1588,-53.2352 110.427,-43.7437 123,-38 141.853,-29.3876 163.395,-23.5163 183.726,-19.5158"/>
<polygon fill="#9a32cd" stroke="#9a32cd" points="86.3239,-59.0518 81.3684,-68.4163 91.0821,-64.186 86.3239,-59.0518"/>
<text text-anchor="middle" x="141.5" y="-41.5" font-family="Helvetica,sans-Serif" font-size="10.00"> factory</text>
</g>
<!-- Node3 -->
<g id="node3" class="node"><title>Node3</title>
<polygon fill="white" stroke="#bfbfbf" points="45,-146.5 45,-165.5 101,-165.5 101,-146.5 45,-146.5"/>
<text text-anchor="middle" x="73" y="-153.5" font-family="Helvetica,sans-Serif" font-size="10.00">Random</text>
</g>
<!-- Node3&#45;&gt;Node2 -->
<g id="edge2" class="edge"><title>Node3&#45;&gt;Node2</title>
<path fill="none" stroke="#9a32cd" stroke-dasharray="5,2" d="M73,-136.224C73,-120.697 73,-99.3582 73,-87.6165"/>
<polygon fill="#9a32cd" stroke="#9a32cd" points="69.5001,-136.282 73,-146.282 76.5001,-136.282 69.5001,-136.282"/>
<text text-anchor="middle" x="85.5" y="-114.5" font-family="Helvetica,sans-Serif" font-size="10.00"> rand</text>
</g>
<!-- Node4 -->
<g id="node4" class="node"><title>Node4</title>
<g id="a_node4"><a xlink:href="../../d0/d0a/class_patch_1_1_patch.html" target="_top" xlink:title="Patch.Patch">
<polygon fill="white" stroke="black" points="224,-68.5 224,-87.5 296,-87.5 296,-68.5 224,-68.5"/>
<text text-anchor="middle" x="260" y="-75.5" font-family="Helvetica,sans-Serif" font-size="10.00">Patch.Patch</text>
</a>
</g>
</g>
<!-- Node4&#45;&gt;Node1 -->
<g id="edge3" class="edge"><title>Node4&#45;&gt;Node1</title>
<path fill="none" stroke="#9a32cd" stroke-dasharray="5,2" d="M260,-58.0413C260,-45.4724 260,-29.5631 260,-19.8411"/>
<polygon fill="#9a32cd" stroke="#9a32cd" points="256.5,-58.3716 260,-68.3717 263.5,-58.3717 256.5,-58.3716"/>
<text text-anchor="middle" x="289" y="-41.5" font-family="Helvetica,sans-Serif" font-size="10.00"> patchesList</text>
</g>
<!-- Node5 -->
<g id="node5" class="node"><title>Node5</title>
<polygon fill="white" stroke="#bfbfbf" points="183,-214.5 183,-233.5 305,-233.5 305,-214.5 183,-214.5"/>
<text text-anchor="middle" x="244" y="-221.5" font-family="Helvetica,sans-Serif" font-size="10.00">Map&lt; String, String &gt;</text>
</g>
<!-- Node5&#45;&gt;Node1 -->
<g id="edge7" class="edge"><title>Node5&#45;&gt;Node1</title>
<path fill="none" stroke="#9a32cd" stroke-dasharray="5,2" d="M229.914,-206.426C212.785,-184.243 187.183,-143.351 196,-106 204.59,-69.6133 235.079,-35.4354 250.67,-19.8458"/>
<polygon fill="#9a32cd" stroke="#9a32cd" points="227.19,-208.624 236.187,-214.22 232.643,-204.235 227.19,-208.624"/>
<text text-anchor="middle" x="223.5" y="-114.5" font-family="Helvetica,sans-Serif" font-size="10.00"> paramMap</text>
</g>
<!-- Node5&#45;&gt;Node4 -->
<g id="edge4" class="edge"><title>Node5&#45;&gt;Node4</title>
<path fill="none" stroke="#9a32cd" stroke-dasharray="5,2" d="M246.069,-204.38C249.559,-172.966 256.486,-110.628 259.032,-87.7137"/>
<polygon fill="#9a32cd" stroke="#9a32cd" points="242.579,-204.098 244.953,-214.423 249.536,-204.871 242.579,-204.098"/>
<text text-anchor="middle" x="290" y="-153.5" font-family="Helvetica,sans-Serif" font-size="10.00"> myParameters</text>
</g>
<!-- Node6 -->
<g id="node6" class="node"><title>Node6</title>
<g id="a_node6"><a xlink:href="../../d5/d5c/class_cell_1_1_cell.html" target="_top" xlink:title="Cell.Cell">
<polygon fill="white" stroke="black" points="336,-146.5 336,-165.5 390,-165.5 390,-146.5 336,-146.5"/>
<text text-anchor="middle" x="363" y="-153.5" font-family="Helvetica,sans-Serif" font-size="10.00">Cell.Cell</text>
</a>
</g>
</g>
<!-- Node5&#45;&gt;Node6 -->
<g id="edge6" class="edge"><title>Node5&#45;&gt;Node6</title>
<path fill="none" stroke="#9a32cd" stroke-dasharray="5,2" d="M268.314,-209.515C292.003,-196.377 327.303,-176.798 347.439,-165.63"/>
<polygon fill="#9a32cd" stroke="#9a32cd" points="266.605,-206.461 259.557,-214.372 270,-212.582 266.605,-206.461"/>
<text text-anchor="middle" x="352" y="-187.5" font-family="Helvetica,sans-Serif" font-size="10.00"> myParameters</text>
</g>
<!-- Node6&#45;&gt;Node1 -->
<g id="edge9" class="edge"><title>Node6&#45;&gt;Node1</title>
<path fill="none" stroke="#9a32cd" stroke-dasharray="5,2" d="M361.31,-136.183C358.048,-110.675 348.652,-65.1935 322,-38 313.782,-29.6153 302.524,-23.6613 291.855,-19.5184"/>
<polygon fill="#9a32cd" stroke="#9a32cd" points="357.856,-136.798 362.417,-146.36 364.815,-136.041 357.856,-136.798"/>
<text text-anchor="middle" x="371.5" y="-75.5" font-family="Helvetica,sans-Serif" font-size="10.00"> cellsList</text>
</g>
<!-- Node6&#45;&gt;Node4 -->
<g id="edge5" class="edge"><title>Node6&#45;&gt;Node4</title>
<path fill="none" stroke="#9a32cd" stroke-dasharray="5,2" d="M325.75,-146.606C306.323,-141.571 285.146,-134.835 278,-128 266.604,-117.1 262.384,-98.3805 260.85,-87.5066"/>
<polygon fill="#9a32cd" stroke="#9a32cd" points="325.116,-150.055 335.665,-149.075 326.807,-143.262 325.116,-150.055"/>
<text text-anchor="middle" x="314" y="-120" font-family="Helvetica,sans-Serif" font-size="10.00"> myCurrentCell</text>
<text text-anchor="middle" x="314" y="-109" font-family="Helvetica,sans-Serif" font-size="10.00">myFutureCell</text>
</g>
<!-- Node7 -->
<g id="node7" class="node"><title>Node7</title>
<polygon fill="white" stroke="#bfbfbf" points="423.5,-68.5 423.5,-87.5 490.5,-87.5 490.5,-68.5 423.5,-68.5"/>
<text text-anchor="middle" x="457" y="-75.5" font-family="Helvetica,sans-Serif" font-size="10.00">Document</text>
</g>
<!-- Node7&#45;&gt;Node1 -->
<g id="edge8" class="edge"><title>Node7&#45;&gt;Node1</title>
<path fill="none" stroke="#9a32cd" stroke-dasharray="5,2" d="M433.486,-63.5793C418.099,-55.2568 397.333,-44.8771 378,-38 355.824,-30.1116 330.466,-23.9576 308.955,-19.5303"/>
<polygon fill="#9a32cd" stroke="#9a32cd" points="431.864,-66.6817 442.311,-68.4458 435.244,-60.5519 431.864,-66.6817"/>
<text text-anchor="middle" x="423.5" y="-41.5" font-family="Helvetica,sans-Serif" font-size="10.00"> myDoc</text>
</g>
</g>
</svg>
