<?xml version="1.0" encoding="UTF-8" standalone="no"?>
<!DOCTYPE svg PUBLIC "-//W3C//DTD SVG 1.1//EN"
 "http://www.w3.org/Graphics/SVG/1.1/DTD/svg11.dtd">
<!-- Generated by graphviz version 2.36.0 (20140111.2315)
 -->
<!-- Title: cellsociety_team02.GridView Pages: 1 -->
<svg width="1108pt" height="390pt"
 viewBox="0.00 0.00 1108.00 390.00" xmlns="http://www.w3.org/2000/svg" xmlns:xlink="http://www.w3.org/1999/xlink">
<g id="graph0" class="graph" transform="scale(1 1) rotate(0) translate(4 386)">
<title>cellsociety_team02.GridView</title>
<polygon fill="white" stroke="none" points="-4,4 -4,-386 1104,-386 1104,4 -4,4"/>
<!-- Node1 -->
<g id="node1" class="node"><title>Node1</title>
<polygon fill="#bfbfbf" stroke="black" points="946.5,-197.5 946.5,-216.5 1099.5,-216.5 1099.5,-197.5 946.5,-197.5"/>
<text text-anchor="middle" x="1023" y="-204.5" font-family="Helvetica,sans-Serif" font-size="10.00">cellsociety_team02.GridView</text>
</g>
<!-- Node2 -->
<g id="node2" class="node"><title>Node2</title>
<polygon fill="white" stroke="#bfbfbf" points="713,-362.5 713,-381.5 799,-381.5 799,-362.5 713,-362.5"/>
<text text-anchor="middle" x="756" y="-369.5" font-family="Helvetica,sans-Serif" font-size="10.00">List&lt; Shape &gt;</text>
</g>
<!-- Node2&#45;&gt;Node1 -->
<g id="edge1" class="edge"><title>Node2&#45;&gt;Node1</title>
<path fill="none" stroke="#9a32cd" stroke-dasharray="5,2" d="M809.449,-369.859C845.322,-366.227 892.603,-356.996 928,-334 974.926,-303.513 1006.75,-240.969 1017.75,-216.818"/>
<polygon fill="#9a32cd" stroke="#9a32cd" points="808.829,-366.4 799.181,-370.778 809.453,-373.372 808.829,-366.4"/>
<text text-anchor="middle" x="891" y="-365" font-family="Helvetica,sans-Serif" font-size="10.00"> myShapeList</text>
</g>
<!-- Node3 -->
<g id="node3" class="node"><title>Node3</title>
<polygon fill="white" stroke="#bfbfbf" points="728,-324.5 728,-343.5 784,-343.5 784,-324.5 728,-324.5"/>
<text text-anchor="middle" x="756" y="-331.5" font-family="Helvetica,sans-Serif" font-size="10.00">Timeline</text>
</g>
<!-- Node3&#45;&gt;Node1 -->
<g id="edge2" class="edge"><title>Node3&#45;&gt;Node1</title>
<path fill="none" stroke="#9a32cd" stroke-dasharray="5,2" d="M794.323,-330.513C830.307,-325.926 885.422,-315.61 928,-293 965.508,-273.083 999.629,-234.666 1014.35,-216.703"/>
<polygon fill="#9a32cd" stroke="#9a32cd" points="793.773,-327.054 784.256,-331.71 794.599,-334.005 793.773,-327.054"/>
<text text-anchor="middle" x="891" y="-322" font-family="Helvetica,sans-Serif" font-size="10.00"> myAnimation</text>
</g>
<!-- Node4 -->
<g id="node4" class="node"><title>Node4</title>
<polygon fill="white" stroke="#bfbfbf" points="709.5,-286.5 709.5,-305.5 802.5,-305.5 802.5,-286.5 709.5,-286.5"/>
<text text-anchor="middle" x="756" y="-293.5" font-family="Helvetica,sans-Serif" font-size="10.00">ResourceBundle</text>
</g>
<!-- Node4&#45;&gt;Node1 -->
<g id="edge3" class="edge"><title>Node4&#45;&gt;Node1</title>
<path fill="none" stroke="#9a32cd" stroke-dasharray="5,2" d="M812.746,-286.63C846.684,-280.03 890.566,-269.884 928,-256 956.989,-245.249 988.412,-227.506 1006.59,-216.578"/>
<polygon fill="#9a32cd" stroke="#9a32cd" points="811.724,-283.261 802.551,-288.564 813.029,-290.139 811.724,-283.261"/>
<text text-anchor="middle" x="891" y="-281" font-family="Helvetica,sans-Serif" font-size="10.00"> myResources</text>
</g>
<!-- Node5 -->
<g id="node5" class="node"><title>Node5</title>
<polygon fill="white" stroke="#bfbfbf" points="698,-237 698,-267 814,-267 814,-237 698,-237"/>
<text text-anchor="start" x="706" y="-255" font-family="Helvetica,sans-Serif" font-size="10.00">LineChart&lt; Number,</text>
<text text-anchor="middle" x="756" y="-244" font-family="Helvetica,sans-Serif" font-size="10.00"> Number &gt;</text>
</g>
<!-- Node5&#45;&gt;Node1 -->
<g id="edge4" class="edge"><title>Node5&#45;&gt;Node1</title>
<path fill="none" stroke="#9a32cd" stroke-dasharray="5,2" d="M824.271,-245.108C855.884,-241.42 894.012,-236.324 928,-230 947.656,-226.343 969.349,-221.116 986.939,-216.569"/>
<polygon fill="#9a32cd" stroke="#9a32cd" points="823.787,-241.641 814.25,-246.256 824.583,-248.595 823.787,-241.641"/>
<text text-anchor="middle" x="891" y="-244" font-family="Helvetica,sans-Serif" font-size="10.00"> popChart</text>
</g>
<!-- Node6 -->
<g id="node6" class="node"><title>Node6</title>
<polygon fill="white" stroke="#bfbfbf" points="718.5,-198.5 718.5,-217.5 793.5,-217.5 793.5,-198.5 718.5,-198.5"/>
<text text-anchor="middle" x="756" y="-205.5" font-family="Helvetica,sans-Serif" font-size="10.00">NumberAxis</text>
</g>
<!-- Node6&#45;&gt;Node1 -->
<g id="edge5" class="edge"><title>Node6&#45;&gt;Node1</title>
<path fill="none" stroke="#9a32cd" stroke-dasharray="5,2" d="M803.698,-207.824C843.152,-207.675 900.413,-207.459 946.392,-207.285"/>
<polygon fill="#9a32cd" stroke="#9a32cd" points="803.556,-204.324 793.569,-207.862 803.582,-211.324 803.556,-204.324"/>
<text text-anchor="middle" x="891" y="-222" font-family="Helvetica,sans-Serif" font-size="10.00"> xAxis</text>
<text text-anchor="middle" x="891" y="-211" font-family="Helvetica,sans-Serif" font-size="10.00">yAxis</text>
</g>
<!-- Node7 -->
<g id="node7" class="node"><title>Node7</title>
<polygon fill="white" stroke="#bfbfbf" points="722,-160.5 722,-179.5 790,-179.5 790,-160.5 722,-160.5"/>
<text text-anchor="middle" x="756" y="-167.5" font-family="Helvetica,sans-Serif" font-size="10.00">Dimension</text>
</g>
<!-- Node7&#45;&gt;Node1 -->
<g id="edge6" class="edge"><title>Node7&#45;&gt;Node1</title>
<path fill="none" stroke="#9a32cd" stroke-dasharray="5,2" d="M800.344,-175.658C834.925,-180.213 884.592,-186.849 928,-193 937.965,-194.412 948.518,-195.946 958.814,-197.464"/>
<polygon fill="#9a32cd" stroke="#9a32cd" points="800.491,-172.147 790.12,-174.314 799.579,-179.087 800.491,-172.147"/>
<text text-anchor="middle" x="891" y="-196" font-family="Helvetica,sans-Serif" font-size="10.00"> DEFAULT_SIZE</text>
</g>
<!-- Node8 -->
<g id="node8" class="node"><title>Node8</title>
<polygon fill="white" stroke="#bfbfbf" points="732.5,-122.5 732.5,-141.5 779.5,-141.5 779.5,-122.5 732.5,-122.5"/>
<text text-anchor="middle" x="756" y="-129.5" font-family="Helvetica,sans-Serif" font-size="10.00">Scene</text>
</g>
<!-- Node8&#45;&gt;Node1 -->
<g id="edge7" class="edge"><title>Node8&#45;&gt;Node1</title>
<path fill="none" stroke="#9a32cd" stroke-dasharray="5,2" d="M789.781,-137.371C824.521,-143.461 880.776,-154.463 928,-169 953.74,-176.924 982.289,-188.949 1001.09,-197.344"/>
<polygon fill="#9a32cd" stroke="#9a32cd" points="790.173,-133.887 779.724,-135.64 788.986,-140.785 790.173,-133.887"/>
<text text-anchor="middle" x="891" y="-172" font-family="Helvetica,sans-Serif" font-size="10.00"> myScene</text>
</g>
<!-- Node9 -->
<g id="node9" class="node"><title>Node9</title>
<polygon fill="white" stroke="#bfbfbf" points="720,-84.5 720,-103.5 792,-103.5 792,-84.5 720,-84.5"/>
<text text-anchor="middle" x="756" y="-91.5" font-family="Helvetica,sans-Serif" font-size="10.00">BorderPane</text>
</g>
<!-- Node9&#45;&gt;Node1 -->
<g id="edge8" class="edge"><title>Node9&#45;&gt;Node1</title>
<path fill="none" stroke="#9a32cd" stroke-dasharray="5,2" d="M802.222,-99.9274C837.722,-105.784 887.711,-116.739 928,-136 962.135,-152.319 996.024,-182.13 1012.2,-197.411"/>
<polygon fill="#9a32cd" stroke="#9a32cd" points="802.579,-96.4406 792.155,-98.339 801.488,-103.355 802.579,-96.4406"/>
<text text-anchor="middle" x="891" y="-139" font-family="Helvetica,sans-Serif" font-size="10.00"> root</text>
</g>
<!-- Node10 -->
<g id="node10" class="node"><title>Node10</title>
<g id="a_node10"><a xlink:href="../../df/d71/classcellsociety__team02_1_1_grid_model.html" target="_top" xlink:title="cellsociety_team02.GridModel">
<polygon fill="white" stroke="black" points="676,-46.5 676,-65.5 836,-65.5 836,-46.5 676,-46.5"/>
<text text-anchor="middle" x="756" y="-53.5" font-family="Helvetica,sans-Serif" font-size="10.00">cellsociety_team02.GridModel</text>
</a>
</g>
</g>
<!-- Node10&#45;&gt;Node1 -->
<g id="edge9" class="edge"><title>Node10&#45;&gt;Node1</title>
<path fill="none" stroke="#9a32cd" stroke-dasharray="5,2" d="M846.428,-65.8229C874.027,-71.6878 903.562,-81.0516 928,-96 971.3,-122.485 1004.55,-175.809 1016.84,-197.498"/>
<polygon fill="#9a32cd" stroke="#9a32cd" points="846.852,-62.3386 836.361,-63.8165 845.484,-69.2036 846.852,-62.3386"/>
<text text-anchor="middle" x="891" y="-99" font-family="Helvetica,sans-Serif" font-size="10.00"> myModel</text>
</g>
<!-- Node11 -->
<g id="node11" class="node"><title>Node11</title>
<g id="a_node11"><a xlink:href="../../d0/d0a/class_patch_1_1_patch.html" target="_top" xlink:title="Patch.Patch">
<polygon fill="white" stroke="black" points="463,-85.5 463,-104.5 535,-104.5 535,-85.5 463,-85.5"/>
<text text-anchor="middle" x="499" y="-92.5" font-family="Helvetica,sans-Serif" font-size="10.00">Patch.Patch</text>
</a>
</g>
</g>
<!-- Node11&#45;&gt;Node10 -->
<g id="edge10" class="edge"><title>Node11&#45;&gt;Node10</title>
<path fill="none" stroke="#9a32cd" stroke-dasharray="5,2" d="M545.17,-88.0916C586.199,-81.8166 647.1,-72.5023 692.738,-65.5224"/>
<polygon fill="#9a32cd" stroke="#9a32cd" points="544.545,-84.6465 535.189,-89.6182 545.603,-91.566 544.545,-84.6465"/>
<text text-anchor="middle" x="630" y="-82" font-family="Helvetica,sans-Serif" font-size="10.00"> myPatches</text>
</g>
<!-- Node12 -->
<g id="node12" class="node"><title>Node12</title>
<polygon fill="white" stroke="#bfbfbf" points="0,-98.5 0,-117.5 122,-117.5 122,-98.5 0,-98.5"/>
<text text-anchor="middle" x="61" y="-105.5" font-family="Helvetica,sans-Serif" font-size="10.00">Map&lt; String, String &gt;</text>
</g>
<!-- Node12&#45;&gt;Node11 -->
<g id="edge11" class="edge"><title>Node12&#45;&gt;Node11</title>
<path fill="none" stroke="#9a32cd" stroke-dasharray="5,2" d="M132.275,-112.689C199.958,-116.296 305.161,-119.518 396,-112 418.364,-110.149 443.207,-106.053 462.776,-102.345"/>
<polygon fill="#9a32cd" stroke="#9a32cd" points="132.332,-109.187 122.155,-112.131 131.947,-116.176 132.332,-109.187"/>
<text text-anchor="middle" x="269" y="-120" font-family="Helvetica,sans-Serif" font-size="10.00"> myParameters</text>
</g>
<!-- Node13 -->
<g id="node13" class="node"><title>Node13</title>
<g id="a_node13"><a xlink:href="../../d5/d5c/class_cell_1_1_cell.html" target="_top" xlink:title="Cell.Cell">
<polygon fill="white" stroke="black" points="242,-70.5 242,-89.5 296,-89.5 296,-70.5 242,-70.5"/>
<text text-anchor="middle" x="269" y="-77.5" font-family="Helvetica,sans-Serif" font-size="10.00">Cell.Cell</text>
</a>
</g>
</g>
<!-- Node12&#45;&gt;Node13 -->
<g id="edge13" class="edge"><title>Node12&#45;&gt;Node13</title>
<path fill="none" stroke="#9a32cd" stroke-dasharray="5,2" d="M132.09,-98.4731C169.869,-93.3382 214.247,-87.3062 241.751,-83.5678"/>
<polygon fill="#9a32cd" stroke="#9a32cd" points="131.575,-95.0109 122.138,-99.826 132.518,-101.947 131.575,-95.0109"/>
<text text-anchor="middle" x="177" y="-101" font-family="Helvetica,sans-Serif" font-size="10.00"> myParameters</text>
</g>
<!-- Node13&#45;&gt;Node10 -->
<g id="edge15" class="edge"><title>Node13&#45;&gt;Node10</title>
<path fill="none" stroke="#9a32cd" stroke-dasharray="5,2" d="M306.326,-75.4298C335.403,-71.9618 377.253,-67.3952 414,-65 503.531,-59.1642 606.52,-57.0836 675.682,-56.3574"/>
<polygon fill="#9a32cd" stroke="#9a32cd" points="305.732,-71.9761 296.225,-76.6518 306.573,-78.9254 305.732,-71.9761"/>
<text text-anchor="middle" x="499" y="-68" font-family="Helvetica,sans-Serif" font-size="10.00"> myCells</text>
</g>
<!-- Node13&#45;&gt;Node11 -->
<g id="edge12" class="edge"><title>Node13&#45;&gt;Node11</title>
<path fill="none" stroke="#9a32cd" stroke-dasharray="5,2" d="M306.176,-82.38C349.146,-85.207 420.343,-89.891 462.855,-92.6878"/>
<polygon fill="#9a32cd" stroke="#9a32cd" points="306.363,-78.8848 296.154,-81.7207 305.903,-85.8697 306.363,-78.8848"/>
<text text-anchor="middle" x="360" y="-102" font-family="Helvetica,sans-Serif" font-size="10.00"> myCurrentCell</text>
<text text-anchor="middle" x="360" y="-91" font-family="Helvetica,sans-Serif" font-size="10.00">myFutureCell</text>
</g>
<!-- Node14 -->
<g id="node14" class="node"><title>Node14</title>
<polygon fill="white" stroke="#bfbfbf" points="414.5,-0.5 414.5,-19.5 583.5,-19.5 583.5,-0.5 414.5,-0.5"/>
<text text-anchor="middle" x="499" y="-7.5" font-family="Helvetica,sans-Serif" font-size="10.00">Map&lt; Integer, XYChart.Series &gt;</text>
</g>
<!-- Node14&#45;&gt;Node10 -->
<g id="edge14" class="edge"><title>Node14&#45;&gt;Node10</title>
<path fill="none" stroke="#9a32cd" stroke-dasharray="5,2" d="M593.541,-20.5426C614.81,-23.4636 637.248,-26.9618 658,-31 679.509,-35.1854 703.343,-41.307 722.003,-46.445"/>
<polygon fill="#9a32cd" stroke="#9a32cd" points="593.911,-17.0611 583.534,-19.1984 592.979,-23.9988 593.911,-17.0611"/>
<text text-anchor="middle" x="630" y="-34" font-family="Helvetica,sans-Serif" font-size="10.00"> seriesMap</text>
</g>
</g>
</svg>
