<?xml version="1.0" encoding="UTF-8" standalone="no"?>
<!DOCTYPE svg PUBLIC "-//W3C//DTD SVG 1.1//EN"
 "http://www.w3.org/Graphics/SVG/1.1/DTD/svg11.dtd">
<!-- Generated by graphviz version 2.36.0 (20140111.2315)
 -->
<!-- Title: Cell.SegregationCell.move Pages: 1 -->
<svg width="380pt" height="104pt"
 viewBox="0.00 0.00 380.00 104.00" xmlns="http://www.w3.org/2000/svg" xmlns:xlink="http://www.w3.org/1999/xlink">
<g id="graph0" class="graph" transform="scale(1 1) rotate(0) translate(4 100)">
<title>Cell.SegregationCell.move</title>
<polygon fill="white" stroke="none" points="-4,4 -4,-100 376,-100 376,4 -4,4"/>
<!-- Node1 -->
<g id="node1" class="node"><title>Node1</title>
<polygon fill="#bfbfbf" stroke="black" points="0.5,-38.5 0.5,-57.5 143.5,-57.5 143.5,-38.5 0.5,-38.5"/>
<text text-anchor="middle" x="72" y="-45.5" font-family="Helvetica,sans-Serif" font-size="10.00">Cell.SegregationCell.move</text>
</g>
<!-- Node2 -->
<g id="node2" class="node"><title>Node2</title>
<g id="a_node2"><a xlink:href="../../d5/d5c/class_cell_1_1_cell.html#a04d500ffc9f19932a4ff0738f2f1dbc6" target="_top" xlink:title="Cell.Cell.getCurrentState">
<polygon fill="white" stroke="black" points="208.5,-76.5 208.5,-95.5 343.5,-95.5 343.5,-76.5 208.5,-76.5"/>
<text text-anchor="middle" x="276" y="-83.5" font-family="Helvetica,sans-Serif" font-size="10.00">Cell.Cell.getCurrentState</text>
</a>
</g>
</g>
<!-- Node1&#45;&gt;Node2 -->
<g id="edge1" class="edge"><title>Node1&#45;&gt;Node2</title>
<path fill="none" stroke="midnightblue" d="M123.712,-57.54C151.207,-62.7122 185.376,-69.1401 214.282,-74.5778"/>
<polygon fill="midnightblue" stroke="midnightblue" points="213.792,-78.0469 224.267,-76.4561 215.086,-71.1676 213.792,-78.0469"/>
</g>
<!-- Node3 -->
<g id="node3" class="node"><title>Node3</title>
<g id="a_node3"><a xlink:href="../../d4/d7a/class_cell_1_1_segregation_cell.html#a5818c9604a4daceb7e1eac94b0c11ba1" target="_top" xlink:title="Cell.SegregationCell.SegregationCell">
<polygon fill="white" stroke="black" points="180.5,-38.5 180.5,-57.5 371.5,-57.5 371.5,-38.5 180.5,-38.5"/>
<text text-anchor="middle" x="276" y="-45.5" font-family="Helvetica,sans-Serif" font-size="10.00">Cell.SegregationCell.SegregationCell</text>
</a>
</g>
</g>
<!-- Node1&#45;&gt;Node3 -->
<g id="edge2" class="edge"><title>Node1&#45;&gt;Node3</title>
<path fill="none" stroke="midnightblue" d="M143.65,-48C152.247,-48 161.167,-48 170.128,-48"/>
<polygon fill="midnightblue" stroke="midnightblue" points="170.247,-51.5001 180.247,-48 170.247,-44.5001 170.247,-51.5001"/>
</g>
<!-- Node4 -->
<g id="node4" class="node"><title>Node4</title>
<g id="a_node4"><a xlink:href="../../d0/d0a/class_patch_1_1_patch.html#a798cf940ecaa1d512b2df9c717e4d834" target="_top" xlink:title="Patch.Patch.setFutureCell">
<polygon fill="white" stroke="black" points="207.5,-0.5 207.5,-19.5 344.5,-19.5 344.5,-0.5 207.5,-0.5"/>
<text text-anchor="middle" x="276" y="-7.5" font-family="Helvetica,sans-Serif" font-size="10.00">Patch.Patch.setFutureCell</text>
</a>
</g>
</g>
<!-- Node1&#45;&gt;Node4 -->
<g id="edge3" class="edge"><title>Node1&#45;&gt;Node4</title>
<path fill="none" stroke="midnightblue" d="M123.712,-38.46C151.207,-33.2878 185.376,-26.8599 214.282,-21.4222"/>
<polygon fill="midnightblue" stroke="midnightblue" points="215.086,-24.8324 224.267,-19.5439 213.792,-17.9531 215.086,-24.8324"/>
</g>
</g>
</svg>
