<?xml version="1.0" encoding="UTF-8" standalone="no"?>
<!DOCTYPE svg PUBLIC "-//W3C//DTD SVG 1.1//EN"
 "http://www.w3.org/Graphics/SVG/1.1/DTD/svg11.dtd">
<!-- Generated by graphviz version 2.36.0 (20140111.2315)
 -->
<!-- Title: Cell.SegregationCell.updateStateandMove Pages: 1 -->
<svg width="566pt" height="104pt"
 viewBox="0.00 0.00 566.00 104.00" xmlns="http://www.w3.org/2000/svg" xmlns:xlink="http://www.w3.org/1999/xlink">
<g id="graph0" class="graph" transform="scale(1 1) rotate(0) translate(4 100)">
<title>Cell.SegregationCell.updateStateandMove</title>
<polygon fill="white" stroke="none" points="-4,4 -4,-100 562,-100 562,4 -4,4"/>
<!-- Node1 -->
<g id="node1" class="node"><title>Node1</title>
<polygon fill="#bfbfbf" stroke="black" points="0.5,-52 0.5,-82 149.5,-82 149.5,-52 0.5,-52"/>
<text text-anchor="start" x="8.5" y="-70" font-family="Helvetica,sans-Serif" font-size="10.00">Cell.SegregationCell.update</text>
<text text-anchor="middle" x="75" y="-59" font-family="Helvetica,sans-Serif" font-size="10.00">StateandMove</text>
</g>
<!-- Node2 -->
<g id="node2" class="node"><title>Node2</title>
<g id="a_node2"><a xlink:href="../../d5/d5c/class_cell_1_1_cell.html#aceb5e4da80edd40d3c330807846aa8e6" target="_top" xlink:title="Cell.Cell.getNeighbors">
<polygon fill="white" stroke="black" points="197,-76.5 197,-95.5 319,-95.5 319,-76.5 197,-76.5"/>
<text text-anchor="middle" x="258" y="-83.5" font-family="Helvetica,sans-Serif" font-size="10.00">Cell.Cell.getNeighbors</text>
</a>
</g>
</g>
<!-- Node1&#45;&gt;Node2 -->
<g id="edge1" class="edge"><title>Node1&#45;&gt;Node2</title>
<path fill="none" stroke="midnightblue" d="M149.62,-74.728C161.854,-76.0123 174.515,-77.3413 186.664,-78.6167"/>
<polygon fill="midnightblue" stroke="midnightblue" points="186.419,-82.1101 196.73,-79.6733 187.15,-75.1483 186.419,-82.1101"/>
</g>
<!-- Node3 -->
<g id="node3" class="node"><title>Node3</title>
<g id="a_node3"><a xlink:href="../../d4/d7a/class_cell_1_1_segregation_cell.html#a3b3a8464c961fb23c378c280aebcc49c" target="_top" xlink:title="Cell.SegregationCell.move">
<polygon fill="white" stroke="black" points="186.5,-38.5 186.5,-57.5 329.5,-57.5 329.5,-38.5 186.5,-38.5"/>
<text text-anchor="middle" x="258" y="-45.5" font-family="Helvetica,sans-Serif" font-size="10.00">Cell.SegregationCell.move</text>
</a>
</g>
</g>
<!-- Node1&#45;&gt;Node3 -->
<g id="edge2" class="edge"><title>Node1&#45;&gt;Node3</title>
<path fill="none" stroke="midnightblue" d="M149.62,-59.272C158.437,-58.3464 167.477,-57.3975 176.387,-56.4622"/>
<polygon fill="midnightblue" stroke="midnightblue" points="176.793,-59.9389 186.373,-55.4139 176.062,-52.9771 176.793,-59.9389"/>
</g>
<!-- Node4 -->
<g id="node4" class="node"><title>Node4</title>
<g id="a_node4"><a xlink:href="../../d5/d5c/class_cell_1_1_cell.html#a04d500ffc9f19932a4ff0738f2f1dbc6" target="_top" xlink:title="Cell.Cell.getCurrentState">
<polygon fill="white" stroke="black" points="394.5,-76.5 394.5,-95.5 529.5,-95.5 529.5,-76.5 394.5,-76.5"/>
<text text-anchor="middle" x="462" y="-83.5" font-family="Helvetica,sans-Serif" font-size="10.00">Cell.Cell.getCurrentState</text>
</a>
</g>
</g>
<!-- Node3&#45;&gt;Node4 -->
<g id="edge3" class="edge"><title>Node3&#45;&gt;Node4</title>
<path fill="none" stroke="midnightblue" d="M309.712,-57.54C337.207,-62.7122 371.376,-69.1401 400.282,-74.5778"/>
<polygon fill="midnightblue" stroke="midnightblue" points="399.792,-78.0469 410.267,-76.4561 401.086,-71.1676 399.792,-78.0469"/>
</g>
<!-- Node5 -->
<g id="node5" class="node"><title>Node5</title>
<g id="a_node5"><a xlink:href="../../d4/d7a/class_cell_1_1_segregation_cell.html#a5818c9604a4daceb7e1eac94b0c11ba1" target="_top" xlink:title="Cell.SegregationCell.SegregationCell">
<polygon fill="white" stroke="black" points="366.5,-38.5 366.5,-57.5 557.5,-57.5 557.5,-38.5 366.5,-38.5"/>
<text text-anchor="middle" x="462" y="-45.5" font-family="Helvetica,sans-Serif" font-size="10.00">Cell.SegregationCell.SegregationCell</text>
</a>
</g>
</g>
<!-- Node3&#45;&gt;Node5 -->
<g id="edge4" class="edge"><title>Node3&#45;&gt;Node5</title>
<path fill="none" stroke="midnightblue" d="M329.65,-48C338.247,-48 347.167,-48 356.128,-48"/>
<polygon fill="midnightblue" stroke="midnightblue" points="356.247,-51.5001 366.247,-48 356.247,-44.5001 356.247,-51.5001"/>
</g>
<!-- Node6 -->
<g id="node6" class="node"><title>Node6</title>
<g id="a_node6"><a xlink:href="../../d0/d0a/class_patch_1_1_patch.html#a798cf940ecaa1d512b2df9c717e4d834" target="_top" xlink:title="Patch.Patch.setFutureCell">
<polygon fill="white" stroke="black" points="393.5,-0.5 393.5,-19.5 530.5,-19.5 530.5,-0.5 393.5,-0.5"/>
<text text-anchor="middle" x="462" y="-7.5" font-family="Helvetica,sans-Serif" font-size="10.00">Patch.Patch.setFutureCell</text>
</a>
</g>
</g>
<!-- Node3&#45;&gt;Node6 -->
<g id="edge5" class="edge"><title>Node3&#45;&gt;Node6</title>
<path fill="none" stroke="midnightblue" d="M309.712,-38.46C337.207,-33.2878 371.376,-26.8599 400.282,-21.4222"/>
<polygon fill="midnightblue" stroke="midnightblue" points="401.086,-24.8324 410.267,-19.5439 399.792,-17.9531 401.086,-24.8324"/>
</g>
</g>
</svg>
