<?xml version="1.0" encoding="UTF-8" standalone="no"?>
<!DOCTYPE svg PUBLIC "-//W3C//DTD SVG 1.1//EN"
 "http://www.w3.org/Graphics/SVG/1.1/DTD/svg11.dtd">
<!-- Generated by graphviz version 2.36.0 (20140111.2315)
 -->
<!-- Title: Cell.SegregationCell.SegregationCell Pages: 1 -->
<svg width="566pt" height="38pt"
 viewBox="0.00 0.00 566.00 38.00" xmlns="http://www.w3.org/2000/svg" xmlns:xlink="http://www.w3.org/1999/xlink">
<g id="graph0" class="graph" transform="scale(1 1) rotate(0) translate(4 34)">
<title>Cell.SegregationCell.SegregationCell</title>
<polygon fill="white" stroke="none" points="-4,4 -4,-34 562,-34 562,4 -4,4"/>
<!-- Node1 -->
<g id="node1" class="node"><title>Node1</title>
<polygon fill="#bfbfbf" stroke="black" points="0.5,-5.5 0.5,-24.5 191.5,-24.5 191.5,-5.5 0.5,-5.5"/>
<text text-anchor="middle" x="96" y="-12.5" font-family="Helvetica,sans-Serif" font-size="10.00">Cell.SegregationCell.SegregationCell</text>
</g>
<!-- Node2 -->
<g id="node2" class="node"><title>Node2</title>
<g id="a_node2"><a xlink:href="../../d4/d7a/class_cell_1_1_segregation_cell.html#a3b3a8464c961fb23c378c280aebcc49c" target="_top" xlink:title="Cell.SegregationCell.move">
<polygon fill="white" stroke="black" points="228.5,-5.5 228.5,-24.5 371.5,-24.5 371.5,-5.5 228.5,-5.5"/>
<text text-anchor="middle" x="300" y="-12.5" font-family="Helvetica,sans-Serif" font-size="10.00">Cell.SegregationCell.move</text>
</a>
</g>
</g>
<!-- Node1&#45;&gt;Node2 -->
<g id="edge1" class="edge"><title>Node1&#45;&gt;Node2</title>
<path fill="none" stroke="midnightblue" d="M201.893,-15C210.839,-15 219.745,-15 228.328,-15"/>
<polygon fill="midnightblue" stroke="midnightblue" points="201.79,-11.5001 191.79,-15 201.79,-18.5001 201.79,-11.5001"/>
</g>
<!-- Node3 -->
<g id="node3" class="node"><title>Node3</title>
<g id="a_node3"><a xlink:href="../../d4/d7a/class_cell_1_1_segregation_cell.html#a77fa4d67f3332475bf4d5207757682cf" target="_top" xlink:title="Cell.SegregationCell.update\lStateandMove">
<polygon fill="white" stroke="black" points="408.5,-0 408.5,-30 557.5,-30 557.5,-0 408.5,-0"/>
<text text-anchor="start" x="416.5" y="-18" font-family="Helvetica,sans-Serif" font-size="10.00">Cell.SegregationCell.update</text>
<text text-anchor="middle" x="483" y="-7" font-family="Helvetica,sans-Serif" font-size="10.00">StateandMove</text>
</a>
</g>
</g>
<!-- Node2&#45;&gt;Node3 -->
<g id="edge2" class="edge"><title>Node2&#45;&gt;Node3</title>
<path fill="none" stroke="midnightblue" d="M381.975,-15C390.744,-15 399.633,-15 408.308,-15"/>
<polygon fill="midnightblue" stroke="midnightblue" points="381.757,-11.5001 371.757,-15 381.757,-18.5001 381.757,-11.5001"/>
</g>
</g>
</svg>
