<?xml version="1.0" encoding="UTF-8" standalone="no"?>
<!DOCTYPE svg PUBLIC "-//W3C//DTD SVG 1.1//EN"
 "http://www.w3.org/Graphics/SVG/1.1/DTD/svg11.dtd">
<!-- Generated by graphviz version 2.36.0 (20140111.2315)
 -->
<!-- Title: Cell.FishCell.updateStateandMove Pages: 1 -->
<svg width="576pt" height="237pt"
 viewBox="0.00 0.00 576.00 237.00" xmlns="http://www.w3.org/2000/svg" xmlns:xlink="http://www.w3.org/1999/xlink">
<g id="graph0" class="graph" transform="scale(1 1) rotate(0) translate(4 233)">
<title>Cell.FishCell.updateStateandMove</title>
<polygon fill="white" stroke="none" points="-4,4 -4,-233 572,-233 572,4 -4,4"/>
<!-- Node1 -->
<g id="node1" class="node"><title>Node1</title>
<polygon fill="#bfbfbf" stroke="black" points="0.5,-95.5 0.5,-114.5 179.5,-114.5 179.5,-95.5 0.5,-95.5"/>
<text text-anchor="middle" x="90" y="-102.5" font-family="Helvetica,sans-Serif" font-size="10.00">Cell.FishCell.updateStateandMove</text>
</g>
<!-- Node2 -->
<g id="node2" class="node"><title>Node2</title>
<g id="a_node2"><a xlink:href="../../d4/df2/class_cell_1_1_pred_prey_cell.html#a718ac42962d2c125788c85518cc1031e" target="_top" xlink:title="Cell.PredPreyCell.checkBreed">
<polygon fill="white" stroke="black" points="216,-171.5 216,-190.5 372,-190.5 372,-171.5 216,-171.5"/>
<text text-anchor="middle" x="294" y="-178.5" font-family="Helvetica,sans-Serif" font-size="10.00">Cell.PredPreyCell.checkBreed</text>
</a>
</g>
</g>
<!-- Node1&#45;&gt;Node2 -->
<g id="edge1" class="edge"><title>Node1&#45;&gt;Node2</title>
<path fill="none" stroke="midnightblue" d="M112.441,-114.629C137.151,-125.559 179.103,-143.608 216,-157 227.096,-161.028 239.235,-165.005 250.526,-168.529"/>
<polygon fill="midnightblue" stroke="midnightblue" points="249.595,-171.905 260.182,-171.499 251.653,-165.214 249.595,-171.905"/>
</g>
<!-- Node4 -->
<g id="node4" class="node"><title>Node4</title>
<g id="a_node4"><a xlink:href="../../d0/d0a/class_patch_1_1_patch.html#a798cf940ecaa1d512b2df9c717e4d834" target="_top" xlink:title="Patch.Patch.setFutureCell">
<polygon fill="white" stroke="black" points="419.5,-133.5 419.5,-152.5 556.5,-152.5 556.5,-133.5 419.5,-133.5"/>
<text text-anchor="middle" x="488" y="-140.5" font-family="Helvetica,sans-Serif" font-size="10.00">Patch.Patch.setFutureCell</text>
</a>
</g>
</g>
<!-- Node1&#45;&gt;Node4 -->
<g id="edge10" class="edge"><title>Node1&#45;&gt;Node4</title>
<path fill="none" stroke="midnightblue" d="M147.186,-114.529C168.665,-117.912 193.419,-121.496 216,-124 280.957,-131.202 354.994,-136.174 409.249,-139.22"/>
<polygon fill="midnightblue" stroke="midnightblue" points="409.307,-142.729 419.485,-139.785 409.693,-135.739 409.307,-142.729"/>
</g>
<!-- Node6 -->
<g id="node6" class="node"><title>Node6</title>
<g id="a_node6"><a xlink:href="../../da/db4/class_cell_1_1_fish_cell.html#ad0b0c8da96920738fe59e6ae0309b7ef" target="_top" xlink:title="Cell.FishCell.FishCell">
<polygon fill="white" stroke="black" points="239,-95.5 239,-114.5 349,-114.5 349,-95.5 239,-95.5"/>
<text text-anchor="middle" x="294" y="-102.5" font-family="Helvetica,sans-Serif" font-size="10.00">Cell.FishCell.FishCell</text>
</a>
</g>
</g>
<!-- Node1&#45;&gt;Node6 -->
<g id="edge5" class="edge"><title>Node1&#45;&gt;Node6</title>
<path fill="none" stroke="midnightblue" d="M179.6,-105C196.122,-105 213.094,-105 228.71,-105"/>
<polygon fill="midnightblue" stroke="midnightblue" points="228.758,-108.5 238.758,-105 228.758,-101.5 228.758,-108.5"/>
</g>
<!-- Node7 -->
<g id="node7" class="node"><title>Node7</title>
<g id="a_node7"><a xlink:href="../../d5/d5c/class_cell_1_1_cell.html#aceb5e4da80edd40d3c330807846aa8e6" target="_top" xlink:title="Cell.Cell.getNeighbors">
<polygon fill="white" stroke="black" points="233,-57.5 233,-76.5 355,-76.5 355,-57.5 233,-57.5"/>
<text text-anchor="middle" x="294" y="-64.5" font-family="Helvetica,sans-Serif" font-size="10.00">Cell.Cell.getNeighbors</text>
</a>
</g>
</g>
<!-- Node1&#45;&gt;Node7 -->
<g id="edge6" class="edge"><title>Node1&#45;&gt;Node7</title>
<path fill="none" stroke="midnightblue" d="M141.712,-95.46C169.207,-90.2878 203.376,-83.8599 232.282,-78.4222"/>
<polygon fill="midnightblue" stroke="midnightblue" points="233.086,-81.8324 242.267,-76.5439 231.792,-74.9531 233.086,-81.8324"/>
</g>
<!-- Node8 -->
<g id="node8" class="node"><title>Node8</title>
<g id="a_node8"><a xlink:href="../../d4/df2/class_cell_1_1_pred_prey_cell.html#a19b6b02d831c37eca6c6e9f138e6d721" target="_top" xlink:title="Cell.PredPreyCell.pickMove">
<polygon fill="white" stroke="black" points="222,-19.5 222,-38.5 366,-38.5 366,-19.5 222,-19.5"/>
<text text-anchor="middle" x="294" y="-26.5" font-family="Helvetica,sans-Serif" font-size="10.00">Cell.PredPreyCell.pickMove</text>
</a>
</g>
</g>
<!-- Node1&#45;&gt;Node8 -->
<g id="edge7" class="edge"><title>Node1&#45;&gt;Node8</title>
<path fill="none" stroke="midnightblue" d="M109.195,-95.4001C133.143,-83.0703 176.804,-61.6394 216,-48 223.143,-45.5143 230.766,-43.2206 238.334,-41.1508"/>
<polygon fill="midnightblue" stroke="midnightblue" points="239.421,-44.4842 248.206,-38.5617 237.645,-37.7132 239.421,-44.4842"/>
</g>
<!-- Node3 -->
<g id="node3" class="node"><title>Node3</title>
<g id="a_node3"><a xlink:href="../../d4/df2/class_cell_1_1_pred_prey_cell.html#a4198d71dc9ef01659445f95ae91cf284" target="_top" xlink:title="Cell.PredPreyCell.breed">
<polygon fill="white" stroke="black" points="424,-209.5 424,-228.5 552,-228.5 552,-209.5 424,-209.5"/>
<text text-anchor="middle" x="488" y="-216.5" font-family="Helvetica,sans-Serif" font-size="10.00">Cell.PredPreyCell.breed</text>
</a>
</g>
</g>
<!-- Node2&#45;&gt;Node3 -->
<g id="edge2" class="edge"><title>Node2&#45;&gt;Node3</title>
<path fill="none" stroke="midnightblue" d="M343.45,-190.589C369.471,-195.739 401.728,-202.123 429.069,-207.534"/>
<polygon fill="midnightblue" stroke="midnightblue" points="428.409,-210.972 438.899,-209.48 429.769,-204.105 428.409,-210.972"/>
</g>
<!-- Node2&#45;&gt;Node4 -->
<g id="edge3" class="edge"><title>Node2&#45;&gt;Node4</title>
<path fill="none" stroke="midnightblue" d="M343.45,-171.411C369.471,-166.261 401.728,-159.877 429.069,-154.466"/>
<polygon fill="midnightblue" stroke="midnightblue" points="429.769,-157.895 438.899,-152.52 428.409,-151.028 429.769,-157.895"/>
</g>
<!-- Node5 -->
<g id="node5" class="node"><title>Node5</title>
<g id="a_node5"><a xlink:href="../../d4/df2/class_cell_1_1_pred_prey_cell.html#a218b10c89861e5cbc826511d9b35b1ae" target="_top" xlink:title="Cell.PredPreyCell.PredPreyCell">
<polygon fill="white" stroke="black" points="408,-171.5 408,-190.5 568,-190.5 568,-171.5 408,-171.5"/>
<text text-anchor="middle" x="488" y="-178.5" font-family="Helvetica,sans-Serif" font-size="10.00">Cell.PredPreyCell.PredPreyCell</text>
</a>
</g>
</g>
<!-- Node2&#45;&gt;Node5 -->
<g id="edge4" class="edge"><title>Node2&#45;&gt;Node5</title>
<path fill="none" stroke="midnightblue" d="M372.264,-181C380.561,-181 389.052,-181 397.477,-181"/>
<polygon fill="midnightblue" stroke="midnightblue" points="397.702,-184.5 407.702,-181 397.702,-177.5 397.702,-184.5"/>
</g>
<!-- Node9 -->
<g id="node9" class="node"><title>Node9</title>
<g id="a_node9"><a xlink:href="../../d0/d0a/class_patch_1_1_patch.html#adda421d6371d6e4f0a48e8975423dfb5" target="_top" xlink:title="Patch.Patch.getCurrentX">
<polygon fill="white" stroke="black" points="421.5,-38.5 421.5,-57.5 554.5,-57.5 554.5,-38.5 421.5,-38.5"/>
<text text-anchor="middle" x="488" y="-45.5" font-family="Helvetica,sans-Serif" font-size="10.00">Patch.Patch.getCurrentX</text>
</a>
</g>
</g>
<!-- Node8&#45;&gt;Node9 -->
<g id="edge8" class="edge"><title>Node8&#45;&gt;Node9</title>
<path fill="none" stroke="midnightblue" d="M366.221,-36.0479C380.875,-37.498 396.356,-39.03 411.166,-40.4956"/>
<polygon fill="midnightblue" stroke="midnightblue" points="410.998,-43.996 421.294,-41.4979 411.688,-37.03 410.998,-43.996"/>
</g>
<!-- Node10 -->
<g id="node10" class="node"><title>Node10</title>
<g id="a_node10"><a xlink:href="../../d0/d0a/class_patch_1_1_patch.html#a23fe4590d9c3466c4479ba3c1b072fdc" target="_top" xlink:title="Patch.Patch.getCurrentY">
<polygon fill="white" stroke="black" points="422,-0.5 422,-19.5 554,-19.5 554,-0.5 422,-0.5"/>
<text text-anchor="middle" x="488" y="-7.5" font-family="Helvetica,sans-Serif" font-size="10.00">Patch.Patch.getCurrentY</text>
</a>
</g>
</g>
<!-- Node8&#45;&gt;Node10 -->
<g id="edge9" class="edge"><title>Node8&#45;&gt;Node10</title>
<path fill="none" stroke="midnightblue" d="M366.221,-21.9521C381.048,-20.4848 396.723,-18.9337 411.692,-17.4524"/>
<polygon fill="midnightblue" stroke="midnightblue" points="412.317,-20.9077 421.924,-16.4398 411.628,-13.9417 412.317,-20.9077"/>
</g>
</g>
</svg>
