<?xml version="1.0" encoding="UTF-8" standalone="no"?>
<!DOCTYPE svg PUBLIC "-//W3C//DTD SVG 1.1//EN"
 "http://www.w3.org/Graphics/SVG/1.1/DTD/svg11.dtd">
<!-- Generated by graphviz version 2.36.0 (20140111.2315)
 -->
<!-- Title: cellsociety_team02.Draw.drawShape Pages: 1 -->
<svg width="574pt" height="136pt"
 viewBox="0.00 0.00 574.00 136.00" xmlns="http://www.w3.org/2000/svg" xmlns:xlink="http://www.w3.org/1999/xlink">
<g id="graph0" class="graph" transform="scale(1 1) rotate(0) translate(4 132)">
<title>cellsociety_team02.Draw.drawShape</title>
<polygon fill="white" stroke="none" points="-4,4 -4,-132 570,-132 570,4 -4,4"/>
<!-- Node1 -->
<g id="node1" class="node"><title>Node1</title>
<polygon fill="#bfbfbf" stroke="black" points="0.5,-49 0.5,-79 161.5,-79 161.5,-49 0.5,-49"/>
<text text-anchor="start" x="8.5" y="-67" font-family="Helvetica,sans-Serif" font-size="10.00">cellsociety_team02.Draw.draw</text>
<text text-anchor="middle" x="81" y="-56" font-family="Helvetica,sans-Serif" font-size="10.00">Shape</text>
</g>
<!-- Node2 -->
<g id="node2" class="node"><title>Node2</title>
<g id="a_node2"><a xlink:href="../../d4/de6/classcellsociety__team02_1_1_draw.html#a194b51f8c48e33b98a53b48b0d1c105e" target="_top" xlink:title="cellsociety_team02.Draw.make\lHexagon">
<polygon fill="white" stroke="black" points="198.5,-98 198.5,-128 363.5,-128 363.5,-98 198.5,-98"/>
<text text-anchor="start" x="206.5" y="-116" font-family="Helvetica,sans-Serif" font-size="10.00">cellsociety_team02.Draw.make</text>
<text text-anchor="middle" x="281" y="-105" font-family="Helvetica,sans-Serif" font-size="10.00">Hexagon</text>
</a>
</g>
</g>
<!-- Node1&#45;&gt;Node2 -->
<g id="edge1" class="edge"><title>Node1&#45;&gt;Node2</title>
<path fill="none" stroke="midnightblue" d="M142.752,-79.0346C163.848,-84.2554 187.682,-90.1537 209.498,-95.5526"/>
<polygon fill="midnightblue" stroke="midnightblue" points="208.815,-98.989 219.363,-97.9938 210.496,-92.194 208.815,-98.989"/>
</g>
<!-- Node3 -->
<g id="node3" class="node"><title>Node3</title>
<g id="a_node3"><a xlink:href="../../d4/de6/classcellsociety__team02_1_1_draw.html#a9fba740a0433f5893be019ecf23d486c" target="_top" xlink:title="cellsociety_team02.Draw.make\lRectangle">
<polygon fill="white" stroke="black" points="198.5,-49 198.5,-79 363.5,-79 363.5,-49 198.5,-49"/>
<text text-anchor="start" x="206.5" y="-67" font-family="Helvetica,sans-Serif" font-size="10.00">cellsociety_team02.Draw.make</text>
<text text-anchor="middle" x="281" y="-56" font-family="Helvetica,sans-Serif" font-size="10.00">Rectangle</text>
</a>
</g>
</g>
<!-- Node1&#45;&gt;Node3 -->
<g id="edge2" class="edge"><title>Node1&#45;&gt;Node3</title>
<path fill="none" stroke="midnightblue" d="M161.678,-64C170.329,-64 179.184,-64 187.966,-64"/>
<polygon fill="midnightblue" stroke="midnightblue" points="188.224,-67.5001 198.224,-64 188.224,-60.5001 188.224,-67.5001"/>
</g>
<!-- Node4 -->
<g id="node4" class="node"><title>Node4</title>
<g id="a_node4"><a xlink:href="../../d4/de6/classcellsociety__team02_1_1_draw.html#a49fefdfc30cc8ed10caf60df63faac59" target="_top" xlink:title="cellsociety_team02.Draw.make\lTriangle">
<polygon fill="white" stroke="black" points="198.5,-0 198.5,-30 363.5,-30 363.5,-0 198.5,-0"/>
<text text-anchor="start" x="206.5" y="-18" font-family="Helvetica,sans-Serif" font-size="10.00">cellsociety_team02.Draw.make</text>
<text text-anchor="middle" x="281" y="-7" font-family="Helvetica,sans-Serif" font-size="10.00">Triangle</text>
</a>
</g>
</g>
<!-- Node1&#45;&gt;Node4 -->
<g id="edge3" class="edge"><title>Node1&#45;&gt;Node4</title>
<path fill="none" stroke="midnightblue" d="M142.752,-48.9654C163.848,-43.7446 187.682,-37.8463 209.498,-32.4474"/>
<polygon fill="midnightblue" stroke="midnightblue" points="210.496,-35.806 219.363,-30.0062 208.815,-29.011 210.496,-35.806"/>
</g>
<!-- Node5 -->
<g id="node5" class="node"><title>Node5</title>
<g id="a_node5"><a xlink:href="../../d4/de6/classcellsociety__team02_1_1_draw.html#abc4794b50b65fcbf55017ad2dd2fa11d" target="_top" xlink:title="cellsociety_team02.Draw.make\lTriangleRow">
<polygon fill="white" stroke="black" points="400.5,-0 400.5,-30 565.5,-30 565.5,-0 400.5,-0"/>
<text text-anchor="start" x="408.5" y="-18" font-family="Helvetica,sans-Serif" font-size="10.00">cellsociety_team02.Draw.make</text>
<text text-anchor="middle" x="483" y="-7" font-family="Helvetica,sans-Serif" font-size="10.00">TriangleRow</text>
</a>
</g>
</g>
<!-- Node4&#45;&gt;Node5 -->
<g id="edge4" class="edge"><title>Node4&#45;&gt;Node5</title>
<path fill="none" stroke="midnightblue" d="M363.636,-15C372.331,-15 381.218,-15 390.021,-15"/>
<polygon fill="midnightblue" stroke="midnightblue" points="390.301,-18.5001 400.301,-15 390.301,-11.5001 390.301,-18.5001"/>
</g>
</g>
</svg>
