<?xml version="1.0" encoding="UTF-8" standalone="no"?>
<!DOCTYPE svg PUBLIC "-//W3C//DTD SVG 1.1//EN"
 "http://www.w3.org/Graphics/SVG/1.1/DTD/svg11.dtd">
<!-- Generated by graphviz version 2.36.0 (20140111.2315)
 -->
<!-- Title: cellsociety_team02.Draw.makeTriangleRow Pages: 1 -->
<!--zoomable 164 -->
<svg id="main" version="1.1" xmlns="http://www.w3.org/2000/svg" xmlns:xlink="http://www.w3.org/1999/xlink" xml:space="preserve" onload="init(evt)">
<style type="text/css"><![CDATA[
.edge:hover path { stroke: red; }
.edge:hover polygon { stroke: red; fill: red; }
]]></style>
<script type="text/javascript"><![CDATA[
var edges = document.getElementsByTagName('g');
if (edges && edges.length) {
  for (var i=0;i<edges.length;i++) {
    if (edges[i].id.substr(0,4)=='edge') {
      edges[i].setAttribute('class','edge');
    }
  }
}
]]></script>
        <defs>
                <circle id="rim" cx="0" cy="0" r="7"/>
                <circle id="rim2" cx="0" cy="0" r="3.5"/>
                <g id="zoomPlus">
                        <use xlink:href="#rim" fill="#404040">
                                <set attributeName="fill" to="#808080" begin="zoomplus.mouseover" end="zoomplus.mouseout"/>
                        </use>
                        <path d="M-4,0h8M0,-4v8" fill="none" stroke="white" stroke-width="1.5" pointer-events="none"/>
                </g>
                <g id="zoomMin">
                        <use xlink:href="#rim" fill="#404040">
                                <set attributeName="fill" to="#808080" begin="zoomminus.mouseover" end="zoomminus.mouseout"/>
                        </use>
                        <path d="M-4,0h8" fill="none" stroke="white" stroke-width="1.5" pointer-events="none"/>
                </g>
                <g id="dirArrow">
                        <path fill="none" stroke="white" stroke-width="1.5" d="M0,-3.0v7 M-2.5,-0.5L0,-3.0L2.5,-0.5"/>
                </g>
               <g id="resetDef">
                       <use xlink:href="#rim2" fill="#404040">
                               <set attributeName="fill" to="#808080" begin="reset.mouseover" end="reset.mouseout"/>
                       </use>
               </g>
        </defs>

<script type="text/javascript">
var viewWidth = 2530;
var viewHeight = 164;
var sectionId = 'dynsection-6';
</script>
<script xlink:href="../../svgpan.js"/>
<svg id="graph" class="graph">
<g id="viewport">
<title>cellsociety_team02.Draw.makeTriangleRow</title>
<polygon fill="white" stroke="none" points="-4,4 -4,-160 2526,-160 2526,4 -4,4"/>
<!-- Node1 -->
<g id="node1" class="node"><title>Node1</title>
<polygon fill="#bfbfbf" stroke="black" points="0.5,-112 0.5,-142 165.5,-142 165.5,-112 0.5,-112"/>
<text text-anchor="start" x="8.5" y="-130" font-family="Helvetica,sans-Serif" font-size="10.00">cellsociety_team02.Draw.make</text>
<text text-anchor="middle" x="83" y="-119" font-family="Helvetica,sans-Serif" font-size="10.00">TriangleRow</text>
</g>
<!-- Node2 -->
<g id="node2" class="node"><title>Node2</title>
<g id="a_node2"><a xlink:href="../../d4/de6/classcellsociety__team02_1_1_draw.html#a49fefdfc30cc8ed10caf60df63faac59" target="_top" xlink:title="cellsociety_team02.Draw.make\lTriangle">
<polygon fill="white" stroke="black" points="202.5,-112 202.5,-142 367.5,-142 367.5,-112 202.5,-112"/>
<text text-anchor="start" x="210.5" y="-130" font-family="Helvetica,sans-Serif" font-size="10.00">cellsociety_team02.Draw.make</text>
<text text-anchor="middle" x="285" y="-119" font-family="Helvetica,sans-Serif" font-size="10.00">Triangle</text>
</a>
</g>
</g>
<!-- Node1&#45;&gt;Node2 -->
<g id="edge1" class="edge"><title>Node1&#45;&gt;Node2</title>
<path fill="none" stroke="midnightblue" d="M175.915,-127C184.718,-127 193.605,-127 202.301,-127"/>
<polygon fill="midnightblue" stroke="midnightblue" points="175.636,-123.5 165.636,-127 175.636,-130.5 175.636,-123.5"/>
</g>
<!-- Node3 -->
<g id="node3" class="node"><title>Node3</title>
<g id="a_node3"><a xlink:href="../../d4/de6/classcellsociety__team02_1_1_draw.html#a28e6cca2ff571def700126ecfc1ec8e4" target="_top" xlink:title="cellsociety_team02.Draw.draw\lShape">
<polygon fill="white" stroke="black" points="404.5,-112 404.5,-142 565.5,-142 565.5,-112 404.5,-112"/>
<text text-anchor="start" x="412.5" y="-130" font-family="Helvetica,sans-Serif" font-size="10.00">cellsociety_team02.Draw.draw</text>
<text text-anchor="middle" x="485" y="-119" font-family="Helvetica,sans-Serif" font-size="10.00">Shape</text>
</a>
</g>
</g>
<!-- Node2&#45;&gt;Node3 -->
<g id="edge2" class="edge"><title>Node2&#45;&gt;Node3</title>
<path fill="none" stroke="midnightblue" d="M377.704,-127C386.629,-127 395.633,-127 404.424,-127"/>
<polygon fill="midnightblue" stroke="midnightblue" points="377.677,-123.5 367.677,-127 377.677,-130.5 377.677,-123.5"/>
</g>
<!-- Node4 -->
<g id="node4" class="node"><title>Node4</title>
<g id="a_node4"><a xlink:href="../../d9/daf/classcellsociety__team02_1_1_grid_view.html#ad4fe99d3b1bf9b7ed1cd8d65145f5d90" target="_top" xlink:title="cellsociety_team02.GridView.makeGrid">
<polygon fill="white" stroke="black" points="602,-117.5 602,-136.5 804,-136.5 804,-117.5 602,-117.5"/>
<text text-anchor="middle" x="703" y="-124.5" font-family="Helvetica,sans-Serif" font-size="10.00">cellsociety_team02.GridView.makeGrid</text>
</a>
</g>
</g>
<!-- Node3&#45;&gt;Node4 -->
<g id="edge3" class="edge"><title>Node3&#45;&gt;Node4</title>
<path fill="none" stroke="midnightblue" d="M575.559,-127C584.194,-127 592.991,-127 601.72,-127"/>
<polygon fill="midnightblue" stroke="midnightblue" points="575.51,-123.5 565.51,-127 575.51,-130.5 575.51,-123.5"/>
</g>
<!-- Node5 -->
<g id="node5" class="node"><title>Node5</title>
<g id="a_node5"><a xlink:href="../../d9/daf/classcellsociety__team02_1_1_grid_view.html#aa0cb15c1acd15c18573648b8df447752" target="_top" xlink:title="cellsociety_team02.GridView.load">
<polygon fill="white" stroke="black" points="1706,-136.5 1706,-155.5 1882,-155.5 1882,-136.5 1706,-136.5"/>
<text text-anchor="middle" x="1794" y="-143.5" font-family="Helvetica,sans-Serif" font-size="10.00">cellsociety_team02.GridView.load</text>
</a>
</g>
</g>
<!-- Node4&#45;&gt;Node5 -->
<g id="edge4" class="edge"><title>Node4&#45;&gt;Node5</title>
<path fill="none" stroke="midnightblue" d="M814.398,-134.47C902.504,-139.79 1029.11,-146 1140,-146 1140,-146 1140,-146 1356,-146 1477.39,-146 1617.74,-146 1705.94,-146"/>
<polygon fill="midnightblue" stroke="midnightblue" points="814.581,-130.975 804.386,-133.859 814.154,-137.962 814.581,-130.975"/>
</g>
<!-- Node9 -->
<g id="node9" class="node"><title>Node9</title>
<g id="a_node9"><a xlink:href="../../d9/daf/classcellsociety__team02_1_1_grid_view.html#a27a105e1810531f4958f9fc192c3cef1" target="_top" xlink:title="cellsociety_team02.GridView.step">
<polygon fill="white" stroke="black" points="840,-98.5 840,-117.5 1016,-117.5 1016,-98.5 840,-98.5"/>
<text text-anchor="middle" x="928" y="-105.5" font-family="Helvetica,sans-Serif" font-size="10.00">cellsociety_team02.GridView.step</text>
</a>
</g>
</g>
<!-- Node4&#45;&gt;Node9 -->
<g id="edge9" class="edge"><title>Node4&#45;&gt;Node9</title>
<path fill="none" stroke="midnightblue" d="M814.177,-117.613C822.788,-116.879 831.41,-116.144 839.837,-115.426"/>
<polygon fill="midnightblue" stroke="midnightblue" points="813.751,-114.136 804.085,-118.473 814.346,-121.111 813.751,-114.136"/>
</g>
<!-- Node6 -->
<g id="node6" class="node"><title>Node6</title>
<g id="a_node6"><a xlink:href="../../d9/daf/classcellsociety__team02_1_1_grid_view.html#ada183e314764db770009f944205490df" target="_top" xlink:title="cellsociety_team02.GridView.\lGridView">
<polygon fill="white" stroke="black" points="2366.5,-110 2366.5,-140 2521.5,-140 2521.5,-110 2366.5,-110"/>
<text text-anchor="start" x="2374.5" y="-128" font-family="Helvetica,sans-Serif" font-size="10.00">cellsociety_team02.GridView.</text>
<text text-anchor="middle" x="2444" y="-117" font-family="Helvetica,sans-Serif" font-size="10.00">GridView</text>
</a>
</g>
</g>
<!-- Node5&#45;&gt;Node6 -->
<g id="edge5" class="edge"><title>Node5&#45;&gt;Node6</title>
<path fill="none" stroke="midnightblue" d="M1892.37,-142.845C2021.94,-138.645 2248.4,-131.307 2366.47,-127.48"/>
<polygon fill="midnightblue" stroke="midnightblue" points="1891.94,-139.357 1882.06,-143.179 1892.16,-146.353 1891.94,-139.357"/>
</g>
<!-- Node7 -->
<g id="node7" class="node"><title>Node7</title>
<g id="a_node7"><a xlink:href="../../d9/daf/classcellsociety__team02_1_1_grid_view.html#afcc7b83f62c116e77ab0843bfd4156b8" target="_top" xlink:title="cellsociety_team02.GridView.make\lButtons">
<polygon fill="white" stroke="black" points="1918,-87 1918,-117 2100,-117 2100,-87 1918,-87"/>
<text text-anchor="start" x="1926" y="-105" font-family="Helvetica,sans-Serif" font-size="10.00">cellsociety_team02.GridView.make</text>
<text text-anchor="middle" x="2009" y="-94" font-family="Helvetica,sans-Serif" font-size="10.00">Buttons</text>
</a>
</g>
</g>
<!-- Node5&#45;&gt;Node7 -->
<g id="edge6" class="edge"><title>Node5&#45;&gt;Node7</title>
<path fill="none" stroke="midnightblue" d="M1851.16,-134.399C1876.85,-129.092 1907.62,-122.736 1935.07,-117.065"/>
<polygon fill="midnightblue" stroke="midnightblue" points="1850.3,-131.002 1841.22,-136.453 1851.72,-137.857 1850.3,-131.002"/>
</g>
<!-- Node8 -->
<g id="node8" class="node"><title>Node8</title>
<g id="a_node8"><a xlink:href="../../d9/daf/classcellsociety__team02_1_1_grid_view.html#a4571898657e750f62c2df84cb398e135" target="_top" xlink:title="cellsociety_team02.GridView.initialize">
<polygon fill="white" stroke="black" points="2136,-95.5 2136,-114.5 2330,-114.5 2330,-95.5 2136,-95.5"/>
<text text-anchor="middle" x="2233" y="-102.5" font-family="Helvetica,sans-Serif" font-size="10.00">cellsociety_team02.GridView.initialize</text>
</a>
</g>
</g>
<!-- Node7&#45;&gt;Node8 -->
<g id="edge7" class="edge"><title>Node7&#45;&gt;Node8</title>
<path fill="none" stroke="midnightblue" d="M2110.56,-103.359C2119.03,-103.473 2127.57,-103.589 2136,-103.703"/>
<polygon fill="midnightblue" stroke="midnightblue" points="2110.34,-99.8558 2100.3,-103.22 2110.25,-106.855 2110.34,-99.8558"/>
</g>
<!-- Node8&#45;&gt;Node6 -->
<g id="edge8" class="edge"><title>Node8&#45;&gt;Node6</title>
<path fill="none" stroke="midnightblue" d="M2340.48,-115.189C2349.2,-116.024 2357.91,-116.857 2366.35,-117.665"/>
<polygon fill="midnightblue" stroke="midnightblue" points="2340.53,-111.678 2330.24,-114.21 2339.86,-118.646 2340.53,-111.678"/>
</g>
<!-- Node9&#45;&gt;Node7 -->
<g id="edge10" class="edge"><title>Node9&#45;&gt;Node7</title>
<path fill="none" stroke="midnightblue" d="M1026.12,-108C1112.26,-108 1241.51,-108 1354,-108 1354,-108 1354,-108 1576,-108 1694.14,-108 1830.43,-105.729 1917.82,-103.981"/>
<polygon fill="midnightblue" stroke="midnightblue" points="1026.09,-104.5 1016.09,-108 1026.09,-111.5 1026.09,-104.5"/>
</g>
<!-- Node10 -->
<g id="node10" class="node"><title>Node10</title>
<g id="a_node10"><a xlink:href="../../d9/daf/classcellsociety__team02_1_1_grid_view.html#aa1d09688b48a4a95513e15eea18ec0e6" target="_top" xlink:title="cellsociety_team02.GridView.start\lHandler">
<polygon fill="white" stroke="black" points="1052,-49 1052,-79 1230,-79 1230,-49 1052,-49"/>
<text text-anchor="start" x="1060" y="-67" font-family="Helvetica,sans-Serif" font-size="10.00">cellsociety_team02.GridView.start</text>
<text text-anchor="middle" x="1141" y="-56" font-family="Helvetica,sans-Serif" font-size="10.00">Handler</text>
</a>
</g>
</g>
<!-- Node9&#45;&gt;Node10 -->
<g id="edge11" class="edge"><title>Node9&#45;&gt;Node10</title>
<path fill="none" stroke="midnightblue" d="M984.633,-96.3987C1010.08,-91.0917 1040.56,-84.7362 1067.75,-79.0654"/>
<polygon fill="midnightblue" stroke="midnightblue" points="983.859,-92.9849 974.784,-98.4527 985.288,-99.8375 983.859,-92.9849"/>
</g>
<!-- Node11 -->
<g id="node11" class="node"><title>Node11</title>
<g id="a_node11"><a xlink:href="../../d9/daf/classcellsociety__team02_1_1_grid_view.html#a27ed5fc9bbf44efab6d23cb07096c36a" target="_top" xlink:title="cellsociety_team02.GridView.start\lAnimation">
<polygon fill="white" stroke="black" points="1266,-49 1266,-79 1444,-79 1444,-49 1266,-49"/>
<text text-anchor="start" x="1274" y="-67" font-family="Helvetica,sans-Serif" font-size="10.00">cellsociety_team02.GridView.start</text>
<text text-anchor="middle" x="1355" y="-56" font-family="Helvetica,sans-Serif" font-size="10.00">Animation</text>
</a>
</g>
</g>
<!-- Node10&#45;&gt;Node11 -->
<g id="edge12" class="edge"><title>Node10&#45;&gt;Node11</title>
<path fill="none" stroke="midnightblue" d="M1240.11,-64C1248.7,-64 1257.36,-64 1265.87,-64"/>
<polygon fill="midnightblue" stroke="midnightblue" points="1240.07,-60.5001 1230.07,-64 1240.07,-67.5001 1240.07,-60.5001"/>
</g>
<!-- Node12 -->
<g id="node12" class="node"><title>Node12</title>
<g id="a_node12"><a xlink:href="../../d9/daf/classcellsociety__team02_1_1_grid_view.html#a7b94250b9b4e419eb3b97394e3b86052" target="_top" xlink:title="cellsociety_team02.GridView.play\lPause">
<polygon fill="white" stroke="black" points="1487.5,-49 1487.5,-79 1662.5,-79 1662.5,-49 1487.5,-49"/>
<text text-anchor="start" x="1495.5" y="-67" font-family="Helvetica,sans-Serif" font-size="10.00">cellsociety_team02.GridView.play</text>
<text text-anchor="middle" x="1575" y="-56" font-family="Helvetica,sans-Serif" font-size="10.00">Pause</text>
</a>
</g>
</g>
<!-- Node11&#45;&gt;Node12 -->
<g id="edge13" class="edge"><title>Node11&#45;&gt;Node12</title>
<path fill="none" stroke="midnightblue" d="M1454.16,-64C1465.25,-64 1476.48,-64 1487.4,-64"/>
<polygon fill="midnightblue" stroke="midnightblue" points="1454.04,-60.5001 1444.04,-64 1454.04,-67.5001 1454.04,-60.5001"/>
</g>
<!-- Node13 -->
<g id="node13" class="node"><title>Node13</title>
<g id="a_node13"><a xlink:href="../../d9/daf/classcellsociety__team02_1_1_grid_view.html#a21d8f68b9be54d2f23f17af421c78b12" target="_top" xlink:title="cellsociety_team02.GridView.update\lSpeed">
<polygon fill="white" stroke="black" points="1480.5,-0 1480.5,-30 1669.5,-30 1669.5,-0 1480.5,-0"/>
<text text-anchor="start" x="1488.5" y="-18" font-family="Helvetica,sans-Serif" font-size="10.00">cellsociety_team02.GridView.update</text>
<text text-anchor="middle" x="1575" y="-7" font-family="Helvetica,sans-Serif" font-size="10.00">Speed</text>
</a>
</g>
</g>
<!-- Node11&#45;&gt;Node13 -->
<g id="edge15" class="edge"><title>Node11&#45;&gt;Node13</title>
<path fill="none" stroke="midnightblue" d="M1432.78,-46.7419C1457.07,-41.282 1483.71,-35.295 1507.24,-30.0062"/>
<polygon fill="midnightblue" stroke="midnightblue" points="1431.88,-43.3575 1422.89,-48.9654 1433.41,-50.1871 1431.88,-43.3575"/>
</g>
<!-- Node12&#45;&gt;Node7 -->
<g id="edge14" class="edge"><title>Node12&#45;&gt;Node7</title>
<path fill="none" stroke="midnightblue" d="M1672.81,-72.5153C1746.13,-78.965 1846.13,-87.7612 1917.78,-94.0642"/>
<polygon fill="midnightblue" stroke="midnightblue" points="1672.91,-69.0111 1662.64,-71.6213 1672.3,-75.9842 1672.91,-69.0111"/>
</g>
<!-- Node14 -->
<g id="node14" class="node"><title>Node14</title>
<g id="a_node14"><a xlink:href="../../d9/daf/classcellsociety__team02_1_1_grid_view.html#a08ac9f0ccad1d9db92c9d92a127d77bc" target="_top" xlink:title="cellsociety_team02.GridView.set\lUpSpeedSlider">
<polygon fill="white" stroke="black" points="1709,-3 1709,-33 1879,-33 1879,-3 1709,-3"/>
<text text-anchor="start" x="1717" y="-21" font-family="Helvetica,sans-Serif" font-size="10.00">cellsociety_team02.GridView.set</text>
<text text-anchor="middle" x="1794" y="-10" font-family="Helvetica,sans-Serif" font-size="10.00">UpSpeedSlider</text>
</a>
</g>
</g>
<!-- Node13&#45;&gt;Node14 -->
<g id="edge16" class="edge"><title>Node13&#45;&gt;Node14</title>
<path fill="none" stroke="midnightblue" d="M1679.76,-16.4345C1689.54,-16.5697 1699.37,-16.7056 1708.94,-16.8378"/>
<polygon fill="midnightblue" stroke="midnightblue" points="1679.65,-12.9327 1669.6,-16.294 1679.55,-19.932 1679.65,-12.9327"/>
</g>
<!-- Node14&#45;&gt;Node7 -->
<g id="edge17" class="edge"><title>Node14&#45;&gt;Node7</title>
<path fill="none" stroke="midnightblue" d="M1842.5,-36.7327C1880.9,-51.8761 1934.25,-72.9157 1969.89,-86.9711"/>
<polygon fill="midnightblue" stroke="midnightblue" points="1843.67,-33.4303 1833.08,-33.0175 1841.1,-39.9422 1843.67,-33.4303"/>
</g>
</g>
</svg>
        <g id="navigator" transform="translate(0 0)" fill="#404254">
                <rect fill="#f2f5e9" fill-opacity="0.5" stroke="#606060" stroke-width=".5" x="0" y="0" width="60" height="60"/>
                <use id="zoomplus" xlink:href="#zoomPlus" x="17" y="9" onmousedown="handleZoom(evt,'in')"/>
                <use id="zoomminus" xlink:href="#zoomMin" x="42" y="9" onmousedown="handleZoom(evt,'out')"/>
                <use id="reset" xlink:href="#resetDef" x="30" y="36" onmousedown="handleReset()"/>
                <g id="arrowUp" xlink:href="#dirArrow" transform="translate(30 24)" onmousedown="handlePan(0,-1)">
                  <use xlink:href="#rim" fill="#404040">
                        <set attributeName="fill" to="#808080" begin="arrowUp.mouseover" end="arrowUp.mouseout"/>
                  </use>
                  <path fill="none" stroke="white" stroke-width="1.5" d="M0,-3.0v7 M-2.5,-0.5L0,-3.0L2.5,-0.5"/>
                </g>
                <g id="arrowRight" xlink:href="#dirArrow" transform="rotate(90) translate(36 -43)" onmousedown="handlePan(1,0)">
                  <use xlink:href="#rim" fill="#404040">
                        <set attributeName="fill" to="#808080" begin="arrowRight.mouseover" end="arrowRight.mouseout"/>
                  </use>
                  <path fill="none" stroke="white" stroke-width="1.5" d="M0,-3.0v7 M-2.5,-0.5L0,-3.0L2.5,-0.5"/>
                </g>
                <g id="arrowDown" xlink:href="#dirArrow" transform="rotate(180) translate(-30 -48)" onmousedown="handlePan(0,1)">
                  <use xlink:href="#rim" fill="#404040">
                        <set attributeName="fill" to="#808080" begin="arrowDown.mouseover" end="arrowDown.mouseout"/>
                  </use>
                  <path fill="none" stroke="white" stroke-width="1.5" d="M0,-3.0v7 M-2.5,-0.5L0,-3.0L2.5,-0.5"/>
                </g>
                <g id="arrowLeft" xlink:href="#dirArrow" transform="rotate(270) translate(-36 17)" onmousedown="handlePan(-1,0)">
                  <use xlink:href="#rim" fill="#404040">
                        <set attributeName="fill" to="#808080" begin="arrowLeft.mouseover" end="arrowLeft.mouseout"/>
                  </use>
                  <path fill="none" stroke="white" stroke-width="1.5" d="M0,-3.0v7 M-2.5,-0.5L0,-3.0L2.5,-0.5"/>
                </g>
        </g>
        <svg viewBox="0 0 15 15" width="100%" height="30px" preserveAspectRatio="xMaxYMin meet">
         <g id="arrow_out" transform="scale(0.3 0.3)">
          <a xlink:href="classcellsociety__team02_1_1_draw_abc4794b50b65fcbf55017ad2dd2fa11d_icgraph_org.svg" target="_base">
           <rect id="button" ry="5" rx="5" y="6" x="6" height="38" width="38"
                fill="#f2f5e9" fill-opacity="0.5" stroke="#606060" stroke-width="1.0"/>
           <path id="arrow"
             d="M 11.500037,31.436501 C 11.940474,20.09759 22.043105,11.32322 32.158766,21.979434 L 37.068811,17.246167 C 37.068811,17.246167 37.088388,32 37.088388,32 L 22.160133,31.978069 C 22.160133,31.978069 26.997745,27.140456 26.997745,27.140456 C 18.528582,18.264221 13.291696,25.230495 11.500037,31.436501 z"
             style="fill:#404040;"/>
          </a>
         </g>
        </svg>
</svg>
