<?xml version="1.0" encoding="UTF-8" standalone="no"?>
<!DOCTYPE svg PUBLIC "-//W3C//DTD SVG 1.1//EN"
 "http://www.w3.org/Graphics/SVG/1.1/DTD/svg11.dtd">
<!-- Generated by graphviz version 2.36.0 (20140111.2315)
 -->
<!-- Title: cellsociety_team02.Draw.drawShape Pages: 1 -->
<svg width="2126pt" height="164pt"
 viewBox="0.00 0.00 2126.00 164.00" xmlns="http://www.w3.org/2000/svg" xmlns:xlink="http://www.w3.org/1999/xlink">
<g id="graph0" class="graph" transform="scale(1 1) rotate(0) translate(4 160)">
<title>cellsociety_team02.Draw.drawShape</title>
<polygon fill="white" stroke="none" points="-4,4 -4,-160 2122,-160 2122,4 -4,4"/>
<!-- Node1 -->
<g id="node1" class="node"><title>Node1</title>
<polygon fill="#bfbfbf" stroke="black" points="0.5,-112 0.5,-142 161.5,-142 161.5,-112 0.5,-112"/>
<text text-anchor="start" x="8.5" y="-130" font-family="Helvetica,sans-Serif" font-size="10.00">cellsociety_team02.Draw.draw</text>
<text text-anchor="middle" x="81" y="-119" font-family="Helvetica,sans-Serif" font-size="10.00">Shape</text>
</g>
<!-- Node2 -->
<g id="node2" class="node"><title>Node2</title>
<g id="a_node2"><a xlink:href="../../d9/daf/classcellsociety__team02_1_1_grid_view.html#ad4fe99d3b1bf9b7ed1cd8d65145f5d90" target="_top" xlink:title="cellsociety_team02.GridView.makeGrid">
<polygon fill="white" stroke="black" points="198,-117.5 198,-136.5 400,-136.5 400,-117.5 198,-117.5"/>
<text text-anchor="middle" x="299" y="-124.5" font-family="Helvetica,sans-Serif" font-size="10.00">cellsociety_team02.GridView.makeGrid</text>
</a>
</g>
</g>
<!-- Node1&#45;&gt;Node2 -->
<g id="edge1" class="edge"><title>Node1&#45;&gt;Node2</title>
<path fill="none" stroke="midnightblue" d="M171.559,-127C180.194,-127 188.991,-127 197.72,-127"/>
<polygon fill="midnightblue" stroke="midnightblue" points="171.51,-123.5 161.51,-127 171.51,-130.5 171.51,-123.5"/>
</g>
<!-- Node3 -->
<g id="node3" class="node"><title>Node3</title>
<g id="a_node3"><a xlink:href="../../d9/daf/classcellsociety__team02_1_1_grid_view.html#aa0cb15c1acd15c18573648b8df447752" target="_top" xlink:title="cellsociety_team02.GridView.load">
<polygon fill="white" stroke="black" points="1302,-136.5 1302,-155.5 1478,-155.5 1478,-136.5 1302,-136.5"/>
<text text-anchor="middle" x="1390" y="-143.5" font-family="Helvetica,sans-Serif" font-size="10.00">cellsociety_team02.GridView.load</text>
</a>
</g>
</g>
<!-- Node2&#45;&gt;Node3 -->
<g id="edge2" class="edge"><title>Node2&#45;&gt;Node3</title>
<path fill="none" stroke="midnightblue" d="M410.398,-134.47C498.504,-139.79 625.109,-146 736,-146 736,-146 736,-146 952,-146 1073.39,-146 1213.74,-146 1301.94,-146"/>
<polygon fill="midnightblue" stroke="midnightblue" points="410.581,-130.975 400.386,-133.859 410.154,-137.962 410.581,-130.975"/>
</g>
<!-- Node7 -->
<g id="node7" class="node"><title>Node7</title>
<g id="a_node7"><a xlink:href="../../d9/daf/classcellsociety__team02_1_1_grid_view.html#a27a105e1810531f4958f9fc192c3cef1" target="_top" xlink:title="cellsociety_team02.GridView.step">
<polygon fill="white" stroke="black" points="436,-98.5 436,-117.5 612,-117.5 612,-98.5 436,-98.5"/>
<text text-anchor="middle" x="524" y="-105.5" font-family="Helvetica,sans-Serif" font-size="10.00">cellsociety_team02.GridView.step</text>
</a>
</g>
</g>
<!-- Node2&#45;&gt;Node7 -->
<g id="edge7" class="edge"><title>Node2&#45;&gt;Node7</title>
<path fill="none" stroke="midnightblue" d="M410.177,-117.613C418.788,-116.879 427.41,-116.144 435.837,-115.426"/>
<polygon fill="midnightblue" stroke="midnightblue" points="409.751,-114.136 400.085,-118.473 410.346,-121.111 409.751,-114.136"/>
</g>
<!-- Node4 -->
<g id="node4" class="node"><title>Node4</title>
<g id="a_node4"><a xlink:href="../../d9/daf/classcellsociety__team02_1_1_grid_view.html#ada183e314764db770009f944205490df" target="_top" xlink:title="cellsociety_team02.GridView.\lGridView">
<polygon fill="white" stroke="black" points="1962.5,-110 1962.5,-140 2117.5,-140 2117.5,-110 1962.5,-110"/>
<text text-anchor="start" x="1970.5" y="-128" font-family="Helvetica,sans-Serif" font-size="10.00">cellsociety_team02.GridView.</text>
<text text-anchor="middle" x="2040" y="-117" font-family="Helvetica,sans-Serif" font-size="10.00">GridView</text>
</a>
</g>
</g>
<!-- Node3&#45;&gt;Node4 -->
<g id="edge3" class="edge"><title>Node3&#45;&gt;Node4</title>
<path fill="none" stroke="midnightblue" d="M1488.37,-142.845C1617.94,-138.645 1844.4,-131.307 1962.47,-127.48"/>
<polygon fill="midnightblue" stroke="midnightblue" points="1487.94,-139.357 1478.06,-143.179 1488.16,-146.353 1487.94,-139.357"/>
</g>
<!-- Node5 -->
<g id="node5" class="node"><title>Node5</title>
<g id="a_node5"><a xlink:href="../../d9/daf/classcellsociety__team02_1_1_grid_view.html#afcc7b83f62c116e77ab0843bfd4156b8" target="_top" xlink:title="cellsociety_team02.GridView.make\lButtons">
<polygon fill="white" stroke="black" points="1514,-87 1514,-117 1696,-117 1696,-87 1514,-87"/>
<text text-anchor="start" x="1522" y="-105" font-family="Helvetica,sans-Serif" font-size="10.00">cellsociety_team02.GridView.make</text>
<text text-anchor="middle" x="1605" y="-94" font-family="Helvetica,sans-Serif" font-size="10.00">Buttons</text>
</a>
</g>
</g>
<!-- Node3&#45;&gt;Node5 -->
<g id="edge4" class="edge"><title>Node3&#45;&gt;Node5</title>
<path fill="none" stroke="midnightblue" d="M1447.16,-134.399C1472.85,-129.092 1503.62,-122.736 1531.07,-117.065"/>
<polygon fill="midnightblue" stroke="midnightblue" points="1446.3,-131.002 1437.22,-136.453 1447.72,-137.857 1446.3,-131.002"/>
</g>
<!-- Node6 -->
<g id="node6" class="node"><title>Node6</title>
<g id="a_node6"><a xlink:href="../../d9/daf/classcellsociety__team02_1_1_grid_view.html#a4571898657e750f62c2df84cb398e135" target="_top" xlink:title="cellsociety_team02.GridView.initialize">
<polygon fill="white" stroke="black" points="1732,-95.5 1732,-114.5 1926,-114.5 1926,-95.5 1732,-95.5"/>
<text text-anchor="middle" x="1829" y="-102.5" font-family="Helvetica,sans-Serif" font-size="10.00">cellsociety_team02.GridView.initialize</text>
</a>
</g>
</g>
<!-- Node5&#45;&gt;Node6 -->
<g id="edge5" class="edge"><title>Node5&#45;&gt;Node6</title>
<path fill="none" stroke="midnightblue" d="M1706.56,-103.359C1715.03,-103.473 1723.57,-103.589 1732,-103.703"/>
<polygon fill="midnightblue" stroke="midnightblue" points="1706.34,-99.8558 1696.3,-103.22 1706.25,-106.855 1706.34,-99.8558"/>
</g>
<!-- Node6&#45;&gt;Node4 -->
<g id="edge6" class="edge"><title>Node6&#45;&gt;Node4</title>
<path fill="none" stroke="midnightblue" d="M1936.48,-115.189C1945.2,-116.024 1953.91,-116.857 1962.35,-117.665"/>
<polygon fill="midnightblue" stroke="midnightblue" points="1936.53,-111.678 1926.24,-114.21 1935.86,-118.646 1936.53,-111.678"/>
</g>
<!-- Node7&#45;&gt;Node5 -->
<g id="edge8" class="edge"><title>Node7&#45;&gt;Node5</title>
<path fill="none" stroke="midnightblue" d="M622.119,-108C708.261,-108 837.505,-108 950,-108 950,-108 950,-108 1172,-108 1290.14,-108 1426.43,-105.729 1513.82,-103.981"/>
<polygon fill="midnightblue" stroke="midnightblue" points="622.094,-104.5 612.094,-108 622.094,-111.5 622.094,-104.5"/>
</g>
<!-- Node8 -->
<g id="node8" class="node"><title>Node8</title>
<g id="a_node8"><a xlink:href="../../d9/daf/classcellsociety__team02_1_1_grid_view.html#aa1d09688b48a4a95513e15eea18ec0e6" target="_top" xlink:title="cellsociety_team02.GridView.start\lHandler">
<polygon fill="white" stroke="black" points="648,-49 648,-79 826,-79 826,-49 648,-49"/>
<text text-anchor="start" x="656" y="-67" font-family="Helvetica,sans-Serif" font-size="10.00">cellsociety_team02.GridView.start</text>
<text text-anchor="middle" x="737" y="-56" font-family="Helvetica,sans-Serif" font-size="10.00">Handler</text>
</a>
</g>
</g>
<!-- Node7&#45;&gt;Node8 -->
<g id="edge9" class="edge"><title>Node7&#45;&gt;Node8</title>
<path fill="none" stroke="midnightblue" d="M580.633,-96.3987C606.083,-91.0917 636.561,-84.7362 663.755,-79.0654"/>
<polygon fill="midnightblue" stroke="midnightblue" points="579.859,-92.9849 570.784,-98.4527 581.288,-99.8375 579.859,-92.9849"/>
</g>
<!-- Node9 -->
<g id="node9" class="node"><title>Node9</title>
<g id="a_node9"><a xlink:href="../../d9/daf/classcellsociety__team02_1_1_grid_view.html#a27ed5fc9bbf44efab6d23cb07096c36a" target="_top" xlink:title="cellsociety_team02.GridView.start\lAnimation">
<polygon fill="white" stroke="black" points="862,-49 862,-79 1040,-79 1040,-49 862,-49"/>
<text text-anchor="start" x="870" y="-67" font-family="Helvetica,sans-Serif" font-size="10.00">cellsociety_team02.GridView.start</text>
<text text-anchor="middle" x="951" y="-56" font-family="Helvetica,sans-Serif" font-size="10.00">Animation</text>
</a>
</g>
</g>
<!-- Node8&#45;&gt;Node9 -->
<g id="edge10" class="edge"><title>Node8&#45;&gt;Node9</title>
<path fill="none" stroke="midnightblue" d="M836.107,-64C844.7,-64 853.363,-64 861.868,-64"/>
<polygon fill="midnightblue" stroke="midnightblue" points="836.065,-60.5001 826.065,-64 836.065,-67.5001 836.065,-60.5001"/>
</g>
<!-- Node10 -->
<g id="node10" class="node"><title>Node10</title>
<g id="a_node10"><a xlink:href="../../d9/daf/classcellsociety__team02_1_1_grid_view.html#a7b94250b9b4e419eb3b97394e3b86052" target="_top" xlink:title="cellsociety_team02.GridView.play\lPause">
<polygon fill="white" stroke="black" points="1083.5,-49 1083.5,-79 1258.5,-79 1258.5,-49 1083.5,-49"/>
<text text-anchor="start" x="1091.5" y="-67" font-family="Helvetica,sans-Serif" font-size="10.00">cellsociety_team02.GridView.play</text>
<text text-anchor="middle" x="1171" y="-56" font-family="Helvetica,sans-Serif" font-size="10.00">Pause</text>
</a>
</g>
</g>
<!-- Node9&#45;&gt;Node10 -->
<g id="edge11" class="edge"><title>Node9&#45;&gt;Node10</title>
<path fill="none" stroke="midnightblue" d="M1050.16,-64C1061.25,-64 1072.48,-64 1083.4,-64"/>
<polygon fill="midnightblue" stroke="midnightblue" points="1050.04,-60.5001 1040.04,-64 1050.04,-67.5001 1050.04,-60.5001"/>
</g>
<!-- Node11 -->
<g id="node11" class="node"><title>Node11</title>
<g id="a_node11"><a xlink:href="../../d9/daf/classcellsociety__team02_1_1_grid_view.html#a21d8f68b9be54d2f23f17af421c78b12" target="_top" xlink:title="cellsociety_team02.GridView.update\lSpeed">
<polygon fill="white" stroke="black" points="1076.5,-0 1076.5,-30 1265.5,-30 1265.5,-0 1076.5,-0"/>
<text text-anchor="start" x="1084.5" y="-18" font-family="Helvetica,sans-Serif" font-size="10.00">cellsociety_team02.GridView.update</text>
<text text-anchor="middle" x="1171" y="-7" font-family="Helvetica,sans-Serif" font-size="10.00">Speed</text>
</a>
</g>
</g>
<!-- Node9&#45;&gt;Node11 -->
<g id="edge13" class="edge"><title>Node9&#45;&gt;Node11</title>
<path fill="none" stroke="midnightblue" d="M1028.78,-46.7419C1053.07,-41.282 1079.71,-35.295 1103.24,-30.0062"/>
<polygon fill="midnightblue" stroke="midnightblue" points="1027.88,-43.3575 1018.89,-48.9654 1029.41,-50.1871 1027.88,-43.3575"/>
</g>
<!-- Node10&#45;&gt;Node5 -->
<g id="edge12" class="edge"><title>Node10&#45;&gt;Node5</title>
<path fill="none" stroke="midnightblue" d="M1268.81,-72.5153C1342.13,-78.965 1442.13,-87.7612 1513.78,-94.0642"/>
<polygon fill="midnightblue" stroke="midnightblue" points="1268.91,-69.0111 1258.64,-71.6213 1268.3,-75.9842 1268.91,-69.0111"/>
</g>
<!-- Node12 -->
<g id="node12" class="node"><title>Node12</title>
<g id="a_node12"><a xlink:href="../../d9/daf/classcellsociety__team02_1_1_grid_view.html#a08ac9f0ccad1d9db92c9d92a127d77bc" target="_top" xlink:title="cellsociety_team02.GridView.set\lUpSpeedSlider">
<polygon fill="white" stroke="black" points="1305,-3 1305,-33 1475,-33 1475,-3 1305,-3"/>
<text text-anchor="start" x="1313" y="-21" font-family="Helvetica,sans-Serif" font-size="10.00">cellsociety_team02.GridView.set</text>
<text text-anchor="middle" x="1390" y="-10" font-family="Helvetica,sans-Serif" font-size="10.00">UpSpeedSlider</text>
</a>
</g>
</g>
<!-- Node11&#45;&gt;Node12 -->
<g id="edge14" class="edge"><title>Node11&#45;&gt;Node12</title>
<path fill="none" stroke="midnightblue" d="M1275.76,-16.4345C1285.54,-16.5697 1295.37,-16.7056 1304.94,-16.8378"/>
<polygon fill="midnightblue" stroke="midnightblue" points="1275.65,-12.9327 1265.6,-16.294 1275.55,-19.932 1275.65,-12.9327"/>
</g>
<!-- Node12&#45;&gt;Node5 -->
<g id="edge15" class="edge"><title>Node12&#45;&gt;Node5</title>
<path fill="none" stroke="midnightblue" d="M1438.5,-36.7327C1476.9,-51.8761 1530.25,-72.9157 1565.89,-86.9711"/>
<polygon fill="midnightblue" stroke="midnightblue" points="1439.67,-33.4303 1429.08,-33.0175 1437.1,-39.9422 1439.67,-33.4303"/>
</g>
</g>
</svg>
