<?xml version="1.0" encoding="UTF-8" standalone="no"?>
<!DOCTYPE svg PUBLIC "-//W3C//DTD SVG 1.1//EN"
 "http://www.w3.org/Graphics/SVG/1.1/DTD/svg11.dtd">
<!-- Generated by graphviz version 2.36.0 (20140111.2315)
 -->
<!-- Title: cellsociety_team02.Draw.makeTriangle Pages: 1 -->
<svg width="2328pt" height="164pt"
 viewBox="0.00 0.00 2328.00 164.00" xmlns="http://www.w3.org/2000/svg" xmlns:xlink="http://www.w3.org/1999/xlink">
<g id="graph0" class="graph" transform="scale(1 1) rotate(0) translate(4 160)">
<title>cellsociety_team02.Draw.makeTriangle</title>
<polygon fill="white" stroke="none" points="-4,4 -4,-160 2324,-160 2324,4 -4,4"/>
<!-- Node1 -->
<g id="node1" class="node"><title>Node1</title>
<polygon fill="#bfbfbf" stroke="black" points="0.5,-112 0.5,-142 165.5,-142 165.5,-112 0.5,-112"/>
<text text-anchor="start" x="8.5" y="-130" font-family="Helvetica,sans-Serif" font-size="10.00">cellsociety_team02.Draw.make</text>
<text text-anchor="middle" x="83" y="-119" font-family="Helvetica,sans-Serif" font-size="10.00">Triangle</text>
</g>
<!-- Node2 -->
<g id="node2" class="node"><title>Node2</title>
<g id="a_node2"><a xlink:href="../../d4/de6/classcellsociety__team02_1_1_draw.html#a28e6cca2ff571def700126ecfc1ec8e4" target="_top" xlink:title="cellsociety_team02.Draw.draw\lShape">
<polygon fill="white" stroke="black" points="202.5,-112 202.5,-142 363.5,-142 363.5,-112 202.5,-112"/>
<text text-anchor="start" x="210.5" y="-130" font-family="Helvetica,sans-Serif" font-size="10.00">cellsociety_team02.Draw.draw</text>
<text text-anchor="middle" x="283" y="-119" font-family="Helvetica,sans-Serif" font-size="10.00">Shape</text>
</a>
</g>
</g>
<!-- Node1&#45;&gt;Node2 -->
<g id="edge1" class="edge"><title>Node1&#45;&gt;Node2</title>
<path fill="none" stroke="midnightblue" d="M175.704,-127C184.629,-127 193.633,-127 202.424,-127"/>
<polygon fill="midnightblue" stroke="midnightblue" points="175.677,-123.5 165.677,-127 175.677,-130.5 175.677,-123.5"/>
</g>
<!-- Node3 -->
<g id="node3" class="node"><title>Node3</title>
<g id="a_node3"><a xlink:href="../../d9/daf/classcellsociety__team02_1_1_grid_view.html#ad4fe99d3b1bf9b7ed1cd8d65145f5d90" target="_top" xlink:title="cellsociety_team02.GridView.makeGrid">
<polygon fill="white" stroke="black" points="400,-117.5 400,-136.5 602,-136.5 602,-117.5 400,-117.5"/>
<text text-anchor="middle" x="501" y="-124.5" font-family="Helvetica,sans-Serif" font-size="10.00">cellsociety_team02.GridView.makeGrid</text>
</a>
</g>
</g>
<!-- Node2&#45;&gt;Node3 -->
<g id="edge2" class="edge"><title>Node2&#45;&gt;Node3</title>
<path fill="none" stroke="midnightblue" d="M373.559,-127C382.194,-127 390.991,-127 399.72,-127"/>
<polygon fill="midnightblue" stroke="midnightblue" points="373.51,-123.5 363.51,-127 373.51,-130.5 373.51,-123.5"/>
</g>
<!-- Node4 -->
<g id="node4" class="node"><title>Node4</title>
<g id="a_node4"><a xlink:href="../../d9/daf/classcellsociety__team02_1_1_grid_view.html#aa0cb15c1acd15c18573648b8df447752" target="_top" xlink:title="cellsociety_team02.GridView.load">
<polygon fill="white" stroke="black" points="1504,-136.5 1504,-155.5 1680,-155.5 1680,-136.5 1504,-136.5"/>
<text text-anchor="middle" x="1592" y="-143.5" font-family="Helvetica,sans-Serif" font-size="10.00">cellsociety_team02.GridView.load</text>
</a>
</g>
</g>
<!-- Node3&#45;&gt;Node4 -->
<g id="edge3" class="edge"><title>Node3&#45;&gt;Node4</title>
<path fill="none" stroke="midnightblue" d="M612.398,-134.47C700.504,-139.79 827.109,-146 938,-146 938,-146 938,-146 1154,-146 1275.39,-146 1415.74,-146 1503.94,-146"/>
<polygon fill="midnightblue" stroke="midnightblue" points="612.581,-130.975 602.386,-133.859 612.154,-137.962 612.581,-130.975"/>
</g>
<!-- Node8 -->
<g id="node8" class="node"><title>Node8</title>
<g id="a_node8"><a xlink:href="../../d9/daf/classcellsociety__team02_1_1_grid_view.html#a27a105e1810531f4958f9fc192c3cef1" target="_top" xlink:title="cellsociety_team02.GridView.step">
<polygon fill="white" stroke="black" points="638,-98.5 638,-117.5 814,-117.5 814,-98.5 638,-98.5"/>
<text text-anchor="middle" x="726" y="-105.5" font-family="Helvetica,sans-Serif" font-size="10.00">cellsociety_team02.GridView.step</text>
</a>
</g>
</g>
<!-- Node3&#45;&gt;Node8 -->
<g id="edge8" class="edge"><title>Node3&#45;&gt;Node8</title>
<path fill="none" stroke="midnightblue" d="M612.177,-117.613C620.788,-116.879 629.41,-116.144 637.837,-115.426"/>
<polygon fill="midnightblue" stroke="midnightblue" points="611.751,-114.136 602.085,-118.473 612.346,-121.111 611.751,-114.136"/>
</g>
<!-- Node5 -->
<g id="node5" class="node"><title>Node5</title>
<g id="a_node5"><a xlink:href="../../d9/daf/classcellsociety__team02_1_1_grid_view.html#ada183e314764db770009f944205490df" target="_top" xlink:title="cellsociety_team02.GridView.\lGridView">
<polygon fill="white" stroke="black" points="2164.5,-110 2164.5,-140 2319.5,-140 2319.5,-110 2164.5,-110"/>
<text text-anchor="start" x="2172.5" y="-128" font-family="Helvetica,sans-Serif" font-size="10.00">cellsociety_team02.GridView.</text>
<text text-anchor="middle" x="2242" y="-117" font-family="Helvetica,sans-Serif" font-size="10.00">GridView</text>
</a>
</g>
</g>
<!-- Node4&#45;&gt;Node5 -->
<g id="edge4" class="edge"><title>Node4&#45;&gt;Node5</title>
<path fill="none" stroke="midnightblue" d="M1690.37,-142.845C1819.94,-138.645 2046.4,-131.307 2164.47,-127.48"/>
<polygon fill="midnightblue" stroke="midnightblue" points="1689.94,-139.357 1680.06,-143.179 1690.16,-146.353 1689.94,-139.357"/>
</g>
<!-- Node6 -->
<g id="node6" class="node"><title>Node6</title>
<g id="a_node6"><a xlink:href="../../d9/daf/classcellsociety__team02_1_1_grid_view.html#afcc7b83f62c116e77ab0843bfd4156b8" target="_top" xlink:title="cellsociety_team02.GridView.make\lButtons">
<polygon fill="white" stroke="black" points="1716,-87 1716,-117 1898,-117 1898,-87 1716,-87"/>
<text text-anchor="start" x="1724" y="-105" font-family="Helvetica,sans-Serif" font-size="10.00">cellsociety_team02.GridView.make</text>
<text text-anchor="middle" x="1807" y="-94" font-family="Helvetica,sans-Serif" font-size="10.00">Buttons</text>
</a>
</g>
</g>
<!-- Node4&#45;&gt;Node6 -->
<g id="edge5" class="edge"><title>Node4&#45;&gt;Node6</title>
<path fill="none" stroke="midnightblue" d="M1649.16,-134.399C1674.85,-129.092 1705.62,-122.736 1733.07,-117.065"/>
<polygon fill="midnightblue" stroke="midnightblue" points="1648.3,-131.002 1639.22,-136.453 1649.72,-137.857 1648.3,-131.002"/>
</g>
<!-- Node7 -->
<g id="node7" class="node"><title>Node7</title>
<g id="a_node7"><a xlink:href="../../d9/daf/classcellsociety__team02_1_1_grid_view.html#a4571898657e750f62c2df84cb398e135" target="_top" xlink:title="cellsociety_team02.GridView.initialize">
<polygon fill="white" stroke="black" points="1934,-95.5 1934,-114.5 2128,-114.5 2128,-95.5 1934,-95.5"/>
<text text-anchor="middle" x="2031" y="-102.5" font-family="Helvetica,sans-Serif" font-size="10.00">cellsociety_team02.GridView.initialize</text>
</a>
</g>
</g>
<!-- Node6&#45;&gt;Node7 -->
<g id="edge6" class="edge"><title>Node6&#45;&gt;Node7</title>
<path fill="none" stroke="midnightblue" d="M1908.56,-103.359C1917.03,-103.473 1925.57,-103.589 1934,-103.703"/>
<polygon fill="midnightblue" stroke="midnightblue" points="1908.34,-99.8558 1898.3,-103.22 1908.25,-106.855 1908.34,-99.8558"/>
</g>
<!-- Node7&#45;&gt;Node5 -->
<g id="edge7" class="edge"><title>Node7&#45;&gt;Node5</title>
<path fill="none" stroke="midnightblue" d="M2138.48,-115.189C2147.2,-116.024 2155.91,-116.857 2164.35,-117.665"/>
<polygon fill="midnightblue" stroke="midnightblue" points="2138.53,-111.678 2128.24,-114.21 2137.86,-118.646 2138.53,-111.678"/>
</g>
<!-- Node8&#45;&gt;Node6 -->
<g id="edge9" class="edge"><title>Node8&#45;&gt;Node6</title>
<path fill="none" stroke="midnightblue" d="M824.119,-108C910.261,-108 1039.51,-108 1152,-108 1152,-108 1152,-108 1374,-108 1492.14,-108 1628.43,-105.729 1715.82,-103.981"/>
<polygon fill="midnightblue" stroke="midnightblue" points="824.094,-104.5 814.094,-108 824.094,-111.5 824.094,-104.5"/>
</g>
<!-- Node9 -->
<g id="node9" class="node"><title>Node9</title>
<g id="a_node9"><a xlink:href="../../d9/daf/classcellsociety__team02_1_1_grid_view.html#aa1d09688b48a4a95513e15eea18ec0e6" target="_top" xlink:title="cellsociety_team02.GridView.start\lHandler">
<polygon fill="white" stroke="black" points="850,-49 850,-79 1028,-79 1028,-49 850,-49"/>
<text text-anchor="start" x="858" y="-67" font-family="Helvetica,sans-Serif" font-size="10.00">cellsociety_team02.GridView.start</text>
<text text-anchor="middle" x="939" y="-56" font-family="Helvetica,sans-Serif" font-size="10.00">Handler</text>
</a>
</g>
</g>
<!-- Node8&#45;&gt;Node9 -->
<g id="edge10" class="edge"><title>Node8&#45;&gt;Node9</title>
<path fill="none" stroke="midnightblue" d="M782.633,-96.3987C808.083,-91.0917 838.561,-84.7362 865.755,-79.0654"/>
<polygon fill="midnightblue" stroke="midnightblue" points="781.859,-92.9849 772.784,-98.4527 783.288,-99.8375 781.859,-92.9849"/>
</g>
<!-- Node10 -->
<g id="node10" class="node"><title>Node10</title>
<g id="a_node10"><a xlink:href="../../d9/daf/classcellsociety__team02_1_1_grid_view.html#a27ed5fc9bbf44efab6d23cb07096c36a" target="_top" xlink:title="cellsociety_team02.GridView.start\lAnimation">
<polygon fill="white" stroke="black" points="1064,-49 1064,-79 1242,-79 1242,-49 1064,-49"/>
<text text-anchor="start" x="1072" y="-67" font-family="Helvetica,sans-Serif" font-size="10.00">cellsociety_team02.GridView.start</text>
<text text-anchor="middle" x="1153" y="-56" font-family="Helvetica,sans-Serif" font-size="10.00">Animation</text>
</a>
</g>
</g>
<!-- Node9&#45;&gt;Node10 -->
<g id="edge11" class="edge"><title>Node9&#45;&gt;Node10</title>
<path fill="none" stroke="midnightblue" d="M1038.11,-64C1046.7,-64 1055.36,-64 1063.87,-64"/>
<polygon fill="midnightblue" stroke="midnightblue" points="1038.07,-60.5001 1028.07,-64 1038.07,-67.5001 1038.07,-60.5001"/>
</g>
<!-- Node11 -->
<g id="node11" class="node"><title>Node11</title>
<g id="a_node11"><a xlink:href="../../d9/daf/classcellsociety__team02_1_1_grid_view.html#a7b94250b9b4e419eb3b97394e3b86052" target="_top" xlink:title="cellsociety_team02.GridView.play\lPause">
<polygon fill="white" stroke="black" points="1285.5,-49 1285.5,-79 1460.5,-79 1460.5,-49 1285.5,-49"/>
<text text-anchor="start" x="1293.5" y="-67" font-family="Helvetica,sans-Serif" font-size="10.00">cellsociety_team02.GridView.play</text>
<text text-anchor="middle" x="1373" y="-56" font-family="Helvetica,sans-Serif" font-size="10.00">Pause</text>
</a>
</g>
</g>
<!-- Node10&#45;&gt;Node11 -->
<g id="edge12" class="edge"><title>Node10&#45;&gt;Node11</title>
<path fill="none" stroke="midnightblue" d="M1252.16,-64C1263.25,-64 1274.48,-64 1285.4,-64"/>
<polygon fill="midnightblue" stroke="midnightblue" points="1252.04,-60.5001 1242.04,-64 1252.04,-67.5001 1252.04,-60.5001"/>
</g>
<!-- Node12 -->
<g id="node12" class="node"><title>Node12</title>
<g id="a_node12"><a xlink:href="../../d9/daf/classcellsociety__team02_1_1_grid_view.html#a21d8f68b9be54d2f23f17af421c78b12" target="_top" xlink:title="cellsociety_team02.GridView.update\lSpeed">
<polygon fill="white" stroke="black" points="1278.5,-0 1278.5,-30 1467.5,-30 1467.5,-0 1278.5,-0"/>
<text text-anchor="start" x="1286.5" y="-18" font-family="Helvetica,sans-Serif" font-size="10.00">cellsociety_team02.GridView.update</text>
<text text-anchor="middle" x="1373" y="-7" font-family="Helvetica,sans-Serif" font-size="10.00">Speed</text>
</a>
</g>
</g>
<!-- Node10&#45;&gt;Node12 -->
<g id="edge14" class="edge"><title>Node10&#45;&gt;Node12</title>
<path fill="none" stroke="midnightblue" d="M1230.78,-46.7419C1255.07,-41.282 1281.71,-35.295 1305.24,-30.0062"/>
<polygon fill="midnightblue" stroke="midnightblue" points="1229.88,-43.3575 1220.89,-48.9654 1231.41,-50.1871 1229.88,-43.3575"/>
</g>
<!-- Node11&#45;&gt;Node6 -->
<g id="edge13" class="edge"><title>Node11&#45;&gt;Node6</title>
<path fill="none" stroke="midnightblue" d="M1470.81,-72.5153C1544.13,-78.965 1644.13,-87.7612 1715.78,-94.0642"/>
<polygon fill="midnightblue" stroke="midnightblue" points="1470.91,-69.0111 1460.64,-71.6213 1470.3,-75.9842 1470.91,-69.0111"/>
</g>
<!-- Node13 -->
<g id="node13" class="node"><title>Node13</title>
<g id="a_node13"><a xlink:href="../../d9/daf/classcellsociety__team02_1_1_grid_view.html#a08ac9f0ccad1d9db92c9d92a127d77bc" target="_top" xlink:title="cellsociety_team02.GridView.set\lUpSpeedSlider">
<polygon fill="white" stroke="black" points="1507,-3 1507,-33 1677,-33 1677,-3 1507,-3"/>
<text text-anchor="start" x="1515" y="-21" font-family="Helvetica,sans-Serif" font-size="10.00">cellsociety_team02.GridView.set</text>
<text text-anchor="middle" x="1592" y="-10" font-family="Helvetica,sans-Serif" font-size="10.00">UpSpeedSlider</text>
</a>
</g>
</g>
<!-- Node12&#45;&gt;Node13 -->
<g id="edge15" class="edge"><title>Node12&#45;&gt;Node13</title>
<path fill="none" stroke="midnightblue" d="M1477.76,-16.4345C1487.54,-16.5697 1497.37,-16.7056 1506.94,-16.8378"/>
<polygon fill="midnightblue" stroke="midnightblue" points="1477.65,-12.9327 1467.6,-16.294 1477.55,-19.932 1477.65,-12.9327"/>
</g>
<!-- Node13&#45;&gt;Node6 -->
<g id="edge16" class="edge"><title>Node13&#45;&gt;Node6</title>
<path fill="none" stroke="midnightblue" d="M1640.5,-36.7327C1678.9,-51.8761 1732.25,-72.9157 1767.89,-86.9711"/>
<polygon fill="midnightblue" stroke="midnightblue" points="1641.67,-33.4303 1631.08,-33.0175 1639.1,-39.9422 1641.67,-33.4303"/>
</g>
</g>
</svg>
