<?xml version="1.0" encoding="UTF-8" standalone="no"?>
<!DOCTYPE svg PUBLIC "-//W3C//DTD SVG 1.1//EN"
 "http://www.w3.org/Graphics/SVG/1.1/DTD/svg11.dtd">
<!-- Generated by graphviz version 2.36.0 (20140111.2315)
 -->
<!-- Title: cellsociety_team02.GridView.step Pages: 1 -->
<svg width="1690pt" height="116pt"
 viewBox="0.00 0.00 1690.00 116.00" xmlns="http://www.w3.org/2000/svg" xmlns:xlink="http://www.w3.org/1999/xlink">
<g id="graph0" class="graph" transform="scale(1 1) rotate(0) translate(4 112)">
<title>cellsociety_team02.GridView.step</title>
<polygon fill="white" stroke="none" points="-4,4 -4,-112 1686,-112 1686,4 -4,4"/>
<!-- Node1 -->
<g id="node1" class="node"><title>Node1</title>
<polygon fill="#bfbfbf" stroke="black" points="0,-76.5 0,-95.5 176,-95.5 176,-76.5 0,-76.5"/>
<text text-anchor="middle" x="88" y="-83.5" font-family="Helvetica,sans-Serif" font-size="10.00">cellsociety_team02.GridView.step</text>
</g>
<!-- Node2 -->
<g id="node2" class="node"><title>Node2</title>
<g id="a_node2"><a xlink:href="../../d9/daf/classcellsociety__team02_1_1_grid_view.html#afcc7b83f62c116e77ab0843bfd4156b8" target="_top" xlink:title="cellsociety_team02.GridView.make\lButtons">
<polygon fill="white" stroke="black" points="1078,-49 1078,-79 1260,-79 1260,-49 1078,-49"/>
<text text-anchor="start" x="1086" y="-67" font-family="Helvetica,sans-Serif" font-size="10.00">cellsociety_team02.GridView.make</text>
<text text-anchor="middle" x="1169" y="-56" font-family="Helvetica,sans-Serif" font-size="10.00">Buttons</text>
</a>
</g>
</g>
<!-- Node1&#45;&gt;Node2 -->
<g id="edge1" class="edge"><title>Node1&#45;&gt;Node2</title>
<path fill="none" stroke="midnightblue" d="M186.045,-93.8849C272.139,-100.197 401.355,-108 514,-108 514,-108 514,-108 736,-108 872.29,-108 906.803,-105.228 1042,-88 1060,-85.7059 1079.31,-82.4401 1097.27,-79.0537"/>
<polygon fill="midnightblue" stroke="midnightblue" points="186.257,-90.3911 176.026,-93.1428 185.74,-97.3719 186.257,-90.3911"/>
</g>
<!-- Node5 -->
<g id="node5" class="node"><title>Node5</title>
<g id="a_node5"><a xlink:href="../../d9/daf/classcellsociety__team02_1_1_grid_view.html#aa1d09688b48a4a95513e15eea18ec0e6" target="_top" xlink:title="cellsociety_team02.GridView.start\lHandler">
<polygon fill="white" stroke="black" points="212,-49 212,-79 390,-79 390,-49 212,-49"/>
<text text-anchor="start" x="220" y="-67" font-family="Helvetica,sans-Serif" font-size="10.00">cellsociety_team02.GridView.start</text>
<text text-anchor="middle" x="301" y="-56" font-family="Helvetica,sans-Serif" font-size="10.00">Handler</text>
</a>
</g>
</g>
<!-- Node1&#45;&gt;Node5 -->
<g id="edge4" class="edge"><title>Node1&#45;&gt;Node5</title>
<path fill="none" stroke="midnightblue" d="M186.063,-75.8797C194.642,-74.9851 203.297,-74.0828 211.797,-73.1965"/>
<polygon fill="midnightblue" stroke="midnightblue" points="185.623,-72.4065 176.04,-76.9247 186.349,-79.3688 185.623,-72.4065"/>
</g>
<!-- Node3 -->
<g id="node3" class="node"><title>Node3</title>
<g id="a_node3"><a xlink:href="../../d9/daf/classcellsociety__team02_1_1_grid_view.html#a4571898657e750f62c2df84cb398e135" target="_top" xlink:title="cellsociety_team02.GridView.initialize">
<polygon fill="white" stroke="black" points="1296,-54.5 1296,-73.5 1490,-73.5 1490,-54.5 1296,-54.5"/>
<text text-anchor="middle" x="1393" y="-61.5" font-family="Helvetica,sans-Serif" font-size="10.00">cellsociety_team02.GridView.initialize</text>
</a>
</g>
</g>
<!-- Node2&#45;&gt;Node3 -->
<g id="edge2" class="edge"><title>Node2&#45;&gt;Node3</title>
<path fill="none" stroke="midnightblue" d="M1270.56,-64C1279.03,-64 1287.57,-64 1296,-64"/>
<polygon fill="midnightblue" stroke="midnightblue" points="1270.3,-60.5001 1260.3,-64 1270.3,-67.5001 1270.3,-60.5001"/>
</g>
<!-- Node4 -->
<g id="node4" class="node"><title>Node4</title>
<g id="a_node4"><a xlink:href="../../d9/daf/classcellsociety__team02_1_1_grid_view.html#ada183e314764db770009f944205490df" target="_top" xlink:title="cellsociety_team02.GridView.\lGridView">
<polygon fill="white" stroke="black" points="1526.5,-49 1526.5,-79 1681.5,-79 1681.5,-49 1526.5,-49"/>
<text text-anchor="start" x="1534.5" y="-67" font-family="Helvetica,sans-Serif" font-size="10.00">cellsociety_team02.GridView.</text>
<text text-anchor="middle" x="1604" y="-56" font-family="Helvetica,sans-Serif" font-size="10.00">GridView</text>
</a>
</g>
</g>
<!-- Node3&#45;&gt;Node4 -->
<g id="edge3" class="edge"><title>Node3&#45;&gt;Node4</title>
<path fill="none" stroke="midnightblue" d="M1500.48,-64C1509.2,-64 1517.91,-64 1526.35,-64"/>
<polygon fill="midnightblue" stroke="midnightblue" points="1500.24,-60.5001 1490.24,-64 1500.24,-67.5001 1500.24,-60.5001"/>
</g>
<!-- Node6 -->
<g id="node6" class="node"><title>Node6</title>
<g id="a_node6"><a xlink:href="../../d9/daf/classcellsociety__team02_1_1_grid_view.html#a27ed5fc9bbf44efab6d23cb07096c36a" target="_top" xlink:title="cellsociety_team02.GridView.start\lAnimation">
<polygon fill="white" stroke="black" points="426,-49 426,-79 604,-79 604,-49 426,-49"/>
<text text-anchor="start" x="434" y="-67" font-family="Helvetica,sans-Serif" font-size="10.00">cellsociety_team02.GridView.start</text>
<text text-anchor="middle" x="515" y="-56" font-family="Helvetica,sans-Serif" font-size="10.00">Animation</text>
</a>
</g>
</g>
<!-- Node5&#45;&gt;Node6 -->
<g id="edge5" class="edge"><title>Node5&#45;&gt;Node6</title>
<path fill="none" stroke="midnightblue" d="M400.107,-64C408.7,-64 417.363,-64 425.868,-64"/>
<polygon fill="midnightblue" stroke="midnightblue" points="400.065,-60.5001 390.065,-64 400.065,-67.5001 400.065,-60.5001"/>
</g>
<!-- Node7 -->
<g id="node7" class="node"><title>Node7</title>
<g id="a_node7"><a xlink:href="../../d9/daf/classcellsociety__team02_1_1_grid_view.html#a7b94250b9b4e419eb3b97394e3b86052" target="_top" xlink:title="cellsociety_team02.GridView.play\lPause">
<polygon fill="white" stroke="black" points="866.5,-49 866.5,-79 1041.5,-79 1041.5,-49 866.5,-49"/>
<text text-anchor="start" x="874.5" y="-67" font-family="Helvetica,sans-Serif" font-size="10.00">cellsociety_team02.GridView.play</text>
<text text-anchor="middle" x="954" y="-56" font-family="Helvetica,sans-Serif" font-size="10.00">Pause</text>
</a>
</g>
</g>
<!-- Node6&#45;&gt;Node7 -->
<g id="edge6" class="edge"><title>Node6&#45;&gt;Node7</title>
<path fill="none" stroke="midnightblue" d="M614.201,-64C689.972,-64 793.783,-64 866.456,-64"/>
<polygon fill="midnightblue" stroke="midnightblue" points="614.171,-60.5001 604.17,-64 614.17,-67.5001 614.171,-60.5001"/>
</g>
<!-- Node8 -->
<g id="node8" class="node"><title>Node8</title>
<g id="a_node8"><a xlink:href="../../d9/daf/classcellsociety__team02_1_1_grid_view.html#a21d8f68b9be54d2f23f17af421c78b12" target="_top" xlink:title="cellsociety_team02.GridView.update\lSpeed">
<polygon fill="white" stroke="black" points="640.5,-2 640.5,-32 829.5,-32 829.5,-2 640.5,-2"/>
<text text-anchor="start" x="648.5" y="-20" font-family="Helvetica,sans-Serif" font-size="10.00">cellsociety_team02.GridView.update</text>
<text text-anchor="middle" x="735" y="-9" font-family="Helvetica,sans-Serif" font-size="10.00">Speed</text>
</a>
</g>
</g>
<!-- Node6&#45;&gt;Node8 -->
<g id="edge8" class="edge"><title>Node6&#45;&gt;Node8</title>
<path fill="none" stroke="midnightblue" d="M595.458,-46.8692C618.018,-42.0053 642.405,-36.7476 664.337,-32.019"/>
<polygon fill="midnightblue" stroke="midnightblue" points="594.614,-43.4707 585.576,-48.9997 596.089,-50.3135 594.614,-43.4707"/>
</g>
<!-- Node7&#45;&gt;Node2 -->
<g id="edge7" class="edge"><title>Node7&#45;&gt;Node2</title>
<path fill="none" stroke="midnightblue" d="M1051.81,-64C1060.52,-64 1069.33,-64 1077.98,-64"/>
<polygon fill="midnightblue" stroke="midnightblue" points="1051.64,-60.5001 1041.64,-64 1051.64,-67.5001 1051.64,-60.5001"/>
</g>
<!-- Node9 -->
<g id="node9" class="node"><title>Node9</title>
<g id="a_node9"><a xlink:href="../../d9/daf/classcellsociety__team02_1_1_grid_view.html#a08ac9f0ccad1d9db92c9d92a127d77bc" target="_top" xlink:title="cellsociety_team02.GridView.set\lUpSpeedSlider">
<polygon fill="white" stroke="black" points="869,-0 869,-30 1039,-30 1039,-0 869,-0"/>
<text text-anchor="start" x="877" y="-18" font-family="Helvetica,sans-Serif" font-size="10.00">cellsociety_team02.GridView.set</text>
<text text-anchor="middle" x="954" y="-7" font-family="Helvetica,sans-Serif" font-size="10.00">UpSpeedSlider</text>
</a>
</g>
</g>
<!-- Node8&#45;&gt;Node9 -->
<g id="edge9" class="edge"><title>Node8&#45;&gt;Node9</title>
<path fill="none" stroke="midnightblue" d="M839.761,-16.0437C849.541,-15.9535 859.372,-15.8629 868.936,-15.7748"/>
<polygon fill="midnightblue" stroke="midnightblue" points="839.569,-12.5452 829.602,-16.1373 839.634,-19.5449 839.569,-12.5452"/>
</g>
<!-- Node9&#45;&gt;Node2 -->
<g id="edge10" class="edge"><title>Node9&#45;&gt;Node2</title>
<path fill="none" stroke="midnightblue" d="M1030.34,-32.3309C1053.98,-37.7712 1079.88,-43.7285 1102.77,-48.9938"/>
<polygon fill="midnightblue" stroke="midnightblue" points="1030.88,-28.8657 1020.35,-30.0346 1029.32,-35.6875 1030.88,-28.8657"/>
</g>
</g>
</svg>
