<?xml version="1.0" encoding="UTF-8" standalone="no"?>
<!DOCTYPE svg PUBLIC "-//W3C//DTD SVG 1.1//EN"
 "http://www.w3.org/Graphics/SVG/1.1/DTD/svg11.dtd">
<!-- Generated by graphviz version 2.36.0 (20140111.2315)
 -->
<!-- Title: cellsociety_team02.GridView.setUpSpeedSlider Pages: 1 -->
<svg width="1946pt" height="399pt"
 viewBox="0.00 0.00 1946.00 399.00" xmlns="http://www.w3.org/2000/svg" xmlns:xlink="http://www.w3.org/1999/xlink">
<g id="graph0" class="graph" transform="scale(1 1) rotate(0) translate(4 395)">
<title>cellsociety_team02.GridView.setUpSpeedSlider</title>
<polygon fill="white" stroke="none" points="-4,4 -4,-395 1942,-395 1942,4 -4,4"/>
<!-- Node1 -->
<g id="node1" class="node"><title>Node1</title>
<polygon fill="#bfbfbf" stroke="black" points="0,-110 0,-140 170,-140 170,-110 0,-110"/>
<text text-anchor="start" x="8" y="-128" font-family="Helvetica,sans-Serif" font-size="10.00">cellsociety_team02.GridView.set</text>
<text text-anchor="middle" x="85" y="-117" font-family="Helvetica,sans-Serif" font-size="10.00">UpSpeedSlider</text>
</g>
<!-- Node2 -->
<g id="node2" class="node"><title>Node2</title>
<g id="a_node2"><a xlink:href="../../d9/daf/classcellsociety__team02_1_1_grid_view.html#a21d8f68b9be54d2f23f17af421c78b12" target="_top" xlink:title="cellsociety_team02.GridView.update\lSpeed">
<polygon fill="white" stroke="black" points="206.5,-110 206.5,-140 395.5,-140 395.5,-110 206.5,-110"/>
<text text-anchor="start" x="214.5" y="-128" font-family="Helvetica,sans-Serif" font-size="10.00">cellsociety_team02.GridView.update</text>
<text text-anchor="middle" x="301" y="-117" font-family="Helvetica,sans-Serif" font-size="10.00">Speed</text>
</a>
</g>
</g>
<!-- Node1&#45;&gt;Node2 -->
<g id="edge1" class="edge"><title>Node1&#45;&gt;Node2</title>
<path fill="none" stroke="midnightblue" d="M170.271,-125C178.762,-125 187.453,-125 196.117,-125"/>
<polygon fill="midnightblue" stroke="midnightblue" points="196.261,-128.5 206.261,-125 196.261,-121.5 196.261,-128.5"/>
</g>
<!-- Node3 -->
<g id="node3" class="node"><title>Node3</title>
<g id="a_node3"><a xlink:href="../../d9/daf/classcellsociety__team02_1_1_grid_view.html#a27ed5fc9bbf44efab6d23cb07096c36a" target="_top" xlink:title="cellsociety_team02.GridView.start\lAnimation">
<polygon fill="white" stroke="black" points="432,-110 432,-140 610,-140 610,-110 432,-110"/>
<text text-anchor="start" x="440" y="-128" font-family="Helvetica,sans-Serif" font-size="10.00">cellsociety_team02.GridView.start</text>
<text text-anchor="middle" x="521" y="-117" font-family="Helvetica,sans-Serif" font-size="10.00">Animation</text>
</a>
</g>
</g>
<!-- Node2&#45;&gt;Node3 -->
<g id="edge2" class="edge"><title>Node2&#45;&gt;Node3</title>
<path fill="none" stroke="midnightblue" d="M395.717,-125C404.343,-125 413.1,-125 421.764,-125"/>
<polygon fill="midnightblue" stroke="midnightblue" points="421.881,-128.5 431.881,-125 421.881,-121.5 421.881,-128.5"/>
</g>
<!-- Node4 -->
<g id="node4" class="node"><title>Node4</title>
<g id="a_node4"><a xlink:href="../../d9/daf/classcellsociety__team02_1_1_grid_view.html#aa1d09688b48a4a95513e15eea18ec0e6" target="_top" xlink:title="cellsociety_team02.GridView.start\lHandler">
<polygon fill="white" stroke="black" points="646,-110 646,-140 824,-140 824,-110 646,-110"/>
<text text-anchor="start" x="654" y="-128" font-family="Helvetica,sans-Serif" font-size="10.00">cellsociety_team02.GridView.start</text>
<text text-anchor="middle" x="735" y="-117" font-family="Helvetica,sans-Serif" font-size="10.00">Handler</text>
</a>
</g>
</g>
<!-- Node3&#45;&gt;Node4 -->
<g id="edge3" class="edge"><title>Node3&#45;&gt;Node4</title>
<path fill="none" stroke="midnightblue" d="M610.065,-125C618.569,-125 627.232,-125 635.825,-125"/>
<polygon fill="midnightblue" stroke="midnightblue" points="635.868,-128.5 645.868,-125 635.868,-121.5 635.868,-128.5"/>
</g>
<!-- Node5 -->
<g id="node5" class="node"><title>Node5</title>
<g id="a_node5"><a xlink:href="../../d9/daf/classcellsociety__team02_1_1_grid_view.html#a27a105e1810531f4958f9fc192c3cef1" target="_top" xlink:title="cellsociety_team02.GridView.step">
<polygon fill="white" stroke="black" points="860,-115.5 860,-134.5 1036,-134.5 1036,-115.5 860,-115.5"/>
<text text-anchor="middle" x="948" y="-122.5" font-family="Helvetica,sans-Serif" font-size="10.00">cellsociety_team02.GridView.step</text>
</a>
</g>
</g>
<!-- Node4&#45;&gt;Node5 -->
<g id="edge4" class="edge"><title>Node4&#45;&gt;Node5</title>
<path fill="none" stroke="midnightblue" d="M824.26,-125C832.61,-125 841.108,-125 849.537,-125"/>
<polygon fill="midnightblue" stroke="midnightblue" points="849.77,-128.5 859.769,-125 849.769,-121.5 849.77,-128.5"/>
</g>
<!-- Node6 -->
<g id="node6" class="node"><title>Node6</title>
<g id="a_node6"><a xlink:href="../../df/d71/classcellsociety__team02_1_1_grid_model.html#a866f20a5152d615d686b4412ed6d4e46" target="_top" xlink:title="cellsociety_team02.GridModel.update">
<polygon fill="white" stroke="black" points="1074.5,-317.5 1074.5,-336.5 1271.5,-336.5 1271.5,-317.5 1074.5,-317.5"/>
<text text-anchor="middle" x="1173" y="-324.5" font-family="Helvetica,sans-Serif" font-size="10.00">cellsociety_team02.GridModel.update</text>
</a>
</g>
</g>
<!-- Node5&#45;&gt;Node6 -->
<g id="edge5" class="edge"><title>Node5&#45;&gt;Node6</title>
<path fill="none" stroke="midnightblue" d="M959.756,-134.743C995.302,-166.942 1109.27,-270.179 1153.87,-310.575"/>
<polygon fill="midnightblue" stroke="midnightblue" points="1151.59,-313.235 1161.35,-317.355 1156.29,-308.047 1151.59,-313.235"/>
</g>
<!-- Node11 -->
<g id="node11" class="node"><title>Node11</title>
<g id="a_node11"><a xlink:href="../../d9/daf/classcellsociety__team02_1_1_grid_view.html#ad4fe99d3b1bf9b7ed1cd8d65145f5d90" target="_top" xlink:title="cellsociety_team02.GridView.makeGrid">
<polygon fill="white" stroke="black" points="1072,-115.5 1072,-134.5 1274,-134.5 1274,-115.5 1072,-115.5"/>
<text text-anchor="middle" x="1173" y="-122.5" font-family="Helvetica,sans-Serif" font-size="10.00">cellsociety_team02.GridView.makeGrid</text>
</a>
</g>
</g>
<!-- Node5&#45;&gt;Node11 -->
<g id="edge10" class="edge"><title>Node5&#45;&gt;Node11</title>
<path fill="none" stroke="midnightblue" d="M1036.18,-125C1044.6,-125 1053.23,-125 1061.84,-125"/>
<polygon fill="midnightblue" stroke="midnightblue" points="1061.94,-128.5 1071.94,-125 1061.94,-121.5 1061.94,-128.5"/>
</g>
<!-- Node22 -->
<g id="node22" class="node"><title>Node22</title>
<g id="a_node22"><a xlink:href="../../d9/daf/classcellsociety__team02_1_1_grid_view.html#acf332ae230af02cadc77649e0b6fc0ff" target="_top" xlink:title="cellsociety_team02.GridView.make\lGraph">
<polygon fill="white" stroke="black" points="1082,-42 1082,-72 1264,-72 1264,-42 1082,-42"/>
<text text-anchor="start" x="1090" y="-60" font-family="Helvetica,sans-Serif" font-size="10.00">cellsociety_team02.GridView.make</text>
<text text-anchor="middle" x="1173" y="-49" font-family="Helvetica,sans-Serif" font-size="10.00">Graph</text>
</a>
</g>
</g>
<!-- Node5&#45;&gt;Node22 -->
<g id="edge21" class="edge"><title>Node5&#45;&gt;Node22</title>
<path fill="none" stroke="midnightblue" d="M980.477,-115.401C1014.78,-104.941 1070.45,-87.9659 1112.95,-75.0062"/>
<polygon fill="midnightblue" stroke="midnightblue" points="1114.08,-78.3204 1122.63,-72.0558 1112.04,-71.6248 1114.08,-78.3204"/>
</g>
<!-- Node7 -->
<g id="node7" class="node"><title>Node7</title>
<g id="a_node7"><a xlink:href="../../df/d71/classcellsociety__team02_1_1_grid_model.html#ab59dfb960d9ac9cc5b875ae9cda15f92" target="_top" xlink:title="cellsociety_team02.GridModel.set\lCurrentToFuture">
<polygon fill="white" stroke="black" points="1323,-361 1323,-391 1501,-391 1501,-361 1323,-361"/>
<text text-anchor="start" x="1331" y="-379" font-family="Helvetica,sans-Serif" font-size="10.00">cellsociety_team02.GridModel.set</text>
<text text-anchor="middle" x="1412" y="-368" font-family="Helvetica,sans-Serif" font-size="10.00">CurrentToFuture</text>
</a>
</g>
</g>
<!-- Node6&#45;&gt;Node7 -->
<g id="edge6" class="edge"><title>Node6&#45;&gt;Node7</title>
<path fill="none" stroke="midnightblue" d="M1219.98,-336.506C1250.61,-342.84 1291.76,-351.347 1328.02,-358.844"/>
<polygon fill="midnightblue" stroke="midnightblue" points="1327.6,-362.331 1338.1,-360.929 1329.02,-355.476 1327.6,-362.331"/>
</g>
<!-- Node9 -->
<g id="node9" class="node"><title>Node9</title>
<g id="a_node9"><a xlink:href="../../df/d71/classcellsociety__team02_1_1_grid_model.html#aefe267680baa28646953d3fc833c9430" target="_top" xlink:title="cellsociety_team02.GridModel.update\lPatchesAndCells">
<polygon fill="white" stroke="black" points="1313.5,-312 1313.5,-342 1510.5,-342 1510.5,-312 1313.5,-312"/>
<text text-anchor="start" x="1321.5" y="-330" font-family="Helvetica,sans-Serif" font-size="10.00">cellsociety_team02.GridModel.update</text>
<text text-anchor="middle" x="1412" y="-319" font-family="Helvetica,sans-Serif" font-size="10.00">PatchesAndCells</text>
</a>
</g>
</g>
<!-- Node6&#45;&gt;Node9 -->
<g id="edge8" class="edge"><title>Node6&#45;&gt;Node9</title>
<path fill="none" stroke="midnightblue" d="M1271.77,-327C1282.2,-327 1292.86,-327 1303.4,-327"/>
<polygon fill="midnightblue" stroke="midnightblue" points="1303.46,-330.5 1313.46,-327 1303.46,-323.5 1303.46,-330.5"/>
</g>
<!-- Node8 -->
<g id="node8" class="node"><title>Node8</title>
<g id="a_node8"><a xlink:href="../../d0/d0a/class_patch_1_1_patch.html#a5e6d56a2d8b59b7cffec33cc1b76019c" target="_top" xlink:title="Patch.Patch.currentToFuture">
<polygon fill="white" stroke="black" points="1568.5,-366.5 1568.5,-385.5 1717.5,-385.5 1717.5,-366.5 1568.5,-366.5"/>
<text text-anchor="middle" x="1643" y="-373.5" font-family="Helvetica,sans-Serif" font-size="10.00">Patch.Patch.currentToFuture</text>
</a>
</g>
</g>
<!-- Node7&#45;&gt;Node8 -->
<g id="edge7" class="edge"><title>Node7&#45;&gt;Node8</title>
<path fill="none" stroke="midnightblue" d="M1501.21,-376C1519.92,-376 1539.62,-376 1558.16,-376"/>
<polygon fill="midnightblue" stroke="midnightblue" points="1558.33,-379.5 1568.33,-376 1558.33,-372.5 1558.33,-379.5"/>
</g>
<!-- Node10 -->
<g id="node10" class="node"><title>Node10</title>
<g id="a_node10"><a xlink:href="../../d0/d0a/class_patch_1_1_patch.html#a6b354b20c05532df4f8fea4878cf0027" target="_top" xlink:title="Patch.Patch.updateState">
<polygon fill="white" stroke="black" points="1575.5,-323.5 1575.5,-342.5 1710.5,-342.5 1710.5,-323.5 1575.5,-323.5"/>
<text text-anchor="middle" x="1643" y="-330.5" font-family="Helvetica,sans-Serif" font-size="10.00">Patch.Patch.updateState</text>
</a>
</g>
</g>
<!-- Node9&#45;&gt;Node10 -->
<g id="edge9" class="edge"><title>Node9&#45;&gt;Node10</title>
<path fill="none" stroke="midnightblue" d="M1510.78,-329.562C1528.97,-330.039 1547.74,-330.53 1565.19,-330.987"/>
<polygon fill="midnightblue" stroke="midnightblue" points="1565.21,-334.489 1575.3,-331.252 1565.39,-327.491 1565.21,-334.489"/>
</g>
<!-- Node12 -->
<g id="node12" class="node"><title>Node12</title>
<g id="a_node12"><a xlink:href="../../d4/de6/classcellsociety__team02_1_1_draw.html#a28e6cca2ff571def700126ecfc1ec8e4" target="_top" xlink:title="cellsociety_team02.Draw.draw\lShape">
<polygon fill="white" stroke="black" points="1331.5,-201 1331.5,-231 1492.5,-231 1492.5,-201 1331.5,-201"/>
<text text-anchor="start" x="1339.5" y="-219" font-family="Helvetica,sans-Serif" font-size="10.00">cellsociety_team02.Draw.draw</text>
<text text-anchor="middle" x="1412" y="-208" font-family="Helvetica,sans-Serif" font-size="10.00">Shape</text>
</a>
</g>
</g>
<!-- Node11&#45;&gt;Node12 -->
<g id="edge11" class="edge"><title>Node11&#45;&gt;Node12</title>
<path fill="none" stroke="midnightblue" d="M1198.92,-134.567C1237.47,-149.369 1312.3,-178.101 1361.96,-197.171"/>
<polygon fill="midnightblue" stroke="midnightblue" points="1360.95,-200.532 1371.54,-200.849 1363.46,-193.997 1360.95,-200.532"/>
</g>
<!-- Node17 -->
<g id="node17" class="node"><title>Node17</title>
<g id="a_node17"><a xlink:href="../../d0/d0a/class_patch_1_1_patch.html#ab49e64fb74f1147d834efd81af480fae" target="_top" xlink:title="Patch.Patch.getCurrentCell">
<polygon fill="white" stroke="black" points="1783,-91.5 1783,-110.5 1927,-110.5 1927,-91.5 1783,-91.5"/>
<text text-anchor="middle" x="1855" y="-98.5" font-family="Helvetica,sans-Serif" font-size="10.00">Patch.Patch.getCurrentCell</text>
</a>
</g>
</g>
<!-- Node11&#45;&gt;Node17 -->
<g id="edge16" class="edge"><title>Node11&#45;&gt;Node17</title>
<path fill="none" stroke="midnightblue" d="M1274.26,-126.641C1286.31,-126.789 1298.43,-126.915 1310,-127 1499.33,-128.392 1547.7,-144.812 1736,-125 1759.51,-122.526 1785.28,-117.554 1806.72,-112.774"/>
<polygon fill="midnightblue" stroke="midnightblue" points="1807.58,-116.167 1816.55,-110.529 1806.03,-109.343 1807.58,-116.167"/>
</g>
<!-- Node18 -->
<g id="node18" class="node"><title>Node18</title>
<g id="a_node18"><a xlink:href="../../d9/daf/classcellsociety__team02_1_1_grid_view.html#a5ef1c1816231c667f8f68bc466d20495" target="_top" xlink:title="cellsociety_team02.GridView.get\lLocationColor">
<polygon fill="white" stroke="black" points="1326.5,-88 1326.5,-118 1497.5,-118 1497.5,-88 1326.5,-88"/>
<text text-anchor="start" x="1334.5" y="-106" font-family="Helvetica,sans-Serif" font-size="10.00">cellsociety_team02.GridView.get</text>
<text text-anchor="middle" x="1412" y="-95" font-family="Helvetica,sans-Serif" font-size="10.00">LocationColor</text>
</a>
</g>
</g>
<!-- Node11&#45;&gt;Node18 -->
<g id="edge17" class="edge"><title>Node11&#45;&gt;Node18</title>
<path fill="none" stroke="midnightblue" d="M1274.17,-115.702C1288.09,-114.409 1302.37,-113.084 1316.19,-111.801"/>
<polygon fill="midnightblue" stroke="midnightblue" points="1316.53,-115.284 1326.17,-110.875 1315.89,-108.314 1316.53,-115.284"/>
</g>
<!-- Node21 -->
<g id="node21" class="node"><title>Node21</title>
<g id="a_node21"><a xlink:href="../../df/d71/classcellsociety__team02_1_1_grid_model.html#a8d88a111696cace3228ee162fc9199ec" target="_top" xlink:title="cellsociety_team02.GridModel.get\lPatches">
<polygon fill="white" stroke="black" points="1322.5,-39 1322.5,-69 1501.5,-69 1501.5,-39 1322.5,-39"/>
<text text-anchor="start" x="1330.5" y="-57" font-family="Helvetica,sans-Serif" font-size="10.00">cellsociety_team02.GridModel.get</text>
<text text-anchor="middle" x="1412" y="-46" font-family="Helvetica,sans-Serif" font-size="10.00">Patches</text>
</a>
</g>
</g>
<!-- Node11&#45;&gt;Node21 -->
<g id="edge20" class="edge"><title>Node11&#45;&gt;Node21</title>
<path fill="none" stroke="midnightblue" d="M1199.07,-115.493C1226.18,-105.414 1270.78,-89.406 1310,-78 1317.69,-75.7637 1325.75,-73.5806 1333.83,-71.4997"/>
<polygon fill="midnightblue" stroke="midnightblue" points="1334.82,-74.8587 1343.66,-69.0154 1333.11,-68.072 1334.82,-74.8587"/>
</g>
<!-- Node13 -->
<g id="node13" class="node"><title>Node13</title>
<g id="a_node13"><a xlink:href="../../d4/de6/classcellsociety__team02_1_1_draw.html#a194b51f8c48e33b98a53b48b0d1c105e" target="_top" xlink:title="cellsociety_team02.Draw.make\lHexagon">
<polygon fill="white" stroke="black" points="1560.5,-274 1560.5,-304 1725.5,-304 1725.5,-274 1560.5,-274"/>
<text text-anchor="start" x="1568.5" y="-292" font-family="Helvetica,sans-Serif" font-size="10.00">cellsociety_team02.Draw.make</text>
<text text-anchor="middle" x="1643" y="-281" font-family="Helvetica,sans-Serif" font-size="10.00">Hexagon</text>
</a>
</g>
</g>
<!-- Node12&#45;&gt;Node13 -->
<g id="edge12" class="edge"><title>Node12&#45;&gt;Node13</title>
<path fill="none" stroke="midnightblue" d="M1453.51,-231.051C1480.65,-240.921 1517.27,-253.833 1550,-264 1557.75,-266.408 1565.91,-268.812 1574.04,-271.124"/>
<polygon fill="midnightblue" stroke="midnightblue" points="1573.33,-274.56 1583.91,-273.892 1575.22,-267.821 1573.33,-274.56"/>
</g>
<!-- Node14 -->
<g id="node14" class="node"><title>Node14</title>
<g id="a_node14"><a xlink:href="../../d4/de6/classcellsociety__team02_1_1_draw.html#a9fba740a0433f5893be019ecf23d486c" target="_top" xlink:title="cellsociety_team02.Draw.make\lRectangle">
<polygon fill="white" stroke="black" points="1560.5,-225 1560.5,-255 1725.5,-255 1725.5,-225 1560.5,-225"/>
<text text-anchor="start" x="1568.5" y="-243" font-family="Helvetica,sans-Serif" font-size="10.00">cellsociety_team02.Draw.make</text>
<text text-anchor="middle" x="1643" y="-232" font-family="Helvetica,sans-Serif" font-size="10.00">Rectangle</text>
</a>
</g>
</g>
<!-- Node12&#45;&gt;Node14 -->
<g id="edge13" class="edge"><title>Node12&#45;&gt;Node14</title>
<path fill="none" stroke="midnightblue" d="M1492.77,-224.36C1511.26,-226.298 1531.09,-228.376 1550.06,-230.364"/>
<polygon fill="midnightblue" stroke="midnightblue" points="1549.87,-233.864 1560.19,-231.426 1550.6,-226.902 1549.87,-233.864"/>
</g>
<!-- Node15 -->
<g id="node15" class="node"><title>Node15</title>
<g id="a_node15"><a xlink:href="../../d4/de6/classcellsociety__team02_1_1_draw.html#a49fefdfc30cc8ed10caf60df63faac59" target="_top" xlink:title="cellsociety_team02.Draw.make\lTriangle">
<polygon fill="white" stroke="black" points="1560.5,-176 1560.5,-206 1725.5,-206 1725.5,-176 1560.5,-176"/>
<text text-anchor="start" x="1568.5" y="-194" font-family="Helvetica,sans-Serif" font-size="10.00">cellsociety_team02.Draw.make</text>
<text text-anchor="middle" x="1643" y="-183" font-family="Helvetica,sans-Serif" font-size="10.00">Triangle</text>
</a>
</g>
</g>
<!-- Node12&#45;&gt;Node15 -->
<g id="edge14" class="edge"><title>Node12&#45;&gt;Node15</title>
<path fill="none" stroke="midnightblue" d="M1492.77,-207.291C1511.26,-205.273 1531.09,-203.108 1550.06,-201.038"/>
<polygon fill="midnightblue" stroke="midnightblue" points="1550.62,-204.496 1560.19,-199.932 1549.86,-197.538 1550.62,-204.496"/>
</g>
<!-- Node16 -->
<g id="node16" class="node"><title>Node16</title>
<g id="a_node16"><a xlink:href="../../d4/de6/classcellsociety__team02_1_1_draw.html#abc4794b50b65fcbf55017ad2dd2fa11d" target="_top" xlink:title="cellsociety_team02.Draw.make\lTriangleRow">
<polygon fill="white" stroke="black" points="1772.5,-176 1772.5,-206 1937.5,-206 1937.5,-176 1772.5,-176"/>
<text text-anchor="start" x="1780.5" y="-194" font-family="Helvetica,sans-Serif" font-size="10.00">cellsociety_team02.Draw.make</text>
<text text-anchor="middle" x="1855" y="-183" font-family="Helvetica,sans-Serif" font-size="10.00">TriangleRow</text>
</a>
</g>
</g>
<!-- Node15&#45;&gt;Node16 -->
<g id="edge15" class="edge"><title>Node15&#45;&gt;Node16</title>
<path fill="none" stroke="midnightblue" d="M1725.79,-191C1737.76,-191 1750.15,-191 1762.3,-191"/>
<polygon fill="midnightblue" stroke="midnightblue" points="1762.43,-194.5 1772.43,-191 1762.43,-187.5 1762.43,-194.5"/>
</g>
<!-- Node19 -->
<g id="node19" class="node"><title>Node19</title>
<g id="a_node19"><a xlink:href="../../d0/d0a/class_patch_1_1_patch.html#a26da12e997d44cb58fcdf89f19b44a98" target="_top" xlink:title="Patch.Patch.getColor">
<polygon fill="white" stroke="black" points="1585,-96.5 1585,-115.5 1701,-115.5 1701,-96.5 1585,-96.5"/>
<text text-anchor="middle" x="1643" y="-103.5" font-family="Helvetica,sans-Serif" font-size="10.00">Patch.Patch.getColor</text>
</a>
</g>
</g>
<!-- Node18&#45;&gt;Node19 -->
<g id="edge18" class="edge"><title>Node18&#45;&gt;Node19</title>
<path fill="none" stroke="midnightblue" d="M1497.62,-104.109C1523.04,-104.442 1550.57,-104.802 1574.71,-105.118"/>
<polygon fill="midnightblue" stroke="midnightblue" points="1574.78,-108.62 1584.83,-105.251 1574.87,-101.62 1574.78,-108.62"/>
</g>
<!-- Node20 -->
<g id="node20" class="node"><title>Node20</title>
<g id="a_node20"><a xlink:href="../../d5/d5c/class_cell_1_1_cell.html#adfe2be1b83b37c210944b70eabb3b485" target="_top" xlink:title="Cell.Cell.getColor">
<polygon fill="white" stroke="black" points="1594,-58.5 1594,-77.5 1692,-77.5 1692,-58.5 1594,-58.5"/>
<text text-anchor="middle" x="1643" y="-65.5" font-family="Helvetica,sans-Serif" font-size="10.00">Cell.Cell.getColor</text>
</a>
</g>
</g>
<!-- Node18&#45;&gt;Node20 -->
<g id="edge19" class="edge"><title>Node18&#45;&gt;Node20</title>
<path fill="none" stroke="midnightblue" d="M1497.62,-90.0667C1526.3,-85.683 1557.67,-80.8882 1583.83,-76.8913"/>
<polygon fill="midnightblue" stroke="midnightblue" points="1584.59,-80.3154 1593.95,-75.3446 1583.53,-73.3957 1584.59,-80.3154"/>
</g>
<!-- Node23 -->
<g id="node23" class="node"><title>Node23</title>
<g id="a_node23"><a xlink:href="../../df/d71/classcellsociety__team02_1_1_grid_model.html#aaa16e9ad7b7de321cfc772caf45dcc89" target="_top" xlink:title="cellsociety_team02.GridModel.addData">
<polygon fill="white" stroke="black" points="1310,-0.5 1310,-19.5 1514,-19.5 1514,-0.5 1310,-0.5"/>
<text text-anchor="middle" x="1412" y="-7.5" font-family="Helvetica,sans-Serif" font-size="10.00">cellsociety_team02.GridModel.addData</text>
</a>
</g>
</g>
<!-- Node22&#45;&gt;Node23 -->
<g id="edge22" class="edge"><title>Node22&#45;&gt;Node23</title>
<path fill="none" stroke="midnightblue" d="M1245.95,-41.9483C1266.61,-37.6898 1289.19,-33.1 1310,-29 1322.76,-26.4856 1336.45,-23.8622 1349.5,-21.3958"/>
<polygon fill="midnightblue" stroke="midnightblue" points="1350.15,-24.8354 1359.33,-19.5448 1348.85,-17.9563 1350.15,-24.8354"/>
</g>
<!-- Node24 -->
<g id="node24" class="node"><title>Node24</title>
<g id="a_node24"><a xlink:href="../../df/d71/classcellsociety__team02_1_1_grid_model.html#abf618b18bf0b7c25d5717317c00b9269" target="_top" xlink:title="cellsociety_team02.GridModel.num\lState">
<polygon fill="white" stroke="black" points="1550.5,-2 1550.5,-32 1735.5,-32 1735.5,-2 1550.5,-2"/>
<text text-anchor="start" x="1558.5" y="-20" font-family="Helvetica,sans-Serif" font-size="10.00">cellsociety_team02.GridModel.num</text>
<text text-anchor="middle" x="1643" y="-9" font-family="Helvetica,sans-Serif" font-size="10.00">State</text>
</a>
</g>
</g>
<!-- Node23&#45;&gt;Node24 -->
<g id="edge23" class="edge"><title>Node23&#45;&gt;Node24</title>
<path fill="none" stroke="midnightblue" d="M1514.11,-13.0907C1522.81,-13.3566 1531.61,-13.6256 1540.31,-13.8916"/>
<polygon fill="midnightblue" stroke="midnightblue" points="1540.37,-17.3949 1550.47,-14.2021 1540.58,-10.3981 1540.37,-17.3949"/>
</g>
<!-- Node24&#45;&gt;Node17 -->
<g id="edge24" class="edge"><title>Node24&#45;&gt;Node17</title>
<path fill="none" stroke="midnightblue" d="M1689.66,-32.07C1704.53,-37.1937 1721.05,-43.1171 1736,-49 1766.58,-61.0325 1800.88,-76.3613 1824.59,-87.2511"/>
<polygon fill="midnightblue" stroke="midnightblue" points="1823.2,-90.4649 1833.74,-91.4791 1826.13,-84.1096 1823.2,-90.4649"/>
</g>
<!-- Node25 -->
<g id="node25" class="node"><title>Node25</title>
<g id="a_node25"><a xlink:href="../../d5/d5c/class_cell_1_1_cell.html#a04d500ffc9f19932a4ff0738f2f1dbc6" target="_top" xlink:title="Cell.Cell.getCurrentState">
<polygon fill="white" stroke="black" points="1787.5,-7.5 1787.5,-26.5 1922.5,-26.5 1922.5,-7.5 1787.5,-7.5"/>
<text text-anchor="middle" x="1855" y="-14.5" font-family="Helvetica,sans-Serif" font-size="10.00">Cell.Cell.getCurrentState</text>
</a>
</g>
</g>
<!-- Node24&#45;&gt;Node25 -->
<g id="edge25" class="edge"><title>Node24&#45;&gt;Node25</title>
<path fill="none" stroke="midnightblue" d="M1735.8,-17C1749.61,-17 1763.73,-17 1777.18,-17"/>
<polygon fill="midnightblue" stroke="midnightblue" points="1777.32,-20.5001 1787.32,-17 1777.32,-13.5001 1777.32,-20.5001"/>
</g>
</g>
</svg>
