<?xml version="1.0" encoding="UTF-8" standalone="no"?>
<!DOCTYPE svg PUBLIC "-//W3C//DTD SVG 1.1//EN"
 "http://www.w3.org/Graphics/SVG/1.1/DTD/svg11.dtd">
<!-- Generated by graphviz version 2.36.0 (20140111.2315)
 -->
<!-- Title: cellsociety_team02.GridView.makeGrid Pages: 1 -->
<svg width="1928pt" height="164pt"
 viewBox="0.00 0.00 1928.00 164.00" xmlns="http://www.w3.org/2000/svg" xmlns:xlink="http://www.w3.org/1999/xlink">
<g id="graph0" class="graph" transform="scale(1 1) rotate(0) translate(4 160)">
<title>cellsociety_team02.GridView.makeGrid</title>
<polygon fill="white" stroke="none" points="-4,4 -4,-160 1924,-160 1924,4 -4,4"/>
<!-- Node1 -->
<g id="node1" class="node"><title>Node1</title>
<polygon fill="#bfbfbf" stroke="black" points="0,-117.5 0,-136.5 202,-136.5 202,-117.5 0,-117.5"/>
<text text-anchor="middle" x="101" y="-124.5" font-family="Helvetica,sans-Serif" font-size="10.00">cellsociety_team02.GridView.makeGrid</text>
</g>
<!-- Node2 -->
<g id="node2" class="node"><title>Node2</title>
<g id="a_node2"><a xlink:href="../../d9/daf/classcellsociety__team02_1_1_grid_view.html#aa0cb15c1acd15c18573648b8df447752" target="_top" xlink:title="cellsociety_team02.GridView.load">
<polygon fill="white" stroke="black" points="1104,-136.5 1104,-155.5 1280,-155.5 1280,-136.5 1104,-136.5"/>
<text text-anchor="middle" x="1192" y="-143.5" font-family="Helvetica,sans-Serif" font-size="10.00">cellsociety_team02.GridView.load</text>
</a>
</g>
</g>
<!-- Node1&#45;&gt;Node2 -->
<g id="edge1" class="edge"><title>Node1&#45;&gt;Node2</title>
<path fill="none" stroke="midnightblue" d="M212.398,-134.47C300.504,-139.79 427.109,-146 538,-146 538,-146 538,-146 754,-146 875.389,-146 1015.74,-146 1103.94,-146"/>
<polygon fill="midnightblue" stroke="midnightblue" points="212.581,-130.975 202.386,-133.859 212.154,-137.962 212.581,-130.975"/>
</g>
<!-- Node6 -->
<g id="node6" class="node"><title>Node6</title>
<g id="a_node6"><a xlink:href="../../d9/daf/classcellsociety__team02_1_1_grid_view.html#a27a105e1810531f4958f9fc192c3cef1" target="_top" xlink:title="cellsociety_team02.GridView.step">
<polygon fill="white" stroke="black" points="238,-98.5 238,-117.5 414,-117.5 414,-98.5 238,-98.5"/>
<text text-anchor="middle" x="326" y="-105.5" font-family="Helvetica,sans-Serif" font-size="10.00">cellsociety_team02.GridView.step</text>
</a>
</g>
</g>
<!-- Node1&#45;&gt;Node6 -->
<g id="edge6" class="edge"><title>Node1&#45;&gt;Node6</title>
<path fill="none" stroke="midnightblue" d="M212.177,-117.613C220.788,-116.879 229.41,-116.144 237.837,-115.426"/>
<polygon fill="midnightblue" stroke="midnightblue" points="211.751,-114.136 202.085,-118.473 212.346,-121.111 211.751,-114.136"/>
</g>
<!-- Node3 -->
<g id="node3" class="node"><title>Node3</title>
<g id="a_node3"><a xlink:href="../../d9/daf/classcellsociety__team02_1_1_grid_view.html#ada183e314764db770009f944205490df" target="_top" xlink:title="cellsociety_team02.GridView.\lGridView">
<polygon fill="white" stroke="black" points="1764.5,-110 1764.5,-140 1919.5,-140 1919.5,-110 1764.5,-110"/>
<text text-anchor="start" x="1772.5" y="-128" font-family="Helvetica,sans-Serif" font-size="10.00">cellsociety_team02.GridView.</text>
<text text-anchor="middle" x="1842" y="-117" font-family="Helvetica,sans-Serif" font-size="10.00">GridView</text>
</a>
</g>
</g>
<!-- Node2&#45;&gt;Node3 -->
<g id="edge2" class="edge"><title>Node2&#45;&gt;Node3</title>
<path fill="none" stroke="midnightblue" d="M1290.37,-142.845C1419.94,-138.645 1646.4,-131.307 1764.47,-127.48"/>
<polygon fill="midnightblue" stroke="midnightblue" points="1289.94,-139.357 1280.06,-143.179 1290.16,-146.353 1289.94,-139.357"/>
</g>
<!-- Node4 -->
<g id="node4" class="node"><title>Node4</title>
<g id="a_node4"><a xlink:href="../../d9/daf/classcellsociety__team02_1_1_grid_view.html#afcc7b83f62c116e77ab0843bfd4156b8" target="_top" xlink:title="cellsociety_team02.GridView.make\lButtons">
<polygon fill="white" stroke="black" points="1316,-87 1316,-117 1498,-117 1498,-87 1316,-87"/>
<text text-anchor="start" x="1324" y="-105" font-family="Helvetica,sans-Serif" font-size="10.00">cellsociety_team02.GridView.make</text>
<text text-anchor="middle" x="1407" y="-94" font-family="Helvetica,sans-Serif" font-size="10.00">Buttons</text>
</a>
</g>
</g>
<!-- Node2&#45;&gt;Node4 -->
<g id="edge3" class="edge"><title>Node2&#45;&gt;Node4</title>
<path fill="none" stroke="midnightblue" d="M1249.16,-134.399C1274.85,-129.092 1305.62,-122.736 1333.07,-117.065"/>
<polygon fill="midnightblue" stroke="midnightblue" points="1248.3,-131.002 1239.22,-136.453 1249.72,-137.857 1248.3,-131.002"/>
</g>
<!-- Node5 -->
<g id="node5" class="node"><title>Node5</title>
<g id="a_node5"><a xlink:href="../../d9/daf/classcellsociety__team02_1_1_grid_view.html#a4571898657e750f62c2df84cb398e135" target="_top" xlink:title="cellsociety_team02.GridView.initialize">
<polygon fill="white" stroke="black" points="1534,-95.5 1534,-114.5 1728,-114.5 1728,-95.5 1534,-95.5"/>
<text text-anchor="middle" x="1631" y="-102.5" font-family="Helvetica,sans-Serif" font-size="10.00">cellsociety_team02.GridView.initialize</text>
</a>
</g>
</g>
<!-- Node4&#45;&gt;Node5 -->
<g id="edge4" class="edge"><title>Node4&#45;&gt;Node5</title>
<path fill="none" stroke="midnightblue" d="M1508.56,-103.359C1517.03,-103.473 1525.57,-103.589 1534,-103.703"/>
<polygon fill="midnightblue" stroke="midnightblue" points="1508.34,-99.8558 1498.3,-103.22 1508.25,-106.855 1508.34,-99.8558"/>
</g>
<!-- Node5&#45;&gt;Node3 -->
<g id="edge5" class="edge"><title>Node5&#45;&gt;Node3</title>
<path fill="none" stroke="midnightblue" d="M1738.48,-115.189C1747.2,-116.024 1755.91,-116.857 1764.35,-117.665"/>
<polygon fill="midnightblue" stroke="midnightblue" points="1738.53,-111.678 1728.24,-114.21 1737.86,-118.646 1738.53,-111.678"/>
</g>
<!-- Node6&#45;&gt;Node4 -->
<g id="edge7" class="edge"><title>Node6&#45;&gt;Node4</title>
<path fill="none" stroke="midnightblue" d="M424.119,-108C510.261,-108 639.505,-108 752,-108 752,-108 752,-108 974,-108 1092.14,-108 1228.43,-105.729 1315.82,-103.981"/>
<polygon fill="midnightblue" stroke="midnightblue" points="424.094,-104.5 414.094,-108 424.094,-111.5 424.094,-104.5"/>
</g>
<!-- Node7 -->
<g id="node7" class="node"><title>Node7</title>
<g id="a_node7"><a xlink:href="../../d9/daf/classcellsociety__team02_1_1_grid_view.html#aa1d09688b48a4a95513e15eea18ec0e6" target="_top" xlink:title="cellsociety_team02.GridView.start\lHandler">
<polygon fill="white" stroke="black" points="450,-49 450,-79 628,-79 628,-49 450,-49"/>
<text text-anchor="start" x="458" y="-67" font-family="Helvetica,sans-Serif" font-size="10.00">cellsociety_team02.GridView.start</text>
<text text-anchor="middle" x="539" y="-56" font-family="Helvetica,sans-Serif" font-size="10.00">Handler</text>
</a>
</g>
</g>
<!-- Node6&#45;&gt;Node7 -->
<g id="edge8" class="edge"><title>Node6&#45;&gt;Node7</title>
<path fill="none" stroke="midnightblue" d="M382.633,-96.3987C408.083,-91.0917 438.561,-84.7362 465.755,-79.0654"/>
<polygon fill="midnightblue" stroke="midnightblue" points="381.859,-92.9849 372.784,-98.4527 383.288,-99.8375 381.859,-92.9849"/>
</g>
<!-- Node8 -->
<g id="node8" class="node"><title>Node8</title>
<g id="a_node8"><a xlink:href="../../d9/daf/classcellsociety__team02_1_1_grid_view.html#a27ed5fc9bbf44efab6d23cb07096c36a" target="_top" xlink:title="cellsociety_team02.GridView.start\lAnimation">
<polygon fill="white" stroke="black" points="664,-49 664,-79 842,-79 842,-49 664,-49"/>
<text text-anchor="start" x="672" y="-67" font-family="Helvetica,sans-Serif" font-size="10.00">cellsociety_team02.GridView.start</text>
<text text-anchor="middle" x="753" y="-56" font-family="Helvetica,sans-Serif" font-size="10.00">Animation</text>
</a>
</g>
</g>
<!-- Node7&#45;&gt;Node8 -->
<g id="edge9" class="edge"><title>Node7&#45;&gt;Node8</title>
<path fill="none" stroke="midnightblue" d="M638.107,-64C646.7,-64 655.363,-64 663.868,-64"/>
<polygon fill="midnightblue" stroke="midnightblue" points="638.065,-60.5001 628.065,-64 638.065,-67.5001 638.065,-60.5001"/>
</g>
<!-- Node9 -->
<g id="node9" class="node"><title>Node9</title>
<g id="a_node9"><a xlink:href="../../d9/daf/classcellsociety__team02_1_1_grid_view.html#a7b94250b9b4e419eb3b97394e3b86052" target="_top" xlink:title="cellsociety_team02.GridView.play\lPause">
<polygon fill="white" stroke="black" points="885.5,-49 885.5,-79 1060.5,-79 1060.5,-49 885.5,-49"/>
<text text-anchor="start" x="893.5" y="-67" font-family="Helvetica,sans-Serif" font-size="10.00">cellsociety_team02.GridView.play</text>
<text text-anchor="middle" x="973" y="-56" font-family="Helvetica,sans-Serif" font-size="10.00">Pause</text>
</a>
</g>
</g>
<!-- Node8&#45;&gt;Node9 -->
<g id="edge10" class="edge"><title>Node8&#45;&gt;Node9</title>
<path fill="none" stroke="midnightblue" d="M852.163,-64C863.247,-64 874.481,-64 885.401,-64"/>
<polygon fill="midnightblue" stroke="midnightblue" points="852.041,-60.5001 842.041,-64 852.041,-67.5001 852.041,-60.5001"/>
</g>
<!-- Node10 -->
<g id="node10" class="node"><title>Node10</title>
<g id="a_node10"><a xlink:href="../../d9/daf/classcellsociety__team02_1_1_grid_view.html#a21d8f68b9be54d2f23f17af421c78b12" target="_top" xlink:title="cellsociety_team02.GridView.update\lSpeed">
<polygon fill="white" stroke="black" points="878.5,-0 878.5,-30 1067.5,-30 1067.5,-0 878.5,-0"/>
<text text-anchor="start" x="886.5" y="-18" font-family="Helvetica,sans-Serif" font-size="10.00">cellsociety_team02.GridView.update</text>
<text text-anchor="middle" x="973" y="-7" font-family="Helvetica,sans-Serif" font-size="10.00">Speed</text>
</a>
</g>
</g>
<!-- Node8&#45;&gt;Node10 -->
<g id="edge12" class="edge"><title>Node8&#45;&gt;Node10</title>
<path fill="none" stroke="midnightblue" d="M830.781,-46.7419C855.072,-41.282 881.708,-35.295 905.238,-30.0062"/>
<polygon fill="midnightblue" stroke="midnightblue" points="829.878,-43.3575 820.889,-48.9654 831.413,-50.1871 829.878,-43.3575"/>
</g>
<!-- Node9&#45;&gt;Node4 -->
<g id="edge11" class="edge"><title>Node9&#45;&gt;Node4</title>
<path fill="none" stroke="midnightblue" d="M1070.81,-72.5153C1144.13,-78.965 1244.13,-87.7612 1315.78,-94.0642"/>
<polygon fill="midnightblue" stroke="midnightblue" points="1070.91,-69.0111 1060.64,-71.6213 1070.3,-75.9842 1070.91,-69.0111"/>
</g>
<!-- Node11 -->
<g id="node11" class="node"><title>Node11</title>
<g id="a_node11"><a xlink:href="../../d9/daf/classcellsociety__team02_1_1_grid_view.html#a08ac9f0ccad1d9db92c9d92a127d77bc" target="_top" xlink:title="cellsociety_team02.GridView.set\lUpSpeedSlider">
<polygon fill="white" stroke="black" points="1107,-3 1107,-33 1277,-33 1277,-3 1107,-3"/>
<text text-anchor="start" x="1115" y="-21" font-family="Helvetica,sans-Serif" font-size="10.00">cellsociety_team02.GridView.set</text>
<text text-anchor="middle" x="1192" y="-10" font-family="Helvetica,sans-Serif" font-size="10.00">UpSpeedSlider</text>
</a>
</g>
</g>
<!-- Node10&#45;&gt;Node11 -->
<g id="edge13" class="edge"><title>Node10&#45;&gt;Node11</title>
<path fill="none" stroke="midnightblue" d="M1077.76,-16.4345C1087.54,-16.5697 1097.37,-16.7056 1106.94,-16.8378"/>
<polygon fill="midnightblue" stroke="midnightblue" points="1077.65,-12.9327 1067.6,-16.294 1077.55,-19.932 1077.65,-12.9327"/>
</g>
<!-- Node11&#45;&gt;Node4 -->
<g id="edge14" class="edge"><title>Node11&#45;&gt;Node4</title>
<path fill="none" stroke="midnightblue" d="M1240.5,-36.7327C1278.9,-51.8761 1332.25,-72.9157 1367.89,-86.9711"/>
<polygon fill="midnightblue" stroke="midnightblue" points="1241.67,-33.4303 1231.08,-33.0175 1239.1,-39.9422 1241.67,-33.4303"/>
</g>
</g>
</svg>
