<?xml version="1.0" encoding="UTF-8" standalone="no"?>
<!DOCTYPE svg PUBLIC "-//W3C//DTD SVG 1.1//EN"
 "http://www.w3.org/Graphics/SVG/1.1/DTD/svg11.dtd">
<!-- Generated by graphviz version 2.36.0 (20140111.2315)
 -->
<!-- Title: cellsociety_team02.GridView.startAnimation Pages: 1 -->
<!--zoomable 399 -->
<svg id="main" version="1.1" xmlns="http://www.w3.org/2000/svg" xmlns:xlink="http://www.w3.org/1999/xlink" xml:space="preserve" onload="init(evt)">
<style type="text/css"><![CDATA[
.edge:hover path { stroke: red; }
.edge:hover polygon { stroke: red; fill: red; }
]]></style>
<script type="text/javascript"><![CDATA[
var edges = document.getElementsByTagName('g');
if (edges && edges.length) {
  for (var i=0;i<edges.length;i++) {
    if (edges[i].id.substr(0,4)=='edge') {
      edges[i].setAttribute('class','edge');
    }
  }
}
]]></script>
        <defs>
                <circle id="rim" cx="0" cy="0" r="7"/>
                <circle id="rim2" cx="0" cy="0" r="3.5"/>
                <g id="zoomPlus">
                        <use xlink:href="#rim" fill="#404040">
                                <set attributeName="fill" to="#808080" begin="zoomplus.mouseover" end="zoomplus.mouseout"/>
                        </use>
                        <path d="M-4,0h8M0,-4v8" fill="none" stroke="white" stroke-width="1.5" pointer-events="none"/>
                </g>
                <g id="zoomMin">
                        <use xlink:href="#rim" fill="#404040">
                                <set attributeName="fill" to="#808080" begin="zoomminus.mouseover" end="zoomminus.mouseout"/>
                        </use>
                        <path d="M-4,0h8" fill="none" stroke="white" stroke-width="1.5" pointer-events="none"/>
                </g>
                <g id="dirArrow">
                        <path fill="none" stroke="white" stroke-width="1.5" d="M0,-3.0v7 M-2.5,-0.5L0,-3.0L2.5,-0.5"/>
                </g>
               <g id="resetDef">
                       <use xlink:href="#rim2" fill="#404040">
                               <set attributeName="fill" to="#808080" begin="reset.mouseover" end="reset.mouseout"/>
                       </use>
               </g>
        </defs>

<script type="text/javascript">
var viewWidth = 1514;
var viewHeight = 399;
var sectionId = 'dynsection-20';
</script>
<script xlink:href="../../svgpan.js"/>
<svg id="graph" class="graph">
<g id="viewport">
<title>cellsociety_team02.GridView.startAnimation</title>
<polygon fill="white" stroke="none" points="-4,4 -4,-395 1510,-395 1510,4 -4,4"/>
<!-- Node1 -->
<g id="node1" class="node"><title>Node1</title>
<polygon fill="#bfbfbf" stroke="black" points="0,-110 0,-140 178,-140 178,-110 0,-110"/>
<text text-anchor="start" x="8" y="-128" font-family="Helvetica,sans-Serif" font-size="10.00">cellsociety_team02.GridView.start</text>
<text text-anchor="middle" x="89" y="-117" font-family="Helvetica,sans-Serif" font-size="10.00">Animation</text>
</g>
<!-- Node2 -->
<g id="node2" class="node"><title>Node2</title>
<g id="a_node2"><a xlink:href="../../d9/daf/classcellsociety__team02_1_1_grid_view.html#aa1d09688b48a4a95513e15eea18ec0e6" target="_top" xlink:title="cellsociety_team02.GridView.start\lHandler">
<polygon fill="white" stroke="black" points="214,-110 214,-140 392,-140 392,-110 214,-110"/>
<text text-anchor="start" x="222" y="-128" font-family="Helvetica,sans-Serif" font-size="10.00">cellsociety_team02.GridView.start</text>
<text text-anchor="middle" x="303" y="-117" font-family="Helvetica,sans-Serif" font-size="10.00">Handler</text>
</a>
</g>
</g>
<!-- Node1&#45;&gt;Node2 -->
<g id="edge1" class="edge"><title>Node1&#45;&gt;Node2</title>
<path fill="none" stroke="midnightblue" d="M178.065,-125C186.569,-125 195.232,-125 203.825,-125"/>
<polygon fill="midnightblue" stroke="midnightblue" points="203.868,-128.5 213.868,-125 203.868,-121.5 203.868,-128.5"/>
</g>
<!-- Node3 -->
<g id="node3" class="node"><title>Node3</title>
<g id="a_node3"><a xlink:href="../../d9/daf/classcellsociety__team02_1_1_grid_view.html#a27a105e1810531f4958f9fc192c3cef1" target="_top" xlink:title="cellsociety_team02.GridView.step">
<polygon fill="white" stroke="black" points="428,-115.5 428,-134.5 604,-134.5 604,-115.5 428,-115.5"/>
<text text-anchor="middle" x="516" y="-122.5" font-family="Helvetica,sans-Serif" font-size="10.00">cellsociety_team02.GridView.step</text>
</a>
</g>
</g>
<!-- Node2&#45;&gt;Node3 -->
<g id="edge2" class="edge"><title>Node2&#45;&gt;Node3</title>
<path fill="none" stroke="midnightblue" d="M392.26,-125C400.61,-125 409.108,-125 417.537,-125"/>
<polygon fill="midnightblue" stroke="midnightblue" points="417.77,-128.5 427.769,-125 417.769,-121.5 417.77,-128.5"/>
</g>
<!-- Node4 -->
<g id="node4" class="node"><title>Node4</title>
<g id="a_node4"><a xlink:href="../../df/d71/classcellsociety__team02_1_1_grid_model.html#a866f20a5152d615d686b4412ed6d4e46" target="_top" xlink:title="cellsociety_team02.GridModel.update">
<polygon fill="white" stroke="black" points="642.5,-317.5 642.5,-336.5 839.5,-336.5 839.5,-317.5 642.5,-317.5"/>
<text text-anchor="middle" x="741" y="-324.5" font-family="Helvetica,sans-Serif" font-size="10.00">cellsociety_team02.GridModel.update</text>
</a>
</g>
</g>
<!-- Node3&#45;&gt;Node4 -->
<g id="edge3" class="edge"><title>Node3&#45;&gt;Node4</title>
<path fill="none" stroke="midnightblue" d="M527.756,-134.743C563.302,-166.942 677.272,-270.179 721.867,-310.575"/>
<polygon fill="midnightblue" stroke="midnightblue" points="719.591,-313.235 729.352,-317.355 724.29,-308.047 719.591,-313.235"/>
</g>
<!-- Node9 -->
<g id="node9" class="node"><title>Node9</title>
<g id="a_node9"><a xlink:href="../../d9/daf/classcellsociety__team02_1_1_grid_view.html#ad4fe99d3b1bf9b7ed1cd8d65145f5d90" target="_top" xlink:title="cellsociety_team02.GridView.makeGrid">
<polygon fill="white" stroke="black" points="640,-115.5 640,-134.5 842,-134.5 842,-115.5 640,-115.5"/>
<text text-anchor="middle" x="741" y="-122.5" font-family="Helvetica,sans-Serif" font-size="10.00">cellsociety_team02.GridView.makeGrid</text>
</a>
</g>
</g>
<!-- Node3&#45;&gt;Node9 -->
<g id="edge8" class="edge"><title>Node3&#45;&gt;Node9</title>
<path fill="none" stroke="midnightblue" d="M604.176,-125C612.605,-125 621.229,-125 629.842,-125"/>
<polygon fill="midnightblue" stroke="midnightblue" points="629.936,-128.5 639.936,-125 629.936,-121.5 629.936,-128.5"/>
</g>
<!-- Node20 -->
<g id="node20" class="node"><title>Node20</title>
<g id="a_node20"><a xlink:href="../../d9/daf/classcellsociety__team02_1_1_grid_view.html#acf332ae230af02cadc77649e0b6fc0ff" target="_top" xlink:title="cellsociety_team02.GridView.make\lGraph">
<polygon fill="white" stroke="black" points="650,-42 650,-72 832,-72 832,-42 650,-42"/>
<text text-anchor="start" x="658" y="-60" font-family="Helvetica,sans-Serif" font-size="10.00">cellsociety_team02.GridView.make</text>
<text text-anchor="middle" x="741" y="-49" font-family="Helvetica,sans-Serif" font-size="10.00">Graph</text>
</a>
</g>
</g>
<!-- Node3&#45;&gt;Node20 -->
<g id="edge19" class="edge"><title>Node3&#45;&gt;Node20</title>
<path fill="none" stroke="midnightblue" d="M548.477,-115.401C582.783,-104.941 638.45,-87.9659 680.95,-75.0062"/>
<polygon fill="midnightblue" stroke="midnightblue" points="682.082,-78.3204 690.626,-72.0558 680.04,-71.6248 682.082,-78.3204"/>
</g>
<!-- Node5 -->
<g id="node5" class="node"><title>Node5</title>
<g id="a_node5"><a xlink:href="../../df/d71/classcellsociety__team02_1_1_grid_model.html#ab59dfb960d9ac9cc5b875ae9cda15f92" target="_top" xlink:title="cellsociety_team02.GridModel.set\lCurrentToFuture">
<polygon fill="white" stroke="black" points="891,-361 891,-391 1069,-391 1069,-361 891,-361"/>
<text text-anchor="start" x="899" y="-379" font-family="Helvetica,sans-Serif" font-size="10.00">cellsociety_team02.GridModel.set</text>
<text text-anchor="middle" x="980" y="-368" font-family="Helvetica,sans-Serif" font-size="10.00">CurrentToFuture</text>
</a>
</g>
</g>
<!-- Node4&#45;&gt;Node5 -->
<g id="edge4" class="edge"><title>Node4&#45;&gt;Node5</title>
<path fill="none" stroke="midnightblue" d="M787.977,-336.506C818.615,-342.84 859.762,-351.347 896.02,-358.844"/>
<polygon fill="midnightblue" stroke="midnightblue" points="895.603,-362.331 906.104,-360.929 897.02,-355.476 895.603,-362.331"/>
</g>
<!-- Node7 -->
<g id="node7" class="node"><title>Node7</title>
<g id="a_node7"><a xlink:href="../../df/d71/classcellsociety__team02_1_1_grid_model.html#aefe267680baa28646953d3fc833c9430" target="_top" xlink:title="cellsociety_team02.GridModel.update\lPatchesAndCells">
<polygon fill="white" stroke="black" points="881.5,-312 881.5,-342 1078.5,-342 1078.5,-312 881.5,-312"/>
<text text-anchor="start" x="889.5" y="-330" font-family="Helvetica,sans-Serif" font-size="10.00">cellsociety_team02.GridModel.update</text>
<text text-anchor="middle" x="980" y="-319" font-family="Helvetica,sans-Serif" font-size="10.00">PatchesAndCells</text>
</a>
</g>
</g>
<!-- Node4&#45;&gt;Node7 -->
<g id="edge6" class="edge"><title>Node4&#45;&gt;Node7</title>
<path fill="none" stroke="midnightblue" d="M839.765,-327C850.201,-327 860.858,-327 871.399,-327"/>
<polygon fill="midnightblue" stroke="midnightblue" points="871.459,-330.5 881.459,-327 871.459,-323.5 871.459,-330.5"/>
</g>
<!-- Node6 -->
<g id="node6" class="node"><title>Node6</title>
<g id="a_node6"><a xlink:href="../../d0/d0a/class_patch_1_1_patch.html#a5e6d56a2d8b59b7cffec33cc1b76019c" target="_top" xlink:title="Patch.Patch.currentToFuture">
<polygon fill="white" stroke="black" points="1136.5,-366.5 1136.5,-385.5 1285.5,-385.5 1285.5,-366.5 1136.5,-366.5"/>
<text text-anchor="middle" x="1211" y="-373.5" font-family="Helvetica,sans-Serif" font-size="10.00">Patch.Patch.currentToFuture</text>
</a>
</g>
</g>
<!-- Node5&#45;&gt;Node6 -->
<g id="edge5" class="edge"><title>Node5&#45;&gt;Node6</title>
<path fill="none" stroke="midnightblue" d="M1069.21,-376C1087.92,-376 1107.62,-376 1126.16,-376"/>
<polygon fill="midnightblue" stroke="midnightblue" points="1126.33,-379.5 1136.33,-376 1126.33,-372.5 1126.33,-379.5"/>
</g>
<!-- Node8 -->
<g id="node8" class="node"><title>Node8</title>
<g id="a_node8"><a xlink:href="../../d0/d0a/class_patch_1_1_patch.html#a6b354b20c05532df4f8fea4878cf0027" target="_top" xlink:title="Patch.Patch.updateState">
<polygon fill="white" stroke="black" points="1143.5,-323.5 1143.5,-342.5 1278.5,-342.5 1278.5,-323.5 1143.5,-323.5"/>
<text text-anchor="middle" x="1211" y="-330.5" font-family="Helvetica,sans-Serif" font-size="10.00">Patch.Patch.updateState</text>
</a>
</g>
</g>
<!-- Node7&#45;&gt;Node8 -->
<g id="edge7" class="edge"><title>Node7&#45;&gt;Node8</title>
<path fill="none" stroke="midnightblue" d="M1078.78,-329.562C1096.97,-330.039 1115.74,-330.53 1133.19,-330.987"/>
<polygon fill="midnightblue" stroke="midnightblue" points="1133.21,-334.489 1143.3,-331.252 1133.39,-327.491 1133.21,-334.489"/>
</g>
<!-- Node10 -->
<g id="node10" class="node"><title>Node10</title>
<g id="a_node10"><a xlink:href="../../d4/de6/classcellsociety__team02_1_1_draw.html#a28e6cca2ff571def700126ecfc1ec8e4" target="_top" xlink:title="cellsociety_team02.Draw.draw\lShape">
<polygon fill="white" stroke="black" points="899.5,-201 899.5,-231 1060.5,-231 1060.5,-201 899.5,-201"/>
<text text-anchor="start" x="907.5" y="-219" font-family="Helvetica,sans-Serif" font-size="10.00">cellsociety_team02.Draw.draw</text>
<text text-anchor="middle" x="980" y="-208" font-family="Helvetica,sans-Serif" font-size="10.00">Shape</text>
</a>
</g>
</g>
<!-- Node9&#45;&gt;Node10 -->
<g id="edge9" class="edge"><title>Node9&#45;&gt;Node10</title>
<path fill="none" stroke="midnightblue" d="M766.915,-134.567C805.466,-149.369 880.296,-178.101 929.962,-197.171"/>
<polygon fill="midnightblue" stroke="midnightblue" points="928.952,-200.532 939.542,-200.849 931.461,-193.997 928.952,-200.532"/>
</g>
<!-- Node15 -->
<g id="node15" class="node"><title>Node15</title>
<g id="a_node15"><a xlink:href="../../d0/d0a/class_patch_1_1_patch.html#ab49e64fb74f1147d834efd81af480fae" target="_top" xlink:title="Patch.Patch.getCurrentCell">
<polygon fill="white" stroke="black" points="1351,-91.5 1351,-110.5 1495,-110.5 1495,-91.5 1351,-91.5"/>
<text text-anchor="middle" x="1423" y="-98.5" font-family="Helvetica,sans-Serif" font-size="10.00">Patch.Patch.getCurrentCell</text>
</a>
</g>
</g>
<!-- Node9&#45;&gt;Node15 -->
<g id="edge14" class="edge"><title>Node9&#45;&gt;Node15</title>
<path fill="none" stroke="midnightblue" d="M842.265,-126.641C854.306,-126.789 866.43,-126.915 878,-127 1067.33,-128.392 1115.7,-144.812 1304,-125 1327.51,-122.526 1353.28,-117.554 1374.72,-112.774"/>
<polygon fill="midnightblue" stroke="midnightblue" points="1375.58,-116.167 1384.55,-110.529 1374.03,-109.343 1375.58,-116.167"/>
</g>
<!-- Node16 -->
<g id="node16" class="node"><title>Node16</title>
<g id="a_node16"><a xlink:href="../../d9/daf/classcellsociety__team02_1_1_grid_view.html#a5ef1c1816231c667f8f68bc466d20495" target="_top" xlink:title="cellsociety_team02.GridView.get\lLocationColor">
<polygon fill="white" stroke="black" points="894.5,-88 894.5,-118 1065.5,-118 1065.5,-88 894.5,-88"/>
<text text-anchor="start" x="902.5" y="-106" font-family="Helvetica,sans-Serif" font-size="10.00">cellsociety_team02.GridView.get</text>
<text text-anchor="middle" x="980" y="-95" font-family="Helvetica,sans-Serif" font-size="10.00">LocationColor</text>
</a>
</g>
</g>
<!-- Node9&#45;&gt;Node16 -->
<g id="edge15" class="edge"><title>Node9&#45;&gt;Node16</title>
<path fill="none" stroke="midnightblue" d="M842.166,-115.702C856.093,-114.409 870.367,-113.084 884.192,-111.801"/>
<polygon fill="midnightblue" stroke="midnightblue" points="884.534,-115.284 894.168,-110.875 883.887,-108.314 884.534,-115.284"/>
</g>
<!-- Node19 -->
<g id="node19" class="node"><title>Node19</title>
<g id="a_node19"><a xlink:href="../../df/d71/classcellsociety__team02_1_1_grid_model.html#a8d88a111696cace3228ee162fc9199ec" target="_top" xlink:title="cellsociety_team02.GridModel.get\lPatches">
<polygon fill="white" stroke="black" points="890.5,-39 890.5,-69 1069.5,-69 1069.5,-39 890.5,-39"/>
<text text-anchor="start" x="898.5" y="-57" font-family="Helvetica,sans-Serif" font-size="10.00">cellsociety_team02.GridModel.get</text>
<text text-anchor="middle" x="980" y="-46" font-family="Helvetica,sans-Serif" font-size="10.00">Patches</text>
</a>
</g>
</g>
<!-- Node9&#45;&gt;Node19 -->
<g id="edge18" class="edge"><title>Node9&#45;&gt;Node19</title>
<path fill="none" stroke="midnightblue" d="M767.075,-115.493C794.183,-105.414 838.78,-89.406 878,-78 885.69,-75.7637 893.753,-73.5806 901.828,-71.4997"/>
<polygon fill="midnightblue" stroke="midnightblue" points="902.822,-74.8587 911.659,-69.0154 901.107,-68.072 902.822,-74.8587"/>
</g>
<!-- Node11 -->
<g id="node11" class="node"><title>Node11</title>
<g id="a_node11"><a xlink:href="../../d4/de6/classcellsociety__team02_1_1_draw.html#a194b51f8c48e33b98a53b48b0d1c105e" target="_top" xlink:title="cellsociety_team02.Draw.make\lHexagon">
<polygon fill="white" stroke="black" points="1128.5,-274 1128.5,-304 1293.5,-304 1293.5,-274 1128.5,-274"/>
<text text-anchor="start" x="1136.5" y="-292" font-family="Helvetica,sans-Serif" font-size="10.00">cellsociety_team02.Draw.make</text>
<text text-anchor="middle" x="1211" y="-281" font-family="Helvetica,sans-Serif" font-size="10.00">Hexagon</text>
</a>
</g>
</g>
<!-- Node10&#45;&gt;Node11 -->
<g id="edge10" class="edge"><title>Node10&#45;&gt;Node11</title>
<path fill="none" stroke="midnightblue" d="M1021.51,-231.051C1048.65,-240.921 1085.27,-253.833 1118,-264 1125.75,-266.408 1133.91,-268.812 1142.04,-271.124"/>
<polygon fill="midnightblue" stroke="midnightblue" points="1141.33,-274.56 1151.91,-273.892 1143.22,-267.821 1141.33,-274.56"/>
</g>
<!-- Node12 -->
<g id="node12" class="node"><title>Node12</title>
<g id="a_node12"><a xlink:href="../../d4/de6/classcellsociety__team02_1_1_draw.html#a9fba740a0433f5893be019ecf23d486c" target="_top" xlink:title="cellsociety_team02.Draw.make\lRectangle">
<polygon fill="white" stroke="black" points="1128.5,-225 1128.5,-255 1293.5,-255 1293.5,-225 1128.5,-225"/>
<text text-anchor="start" x="1136.5" y="-243" font-family="Helvetica,sans-Serif" font-size="10.00">cellsociety_team02.Draw.make</text>
<text text-anchor="middle" x="1211" y="-232" font-family="Helvetica,sans-Serif" font-size="10.00">Rectangle</text>
</a>
</g>
</g>
<!-- Node10&#45;&gt;Node12 -->
<g id="edge11" class="edge"><title>Node10&#45;&gt;Node12</title>
<path fill="none" stroke="midnightblue" d="M1060.77,-224.36C1079.26,-226.298 1099.09,-228.376 1118.06,-230.364"/>
<polygon fill="midnightblue" stroke="midnightblue" points="1117.87,-233.864 1128.19,-231.426 1118.6,-226.902 1117.87,-233.864"/>
</g>
<!-- Node13 -->
<g id="node13" class="node"><title>Node13</title>
<g id="a_node13"><a xlink:href="../../d4/de6/classcellsociety__team02_1_1_draw.html#a49fefdfc30cc8ed10caf60df63faac59" target="_top" xlink:title="cellsociety_team02.Draw.make\lTriangle">
<polygon fill="white" stroke="black" points="1128.5,-176 1128.5,-206 1293.5,-206 1293.5,-176 1128.5,-176"/>
<text text-anchor="start" x="1136.5" y="-194" font-family="Helvetica,sans-Serif" font-size="10.00">cellsociety_team02.Draw.make</text>
<text text-anchor="middle" x="1211" y="-183" font-family="Helvetica,sans-Serif" font-size="10.00">Triangle</text>
</a>
</g>
</g>
<!-- Node10&#45;&gt;Node13 -->
<g id="edge12" class="edge"><title>Node10&#45;&gt;Node13</title>
<path fill="none" stroke="midnightblue" d="M1060.77,-207.291C1079.26,-205.273 1099.09,-203.108 1118.06,-201.038"/>
<polygon fill="midnightblue" stroke="midnightblue" points="1118.62,-204.496 1128.19,-199.932 1117.86,-197.538 1118.62,-204.496"/>
</g>
<!-- Node14 -->
<g id="node14" class="node"><title>Node14</title>
<g id="a_node14"><a xlink:href="../../d4/de6/classcellsociety__team02_1_1_draw.html#abc4794b50b65fcbf55017ad2dd2fa11d" target="_top" xlink:title="cellsociety_team02.Draw.make\lTriangleRow">
<polygon fill="white" stroke="black" points="1340.5,-176 1340.5,-206 1505.5,-206 1505.5,-176 1340.5,-176"/>
<text text-anchor="start" x="1348.5" y="-194" font-family="Helvetica,sans-Serif" font-size="10.00">cellsociety_team02.Draw.make</text>
<text text-anchor="middle" x="1423" y="-183" font-family="Helvetica,sans-Serif" font-size="10.00">TriangleRow</text>
</a>
</g>
</g>
<!-- Node13&#45;&gt;Node14 -->
<g id="edge13" class="edge"><title>Node13&#45;&gt;Node14</title>
<path fill="none" stroke="midnightblue" d="M1293.79,-191C1305.76,-191 1318.15,-191 1330.3,-191"/>
<polygon fill="midnightblue" stroke="midnightblue" points="1330.43,-194.5 1340.43,-191 1330.43,-187.5 1330.43,-194.5"/>
</g>
<!-- Node17 -->
<g id="node17" class="node"><title>Node17</title>
<g id="a_node17"><a xlink:href="../../d0/d0a/class_patch_1_1_patch.html#a26da12e997d44cb58fcdf89f19b44a98" target="_top" xlink:title="Patch.Patch.getColor">
<polygon fill="white" stroke="black" points="1153,-96.5 1153,-115.5 1269,-115.5 1269,-96.5 1153,-96.5"/>
<text text-anchor="middle" x="1211" y="-103.5" font-family="Helvetica,sans-Serif" font-size="10.00">Patch.Patch.getColor</text>
</a>
</g>
</g>
<!-- Node16&#45;&gt;Node17 -->
<g id="edge16" class="edge"><title>Node16&#45;&gt;Node17</title>
<path fill="none" stroke="midnightblue" d="M1065.62,-104.109C1091.04,-104.442 1118.57,-104.802 1142.71,-105.118"/>
<polygon fill="midnightblue" stroke="midnightblue" points="1142.78,-108.62 1152.83,-105.251 1142.87,-101.62 1142.78,-108.62"/>
</g>
<!-- Node18 -->
<g id="node18" class="node"><title>Node18</title>
<g id="a_node18"><a xlink:href="../../d5/d5c/class_cell_1_1_cell.html#adfe2be1b83b37c210944b70eabb3b485" target="_top" xlink:title="Cell.Cell.getColor">
<polygon fill="white" stroke="black" points="1162,-58.5 1162,-77.5 1260,-77.5 1260,-58.5 1162,-58.5"/>
<text text-anchor="middle" x="1211" y="-65.5" font-family="Helvetica,sans-Serif" font-size="10.00">Cell.Cell.getColor</text>
</a>
</g>
</g>
<!-- Node16&#45;&gt;Node18 -->
<g id="edge17" class="edge"><title>Node16&#45;&gt;Node18</title>
<path fill="none" stroke="midnightblue" d="M1065.62,-90.0667C1094.3,-85.683 1125.67,-80.8882 1151.83,-76.8913"/>
<polygon fill="midnightblue" stroke="midnightblue" points="1152.59,-80.3154 1161.95,-75.3446 1151.53,-73.3957 1152.59,-80.3154"/>
</g>
<!-- Node21 -->
<g id="node21" class="node"><title>Node21</title>
<g id="a_node21"><a xlink:href="../../df/d71/classcellsociety__team02_1_1_grid_model.html#aaa16e9ad7b7de321cfc772caf45dcc89" target="_top" xlink:title="cellsociety_team02.GridModel.addData">
<polygon fill="white" stroke="black" points="878,-0.5 878,-19.5 1082,-19.5 1082,-0.5 878,-0.5"/>
<text text-anchor="middle" x="980" y="-7.5" font-family="Helvetica,sans-Serif" font-size="10.00">cellsociety_team02.GridModel.addData</text>
</a>
</g>
</g>
<!-- Node20&#45;&gt;Node21 -->
<g id="edge20" class="edge"><title>Node20&#45;&gt;Node21</title>
<path fill="none" stroke="midnightblue" d="M813.946,-41.9483C834.612,-37.6898 857.186,-33.1 878,-29 890.764,-26.4856 904.451,-23.8622 917.499,-21.3958"/>
<polygon fill="midnightblue" stroke="midnightblue" points="918.147,-24.8354 927.327,-19.5448 916.851,-17.9563 918.147,-24.8354"/>
</g>
<!-- Node22 -->
<g id="node22" class="node"><title>Node22</title>
<g id="a_node22"><a xlink:href="../../df/d71/classcellsociety__team02_1_1_grid_model.html#abf618b18bf0b7c25d5717317c00b9269" target="_top" xlink:title="cellsociety_team02.GridModel.num\lState">
<polygon fill="white" stroke="black" points="1118.5,-2 1118.5,-32 1303.5,-32 1303.5,-2 1118.5,-2"/>
<text text-anchor="start" x="1126.5" y="-20" font-family="Helvetica,sans-Serif" font-size="10.00">cellsociety_team02.GridModel.num</text>
<text text-anchor="middle" x="1211" y="-9" font-family="Helvetica,sans-Serif" font-size="10.00">State</text>
</a>
</g>
</g>
<!-- Node21&#45;&gt;Node22 -->
<g id="edge21" class="edge"><title>Node21&#45;&gt;Node22</title>
<path fill="none" stroke="midnightblue" d="M1082.11,-13.0907C1090.81,-13.3566 1099.61,-13.6256 1108.31,-13.8916"/>
<polygon fill="midnightblue" stroke="midnightblue" points="1108.37,-17.3949 1118.47,-14.2021 1108.58,-10.3981 1108.37,-17.3949"/>
</g>
<!-- Node22&#45;&gt;Node15 -->
<g id="edge22" class="edge"><title>Node22&#45;&gt;Node15</title>
<path fill="none" stroke="midnightblue" d="M1257.66,-32.07C1272.53,-37.1937 1289.05,-43.1171 1304,-49 1334.58,-61.0325 1368.88,-76.3613 1392.59,-87.2511"/>
<polygon fill="midnightblue" stroke="midnightblue" points="1391.2,-90.4649 1401.74,-91.4791 1394.13,-84.1096 1391.2,-90.4649"/>
</g>
<!-- Node23 -->
<g id="node23" class="node"><title>Node23</title>
<g id="a_node23"><a xlink:href="../../d5/d5c/class_cell_1_1_cell.html#a04d500ffc9f19932a4ff0738f2f1dbc6" target="_top" xlink:title="Cell.Cell.getCurrentState">
<polygon fill="white" stroke="black" points="1355.5,-7.5 1355.5,-26.5 1490.5,-26.5 1490.5,-7.5 1355.5,-7.5"/>
<text text-anchor="middle" x="1423" y="-14.5" font-family="Helvetica,sans-Serif" font-size="10.00">Cell.Cell.getCurrentState</text>
</a>
</g>
</g>
<!-- Node22&#45;&gt;Node23 -->
<g id="edge23" class="edge"><title>Node22&#45;&gt;Node23</title>
<path fill="none" stroke="midnightblue" d="M1303.8,-17C1317.61,-17 1331.73,-17 1345.18,-17"/>
<polygon fill="midnightblue" stroke="midnightblue" points="1345.32,-20.5001 1355.32,-17 1345.32,-13.5001 1345.32,-20.5001"/>
</g>
</g>
</svg>
        <g id="navigator" transform="translate(0 0)" fill="#404254">
                <rect fill="#f2f5e9" fill-opacity="0.5" stroke="#606060" stroke-width=".5" x="0" y="0" width="60" height="60"/>
                <use id="zoomplus" xlink:href="#zoomPlus" x="17" y="9" onmousedown="handleZoom(evt,'in')"/>
                <use id="zoomminus" xlink:href="#zoomMin" x="42" y="9" onmousedown="handleZoom(evt,'out')"/>
                <use id="reset" xlink:href="#resetDef" x="30" y="36" onmousedown="handleReset()"/>
                <g id="arrowUp" xlink:href="#dirArrow" transform="translate(30 24)" onmousedown="handlePan(0,-1)">
                  <use xlink:href="#rim" fill="#404040">
                        <set attributeName="fill" to="#808080" begin="arrowUp.mouseover" end="arrowUp.mouseout"/>
                  </use>
                  <path fill="none" stroke="white" stroke-width="1.5" d="M0,-3.0v7 M-2.5,-0.5L0,-3.0L2.5,-0.5"/>
                </g>
                <g id="arrowRight" xlink:href="#dirArrow" transform="rotate(90) translate(36 -43)" onmousedown="handlePan(1,0)">
                  <use xlink:href="#rim" fill="#404040">
                        <set attributeName="fill" to="#808080" begin="arrowRight.mouseover" end="arrowRight.mouseout"/>
                  </use>
                  <path fill="none" stroke="white" stroke-width="1.5" d="M0,-3.0v7 M-2.5,-0.5L0,-3.0L2.5,-0.5"/>
                </g>
                <g id="arrowDown" xlink:href="#dirArrow" transform="rotate(180) translate(-30 -48)" onmousedown="handlePan(0,1)">
                  <use xlink:href="#rim" fill="#404040">
                        <set attributeName="fill" to="#808080" begin="arrowDown.mouseover" end="arrowDown.mouseout"/>
                  </use>
                  <path fill="none" stroke="white" stroke-width="1.5" d="M0,-3.0v7 M-2.5,-0.5L0,-3.0L2.5,-0.5"/>
                </g>
                <g id="arrowLeft" xlink:href="#dirArrow" transform="rotate(270) translate(-36 17)" onmousedown="handlePan(-1,0)">
                  <use xlink:href="#rim" fill="#404040">
                        <set attributeName="fill" to="#808080" begin="arrowLeft.mouseover" end="arrowLeft.mouseout"/>
                  </use>
                  <path fill="none" stroke="white" stroke-width="1.5" d="M0,-3.0v7 M-2.5,-0.5L0,-3.0L2.5,-0.5"/>
                </g>
        </g>
        <svg viewBox="0 0 15 15" width="100%" height="30px" preserveAspectRatio="xMaxYMin meet">
         <g id="arrow_out" transform="scale(0.3 0.3)">
          <a xlink:href="classcellsociety__team02_1_1_grid_view_a27ed5fc9bbf44efab6d23cb07096c36a_cgraph_org.svg" target="_base">
           <rect id="button" ry="5" rx="5" y="6" x="6" height="38" width="38"
                fill="#f2f5e9" fill-opacity="0.5" stroke="#606060" stroke-width="1.0"/>
           <path id="arrow"
             d="M 11.500037,31.436501 C 11.940474,20.09759 22.043105,11.32322 32.158766,21.979434 L 37.068811,17.246167 C 37.068811,17.246167 37.088388,32 37.088388,32 L 22.160133,31.978069 C 22.160133,31.978069 26.997745,27.140456 26.997745,27.140456 C 18.528582,18.264221 13.291696,25.230495 11.500037,31.436501 z"
             style="fill:#404040;"/>
          </a>
         </g>
        </svg>
</svg>
