<?xml version="1.0" encoding="UTF-8" standalone="no"?>
<!DOCTYPE svg PUBLIC "-//W3C//DTD SVG 1.1//EN"
 "http://www.w3.org/Graphics/SVG/1.1/DTD/svg11.dtd">
<!-- Generated by graphviz version 2.36.0 (20140111.2315)
 -->
<!-- Title: cellsociety_team02.GridView.playPause Pages: 1 -->
<svg width="1726pt" height="399pt"
 viewBox="0.00 0.00 1726.00 399.00" xmlns="http://www.w3.org/2000/svg" xmlns:xlink="http://www.w3.org/1999/xlink">
<g id="graph0" class="graph" transform="scale(1 1) rotate(0) translate(4 395)">
<title>cellsociety_team02.GridView.playPause</title>
<polygon fill="white" stroke="none" points="-4,4 -4,-395 1722,-395 1722,4 -4,4"/>
<!-- Node1 -->
<g id="node1" class="node"><title>Node1</title>
<polygon fill="#bfbfbf" stroke="black" points="0.5,-110 0.5,-140 175.5,-140 175.5,-110 0.5,-110"/>
<text text-anchor="start" x="8.5" y="-128" font-family="Helvetica,sans-Serif" font-size="10.00">cellsociety_team02.GridView.play</text>
<text text-anchor="middle" x="88" y="-117" font-family="Helvetica,sans-Serif" font-size="10.00">Pause</text>
</g>
<!-- Node2 -->
<g id="node2" class="node"><title>Node2</title>
<g id="a_node2"><a xlink:href="../../d9/daf/classcellsociety__team02_1_1_grid_view.html#a27ed5fc9bbf44efab6d23cb07096c36a" target="_top" xlink:title="cellsociety_team02.GridView.start\lAnimation">
<polygon fill="white" stroke="black" points="212,-110 212,-140 390,-140 390,-110 212,-110"/>
<text text-anchor="start" x="220" y="-128" font-family="Helvetica,sans-Serif" font-size="10.00">cellsociety_team02.GridView.start</text>
<text text-anchor="middle" x="301" y="-117" font-family="Helvetica,sans-Serif" font-size="10.00">Animation</text>
</a>
</g>
</g>
<!-- Node1&#45;&gt;Node2 -->
<g id="edge1" class="edge"><title>Node1&#45;&gt;Node2</title>
<path fill="none" stroke="midnightblue" d="M175.735,-125C184.313,-125 193.063,-125 201.746,-125"/>
<polygon fill="midnightblue" stroke="midnightblue" points="201.895,-128.5 211.895,-125 201.895,-121.5 201.895,-128.5"/>
</g>
<!-- Node3 -->
<g id="node3" class="node"><title>Node3</title>
<g id="a_node3"><a xlink:href="../../d9/daf/classcellsociety__team02_1_1_grid_view.html#aa1d09688b48a4a95513e15eea18ec0e6" target="_top" xlink:title="cellsociety_team02.GridView.start\lHandler">
<polygon fill="white" stroke="black" points="426,-110 426,-140 604,-140 604,-110 426,-110"/>
<text text-anchor="start" x="434" y="-128" font-family="Helvetica,sans-Serif" font-size="10.00">cellsociety_team02.GridView.start</text>
<text text-anchor="middle" x="515" y="-117" font-family="Helvetica,sans-Serif" font-size="10.00">Handler</text>
</a>
</g>
</g>
<!-- Node2&#45;&gt;Node3 -->
<g id="edge2" class="edge"><title>Node2&#45;&gt;Node3</title>
<path fill="none" stroke="midnightblue" d="M390.065,-125C398.569,-125 407.232,-125 415.825,-125"/>
<polygon fill="midnightblue" stroke="midnightblue" points="415.868,-128.5 425.868,-125 415.868,-121.5 415.868,-128.5"/>
</g>
<!-- Node4 -->
<g id="node4" class="node"><title>Node4</title>
<g id="a_node4"><a xlink:href="../../d9/daf/classcellsociety__team02_1_1_grid_view.html#a27a105e1810531f4958f9fc192c3cef1" target="_top" xlink:title="cellsociety_team02.GridView.step">
<polygon fill="white" stroke="black" points="640,-115.5 640,-134.5 816,-134.5 816,-115.5 640,-115.5"/>
<text text-anchor="middle" x="728" y="-122.5" font-family="Helvetica,sans-Serif" font-size="10.00">cellsociety_team02.GridView.step</text>
</a>
</g>
</g>
<!-- Node3&#45;&gt;Node4 -->
<g id="edge3" class="edge"><title>Node3&#45;&gt;Node4</title>
<path fill="none" stroke="midnightblue" d="M604.26,-125C612.61,-125 621.108,-125 629.537,-125"/>
<polygon fill="midnightblue" stroke="midnightblue" points="629.77,-128.5 639.769,-125 629.769,-121.5 629.77,-128.5"/>
</g>
<!-- Node5 -->
<g id="node5" class="node"><title>Node5</title>
<g id="a_node5"><a xlink:href="../../df/d71/classcellsociety__team02_1_1_grid_model.html#a866f20a5152d615d686b4412ed6d4e46" target="_top" xlink:title="cellsociety_team02.GridModel.update">
<polygon fill="white" stroke="black" points="854.5,-317.5 854.5,-336.5 1051.5,-336.5 1051.5,-317.5 854.5,-317.5"/>
<text text-anchor="middle" x="953" y="-324.5" font-family="Helvetica,sans-Serif" font-size="10.00">cellsociety_team02.GridModel.update</text>
</a>
</g>
</g>
<!-- Node4&#45;&gt;Node5 -->
<g id="edge4" class="edge"><title>Node4&#45;&gt;Node5</title>
<path fill="none" stroke="midnightblue" d="M739.756,-134.743C775.302,-166.942 889.272,-270.179 933.867,-310.575"/>
<polygon fill="midnightblue" stroke="midnightblue" points="931.591,-313.235 941.352,-317.355 936.29,-308.047 931.591,-313.235"/>
</g>
<!-- Node10 -->
<g id="node10" class="node"><title>Node10</title>
<g id="a_node10"><a xlink:href="../../d9/daf/classcellsociety__team02_1_1_grid_view.html#ad4fe99d3b1bf9b7ed1cd8d65145f5d90" target="_top" xlink:title="cellsociety_team02.GridView.makeGrid">
<polygon fill="white" stroke="black" points="852,-115.5 852,-134.5 1054,-134.5 1054,-115.5 852,-115.5"/>
<text text-anchor="middle" x="953" y="-122.5" font-family="Helvetica,sans-Serif" font-size="10.00">cellsociety_team02.GridView.makeGrid</text>
</a>
</g>
</g>
<!-- Node4&#45;&gt;Node10 -->
<g id="edge9" class="edge"><title>Node4&#45;&gt;Node10</title>
<path fill="none" stroke="midnightblue" d="M816.176,-125C824.605,-125 833.229,-125 841.842,-125"/>
<polygon fill="midnightblue" stroke="midnightblue" points="841.936,-128.5 851.936,-125 841.936,-121.5 841.936,-128.5"/>
</g>
<!-- Node21 -->
<g id="node21" class="node"><title>Node21</title>
<g id="a_node21"><a xlink:href="../../d9/daf/classcellsociety__team02_1_1_grid_view.html#acf332ae230af02cadc77649e0b6fc0ff" target="_top" xlink:title="cellsociety_team02.GridView.make\lGraph">
<polygon fill="white" stroke="black" points="862,-42 862,-72 1044,-72 1044,-42 862,-42"/>
<text text-anchor="start" x="870" y="-60" font-family="Helvetica,sans-Serif" font-size="10.00">cellsociety_team02.GridView.make</text>
<text text-anchor="middle" x="953" y="-49" font-family="Helvetica,sans-Serif" font-size="10.00">Graph</text>
</a>
</g>
</g>
<!-- Node4&#45;&gt;Node21 -->
<g id="edge20" class="edge"><title>Node4&#45;&gt;Node21</title>
<path fill="none" stroke="midnightblue" d="M760.477,-115.401C794.783,-104.941 850.45,-87.9659 892.95,-75.0062"/>
<polygon fill="midnightblue" stroke="midnightblue" points="894.082,-78.3204 902.626,-72.0558 892.04,-71.6248 894.082,-78.3204"/>
</g>
<!-- Node6 -->
<g id="node6" class="node"><title>Node6</title>
<g id="a_node6"><a xlink:href="../../df/d71/classcellsociety__team02_1_1_grid_model.html#ab59dfb960d9ac9cc5b875ae9cda15f92" target="_top" xlink:title="cellsociety_team02.GridModel.set\lCurrentToFuture">
<polygon fill="white" stroke="black" points="1103,-361 1103,-391 1281,-391 1281,-361 1103,-361"/>
<text text-anchor="start" x="1111" y="-379" font-family="Helvetica,sans-Serif" font-size="10.00">cellsociety_team02.GridModel.set</text>
<text text-anchor="middle" x="1192" y="-368" font-family="Helvetica,sans-Serif" font-size="10.00">CurrentToFuture</text>
</a>
</g>
</g>
<!-- Node5&#45;&gt;Node6 -->
<g id="edge5" class="edge"><title>Node5&#45;&gt;Node6</title>
<path fill="none" stroke="midnightblue" d="M999.977,-336.506C1030.61,-342.84 1071.76,-351.347 1108.02,-358.844"/>
<polygon fill="midnightblue" stroke="midnightblue" points="1107.6,-362.331 1118.1,-360.929 1109.02,-355.476 1107.6,-362.331"/>
</g>
<!-- Node8 -->
<g id="node8" class="node"><title>Node8</title>
<g id="a_node8"><a xlink:href="../../df/d71/classcellsociety__team02_1_1_grid_model.html#aefe267680baa28646953d3fc833c9430" target="_top" xlink:title="cellsociety_team02.GridModel.update\lPatchesAndCells">
<polygon fill="white" stroke="black" points="1093.5,-312 1093.5,-342 1290.5,-342 1290.5,-312 1093.5,-312"/>
<text text-anchor="start" x="1101.5" y="-330" font-family="Helvetica,sans-Serif" font-size="10.00">cellsociety_team02.GridModel.update</text>
<text text-anchor="middle" x="1192" y="-319" font-family="Helvetica,sans-Serif" font-size="10.00">PatchesAndCells</text>
</a>
</g>
</g>
<!-- Node5&#45;&gt;Node8 -->
<g id="edge7" class="edge"><title>Node5&#45;&gt;Node8</title>
<path fill="none" stroke="midnightblue" d="M1051.77,-327C1062.2,-327 1072.86,-327 1083.4,-327"/>
<polygon fill="midnightblue" stroke="midnightblue" points="1083.46,-330.5 1093.46,-327 1083.46,-323.5 1083.46,-330.5"/>
</g>
<!-- Node7 -->
<g id="node7" class="node"><title>Node7</title>
<g id="a_node7"><a xlink:href="../../d0/d0a/class_patch_1_1_patch.html#a5e6d56a2d8b59b7cffec33cc1b76019c" target="_top" xlink:title="Patch.Patch.currentToFuture">
<polygon fill="white" stroke="black" points="1348.5,-366.5 1348.5,-385.5 1497.5,-385.5 1497.5,-366.5 1348.5,-366.5"/>
<text text-anchor="middle" x="1423" y="-373.5" font-family="Helvetica,sans-Serif" font-size="10.00">Patch.Patch.currentToFuture</text>
</a>
</g>
</g>
<!-- Node6&#45;&gt;Node7 -->
<g id="edge6" class="edge"><title>Node6&#45;&gt;Node7</title>
<path fill="none" stroke="midnightblue" d="M1281.21,-376C1299.92,-376 1319.62,-376 1338.16,-376"/>
<polygon fill="midnightblue" stroke="midnightblue" points="1338.33,-379.5 1348.33,-376 1338.33,-372.5 1338.33,-379.5"/>
</g>
<!-- Node9 -->
<g id="node9" class="node"><title>Node9</title>
<g id="a_node9"><a xlink:href="../../d0/d0a/class_patch_1_1_patch.html#a6b354b20c05532df4f8fea4878cf0027" target="_top" xlink:title="Patch.Patch.updateState">
<polygon fill="white" stroke="black" points="1355.5,-323.5 1355.5,-342.5 1490.5,-342.5 1490.5,-323.5 1355.5,-323.5"/>
<text text-anchor="middle" x="1423" y="-330.5" font-family="Helvetica,sans-Serif" font-size="10.00">Patch.Patch.updateState</text>
</a>
</g>
</g>
<!-- Node8&#45;&gt;Node9 -->
<g id="edge8" class="edge"><title>Node8&#45;&gt;Node9</title>
<path fill="none" stroke="midnightblue" d="M1290.78,-329.562C1308.97,-330.039 1327.74,-330.53 1345.19,-330.987"/>
<polygon fill="midnightblue" stroke="midnightblue" points="1345.21,-334.489 1355.3,-331.252 1345.39,-327.491 1345.21,-334.489"/>
</g>
<!-- Node11 -->
<g id="node11" class="node"><title>Node11</title>
<g id="a_node11"><a xlink:href="../../d4/de6/classcellsociety__team02_1_1_draw.html#a28e6cca2ff571def700126ecfc1ec8e4" target="_top" xlink:title="cellsociety_team02.Draw.draw\lShape">
<polygon fill="white" stroke="black" points="1111.5,-201 1111.5,-231 1272.5,-231 1272.5,-201 1111.5,-201"/>
<text text-anchor="start" x="1119.5" y="-219" font-family="Helvetica,sans-Serif" font-size="10.00">cellsociety_team02.Draw.draw</text>
<text text-anchor="middle" x="1192" y="-208" font-family="Helvetica,sans-Serif" font-size="10.00">Shape</text>
</a>
</g>
</g>
<!-- Node10&#45;&gt;Node11 -->
<g id="edge10" class="edge"><title>Node10&#45;&gt;Node11</title>
<path fill="none" stroke="midnightblue" d="M978.915,-134.567C1017.47,-149.369 1092.3,-178.101 1141.96,-197.171"/>
<polygon fill="midnightblue" stroke="midnightblue" points="1140.95,-200.532 1151.54,-200.849 1143.46,-193.997 1140.95,-200.532"/>
</g>
<!-- Node16 -->
<g id="node16" class="node"><title>Node16</title>
<g id="a_node16"><a xlink:href="../../d0/d0a/class_patch_1_1_patch.html#ab49e64fb74f1147d834efd81af480fae" target="_top" xlink:title="Patch.Patch.getCurrentCell">
<polygon fill="white" stroke="black" points="1563,-91.5 1563,-110.5 1707,-110.5 1707,-91.5 1563,-91.5"/>
<text text-anchor="middle" x="1635" y="-98.5" font-family="Helvetica,sans-Serif" font-size="10.00">Patch.Patch.getCurrentCell</text>
</a>
</g>
</g>
<!-- Node10&#45;&gt;Node16 -->
<g id="edge15" class="edge"><title>Node10&#45;&gt;Node16</title>
<path fill="none" stroke="midnightblue" d="M1054.26,-126.641C1066.31,-126.789 1078.43,-126.915 1090,-127 1279.33,-128.392 1327.7,-144.812 1516,-125 1539.51,-122.526 1565.28,-117.554 1586.72,-112.774"/>
<polygon fill="midnightblue" stroke="midnightblue" points="1587.58,-116.167 1596.55,-110.529 1586.03,-109.343 1587.58,-116.167"/>
</g>
<!-- Node17 -->
<g id="node17" class="node"><title>Node17</title>
<g id="a_node17"><a xlink:href="../../d9/daf/classcellsociety__team02_1_1_grid_view.html#a5ef1c1816231c667f8f68bc466d20495" target="_top" xlink:title="cellsociety_team02.GridView.get\lLocationColor">
<polygon fill="white" stroke="black" points="1106.5,-88 1106.5,-118 1277.5,-118 1277.5,-88 1106.5,-88"/>
<text text-anchor="start" x="1114.5" y="-106" font-family="Helvetica,sans-Serif" font-size="10.00">cellsociety_team02.GridView.get</text>
<text text-anchor="middle" x="1192" y="-95" font-family="Helvetica,sans-Serif" font-size="10.00">LocationColor</text>
</a>
</g>
</g>
<!-- Node10&#45;&gt;Node17 -->
<g id="edge16" class="edge"><title>Node10&#45;&gt;Node17</title>
<path fill="none" stroke="midnightblue" d="M1054.17,-115.702C1068.09,-114.409 1082.37,-113.084 1096.19,-111.801"/>
<polygon fill="midnightblue" stroke="midnightblue" points="1096.53,-115.284 1106.17,-110.875 1095.89,-108.314 1096.53,-115.284"/>
</g>
<!-- Node20 -->
<g id="node20" class="node"><title>Node20</title>
<g id="a_node20"><a xlink:href="../../df/d71/classcellsociety__team02_1_1_grid_model.html#a8d88a111696cace3228ee162fc9199ec" target="_top" xlink:title="cellsociety_team02.GridModel.get\lPatches">
<polygon fill="white" stroke="black" points="1102.5,-39 1102.5,-69 1281.5,-69 1281.5,-39 1102.5,-39"/>
<text text-anchor="start" x="1110.5" y="-57" font-family="Helvetica,sans-Serif" font-size="10.00">cellsociety_team02.GridModel.get</text>
<text text-anchor="middle" x="1192" y="-46" font-family="Helvetica,sans-Serif" font-size="10.00">Patches</text>
</a>
</g>
</g>
<!-- Node10&#45;&gt;Node20 -->
<g id="edge19" class="edge"><title>Node10&#45;&gt;Node20</title>
<path fill="none" stroke="midnightblue" d="M979.075,-115.493C1006.18,-105.414 1050.78,-89.406 1090,-78 1097.69,-75.7637 1105.75,-73.5806 1113.83,-71.4997"/>
<polygon fill="midnightblue" stroke="midnightblue" points="1114.82,-74.8587 1123.66,-69.0154 1113.11,-68.072 1114.82,-74.8587"/>
</g>
<!-- Node12 -->
<g id="node12" class="node"><title>Node12</title>
<g id="a_node12"><a xlink:href="../../d4/de6/classcellsociety__team02_1_1_draw.html#a194b51f8c48e33b98a53b48b0d1c105e" target="_top" xlink:title="cellsociety_team02.Draw.make\lHexagon">
<polygon fill="white" stroke="black" points="1340.5,-274 1340.5,-304 1505.5,-304 1505.5,-274 1340.5,-274"/>
<text text-anchor="start" x="1348.5" y="-292" font-family="Helvetica,sans-Serif" font-size="10.00">cellsociety_team02.Draw.make</text>
<text text-anchor="middle" x="1423" y="-281" font-family="Helvetica,sans-Serif" font-size="10.00">Hexagon</text>
</a>
</g>
</g>
<!-- Node11&#45;&gt;Node12 -->
<g id="edge11" class="edge"><title>Node11&#45;&gt;Node12</title>
<path fill="none" stroke="midnightblue" d="M1233.51,-231.051C1260.65,-240.921 1297.27,-253.833 1330,-264 1337.75,-266.408 1345.91,-268.812 1354.04,-271.124"/>
<polygon fill="midnightblue" stroke="midnightblue" points="1353.33,-274.56 1363.91,-273.892 1355.22,-267.821 1353.33,-274.56"/>
</g>
<!-- Node13 -->
<g id="node13" class="node"><title>Node13</title>
<g id="a_node13"><a xlink:href="../../d4/de6/classcellsociety__team02_1_1_draw.html#a9fba740a0433f5893be019ecf23d486c" target="_top" xlink:title="cellsociety_team02.Draw.make\lRectangle">
<polygon fill="white" stroke="black" points="1340.5,-225 1340.5,-255 1505.5,-255 1505.5,-225 1340.5,-225"/>
<text text-anchor="start" x="1348.5" y="-243" font-family="Helvetica,sans-Serif" font-size="10.00">cellsociety_team02.Draw.make</text>
<text text-anchor="middle" x="1423" y="-232" font-family="Helvetica,sans-Serif" font-size="10.00">Rectangle</text>
</a>
</g>
</g>
<!-- Node11&#45;&gt;Node13 -->
<g id="edge12" class="edge"><title>Node11&#45;&gt;Node13</title>
<path fill="none" stroke="midnightblue" d="M1272.77,-224.36C1291.26,-226.298 1311.09,-228.376 1330.06,-230.364"/>
<polygon fill="midnightblue" stroke="midnightblue" points="1329.87,-233.864 1340.19,-231.426 1330.6,-226.902 1329.87,-233.864"/>
</g>
<!-- Node14 -->
<g id="node14" class="node"><title>Node14</title>
<g id="a_node14"><a xlink:href="../../d4/de6/classcellsociety__team02_1_1_draw.html#a49fefdfc30cc8ed10caf60df63faac59" target="_top" xlink:title="cellsociety_team02.Draw.make\lTriangle">
<polygon fill="white" stroke="black" points="1340.5,-176 1340.5,-206 1505.5,-206 1505.5,-176 1340.5,-176"/>
<text text-anchor="start" x="1348.5" y="-194" font-family="Helvetica,sans-Serif" font-size="10.00">cellsociety_team02.Draw.make</text>
<text text-anchor="middle" x="1423" y="-183" font-family="Helvetica,sans-Serif" font-size="10.00">Triangle</text>
</a>
</g>
</g>
<!-- Node11&#45;&gt;Node14 -->
<g id="edge13" class="edge"><title>Node11&#45;&gt;Node14</title>
<path fill="none" stroke="midnightblue" d="M1272.77,-207.291C1291.26,-205.273 1311.09,-203.108 1330.06,-201.038"/>
<polygon fill="midnightblue" stroke="midnightblue" points="1330.62,-204.496 1340.19,-199.932 1329.86,-197.538 1330.62,-204.496"/>
</g>
<!-- Node15 -->
<g id="node15" class="node"><title>Node15</title>
<g id="a_node15"><a xlink:href="../../d4/de6/classcellsociety__team02_1_1_draw.html#abc4794b50b65fcbf55017ad2dd2fa11d" target="_top" xlink:title="cellsociety_team02.Draw.make\lTriangleRow">
<polygon fill="white" stroke="black" points="1552.5,-176 1552.5,-206 1717.5,-206 1717.5,-176 1552.5,-176"/>
<text text-anchor="start" x="1560.5" y="-194" font-family="Helvetica,sans-Serif" font-size="10.00">cellsociety_team02.Draw.make</text>
<text text-anchor="middle" x="1635" y="-183" font-family="Helvetica,sans-Serif" font-size="10.00">TriangleRow</text>
</a>
</g>
</g>
<!-- Node14&#45;&gt;Node15 -->
<g id="edge14" class="edge"><title>Node14&#45;&gt;Node15</title>
<path fill="none" stroke="midnightblue" d="M1505.79,-191C1517.76,-191 1530.15,-191 1542.3,-191"/>
<polygon fill="midnightblue" stroke="midnightblue" points="1542.43,-194.5 1552.43,-191 1542.43,-187.5 1542.43,-194.5"/>
</g>
<!-- Node18 -->
<g id="node18" class="node"><title>Node18</title>
<g id="a_node18"><a xlink:href="../../d0/d0a/class_patch_1_1_patch.html#a26da12e997d44cb58fcdf89f19b44a98" target="_top" xlink:title="Patch.Patch.getColor">
<polygon fill="white" stroke="black" points="1365,-96.5 1365,-115.5 1481,-115.5 1481,-96.5 1365,-96.5"/>
<text text-anchor="middle" x="1423" y="-103.5" font-family="Helvetica,sans-Serif" font-size="10.00">Patch.Patch.getColor</text>
</a>
</g>
</g>
<!-- Node17&#45;&gt;Node18 -->
<g id="edge17" class="edge"><title>Node17&#45;&gt;Node18</title>
<path fill="none" stroke="midnightblue" d="M1277.62,-104.109C1303.04,-104.442 1330.57,-104.802 1354.71,-105.118"/>
<polygon fill="midnightblue" stroke="midnightblue" points="1354.78,-108.62 1364.83,-105.251 1354.87,-101.62 1354.78,-108.62"/>
</g>
<!-- Node19 -->
<g id="node19" class="node"><title>Node19</title>
<g id="a_node19"><a xlink:href="../../d5/d5c/class_cell_1_1_cell.html#adfe2be1b83b37c210944b70eabb3b485" target="_top" xlink:title="Cell.Cell.getColor">
<polygon fill="white" stroke="black" points="1374,-58.5 1374,-77.5 1472,-77.5 1472,-58.5 1374,-58.5"/>
<text text-anchor="middle" x="1423" y="-65.5" font-family="Helvetica,sans-Serif" font-size="10.00">Cell.Cell.getColor</text>
</a>
</g>
</g>
<!-- Node17&#45;&gt;Node19 -->
<g id="edge18" class="edge"><title>Node17&#45;&gt;Node19</title>
<path fill="none" stroke="midnightblue" d="M1277.62,-90.0667C1306.3,-85.683 1337.67,-80.8882 1363.83,-76.8913"/>
<polygon fill="midnightblue" stroke="midnightblue" points="1364.59,-80.3154 1373.95,-75.3446 1363.53,-73.3957 1364.59,-80.3154"/>
</g>
<!-- Node22 -->
<g id="node22" class="node"><title>Node22</title>
<g id="a_node22"><a xlink:href="../../df/d71/classcellsociety__team02_1_1_grid_model.html#aaa16e9ad7b7de321cfc772caf45dcc89" target="_top" xlink:title="cellsociety_team02.GridModel.addData">
<polygon fill="white" stroke="black" points="1090,-0.5 1090,-19.5 1294,-19.5 1294,-0.5 1090,-0.5"/>
<text text-anchor="middle" x="1192" y="-7.5" font-family="Helvetica,sans-Serif" font-size="10.00">cellsociety_team02.GridModel.addData</text>
</a>
</g>
</g>
<!-- Node21&#45;&gt;Node22 -->
<g id="edge21" class="edge"><title>Node21&#45;&gt;Node22</title>
<path fill="none" stroke="midnightblue" d="M1025.95,-41.9483C1046.61,-37.6898 1069.19,-33.1 1090,-29 1102.76,-26.4856 1116.45,-23.8622 1129.5,-21.3958"/>
<polygon fill="midnightblue" stroke="midnightblue" points="1130.15,-24.8354 1139.33,-19.5448 1128.85,-17.9563 1130.15,-24.8354"/>
</g>
<!-- Node23 -->
<g id="node23" class="node"><title>Node23</title>
<g id="a_node23"><a xlink:href="../../df/d71/classcellsociety__team02_1_1_grid_model.html#abf618b18bf0b7c25d5717317c00b9269" target="_top" xlink:title="cellsociety_team02.GridModel.num\lState">
<polygon fill="white" stroke="black" points="1330.5,-2 1330.5,-32 1515.5,-32 1515.5,-2 1330.5,-2"/>
<text text-anchor="start" x="1338.5" y="-20" font-family="Helvetica,sans-Serif" font-size="10.00">cellsociety_team02.GridModel.num</text>
<text text-anchor="middle" x="1423" y="-9" font-family="Helvetica,sans-Serif" font-size="10.00">State</text>
</a>
</g>
</g>
<!-- Node22&#45;&gt;Node23 -->
<g id="edge22" class="edge"><title>Node22&#45;&gt;Node23</title>
<path fill="none" stroke="midnightblue" d="M1294.11,-13.0907C1302.81,-13.3566 1311.61,-13.6256 1320.31,-13.8916"/>
<polygon fill="midnightblue" stroke="midnightblue" points="1320.37,-17.3949 1330.47,-14.2021 1320.58,-10.3981 1320.37,-17.3949"/>
</g>
<!-- Node23&#45;&gt;Node16 -->
<g id="edge23" class="edge"><title>Node23&#45;&gt;Node16</title>
<path fill="none" stroke="midnightblue" d="M1469.66,-32.07C1484.53,-37.1937 1501.05,-43.1171 1516,-49 1546.58,-61.0325 1580.88,-76.3613 1604.59,-87.2511"/>
<polygon fill="midnightblue" stroke="midnightblue" points="1603.2,-90.4649 1613.74,-91.4791 1606.13,-84.1096 1603.2,-90.4649"/>
</g>
<!-- Node24 -->
<g id="node24" class="node"><title>Node24</title>
<g id="a_node24"><a xlink:href="../../d5/d5c/class_cell_1_1_cell.html#a04d500ffc9f19932a4ff0738f2f1dbc6" target="_top" xlink:title="Cell.Cell.getCurrentState">
<polygon fill="white" stroke="black" points="1567.5,-7.5 1567.5,-26.5 1702.5,-26.5 1702.5,-7.5 1567.5,-7.5"/>
<text text-anchor="middle" x="1635" y="-14.5" font-family="Helvetica,sans-Serif" font-size="10.00">Cell.Cell.getCurrentState</text>
</a>
</g>
</g>
<!-- Node23&#45;&gt;Node24 -->
<g id="edge24" class="edge"><title>Node23&#45;&gt;Node24</title>
<path fill="none" stroke="midnightblue" d="M1515.8,-17C1529.61,-17 1543.73,-17 1557.18,-17"/>
<polygon fill="midnightblue" stroke="midnightblue" points="1557.32,-20.5001 1567.32,-17 1557.32,-13.5001 1557.32,-20.5001"/>
</g>
</g>
</svg>
