<?xml version="1.0" encoding="UTF-8" standalone="no"?>
<!DOCTYPE svg PUBLIC "-//W3C//DTD SVG 1.1//EN"
 "http://www.w3.org/Graphics/SVG/1.1/DTD/svg11.dtd">
<!-- Generated by graphviz version 2.36.0 (20140111.2315)
 -->
<!-- Title: cellsociety_team02.GridView.startHandler Pages: 1 -->
<!--zoomable 399 -->
<svg id="main" version="1.1" xmlns="http://www.w3.org/2000/svg" xmlns:xlink="http://www.w3.org/1999/xlink" xml:space="preserve" onload="init(evt)">
<style type="text/css"><![CDATA[
.edge:hover path { stroke: red; }
.edge:hover polygon { stroke: red; fill: red; }
]]></style>
<script type="text/javascript"><![CDATA[
var edges = document.getElementsByTagName('g');
if (edges && edges.length) {
  for (var i=0;i<edges.length;i++) {
    if (edges[i].id.substr(0,4)=='edge') {
      edges[i].setAttribute('class','edge');
    }
  }
}
]]></script>
        <defs>
                <circle id="rim" cx="0" cy="0" r="7"/>
                <circle id="rim2" cx="0" cy="0" r="3.5"/>
                <g id="zoomPlus">
                        <use xlink:href="#rim" fill="#404040">
                                <set attributeName="fill" to="#808080" begin="zoomplus.mouseover" end="zoomplus.mouseout"/>
                        </use>
                        <path d="M-4,0h8M0,-4v8" fill="none" stroke="white" stroke-width="1.5" pointer-events="none"/>
                </g>
                <g id="zoomMin">
                        <use xlink:href="#rim" fill="#404040">
                                <set attributeName="fill" to="#808080" begin="zoomminus.mouseover" end="zoomminus.mouseout"/>
                        </use>
                        <path d="M-4,0h8" fill="none" stroke="white" stroke-width="1.5" pointer-events="none"/>
                </g>
                <g id="dirArrow">
                        <path fill="none" stroke="white" stroke-width="1.5" d="M0,-3.0v7 M-2.5,-0.5L0,-3.0L2.5,-0.5"/>
                </g>
               <g id="resetDef">
                       <use xlink:href="#rim2" fill="#404040">
                               <set attributeName="fill" to="#808080" begin="reset.mouseover" end="reset.mouseout"/>
                       </use>
               </g>
        </defs>

<script type="text/javascript">
var viewWidth = 1300;
var viewHeight = 399;
var sectionId = 'dynsection-22';
</script>
<script xlink:href="../../svgpan.js"/>
<svg id="graph" class="graph">
<g id="viewport">
<title>cellsociety_team02.GridView.startHandler</title>
<polygon fill="white" stroke="none" points="-4,4 -4,-395 1296,-395 1296,4 -4,4"/>
<!-- Node1 -->
<g id="node1" class="node"><title>Node1</title>
<polygon fill="#bfbfbf" stroke="black" points="0,-110 0,-140 178,-140 178,-110 0,-110"/>
<text text-anchor="start" x="8" y="-128" font-family="Helvetica,sans-Serif" font-size="10.00">cellsociety_team02.GridView.start</text>
<text text-anchor="middle" x="89" y="-117" font-family="Helvetica,sans-Serif" font-size="10.00">Handler</text>
</g>
<!-- Node2 -->
<g id="node2" class="node"><title>Node2</title>
<g id="a_node2"><a xlink:href="../../d9/daf/classcellsociety__team02_1_1_grid_view.html#a27a105e1810531f4958f9fc192c3cef1" target="_top" xlink:title="cellsociety_team02.GridView.step">
<polygon fill="white" stroke="black" points="214,-115.5 214,-134.5 390,-134.5 390,-115.5 214,-115.5"/>
<text text-anchor="middle" x="302" y="-122.5" font-family="Helvetica,sans-Serif" font-size="10.00">cellsociety_team02.GridView.step</text>
</a>
</g>
</g>
<!-- Node1&#45;&gt;Node2 -->
<g id="edge1" class="edge"><title>Node1&#45;&gt;Node2</title>
<path fill="none" stroke="midnightblue" d="M178.26,-125C186.61,-125 195.108,-125 203.537,-125"/>
<polygon fill="midnightblue" stroke="midnightblue" points="203.77,-128.5 213.769,-125 203.769,-121.5 203.77,-128.5"/>
</g>
<!-- Node3 -->
<g id="node3" class="node"><title>Node3</title>
<g id="a_node3"><a xlink:href="../../df/d71/classcellsociety__team02_1_1_grid_model.html#a866f20a5152d615d686b4412ed6d4e46" target="_top" xlink:title="cellsociety_team02.GridModel.update">
<polygon fill="white" stroke="black" points="428.5,-317.5 428.5,-336.5 625.5,-336.5 625.5,-317.5 428.5,-317.5"/>
<text text-anchor="middle" x="527" y="-324.5" font-family="Helvetica,sans-Serif" font-size="10.00">cellsociety_team02.GridModel.update</text>
</a>
</g>
</g>
<!-- Node2&#45;&gt;Node3 -->
<g id="edge2" class="edge"><title>Node2&#45;&gt;Node3</title>
<path fill="none" stroke="midnightblue" d="M313.756,-134.743C349.302,-166.942 463.272,-270.179 507.867,-310.575"/>
<polygon fill="midnightblue" stroke="midnightblue" points="505.591,-313.235 515.352,-317.355 510.29,-308.047 505.591,-313.235"/>
</g>
<!-- Node8 -->
<g id="node8" class="node"><title>Node8</title>
<g id="a_node8"><a xlink:href="../../d9/daf/classcellsociety__team02_1_1_grid_view.html#ad4fe99d3b1bf9b7ed1cd8d65145f5d90" target="_top" xlink:title="cellsociety_team02.GridView.makeGrid">
<polygon fill="white" stroke="black" points="426,-115.5 426,-134.5 628,-134.5 628,-115.5 426,-115.5"/>
<text text-anchor="middle" x="527" y="-122.5" font-family="Helvetica,sans-Serif" font-size="10.00">cellsociety_team02.GridView.makeGrid</text>
</a>
</g>
</g>
<!-- Node2&#45;&gt;Node8 -->
<g id="edge7" class="edge"><title>Node2&#45;&gt;Node8</title>
<path fill="none" stroke="midnightblue" d="M390.176,-125C398.605,-125 407.229,-125 415.842,-125"/>
<polygon fill="midnightblue" stroke="midnightblue" points="415.936,-128.5 425.936,-125 415.936,-121.5 415.936,-128.5"/>
</g>
<!-- Node19 -->
<g id="node19" class="node"><title>Node19</title>
<g id="a_node19"><a xlink:href="../../d9/daf/classcellsociety__team02_1_1_grid_view.html#acf332ae230af02cadc77649e0b6fc0ff" target="_top" xlink:title="cellsociety_team02.GridView.make\lGraph">
<polygon fill="white" stroke="black" points="436,-42 436,-72 618,-72 618,-42 436,-42"/>
<text text-anchor="start" x="444" y="-60" font-family="Helvetica,sans-Serif" font-size="10.00">cellsociety_team02.GridView.make</text>
<text text-anchor="middle" x="527" y="-49" font-family="Helvetica,sans-Serif" font-size="10.00">Graph</text>
</a>
</g>
</g>
<!-- Node2&#45;&gt;Node19 -->
<g id="edge18" class="edge"><title>Node2&#45;&gt;Node19</title>
<path fill="none" stroke="midnightblue" d="M334.477,-115.401C368.783,-104.941 424.45,-87.9659 466.95,-75.0062"/>
<polygon fill="midnightblue" stroke="midnightblue" points="468.082,-78.3204 476.626,-72.0558 466.04,-71.6248 468.082,-78.3204"/>
</g>
<!-- Node4 -->
<g id="node4" class="node"><title>Node4</title>
<g id="a_node4"><a xlink:href="../../df/d71/classcellsociety__team02_1_1_grid_model.html#ab59dfb960d9ac9cc5b875ae9cda15f92" target="_top" xlink:title="cellsociety_team02.GridModel.set\lCurrentToFuture">
<polygon fill="white" stroke="black" points="677,-361 677,-391 855,-391 855,-361 677,-361"/>
<text text-anchor="start" x="685" y="-379" font-family="Helvetica,sans-Serif" font-size="10.00">cellsociety_team02.GridModel.set</text>
<text text-anchor="middle" x="766" y="-368" font-family="Helvetica,sans-Serif" font-size="10.00">CurrentToFuture</text>
</a>
</g>
</g>
<!-- Node3&#45;&gt;Node4 -->
<g id="edge3" class="edge"><title>Node3&#45;&gt;Node4</title>
<path fill="none" stroke="midnightblue" d="M573.977,-336.506C604.615,-342.84 645.762,-351.347 682.02,-358.844"/>
<polygon fill="midnightblue" stroke="midnightblue" points="681.603,-362.331 692.104,-360.929 683.02,-355.476 681.603,-362.331"/>
</g>
<!-- Node6 -->
<g id="node6" class="node"><title>Node6</title>
<g id="a_node6"><a xlink:href="../../df/d71/classcellsociety__team02_1_1_grid_model.html#aefe267680baa28646953d3fc833c9430" target="_top" xlink:title="cellsociety_team02.GridModel.update\lPatchesAndCells">
<polygon fill="white" stroke="black" points="667.5,-312 667.5,-342 864.5,-342 864.5,-312 667.5,-312"/>
<text text-anchor="start" x="675.5" y="-330" font-family="Helvetica,sans-Serif" font-size="10.00">cellsociety_team02.GridModel.update</text>
<text text-anchor="middle" x="766" y="-319" font-family="Helvetica,sans-Serif" font-size="10.00">PatchesAndCells</text>
</a>
</g>
</g>
<!-- Node3&#45;&gt;Node6 -->
<g id="edge5" class="edge"><title>Node3&#45;&gt;Node6</title>
<path fill="none" stroke="midnightblue" d="M625.765,-327C636.201,-327 646.858,-327 657.399,-327"/>
<polygon fill="midnightblue" stroke="midnightblue" points="657.459,-330.5 667.459,-327 657.459,-323.5 657.459,-330.5"/>
</g>
<!-- Node5 -->
<g id="node5" class="node"><title>Node5</title>
<g id="a_node5"><a xlink:href="../../d0/d0a/class_patch_1_1_patch.html#a5e6d56a2d8b59b7cffec33cc1b76019c" target="_top" xlink:title="Patch.Patch.currentToFuture">
<polygon fill="white" stroke="black" points="922.5,-366.5 922.5,-385.5 1071.5,-385.5 1071.5,-366.5 922.5,-366.5"/>
<text text-anchor="middle" x="997" y="-373.5" font-family="Helvetica,sans-Serif" font-size="10.00">Patch.Patch.currentToFuture</text>
</a>
</g>
</g>
<!-- Node4&#45;&gt;Node5 -->
<g id="edge4" class="edge"><title>Node4&#45;&gt;Node5</title>
<path fill="none" stroke="midnightblue" d="M855.21,-376C873.92,-376 893.621,-376 912.163,-376"/>
<polygon fill="midnightblue" stroke="midnightblue" points="912.332,-379.5 922.332,-376 912.332,-372.5 912.332,-379.5"/>
</g>
<!-- Node7 -->
<g id="node7" class="node"><title>Node7</title>
<g id="a_node7"><a xlink:href="../../d0/d0a/class_patch_1_1_patch.html#a6b354b20c05532df4f8fea4878cf0027" target="_top" xlink:title="Patch.Patch.updateState">
<polygon fill="white" stroke="black" points="929.5,-323.5 929.5,-342.5 1064.5,-342.5 1064.5,-323.5 929.5,-323.5"/>
<text text-anchor="middle" x="997" y="-330.5" font-family="Helvetica,sans-Serif" font-size="10.00">Patch.Patch.updateState</text>
</a>
</g>
</g>
<!-- Node6&#45;&gt;Node7 -->
<g id="edge6" class="edge"><title>Node6&#45;&gt;Node7</title>
<path fill="none" stroke="midnightblue" d="M864.781,-329.562C882.971,-330.039 901.737,-330.53 919.187,-330.987"/>
<polygon fill="midnightblue" stroke="midnightblue" points="919.208,-334.489 929.296,-331.252 919.391,-327.491 919.208,-334.489"/>
</g>
<!-- Node9 -->
<g id="node9" class="node"><title>Node9</title>
<g id="a_node9"><a xlink:href="../../d4/de6/classcellsociety__team02_1_1_draw.html#a28e6cca2ff571def700126ecfc1ec8e4" target="_top" xlink:title="cellsociety_team02.Draw.draw\lShape">
<polygon fill="white" stroke="black" points="685.5,-201 685.5,-231 846.5,-231 846.5,-201 685.5,-201"/>
<text text-anchor="start" x="693.5" y="-219" font-family="Helvetica,sans-Serif" font-size="10.00">cellsociety_team02.Draw.draw</text>
<text text-anchor="middle" x="766" y="-208" font-family="Helvetica,sans-Serif" font-size="10.00">Shape</text>
</a>
</g>
</g>
<!-- Node8&#45;&gt;Node9 -->
<g id="edge8" class="edge"><title>Node8&#45;&gt;Node9</title>
<path fill="none" stroke="midnightblue" d="M552.915,-134.567C591.466,-149.369 666.296,-178.101 715.962,-197.171"/>
<polygon fill="midnightblue" stroke="midnightblue" points="714.952,-200.532 725.542,-200.849 717.461,-193.997 714.952,-200.532"/>
</g>
<!-- Node14 -->
<g id="node14" class="node"><title>Node14</title>
<g id="a_node14"><a xlink:href="../../d0/d0a/class_patch_1_1_patch.html#ab49e64fb74f1147d834efd81af480fae" target="_top" xlink:title="Patch.Patch.getCurrentCell">
<polygon fill="white" stroke="black" points="1137,-91.5 1137,-110.5 1281,-110.5 1281,-91.5 1137,-91.5"/>
<text text-anchor="middle" x="1209" y="-98.5" font-family="Helvetica,sans-Serif" font-size="10.00">Patch.Patch.getCurrentCell</text>
</a>
</g>
</g>
<!-- Node8&#45;&gt;Node14 -->
<g id="edge13" class="edge"><title>Node8&#45;&gt;Node14</title>
<path fill="none" stroke="midnightblue" d="M628.265,-126.641C640.306,-126.789 652.43,-126.915 664,-127 853.33,-128.392 901.704,-144.812 1090,-125 1113.51,-122.526 1139.28,-117.554 1160.72,-112.774"/>
<polygon fill="midnightblue" stroke="midnightblue" points="1161.58,-116.167 1170.55,-110.529 1160.03,-109.343 1161.58,-116.167"/>
</g>
<!-- Node15 -->
<g id="node15" class="node"><title>Node15</title>
<g id="a_node15"><a xlink:href="../../d9/daf/classcellsociety__team02_1_1_grid_view.html#a5ef1c1816231c667f8f68bc466d20495" target="_top" xlink:title="cellsociety_team02.GridView.get\lLocationColor">
<polygon fill="white" stroke="black" points="680.5,-88 680.5,-118 851.5,-118 851.5,-88 680.5,-88"/>
<text text-anchor="start" x="688.5" y="-106" font-family="Helvetica,sans-Serif" font-size="10.00">cellsociety_team02.GridView.get</text>
<text text-anchor="middle" x="766" y="-95" font-family="Helvetica,sans-Serif" font-size="10.00">LocationColor</text>
</a>
</g>
</g>
<!-- Node8&#45;&gt;Node15 -->
<g id="edge14" class="edge"><title>Node8&#45;&gt;Node15</title>
<path fill="none" stroke="midnightblue" d="M628.166,-115.702C642.093,-114.409 656.367,-113.084 670.192,-111.801"/>
<polygon fill="midnightblue" stroke="midnightblue" points="670.534,-115.284 680.168,-110.875 669.887,-108.314 670.534,-115.284"/>
</g>
<!-- Node18 -->
<g id="node18" class="node"><title>Node18</title>
<g id="a_node18"><a xlink:href="../../df/d71/classcellsociety__team02_1_1_grid_model.html#a8d88a111696cace3228ee162fc9199ec" target="_top" xlink:title="cellsociety_team02.GridModel.get\lPatches">
<polygon fill="white" stroke="black" points="676.5,-39 676.5,-69 855.5,-69 855.5,-39 676.5,-39"/>
<text text-anchor="start" x="684.5" y="-57" font-family="Helvetica,sans-Serif" font-size="10.00">cellsociety_team02.GridModel.get</text>
<text text-anchor="middle" x="766" y="-46" font-family="Helvetica,sans-Serif" font-size="10.00">Patches</text>
</a>
</g>
</g>
<!-- Node8&#45;&gt;Node18 -->
<g id="edge17" class="edge"><title>Node8&#45;&gt;Node18</title>
<path fill="none" stroke="midnightblue" d="M553.075,-115.493C580.183,-105.414 624.78,-89.406 664,-78 671.69,-75.7637 679.753,-73.5806 687.828,-71.4997"/>
<polygon fill="midnightblue" stroke="midnightblue" points="688.822,-74.8587 697.659,-69.0154 687.107,-68.072 688.822,-74.8587"/>
</g>
<!-- Node10 -->
<g id="node10" class="node"><title>Node10</title>
<g id="a_node10"><a xlink:href="../../d4/de6/classcellsociety__team02_1_1_draw.html#a194b51f8c48e33b98a53b48b0d1c105e" target="_top" xlink:title="cellsociety_team02.Draw.make\lHexagon">
<polygon fill="white" stroke="black" points="914.5,-274 914.5,-304 1079.5,-304 1079.5,-274 914.5,-274"/>
<text text-anchor="start" x="922.5" y="-292" font-family="Helvetica,sans-Serif" font-size="10.00">cellsociety_team02.Draw.make</text>
<text text-anchor="middle" x="997" y="-281" font-family="Helvetica,sans-Serif" font-size="10.00">Hexagon</text>
</a>
</g>
</g>
<!-- Node9&#45;&gt;Node10 -->
<g id="edge9" class="edge"><title>Node9&#45;&gt;Node10</title>
<path fill="none" stroke="midnightblue" d="M807.51,-231.051C834.648,-240.921 871.268,-253.833 904,-264 911.754,-266.408 919.914,-268.812 928.04,-271.124"/>
<polygon fill="midnightblue" stroke="midnightblue" points="927.333,-274.56 937.906,-273.892 929.224,-267.821 927.333,-274.56"/>
</g>
<!-- Node11 -->
<g id="node11" class="node"><title>Node11</title>
<g id="a_node11"><a xlink:href="../../d4/de6/classcellsociety__team02_1_1_draw.html#a9fba740a0433f5893be019ecf23d486c" target="_top" xlink:title="cellsociety_team02.Draw.make\lRectangle">
<polygon fill="white" stroke="black" points="914.5,-225 914.5,-255 1079.5,-255 1079.5,-225 914.5,-225"/>
<text text-anchor="start" x="922.5" y="-243" font-family="Helvetica,sans-Serif" font-size="10.00">cellsociety_team02.Draw.make</text>
<text text-anchor="middle" x="997" y="-232" font-family="Helvetica,sans-Serif" font-size="10.00">Rectangle</text>
</a>
</g>
</g>
<!-- Node9&#45;&gt;Node11 -->
<g id="edge10" class="edge"><title>Node9&#45;&gt;Node11</title>
<path fill="none" stroke="midnightblue" d="M846.772,-224.36C865.263,-226.298 885.089,-228.376 904.055,-230.364"/>
<polygon fill="midnightblue" stroke="midnightblue" points="903.875,-233.864 914.185,-231.426 904.605,-226.902 903.875,-233.864"/>
</g>
<!-- Node12 -->
<g id="node12" class="node"><title>Node12</title>
<g id="a_node12"><a xlink:href="../../d4/de6/classcellsociety__team02_1_1_draw.html#a49fefdfc30cc8ed10caf60df63faac59" target="_top" xlink:title="cellsociety_team02.Draw.make\lTriangle">
<polygon fill="white" stroke="black" points="914.5,-176 914.5,-206 1079.5,-206 1079.5,-176 914.5,-176"/>
<text text-anchor="start" x="922.5" y="-194" font-family="Helvetica,sans-Serif" font-size="10.00">cellsociety_team02.Draw.make</text>
<text text-anchor="middle" x="997" y="-183" font-family="Helvetica,sans-Serif" font-size="10.00">Triangle</text>
</a>
</g>
</g>
<!-- Node9&#45;&gt;Node12 -->
<g id="edge11" class="edge"><title>Node9&#45;&gt;Node12</title>
<path fill="none" stroke="midnightblue" d="M846.772,-207.291C865.263,-205.273 885.089,-203.108 904.055,-201.038"/>
<polygon fill="midnightblue" stroke="midnightblue" points="904.624,-204.496 914.185,-199.932 903.864,-197.538 904.624,-204.496"/>
</g>
<!-- Node13 -->
<g id="node13" class="node"><title>Node13</title>
<g id="a_node13"><a xlink:href="../../d4/de6/classcellsociety__team02_1_1_draw.html#abc4794b50b65fcbf55017ad2dd2fa11d" target="_top" xlink:title="cellsociety_team02.Draw.make\lTriangleRow">
<polygon fill="white" stroke="black" points="1126.5,-176 1126.5,-206 1291.5,-206 1291.5,-176 1126.5,-176"/>
<text text-anchor="start" x="1134.5" y="-194" font-family="Helvetica,sans-Serif" font-size="10.00">cellsociety_team02.Draw.make</text>
<text text-anchor="middle" x="1209" y="-183" font-family="Helvetica,sans-Serif" font-size="10.00">TriangleRow</text>
</a>
</g>
</g>
<!-- Node12&#45;&gt;Node13 -->
<g id="edge12" class="edge"><title>Node12&#45;&gt;Node13</title>
<path fill="none" stroke="midnightblue" d="M1079.79,-191C1091.76,-191 1104.15,-191 1116.3,-191"/>
<polygon fill="midnightblue" stroke="midnightblue" points="1116.43,-194.5 1126.43,-191 1116.43,-187.5 1116.43,-194.5"/>
</g>
<!-- Node16 -->
<g id="node16" class="node"><title>Node16</title>
<g id="a_node16"><a xlink:href="../../d0/d0a/class_patch_1_1_patch.html#a26da12e997d44cb58fcdf89f19b44a98" target="_top" xlink:title="Patch.Patch.getColor">
<polygon fill="white" stroke="black" points="939,-96.5 939,-115.5 1055,-115.5 1055,-96.5 939,-96.5"/>
<text text-anchor="middle" x="997" y="-103.5" font-family="Helvetica,sans-Serif" font-size="10.00">Patch.Patch.getColor</text>
</a>
</g>
</g>
<!-- Node15&#45;&gt;Node16 -->
<g id="edge15" class="edge"><title>Node15&#45;&gt;Node16</title>
<path fill="none" stroke="midnightblue" d="M851.621,-104.109C877.039,-104.442 904.569,-104.802 928.707,-105.118"/>
<polygon fill="midnightblue" stroke="midnightblue" points="928.782,-108.62 938.827,-105.251 928.874,-101.62 928.782,-108.62"/>
</g>
<!-- Node17 -->
<g id="node17" class="node"><title>Node17</title>
<g id="a_node17"><a xlink:href="../../d5/d5c/class_cell_1_1_cell.html#adfe2be1b83b37c210944b70eabb3b485" target="_top" xlink:title="Cell.Cell.getColor">
<polygon fill="white" stroke="black" points="948,-58.5 948,-77.5 1046,-77.5 1046,-58.5 948,-58.5"/>
<text text-anchor="middle" x="997" y="-65.5" font-family="Helvetica,sans-Serif" font-size="10.00">Cell.Cell.getColor</text>
</a>
</g>
</g>
<!-- Node15&#45;&gt;Node17 -->
<g id="edge16" class="edge"><title>Node15&#45;&gt;Node17</title>
<path fill="none" stroke="midnightblue" d="M851.621,-90.0667C880.303,-85.683 911.674,-80.8882 937.825,-76.8913"/>
<polygon fill="midnightblue" stroke="midnightblue" points="938.589,-80.3154 947.945,-75.3446 937.531,-73.3957 938.589,-80.3154"/>
</g>
<!-- Node20 -->
<g id="node20" class="node"><title>Node20</title>
<g id="a_node20"><a xlink:href="../../df/d71/classcellsociety__team02_1_1_grid_model.html#aaa16e9ad7b7de321cfc772caf45dcc89" target="_top" xlink:title="cellsociety_team02.GridModel.addData">
<polygon fill="white" stroke="black" points="664,-0.5 664,-19.5 868,-19.5 868,-0.5 664,-0.5"/>
<text text-anchor="middle" x="766" y="-7.5" font-family="Helvetica,sans-Serif" font-size="10.00">cellsociety_team02.GridModel.addData</text>
</a>
</g>
</g>
<!-- Node19&#45;&gt;Node20 -->
<g id="edge19" class="edge"><title>Node19&#45;&gt;Node20</title>
<path fill="none" stroke="midnightblue" d="M599.946,-41.9483C620.612,-37.6898 643.186,-33.1 664,-29 676.764,-26.4856 690.451,-23.8622 703.499,-21.3958"/>
<polygon fill="midnightblue" stroke="midnightblue" points="704.147,-24.8354 713.327,-19.5448 702.851,-17.9563 704.147,-24.8354"/>
</g>
<!-- Node21 -->
<g id="node21" class="node"><title>Node21</title>
<g id="a_node21"><a xlink:href="../../df/d71/classcellsociety__team02_1_1_grid_model.html#abf618b18bf0b7c25d5717317c00b9269" target="_top" xlink:title="cellsociety_team02.GridModel.num\lState">
<polygon fill="white" stroke="black" points="904.5,-2 904.5,-32 1089.5,-32 1089.5,-2 904.5,-2"/>
<text text-anchor="start" x="912.5" y="-20" font-family="Helvetica,sans-Serif" font-size="10.00">cellsociety_team02.GridModel.num</text>
<text text-anchor="middle" x="997" y="-9" font-family="Helvetica,sans-Serif" font-size="10.00">State</text>
</a>
</g>
</g>
<!-- Node20&#45;&gt;Node21 -->
<g id="edge20" class="edge"><title>Node20&#45;&gt;Node21</title>
<path fill="none" stroke="midnightblue" d="M868.109,-13.0907C876.807,-13.3566 885.61,-13.6256 894.312,-13.8916"/>
<polygon fill="midnightblue" stroke="midnightblue" points="894.368,-17.3949 904.47,-14.2021 894.581,-10.3981 894.368,-17.3949"/>
</g>
<!-- Node21&#45;&gt;Node14 -->
<g id="edge21" class="edge"><title>Node21&#45;&gt;Node14</title>
<path fill="none" stroke="midnightblue" d="M1043.66,-32.07C1058.53,-37.1937 1075.05,-43.1171 1090,-49 1120.58,-61.0325 1154.88,-76.3613 1178.59,-87.2511"/>
<polygon fill="midnightblue" stroke="midnightblue" points="1177.2,-90.4649 1187.74,-91.4791 1180.13,-84.1096 1177.2,-90.4649"/>
</g>
<!-- Node22 -->
<g id="node22" class="node"><title>Node22</title>
<g id="a_node22"><a xlink:href="../../d5/d5c/class_cell_1_1_cell.html#a04d500ffc9f19932a4ff0738f2f1dbc6" target="_top" xlink:title="Cell.Cell.getCurrentState">
<polygon fill="white" stroke="black" points="1141.5,-7.5 1141.5,-26.5 1276.5,-26.5 1276.5,-7.5 1141.5,-7.5"/>
<text text-anchor="middle" x="1209" y="-14.5" font-family="Helvetica,sans-Serif" font-size="10.00">Cell.Cell.getCurrentState</text>
</a>
</g>
</g>
<!-- Node21&#45;&gt;Node22 -->
<g id="edge22" class="edge"><title>Node21&#45;&gt;Node22</title>
<path fill="none" stroke="midnightblue" d="M1089.8,-17C1103.61,-17 1117.73,-17 1131.18,-17"/>
<polygon fill="midnightblue" stroke="midnightblue" points="1131.32,-20.5001 1141.32,-17 1131.32,-13.5001 1131.32,-20.5001"/>
</g>
</g>
</svg>
        <g id="navigator" transform="translate(0 0)" fill="#404254">
                <rect fill="#f2f5e9" fill-opacity="0.5" stroke="#606060" stroke-width=".5" x="0" y="0" width="60" height="60"/>
                <use id="zoomplus" xlink:href="#zoomPlus" x="17" y="9" onmousedown="handleZoom(evt,'in')"/>
                <use id="zoomminus" xlink:href="#zoomMin" x="42" y="9" onmousedown="handleZoom(evt,'out')"/>
                <use id="reset" xlink:href="#resetDef" x="30" y="36" onmousedown="handleReset()"/>
                <g id="arrowUp" xlink:href="#dirArrow" transform="translate(30 24)" onmousedown="handlePan(0,-1)">
                  <use xlink:href="#rim" fill="#404040">
                        <set attributeName="fill" to="#808080" begin="arrowUp.mouseover" end="arrowUp.mouseout"/>
                  </use>
                  <path fill="none" stroke="white" stroke-width="1.5" d="M0,-3.0v7 M-2.5,-0.5L0,-3.0L2.5,-0.5"/>
                </g>
                <g id="arrowRight" xlink:href="#dirArrow" transform="rotate(90) translate(36 -43)" onmousedown="handlePan(1,0)">
                  <use xlink:href="#rim" fill="#404040">
                        <set attributeName="fill" to="#808080" begin="arrowRight.mouseover" end="arrowRight.mouseout"/>
                  </use>
                  <path fill="none" stroke="white" stroke-width="1.5" d="M0,-3.0v7 M-2.5,-0.5L0,-3.0L2.5,-0.5"/>
                </g>
                <g id="arrowDown" xlink:href="#dirArrow" transform="rotate(180) translate(-30 -48)" onmousedown="handlePan(0,1)">
                  <use xlink:href="#rim" fill="#404040">
                        <set attributeName="fill" to="#808080" begin="arrowDown.mouseover" end="arrowDown.mouseout"/>
                  </use>
                  <path fill="none" stroke="white" stroke-width="1.5" d="M0,-3.0v7 M-2.5,-0.5L0,-3.0L2.5,-0.5"/>
                </g>
                <g id="arrowLeft" xlink:href="#dirArrow" transform="rotate(270) translate(-36 17)" onmousedown="handlePan(-1,0)">
                  <use xlink:href="#rim" fill="#404040">
                        <set attributeName="fill" to="#808080" begin="arrowLeft.mouseover" end="arrowLeft.mouseout"/>
                  </use>
                  <path fill="none" stroke="white" stroke-width="1.5" d="M0,-3.0v7 M-2.5,-0.5L0,-3.0L2.5,-0.5"/>
                </g>
        </g>
        <svg viewBox="0 0 15 15" width="100%" height="30px" preserveAspectRatio="xMaxYMin meet">
         <g id="arrow_out" transform="scale(0.3 0.3)">
          <a xlink:href="classcellsociety__team02_1_1_grid_view_aa1d09688b48a4a95513e15eea18ec0e6_cgraph_org.svg" target="_base">
           <rect id="button" ry="5" rx="5" y="6" x="6" height="38" width="38"
                fill="#f2f5e9" fill-opacity="0.5" stroke="#606060" stroke-width="1.0"/>
           <path id="arrow"
             d="M 11.500037,31.436501 C 11.940474,20.09759 22.043105,11.32322 32.158766,21.979434 L 37.068811,17.246167 C 37.068811,17.246167 37.088388,32 37.088388,32 L 22.160133,31.978069 C 22.160133,31.978069 26.997745,27.140456 26.997745,27.140456 C 18.528582,18.264221 13.291696,25.230495 11.500037,31.436501 z"
             style="fill:#404040;"/>
          </a>
         </g>
        </svg>
</svg>
