<?xml version="1.0" encoding="UTF-8" standalone="no"?>
<!DOCTYPE svg PUBLIC "-//W3C//DTD SVG 1.1//EN"
 "http://www.w3.org/Graphics/SVG/1.1/DTD/svg11.dtd">
<!-- Generated by graphviz version 2.36.0 (20140111.2315)
 -->
<!-- Title: cellsociety_team02.GridView.load Pages: 1 -->
<svg width="824pt" height="61pt"
 viewBox="0.00 0.00 824.00 61.00" xmlns="http://www.w3.org/2000/svg" xmlns:xlink="http://www.w3.org/1999/xlink">
<g id="graph0" class="graph" transform="scale(1 1) rotate(0) translate(4 57)">
<title>cellsociety_team02.GridView.load</title>
<polygon fill="white" stroke="none" points="-4,4 -4,-57 820,-57 820,4 -4,4"/>
<!-- Node1 -->
<g id="node1" class="node"><title>Node1</title>
<polygon fill="#bfbfbf" stroke="black" points="0,-27.5 0,-46.5 176,-46.5 176,-27.5 0,-27.5"/>
<text text-anchor="middle" x="88" y="-34.5" font-family="Helvetica,sans-Serif" font-size="10.00">cellsociety_team02.GridView.load</text>
</g>
<!-- Node2 -->
<g id="node2" class="node"><title>Node2</title>
<g id="a_node2"><a xlink:href="../../d9/daf/classcellsociety__team02_1_1_grid_view.html#ada183e314764db770009f944205490df" target="_top" xlink:title="cellsociety_team02.GridView.\lGridView">
<polygon fill="white" stroke="black" points="660.5,-23 660.5,-53 815.5,-53 815.5,-23 660.5,-23"/>
<text text-anchor="start" x="668.5" y="-41" font-family="Helvetica,sans-Serif" font-size="10.00">cellsociety_team02.GridView.</text>
<text text-anchor="middle" x="738" y="-30" font-family="Helvetica,sans-Serif" font-size="10.00">GridView</text>
</a>
</g>
</g>
<!-- Node1&#45;&gt;Node2 -->
<g id="edge1" class="edge"><title>Node1&#45;&gt;Node2</title>
<path fill="none" stroke="midnightblue" d="M186.238,-38.7275C194.949,-38.838 203.634,-38.932 212,-39 371.5,-40.2967 558.266,-39.3532 660.486,-38.6264"/>
<polygon fill="midnightblue" stroke="midnightblue" points="186.063,-35.2249 176.017,-38.5908 185.969,-42.2243 186.063,-35.2249"/>
</g>
<!-- Node3 -->
<g id="node3" class="node"><title>Node3</title>
<g id="a_node3"><a xlink:href="../../d9/daf/classcellsociety__team02_1_1_grid_view.html#afcc7b83f62c116e77ab0843bfd4156b8" target="_top" xlink:title="cellsociety_team02.GridView.make\lButtons">
<polygon fill="white" stroke="black" points="212,-0 212,-30 394,-30 394,-0 212,-0"/>
<text text-anchor="start" x="220" y="-18" font-family="Helvetica,sans-Serif" font-size="10.00">cellsociety_team02.GridView.make</text>
<text text-anchor="middle" x="303" y="-7" font-family="Helvetica,sans-Serif" font-size="10.00">Buttons</text>
</a>
</g>
</g>
<!-- Node1&#45;&gt;Node3 -->
<g id="edge2" class="edge"><title>Node1&#45;&gt;Node3</title>
<path fill="none" stroke="midnightblue" d="M186.201,-26.9605C194.72,-26.0806 203.319,-25.1924 211.777,-24.3188"/>
<polygon fill="midnightblue" stroke="midnightblue" points="185.837,-23.4793 176.25,-27.9883 186.557,-30.4423 185.837,-23.4793"/>
</g>
<!-- Node4 -->
<g id="node4" class="node"><title>Node4</title>
<g id="a_node4"><a xlink:href="../../d9/daf/classcellsociety__team02_1_1_grid_view.html#a4571898657e750f62c2df84cb398e135" target="_top" xlink:title="cellsociety_team02.GridView.initialize">
<polygon fill="white" stroke="black" points="430,-8.5 430,-27.5 624,-27.5 624,-8.5 430,-8.5"/>
<text text-anchor="middle" x="527" y="-15.5" font-family="Helvetica,sans-Serif" font-size="10.00">cellsociety_team02.GridView.initialize</text>
</a>
</g>
</g>
<!-- Node3&#45;&gt;Node4 -->
<g id="edge3" class="edge"><title>Node3&#45;&gt;Node4</title>
<path fill="none" stroke="midnightblue" d="M404.565,-16.359C413.028,-16.4733 421.572,-16.5888 429.999,-16.7027"/>
<polygon fill="midnightblue" stroke="midnightblue" points="404.342,-12.8558 394.296,-16.2202 404.248,-19.8551 404.342,-12.8558"/>
</g>
<!-- Node4&#45;&gt;Node2 -->
<g id="edge4" class="edge"><title>Node4&#45;&gt;Node2</title>
<path fill="none" stroke="midnightblue" d="M634.477,-28.1892C643.201,-29.024 651.907,-29.8571 660.351,-30.6651"/>
<polygon fill="midnightblue" stroke="midnightblue" points="634.53,-24.6783 624.242,-27.2097 633.863,-31.6465 634.53,-24.6783"/>
</g>
</g>
</svg>
