<?xml version="1.0" encoding="UTF-8" standalone="no"?>
<!DOCTYPE svg PUBLIC "-//W3C//DTD SVG 1.1//EN"
 "http://www.w3.org/Graphics/SVG/1.1/DTD/svg11.dtd">
<!-- Generated by graphviz version 2.36.0 (20140111.2315)
 -->
<!-- Title: cellsociety_team02.GridView.makeGrid Pages: 1 -->
<!--zoomable 229 -->
<svg id="main" version="1.1" xmlns="http://www.w3.org/2000/svg" xmlns:xlink="http://www.w3.org/1999/xlink" xml:space="preserve" onload="init(evt)">
<style type="text/css"><![CDATA[
.edge:hover path { stroke: red; }
.edge:hover polygon { stroke: red; fill: red; }
]]></style>
<script type="text/javascript"><![CDATA[
var edges = document.getElementsByTagName('g');
if (edges && edges.length) {
  for (var i=0;i<edges.length;i++) {
    if (edges[i].id.substr(0,4)=='edge') {
      edges[i].setAttribute('class','edge');
    }
  }
}
]]></script>
        <defs>
                <circle id="rim" cx="0" cy="0" r="7"/>
                <circle id="rim2" cx="0" cy="0" r="3.5"/>
                <g id="zoomPlus">
                        <use xlink:href="#rim" fill="#404040">
                                <set attributeName="fill" to="#808080" begin="zoomplus.mouseover" end="zoomplus.mouseout"/>
                        </use>
                        <path d="M-4,0h8M0,-4v8" fill="none" stroke="white" stroke-width="1.5" pointer-events="none"/>
                </g>
                <g id="zoomMin">
                        <use xlink:href="#rim" fill="#404040">
                                <set attributeName="fill" to="#808080" begin="zoomminus.mouseover" end="zoomminus.mouseout"/>
                        </use>
                        <path d="M-4,0h8" fill="none" stroke="white" stroke-width="1.5" pointer-events="none"/>
                </g>
                <g id="dirArrow">
                        <path fill="none" stroke="white" stroke-width="1.5" d="M0,-3.0v7 M-2.5,-0.5L0,-3.0L2.5,-0.5"/>
                </g>
               <g id="resetDef">
                       <use xlink:href="#rim2" fill="#404040">
                               <set attributeName="fill" to="#808080" begin="reset.mouseover" end="reset.mouseout"/>
                       </use>
               </g>
        </defs>

<script type="text/javascript">
var viewWidth = 830;
var viewHeight = 229;
var sectionId = 'dynsection-14';
</script>
<script xlink:href="../../svgpan.js"/>
<svg id="graph" class="graph">
<g id="viewport">
<title>cellsociety_team02.GridView.makeGrid</title>
<polygon fill="white" stroke="none" points="-4,4 -4,-225 826,-225 826,4 -4,4"/>
<!-- Node1 -->
<g id="node1" class="node"><title>Node1</title>
<polygon fill="#bfbfbf" stroke="black" points="0,-76.5 0,-95.5 202,-95.5 202,-76.5 0,-76.5"/>
<text text-anchor="middle" x="101" y="-83.5" font-family="Helvetica,sans-Serif" font-size="10.00">cellsociety_team02.GridView.makeGrid</text>
</g>
<!-- Node2 -->
<g id="node2" class="node"><title>Node2</title>
<g id="a_node2"><a xlink:href="../../d4/de6/classcellsociety__team02_1_1_draw.html#a28e6cca2ff571def700126ecfc1ec8e4" target="_top" xlink:title="cellsociety_team02.Draw.draw\lShape">
<polygon fill="white" stroke="black" points="247.5,-140 247.5,-170 408.5,-170 408.5,-140 247.5,-140"/>
<text text-anchor="start" x="255.5" y="-158" font-family="Helvetica,sans-Serif" font-size="10.00">cellsociety_team02.Draw.draw</text>
<text text-anchor="middle" x="328" y="-147" font-family="Helvetica,sans-Serif" font-size="10.00">Shape</text>
</a>
</g>
</g>
<!-- Node1&#45;&gt;Node2 -->
<g id="edge1" class="edge"><title>Node1&#45;&gt;Node2</title>
<path fill="none" stroke="midnightblue" d="M133.285,-95.5942C168.013,-106.244 224.848,-123.673 267.997,-136.906"/>
<polygon fill="midnightblue" stroke="midnightblue" points="267.227,-140.331 277.814,-139.916 269.28,-133.638 267.227,-140.331"/>
</g>
<!-- Node7 -->
<g id="node7" class="node"><title>Node7</title>
<g id="a_node7"><a xlink:href="../../d0/d0a/class_patch_1_1_patch.html#ab49e64fb74f1147d834efd81af480fae" target="_top" xlink:title="Patch.Patch.getCurrentCell">
<polygon fill="white" stroke="black" points="256,-98.5 256,-117.5 400,-117.5 400,-98.5 256,-98.5"/>
<text text-anchor="middle" x="328" y="-105.5" font-family="Helvetica,sans-Serif" font-size="10.00">Patch.Patch.getCurrentCell</text>
</a>
</g>
</g>
<!-- Node1&#45;&gt;Node7 -->
<g id="edge6" class="edge"><title>Node1&#45;&gt;Node7</title>
<path fill="none" stroke="midnightblue" d="M199.38,-95.5216C214.819,-97.0312 230.646,-98.5787 245.668,-100.048"/>
<polygon fill="midnightblue" stroke="midnightblue" points="245.631,-103.561 255.924,-101.05 246.313,-96.5938 245.631,-103.561"/>
</g>
<!-- Node8 -->
<g id="node8" class="node"><title>Node8</title>
<g id="a_node8"><a xlink:href="../../d9/daf/classcellsociety__team02_1_1_grid_view.html#a5ef1c1816231c667f8f68bc466d20495" target="_top" xlink:title="cellsociety_team02.GridView.get\lLocationColor">
<polygon fill="white" stroke="black" points="242.5,-49 242.5,-79 413.5,-79 413.5,-49 242.5,-49"/>
<text text-anchor="start" x="250.5" y="-67" font-family="Helvetica,sans-Serif" font-size="10.00">cellsociety_team02.GridView.get</text>
<text text-anchor="middle" x="328" y="-56" font-family="Helvetica,sans-Serif" font-size="10.00">LocationColor</text>
</a>
</g>
</g>
<!-- Node1&#45;&gt;Node8 -->
<g id="edge7" class="edge"><title>Node1&#45;&gt;Node8</title>
<path fill="none" stroke="midnightblue" d="M199.38,-76.4784C210.18,-75.4224 221.17,-74.3478 231.941,-73.2947"/>
<polygon fill="midnightblue" stroke="midnightblue" points="232.576,-76.7494 242.188,-72.2928 231.894,-69.7826 232.576,-76.7494"/>
</g>
<!-- Node11 -->
<g id="node11" class="node"><title>Node11</title>
<g id="a_node11"><a xlink:href="../../df/d71/classcellsociety__team02_1_1_grid_model.html#a8d88a111696cace3228ee162fc9199ec" target="_top" xlink:title="cellsociety_team02.GridModel.get\lPatches">
<polygon fill="white" stroke="black" points="238.5,-0 238.5,-30 417.5,-30 417.5,-0 238.5,-0"/>
<text text-anchor="start" x="246.5" y="-18" font-family="Helvetica,sans-Serif" font-size="10.00">cellsociety_team02.GridModel.get</text>
<text text-anchor="middle" x="328" y="-7" font-family="Helvetica,sans-Serif" font-size="10.00">Patches</text>
</a>
</g>
</g>
<!-- Node1&#45;&gt;Node11 -->
<g id="edge10" class="edge"><title>Node1&#45;&gt;Node11</title>
<path fill="none" stroke="midnightblue" d="M127.896,-76.4503C155.129,-66.5492 199.315,-50.8849 238,-39 244.836,-36.8998 251.998,-34.8015 259.162,-32.7684"/>
<polygon fill="midnightblue" stroke="midnightblue" points="260.218,-36.1077 268.905,-30.0425 258.331,-29.3666 260.218,-36.1077"/>
</g>
<!-- Node3 -->
<g id="node3" class="node"><title>Node3</title>
<g id="a_node3"><a xlink:href="../../d4/de6/classcellsociety__team02_1_1_draw.html#a194b51f8c48e33b98a53b48b0d1c105e" target="_top" xlink:title="cellsociety_team02.Draw.make\lHexagon">
<polygon fill="white" stroke="black" points="454.5,-191 454.5,-221 619.5,-221 619.5,-191 454.5,-191"/>
<text text-anchor="start" x="462.5" y="-209" font-family="Helvetica,sans-Serif" font-size="10.00">cellsociety_team02.Draw.make</text>
<text text-anchor="middle" x="537" y="-198" font-family="Helvetica,sans-Serif" font-size="10.00">Hexagon</text>
</a>
</g>
</g>
<!-- Node2&#45;&gt;Node3 -->
<g id="edge2" class="edge"><title>Node2&#45;&gt;Node3</title>
<path fill="none" stroke="midnightblue" d="M389.987,-170.026C413.571,-175.836 440.719,-182.525 465.16,-188.547"/>
<polygon fill="midnightblue" stroke="midnightblue" points="464.544,-192 475.091,-190.994 466.219,-185.203 464.544,-192"/>
</g>
<!-- Node4 -->
<g id="node4" class="node"><title>Node4</title>
<g id="a_node4"><a xlink:href="../../d4/de6/classcellsociety__team02_1_1_draw.html#a9fba740a0433f5893be019ecf23d486c" target="_top" xlink:title="cellsociety_team02.Draw.make\lRectangle">
<polygon fill="white" stroke="black" points="454.5,-142 454.5,-172 619.5,-172 619.5,-142 454.5,-142"/>
<text text-anchor="start" x="462.5" y="-160" font-family="Helvetica,sans-Serif" font-size="10.00">cellsociety_team02.Draw.make</text>
<text text-anchor="middle" x="537" y="-149" font-family="Helvetica,sans-Serif" font-size="10.00">Rectangle</text>
</a>
</g>
</g>
<!-- Node2&#45;&gt;Node4 -->
<g id="edge3" class="edge"><title>Node2&#45;&gt;Node4</title>
<path fill="none" stroke="midnightblue" d="M408.736,-155.77C420.275,-155.882 432.231,-155.997 443.987,-156.111"/>
<polygon fill="midnightblue" stroke="midnightblue" points="444.218,-159.613 454.251,-156.21 444.286,-152.614 444.218,-159.613"/>
</g>
<!-- Node5 -->
<g id="node5" class="node"><title>Node5</title>
<g id="a_node5"><a xlink:href="../../d4/de6/classcellsociety__team02_1_1_draw.html#a49fefdfc30cc8ed10caf60df63faac59" target="_top" xlink:title="cellsociety_team02.Draw.make\lTriangle">
<polygon fill="white" stroke="black" points="454.5,-93 454.5,-123 619.5,-123 619.5,-93 454.5,-93"/>
<text text-anchor="start" x="462.5" y="-111" font-family="Helvetica,sans-Serif" font-size="10.00">cellsociety_team02.Draw.make</text>
<text text-anchor="middle" x="537" y="-100" font-family="Helvetica,sans-Serif" font-size="10.00">Triangle</text>
</a>
</g>
</g>
<!-- Node2&#45;&gt;Node5 -->
<g id="edge4" class="edge"><title>Node2&#45;&gt;Node5</title>
<path fill="none" stroke="midnightblue" d="M395.065,-140C415.698,-135.315 438.625,-130.109 459.89,-125.281"/>
<polygon fill="midnightblue" stroke="midnightblue" points="460.876,-128.646 469.852,-123.019 459.326,-121.82 460.876,-128.646"/>
</g>
<!-- Node6 -->
<g id="node6" class="node"><title>Node6</title>
<g id="a_node6"><a xlink:href="../../d4/de6/classcellsociety__team02_1_1_draw.html#abc4794b50b65fcbf55017ad2dd2fa11d" target="_top" xlink:title="cellsociety_team02.Draw.make\lTriangleRow">
<polygon fill="white" stroke="black" points="656.5,-93 656.5,-123 821.5,-123 821.5,-93 656.5,-93"/>
<text text-anchor="start" x="664.5" y="-111" font-family="Helvetica,sans-Serif" font-size="10.00">cellsociety_team02.Draw.make</text>
<text text-anchor="middle" x="739" y="-100" font-family="Helvetica,sans-Serif" font-size="10.00">TriangleRow</text>
</a>
</g>
</g>
<!-- Node5&#45;&gt;Node6 -->
<g id="edge5" class="edge"><title>Node5&#45;&gt;Node6</title>
<path fill="none" stroke="midnightblue" d="M619.636,-108C628.331,-108 637.218,-108 646.021,-108"/>
<polygon fill="midnightblue" stroke="midnightblue" points="646.301,-111.5 656.301,-108 646.301,-104.5 646.301,-111.5"/>
</g>
<!-- Node9 -->
<g id="node9" class="node"><title>Node9</title>
<g id="a_node9"><a xlink:href="../../d0/d0a/class_patch_1_1_patch.html#a26da12e997d44cb58fcdf89f19b44a98" target="_top" xlink:title="Patch.Patch.getColor">
<polygon fill="white" stroke="black" points="479,-54.5 479,-73.5 595,-73.5 595,-54.5 479,-54.5"/>
<text text-anchor="middle" x="537" y="-61.5" font-family="Helvetica,sans-Serif" font-size="10.00">Patch.Patch.getColor</text>
</a>
</g>
</g>
<!-- Node8&#45;&gt;Node9 -->
<g id="edge8" class="edge"><title>Node8&#45;&gt;Node9</title>
<path fill="none" stroke="midnightblue" d="M413.792,-64C432.086,-64 451.186,-64 468.703,-64"/>
<polygon fill="midnightblue" stroke="midnightblue" points="468.816,-67.5001 478.815,-64 468.815,-60.5001 468.816,-67.5001"/>
</g>
<!-- Node10 -->
<g id="node10" class="node"><title>Node10</title>
<g id="a_node10"><a xlink:href="../../d5/d5c/class_cell_1_1_cell.html#adfe2be1b83b37c210944b70eabb3b485" target="_top" xlink:title="Cell.Cell.getColor">
<polygon fill="white" stroke="black" points="488,-16.5 488,-35.5 586,-35.5 586,-16.5 488,-16.5"/>
<text text-anchor="middle" x="537" y="-23.5" font-family="Helvetica,sans-Serif" font-size="10.00">Cell.Cell.getColor</text>
</a>
</g>
</g>
<!-- Node8&#45;&gt;Node10 -->
<g id="edge9" class="edge"><title>Node8&#45;&gt;Node10</title>
<path fill="none" stroke="midnightblue" d="M410.812,-48.9814C433.246,-44.8631 457.103,-40.4835 477.907,-36.6644"/>
<polygon fill="midnightblue" stroke="midnightblue" points="478.652,-40.0863 487.855,-34.8382 477.388,-33.2013 478.652,-40.0863"/>
</g>
</g>
</svg>
        <g id="navigator" transform="translate(0 0)" fill="#404254">
                <rect fill="#f2f5e9" fill-opacity="0.5" stroke="#606060" stroke-width=".5" x="0" y="0" width="60" height="60"/>
                <use id="zoomplus" xlink:href="#zoomPlus" x="17" y="9" onmousedown="handleZoom(evt,'in')"/>
                <use id="zoomminus" xlink:href="#zoomMin" x="42" y="9" onmousedown="handleZoom(evt,'out')"/>
                <use id="reset" xlink:href="#resetDef" x="30" y="36" onmousedown="handleReset()"/>
                <g id="arrowUp" xlink:href="#dirArrow" transform="translate(30 24)" onmousedown="handlePan(0,-1)">
                  <use xlink:href="#rim" fill="#404040">
                        <set attributeName="fill" to="#808080" begin="arrowUp.mouseover" end="arrowUp.mouseout"/>
                  </use>
                  <path fill="none" stroke="white" stroke-width="1.5" d="M0,-3.0v7 M-2.5,-0.5L0,-3.0L2.5,-0.5"/>
                </g>
                <g id="arrowRight" xlink:href="#dirArrow" transform="rotate(90) translate(36 -43)" onmousedown="handlePan(1,0)">
                  <use xlink:href="#rim" fill="#404040">
                        <set attributeName="fill" to="#808080" begin="arrowRight.mouseover" end="arrowRight.mouseout"/>
                  </use>
                  <path fill="none" stroke="white" stroke-width="1.5" d="M0,-3.0v7 M-2.5,-0.5L0,-3.0L2.5,-0.5"/>
                </g>
                <g id="arrowDown" xlink:href="#dirArrow" transform="rotate(180) translate(-30 -48)" onmousedown="handlePan(0,1)">
                  <use xlink:href="#rim" fill="#404040">
                        <set attributeName="fill" to="#808080" begin="arrowDown.mouseover" end="arrowDown.mouseout"/>
                  </use>
                  <path fill="none" stroke="white" stroke-width="1.5" d="M0,-3.0v7 M-2.5,-0.5L0,-3.0L2.5,-0.5"/>
                </g>
                <g id="arrowLeft" xlink:href="#dirArrow" transform="rotate(270) translate(-36 17)" onmousedown="handlePan(-1,0)">
                  <use xlink:href="#rim" fill="#404040">
                        <set attributeName="fill" to="#808080" begin="arrowLeft.mouseover" end="arrowLeft.mouseout"/>
                  </use>
                  <path fill="none" stroke="white" stroke-width="1.5" d="M0,-3.0v7 M-2.5,-0.5L0,-3.0L2.5,-0.5"/>
                </g>
        </g>
        <svg viewBox="0 0 15 15" width="100%" height="30px" preserveAspectRatio="xMaxYMin meet">
         <g id="arrow_out" transform="scale(0.3 0.3)">
          <a xlink:href="classcellsociety__team02_1_1_grid_view_ad4fe99d3b1bf9b7ed1cd8d65145f5d90_cgraph_org.svg" target="_base">
           <rect id="button" ry="5" rx="5" y="6" x="6" height="38" width="38"
                fill="#f2f5e9" fill-opacity="0.5" stroke="#606060" stroke-width="1.0"/>
           <path id="arrow"
             d="M 11.500037,31.436501 C 11.940474,20.09759 22.043105,11.32322 32.158766,21.979434 L 37.068811,17.246167 C 37.068811,17.246167 37.088388,32 37.088388,32 L 22.160133,31.978069 C 22.160133,31.978069 26.997745,27.140456 26.997745,27.140456 C 18.528582,18.264221 13.291696,25.230495 11.500037,31.436501 z"
             style="fill:#404040;"/>
          </a>
         </g>
        </svg>
</svg>
