<?xml version="1.0" encoding="UTF-8" standalone="no"?>
<!DOCTYPE svg PUBLIC "-//W3C//DTD SVG 1.1//EN"
 "http://www.w3.org/Graphics/SVG/1.1/DTD/svg11.dtd">
<!-- Generated by graphviz version 2.36.0 (20140111.2315)
 -->
<!-- Title: cellsociety_team02.GridView.step Pages: 1 -->
<svg width="1086pt" height="387pt"
 viewBox="0.00 0.00 1086.00 387.00" xmlns="http://www.w3.org/2000/svg" xmlns:xlink="http://www.w3.org/1999/xlink">
<g id="graph0" class="graph" transform="scale(1 1) rotate(0) translate(4 383)">
<title>cellsociety_team02.GridView.step</title>
<polygon fill="white" stroke="none" points="-4,4 -4,-383 1082,-383 1082,4 -4,4"/>
<!-- Node1 -->
<g id="node1" class="node"><title>Node1</title>
<polygon fill="#bfbfbf" stroke="black" points="0,-183.5 0,-202.5 176,-202.5 176,-183.5 0,-183.5"/>
<text text-anchor="middle" x="88" y="-190.5" font-family="Helvetica,sans-Serif" font-size="10.00">cellsociety_team02.GridView.step</text>
</g>
<!-- Node2 -->
<g id="node2" class="node"><title>Node2</title>
<g id="a_node2"><a xlink:href="../../d9/daf/classcellsociety__team02_1_1_grid_view.html#acf332ae230af02cadc77649e0b6fc0ff" target="_top" xlink:title="cellsociety_team02.GridView.make\lGraph">
<polygon fill="white" stroke="black" points="222,-294 222,-324 404,-324 404,-294 222,-294"/>
<text text-anchor="start" x="230" y="-312" font-family="Helvetica,sans-Serif" font-size="10.00">cellsociety_team02.GridView.make</text>
<text text-anchor="middle" x="313" y="-301" font-family="Helvetica,sans-Serif" font-size="10.00">Graph</text>
</a>
</g>
</g>
<!-- Node1&#45;&gt;Node2 -->
<g id="edge1" class="edge"><title>Node1&#45;&gt;Node2</title>
<path fill="none" stroke="midnightblue" d="M107.629,-202.691C144.114,-221.669 225.632,-264.073 273.964,-289.214"/>
<polygon fill="midnightblue" stroke="midnightblue" points="272.388,-292.34 282.874,-293.849 275.618,-286.13 272.388,-292.34"/>
</g>
<!-- Node7 -->
<g id="node7" class="node"><title>Node7</title>
<g id="a_node7"><a xlink:href="../../d9/daf/classcellsociety__team02_1_1_grid_view.html#ad4fe99d3b1bf9b7ed1cd8d65145f5d90" target="_top" xlink:title="cellsociety_team02.GridView.makeGrid">
<polygon fill="white" stroke="black" points="212,-183.5 212,-202.5 414,-202.5 414,-183.5 212,-183.5"/>
<text text-anchor="middle" x="313" y="-190.5" font-family="Helvetica,sans-Serif" font-size="10.00">cellsociety_team02.GridView.makeGrid</text>
</a>
</g>
</g>
<!-- Node1&#45;&gt;Node7 -->
<g id="edge6" class="edge"><title>Node1&#45;&gt;Node7</title>
<path fill="none" stroke="midnightblue" d="M176.176,-193C184.605,-193 193.229,-193 201.842,-193"/>
<polygon fill="midnightblue" stroke="midnightblue" points="201.936,-196.5 211.936,-193 201.936,-189.5 201.936,-196.5"/>
</g>
<!-- Node17 -->
<g id="node17" class="node"><title>Node17</title>
<g id="a_node17"><a xlink:href="../../df/d71/classcellsociety__team02_1_1_grid_model.html#a866f20a5152d615d686b4412ed6d4e46" target="_top" xlink:title="cellsociety_team02.GridModel.update">
<polygon fill="white" stroke="black" points="214.5,-54.5 214.5,-73.5 411.5,-73.5 411.5,-54.5 214.5,-54.5"/>
<text text-anchor="middle" x="313" y="-61.5" font-family="Helvetica,sans-Serif" font-size="10.00">cellsociety_team02.GridModel.update</text>
</a>
</g>
</g>
<!-- Node1&#45;&gt;Node17 -->
<g id="edge17" class="edge"><title>Node1&#45;&gt;Node17</title>
<path fill="none" stroke="midnightblue" d="M105.761,-183.304C144.519,-160.883 240.535,-105.341 286.579,-78.7056"/>
<polygon fill="midnightblue" stroke="midnightblue" points="288.445,-81.6695 295.348,-73.6325 284.94,-75.6102 288.445,-81.6695"/>
</g>
<!-- Node3 -->
<g id="node3" class="node"><title>Node3</title>
<g id="a_node3"><a xlink:href="../../df/d71/classcellsociety__team02_1_1_grid_model.html#aaa16e9ad7b7de321cfc772caf45dcc89" target="_top" xlink:title="cellsociety_team02.GridModel.addData">
<polygon fill="white" stroke="black" points="450,-351.5 450,-370.5 654,-370.5 654,-351.5 450,-351.5"/>
<text text-anchor="middle" x="552" y="-358.5" font-family="Helvetica,sans-Serif" font-size="10.00">cellsociety_team02.GridModel.addData</text>
</a>
</g>
</g>
<!-- Node2&#45;&gt;Node3 -->
<g id="edge2" class="edge"><title>Node2&#45;&gt;Node3</title>
<path fill="none" stroke="midnightblue" d="M382.55,-324.041C419.099,-332.06 463.406,-341.781 497.405,-349.241"/>
<polygon fill="midnightblue" stroke="midnightblue" points="497.088,-352.754 507.606,-351.479 498.588,-345.917 497.088,-352.754"/>
</g>
<!-- Node4 -->
<g id="node4" class="node"><title>Node4</title>
<g id="a_node4"><a xlink:href="../../df/d71/classcellsociety__team02_1_1_grid_model.html#abf618b18bf0b7c25d5717317c00b9269" target="_top" xlink:title="cellsociety_team02.GridModel.num\lState">
<polygon fill="white" stroke="black" points="690.5,-349 690.5,-379 875.5,-379 875.5,-349 690.5,-349"/>
<text text-anchor="start" x="698.5" y="-367" font-family="Helvetica,sans-Serif" font-size="10.00">cellsociety_team02.GridModel.num</text>
<text text-anchor="middle" x="783" y="-356" font-family="Helvetica,sans-Serif" font-size="10.00">State</text>
</a>
</g>
</g>
<!-- Node3&#45;&gt;Node4 -->
<g id="edge3" class="edge"><title>Node3&#45;&gt;Node4</title>
<path fill="none" stroke="midnightblue" d="M654.109,-362.325C662.807,-362.439 671.61,-362.554 680.312,-362.668"/>
<polygon fill="midnightblue" stroke="midnightblue" points="680.425,-366.17 690.47,-362.801 680.517,-359.17 680.425,-366.17"/>
</g>
<!-- Node5 -->
<g id="node5" class="node"><title>Node5</title>
<g id="a_node5"><a xlink:href="../../d0/d0a/class_patch_1_1_patch.html#ab49e64fb74f1147d834efd81af480fae" target="_top" xlink:title="Patch.Patch.getCurrentCell">
<polygon fill="white" stroke="black" points="923,-313.5 923,-332.5 1067,-332.5 1067,-313.5 923,-313.5"/>
<text text-anchor="middle" x="995" y="-320.5" font-family="Helvetica,sans-Serif" font-size="10.00">Patch.Patch.getCurrentCell</text>
</a>
</g>
</g>
<!-- Node4&#45;&gt;Node5 -->
<g id="edge4" class="edge"><title>Node4&#45;&gt;Node5</title>
<path fill="none" stroke="midnightblue" d="M861.004,-348.966C885.476,-344.188 912.138,-338.983 935.12,-334.496"/>
<polygon fill="midnightblue" stroke="midnightblue" points="935.918,-337.906 945.062,-332.554 934.577,-331.036 935.918,-337.906"/>
</g>
<!-- Node6 -->
<g id="node6" class="node"><title>Node6</title>
<g id="a_node6"><a xlink:href="../../d5/d5c/class_cell_1_1_cell.html#a04d500ffc9f19932a4ff0738f2f1dbc6" target="_top" xlink:title="Cell.Cell.getCurrentState">
<polygon fill="white" stroke="black" points="927.5,-354.5 927.5,-373.5 1062.5,-373.5 1062.5,-354.5 927.5,-354.5"/>
<text text-anchor="middle" x="995" y="-361.5" font-family="Helvetica,sans-Serif" font-size="10.00">Cell.Cell.getCurrentState</text>
</a>
</g>
</g>
<!-- Node4&#45;&gt;Node6 -->
<g id="edge5" class="edge"><title>Node4&#45;&gt;Node6</title>
<path fill="none" stroke="midnightblue" d="M875.804,-364C889.611,-364 903.729,-364 917.18,-364"/>
<polygon fill="midnightblue" stroke="midnightblue" points="917.32,-367.5 927.32,-364 917.32,-360.5 917.32,-367.5"/>
</g>
<!-- Node7&#45;&gt;Node5 -->
<g id="edge12" class="edge"><title>Node7&#45;&gt;Node5</title>
<path fill="none" stroke="midnightblue" d="M334.339,-202.505C360.587,-214.471 407.892,-235.028 450,-248 554.304,-280.132 581.995,-284.29 690,-300 765.043,-310.915 851.308,-316.817 912.729,-319.898"/>
<polygon fill="midnightblue" stroke="midnightblue" points="912.591,-323.395 922.75,-320.387 912.932,-316.404 912.591,-323.395"/>
</g>
<!-- Node8 -->
<g id="node8" class="node"><title>Node8</title>
<g id="a_node8"><a xlink:href="../../d4/de6/classcellsociety__team02_1_1_draw.html#a28e6cca2ff571def700126ecfc1ec8e4" target="_top" xlink:title="cellsociety_team02.Draw.draw\lShape">
<polygon fill="white" stroke="black" points="471.5,-209 471.5,-239 632.5,-239 632.5,-209 471.5,-209"/>
<text text-anchor="start" x="479.5" y="-227" font-family="Helvetica,sans-Serif" font-size="10.00">cellsociety_team02.Draw.draw</text>
<text text-anchor="middle" x="552" y="-216" font-family="Helvetica,sans-Serif" font-size="10.00">Shape</text>
</a>
</g>
</g>
<!-- Node7&#45;&gt;Node8 -->
<g id="edge7" class="edge"><title>Node7&#45;&gt;Node8</title>
<path fill="none" stroke="midnightblue" d="M386.718,-202.512C410.278,-205.593 436.691,-209.048 461.332,-212.271"/>
<polygon fill="midnightblue" stroke="midnightblue" points="461.035,-215.762 471.404,-213.589 461.943,-208.821 461.035,-215.762"/>
</g>
<!-- Node13 -->
<g id="node13" class="node"><title>Node13</title>
<g id="a_node13"><a xlink:href="../../d9/daf/classcellsociety__team02_1_1_grid_view.html#a5ef1c1816231c667f8f68bc466d20495" target="_top" xlink:title="cellsociety_team02.GridView.get\lLocationColor">
<polygon fill="white" stroke="black" points="466.5,-152 466.5,-182 637.5,-182 637.5,-152 466.5,-152"/>
<text text-anchor="start" x="474.5" y="-170" font-family="Helvetica,sans-Serif" font-size="10.00">cellsociety_team02.GridView.get</text>
<text text-anchor="middle" x="552" y="-159" font-family="Helvetica,sans-Serif" font-size="10.00">LocationColor</text>
</a>
</g>
</g>
<!-- Node7&#45;&gt;Node13 -->
<g id="edge13" class="edge"><title>Node7&#45;&gt;Node13</title>
<path fill="none" stroke="midnightblue" d="M400.904,-183.466C418.962,-181.485 438.076,-179.388 456.394,-177.379"/>
<polygon fill="midnightblue" stroke="midnightblue" points="456.919,-180.842 466.478,-176.272 456.156,-173.884 456.919,-180.842"/>
</g>
<!-- Node16 -->
<g id="node16" class="node"><title>Node16</title>
<g id="a_node16"><a xlink:href="../../df/d71/classcellsociety__team02_1_1_grid_model.html#a8d88a111696cace3228ee162fc9199ec" target="_top" xlink:title="cellsociety_team02.GridModel.get\lPatches">
<polygon fill="white" stroke="black" points="462.5,-103 462.5,-133 641.5,-133 641.5,-103 462.5,-103"/>
<text text-anchor="start" x="470.5" y="-121" font-family="Helvetica,sans-Serif" font-size="10.00">cellsociety_team02.GridModel.get</text>
<text text-anchor="middle" x="552" y="-110" font-family="Helvetica,sans-Serif" font-size="10.00">Patches</text>
</a>
</g>
</g>
<!-- Node7&#45;&gt;Node16 -->
<g id="edge16" class="edge"><title>Node7&#45;&gt;Node16</title>
<path fill="none" stroke="midnightblue" d="M336.798,-183.445C363.571,-172.461 409.479,-154.359 450,-142 457.333,-139.763 465.018,-137.607 472.736,-135.567"/>
<polygon fill="midnightblue" stroke="midnightblue" points="473.695,-138.934 482.504,-133.047 471.947,-132.156 473.695,-138.934"/>
</g>
<!-- Node9 -->
<g id="node9" class="node"><title>Node9</title>
<g id="a_node9"><a xlink:href="../../d4/de6/classcellsociety__team02_1_1_draw.html#a194b51f8c48e33b98a53b48b0d1c105e" target="_top" xlink:title="cellsociety_team02.Draw.make\lHexagon">
<polygon fill="white" stroke="black" points="700.5,-261 700.5,-291 865.5,-291 865.5,-261 700.5,-261"/>
<text text-anchor="start" x="708.5" y="-279" font-family="Helvetica,sans-Serif" font-size="10.00">cellsociety_team02.Draw.make</text>
<text text-anchor="middle" x="783" y="-268" font-family="Helvetica,sans-Serif" font-size="10.00">Hexagon</text>
</a>
</g>
</g>
<!-- Node8&#45;&gt;Node9 -->
<g id="edge8" class="edge"><title>Node8&#45;&gt;Node9</title>
<path fill="none" stroke="midnightblue" d="M619.236,-239.041C646.414,-245.212 678.032,-252.391 706.133,-258.772"/>
<polygon fill="midnightblue" stroke="midnightblue" points="705.386,-262.192 715.913,-260.993 706.936,-255.366 705.386,-262.192"/>
</g>
<!-- Node10 -->
<g id="node10" class="node"><title>Node10</title>
<g id="a_node10"><a xlink:href="../../d4/de6/classcellsociety__team02_1_1_draw.html#a9fba740a0433f5893be019ecf23d486c" target="_top" xlink:title="cellsociety_team02.Draw.make\lRectangle">
<polygon fill="white" stroke="black" points="700.5,-212 700.5,-242 865.5,-242 865.5,-212 700.5,-212"/>
<text text-anchor="start" x="708.5" y="-230" font-family="Helvetica,sans-Serif" font-size="10.00">cellsociety_team02.Draw.make</text>
<text text-anchor="middle" x="783" y="-219" font-family="Helvetica,sans-Serif" font-size="10.00">Rectangle</text>
</a>
</g>
</g>
<!-- Node8&#45;&gt;Node10 -->
<g id="edge9" class="edge"><title>Node8&#45;&gt;Node10</title>
<path fill="none" stroke="midnightblue" d="M632.772,-225.045C651.263,-225.287 671.089,-225.547 690.055,-225.795"/>
<polygon fill="midnightblue" stroke="midnightblue" points="690.14,-229.297 700.185,-225.928 690.232,-222.297 690.14,-229.297"/>
</g>
<!-- Node11 -->
<g id="node11" class="node"><title>Node11</title>
<g id="a_node11"><a xlink:href="../../d4/de6/classcellsociety__team02_1_1_draw.html#a49fefdfc30cc8ed10caf60df63faac59" target="_top" xlink:title="cellsociety_team02.Draw.make\lTriangle">
<polygon fill="white" stroke="black" points="700.5,-163 700.5,-193 865.5,-193 865.5,-163 700.5,-163"/>
<text text-anchor="start" x="708.5" y="-181" font-family="Helvetica,sans-Serif" font-size="10.00">cellsociety_team02.Draw.make</text>
<text text-anchor="middle" x="783" y="-170" font-family="Helvetica,sans-Serif" font-size="10.00">Triangle</text>
</a>
</g>
</g>
<!-- Node8&#45;&gt;Node11 -->
<g id="edge10" class="edge"><title>Node8&#45;&gt;Node11</title>
<path fill="none" stroke="midnightblue" d="M627.983,-208.938C650.14,-204.487 674.548,-199.584 697.274,-195.019"/>
<polygon fill="midnightblue" stroke="midnightblue" points="698.125,-198.418 707.24,-193.017 696.746,-191.555 698.125,-198.418"/>
</g>
<!-- Node12 -->
<g id="node12" class="node"><title>Node12</title>
<g id="a_node12"><a xlink:href="../../d4/de6/classcellsociety__team02_1_1_draw.html#abc4794b50b65fcbf55017ad2dd2fa11d" target="_top" xlink:title="cellsociety_team02.Draw.make\lTriangleRow">
<polygon fill="white" stroke="black" points="912.5,-163 912.5,-193 1077.5,-193 1077.5,-163 912.5,-163"/>
<text text-anchor="start" x="920.5" y="-181" font-family="Helvetica,sans-Serif" font-size="10.00">cellsociety_team02.Draw.make</text>
<text text-anchor="middle" x="995" y="-170" font-family="Helvetica,sans-Serif" font-size="10.00">TriangleRow</text>
</a>
</g>
</g>
<!-- Node11&#45;&gt;Node12 -->
<g id="edge11" class="edge"><title>Node11&#45;&gt;Node12</title>
<path fill="none" stroke="midnightblue" d="M865.793,-178C877.759,-178 890.149,-178 902.297,-178"/>
<polygon fill="midnightblue" stroke="midnightblue" points="902.43,-181.5 912.43,-178 902.43,-174.5 902.43,-181.5"/>
</g>
<!-- Node14 -->
<g id="node14" class="node"><title>Node14</title>
<g id="a_node14"><a xlink:href="../../d0/d0a/class_patch_1_1_patch.html#a26da12e997d44cb58fcdf89f19b44a98" target="_top" xlink:title="Patch.Patch.getColor">
<polygon fill="white" stroke="black" points="725,-124.5 725,-143.5 841,-143.5 841,-124.5 725,-124.5"/>
<text text-anchor="middle" x="783" y="-131.5" font-family="Helvetica,sans-Serif" font-size="10.00">Patch.Patch.getColor</text>
</a>
</g>
</g>
<!-- Node13&#45;&gt;Node14 -->
<g id="edge14" class="edge"><title>Node13&#45;&gt;Node14</title>
<path fill="none" stroke="midnightblue" d="M637.621,-154.806C663.039,-151.143 690.569,-147.176 714.707,-143.697"/>
<polygon fill="midnightblue" stroke="midnightblue" points="715.429,-147.129 724.827,-142.239 714.43,-140.201 715.429,-147.129"/>
</g>
<!-- Node15 -->
<g id="node15" class="node"><title>Node15</title>
<g id="a_node15"><a xlink:href="../../d5/d5c/class_cell_1_1_cell.html#adfe2be1b83b37c210944b70eabb3b485" target="_top" xlink:title="Cell.Cell.getColor">
<polygon fill="white" stroke="black" points="734,-86.5 734,-105.5 832,-105.5 832,-86.5 734,-86.5"/>
<text text-anchor="middle" x="783" y="-93.5" font-family="Helvetica,sans-Serif" font-size="10.00">Cell.Cell.getColor</text>
</a>
</g>
</g>
<!-- Node13&#45;&gt;Node15 -->
<g id="edge15" class="edge"><title>Node13&#45;&gt;Node15</title>
<path fill="none" stroke="midnightblue" d="M628.363,-151.926C637.191,-149.119 645.922,-145.833 654,-142 672.069,-133.426 671.768,-123.221 690,-115 700.579,-110.23 712.385,-106.644 723.919,-103.952"/>
<polygon fill="midnightblue" stroke="midnightblue" points="724.899,-107.322 733.946,-101.809 723.436,-100.476 724.899,-107.322"/>
</g>
<!-- Node18 -->
<g id="node18" class="node"><title>Node18</title>
<g id="a_node18"><a xlink:href="../../df/d71/classcellsociety__team02_1_1_grid_model.html#ab59dfb960d9ac9cc5b875ae9cda15f92" target="_top" xlink:title="cellsociety_team02.GridModel.set\lCurrentToFuture">
<polygon fill="white" stroke="black" points="463,-49 463,-79 641,-79 641,-49 463,-49"/>
<text text-anchor="start" x="471" y="-67" font-family="Helvetica,sans-Serif" font-size="10.00">cellsociety_team02.GridModel.set</text>
<text text-anchor="middle" x="552" y="-56" font-family="Helvetica,sans-Serif" font-size="10.00">CurrentToFuture</text>
</a>
</g>
</g>
<!-- Node17&#45;&gt;Node18 -->
<g id="edge18" class="edge"><title>Node17&#45;&gt;Node18</title>
<path fill="none" stroke="midnightblue" d="M411.765,-64C425.279,-64 439.164,-64 452.688,-64"/>
<polygon fill="midnightblue" stroke="midnightblue" points="452.947,-67.5001 462.947,-64 452.947,-60.5001 452.947,-67.5001"/>
</g>
<!-- Node20 -->
<g id="node20" class="node"><title>Node20</title>
<g id="a_node20"><a xlink:href="../../df/d71/classcellsociety__team02_1_1_grid_model.html#aefe267680baa28646953d3fc833c9430" target="_top" xlink:title="cellsociety_team02.GridModel.update\lPatchesAndCells">
<polygon fill="white" stroke="black" points="453.5,-0 453.5,-30 650.5,-30 650.5,-0 453.5,-0"/>
<text text-anchor="start" x="461.5" y="-18" font-family="Helvetica,sans-Serif" font-size="10.00">cellsociety_team02.GridModel.update</text>
<text text-anchor="middle" x="552" y="-7" font-family="Helvetica,sans-Serif" font-size="10.00">PatchesAndCells</text>
</a>
</g>
</g>
<!-- Node17&#45;&gt;Node20 -->
<g id="edge20" class="edge"><title>Node17&#45;&gt;Node20</title>
<path fill="none" stroke="midnightblue" d="M359.977,-54.4942C390.615,-48.1598 431.762,-39.6527 468.02,-32.1562"/>
<polygon fill="midnightblue" stroke="midnightblue" points="469.02,-35.5236 478.104,-30.0713 467.603,-28.6685 469.02,-35.5236"/>
</g>
<!-- Node19 -->
<g id="node19" class="node"><title>Node19</title>
<g id="a_node19"><a xlink:href="../../d0/d0a/class_patch_1_1_patch.html#a5e6d56a2d8b59b7cffec33cc1b76019c" target="_top" xlink:title="Patch.Patch.currentToFuture">
<polygon fill="white" stroke="black" points="708.5,-48.5 708.5,-67.5 857.5,-67.5 857.5,-48.5 708.5,-48.5"/>
<text text-anchor="middle" x="783" y="-55.5" font-family="Helvetica,sans-Serif" font-size="10.00">Patch.Patch.currentToFuture</text>
</a>
</g>
</g>
<!-- Node18&#45;&gt;Node19 -->
<g id="edge19" class="edge"><title>Node18&#45;&gt;Node19</title>
<path fill="none" stroke="midnightblue" d="M641.21,-61.6888C659.92,-61.1986 679.621,-60.6824 698.163,-60.1966"/>
<polygon fill="midnightblue" stroke="midnightblue" points="698.427,-63.691 708.332,-59.9302 698.244,-56.6934 698.427,-63.691"/>
</g>
<!-- Node21 -->
<g id="node21" class="node"><title>Node21</title>
<g id="a_node21"><a xlink:href="../../d0/d0a/class_patch_1_1_patch.html#a6b354b20c05532df4f8fea4878cf0027" target="_top" xlink:title="Patch.Patch.updateState">
<polygon fill="white" stroke="black" points="715.5,-5.5 715.5,-24.5 850.5,-24.5 850.5,-5.5 715.5,-5.5"/>
<text text-anchor="middle" x="783" y="-12.5" font-family="Helvetica,sans-Serif" font-size="10.00">Patch.Patch.updateState</text>
</a>
</g>
</g>
<!-- Node20&#45;&gt;Node21 -->
<g id="edge21" class="edge"><title>Node20&#45;&gt;Node21</title>
<path fill="none" stroke="midnightblue" d="M650.781,-15C668.971,-15 687.737,-15 705.187,-15"/>
<polygon fill="midnightblue" stroke="midnightblue" points="705.296,-18.5001 715.296,-15 705.296,-11.5001 705.296,-18.5001"/>
</g>
</g>
</svg>
