<?xml version="1.0" encoding="UTF-8" standalone="no"?>
<!DOCTYPE svg PUBLIC "-//W3C//DTD SVG 1.1//EN"
 "http://www.w3.org/Graphics/SVG/1.1/DTD/svg11.dtd">
<!-- Generated by graphviz version 2.36.0 (20140111.2315)
 -->
<!-- Title: cellsociety_team02.GridView.getLocationColor Pages: 1 -->
<svg width="2136pt" height="164pt"
 viewBox="0.00 0.00 2136.00 164.00" xmlns="http://www.w3.org/2000/svg" xmlns:xlink="http://www.w3.org/1999/xlink">
<g id="graph0" class="graph" transform="scale(1 1) rotate(0) translate(4 160)">
<title>cellsociety_team02.GridView.getLocationColor</title>
<polygon fill="white" stroke="none" points="-4,4 -4,-160 2132,-160 2132,4 -4,4"/>
<!-- Node1 -->
<g id="node1" class="node"><title>Node1</title>
<polygon fill="#bfbfbf" stroke="black" points="0.5,-112 0.5,-142 171.5,-142 171.5,-112 0.5,-112"/>
<text text-anchor="start" x="8.5" y="-130" font-family="Helvetica,sans-Serif" font-size="10.00">cellsociety_team02.GridView.get</text>
<text text-anchor="middle" x="86" y="-119" font-family="Helvetica,sans-Serif" font-size="10.00">LocationColor</text>
</g>
<!-- Node2 -->
<g id="node2" class="node"><title>Node2</title>
<g id="a_node2"><a xlink:href="../../d9/daf/classcellsociety__team02_1_1_grid_view.html#ad4fe99d3b1bf9b7ed1cd8d65145f5d90" target="_top" xlink:title="cellsociety_team02.GridView.makeGrid">
<polygon fill="white" stroke="black" points="208,-117.5 208,-136.5 410,-136.5 410,-117.5 208,-117.5"/>
<text text-anchor="middle" x="309" y="-124.5" font-family="Helvetica,sans-Serif" font-size="10.00">cellsociety_team02.GridView.makeGrid</text>
</a>
</g>
</g>
<!-- Node1&#45;&gt;Node2 -->
<g id="edge1" class="edge"><title>Node1&#45;&gt;Node2</title>
<path fill="none" stroke="midnightblue" d="M181.86,-127C190.481,-127 199.232,-127 207.896,-127"/>
<polygon fill="midnightblue" stroke="midnightblue" points="181.812,-123.5 171.812,-127 181.812,-130.5 181.812,-123.5"/>
</g>
<!-- Node3 -->
<g id="node3" class="node"><title>Node3</title>
<g id="a_node3"><a xlink:href="../../d9/daf/classcellsociety__team02_1_1_grid_view.html#aa0cb15c1acd15c18573648b8df447752" target="_top" xlink:title="cellsociety_team02.GridView.load">
<polygon fill="white" stroke="black" points="1312,-136.5 1312,-155.5 1488,-155.5 1488,-136.5 1312,-136.5"/>
<text text-anchor="middle" x="1400" y="-143.5" font-family="Helvetica,sans-Serif" font-size="10.00">cellsociety_team02.GridView.load</text>
</a>
</g>
</g>
<!-- Node2&#45;&gt;Node3 -->
<g id="edge2" class="edge"><title>Node2&#45;&gt;Node3</title>
<path fill="none" stroke="midnightblue" d="M420.398,-134.47C508.504,-139.79 635.109,-146 746,-146 746,-146 746,-146 962,-146 1083.39,-146 1223.74,-146 1311.94,-146"/>
<polygon fill="midnightblue" stroke="midnightblue" points="420.581,-130.975 410.386,-133.859 420.154,-137.962 420.581,-130.975"/>
</g>
<!-- Node7 -->
<g id="node7" class="node"><title>Node7</title>
<g id="a_node7"><a xlink:href="../../d9/daf/classcellsociety__team02_1_1_grid_view.html#a27a105e1810531f4958f9fc192c3cef1" target="_top" xlink:title="cellsociety_team02.GridView.step">
<polygon fill="white" stroke="black" points="446,-98.5 446,-117.5 622,-117.5 622,-98.5 446,-98.5"/>
<text text-anchor="middle" x="534" y="-105.5" font-family="Helvetica,sans-Serif" font-size="10.00">cellsociety_team02.GridView.step</text>
</a>
</g>
</g>
<!-- Node2&#45;&gt;Node7 -->
<g id="edge7" class="edge"><title>Node2&#45;&gt;Node7</title>
<path fill="none" stroke="midnightblue" d="M420.177,-117.613C428.788,-116.879 437.41,-116.144 445.837,-115.426"/>
<polygon fill="midnightblue" stroke="midnightblue" points="419.751,-114.136 410.085,-118.473 420.346,-121.111 419.751,-114.136"/>
</g>
<!-- Node4 -->
<g id="node4" class="node"><title>Node4</title>
<g id="a_node4"><a xlink:href="../../d9/daf/classcellsociety__team02_1_1_grid_view.html#ada183e314764db770009f944205490df" target="_top" xlink:title="cellsociety_team02.GridView.\lGridView">
<polygon fill="white" stroke="black" points="1972.5,-110 1972.5,-140 2127.5,-140 2127.5,-110 1972.5,-110"/>
<text text-anchor="start" x="1980.5" y="-128" font-family="Helvetica,sans-Serif" font-size="10.00">cellsociety_team02.GridView.</text>
<text text-anchor="middle" x="2050" y="-117" font-family="Helvetica,sans-Serif" font-size="10.00">GridView</text>
</a>
</g>
</g>
<!-- Node3&#45;&gt;Node4 -->
<g id="edge3" class="edge"><title>Node3&#45;&gt;Node4</title>
<path fill="none" stroke="midnightblue" d="M1498.37,-142.845C1627.94,-138.645 1854.4,-131.307 1972.47,-127.48"/>
<polygon fill="midnightblue" stroke="midnightblue" points="1497.94,-139.357 1488.06,-143.179 1498.16,-146.353 1497.94,-139.357"/>
</g>
<!-- Node5 -->
<g id="node5" class="node"><title>Node5</title>
<g id="a_node5"><a xlink:href="../../d9/daf/classcellsociety__team02_1_1_grid_view.html#afcc7b83f62c116e77ab0843bfd4156b8" target="_top" xlink:title="cellsociety_team02.GridView.make\lButtons">
<polygon fill="white" stroke="black" points="1524,-87 1524,-117 1706,-117 1706,-87 1524,-87"/>
<text text-anchor="start" x="1532" y="-105" font-family="Helvetica,sans-Serif" font-size="10.00">cellsociety_team02.GridView.make</text>
<text text-anchor="middle" x="1615" y="-94" font-family="Helvetica,sans-Serif" font-size="10.00">Buttons</text>
</a>
</g>
</g>
<!-- Node3&#45;&gt;Node5 -->
<g id="edge4" class="edge"><title>Node3&#45;&gt;Node5</title>
<path fill="none" stroke="midnightblue" d="M1457.16,-134.399C1482.85,-129.092 1513.62,-122.736 1541.07,-117.065"/>
<polygon fill="midnightblue" stroke="midnightblue" points="1456.3,-131.002 1447.22,-136.453 1457.72,-137.857 1456.3,-131.002"/>
</g>
<!-- Node6 -->
<g id="node6" class="node"><title>Node6</title>
<g id="a_node6"><a xlink:href="../../d9/daf/classcellsociety__team02_1_1_grid_view.html#a4571898657e750f62c2df84cb398e135" target="_top" xlink:title="cellsociety_team02.GridView.initialize">
<polygon fill="white" stroke="black" points="1742,-95.5 1742,-114.5 1936,-114.5 1936,-95.5 1742,-95.5"/>
<text text-anchor="middle" x="1839" y="-102.5" font-family="Helvetica,sans-Serif" font-size="10.00">cellsociety_team02.GridView.initialize</text>
</a>
</g>
</g>
<!-- Node5&#45;&gt;Node6 -->
<g id="edge5" class="edge"><title>Node5&#45;&gt;Node6</title>
<path fill="none" stroke="midnightblue" d="M1716.56,-103.359C1725.03,-103.473 1733.57,-103.589 1742,-103.703"/>
<polygon fill="midnightblue" stroke="midnightblue" points="1716.34,-99.8558 1706.3,-103.22 1716.25,-106.855 1716.34,-99.8558"/>
</g>
<!-- Node6&#45;&gt;Node4 -->
<g id="edge6" class="edge"><title>Node6&#45;&gt;Node4</title>
<path fill="none" stroke="midnightblue" d="M1946.48,-115.189C1955.2,-116.024 1963.91,-116.857 1972.35,-117.665"/>
<polygon fill="midnightblue" stroke="midnightblue" points="1946.53,-111.678 1936.24,-114.21 1945.86,-118.646 1946.53,-111.678"/>
</g>
<!-- Node7&#45;&gt;Node5 -->
<g id="edge8" class="edge"><title>Node7&#45;&gt;Node5</title>
<path fill="none" stroke="midnightblue" d="M632.119,-108C718.261,-108 847.505,-108 960,-108 960,-108 960,-108 1182,-108 1300.14,-108 1436.43,-105.729 1523.82,-103.981"/>
<polygon fill="midnightblue" stroke="midnightblue" points="632.094,-104.5 622.094,-108 632.094,-111.5 632.094,-104.5"/>
</g>
<!-- Node8 -->
<g id="node8" class="node"><title>Node8</title>
<g id="a_node8"><a xlink:href="../../d9/daf/classcellsociety__team02_1_1_grid_view.html#aa1d09688b48a4a95513e15eea18ec0e6" target="_top" xlink:title="cellsociety_team02.GridView.start\lHandler">
<polygon fill="white" stroke="black" points="658,-49 658,-79 836,-79 836,-49 658,-49"/>
<text text-anchor="start" x="666" y="-67" font-family="Helvetica,sans-Serif" font-size="10.00">cellsociety_team02.GridView.start</text>
<text text-anchor="middle" x="747" y="-56" font-family="Helvetica,sans-Serif" font-size="10.00">Handler</text>
</a>
</g>
</g>
<!-- Node7&#45;&gt;Node8 -->
<g id="edge9" class="edge"><title>Node7&#45;&gt;Node8</title>
<path fill="none" stroke="midnightblue" d="M590.633,-96.3987C616.083,-91.0917 646.561,-84.7362 673.755,-79.0654"/>
<polygon fill="midnightblue" stroke="midnightblue" points="589.859,-92.9849 580.784,-98.4527 591.288,-99.8375 589.859,-92.9849"/>
</g>
<!-- Node9 -->
<g id="node9" class="node"><title>Node9</title>
<g id="a_node9"><a xlink:href="../../d9/daf/classcellsociety__team02_1_1_grid_view.html#a27ed5fc9bbf44efab6d23cb07096c36a" target="_top" xlink:title="cellsociety_team02.GridView.start\lAnimation">
<polygon fill="white" stroke="black" points="872,-49 872,-79 1050,-79 1050,-49 872,-49"/>
<text text-anchor="start" x="880" y="-67" font-family="Helvetica,sans-Serif" font-size="10.00">cellsociety_team02.GridView.start</text>
<text text-anchor="middle" x="961" y="-56" font-family="Helvetica,sans-Serif" font-size="10.00">Animation</text>
</a>
</g>
</g>
<!-- Node8&#45;&gt;Node9 -->
<g id="edge10" class="edge"><title>Node8&#45;&gt;Node9</title>
<path fill="none" stroke="midnightblue" d="M846.107,-64C854.7,-64 863.363,-64 871.868,-64"/>
<polygon fill="midnightblue" stroke="midnightblue" points="846.065,-60.5001 836.065,-64 846.065,-67.5001 846.065,-60.5001"/>
</g>
<!-- Node10 -->
<g id="node10" class="node"><title>Node10</title>
<g id="a_node10"><a xlink:href="../../d9/daf/classcellsociety__team02_1_1_grid_view.html#a7b94250b9b4e419eb3b97394e3b86052" target="_top" xlink:title="cellsociety_team02.GridView.play\lPause">
<polygon fill="white" stroke="black" points="1093.5,-49 1093.5,-79 1268.5,-79 1268.5,-49 1093.5,-49"/>
<text text-anchor="start" x="1101.5" y="-67" font-family="Helvetica,sans-Serif" font-size="10.00">cellsociety_team02.GridView.play</text>
<text text-anchor="middle" x="1181" y="-56" font-family="Helvetica,sans-Serif" font-size="10.00">Pause</text>
</a>
</g>
</g>
<!-- Node9&#45;&gt;Node10 -->
<g id="edge11" class="edge"><title>Node9&#45;&gt;Node10</title>
<path fill="none" stroke="midnightblue" d="M1060.16,-64C1071.25,-64 1082.48,-64 1093.4,-64"/>
<polygon fill="midnightblue" stroke="midnightblue" points="1060.04,-60.5001 1050.04,-64 1060.04,-67.5001 1060.04,-60.5001"/>
</g>
<!-- Node11 -->
<g id="node11" class="node"><title>Node11</title>
<g id="a_node11"><a xlink:href="../../d9/daf/classcellsociety__team02_1_1_grid_view.html#a21d8f68b9be54d2f23f17af421c78b12" target="_top" xlink:title="cellsociety_team02.GridView.update\lSpeed">
<polygon fill="white" stroke="black" points="1086.5,-0 1086.5,-30 1275.5,-30 1275.5,-0 1086.5,-0"/>
<text text-anchor="start" x="1094.5" y="-18" font-family="Helvetica,sans-Serif" font-size="10.00">cellsociety_team02.GridView.update</text>
<text text-anchor="middle" x="1181" y="-7" font-family="Helvetica,sans-Serif" font-size="10.00">Speed</text>
</a>
</g>
</g>
<!-- Node9&#45;&gt;Node11 -->
<g id="edge13" class="edge"><title>Node9&#45;&gt;Node11</title>
<path fill="none" stroke="midnightblue" d="M1038.78,-46.7419C1063.07,-41.282 1089.71,-35.295 1113.24,-30.0062"/>
<polygon fill="midnightblue" stroke="midnightblue" points="1037.88,-43.3575 1028.89,-48.9654 1039.41,-50.1871 1037.88,-43.3575"/>
</g>
<!-- Node10&#45;&gt;Node5 -->
<g id="edge12" class="edge"><title>Node10&#45;&gt;Node5</title>
<path fill="none" stroke="midnightblue" d="M1278.81,-72.5153C1352.13,-78.965 1452.13,-87.7612 1523.78,-94.0642"/>
<polygon fill="midnightblue" stroke="midnightblue" points="1278.91,-69.0111 1268.64,-71.6213 1278.3,-75.9842 1278.91,-69.0111"/>
</g>
<!-- Node12 -->
<g id="node12" class="node"><title>Node12</title>
<g id="a_node12"><a xlink:href="../../d9/daf/classcellsociety__team02_1_1_grid_view.html#a08ac9f0ccad1d9db92c9d92a127d77bc" target="_top" xlink:title="cellsociety_team02.GridView.set\lUpSpeedSlider">
<polygon fill="white" stroke="black" points="1315,-3 1315,-33 1485,-33 1485,-3 1315,-3"/>
<text text-anchor="start" x="1323" y="-21" font-family="Helvetica,sans-Serif" font-size="10.00">cellsociety_team02.GridView.set</text>
<text text-anchor="middle" x="1400" y="-10" font-family="Helvetica,sans-Serif" font-size="10.00">UpSpeedSlider</text>
</a>
</g>
</g>
<!-- Node11&#45;&gt;Node12 -->
<g id="edge14" class="edge"><title>Node11&#45;&gt;Node12</title>
<path fill="none" stroke="midnightblue" d="M1285.76,-16.4345C1295.54,-16.5697 1305.37,-16.7056 1314.94,-16.8378"/>
<polygon fill="midnightblue" stroke="midnightblue" points="1285.65,-12.9327 1275.6,-16.294 1285.55,-19.932 1285.65,-12.9327"/>
</g>
<!-- Node12&#45;&gt;Node5 -->
<g id="edge15" class="edge"><title>Node12&#45;&gt;Node5</title>
<path fill="none" stroke="midnightblue" d="M1448.5,-36.7327C1486.9,-51.8761 1540.25,-72.9157 1575.89,-86.9711"/>
<polygon fill="midnightblue" stroke="midnightblue" points="1449.67,-33.4303 1439.08,-33.0175 1447.1,-39.9422 1449.67,-33.4303"/>
</g>
</g>
</svg>
