<?xml version="1.0" encoding="UTF-8" standalone="no"?>
<!DOCTYPE svg PUBLIC "-//W3C//DTD SVG 1.1//EN"
 "http://www.w3.org/Graphics/SVG/1.1/DTD/svg11.dtd">
<!-- Generated by graphviz version 2.36.0 (20140111.2315)
 -->
<!-- Title: cellsociety_team02.GridView.load Pages: 1 -->
<svg width="2004pt" height="739pt"
 viewBox="0.00 0.00 2004.00 739.00" xmlns="http://www.w3.org/2000/svg" xmlns:xlink="http://www.w3.org/1999/xlink">
<g id="graph0" class="graph" transform="scale(1 1) rotate(0) translate(4 735)">
<title>cellsociety_team02.GridView.load</title>
<polygon fill="white" stroke="none" points="-4,4 -4,-735 2000,-735 2000,4 -4,4"/>
<!-- Node1 -->
<g id="node1" class="node"><title>Node1</title>
<polygon fill="#bfbfbf" stroke="black" points="0,-355.5 0,-374.5 176,-374.5 176,-355.5 0,-355.5"/>
<text text-anchor="middle" x="88" y="-362.5" font-family="Helvetica,sans-Serif" font-size="10.00">cellsociety_team02.GridView.load</text>
</g>
<!-- Node2 -->
<g id="node2" class="node"><title>Node2</title>
<g id="a_node2"><a xlink:href="../../df/d71/classcellsociety__team02_1_1_grid_model.html#a11e7a3a1622cad1c885e13ff9865980c" target="_top" xlink:title="cellsociety_team02.GridModel.get\lGridType">
<polygon fill="white" stroke="black" points="223.5,-438 223.5,-468 402.5,-468 402.5,-438 223.5,-438"/>
<text text-anchor="start" x="231.5" y="-456" font-family="Helvetica,sans-Serif" font-size="10.00">cellsociety_team02.GridModel.get</text>
<text text-anchor="middle" x="313" y="-445" font-family="Helvetica,sans-Serif" font-size="10.00">GridType</text>
</a>
</g>
</g>
<!-- Node1&#45;&gt;Node2 -->
<g id="edge1" class="edge"><title>Node1&#45;&gt;Node2</title>
<path fill="none" stroke="midnightblue" d="M104.777,-374.573C127.678,-388.118 171.794,-412.905 212,-428 218.796,-430.551 225.948,-432.922 233.174,-435.105"/>
<polygon fill="midnightblue" stroke="midnightblue" points="232.468,-438.544 243.047,-437.965 234.415,-431.82 232.468,-438.544"/>
</g>
<!-- Node3 -->
<g id="node3" class="node"><title>Node3</title>
<g id="a_node3"><a xlink:href="../../df/d71/classcellsociety__team02_1_1_grid_model.html#a3884a4fa7f5f19b71ea5a1c2a54fe817" target="_top" xlink:title="cellsociety_team02.GridModel.load">
<polygon fill="white" stroke="black" points="221.5,-399.5 221.5,-418.5 404.5,-418.5 404.5,-399.5 221.5,-399.5"/>
<text text-anchor="middle" x="313" y="-406.5" font-family="Helvetica,sans-Serif" font-size="10.00">cellsociety_team02.GridModel.load</text>
</a>
</g>
</g>
<!-- Node1&#45;&gt;Node3 -->
<g id="edge2" class="edge"><title>Node1&#45;&gt;Node3</title>
<path fill="none" stroke="midnightblue" d="M137.388,-374.547C171.578,-381.293 217.573,-390.369 253.774,-397.511"/>
<polygon fill="midnightblue" stroke="midnightblue" points="253.218,-400.969 263.707,-399.471 254.573,-394.102 253.218,-400.969"/>
</g>
<!-- Node27 -->
<g id="node27" class="node"><title>Node27</title>
<g id="a_node27"><a xlink:href="../../d9/daf/classcellsociety__team02_1_1_grid_view.html#acf332ae230af02cadc77649e0b6fc0ff" target="_top" xlink:title="cellsociety_team02.GridView.make\lGraph">
<polygon fill="white" stroke="black" points="222,-306 222,-336 404,-336 404,-306 222,-306"/>
<text text-anchor="start" x="230" y="-324" font-family="Helvetica,sans-Serif" font-size="10.00">cellsociety_team02.GridView.make</text>
<text text-anchor="middle" x="313" y="-313" font-family="Helvetica,sans-Serif" font-size="10.00">Graph</text>
</a>
</g>
</g>
<!-- Node1&#45;&gt;Node27 -->
<g id="edge36" class="edge"><title>Node1&#45;&gt;Node27</title>
<path fill="none" stroke="midnightblue" d="M137.388,-355.453C163.167,-350.366 195.659,-343.955 225.602,-338.047"/>
<polygon fill="midnightblue" stroke="midnightblue" points="226.513,-341.435 235.646,-336.065 225.158,-334.567 226.513,-341.435"/>
</g>
<!-- Node32 -->
<g id="node32" class="node"><title>Node32</title>
<g id="a_node32"><a xlink:href="../../d9/daf/classcellsociety__team02_1_1_grid_view.html#ad4fe99d3b1bf9b7ed1cd8d65145f5d90" target="_top" xlink:title="cellsociety_team02.GridView.makeGrid">
<polygon fill="white" stroke="black" points="212,-180.5 212,-199.5 414,-199.5 414,-180.5 212,-180.5"/>
<text text-anchor="middle" x="313" y="-187.5" font-family="Helvetica,sans-Serif" font-size="10.00">cellsociety_team02.GridView.makeGrid</text>
</a>
</g>
</g>
<!-- Node1&#45;&gt;Node32 -->
<g id="edge41" class="edge"><title>Node1&#45;&gt;Node32</title>
<path fill="none" stroke="midnightblue" d="M101.307,-355.342C137.935,-326.598 246.503,-241.399 291.798,-205.854"/>
<polygon fill="midnightblue" stroke="midnightblue" points="294.025,-208.555 299.731,-199.628 289.703,-203.048 294.025,-208.555"/>
</g>
<!-- Node4 -->
<g id="node4" class="node"><title>Node4</title>
<g id="a_node4"><a xlink:href="../../d9/db5/classcellsociety__team02_1_1_x_m_l_parser.html#ad621bbe1f6d08774bed0611b83ad1874" target="_top" xlink:title="cellsociety_team02.XMLParser.get\lGridType">
<polygon fill="white" stroke="black" points="462.5,-443 462.5,-473 641.5,-473 641.5,-443 462.5,-443"/>
<text text-anchor="start" x="470.5" y="-461" font-family="Helvetica,sans-Serif" font-size="10.00">cellsociety_team02.XMLParser.get</text>
<text text-anchor="middle" x="552" y="-450" font-family="Helvetica,sans-Serif" font-size="10.00">GridType</text>
</a>
</g>
</g>
<!-- Node3&#45;&gt;Node4 -->
<g id="edge3" class="edge"><title>Node3&#45;&gt;Node4</title>
<path fill="none" stroke="midnightblue" d="M362.089,-418.504C378.558,-421.789 397.092,-425.52 414,-429 432.368,-432.781 452.106,-436.916 470.719,-440.849"/>
<polygon fill="midnightblue" stroke="midnightblue" points="470.124,-444.3 480.632,-442.947 471.573,-437.452 470.124,-444.3"/>
</g>
<!-- Node5 -->
<g id="node5" class="node"><title>Node5</title>
<g id="a_node5"><a xlink:href="../../d9/db5/classcellsociety__team02_1_1_x_m_l_parser.html#a9fa6b92d804ff8b4e944657885db04ef" target="_top" xlink:title="cellsociety_team02.XMLParser.get\lNumStates">
<polygon fill="white" stroke="black" points="462.5,-394 462.5,-424 641.5,-424 641.5,-394 462.5,-394"/>
<text text-anchor="start" x="470.5" y="-412" font-family="Helvetica,sans-Serif" font-size="10.00">cellsociety_team02.XMLParser.get</text>
<text text-anchor="middle" x="552" y="-401" font-family="Helvetica,sans-Serif" font-size="10.00">NumStates</text>
</a>
</g>
</g>
<!-- Node3&#45;&gt;Node5 -->
<g id="edge4" class="edge"><title>Node3&#45;&gt;Node5</title>
<path fill="none" stroke="midnightblue" d="M404.614,-409C420.157,-409 436.379,-409 452.126,-409"/>
<polygon fill="midnightblue" stroke="midnightblue" points="452.393,-412.5 462.393,-409 452.392,-405.5 452.393,-412.5"/>
</g>
<!-- Node6 -->
<g id="node6" class="node"><title>Node6</title>
<g id="a_node6"><a xlink:href="../../d9/db5/classcellsociety__team02_1_1_x_m_l_parser.html#ad3832583a0c6236760288a3122d04c3a" target="_top" xlink:title="cellsociety_team02.XMLParser.initialize">
<polygon fill="white" stroke="black" points="702,-312.5 702,-331.5 904,-331.5 904,-312.5 702,-312.5"/>
<text text-anchor="middle" x="803" y="-319.5" font-family="Helvetica,sans-Serif" font-size="10.00">cellsociety_team02.XMLParser.initialize</text>
</a>
</g>
</g>
<!-- Node3&#45;&gt;Node6 -->
<g id="edge5" class="edge"><title>Node3&#45;&gt;Node6</title>
<path fill="none" stroke="midnightblue" d="M326.636,-399.473C349.689,-382.726 400.746,-348.505 450,-335 528.837,-313.384 621.318,-310.797 691.699,-313.262"/>
<polygon fill="midnightblue" stroke="midnightblue" points="691.789,-316.768 701.918,-313.66 692.062,-309.773 691.789,-316.768"/>
</g>
<!-- Node10 -->
<g id="node10" class="node"><title>Node10</title>
<g id="a_node10"><a xlink:href="../../df/d71/classcellsociety__team02_1_1_grid_model.html#ab80b7cb68a71e992da82ff2dfd3bb850" target="_top" xlink:title="cellsociety_team02.GridModel.init\lSeries">
<polygon fill="white" stroke="black" points="463.5,-541 463.5,-571 640.5,-571 640.5,-541 463.5,-541"/>
<text text-anchor="start" x="471.5" y="-559" font-family="Helvetica,sans-Serif" font-size="10.00">cellsociety_team02.GridModel.init</text>
<text text-anchor="middle" x="552" y="-548" font-family="Helvetica,sans-Serif" font-size="10.00">Series</text>
</a>
</g>
</g>
<!-- Node3&#45;&gt;Node10 -->
<g id="edge10" class="edge"><title>Node3&#45;&gt;Node10</title>
<path fill="none" stroke="midnightblue" d="M397.955,-418.672C403.747,-421.427 409.185,-424.824 414,-429 450.318,-460.498 414.404,-498.688 450,-531 451.739,-532.578 453.561,-534.061 455.455,-535.453"/>
<polygon fill="midnightblue" stroke="midnightblue" points="453.855,-538.583 464.171,-540.998 457.612,-532.677 453.855,-538.583"/>
</g>
<!-- Node11 -->
<g id="node11" class="node"><title>Node11</title>
<g id="a_node11"><a xlink:href="../../df/d71/classcellsociety__team02_1_1_grid_model.html#aab4f67e82399c3340022527823b424e9" target="_top" xlink:title="cellsociety_team02.GridModel.load\lFileToParser">
<polygon fill="white" stroke="black" points="460.5,-492 460.5,-522 643.5,-522 643.5,-492 460.5,-492"/>
<text text-anchor="start" x="468.5" y="-510" font-family="Helvetica,sans-Serif" font-size="10.00">cellsociety_team02.GridModel.load</text>
<text text-anchor="middle" x="552" y="-499" font-family="Helvetica,sans-Serif" font-size="10.00">FileToParser</text>
</a>
</g>
</g>
<!-- Node3&#45;&gt;Node11 -->
<g id="edge11" class="edge"><title>Node3&#45;&gt;Node11</title>
<path fill="none" stroke="midnightblue" d="M392.798,-418.57C400.294,-421.276 407.509,-424.693 414,-429 437.728,-444.742 426.634,-465.725 450,-482 452.866,-483.996 455.875,-485.834 458.99,-487.525"/>
<polygon fill="midnightblue" stroke="midnightblue" points="457.491,-490.688 468.015,-491.914 460.552,-484.393 457.491,-490.688"/>
</g>
<!-- Node12 -->
<g id="node12" class="node"><title>Node12</title>
<g id="a_node12"><a xlink:href="../../d9/db5/classcellsociety__team02_1_1_x_m_l_parser.html#aca6776e6016ac742ace5f43d33a03c74" target="_top" xlink:title="cellsociety_team02.XMLParser.make\lCells">
<polygon fill="white" stroke="black" points="456.5,-345 456.5,-375 647.5,-375 647.5,-345 456.5,-345"/>
<text text-anchor="start" x="464.5" y="-363" font-family="Helvetica,sans-Serif" font-size="10.00">cellsociety_team02.XMLParser.make</text>
<text text-anchor="middle" x="552" y="-352" font-family="Helvetica,sans-Serif" font-size="10.00">Cells</text>
</a>
</g>
</g>
<!-- Node3&#45;&gt;Node12 -->
<g id="edge12" class="edge"><title>Node3&#45;&gt;Node12</title>
<path fill="none" stroke="midnightblue" d="M359.977,-399.494C390.615,-393.16 431.762,-384.653 468.02,-377.156"/>
<polygon fill="midnightblue" stroke="midnightblue" points="469.02,-380.524 478.104,-375.071 467.603,-373.669 469.02,-380.524"/>
</g>
<!-- Node26 -->
<g id="node26" class="node"><title>Node26</title>
<g id="a_node26"><a xlink:href="../../d9/db5/classcellsociety__team02_1_1_x_m_l_parser.html#a6183c4600a4c3b22a017485f9ae01d4d" target="_top" xlink:title="cellsociety_team02.XMLParser.make\lPatches">
<polygon fill="white" stroke="black" points="456.5,-590 456.5,-620 647.5,-620 647.5,-590 456.5,-590"/>
<text text-anchor="start" x="464.5" y="-608" font-family="Helvetica,sans-Serif" font-size="10.00">cellsociety_team02.XMLParser.make</text>
<text text-anchor="middle" x="552" y="-597" font-family="Helvetica,sans-Serif" font-size="10.00">Patches</text>
</a>
</g>
</g>
<!-- Node3&#45;&gt;Node26 -->
<g id="edge34" class="edge"><title>Node3&#45;&gt;Node26</title>
<path fill="none" stroke="midnightblue" d="M399.399,-418.61C404.72,-421.401 409.666,-424.822 414,-429 463.67,-476.883 401.426,-531.006 450,-580 451.431,-581.443 452.931,-582.808 454.491,-584.098"/>
<polygon fill="midnightblue" stroke="midnightblue" points="452.572,-587.027 462.757,-589.947 456.616,-581.314 452.572,-587.027"/>
</g>
<!-- Node7 -->
<g id="node7" class="node"><title>Node7</title>
<g id="a_node7"><a xlink:href="../../d9/db5/classcellsociety__team02_1_1_x_m_l_parser.html#af9e2438fd8fa09e5d6b2d252afa13b1a" target="_top" xlink:title="cellsociety_team02.XMLParser.get\lAttribute">
<polygon fill="white" stroke="black" points="1434.5,-345 1434.5,-375 1613.5,-375 1613.5,-345 1434.5,-345"/>
<text text-anchor="start" x="1442.5" y="-363" font-family="Helvetica,sans-Serif" font-size="10.00">cellsociety_team02.XMLParser.get</text>
<text text-anchor="middle" x="1524" y="-352" font-family="Helvetica,sans-Serif" font-size="10.00">Attribute</text>
</a>
</g>
</g>
<!-- Node6&#45;&gt;Node7 -->
<g id="edge6" class="edge"><title>Node6&#45;&gt;Node7</title>
<path fill="none" stroke="midnightblue" d="M904.083,-321.836C1021.26,-322.43 1221.08,-325.891 1392,-341 1402.52,-341.93 1413.48,-343.137 1424.38,-344.494"/>
<polygon fill="midnightblue" stroke="midnightblue" points="1424,-347.974 1434.37,-345.777 1424.9,-341.031 1424,-347.974"/>
</g>
<!-- Node8 -->
<g id="node8" class="node"><title>Node8</title>
<g id="a_node8"><a xlink:href="../../d9/db5/classcellsociety__team02_1_1_x_m_l_parser.html#a80db6bc9b1504447995fc08ed6a27527" target="_top" xlink:title="cellsociety_team02.XMLParser.make\lParameterMap">
<polygon fill="white" stroke="black" points="952.5,-348 952.5,-378 1143.5,-378 1143.5,-348 952.5,-348"/>
<text text-anchor="start" x="960.5" y="-366" font-family="Helvetica,sans-Serif" font-size="10.00">cellsociety_team02.XMLParser.make</text>
<text text-anchor="middle" x="1048" y="-355" font-family="Helvetica,sans-Serif" font-size="10.00">ParameterMap</text>
</a>
</g>
</g>
<!-- Node6&#45;&gt;Node8 -->
<g id="edge7" class="edge"><title>Node6&#45;&gt;Node8</title>
<path fill="none" stroke="midnightblue" d="M860.36,-331.509C886.309,-335.887 917.885,-341.215 947.631,-346.234"/>
<polygon fill="midnightblue" stroke="midnightblue" points="947.194,-349.71 957.637,-347.922 948.359,-342.807 947.194,-349.71"/>
</g>
<!-- Node9 -->
<g id="node9" class="node"><title>Node9</title>
<g id="a_node9"><a xlink:href="../../d9/db5/classcellsociety__team02_1_1_x_m_l_parser.html#a97985012667a5a937c89cf19fa6f20d1" target="_top" xlink:title="cellsociety_team02.XMLParser.makeMap">
<polygon fill="white" stroke="black" points="1180.5,-350.5 1180.5,-369.5 1391.5,-369.5 1391.5,-350.5 1180.5,-350.5"/>
<text text-anchor="middle" x="1286" y="-357.5" font-family="Helvetica,sans-Serif" font-size="10.00">cellsociety_team02.XMLParser.makeMap</text>
</a>
</g>
</g>
<!-- Node8&#45;&gt;Node9 -->
<g id="edge8" class="edge"><title>Node8&#45;&gt;Node9</title>
<path fill="none" stroke="midnightblue" d="M1143.63,-361.797C1152.39,-361.686 1161.33,-361.572 1170.24,-361.459"/>
<polygon fill="midnightblue" stroke="midnightblue" points="1170.32,-364.958 1180.28,-361.331 1170.24,-357.959 1170.32,-364.958"/>
</g>
<!-- Node9&#45;&gt;Node7 -->
<g id="edge9" class="edge"><title>Node9&#45;&gt;Node7</title>
<path fill="none" stroke="midnightblue" d="M1391.54,-360C1402.38,-360 1413.37,-360 1424.15,-360"/>
<polygon fill="midnightblue" stroke="midnightblue" points="1424.4,-363.5 1434.4,-360 1424.4,-356.5 1424.4,-363.5"/>
</g>
<!-- Node13 -->
<g id="node13" class="node"><title>Node13</title>
<g id="a_node13"><a xlink:href="../../d9/db5/classcellsociety__team02_1_1_x_m_l_parser.html#adb7ffd2c43825ff504405060ff20178f" target="_top" xlink:title="cellsociety_team02.XMLParser.constructList">
<polygon fill="white" stroke="black" points="690.5,-498.5 690.5,-517.5 915.5,-517.5 915.5,-498.5 690.5,-498.5"/>
<text text-anchor="middle" x="803" y="-505.5" font-family="Helvetica,sans-Serif" font-size="10.00">cellsociety_team02.XMLParser.constructList</text>
</a>
</g>
</g>
<!-- Node12&#45;&gt;Node13 -->
<g id="edge13" class="edge"><title>Node12&#45;&gt;Node13</title>
<path fill="none" stroke="midnightblue" d="M632.29,-375.063C639.799,-377.605 647.155,-380.563 654,-384 709.111,-411.672 761.444,-463.609 786.532,-490.646"/>
<polygon fill="midnightblue" stroke="midnightblue" points="784.087,-493.159 793.415,-498.182 789.256,-488.438 784.087,-493.159"/>
</g>
<!-- Node14 -->
<g id="node14" class="node"><title>Node14</title>
<g id="a_node14"><a xlink:href="../../d9/db5/classcellsociety__team02_1_1_x_m_l_parser.html#a98df6887ba7b6cd85f33e6943ff58e49" target="_top" xlink:title="cellsociety_team02.XMLParser.do\lGiven">
<polygon fill="white" stroke="black" points="960,-493 960,-523 1136,-523 1136,-493 960,-493"/>
<text text-anchor="start" x="968" y="-511" font-family="Helvetica,sans-Serif" font-size="10.00">cellsociety_team02.XMLParser.do</text>
<text text-anchor="middle" x="1048" y="-500" font-family="Helvetica,sans-Serif" font-size="10.00">Given</text>
</a>
</g>
</g>
<!-- Node13&#45;&gt;Node14 -->
<g id="edge14" class="edge"><title>Node13&#45;&gt;Node14</title>
<path fill="none" stroke="midnightblue" d="M915.543,-508C926.911,-508 938.395,-508 949.595,-508"/>
<polygon fill="midnightblue" stroke="midnightblue" points="949.789,-511.5 959.789,-508 949.789,-504.5 949.789,-511.5"/>
</g>
<!-- Node20 -->
<g id="node20" class="node"><title>Node20</title>
<g id="a_node20"><a xlink:href="../../d9/db5/classcellsociety__team02_1_1_x_m_l_parser.html#afd9d58234bf5413d7759421f41f36e71" target="_top" xlink:title="cellsociety_team02.XMLParser.do\lRandom">
<polygon fill="white" stroke="black" points="960,-564 960,-594 1136,-594 1136,-564 960,-564"/>
<text text-anchor="start" x="968" y="-582" font-family="Helvetica,sans-Serif" font-size="10.00">cellsociety_team02.XMLParser.do</text>
<text text-anchor="middle" x="1048" y="-571" font-family="Helvetica,sans-Serif" font-size="10.00">Random</text>
</a>
</g>
</g>
<!-- Node13&#45;&gt;Node20 -->
<g id="edge23" class="edge"><title>Node13&#45;&gt;Node20</title>
<path fill="none" stroke="midnightblue" d="M836.52,-517.502C874.553,-528.614 938.335,-547.25 985.739,-561.101"/>
<polygon fill="midnightblue" stroke="midnightblue" points="985.01,-564.534 995.591,-563.979 986.974,-557.815 985.01,-564.534"/>
</g>
<!-- Node23 -->
<g id="node23" class="node"><title>Node23</title>
<g id="a_node23"><a xlink:href="../../d9/db5/classcellsociety__team02_1_1_x_m_l_parser.html#a14ccb1cf6658b9c38357d5bc4f176444" target="_top" xlink:title="cellsociety_team02.XMLParser.do\lProbability">
<polygon fill="white" stroke="black" points="960,-433 960,-463 1136,-463 1136,-433 960,-433"/>
<text text-anchor="start" x="968" y="-451" font-family="Helvetica,sans-Serif" font-size="10.00">cellsociety_team02.XMLParser.do</text>
<text text-anchor="middle" x="1048" y="-440" font-family="Helvetica,sans-Serif" font-size="10.00">Probability</text>
</a>
</g>
</g>
<!-- Node13&#45;&gt;Node23 -->
<g id="edge28" class="edge"><title>Node13&#45;&gt;Node23</title>
<path fill="none" stroke="midnightblue" d="M842.504,-498.493C878.261,-489.664 932.388,-476.299 975.975,-465.537"/>
<polygon fill="midnightblue" stroke="midnightblue" points="977.086,-468.868 985.955,-463.073 975.408,-462.072 977.086,-468.868"/>
</g>
<!-- Node14&#45;&gt;Node7 -->
<g id="edge15" class="edge"><title>Node14&#45;&gt;Node7</title>
<path fill="none" stroke="midnightblue" d="M1136.02,-493.917C1206.42,-481.058 1307.4,-459.263 1392,-428 1426.62,-415.208 1463.74,-395.288 1489.6,-380.308"/>
<polygon fill="midnightblue" stroke="midnightblue" points="1491.4,-383.312 1498.26,-375.235 1487.86,-377.273 1491.4,-383.312"/>
</g>
<!-- Node15 -->
<g id="node15" class="node"><title>Node15</title>
<g id="a_node15"><a xlink:href="../../d8/d83/classcellsociety__team02_1_1_factory.html#a73f7de8ac528a17623c911f59dc28325" target="_top" xlink:title="cellsociety_team02.Factory.makeCell">
<polygon fill="white" stroke="black" points="1428,-640.5 1428,-659.5 1620,-659.5 1620,-640.5 1428,-640.5"/>
<text text-anchor="middle" x="1524" y="-647.5" font-family="Helvetica,sans-Serif" font-size="10.00">cellsociety_team02.Factory.makeCell</text>
</a>
</g>
</g>
<!-- Node14&#45;&gt;Node15 -->
<g id="edge16" class="edge"><title>Node14&#45;&gt;Node15</title>
<path fill="none" stroke="midnightblue" d="M1096.64,-523.209C1113.46,-530.561 1131.31,-540.919 1144,-555 1174.78,-589.163 1142.25,-625.743 1180,-652 1273.7,-717.169 1419.35,-683.636 1486.65,-662.664"/>
<polygon fill="midnightblue" stroke="midnightblue" points="1487.92,-665.933 1496.38,-659.549 1485.79,-659.266 1487.92,-665.933"/>
</g>
<!-- Node18 -->
<g id="node18" class="node"><title>Node18</title>
<g id="a_node18"><a xlink:href="../../d8/d83/classcellsociety__team02_1_1_factory.html#aa3a1a4e218cc6529b3b2e56cd5f8cfff" target="_top" xlink:title="cellsociety_team02.Factory.make\lPatch">
<polygon fill="white" stroke="black" points="1436.5,-517 1436.5,-547 1611.5,-547 1611.5,-517 1436.5,-517"/>
<text text-anchor="start" x="1444.5" y="-535" font-family="Helvetica,sans-Serif" font-size="10.00">cellsociety_team02.Factory.make</text>
<text text-anchor="middle" x="1524" y="-524" font-family="Helvetica,sans-Serif" font-size="10.00">Patch</text>
</a>
</g>
</g>
<!-- Node14&#45;&gt;Node18 -->
<g id="edge19" class="edge"><title>Node14&#45;&gt;Node18</title>
<path fill="none" stroke="midnightblue" d="M1136.28,-502.516C1205.74,-499.349 1305.33,-497.482 1392,-506 1411.07,-507.874 1431.48,-511.248 1450.38,-514.958"/>
<polygon fill="midnightblue" stroke="midnightblue" points="1449.91,-518.434 1460.41,-516.984 1451.3,-511.573 1449.91,-518.434"/>
</g>
<!-- Node19 -->
<g id="node19" class="node"><title>Node19</title>
<g id="a_node19"><a xlink:href="../../d9/db5/classcellsociety__team02_1_1_x_m_l_parser.html#a405a101ec424944a7032f82f56343d2e" target="_top" xlink:title="cellsociety_team02.XMLParser.set\lNullState">
<polygon fill="white" stroke="black" points="1196.5,-613 1196.5,-643 1375.5,-643 1375.5,-613 1196.5,-613"/>
<text text-anchor="start" x="1204.5" y="-631" font-family="Helvetica,sans-Serif" font-size="10.00">cellsociety_team02.XMLParser.set</text>
<text text-anchor="middle" x="1286" y="-620" font-family="Helvetica,sans-Serif" font-size="10.00">NullState</text>
</a>
</g>
</g>
<!-- Node14&#45;&gt;Node19 -->
<g id="edge20" class="edge"><title>Node14&#45;&gt;Node19</title>
<path fill="none" stroke="midnightblue" d="M1089.84,-523.172C1107.62,-530.996 1128.01,-541.71 1144,-555 1164.51,-572.043 1157.7,-588.374 1180,-603 1183.16,-605.075 1186.48,-606.978 1189.91,-608.723"/>
<polygon fill="midnightblue" stroke="midnightblue" points="1188.66,-612 1199.21,-612.985 1191.57,-605.637 1188.66,-612"/>
</g>
<!-- Node16 -->
<g id="node16" class="node"><title>Node16</title>
<g id="a_node16"><a xlink:href="../../d4/df2/class_cell_1_1_pred_prey_cell.html#ab682decb39c5e4f952c7c85929411f6f" target="_top" xlink:title="Cell.PredPreyCell.makeCell">
<polygon fill="white" stroke="black" points="1656,-640.5 1656,-659.5 1800,-659.5 1800,-640.5 1656,-640.5"/>
<text text-anchor="middle" x="1728" y="-647.5" font-family="Helvetica,sans-Serif" font-size="10.00">Cell.PredPreyCell.makeCell</text>
</a>
</g>
</g>
<!-- Node15&#45;&gt;Node16 -->
<g id="edge17" class="edge"><title>Node15&#45;&gt;Node16</title>
<path fill="none" stroke="midnightblue" d="M1620.09,-650C1628.67,-650 1637.31,-650 1645.76,-650"/>
<polygon fill="midnightblue" stroke="midnightblue" points="1645.96,-653.5 1655.96,-650 1645.96,-646.5 1645.96,-653.5"/>
</g>
<!-- Node17 -->
<g id="node17" class="node"><title>Node17</title>
<g id="a_node17"><a xlink:href="../../d4/df2/class_cell_1_1_pred_prey_cell.html#a218b10c89861e5cbc826511d9b35b1ae" target="_top" xlink:title="Cell.PredPreyCell.PredPreyCell">
<polygon fill="white" stroke="black" points="1836,-640.5 1836,-659.5 1996,-659.5 1996,-640.5 1836,-640.5"/>
<text text-anchor="middle" x="1916" y="-647.5" font-family="Helvetica,sans-Serif" font-size="10.00">Cell.PredPreyCell.PredPreyCell</text>
</a>
</g>
</g>
<!-- Node16&#45;&gt;Node17 -->
<g id="edge18" class="edge"><title>Node16&#45;&gt;Node17</title>
<path fill="none" stroke="midnightblue" d="M1800.11,-650C1808.52,-650 1817.17,-650 1825.79,-650"/>
<polygon fill="midnightblue" stroke="midnightblue" points="1825.86,-653.5 1835.86,-650 1825.86,-646.5 1825.86,-653.5"/>
</g>
<!-- Node19&#45;&gt;Node15 -->
<g id="edge21" class="edge"><title>Node19&#45;&gt;Node15</title>
<path fill="none" stroke="midnightblue" d="M1375.55,-636.255C1389.23,-637.53 1403.48,-638.858 1417.49,-640.164"/>
<polygon fill="midnightblue" stroke="midnightblue" points="1417.35,-643.667 1427.63,-641.11 1418,-636.697 1417.35,-643.667"/>
</g>
<!-- Node19&#45;&gt;Node18 -->
<g id="edge22" class="edge"><title>Node19&#45;&gt;Node18</title>
<path fill="none" stroke="midnightblue" d="M1361.18,-612.928C1371.66,-610.052 1382.2,-606.748 1392,-603 1427.45,-589.446 1465.29,-568.111 1491.14,-552.363"/>
<polygon fill="midnightblue" stroke="midnightblue" points="1493.08,-555.276 1499.76,-547.048 1489.41,-549.317 1493.08,-555.276"/>
</g>
<!-- Node21 -->
<g id="node21" class="node"><title>Node21</title>
<g id="a_node21"><a xlink:href="../../d8/d83/classcellsociety__team02_1_1_factory.html#a9a3a57b7db2c081b18c27c829e875bf4" target="_top" xlink:title="cellsociety_team02.Factory.make\lRandomCell">
<polygon fill="white" stroke="black" points="1198.5,-701 1198.5,-731 1373.5,-731 1373.5,-701 1198.5,-701"/>
<text text-anchor="start" x="1206.5" y="-719" font-family="Helvetica,sans-Serif" font-size="10.00">cellsociety_team02.Factory.make</text>
<text text-anchor="middle" x="1286" y="-708" font-family="Helvetica,sans-Serif" font-size="10.00">RandomCell</text>
</a>
</g>
</g>
<!-- Node20&#45;&gt;Node21 -->
<g id="edge24" class="edge"><title>Node20&#45;&gt;Node21</title>
<path fill="none" stroke="midnightblue" d="M1063.26,-594.068C1085.9,-617.127 1132.37,-661.108 1180,-686 1188.63,-690.512 1198.03,-694.42 1207.53,-697.787"/>
<polygon fill="midnightblue" stroke="midnightblue" points="1206.46,-701.118 1217.05,-700.975 1208.68,-694.48 1206.46,-701.118"/>
</g>
<!-- Node22 -->
<g id="node22" class="node"><title>Node22</title>
<g id="a_node22"><a xlink:href="../../d8/d83/classcellsociety__team02_1_1_factory.html#a9584d58dc748c1f625ea2cfc66c5387d" target="_top" xlink:title="cellsociety_team02.Factory.make\lRandomPatch">
<polygon fill="white" stroke="black" points="1198.5,-564 1198.5,-594 1373.5,-594 1373.5,-564 1198.5,-564"/>
<text text-anchor="start" x="1206.5" y="-582" font-family="Helvetica,sans-Serif" font-size="10.00">cellsociety_team02.Factory.make</text>
<text text-anchor="middle" x="1286" y="-571" font-family="Helvetica,sans-Serif" font-size="10.00">RandomPatch</text>
</a>
</g>
</g>
<!-- Node20&#45;&gt;Node22 -->
<g id="edge26" class="edge"><title>Node20&#45;&gt;Node22</title>
<path fill="none" stroke="midnightblue" d="M1136.21,-579C1153.11,-579 1170.92,-579 1188.11,-579"/>
<polygon fill="midnightblue" stroke="midnightblue" points="1188.15,-582.5 1198.15,-579 1188.15,-575.5 1188.15,-582.5"/>
</g>
<!-- Node21&#45;&gt;Node15 -->
<g id="edge25" class="edge"><title>Node21&#45;&gt;Node15</title>
<path fill="none" stroke="midnightblue" d="M1340.85,-700.941C1382.56,-689.276 1439.63,-673.315 1478.71,-662.385"/>
<polygon fill="midnightblue" stroke="midnightblue" points="1480.05,-665.646 1488.74,-659.582 1478.16,-658.905 1480.05,-665.646"/>
</g>
<!-- Node22&#45;&gt;Node18 -->
<g id="edge27" class="edge"><title>Node22&#45;&gt;Node18</title>
<path fill="none" stroke="midnightblue" d="M1362.32,-564C1386.27,-559.23 1412.93,-553.921 1437.54,-549.019"/>
<polygon fill="midnightblue" stroke="midnightblue" points="1438.46,-552.405 1447.59,-547.019 1437.09,-545.54 1438.46,-552.405"/>
</g>
<!-- Node23&#45;&gt;Node9 -->
<g id="edge29" class="edge"><title>Node23&#45;&gt;Node9</title>
<path fill="none" stroke="midnightblue" d="M1072.15,-432.993C1097.59,-417.191 1140.14,-392.736 1180,-379 1188.14,-376.193 1196.79,-373.779 1205.5,-371.708"/>
<polygon fill="midnightblue" stroke="midnightblue" points="1206.33,-375.109 1215.32,-369.512 1204.8,-368.277 1206.33,-375.109"/>
</g>
<!-- Node24 -->
<g id="node24" class="node"><title>Node24</title>
<g id="a_node24"><a xlink:href="../../d8/d83/classcellsociety__team02_1_1_factory.html#a401a66128090c8dd98191986b9db5536" target="_top" xlink:title="cellsociety_team02.Factory.make\lProbCell">
<polygon fill="white" stroke="black" points="1198.5,-515 1198.5,-545 1373.5,-545 1373.5,-515 1198.5,-515"/>
<text text-anchor="start" x="1206.5" y="-533" font-family="Helvetica,sans-Serif" font-size="10.00">cellsociety_team02.Factory.make</text>
<text text-anchor="middle" x="1286" y="-522" font-family="Helvetica,sans-Serif" font-size="10.00">ProbCell</text>
</a>
</g>
</g>
<!-- Node23&#45;&gt;Node24 -->
<g id="edge30" class="edge"><title>Node23&#45;&gt;Node24</title>
<path fill="none" stroke="midnightblue" d="M1092.29,-463.04C1131.67,-476.723 1189.91,-496.96 1232.05,-511.603"/>
<polygon fill="midnightblue" stroke="midnightblue" points="1230.99,-514.941 1241.59,-514.917 1233.29,-508.328 1230.99,-514.941"/>
</g>
<!-- Node25 -->
<g id="node25" class="node"><title>Node25</title>
<g id="a_node25"><a xlink:href="../../d8/d83/classcellsociety__team02_1_1_factory.html#a41025b16b7c31c3e6e4c6fdef34898ae" target="_top" xlink:title="cellsociety_team02.Factory.make\lProbPatch">
<polygon fill="white" stroke="black" points="1198.5,-389 1198.5,-419 1373.5,-419 1373.5,-389 1198.5,-389"/>
<text text-anchor="start" x="1206.5" y="-407" font-family="Helvetica,sans-Serif" font-size="10.00">cellsociety_team02.Factory.make</text>
<text text-anchor="middle" x="1286" y="-396" font-family="Helvetica,sans-Serif" font-size="10.00">ProbPatch</text>
</a>
</g>
</g>
<!-- Node23&#45;&gt;Node25 -->
<g id="edge32" class="edge"><title>Node23&#45;&gt;Node25</title>
<path fill="none" stroke="midnightblue" d="M1129.56,-432.981C1150.42,-429.091 1173.03,-424.876 1194.37,-420.897"/>
<polygon fill="midnightblue" stroke="midnightblue" points="1195.22,-424.3 1204.4,-419.026 1193.93,-417.418 1195.22,-424.3"/>
</g>
<!-- Node24&#45;&gt;Node15 -->
<g id="edge31" class="edge"><title>Node24&#45;&gt;Node15</title>
<path fill="none" stroke="midnightblue" d="M1365.57,-545.085C1374.66,-547.886 1383.66,-551.167 1392,-555 1436.53,-575.455 1481.2,-612.141 1505.14,-633.443"/>
<polygon fill="midnightblue" stroke="midnightblue" points="1502.94,-636.176 1512.71,-640.284 1507.64,-630.982 1502.94,-636.176"/>
</g>
<!-- Node25&#45;&gt;Node18 -->
<g id="edge33" class="edge"><title>Node25&#45;&gt;Node18</title>
<path fill="none" stroke="midnightblue" d="M1315,-419.186C1357.58,-442.281 1438.66,-486.256 1486.03,-511.95"/>
<polygon fill="midnightblue" stroke="midnightblue" points="1484.58,-515.143 1495.04,-516.834 1487.92,-508.99 1484.58,-515.143"/>
</g>
<!-- Node26&#45;&gt;Node13 -->
<g id="edge35" class="edge"><title>Node26&#45;&gt;Node13</title>
<path fill="none" stroke="midnightblue" d="M622.037,-589.971C632.849,-587.028 643.81,-583.693 654,-580 698.409,-563.904 747.179,-538.573 776.159,-522.645"/>
<polygon fill="midnightblue" stroke="midnightblue" points="778.149,-525.544 785.194,-517.631 774.752,-519.423 778.149,-525.544"/>
</g>
<!-- Node28 -->
<g id="node28" class="node"><title>Node28</title>
<g id="a_node28"><a xlink:href="../../df/d71/classcellsociety__team02_1_1_grid_model.html#aaa16e9ad7b7de321cfc772caf45dcc89" target="_top" xlink:title="cellsociety_team02.GridModel.addData">
<polygon fill="white" stroke="black" points="450,-268.5 450,-287.5 654,-287.5 654,-268.5 450,-268.5"/>
<text text-anchor="middle" x="552" y="-275.5" font-family="Helvetica,sans-Serif" font-size="10.00">cellsociety_team02.GridModel.addData</text>
</a>
</g>
</g>
<!-- Node27&#45;&gt;Node28 -->
<g id="edge37" class="edge"><title>Node27&#45;&gt;Node28</title>
<path fill="none" stroke="midnightblue" d="M396.891,-305.961C426.969,-300.504 460.421,-294.434 488.451,-289.348"/>
<polygon fill="midnightblue" stroke="midnightblue" points="489.302,-292.751 498.517,-287.522 488.053,-285.864 489.302,-292.751"/>
</g>
<!-- Node29 -->
<g id="node29" class="node"><title>Node29</title>
<g id="a_node29"><a xlink:href="../../df/d71/classcellsociety__team02_1_1_grid_model.html#abf618b18bf0b7c25d5717317c00b9269" target="_top" xlink:title="cellsociety_team02.GridModel.num\lState">
<polygon fill="white" stroke="black" points="710.5,-263 710.5,-293 895.5,-293 895.5,-263 710.5,-263"/>
<text text-anchor="start" x="718.5" y="-281" font-family="Helvetica,sans-Serif" font-size="10.00">cellsociety_team02.GridModel.num</text>
<text text-anchor="middle" x="803" y="-270" font-family="Helvetica,sans-Serif" font-size="10.00">State</text>
</a>
</g>
</g>
<!-- Node28&#45;&gt;Node29 -->
<g id="edge38" class="edge"><title>Node28&#45;&gt;Node29</title>
<path fill="none" stroke="midnightblue" d="M654.278,-278C669.375,-278 684.944,-278 700.054,-278"/>
<polygon fill="midnightblue" stroke="midnightblue" points="700.431,-281.5 710.431,-278 700.431,-274.5 700.431,-281.5"/>
</g>
<!-- Node30 -->
<g id="node30" class="node"><title>Node30</title>
<g id="a_node30"><a xlink:href="../../d0/d0a/class_patch_1_1_patch.html#ab49e64fb74f1147d834efd81af480fae" target="_top" xlink:title="Patch.Patch.getCurrentCell">
<polygon fill="white" stroke="black" points="976,-227.5 976,-246.5 1120,-246.5 1120,-227.5 976,-227.5"/>
<text text-anchor="middle" x="1048" y="-234.5" font-family="Helvetica,sans-Serif" font-size="10.00">Patch.Patch.getCurrentCell</text>
</a>
</g>
</g>
<!-- Node29&#45;&gt;Node30 -->
<g id="edge39" class="edge"><title>Node29&#45;&gt;Node30</title>
<path fill="none" stroke="midnightblue" d="M893.104,-262.966C921.931,-258.102 953.381,-252.796 980.295,-248.255"/>
<polygon fill="midnightblue" stroke="midnightblue" points="981.094,-251.67 990.372,-246.554 979.929,-244.767 981.094,-251.67"/>
</g>
<!-- Node31 -->
<g id="node31" class="node"><title>Node31</title>
<g id="a_node31"><a xlink:href="../../d5/d5c/class_cell_1_1_cell.html#a04d500ffc9f19932a4ff0738f2f1dbc6" target="_top" xlink:title="Cell.Cell.getCurrentState">
<polygon fill="white" stroke="black" points="980.5,-268.5 980.5,-287.5 1115.5,-287.5 1115.5,-268.5 980.5,-268.5"/>
<text text-anchor="middle" x="1048" y="-275.5" font-family="Helvetica,sans-Serif" font-size="10.00">Cell.Cell.getCurrentState</text>
</a>
</g>
</g>
<!-- Node29&#45;&gt;Node31 -->
<g id="edge40" class="edge"><title>Node29&#45;&gt;Node31</title>
<path fill="none" stroke="midnightblue" d="M895.522,-278C920.015,-278 946.243,-278 969.874,-278"/>
<polygon fill="midnightblue" stroke="midnightblue" points="970.18,-281.5 980.18,-278 970.18,-274.5 970.18,-281.5"/>
</g>
<!-- Node32&#45;&gt;Node30 -->
<g id="edge43" class="edge"><title>Node32&#45;&gt;Node30</title>
<path fill="none" stroke="midnightblue" d="M359.114,-199.551C385.485,-204.735 419.485,-210.735 450,-214 633.456,-233.629 850.204,-237.084 965.403,-237.365"/>
<polygon fill="midnightblue" stroke="midnightblue" points="965.547,-240.866 975.553,-237.382 965.558,-233.866 965.547,-240.866"/>
</g>
<!-- Node33 -->
<g id="node33" class="node"><title>Node33</title>
<g id="a_node33"><a xlink:href="../../df/d71/classcellsociety__team02_1_1_grid_model.html#a8d88a111696cace3228ee162fc9199ec" target="_top" xlink:title="cellsociety_team02.GridModel.get\lPatches">
<polygon fill="white" stroke="black" points="462.5,-175 462.5,-205 641.5,-205 641.5,-175 462.5,-175"/>
<text text-anchor="start" x="470.5" y="-193" font-family="Helvetica,sans-Serif" font-size="10.00">cellsociety_team02.GridModel.get</text>
<text text-anchor="middle" x="552" y="-182" font-family="Helvetica,sans-Serif" font-size="10.00">Patches</text>
</a>
</g>
</g>
<!-- Node32&#45;&gt;Node33 -->
<g id="edge42" class="edge"><title>Node32&#45;&gt;Node33</title>
<path fill="none" stroke="midnightblue" d="M414.166,-190C426.826,-190 439.772,-190 452.407,-190"/>
<polygon fill="midnightblue" stroke="midnightblue" points="452.462,-193.5 462.462,-190 452.462,-186.5 452.462,-193.5"/>
</g>
<!-- Node34 -->
<g id="node34" class="node"><title>Node34</title>
<g id="a_node34"><a xlink:href="../../d4/de6/classcellsociety__team02_1_1_draw.html#a28e6cca2ff571def700126ecfc1ec8e4" target="_top" xlink:title="cellsociety_team02.Draw.draw\lShape">
<polygon fill="white" stroke="black" points="471.5,-126 471.5,-156 632.5,-156 632.5,-126 471.5,-126"/>
<text text-anchor="start" x="479.5" y="-144" font-family="Helvetica,sans-Serif" font-size="10.00">cellsociety_team02.Draw.draw</text>
<text text-anchor="middle" x="552" y="-133" font-family="Helvetica,sans-Serif" font-size="10.00">Shape</text>
</a>
</g>
</g>
<!-- Node32&#45;&gt;Node34 -->
<g id="edge44" class="edge"><title>Node32&#45;&gt;Node34</title>
<path fill="none" stroke="midnightblue" d="M359.977,-180.494C390.615,-174.16 431.762,-165.653 468.02,-158.156"/>
<polygon fill="midnightblue" stroke="midnightblue" points="469.02,-161.524 478.104,-156.071 467.603,-154.669 469.02,-161.524"/>
</g>
<!-- Node39 -->
<g id="node39" class="node"><title>Node39</title>
<g id="a_node39"><a xlink:href="../../d9/daf/classcellsociety__team02_1_1_grid_view.html#a5ef1c1816231c667f8f68bc466d20495" target="_top" xlink:title="cellsociety_team02.GridView.get\lLocationColor">
<polygon fill="white" stroke="black" points="466.5,-33 466.5,-63 637.5,-63 637.5,-33 466.5,-33"/>
<text text-anchor="start" x="474.5" y="-51" font-family="Helvetica,sans-Serif" font-size="10.00">cellsociety_team02.GridView.get</text>
<text text-anchor="middle" x="552" y="-40" font-family="Helvetica,sans-Serif" font-size="10.00">LocationColor</text>
</a>
</g>
</g>
<!-- Node32&#45;&gt;Node39 -->
<g id="edge49" class="edge"><title>Node32&#45;&gt;Node39</title>
<path fill="none" stroke="midnightblue" d="M329.918,-180.462C368.004,-157.643 465.066,-99.4878 516.999,-68.3719"/>
<polygon fill="midnightblue" stroke="midnightblue" points="519.064,-71.2151 525.843,-63.0731 515.466,-65.2104 519.064,-71.2151"/>
</g>
<!-- Node35 -->
<g id="node35" class="node"><title>Node35</title>
<g id="a_node35"><a xlink:href="../../d4/de6/classcellsociety__team02_1_1_draw.html#a194b51f8c48e33b98a53b48b0d1c105e" target="_top" xlink:title="cellsociety_team02.Draw.make\lHexagon">
<polygon fill="white" stroke="black" points="720.5,-175 720.5,-205 885.5,-205 885.5,-175 720.5,-175"/>
<text text-anchor="start" x="728.5" y="-193" font-family="Helvetica,sans-Serif" font-size="10.00">cellsociety_team02.Draw.make</text>
<text text-anchor="middle" x="803" y="-182" font-family="Helvetica,sans-Serif" font-size="10.00">Hexagon</text>
</a>
</g>
</g>
<!-- Node34&#45;&gt;Node35 -->
<g id="edge45" class="edge"><title>Node34&#45;&gt;Node35</title>
<path fill="none" stroke="midnightblue" d="M629.4,-156.035C656.767,-161.42 687.797,-167.526 715.926,-173.062"/>
<polygon fill="midnightblue" stroke="midnightblue" points="715.256,-176.497 725.744,-174.994 716.608,-169.629 715.256,-176.497"/>
</g>
<!-- Node36 -->
<g id="node36" class="node"><title>Node36</title>
<g id="a_node36"><a xlink:href="../../d4/de6/classcellsociety__team02_1_1_draw.html#a9fba740a0433f5893be019ecf23d486c" target="_top" xlink:title="cellsociety_team02.Draw.make\lRectangle">
<polygon fill="white" stroke="black" points="720.5,-126 720.5,-156 885.5,-156 885.5,-126 720.5,-126"/>
<text text-anchor="start" x="728.5" y="-144" font-family="Helvetica,sans-Serif" font-size="10.00">cellsociety_team02.Draw.make</text>
<text text-anchor="middle" x="803" y="-133" font-family="Helvetica,sans-Serif" font-size="10.00">Rectangle</text>
</a>
</g>
</g>
<!-- Node34&#45;&gt;Node36 -->
<g id="edge46" class="edge"><title>Node34&#45;&gt;Node36</title>
<path fill="none" stroke="midnightblue" d="M632.813,-141C657.317,-141 684.485,-141 709.75,-141"/>
<polygon fill="midnightblue" stroke="midnightblue" points="710.072,-144.5 720.072,-141 710.072,-137.5 710.072,-144.5"/>
</g>
<!-- Node37 -->
<g id="node37" class="node"><title>Node37</title>
<g id="a_node37"><a xlink:href="../../d4/de6/classcellsociety__team02_1_1_draw.html#a49fefdfc30cc8ed10caf60df63faac59" target="_top" xlink:title="cellsociety_team02.Draw.make\lTriangle">
<polygon fill="white" stroke="black" points="720.5,-77 720.5,-107 885.5,-107 885.5,-77 720.5,-77"/>
<text text-anchor="start" x="728.5" y="-95" font-family="Helvetica,sans-Serif" font-size="10.00">cellsociety_team02.Draw.make</text>
<text text-anchor="middle" x="803" y="-84" font-family="Helvetica,sans-Serif" font-size="10.00">Triangle</text>
</a>
</g>
</g>
<!-- Node34&#45;&gt;Node37 -->
<g id="edge47" class="edge"><title>Node34&#45;&gt;Node37</title>
<path fill="none" stroke="midnightblue" d="M629.4,-125.965C656.767,-120.58 687.797,-114.474 715.926,-108.938"/>
<polygon fill="midnightblue" stroke="midnightblue" points="716.608,-112.371 725.744,-107.006 715.256,-105.503 716.608,-112.371"/>
</g>
<!-- Node38 -->
<g id="node38" class="node"><title>Node38</title>
<g id="a_node38"><a xlink:href="../../d4/de6/classcellsociety__team02_1_1_draw.html#abc4794b50b65fcbf55017ad2dd2fa11d" target="_top" xlink:title="cellsociety_team02.Draw.make\lTriangleRow">
<polygon fill="white" stroke="black" points="965.5,-77 965.5,-107 1130.5,-107 1130.5,-77 965.5,-77"/>
<text text-anchor="start" x="973.5" y="-95" font-family="Helvetica,sans-Serif" font-size="10.00">cellsociety_team02.Draw.make</text>
<text text-anchor="middle" x="1048" y="-84" font-family="Helvetica,sans-Serif" font-size="10.00">TriangleRow</text>
</a>
</g>
</g>
<!-- Node37&#45;&gt;Node38 -->
<g id="edge48" class="edge"><title>Node37&#45;&gt;Node38</title>
<path fill="none" stroke="midnightblue" d="M885.591,-92C907.931,-92 932.296,-92 955.166,-92"/>
<polygon fill="midnightblue" stroke="midnightblue" points="955.21,-95.5001 965.21,-92 955.21,-88.5001 955.21,-95.5001"/>
</g>
<!-- Node40 -->
<g id="node40" class="node"><title>Node40</title>
<g id="a_node40"><a xlink:href="../../d0/d0a/class_patch_1_1_patch.html#a26da12e997d44cb58fcdf89f19b44a98" target="_top" xlink:title="Patch.Patch.getColor">
<polygon fill="white" stroke="black" points="745,-38.5 745,-57.5 861,-57.5 861,-38.5 745,-38.5"/>
<text text-anchor="middle" x="803" y="-45.5" font-family="Helvetica,sans-Serif" font-size="10.00">Patch.Patch.getColor</text>
</a>
</g>
</g>
<!-- Node39&#45;&gt;Node40 -->
<g id="edge50" class="edge"><title>Node39&#45;&gt;Node40</title>
<path fill="none" stroke="midnightblue" d="M637.647,-48C669.177,-48 704.518,-48 734.327,-48"/>
<polygon fill="midnightblue" stroke="midnightblue" points="734.624,-51.5001 744.624,-48 734.624,-44.5001 734.624,-51.5001"/>
</g>
<!-- Node41 -->
<g id="node41" class="node"><title>Node41</title>
<g id="a_node41"><a xlink:href="../../d5/d5c/class_cell_1_1_cell.html#adfe2be1b83b37c210944b70eabb3b485" target="_top" xlink:title="Cell.Cell.getColor">
<polygon fill="white" stroke="black" points="754,-0.5 754,-19.5 852,-19.5 852,-0.5 754,-0.5"/>
<text text-anchor="middle" x="803" y="-7.5" font-family="Helvetica,sans-Serif" font-size="10.00">Cell.Cell.getColor</text>
</a>
</g>
</g>
<!-- Node39&#45;&gt;Node41 -->
<g id="edge51" class="edge"><title>Node39&#45;&gt;Node41</title>
<path fill="none" stroke="midnightblue" d="M637.647,-35.0819C672.633,-29.7428 712.311,-23.6874 743.916,-18.8642"/>
<polygon fill="midnightblue" stroke="midnightblue" points="744.52,-22.3126 753.878,-17.3439 743.464,-15.3927 744.52,-22.3126"/>
</g>
</g>
</svg>
