<?xml version="1.0" encoding="UTF-8" standalone="no"?>
<!DOCTYPE svg PUBLIC "-//W3C//DTD SVG 1.1//EN"
 "http://www.w3.org/Graphics/SVG/1.1/DTD/svg11.dtd">
<!-- Generated by graphviz version 2.36.0 (20140111.2315)
 -->
<!-- Title: cellsociety_team02.GridView.makeGraph Pages: 1 -->
<svg width="832pt" height="66pt"
 viewBox="0.00 0.00 832.00 66.00" xmlns="http://www.w3.org/2000/svg" xmlns:xlink="http://www.w3.org/1999/xlink">
<g id="graph0" class="graph" transform="scale(1 1) rotate(0) translate(4 62)">
<title>cellsociety_team02.GridView.makeGraph</title>
<polygon fill="white" stroke="none" points="-4,4 -4,-62 828,-62 828,4 -4,4"/>
<!-- Node1 -->
<g id="node1" class="node"><title>Node1</title>
<polygon fill="#bfbfbf" stroke="black" points="0,-14 0,-44 182,-44 182,-14 0,-14"/>
<text text-anchor="start" x="8" y="-32" font-family="Helvetica,sans-Serif" font-size="10.00">cellsociety_team02.GridView.make</text>
<text text-anchor="middle" x="91" y="-21" font-family="Helvetica,sans-Serif" font-size="10.00">Graph</text>
</g>
<!-- Node2 -->
<g id="node2" class="node"><title>Node2</title>
<g id="a_node2"><a xlink:href="../../df/d71/classcellsociety__team02_1_1_grid_model.html#aaa16e9ad7b7de321cfc772caf45dcc89" target="_top" xlink:title="cellsociety_team02.GridModel.addData">
<polygon fill="white" stroke="black" points="218,-19.5 218,-38.5 422,-38.5 422,-19.5 218,-19.5"/>
<text text-anchor="middle" x="320" y="-26.5" font-family="Helvetica,sans-Serif" font-size="10.00">cellsociety_team02.GridModel.addData</text>
</a>
</g>
</g>
<!-- Node1&#45;&gt;Node2 -->
<g id="edge1" class="edge"><title>Node1&#45;&gt;Node2</title>
<path fill="none" stroke="midnightblue" d="M182.042,-29C190.495,-29 199.128,-29 207.744,-29"/>
<polygon fill="midnightblue" stroke="midnightblue" points="207.839,-32.5001 217.839,-29 207.839,-25.5001 207.839,-32.5001"/>
</g>
<!-- Node3 -->
<g id="node3" class="node"><title>Node3</title>
<g id="a_node3"><a xlink:href="../../df/d71/classcellsociety__team02_1_1_grid_model.html#abf618b18bf0b7c25d5717317c00b9269" target="_top" xlink:title="cellsociety_team02.GridModel.num\lState">
<polygon fill="white" stroke="black" points="458.5,-14 458.5,-44 643.5,-44 643.5,-14 458.5,-14"/>
<text text-anchor="start" x="466.5" y="-32" font-family="Helvetica,sans-Serif" font-size="10.00">cellsociety_team02.GridModel.num</text>
<text text-anchor="middle" x="551" y="-21" font-family="Helvetica,sans-Serif" font-size="10.00">State</text>
</a>
</g>
</g>
<!-- Node2&#45;&gt;Node3 -->
<g id="edge2" class="edge"><title>Node2&#45;&gt;Node3</title>
<path fill="none" stroke="midnightblue" d="M422.109,-29C430.807,-29 439.61,-29 448.312,-29"/>
<polygon fill="midnightblue" stroke="midnightblue" points="448.47,-32.5001 458.47,-29 448.47,-25.5001 448.47,-32.5001"/>
</g>
<!-- Node4 -->
<g id="node4" class="node"><title>Node4</title>
<g id="a_node4"><a xlink:href="../../d0/d0a/class_patch_1_1_patch.html#ab49e64fb74f1147d834efd81af480fae" target="_top" xlink:title="Patch.Patch.getCurrentCell">
<polygon fill="white" stroke="black" points="680,-38.5 680,-57.5 824,-57.5 824,-38.5 680,-38.5"/>
<text text-anchor="middle" x="752" y="-45.5" font-family="Helvetica,sans-Serif" font-size="10.00">Patch.Patch.getCurrentCell</text>
</a>
</g>
</g>
<!-- Node3&#45;&gt;Node4 -->
<g id="edge3" class="edge"><title>Node3&#45;&gt;Node4</title>
<path fill="none" stroke="midnightblue" d="M643.637,-37.7492C652.362,-38.5823 661.168,-39.423 669.784,-40.2457"/>
<polygon fill="midnightblue" stroke="midnightblue" points="669.508,-43.7352 679.796,-41.2016 670.174,-36.7669 669.508,-43.7352"/>
</g>
<!-- Node5 -->
<g id="node5" class="node"><title>Node5</title>
<g id="a_node5"><a xlink:href="../../d5/d5c/class_cell_1_1_cell.html#a04d500ffc9f19932a4ff0738f2f1dbc6" target="_top" xlink:title="Cell.Cell.getCurrentState">
<polygon fill="white" stroke="black" points="684.5,-0.5 684.5,-19.5 819.5,-19.5 819.5,-0.5 684.5,-0.5"/>
<text text-anchor="middle" x="752" y="-7.5" font-family="Helvetica,sans-Serif" font-size="10.00">Cell.Cell.getCurrentState</text>
</a>
</g>
</g>
<!-- Node3&#45;&gt;Node5 -->
<g id="edge4" class="edge"><title>Node3&#45;&gt;Node5</title>
<path fill="none" stroke="midnightblue" d="M643.637,-20.2508C653.965,-19.2647 664.407,-18.2677 674.514,-17.3027"/>
<polygon fill="midnightblue" stroke="midnightblue" points="674.87,-20.7847 684.492,-16.35 674.205,-13.8164 674.87,-20.7847"/>
</g>
</g>
</svg>
