<?xml version="1.0" encoding="UTF-8" standalone="no"?>
<!DOCTYPE svg PUBLIC "-//W3C//DTD SVG 1.1//EN"
 "http://www.w3.org/Graphics/SVG/1.1/DTD/svg11.dtd">
<!-- Generated by graphviz version 2.36.0 (20140111.2315)
 -->
<!-- Title: Cell.FireCell.updateStateandMove Pages: 1 -->
<svg width="376pt" height="180pt"
 viewBox="0.00 0.00 376.00 180.00" xmlns="http://www.w3.org/2000/svg" xmlns:xlink="http://www.w3.org/1999/xlink">
<g id="graph0" class="graph" transform="scale(1 1) rotate(0) translate(4 176)">
<title>Cell.FireCell.updateStateandMove</title>
<polygon fill="white" stroke="none" points="-4,4 -4,-176 372,-176 372,4 -4,4"/>
<!-- Node1 -->
<g id="node1" class="node"><title>Node1</title>
<polygon fill="#bfbfbf" stroke="black" points="0.5,-76.5 0.5,-95.5 177.5,-95.5 177.5,-76.5 0.5,-76.5"/>
<text text-anchor="middle" x="89" y="-83.5" font-family="Helvetica,sans-Serif" font-size="10.00">Cell.FireCell.updateStateandMove</text>
</g>
<!-- Node2 -->
<g id="node2" class="node"><title>Node2</title>
<g id="a_node2"><a xlink:href="../../d5/de8/class_cell_1_1_fire_cell.html#ac3d96d433f1468098b06e807f30fa966" target="_top" xlink:title="Cell.FireCell.burningNeighbor">
<polygon fill="white" stroke="black" points="214.5,-152.5 214.5,-171.5 367.5,-171.5 367.5,-152.5 214.5,-152.5"/>
<text text-anchor="middle" x="291" y="-159.5" font-family="Helvetica,sans-Serif" font-size="10.00">Cell.FireCell.burningNeighbor</text>
</a>
</g>
</g>
<!-- Node1&#45;&gt;Node2 -->
<g id="edge1" class="edge"><title>Node1&#45;&gt;Node2</title>
<path fill="none" stroke="midnightblue" d="M108.045,-95.5912C131.798,-107.911 175.105,-129.332 214,-143 221.048,-145.477 228.571,-147.765 236.04,-149.833"/>
<polygon fill="midnightblue" stroke="midnightblue" points="235.22,-153.236 245.783,-152.42 237.016,-146.471 235.22,-153.236"/>
</g>
<!-- Node3 -->
<g id="node3" class="node"><title>Node3</title>
<g id="a_node3"><a xlink:href="../../d5/de8/class_cell_1_1_fire_cell.html#ad39bb52b671624b259f02699a7075cd9" target="_top" xlink:title="Cell.FireCell.FireCell">
<polygon fill="white" stroke="black" points="237.5,-114.5 237.5,-133.5 344.5,-133.5 344.5,-114.5 237.5,-114.5"/>
<text text-anchor="middle" x="291" y="-121.5" font-family="Helvetica,sans-Serif" font-size="10.00">Cell.FireCell.FireCell</text>
</a>
</g>
</g>
<!-- Node1&#45;&gt;Node3 -->
<g id="edge2" class="edge"><title>Node1&#45;&gt;Node3</title>
<path fill="none" stroke="midnightblue" d="M140.21,-95.54C167.433,-100.712 201.264,-107.14 229.883,-112.578"/>
<polygon fill="midnightblue" stroke="midnightblue" points="229.291,-116.028 239.769,-114.456 230.598,-109.151 229.291,-116.028"/>
</g>
<!-- Node4 -->
<g id="node4" class="node"><title>Node4</title>
<g id="a_node4"><a xlink:href="../../d0/d0a/class_patch_1_1_patch.html#a95c5f0d4bc2f3dd4e3f3fb12b93c6cd3" target="_top" xlink:title="Patch.Patch.getCurrentState">
<polygon fill="white" stroke="black" points="214.5,-76.5 214.5,-95.5 367.5,-95.5 367.5,-76.5 214.5,-76.5"/>
<text text-anchor="middle" x="291" y="-83.5" font-family="Helvetica,sans-Serif" font-size="10.00">Patch.Patch.getCurrentState</text>
</a>
</g>
</g>
<!-- Node1&#45;&gt;Node4 -->
<g id="edge3" class="edge"><title>Node1&#45;&gt;Node4</title>
<path fill="none" stroke="midnightblue" d="M177.723,-86C186.474,-86 195.352,-86 204.084,-86"/>
<polygon fill="midnightblue" stroke="midnightblue" points="204.251,-89.5001 214.25,-86 204.25,-82.5001 204.251,-89.5001"/>
</g>
<!-- Node5 -->
<g id="node5" class="node"><title>Node5</title>
<g id="a_node5"><a xlink:href="../../d5/d5c/class_cell_1_1_cell.html#aceb5e4da80edd40d3c330807846aa8e6" target="_top" xlink:title="Cell.Cell.getNeighbors">
<polygon fill="white" stroke="black" points="230,-38.5 230,-57.5 352,-57.5 352,-38.5 230,-38.5"/>
<text text-anchor="middle" x="291" y="-45.5" font-family="Helvetica,sans-Serif" font-size="10.00">Cell.Cell.getNeighbors</text>
</a>
</g>
</g>
<!-- Node1&#45;&gt;Node5 -->
<g id="edge4" class="edge"><title>Node1&#45;&gt;Node5</title>
<path fill="none" stroke="midnightblue" d="M140.21,-76.46C167.433,-71.2878 201.264,-64.8599 229.883,-59.4222"/>
<polygon fill="midnightblue" stroke="midnightblue" points="230.598,-62.8491 239.769,-57.5439 229.291,-55.9721 230.598,-62.8491"/>
</g>
<!-- Node6 -->
<g id="node6" class="node"><title>Node6</title>
<g id="a_node6"><a xlink:href="../../d0/d0a/class_patch_1_1_patch.html#a798cf940ecaa1d512b2df9c717e4d834" target="_top" xlink:title="Patch.Patch.setFutureCell">
<polygon fill="white" stroke="black" points="222.5,-0.5 222.5,-19.5 359.5,-19.5 359.5,-0.5 222.5,-0.5"/>
<text text-anchor="middle" x="291" y="-7.5" font-family="Helvetica,sans-Serif" font-size="10.00">Patch.Patch.setFutureCell</text>
</a>
</g>
</g>
<!-- Node1&#45;&gt;Node6 -->
<g id="edge5" class="edge"><title>Node1&#45;&gt;Node6</title>
<path fill="none" stroke="midnightblue" d="M108.045,-76.4088C131.798,-64.0885 175.105,-42.6678 214,-29 221.048,-26.5232 228.571,-24.2346 236.04,-22.1673"/>
<polygon fill="midnightblue" stroke="midnightblue" points="237.016,-25.5294 245.783,-19.5801 235.22,-18.7639 237.016,-25.5294"/>
</g>
</g>
</svg>
