<?xml version="1.0" encoding="UTF-8" standalone="no"?>
<!DOCTYPE svg PUBLIC "-//W3C//DTD SVG 1.1//EN"
 "http://www.w3.org/Graphics/SVG/1.1/DTD/svg11.dtd">
<!-- Generated by graphviz version 2.36.0 (20140111.2315)
 -->
<!-- Title: Cell.LifeCell.updateStateandMove Pages: 1 -->
<svg width="366pt" height="142pt"
 viewBox="0.00 0.00 366.00 142.00" xmlns="http://www.w3.org/2000/svg" xmlns:xlink="http://www.w3.org/1999/xlink">
<g id="graph0" class="graph" transform="scale(1 1) rotate(0) translate(4 138)">
<title>Cell.LifeCell.updateStateandMove</title>
<polygon fill="white" stroke="none" points="-4,4 -4,-138 362,-138 362,4 -4,4"/>
<!-- Node1 -->
<g id="node1" class="node"><title>Node1</title>
<polygon fill="#bfbfbf" stroke="black" points="0.5,-57.5 0.5,-76.5 177.5,-76.5 177.5,-57.5 0.5,-57.5"/>
<text text-anchor="middle" x="89" y="-64.5" font-family="Helvetica,sans-Serif" font-size="10.00">Cell.LifeCell.updateStateandMove</text>
</g>
<!-- Node2 -->
<g id="node2" class="node"><title>Node2</title>
<g id="a_node2"><a xlink:href="../../dd/d55/class_cell_1_1_life_cell.html#a65800277b8ef127f0643726928280ce5" target="_top" xlink:title="Cell.LifeCell.aliveNeighbors">
<polygon fill="white" stroke="black" points="214,-114.5 214,-133.5 358,-133.5 358,-114.5 214,-114.5"/>
<text text-anchor="middle" x="286" y="-121.5" font-family="Helvetica,sans-Serif" font-size="10.00">Cell.LifeCell.aliveNeighbors</text>
</a>
</g>
</g>
<!-- Node1&#45;&gt;Node2 -->
<g id="edge1" class="edge"><title>Node1&#45;&gt;Node2</title>
<path fill="none" stroke="midnightblue" d="M119.978,-76.5169C145.037,-84.3924 181.752,-95.7472 214,-105 221.935,-107.277 230.394,-109.616 238.605,-111.841"/>
<polygon fill="midnightblue" stroke="midnightblue" points="237.88,-115.271 248.446,-114.487 239.698,-108.511 237.88,-115.271"/>
</g>
<!-- Node3 -->
<g id="node3" class="node"><title>Node3</title>
<g id="a_node3"><a xlink:href="../../d5/d5c/class_cell_1_1_cell.html#aceb5e4da80edd40d3c330807846aa8e6" target="_top" xlink:title="Cell.Cell.getNeighbors">
<polygon fill="white" stroke="black" points="225,-76.5 225,-95.5 347,-95.5 347,-76.5 225,-76.5"/>
<text text-anchor="middle" x="286" y="-83.5" font-family="Helvetica,sans-Serif" font-size="10.00">Cell.Cell.getNeighbors</text>
</a>
</g>
</g>
<!-- Node1&#45;&gt;Node3 -->
<g id="edge2" class="edge"><title>Node1&#45;&gt;Node3</title>
<path fill="none" stroke="midnightblue" d="M177.518,-75.5274C190.016,-76.7451 202.735,-77.9844 214.842,-79.1641"/>
<polygon fill="midnightblue" stroke="midnightblue" points="214.557,-82.6528 224.849,-80.1392 215.236,-75.6858 214.557,-82.6528"/>
</g>
<!-- Node4 -->
<g id="node4" class="node"><title>Node4</title>
<g id="a_node4"><a xlink:href="../../dd/d55/class_cell_1_1_life_cell.html#a62251268d13e1c3f543662b60aed3134" target="_top" xlink:title="Cell.LifeCell.LifeCell">
<polygon fill="white" stroke="black" points="232.5,-38.5 232.5,-57.5 339.5,-57.5 339.5,-38.5 232.5,-38.5"/>
<text text-anchor="middle" x="286" y="-45.5" font-family="Helvetica,sans-Serif" font-size="10.00">Cell.LifeCell.LifeCell</text>
</a>
</g>
</g>
<!-- Node1&#45;&gt;Node4 -->
<g id="edge3" class="edge"><title>Node1&#45;&gt;Node4</title>
<path fill="none" stroke="midnightblue" d="M177.518,-58.4726C192.591,-57.004 207.985,-55.5041 222.239,-54.1152"/>
<polygon fill="midnightblue" stroke="midnightblue" points="222.783,-57.5788 232.396,-53.1255 222.104,-50.6118 222.783,-57.5788"/>
</g>
<!-- Node5 -->
<g id="node5" class="node"><title>Node5</title>
<g id="a_node5"><a xlink:href="../../d0/d0a/class_patch_1_1_patch.html#a798cf940ecaa1d512b2df9c717e4d834" target="_top" xlink:title="Patch.Patch.setFutureCell">
<polygon fill="white" stroke="black" points="217.5,-0.5 217.5,-19.5 354.5,-19.5 354.5,-0.5 217.5,-0.5"/>
<text text-anchor="middle" x="286" y="-7.5" font-family="Helvetica,sans-Serif" font-size="10.00">Patch.Patch.setFutureCell</text>
</a>
</g>
</g>
<!-- Node1&#45;&gt;Node5 -->
<g id="edge4" class="edge"><title>Node1&#45;&gt;Node5</title>
<path fill="none" stroke="midnightblue" d="M119.978,-57.4831C145.037,-49.6076 181.752,-38.2528 214,-29 221.935,-26.7232 230.394,-24.3837 238.605,-22.1587"/>
<polygon fill="midnightblue" stroke="midnightblue" points="239.698,-25.4893 248.446,-19.5132 237.88,-18.7293 239.698,-25.4893"/>
</g>
</g>
</svg>
